<svg width="282" height="405" viewBox="0 0 282 405" fill="none" xmlns="http://www.w3.org/2000/svg">
<g clip-path="url(#clip0_281_3441)">
<path d="M259.7 337.1C258.9 343.6 264.1 352.5 269.5 358.8C275 365.1 277.8 362.1 280.4 367.9C281.3 369.9 268.5 386.5 268 388.8C267 392.8 222.4 403.9 219.1 402.6C219.1 402.6 227.4 391.7 231.7 385.4C233.1 383.3 225.6 385.4 220.9 383.4C218 382.2 211.8 376.1 213.6 375.4C215.7 374.6 197.7 374.9 194.8 375.8C191.9 376.7 189.9 376.1 181 378C172.1 379.9 142.7 377.5 124.8 370.4C124.1 370.1 109 374 98.6 389.4C95.2 394.5 74.2 374.9 73.6 375.5C71.4 377.8 74.3 352.4 71.4 352.9C70.7 353 88.6 339.2 88 338.2C85.7 334.7 102.5 353.2 99.9 354.5C97 356.1 94.6 345.2 94 342.4C92.6 335.4 91.4 351.6 91.4 344.2C91.4 343 87.5 331.8 88.2 331.3C89.7 330.2 90.8 331.1 92.6 331.1C98.6 331.1 103.5 330.7 109.5 332.3C113.4 333.4 116.6 335.9 120.8 336.3C127.2 336.9 133.6 335.3 140 335.8C146.2 336.3 139.1 324.4 144.4 323.3C145.6 323.1 151.9 325.4 152.6 324.7C153.5 323.8 159.7 327.6 161.8 327.1C165.3 326.2 173.9 327.4 177.1 328C185.2 329.6 192.5 328 200 323.5C203.3 321.5 206.2 322.2 207.5 319C208.9 315.5 209 315 210.3 311.3C212 306.7 210 299.9 209 295.2C208.4 292.2 205.7 284.2 207.2 281.1C209.9 275.8 225.9 255.4 231.6 254.1C236.8 252.9 248.9 232.8 254.2 234.2C256.8 234.9 265.9 250.1 260.1 249.2C259.8 249.1 269 263.3 272.8 282.7C276.6 302.5 272.4 312.1 265.9 328.2C263.4 334.5 263.4 334.9 259.7 337.6C258.8 338.3 254.5 341.7 254.3 342.1C254 342.8 254 343 251.4 344.6C248.8 346.1 249 345.4 247.6 347.6" fill="#CAA77A"/>
<path d="M88.1 130.499C82.9 132.699 88.5 133.799 87.1 136.299C76.7 154.499 87.2 175.499 95.5 193.699C97.6 198.399 96.7 199.799 98.8 204.199C99.8 206.199 103.3 210.899 103.3 212.999C103.3 213.499 103.3 214.399 103.3 214.399C103.3 214.399 102.6 210.899 101.9 209.399C101.7 208.899 100.7 207.999 101.2 207.999C101.5 207.999 101.8 208.799 101.9 208.999C104.2 214.799 101.6 222.099 103.1 228.099C104.1 232.299 112.1 237.299 116.5 238.399C133.1 242.499 149.8 238.199 166.4 238.199C170.6 238.199 182.5 239.499 186 236.099C188.9 233.199 189.8 229.399 192.2 226.099C195.4 221.599 202.8 216.199 208 214.199C213.3 212.099 220 213.399 225.2 214.699C226.5 214.999 230.6 216.699 231.9 215.399C234.1 213.199 235.1 206.899 234.5 204.199C233 196.899 232.7 188.799 231.3 181.699C230.3 176.899 227.9 171.399 226.2 166.799C219.1 148.499 210.7 131.799 194.9 120.399C191 117.499 187.1 112.499 182.6 110.299C178.2 108.099 179.4 104.999 167.5 101.899C155.6 98.7994 148.9 91.8994 142.8 90.2994C141.2 89.8994 140.2 93.6994 140.1 93.9994C139.9 94.3994 134.5 86.9994 134 86.8994C128.9 85.8994 133 94.8994 128.1 92.6994C127.3 92.2994 130 82.2994 129.1 82.5994C126.2 83.5994 115 97.0994 115 97.0994C115 97.0994 116.9 97.0994 113.6 97.6994C113.2 97.7994 109.7 90.8994 109.4 93.9994C109.1 97.0994 109.6 100.699 109.6 101.599C109.6 102.299 111.4 101.599 109.6 101.899C107.8 102.199 93.7 105.199 94.5 107.499C94.8 108.499 98.7 110.099 99.8 110.699C100.1 110.899 90.3 120.799 87.8 131.599" fill="#CAA77A"/>
<path opacity="0.23" d="M146.9 339.799C146 340.699 167.4 371.899 162.9 372.099C133.3 373.999 103 353.599 102.5 354.299C102.2 354.699 106.8 358.299 107.2 358.699C112.2 364.199 109.2 362.299 123.8 369.799C153.1 384.899 183.5 377.099 196.2 375.399C197.2 374.899 209.3 375.199 212.9 373.499C226.5 366.999 233.4 361.899 242.4 365.899C259.5 373.499 238.6 378.999 216.4 378.799C214.8 378.799 223.3 386.099 231.5 385.899C233 385.899 213.9 402.699 220.2 402.299C232 401.599 253.2 390.399 265 390.399C266.5 390.399 278.8 375.299 280.1 367.999C281.2 362.199 261.3 358.099 259.8 337.299C259.6 334.899 247.7 349.599 248.1 347.099C248.1 346.899 232.5 354.699 231.4 355.799C231.2 355.999 231 356.299 230.9 356.599C196.5 369.499 162.1 351.799 147.6 339.899C147.2 339.799 147 339.799 146.9 339.799Z" fill="#3F2719"/>
<path d="M172.6 88.1996C172.6 88.0996 172.7 88.0996 172.8 88.0996C172.9 88.0996 173 88.0996 173 88.1996C173 88.2996 172.9 88.2996 172.8 88.2996C172.7 88.2996 172.6 88.1996 172.6 88.1996Z" fill="#2D1F04"/>
<path d="M238.3 379.899C231.8 384.999 228.3 386.399 223.5 393.499C222.7 394.699 220.1 398.799 221 400.199C222.7 402.599 228.3 400.099 230.5 399.499C238.7 397.299 247.4 395.699 255.6 393.499C257.2 393.099 265 391.599 264.6 389.599C263.6 384.499 253.8 382.199 250.5 380.399" fill="#B6B1AE"/>
<path d="M72.3 355.3C65.8 350.1 56.2 347.4 48 347.5C47.2 347.5 40.3 348.2 40.2 349.1C40.1 351.4 46 354.1 47.4 355.4C53.3 361 61.1 365.1 67.6 370.2C68.7 371.1 72.4 375.1 74 374.3C76.4 373.2 73.6 366.1 73 364.8" fill="#B6B1AE"/>
<path d="M158.8 303.1C158.7 302.9 158.5 302.7 158.4 302.5Z" fill="#B6B1AE"/>
<path d="M103.3 230.999C103.1 228.499 99.5 232.899 101.2 235.199C101.9 236.199 95.4 244.299 101.8 240.199C106 237.499 104.3 238.899 104.1 239.199C101.1 243.199 96.3 217.699 92.5 220.699C85.4 226.499 67.9 241.799 67.1 247.099C66.8 249.299 83.8 259.299 89.6 273.899C91.6 278.899 92.1 276.299 91.8 277.299C89.8 285.199 84.2 286.799 81.9 302.499C81.1 307.999 78.6 314.499 78.6 320.099C78.6 320.999 78.2 324.799 79.1 325.499C91.5 334.599 109.5 335.599 126.2 335.599C129.6 335.599 132.8 338.299 136.1 337.499C141 336.299 145.9 336.599 150.8 335.399C151.4 335.199 154.8 335.999 154.8 335.399C154.8 335.199 151 330.799 150.8 329.799C149 322.699 149.2 326.999 156.4 328.399C187.3 334.299 203.6 319.999 207.7 318.399C212.5 316.599 217.5 303.599 217.3 295.299C217.1 287.199 215.6 283.599 214 277.699C226.4 261.299 240.1 248.299 260 248.499C267.4 248.599 263.9 248.199 262.9 245.699C258 233.799 237.6 213.599 230.8 211.899C226.9 210.899 218.7 206.699 214.4 207.999C206.2 210.299 197.9 215.399 192.6 222.399C190.9 224.599 188.3 230.399 186 231.999C185 232.699 183.6 233.099 182.3 233.399C175.8 234.699 169.1 234.499 162.6 235.699C148.6 238.499 137.7 237.299 123.7 234.499C121.4 233.999 116.1 234.599 113.9 234.299C111.2 233.899 108.9 233.799 106.2 233.099C103.2 232.099 103.4 231.299 103.3 230.999Z" fill="#FFDB1F"/>
<path d="M87 141.8C89 133.7 94 124.5 101.3 123.1C109.9 121.5 117.8 115 152.3 114.9C186.7 114.8 165.1 117.2 170.3 117.3C181.1 117.5 189.9 122.4 196.6 134.6C198.8 138.7 211.6 172.5 180.5 192.5C160.6 205.3 118.5 211.3 98.3 185.8C88.7 173.9 83.3 157 87 141.8Z" fill="#FFDBAF"/>
<path d="M248.8 82.2994C248.6 81.9994 248.3 81.6994 248.1 81.3994Z" fill="#9D7B51"/>
<path d="M109.6 342V347.6" stroke="#9D7B51" stroke-width="3.87" stroke-miterlimit="10" stroke-linecap="round" stroke-linejoin="round"/>
<path d="M115.7 345.399V350.999" stroke="#9D7B51" stroke-width="3.87" stroke-miterlimit="10" stroke-linecap="round" stroke-linejoin="round"/>
<path d="M121.5 349.1V354.7" stroke="#9D7B51" stroke-width="3.87" stroke-miterlimit="10" stroke-linecap="round" stroke-linejoin="round"/>
<path d="M231.6 283.199V288.799" stroke="#9D7B51" stroke-width="3.87" stroke-miterlimit="10" stroke-linecap="round" stroke-linejoin="round"/>
<path d="M238.2 285.199V290.799" stroke="#9D7B51" stroke-width="3.87" stroke-miterlimit="10" stroke-linecap="round" stroke-linejoin="round"/>
<path d="M180.2 214.3V220" stroke="#9D7B51" stroke-width="3.87" stroke-miterlimit="10" stroke-linecap="round" stroke-linejoin="round"/>
<path d="M174.5 217.3V222.9" stroke="#9D7B51" stroke-width="3.87" stroke-miterlimit="10" stroke-linecap="round" stroke-linejoin="round"/>
<path opacity="0.23" d="M164.1 100.3C191.1 111.7 222.3 152.6 216 207.4C215.9 208.4 214.7 210.1 215.7 210.4C217.7 211.1 220.9 209.1 223.4 210.1C224.5 210.5 232.6 215 233.5 214.5C234.9 213.5 233.9 208.2 234.2 206.5C239.9 168.6 208.4 133.1 197.3 121.5C194.9 119 185.4 111.1 181.7 109" fill="#3F2719"/>
<path opacity="0.23" d="M94.2 107C94.1 107.1 94 107.1 93.9 107.2C93.9 107.2 93.8 107.3 93.8 107.4" fill="#3F2719"/>
<path opacity="0.23" d="M93.8 342.2C93.7 341.3 92.7 345.1 91.7 344.3C90.3 343 88.7 337.4 88.4 337.8C84.9 343.2 73.5 346.1 72.4 353.3C71.3 360.5 72.9 357.5 72.8 357.3C72.1 355.4 65.8 353 65.1 352.6C62.9 351.5 40.3 344.7 39.9 350.2C39.9 350.3 58.3 363.8 59.8 365C69.7 372.6 77.3 378.4 87.2 386C88.6 387.1 97.4 390.5 99.1 389.9C101.4 389.1 107.9 381.7 108.4 379.8C108.7 378.8 122.9 369.9 122.8 369.6C121.3 365.1 103 357.1 100.2 353.5C95.7 347.7 94.9 349.7 93.8 342.2Z" fill="#3F2719"/>
<path opacity="0.23" d="M85.8 291.299C84.5 294.199 90.1 284.599 92 283.399C96.1 280.799 102.2 280.699 106.7 280.699C118.4 280.699 140.9 291.099 153.4 292.799C176.1 295.799 195.8 287.399 193.5 283.999C191.5 281.199 157.6 289.699 144.9 285.199C133.6 281.299 115.8 280.599 104.1 278.599C101.3 278.099 94.5 278.099 92.2 273.799C91.6 272.699 89.5 281.699 89.1 282.399C86.3 286.799 88.1 286.399 85.8 291.299Z" fill="#3F2719"/>
<path d="M98.7 111.8C70.6 140.4 88 180.6 98.7 201.9C99.6 203.8 101 205.9 101.3 208C101.5 209.1 100.8 210.8 101.3 211.8C101.5 212.2 102.4 210.8 102.5 211.2C102.7 213.2 102.5 215.4 102.3 217.3C102.2 218 101.4 220 101.9 219.5C102.1 219.3 102.6 217.7 103.3 217.9C103.7 218 103.3 228.5 103.1 229.6" stroke="#2D1F04" stroke-width="2.62" stroke-miterlimit="10" stroke-linecap="round" stroke-linejoin="round"/>
<path d="M88.3 331.399C88.2 338.299 91.8 345.299 91.8 345.299C91.8 345.299 93.3 340.799 94 341.999C94.8 343.399 98.1 355.699 100.3 354.999C100.4 354.999 100.3 351.699 100.5 351.899C101.3 352.299 105.7 358.199 107.2 359.299C112.6 363.399 119 366.799 125.2 369.499C148.3 379.599 174.7 380.199 212.1 374.299" stroke="#2D1F04" stroke-width="2.62" stroke-miterlimit="10" stroke-linecap="round" stroke-linejoin="round"/>
<path d="M88.6 338.1C82.8 342.1 74.3 348.7 71.7 355.7" stroke="#2D1F04" stroke-width="2.62" stroke-miterlimit="10" stroke-linecap="round" stroke-linejoin="round"/>
<path d="M125.1 369.5C115.8 370.6 103.5 384.9 100.5 388.7" stroke="#2D1F04" stroke-width="2.62" stroke-miterlimit="10" stroke-linecap="round" stroke-linejoin="round"/>
<path d="M71.2 355C61.7 347.3 43.8 347.9 42.4 348.2" stroke="#2D1F04" stroke-width="2.62" stroke-miterlimit="10" stroke-linecap="round" stroke-linejoin="round"/>
<path d="M71.7 374C75.7 377.1 80.9 380.5 84.9 383.4C87.4 385.2 98.5 392.4 100.4 388.7" stroke="#2D1F04" stroke-width="2.62" stroke-miterlimit="10" stroke-linecap="round" stroke-linejoin="round"/>
<path d="M212.3 368.899C217.8 387.399 222.9 383.299 231.6 385.799" stroke="#2D1F04" stroke-width="2.62" stroke-miterlimit="10" stroke-linecap="round" stroke-linejoin="round"/>
<path d="M259.7 336.5C259.5 360.7 282.3 364.5 280.5 368.1" stroke="#2D1F04" stroke-width="2.62" stroke-miterlimit="10" stroke-linecap="round" stroke-linejoin="round"/>
<path d="M238.1 380.399C232.6 384.499 220.8 396.699 219.3 403.099" stroke="#2D1F04" stroke-width="2.62" stroke-miterlimit="10" stroke-linecap="round" stroke-linejoin="round"/>
<path d="M219.8 403.4C220.8 403.8 253.8 393.3 265.7 390.1C272.6 388.3 279.9 369.2 280.5 367.8" stroke="#2D1F04" stroke-width="2.62" stroke-miterlimit="10" stroke-linecap="round" stroke-linejoin="round"/>
<path d="M157.5 98.0996C215.3 117.3 234.6 173.4 234.6 208.6" stroke="#2D1F04" stroke-width="2.62" stroke-miterlimit="10" stroke-linecap="round" stroke-linejoin="round"/>
<path d="M72 356.1C74 361.9 74.9 367.6 73.8 373.6" stroke="#2D1F04" stroke-width="2.62" stroke-miterlimit="10" stroke-linecap="round" stroke-linejoin="round"/>
<path d="M238.5 380.199C251.1 377.799 259.6 383.799 265.4 389.699" stroke="#2D1F04" stroke-width="2.62" stroke-miterlimit="10" stroke-linecap="round" stroke-linejoin="round"/>
<path d="M39.5 349.899C42.6 353.699 75.4 376.099 77 377.799Z" fill="black"/>
<path d="M39.5 349.899C42.6 353.699 75.4 376.099 77 377.799" stroke="#2D1F04" stroke-width="2.62" stroke-miterlimit="10" stroke-linejoin="round"/>
<path d="M43 347.999L42.4 347.899L40.8 348.399L39.8 348.999L39.5 349.899" fill="black"/>
<path d="M43 347.999L42.4 347.899L40.8 348.399L39.8 348.999L39.5 349.899" stroke="#2D1F04" stroke-width="2.62" stroke-miterlimit="10" stroke-linejoin="round"/>
<path d="M39.9 350.099C46 349.899 67.6 356.499 73 362.299" stroke="#2D1F04" stroke-width="2.62" stroke-miterlimit="10" stroke-linecap="round" stroke-linejoin="round"/>
<path d="M220 402.5C224.9 395.7 246.6 382.9 250 381.3" stroke="#2D1F04" stroke-width="2.62" stroke-miterlimit="10" stroke-linecap="round" stroke-linejoin="round"/>
<path d="M103.5 231.3C142.3 242.5 181.8 234.5 186.1 232.3" stroke="#2D1F04" stroke-width="2.62" stroke-miterlimit="10" stroke-linecap="round" stroke-linejoin="round"/>
<path d="M103.5 231.4C103.9 228.9 100.8 233.4 100.2 234.7C99.3 236.6 101.2 238.2 101.2 239.2C101.1 240.3 99.3 242.9 98.8 244.2C95.3 253.6 86.9 265.7 92.1 275.8" stroke="#2D1F04" stroke-width="2.62" stroke-miterlimit="10" stroke-linecap="round" stroke-linejoin="round"/>
<path d="M79.2 326.699C95.8 336.499 119.3 336.999 143.5 336.999" stroke="#2D1F04" stroke-width="2.62" stroke-miterlimit="10" stroke-linecap="round" stroke-linejoin="round"/>
<path d="M78.6 326.3C76.8 315 81 300.6 85.2 290.1C86.9 285.7 90.1 281.5 91.5 277.1" stroke="#2D1F04" stroke-width="2.62" stroke-miterlimit="10" stroke-linecap="round" stroke-linejoin="round"/>
<path d="M234.4 207.399C234.5 208.499 234.3 209.899 234.2 211.299" stroke="#2D1F04" stroke-width="2.62" stroke-miterlimit="10" stroke-linecap="round" stroke-linejoin="round"/>
<path d="M234.6 209.199C234.8 210.499 234.6 211.799 234.8 213.099" stroke="#2D1F04" stroke-width="2.62" stroke-miterlimit="10" stroke-linecap="round" stroke-linejoin="round"/>
<path d="M168.8 243.8C157.8 247.7 115 247.4 101.6 238.5" stroke="#2D1F04" stroke-width="2.62" stroke-miterlimit="10" stroke-linecap="round" stroke-linejoin="round"/>
<path d="M109.5 233.3C109 234.9 108.4 236.1 108.4 237.9" stroke="#2D1F04" stroke-width="2.62" stroke-miterlimit="10" stroke-linecap="round" stroke-linejoin="round"/>
<path d="M119.4 235.3C118.7 236.8 118.5 238.7 118.5 240.4" stroke="#2D1F04" stroke-width="2.62" stroke-miterlimit="10" stroke-linecap="round" stroke-linejoin="round"/>
<path d="M131.3 236.8L130.6 240.8" stroke="#2D1F04" stroke-width="2.62" stroke-miterlimit="10" stroke-linecap="round" stroke-linejoin="round"/>
<path d="M139.6 237.899V238.599V238.999V239.699V240.099V240.499V240.999" stroke="#2D1F04" stroke-width="2.62" stroke-miterlimit="10" stroke-linecap="round" stroke-linejoin="round"/>
<path d="M234.3 249.199L236.4 252.399" stroke="#2D1F04" stroke-width="2.62" stroke-miterlimit="10" stroke-linecap="round" stroke-linejoin="round"/>
<path d="M135 238.1V238.6V239V239.4V239.9V240.3" stroke="#2D1F04" stroke-width="2.62" stroke-miterlimit="10" stroke-linecap="round" stroke-linejoin="round"/>
<path d="M167.8 236.8V237.2V237.7V238.6V239" stroke="#2D1F04" stroke-width="2.62" stroke-miterlimit="10" stroke-linecap="round" stroke-linejoin="round"/>
<path d="M171.1 236.8V237.5V238.1V238.6" stroke="#2D1F04" stroke-width="2.62" stroke-miterlimit="10" stroke-linecap="round" stroke-linejoin="round"/>
<path d="M174.4 159.499C174.1 159.499 173.8 159.399 173.5 159.399Z" fill="#2D1F04"/>
<path d="M99.7 110.1C98.6 109 93.3 108.8 93.3 108.8C93.3 104.6 108.9 101.8 109.4 101.1C109.7 100.6 106.3 97.2996 109.7 92.6996C110.2 92.0996 113.4 99.2996 114.1 97.5996C118.7 87.1996 130.6 81.3996 130.4 81.6996C127.8 83.9996 127.9 89.1996 127.9 93.3996C127.9 93.4996 133.2 85.2996 133.7 86.2996C133.9 86.5996 137.8 93.2996 139.5 93.6996C140.8 93.9996 141 89.1996 142.1 89.5996C143.7 90.0996 144 92.1996 157.6 98.0996" stroke="#2D1F04" stroke-width="2.62" stroke-miterlimit="10" stroke-linecap="round" stroke-linejoin="round"/>
<path d="M191.9 326C189.5 325.6 184.7 326.9 182.2 327.4C176.7 328.6 170.4 329.6 165.1 327.8C159 325.7 152.6 324.4 146.4 322.6C145.9 322.4 145.2 321.2 144.7 321.6C144.7 321.6 143 323.1 143 323.5C143 324.8 142.5 326.3 142.4 327.6C142.3 329 141.1 331.9 142 333.1C143 334.5 143.7 336.8 145 337.8C152.3 343.4 160.1 348.5 167.9 352.8C168.3 353 169.9 350.3 169.9 350.3C171.2 348 172.1 345.4 173.2 343.1C174.6 340.1 184.5 326.5 188.2 327.2" fill="#CAA77A"/>
<path d="M68.8 250.1C67.8 249.3 65 256.8 64.2 258.2C61.2 263.6 57 268.4 54.9 274.4C53 280 48.5 287.3 48.6 293.3C48.7 301.5 54 312.7 59.2 318.8C60.9 320.8 66.2 325.3 68.7 326.2C73.3 327.9 75.2 328.7 79.9 330.3C87.1 332.8 99.8 332.5 106.9 330.7C114.8 328.7 124.4 325.3 131 320.8C136.1 317.3 139.7 313.1 143.3 307.7C146.5 302.9 138.3 298.3 134.2 296.9C128 294.8 119 298.5 113.2 300.2C107.8 301.7 102.3 300.5 97.3 298.7C89.1 295.7 87.7 284.7 88 277.6C88.1 275.3 90.5 272.6 89.7 270.5C83.6 256.1 71.2 252.1 68.8 250.1Z" fill="#CAA77A"/>
<path opacity="0.23" d="M60 306.7C80.8 335.7 141.2 301.4 141.8 283.8C141.8 282.6 146.7 294 146.7 294C146.7 294 145.4 302 145.3 302.4C144.9 303.9 144.1 305.2 143.4 306.6C141.7 309.8 139 312.9 136.5 315.4C134.1 317.7 133.4 317.7 131.1 320.1C128 323.3 122.4 327.3 118.4 328.9C114.1 330.6 106 331.6 101.1 331.9C73.1 333.9 47.1 320.2 49.8 288.6C50.6 279.2 60.9 261.8 67.7 254.3C70.1 251.6 40.1 279 60 306.7Z" fill="#3F2719"/>
<path d="M123.5 264.5C130.3 264.7 136 264.8 141.5 265.1C146 265.4 146.9 268.6 145.9 271.6C144.6 275.8 141.2 278.6 136.5 279.9C136.2 280 136 280 135.5 280.1C139 282.8 137.5 288.2 140.3 293.1C136.8 292.9 133.7 292.7 130.4 292.5C128.8 289.4 128.1 286.3 127.8 283.4C127.6 281.8 127.2 280.6 124.4 281C122.5 284.5 120.9 288.1 121.1 292.1C118 292 115.1 291.9 112 291.9C112.4 281.5 120.6 274.2 123.5 264.5ZM130.6 270.4C129.7 272.2 128.8 273.9 127.6 275.9C129.6 275.8 131.4 275.9 133.3 275.7C135 275.5 136.3 274.6 137 273.2C137.8 271.8 137.4 270.7 135.8 270.5C134.3 270.3 132.5 270.4 130.6 270.4Z" fill="#2D1F04"/>
<path d="M171.1 273.1C168 273.3 165.3 273.4 162.6 273.5C163 271.1 161.9 269.8 159.7 269.7C158.3 269.6 157 270.1 155.9 271.7C155.5 273.1 156.2 273.6 157.1 273.9C158.8 274.5 160.7 275 162.5 275.6C163.5 275.9 164.5 276.4 165.4 276.9C171.4 280.1 168.1 288.4 162.4 292.1C160.5 293.3 158.3 294.1 156.3 294.4C153 294.9 149.8 294.6 146.7 293.5C142.6 292.1 140.3 288.2 142.1 283.6C144.7 283.6 147.3 283.6 150.1 283.5C150.1 284.1 150 284.6 150 285.1C150.1 287.9 152.7 289.4 155.7 288.4C157.1 288 158.2 287.1 158.6 285.7C159 284.5 158.6 283.5 157.6 283C156.8 282.6 155.9 282.3 155 281.9C153.2 281.2 151.4 280.7 149.9 279.8C147 278.1 146.6 275.4 148 272.3C149.6 268.8 152.3 266 156 264.9C159.5 263.9 163 263.9 166.5 265C170.4 266.5 172.1 268.9 171.1 273.1Z" fill="#2D1F04"/>
<path d="M131.4 321.2C130.8 320.3 133 319.8 133.7 319.1C134.5 318.3 136.3 316.3 137.5 316.6C137.9 316.7 137.6 316.7 137.9 317C138.4 317.5 145.3 322.4 145.3 322.4C145.6 323.5 142.9 327.5 142.6 328.9C142.5 329.1 141.7 333.2 141.4 333.1C136.7 331.4 133.7 324.8 131.4 321.2Z" fill="#B6B1AE"/>
<path opacity="0.23" d="M202.1 212.9C201.4 213.2 197.2 215.2 197.6 216C198 216.8 225.5 226.8 242 252.4L244.2 251.5C244.2 251.5 266.4 280.2 254.4 313.1C249.4 326.9 221.9 361.6 171.3 328.3C162.4 330.1 146.3 325 136.5 317.1C135.7 316.5 131.6 321.7 131.6 321.7C132.9 322.1 146.9 349.5 183.6 359.1C187.4 360.1 194.9 360.7 198.9 361C209.6 361.7 204.7 363.3 214.9 360.2C218.6 359.1 231.4 356.6 234.5 354.7C240.8 350.9 250.2 347.2 258.2 338C261.7 334 268.4 325.3 269.2 320.4C271.1 308.3 273.2 294.8 271.9 282.9C269.8 262.8 265.5 263.2 260.2 248.8C262.4 248.2 262.8 244.1 262.8 244.1C262.8 244.1 252 229.3 242.6 218.8C233.9 209.2 218.8 205.2 202.1 212.9Z" fill="#3F2719"/>
<path d="M133.9 297.099C134.7 296.899 136.4 297.599 137.1 297.799C138.7 298.299 140.3 298.999 141.6 299.899C142.4 300.499 144.5 304.599 145.4 304.699C145.7 304.699 146.4 298.899 146.5 298.399C147 294.399 146.1 283.899 141.7 282.199C141.1 281.999 141.2 289.599 140.6 291.199C139.9 292.999 138.1 294.599 136.5 295.599C136 295.899 135.3 296.199 134.9 296.599C134.4 296.699 133.5 297.099 133.9 297.099Z" fill="#B6B1AE"/>
<path opacity="0.23" d="M90.1 338.2C108.3 338.3 131.5 321.5 130.9 321.5C130.1 321.5 121.5 327 120.3 327.8C116.7 330.4 108.9 332 104.5 332.4C102 332.6 90.9 331.9 89.4 333C88.9 333.4 90.7 342.8 91.6 343.5C92.7 344.3 89.3 338.1 90.1 338.2Z" fill="#3F2719"/>
<path d="M147.2 340.999C147.3 339.899 149 345.9 149.3 346.6C150.7 350.1 152.5 353.299 153.8 356.799C155 359.899 156.4 362.799 157.7 365.799C158.9 368.699 160.2 371.5 161.7 374.2C164.6 379.7 167.6 385.399 170 391.099C170.2 391.699 172.3 396.399 172.6 396.399C173.7 396.599 177.7 395.799 178.7 395.099C179.7 394.299 184.1 390.999 184.6 389.799C185.1 388.499 179.7 378 179 376.2C175.9 369 173.1 359.7 167.6 354.2C165.5 352.1 162 351.599 159.7 349.499C157.6 347.799 146.9 343.799 147.2 340.999Z" fill="#BDB0A4"/>
<path d="M137.2 315.899C137.8 311.299 144.1 308.599 145.5 303.799C145.6 303.599 145.9 302.099 146.3 302.099C147.1 301.999 148.4 306.599 148.7 307.199C149.4 308.699 157 324.599 156.8 324.799C156.4 325.499 153.1 324.399 152.5 324.299C148.8 323.999 136.6 319.799 137.2 315.899Z" fill="#BDB0A4"/>
<path d="M2.60001 11.8993C2.60001 11.8993 11.8 -0.300711 13.5 3.09929C15.2 6.49929 16.6 11.0993 16.6 11.0993L20 4.59929L140.2 286.399C140.2 286.399 133.9 306.799 127 294.199C115.4 272.999 2.60001 11.8993 2.60001 11.8993Z" fill="#BDB0A4"/>
<path d="M93.2 220.1C90.7 222 88.3 224 85.9 226.2C77.9 233.5 71.2 241.8 68.2 245.8C66.4 248.2 66.5 250 70.2 251.8" stroke="#2D1F04" stroke-width="2.62" stroke-miterlimit="10" stroke-linecap="round" stroke-linejoin="round"/>
<path d="M90.2 269.399C77.6 299.699 111.6 309.999 126.3 295.099" stroke="#2D1F04" stroke-width="2.62" stroke-miterlimit="10" stroke-linecap="round" stroke-linejoin="round"/>
<path d="M119.4 299.9C128.9 296.7 136.3 294.9 143.8 303.7" stroke="#2D1F04" stroke-width="2.62" stroke-miterlimit="10" stroke-linecap="round" stroke-linejoin="round"/>
<path d="M137.6 281.5C143 283.3 140.5 301.3 126.5 295.4" stroke="#2D1F04" stroke-width="2.62" stroke-miterlimit="10" stroke-linecap="round" stroke-linejoin="round"/>
<path d="M140.8 283C146.3 287.4 145 294.2 142.1 300.2" stroke="#2D1F04" stroke-width="2.62" stroke-miterlimit="10" stroke-linecap="round" stroke-linejoin="round"/>
<path d="M136.7 316.6C163.8 337.6 235.1 333.2 213.7 277.3" stroke="#2D1F04" stroke-width="2.62" stroke-miterlimit="10" stroke-linecap="round" stroke-linejoin="round"/>
<path d="M131.1 321.399C132.5 323.099 144.8 347.499 178.9 357.699C216 368.699 246.9 351.799 260.7 335.199C278.6 313.699 276.4 269.899 259.8 248.199" stroke="#2D1F04" stroke-width="2.62" stroke-miterlimit="10" stroke-linecap="round" stroke-linejoin="round"/>
<path d="M144.9 321.899C142.9 322.899 140.4 334.999 142.5 336.099" stroke="#2D1F04" stroke-width="2.62" stroke-miterlimit="10" stroke-linecap="round" stroke-linejoin="round"/>
<path d="M147 340.6C147 340.6 149.7 346.9 153.3 355.4C160.8 373 172.4 399.9 172.8 398.8C175 391.6 186.1 389.9 186.8 392.2C183.5 384.7 168.7 354 168.7 354" stroke="#2D1F04" stroke-width="2.62" stroke-miterlimit="10" stroke-linecap="round" stroke-linejoin="round"/>
<path d="M146.3 302.3C146.2 302.2 150.5 310.9 153.8 317.7C155.9 321.9 157.6 325.4 157.6 325.4" stroke="#2D1F04" stroke-width="2.62" stroke-miterlimit="10" stroke-linecap="round" stroke-linejoin="round"/>
<path d="M2.70001 11.4998C2.40001 9.2998 10.6 2.2998 13 2.2998C15.3 2.2998 14.6 11.5998 16.3 11.8998C18.6 12.2998 20.2 3.3998 20.2 3.3998L139.5 287" stroke="#2D1F04" stroke-width="2.62" stroke-miterlimit="10" stroke-linecap="round" stroke-linejoin="round"/>
<path d="M2.3 12.1992L126 295.099" stroke="#2D1F04" stroke-width="2.62" stroke-miterlimit="10" stroke-linecap="round" stroke-linejoin="round"/>
<path d="M260.5 248.1C261.9 247.9 263.7 246.9 261.9 243C255.5 228.4 227.9 195.7 200.2 213.7C186.9 222.3 186.1 236.2 190.2 249.1C193.8 260.4 201.1 270.9 206.9 276C210.5 279.2 211.5 279.4 213.2 277.6" stroke="#2D1F04" stroke-width="2.62" stroke-miterlimit="10" stroke-linecap="round" stroke-linejoin="round"/>
<path d="M68.8 251.8C65.9 253.3 28.8 300.2 67.1 325.7C84.7 337.4 122 335.6 141.8 309.7C148.6 300.7 149.7 281.7 138.8 281.7" stroke="#2D1F04" stroke-width="2.62" stroke-miterlimit="10" stroke-linecap="round" stroke-linejoin="round"/>
<path d="M260.7 241.4C237.1 239.9 220.3 259.1 220.3 259.1" stroke="#2D1F04" stroke-width="2.62" stroke-miterlimit="10" stroke-linecap="round" stroke-linejoin="round"/>
<path opacity="0.23" d="M136.3 296.7C136.1 296.6 136 296.5 135.8 296.5Z" fill="#3F2719"/>
<path opacity="0.23" d="M134.2 296.999C137.6 294.399 139.6 291.999 140.2 287.899C140.4 286.699 139.6 283.099 140.2 282.299C140.4 282.099 141.9 282.699 142.1 282.799C146.6 284.999 147.7 295.699 145.9 299.799C145.5 300.699 145.3 303.499 144.3 303.899C142.2 304.699 139.1 300.099 137.7 299.199C136.6 298.399 134 297.199 134.2 296.999Z" fill="#3F2719"/>
<path d="M225.1 386.3C225 386.2 225 386.2 224.9 386.1Z" fill="#B6B1AE"/>
<path opacity="0.23" d="M16.4 12.1996L12.5 2.09961L10.1 4.39961L135.7 293C137.8 296.9 140.9 287 140.9 287L26.9 19.7996L20.5 4.69961L16.4 12.1996Z" fill="#3F2719"/>
<path opacity="0.23" d="M137.1 315.999C135.2 320.899 151.9 323.999 151.9 323.999L157.6 325.499L146.4 303.699C146.5 303.699 138.3 312.899 137.1 315.999Z" fill="#3F2719"/>
<path opacity="0.23" d="M147.9 343.199L161.5 357.299L178 394.499L185 390.599L167.9 354.399L147.9 343.199Z" fill="#3F2719"/>
<path opacity="0.2662" d="M8.8 6.49929C4.8 12.0993 35.5 90.8993 46.8 86.9993C49.7 86.0993 13.2 0.399289 8.8 6.49929Z" stroke="#3F2719" stroke-width="1.14" stroke-miterlimit="10" stroke-linecap="round" stroke-linejoin="round"/>
<path opacity="0.2662" d="M79.4 158.299C75.4 163.899 101.6 238.699 112.9 234.799C115.8 233.799 83.8 152.199 79.4 158.299Z" stroke="#3F2719" stroke-width="1.14" stroke-miterlimit="10" stroke-linecap="round" stroke-linejoin="round"/>
<path opacity="0.2662" d="M67.2 128.199C61.2 136.499 108.7 270.299 125.6 264.499C129.9 262.999 73.8 119.099 67.2 128.199Z" stroke="#3F2719" stroke-width="1.14" stroke-miterlimit="10" stroke-linecap="round" stroke-linejoin="round"/>
<path opacity="0.2662" d="M91.4 181.499C86.8 179.799 99.4 218.699 109.2 223.799C113.3 225.899 95.9 183.199 91.4 181.499Z" stroke="#3F2719" stroke-width="1.14" stroke-miterlimit="10" stroke-linecap="round" stroke-linejoin="round"/>
<path opacity="0.2662" d="M96.2 187.3C92.6 184 99.4 213.9 109.3 218.9C113.4 221 99.9 190.8 96.2 187.3Z" stroke="#3F2719" stroke-width="1.14" stroke-miterlimit="10" stroke-linecap="round" stroke-linejoin="round"/>
<path opacity="0.2662" d="M161.7 354.799C157.1 353.099 169.7 391.999 179.5 397.099C183.5 399.199 166.2 356.599 161.7 354.799Z" stroke="#3F2719" stroke-width="1.14" stroke-miterlimit="10" stroke-linecap="round" stroke-linejoin="round"/>
<path opacity="0.2662" d="M15 23.9992C12.6 27.3992 31.9 76.9992 38.8 74.5992C40.5 73.9992 17.6 20.2992 15 23.9992Z" stroke="#3F2719" stroke-width="1.14" stroke-miterlimit="10" stroke-linecap="round" stroke-linejoin="round"/>
<path opacity="0.2662" d="M17.3 31.1998C15.9 33.2998 27.1 64.5998 31.1 63.0998C32.1 62.7998 18.9 28.8998 17.3 31.1998Z" stroke="#3F2719" stroke-width="1.14" stroke-miterlimit="10" stroke-linecap="round" stroke-linejoin="round"/>
<path opacity="0.2662" d="M75.2 135.399C75.2 135.399 62 97.1992 54.6 98.9992C41.5 102.199 113.9 280.099 131.7 287.299C142.1 291.499 131.7 268.199 131.7 268.199" stroke="#3F2719" stroke-width="1.14" stroke-miterlimit="10" stroke-linecap="round" stroke-linejoin="round"/>
<path d="M172.3 400.2C167 399.5 184 388.4 187.5 392.7C188.2 393.5 180.3 401.2 172.3 400.2Z" fill="#2D1F04"/>
<path d="M126.1 143.339C118.9 139.739 113 157.939 113.6 163.239C115.6 181.239 141.9 180.239 154 174.139C171.6 165.339 150.1 137.039 137.5 142.039" fill="#9D7B51"/>
<path d="M86.0001 136.039C82.1001 143.139 86.5001 164.539 89.5001 166.739C91.8001 168.439 107.6 156.539 112.1 148.939C113.3 146.939 119.4 134.039 117.1 131.739C115.8 130.439 98.8001 132.839 96.2001 133.339C92.7001 134.139 87.6001 133.039 86.0001 136.039Z" fill="#9D7B51"/>
<path d="M152.1 132.739C153 162.039 195.9 177.639 201 170.339C204.2 165.639 210.6 143.739 202.2 128.939C201.4 127.539 192 130.639 190.5 130.839C177.9 132.839 151.7 119.939 152.1 132.739Z" fill="#9D7B51"/>
<path d="M165.5 133.938C165.5 136.638 166 138.438 166.9 139.638C169.6 143.138 175.7 141.238 181.8 140.138C188.4 139.038 189.9 134.938 191.1 132.438" fill="white"/>
<path d="M87 132.438C81.4 147.038 104.6 145.538 108.9 134.438Z" fill="white"/>
<path d="M149.5 130.539L206 129.539" stroke="#2D1F04" stroke-width="8.0658" stroke-miterlimit="10" stroke-linecap="round" stroke-linejoin="round"/>
<path d="M122.9 131.639L104.6 131.939L74 132.439" stroke="#2D1F04" stroke-width="8.0658" stroke-miterlimit="10" stroke-linecap="round" stroke-linejoin="round"/>
<path d="M163.3 134.439C167.5 147.039 189.4 143.039 189.8 132.839" stroke="#2D1F04" stroke-width="3.2369" stroke-miterlimit="10" stroke-linecap="round" stroke-linejoin="round"/>
<path d="M86.2 136.338C84.4 145.338 109.2 146.038 109.2 134.738" stroke="#2D1F04" stroke-width="3.2369" stroke-miterlimit="10" stroke-linecap="round" stroke-linejoin="round"/>
<path d="M121.7 143.339C121.6 140.639 126.9 138.139 133.6 137.839C140.3 137.539 145.9 139.439 146 142.139C146.1 144.839 140.8 147.339 134.1 147.639C127.4 148.039 121.9 146.039 121.7 143.339Z" fill="#251707"/>
<path d="M133.9 148.539C133.9 158.639 139.6 146.739 147.6 150.739" stroke="#2D1F04" stroke-width="3.2369" stroke-miterlimit="10" stroke-linecap="round" stroke-linejoin="round"/>
<path d="M97.7001 135.039C97.7001 132.839 99.5001 131.039 101.7 131.039C103.9 131.039 105.7 132.839 105.7 135.039C105.7 137.239 103.9 139.039 101.7 139.039C99.5001 139.039 97.7001 137.239 97.7001 135.039Z" fill="#2D1F04"/>
<path d="M178.4 132.738C178.4 130.538 180.2 128.738 182.4 128.738C184.6 128.738 186.4 130.538 186.4 132.738C186.4 134.938 184.6 136.738 182.4 136.738C180.2 136.738 178.4 134.938 178.4 132.738Z" fill="#2D1F04"/>
</g>
<defs>
<clipPath id="clip0_281_3441">
<rect width="282" height="405" fill="white"/>
</clipPath>
</defs>
</svg>
