<?xml version="1.0" encoding="utf-8"?>
<!-- Generator: Adobe Illustrator 26.0.3, SVG Export Plug-In . SVG Version: 6.00 Build 0)  -->
<!DOCTYPE svg PUBLIC "-//W3C//DTD SVG 1.1//EN" "http://www.w3.org/Graphics/SVG/1.1/DTD/svg11.dtd" [
	<!ENTITY ns_extend "http://ns.adobe.com/Extensibility/1.0/">
	<!ENTITY ns_ai "http://ns.adobe.com/AdobeIllustrator/10.0/">
	<!ENTITY ns_graphs "http://ns.adobe.com/Graphs/1.0/">
	<!ENTITY ns_vars "http://ns.adobe.com/Variables/1.0/">
	<!ENTITY ns_imrep "http://ns.adobe.com/ImageReplacement/1.0/">
	<!ENTITY ns_sfw "http://ns.adobe.com/SaveForWeb/1.0/">
	<!ENTITY ns_custom "http://ns.adobe.com/GenericCustomNamespace/1.0/">
	<!ENTITY ns_adobe_xpath "http://ns.adobe.com/XPath/1.0/">
]>
<svg version="1.1" id="Слой_1" xmlns:x="&ns_extend;" xmlns:i="&ns_ai;" xmlns:graph="&ns_graphs;"
	 xmlns="http://www.w3.org/2000/svg" xmlns:xlink="http://www.w3.org/1999/xlink" x="0px" y="0px" width="581.8px" height="356.8px"
	 viewBox="0 0 581.8 356.8" style="enable-background:new 0 0 581.8 356.8;" xml:space="preserve">
<style type="text/css">
	.st0{fill:#FFFFFF;}
	.st1{fill:#C9A67A;}
	.st2{fill:#FFDA1F;}
	.st3{fill:#B5B0AD;}
	.st4{opacity:0.23;fill:#3F2719;}
	.st5{fill:none;stroke:#9C7B51;stroke-width:4.1072;stroke-linecap:round;stroke-linejoin:round;stroke-miterlimit:10;}
	.st6{fill:none;stroke:#2D1F04;stroke-width:2.7806;stroke-linecap:round;stroke-linejoin:round;stroke-miterlimit:10;}
	.st7{fill:#FFDAAE;}
	.st8{fill:#9C7B51;}
	.st9{fill:#251707;}
	.st10{fill:none;stroke:#251707;stroke-width:2.7806;stroke-linecap:round;stroke-linejoin:round;stroke-miterlimit:10;}
	.st11{fill:none;stroke:#2D1F04;stroke-width:8.0658;stroke-linecap:round;stroke-linejoin:round;stroke-miterlimit:10;}
	.st12{fill:none;stroke:#2D1F04;stroke-width:2.6;stroke-linecap:round;stroke-linejoin:round;stroke-miterlimit:10;}
	.st13{fill:#2D1F04;}
	.st14{fill:#FF8802;}
	.st15{fill:none;stroke:#2D1F04;stroke-width:3.2369;stroke-linecap:round;stroke-linejoin:round;stroke-miterlimit:10;}
	.st16{fill:#D2E4E9;}
	.st17{fill:none;stroke:#2D1F04;stroke-width:2.62;stroke-linecap:round;stroke-linejoin:round;stroke-miterlimit:10;}
	.st18{opacity:0.34;fill:#FFFFFF;}
	.st19{fill:url(#SVGID_1_);}
	.st20{fill:url(#SVGID_00000043431178095596561090000001585550088320175766_);}
	.st21{fill:url(#SVGID_00000112595886690302566690000001509773612201123753_);}
	.st22{fill:url(#SVGID_00000050662496927652596820000016208922773332497586_);}
	.st23{fill:#FF9902;}
</style>
<metadata>
	<sfw  xmlns="&ns_sfw;">
		<slices></slices>
		<sliceSourceBounds  bottomLeftOrigin="true" height="356.8" width="581.8" x="-234.9" y="302.3"></sliceSourceBounds>
	</sfw>
</metadata>
<g>
	<g>
		<path class="st0" d="M559.9,136.1c-4.1-2.7-8.4-4.6-13-5.7c-0.9-21.7-5.5-41.1-13.9-57.7c-11.1-22.1-28.6-39.1-52-50.7
			c-0.1,0-0.1-0.1-0.2-0.1c-2.6-1.2-7.2-3.3-11.6-4.9c-0.1-0.9-0.4-1.8-0.7-2.6c-1.7-4.4-5.9-7.2-10.6-7.2c-2.7,0-4.9,0.2-7,0.5
			c-0.5-1.3-1.2-2.6-2.1-3.7c-2.2-2.6-5.3-4-8.7-4c-10.4,0-19.3,4.1-26,12c-2.1-0.3-4.1-0.5-6.2-0.5c-7.8,0-15,2.5-20.7,7.1
			c-2.3,1.9-3.7,4.5-4.1,7.2c-2.1,1.6-4,3.6-5.6,6.1c-2.3,3.7-2.2,8.4,0.1,12.1h-1.5c-5.3,0-9.7,4.2-10,9.4
			c-6.4,7.2-9.9,16.5-9.9,26.2c0,12.8,6.3,24.8,16.6,32.2c2.2,7.5,5.3,15.3,9.3,23.3l-19.1,1.9c-4.4,0.4-8,3.7-8.8,8.1l-1.7,9l0-7.7
			c0-4.4-2.9-8.3-7.1-9.6l-36.9-11c-0.9-0.3-1.9-0.4-2.9-0.4s-1.9,0.1-2.9,0.4l-36.9,11c-4.2,1.3-7.1,5.2-7.1,9.6v48.9l-28.4,8.5
			c-0.6-1.5-1.2-3-1.8-4.5c0.6-3,0.4-6.2-0.7-9.1c-0.7-1.9-1.8-3.6-3.1-5c-7.7-21.2-18.7-31.9-27-37.2c0-1.2-0.1-2.6-0.5-4.1
			c1.3-2.8,1.2-5.5,1.1-7.2c0.2-0.4,0.5-0.9,0.7-1.3c0.3-0.5,0.5-1,0.7-1.4c8.8-17.6,13.3-34,13.5-49c1-1.6,1.7-3.5,2-5.5
			c0.5-3.7-0.4-7.4-2.7-10.4c-0.4-0.5-0.8-1.1-1.2-1.6c-1.5-6.3-4-12.3-7.2-17.8c-0.5-0.9-1-1.7-1.6-2.5c0.3-1,0.5-2,0.5-3
			c0.2-0.2,0.4-0.5,0.6-0.7c3.1-3.8,3.5-9.1,0.9-13.2c-1.6-2.5-3.5-4.6-5.6-6.1c-0.4-2.8-1.8-5.4-4.1-7.2
			c-5.3-4.4-11.9-6.8-19.2-7.1c-0.7-1.6-1.6-3-2.7-4.3c-2-2.4-5-3.8-8.2-4c-0.1,0-0.4,0-0.5,0c-3,0-5.9,1.2-8,3.3
			c-1.8,1.8-4.4,3.2-7.6,4.2c-1.6-1.6-3.6-2.7-5.8-3.1c-0.8-0.2-1.5-0.2-2.3-0.2c-2.6,0-5.1,0.9-7.2,2.5c-1.9,1-8.4,3.2-12.8,4.6
			l-0.2,0.1c-1.9,0.6-3.8,1.2-5.8,1.9c-4.8,1.6-10.5,4.2-13.5,5.6c-0.1,0-0.1,0.1-0.2,0.1c-23.5,11.6-41.1,29.1-52.3,52
			c-8.5,17.3-13.1,37.3-13.8,59.5c-2.5,0.7-4.9,1.7-7.3,2.8C1.5,148-2,172.6,0.8,208c0,0.3,0,0.6,0,0.9c-0.1,3.2-0.2,9.4,4.3,13.9
			c0.1,2,0.3,3.9,0.5,5.7l0,0.1c2.8,26.9,13.8,44.1,18.3,50.3c1.7,2.3,3.8,4.3,6.2,6c3.4,12.1,2.1,27.6-1.1,37.6
			c-0.1,0.4-0.5,1.3-0.8,2.1c-2.3,5.6-5.7,13.9-1.8,21.6c2.1,4.1,5.9,6.9,10.6,8c3.8,0.9,9,1.3,16.9,1.3c7.2,0,15.7-0.3,24.6-0.7
			l7.8-0.3c13.7-0.5,19.8-0.8,23.6-1.2c2.5-0.2,5.9-0.6,8.9-2.4c3.8,0.6,7.4,0.7,10.1,0.8l0.7,0c1.5,0.1,3.2,0.1,4.9,0.2l0.2,0
			c4.1,0.2,8.4,0.3,12.2,0.4c7.9,0.1,20.2,0.7,29.3,1c7,0.3,10.4,0.4,11.8,0.4c6.3,0,9.8-2.3,11.7-4.8l21.1,7.1
			c1,0.4,2.1,0.5,3.2,0.5s2.2-0.2,3.2-0.5l36.9-12.5c3.7-1.3,6.3-4.5,6.7-8.3c10.5,7.5,27.8,15.3,49.5,15.3h0.2
			c14,0,26.8-3.5,36.1-7.9c0.7,0.8,1.4,1.4,2.1,1.9c1.7,1.1,3.7,1.8,5.8,1.8c8.9,0,14-11.7,14.9-14.1c1.2-3.1,4.8-13.7-0.7-19.8
			c-0.8-0.9-1.8-1.7-2.9-2.3c0,0,0,0,0-0.1c1.2-2.5,1.8-5.3,1.8-8.3c0-2.7-0.5-5.3-1.6-7.5c-0.6-1.2-1.2-2.3-2-3.4
			c0.4-0.6,0.7-1.2,1-1.8c0.2-0.5,0.4-1,0.5-1.5c1.2,1.7,2.8,3,4.6,3.8c2.4,5.5,5.6,10.2,11.5,11.1c0.6,0.6,1.2,1.1,1.8,1.7
			c3.4,3,7.1,5.4,10.4,7.2c0.7,3.1,1.5,5.8,2.2,8c-11,4.5-19.5,11.6-19.6,11.7c-2.5,2.3-7.1,6.5-6.5,13c0.1,0.9,0.2,1.7,0.5,2.6
			c1,3.2,4.2,8.6,13.7,8.6c1.4,0,4.8-0.1,11.8-0.4c9-0.4,21.4-0.9,29.3-1c3.8-0.1,8.1-0.2,12.2-0.4c1.8-0.1,3.5-0.1,5.1-0.2l0.7,0
			c2.7-0.1,6.4-0.2,10.2-0.8c3,1.9,6.5,2.2,8.8,2.4c3.8,0.4,10,0.7,23.6,1.2l7.9,0.3c8.9,0.3,17.3,0.7,24.5,0.7
			c7.9,0,13.1-0.4,16.9-1.3c4.7-1.1,8.5-3.9,10.6-8c4-7.7,0.5-16.1-1.8-21.6c-0.3-0.7-0.7-1.7-0.8-2c-3.3-10.2-4.7-26.2-0.6-39.3
			c4.1-1.7,9-4.7,10.5-10.5c3.8-14.1,5.5-31,5.6-41.7c0.8-2.1,1.5-3.9,2-5.5c6-3.8,6.7-10.6,7-14c0-0.3,0.1-0.6,0.1-0.9
			C585,177.2,584.4,152.4,559.9,136.1z M312.4,217.7l18.7-6.3c-0.7,4.7-1.3,10-1.6,16c-0.9,18.2,4.1,33.6,13.9,42.7
			c-0.5-0.1-0.9-0.1-1.4-0.2c-0.5,0-1.1-0.1-1.9-0.1c-0.9,0-1.6,0-2.3,0.1c-1.2,0.1-2.3,0.4-3.4,0.7c-1.3,0.5-2.4,1.2-3.4,2
			c-1-0.8-2.1-1.5-3.3-2c-1.1-0.4-2.2-0.7-3.4-0.8c-0.8-0.1-2-0.1-2.7-0.1c-0.6,0-1.9,0-2.8,0.1c-1.3,0.1-2.4,0.4-3.4,0.8
			c-1.1,0.4-2.1,1-3,1.8c-0.5-0.4-1.1-0.8-1.7-1.1c1.2-1.7,1.9-3.7,1.9-5.9v-46.7C312.5,218.4,312.5,218,312.4,217.7z"/>
	</g>
	<g>
		<g>
			<path class="st1" d="M40,326c-1.4,4.4-7.7,15.3-0.3,17.1c7.4,1.7,26.1,0.8,44.2,0.1c15.5-0.6,29.6-1,29-2.1
				c-4.3-5.4-11.3-11.7-29.4-14.9c6.3-2.2,9.8-6.2,12.4-12.4c7.6,2,16.3,1.4,24.6,1.4c0,0.2,0,0.3-0.1,0.5c0,0.2,0,0.4-0.1,0.5
				c0,0.2-0.1,0.4-0.1,0.6s-0.1,0.4-0.1,0.6c0,0.2-0.1,0.4-0.1,0.6c-0.1,0.4-0.2,0.8-0.3,1.2c-0.1,0.2-0.1,0.4-0.2,0.6
				c-0.2,0.6-0.3,1.2-0.5,1.8c-0.2,0.5-0.3,1.1-0.5,1.6c-1.2,3.8-2.9,8-4.3,11.4c-0.1,0.3-0.2,0.6-0.2,0.9c0,0.1,0,0.2,0,0.2
				c0,0.1,0,0.2,0,0.3c0.8,4,13.3,4.1,16.2,4.2c5.3,0.2,11.8,0.5,17.1,0.6c13.1,0.2,37.9,1.5,40.9,1.5c1.5,0,2.7-0.1,2.8-0.6
				c0,0,0-0.1,0-0.1c0.1-0.6-0.7-1.7-2.9-3.6c-1.1-1-16.4-12.8-29.2-12.4h-0.1c1.9-1.9,3.8-4.9,5.3-8.4c0.1-0.2,0.2-0.5,0.3-0.7
				c0.2-0.5,0.4-1,0.6-1.5c1.2-3,2.7-7.7,3-12.6c0.5-0.2,1-0.4,1.5-0.7c6.6-2.9,14.1-8.3,18.7-15.4c0.2-0.1,0.1,3.3,0.2,3.3
				c2.3,0.8,5.8-12.3,6.7-13.8c0.7-1.2,2.4,3.5,2.4,3.5s4-7.9,3.9-15.3c2.7-1.1,5.2-2.2,7.6-3.4c0.6-0.3,1.2-0.7,1.8-1
				c0.3-1.1,0.5-2.2,0.7-3.2c0.2-1,0.3-2.1,0.3-3.1c0.6-10.2-3.1-21.5-6.6-30.5c-0.2-0.7-0.5-1.3-0.8-1.9c-0.1-0.3-0.3-0.7-0.4-1
				c-0.7-1.7-1.6-3.6-2.4-5.6c-0.2-0.4-0.4-0.8-0.6-1.2c-0.2-0.5-0.4-0.9-0.6-1.3c-0.1-0.2-0.2-0.3-0.2-0.5
				c-0.1-0.3-0.3-0.6-0.4-0.8c-0.4-0.9-0.9-1.7-1.3-2.5c-0.4-0.8-0.8-1.5-1.2-2.2c0,0,0,0,0,0c0.1-0.2,0.2-0.3,0.2-0.5
				c0,0,0,0,0-0.1c0.9-2,1.4-4,1.5-6.1c0-0.2,0-0.3,0-0.5c0-0.9,0-1.8,0-2.6c-0.1-1.6-0.4-3.2-0.8-4.8c-1.7-6.9-5.5-13.7-8.2-18.9
				c-0.7-1.3-2.3-4.1-2.5-5.3c0,0,0,0,0-0.1v-0.1c0-0.8,1-1.9,1.2-3.2c0-0.1,0-0.1,0-0.2c0-0.4,0-0.9-0.2-1.3c-0.3-0.6-1.1-2-1.9-3
				c-0.2-0.3-0.4-0.6-0.7-0.8c-0.1-0.1-0.2-0.2-0.2-0.2c-0.2-0.2-0.4-0.3-0.5-0.3c-0.1,0-0.2,0-0.2,0.2c0,0,0,0,0,0.1c0,0,0,0,0,0.1
				c0,0.2,0,0.3,0.1,0.4c0,0,0-0.1,0-0.1c0,0,0-0.1,0-0.1c0-0.1,0-0.2,0-0.2c-0.1-1.2-0.3-4.4-0.4-7.1c-0.1-2.5,0-4.8,0.2-4.8
				c0.8-0.2,1.3,1.5,1.5,1.7c0.6,0.6-0.3-1.5-0.4-2.3c-0.2-2-0.5-4.4-0.2-6.5c0.1-0.5,1,1,1.2,0.6c0.5-1-0.2-2.9,0-4
				c0.3-2.2,1.7-4.5,2.7-6.5c11.2-22.4,18.6-49.8,4.7-73.4c-3.1-5.3-6.9-9.4-11.8-12.6c2.6-0.3,6.1-0.5,9.1,0.9
				c-2.7-4.8-4.9-5.9-8.3-6.7c-0.1-0.5,6.3-2.8,11.6-0.8c-4.7-7.7-17.5-6.6-17.5-8.4c0-2.1,5.8-2.8,10.3-2.1
				c-6.9-5.6-16.6-5.6-24.4-2.3c3.3-3.5,3.2-8,1.1-10.5c-5.4,5.3-14.6,8.9-26.1,9c2.4-0.7,3.4-2.9,2.5-4.9
				c-2.6,2.3-12.1,5.1-22.3,8.5c-3.8,1.3-8.8,3.5-12.2,5.1C61.4,53,46.9,95.1,46.7,139.4c-0.1,21.4-24.9,94.8-14,132.1
				c2.6,3.3,6,3.2,7,5.9C45.5,292.7,44,313.6,40,326z"/>
			<path class="st1" d="M218.3,271.3c6.1-3.8,8.5-37.4,8-43.1c-0.3-3.1-3.2-13.1-9.8-28.5c-4.2,3-13.7,7.9-20.5,8.4
				c-2.2,25-2.7,45.5,5.5,56.1C206.8,271,213.8,274.1,218.3,271.3z"/>
			<path class="st2" d="M217.1,198.7c-0.6,1.2-1.5,2.3-2.6,3.3c-3.6,3.3-9.4,5.4-15.6,6.8c-0.2-0.3-0.3-0.6-0.4-0.8
				c-0.4-0.8-0.8-1.5-1.2-2.2c0,0,0,0,0,0c0.1-0.2,0.2-0.3,0.2-0.5c0,0,0,0,0-0.1c0.9-1.9,1.4-4,1.5-6.1c0-0.2,0-0.3,0-0.5
				c0.1-0.9,0-1.8,0-2.6c-0.1-1.6-0.4-3.2-0.8-4.8c-1.7-6.9-5.5-13.7-8.2-18.9c-0.7-1.3-2.3-4.1-2.5-5.3c0,0,0,0,0-0.1v-0.1
				c0-0.8,1-1.9,1.2-3.2c0-0.1,0-0.1,0-0.2c0-0.4,0-0.9-0.2-1.3c-0.3-0.6-1.1-2-1.9-3c-0.2-0.3-0.4-0.6-0.7-0.8
				c-0.1-0.1-0.2-0.2-0.2-0.2c-0.2-0.2-0.4-0.3-0.5-0.3c-0.1,0-0.2,0-0.2,0.2c0,0,0,0,0,0.1c0,0,0,0,0,0.1c-0.1-0.7-0.1-2-0.2-3.5
				c9.5,2.9,22.4,13.9,30.3,37.7C217.3,193.2,218.3,196.1,217.1,198.7z"/>
			<g>
				<path class="st3" d="M63.8,343.9c2.6-0.1,5.3-0.1,7.9-0.2c1.2,0,2.5-0.1,3.7-0.1c2.9-0.1,5.7-0.2,8.5-0.3c0.4,0,0.8,0,1.3,0
					c0.3,0,0.6,0,0.9,0c1.5-0.1,2.9-0.1,4.4-0.2c0.3,0,0.7,0,1,0c2.6-0.1,5.1-0.2,7.4-0.3c0.3,0,0.7,0,1,0c0.4,0,0.8,0,1.1-0.1
					c0.5,0,0.9,0,1.4-0.1c0.4,0,0.9,0,1.3-0.1c0.5,0,1-0.1,1.4-0.1c0.5,0,1-0.1,1.4-0.1c0.9-0.1,1.7-0.1,2.5-0.2
					c0.4,0,0.7-0.1,1-0.1c0,0,0.1,0,0.1,0c0.3,0,0.5-0.1,0.8-0.1c0.2,0,0.4,0,0.5-0.1c0.1,0,0.2,0,0.2,0c0.4-0.1,0.7-0.1,0.9-0.2
					c0.1,0,0.1,0,0.2-0.1c0.1,0,0.1,0,0.1-0.1c0,0,0.1-0.1,0.1-0.1c0,0,0-0.1,0-0.1c-0.6-0.8-1.3-1.5-2-2.3
					c-0.2-0.3-0.5-0.5-0.8-0.8c-0.3-0.3-0.5-0.5-0.8-0.8c-0.3-0.3-0.6-0.5-0.9-0.8c-2-1.7-4.6-3.5-7.8-5.1c-0.6-0.3-1.2-0.6-1.8-0.8
					c-0.1,0-0.1,0-0.2-0.1c-0.3-0.1-0.6-0.3-0.9-0.4c-0.4-0.2-0.9-0.3-1.3-0.5c-0.4-0.1-0.8-0.3-1.2-0.4c-0.3-0.1-0.6-0.2-0.9-0.3
					c-0.3-0.1-0.7-0.2-1-0.3c-0.2-0.1-0.4-0.1-0.7-0.2c-0.3-0.1-0.6-0.2-0.9-0.3c-0.3-0.1-0.6-0.2-0.9-0.2c-1-0.3-2-0.5-3-0.7
					c-0.5-0.1-1.1-0.2-1.6-0.3c-0.8-0.2-1.7-0.3-2.5-0.5C75.6,329.3,67.6,335.1,63.8,343.9z"/>
				<path class="st3" d="M145.2,340.9c0.7,0,1.4,0,2.1,0c13.1,0.2,37.9,1.5,40.9,1.5c1.3,0,2.2,0,2.7-0.4c0.5-0.4,0.2-1.2-1.4-2.7
					c-0.1-0.1-0.2-0.2-0.3-0.3c-0.1-0.1-0.2-0.2-0.3-0.3c-0.2-0.2-0.5-0.4-0.7-0.7c-1.1-1-16.4-12.8-29.3-12.4
					C153.6,329.2,148.1,334.3,145.2,340.9z"/>
			</g>
			<path class="st4" d="M113.9,335.8c0,0.1,0,0.2,0,0.3c0,0.2,0.1,0.3,0.1,0.4c0,0.1,0.1,0.2,0.2,0.4c0.1,0.2,0.3,0.4,0.6,0.6
				c0.2,0.2,0.5,0.4,0.8,0.5c0.1,0.1,0.3,0.2,0.5,0.2c0.5,0.2,1,0.4,1.6,0.6c1.2,0.4,2.6,0.7,4,0.9c0.2,0,0.5,0.1,0.7,0.1
				c0.2,0,0.5,0.1,0.7,0.1c0.2,0,0.5,0,0.7,0.1c1.6,0.2,3.2,0.2,4.4,0.3c0.2,0,0.3,0,0.5,0c0.1,0,0.2,0,0.3,0c0.1,0,0.2,0,0.4,0
				c0.4,0,0.7,0,0.9,0c0.3,0,0.6,0,0.9,0s0.6,0,0.9,0c0.8,0,1.6,0.1,2.4,0.1c0.6,0,1.3,0,1.9,0.1c0.5,0,0.9,0,1.4,0
				c1.1,0,2.1,0.1,3.2,0.1c1.5,0,3,0.1,4.4,0.1c0.7,0,1.4,0,2.1,0c13.1,0.2,37.9,1.5,40.9,1.5c0.2,0,0.4,0,0.6,0c0.1,0,0.3,0,0.4,0
				c0.1,0,0.1,0,0.2,0c0.1,0,0.1,0,0.2,0c0.2,0,0.3,0,0.5-0.1c0,0,0.1,0,0.1,0c0.1,0,0.2,0,0.2,0c0,0,0,0,0.1,0c0,0,0.1,0,0.1,0
				c0,0,0.1,0,0.1-0.1c0.1,0,0.1,0,0.1-0.1c0,0,0.1-0.1,0.1-0.1c0.1-0.1,0.1-0.2,0.1-0.3c0,0,0-0.1,0-0.1s0-0.1,0-0.1s0-0.1,0-0.1
				c0-0.1-0.1-0.2-0.1-0.3c0,0,0,0,0-0.1c0,0,0-0.1-0.1-0.1c0-0.1-0.1-0.1-0.1-0.2s-0.1-0.2-0.2-0.3c0,0,0-0.1-0.1-0.1
				c-0.1-0.1-0.2-0.3-0.4-0.5c-0.1-0.1-0.1-0.2-0.2-0.3c-0.1-0.1-0.2-0.2-0.3-0.3c-0.1-0.1-0.2-0.2-0.3-0.3
				c-0.1-0.1-0.2-0.2-0.3-0.3c-0.2-0.2-0.5-0.4-0.7-0.7c0,0-0.1,0-0.1,0c0,0-0.1,0-0.1-0.1c0,0-0.1-0.1-0.1-0.1c0,0-0.1,0-0.1-0.1
				c-0.2-0.2-0.5-0.4-0.9-0.7c-0.1,0-0.1,0-0.1-0.1c0,0-0.1,0-0.1-0.1c-2.1-1.5-6.2-4.4-11.1-6.8c-0.1-0.1-0.3-0.1-0.4-0.2
				c-1-0.5-2-0.9-3-1.3c-0.1-0.1-0.3-0.1-0.4-0.2c-0.1,0-0.1,0-0.1-0.1c-0.6-0.2-1.2-0.5-1.8-0.7c-0.9-0.3-1.8-0.6-2.6-0.8
				c-0.3-0.1-0.5-0.2-0.8-0.2c-0.8-0.2-1.6-0.4-2.4-0.5c-0.1,0-0.1,0-0.2,0c0,0-0.1,0-0.1,0c-0.2,0-0.4-0.1-0.6-0.1
				c-0.1,0-0.2,0-0.3,0c0,0-0.1,0-0.2,0s-0.1,0-0.1,0c-0.2,0-0.4,0-0.6-0.1c-0.1,0-0.2,0-0.3,0c-0.3,0-0.6,0-1-0.1
				c-0.4,0-0.7,0-1.1,0c-0.2,0-0.5,0-0.7,0c0,0,0.1,0,0.1-0.1l0.3-0.3c0.6-0.6,1.1-1.3,1.7-2.1c1.3-1.8,2.5-4.1,3.5-6.6
				c0.2-0.5,0.4-1,0.6-1.5c1.6-4,3-8.3,3-12.6c-12.7,6.2-31.2,11.8-47.6,12.5l-0.1,0.3c0,0.2,0,0.3-0.1,0.5c0,0.2,0,0.4-0.1,0.6
				c0,0.2-0.1,0.4-0.1,0.6s-0.1,0.4-0.1,0.6c0,0.2-0.1,0.4-0.1,0.6c-0.1,0.4-0.2,0.8-0.3,1.2c-0.1,0.2-0.1,0.4-0.2,0.6
				c-0.9,3.3-2.2,7-3.6,10.5c-0.4,1.1-0.8,2.2-1.3,3.2c-0.2,0.4-0.3,0.9-0.5,1.3C114,335.1,113.9,335.5,113.9,335.8z"/>
			<g>
				<line class="st5" x1="173.7" y1="148.8" x2="173.7" y2="154.8"/>
				<line class="st5" x1="167.4" y1="151.8" x2="167.4" y2="157.7"/>
			</g>
			<path class="st2" d="M34.2,268.1c15.1,7.1,48.6,12.9,73,12.9c31.3,0,59.5-7.5,75.1-11.2c4.1-1,8.1-2,11.8-3.2
				c2.6-0.8,5-1.6,7.3-2.4c2.8-1.1,5.3-2.2,7.6-3.4c0.6-0.3,3.7-1.4,3.8-2.3c0.2-1.2-1.6-16.4-3-22c-0.6-2.4-1.4-4.8-2.1-7.1
				c-0.8-2.3-1.6-4.5-2.4-6.6c-0.2-0.7-0.5-1.3-0.8-1.9c-0.1-0.3-0.3-0.7-0.4-1c-0.7-1.7-1.6-3.7-2.4-5.6c-0.2-0.4-0.4-0.8-0.6-1.2
				c-0.2-0.5-0.4-0.9-0.6-1.3c-0.1-0.2-0.2-0.4-0.2-0.5c-0.2-0.3-0.3-0.6-0.4-0.8c-0.1-0.2-0.2-0.4-0.3-0.6c-0.3-0.6-0.6-1.2-1-1.8
				c-0.4-0.8-0.8-1.5-1.2-2.2c0,0,0,0,0-0.1c0.1-0.2,0.2-0.3,0.2-0.5c0,0,0,0,0-0.1c0.9-1.9,1.4-4,1.5-6.1c0-0.2,0-0.3,0-0.5
				c0-0.6,0-1.2,0-1.8v-0.1c0-0.2,0-0.5-0.1-0.7c-0.1-1.6-0.4-3.2-0.8-4.8c-0.3-1.3-0.7-2.6-1.1-3.9c-1.9-5.5-4.8-10.8-7-15.1
				c-0.1-0.2-0.2-0.3-0.3-0.6c-0.1-0.2-0.2-0.4-0.3-0.6c-0.1-0.2-0.3-0.5-0.4-0.7c-0.1-0.2-0.3-0.5-0.4-0.8
				c-0.3-0.6-0.6-1.2-0.8-1.8c-0.1-0.2-0.1-0.4-0.2-0.6c0-0.1,0-0.2-0.1-0.2c0,0,0,0,0-0.1v-0.1c0-0.8,1-1.9,1.2-3.2
				c0-0.1,0-0.1,0-0.2c0-0.3,0-0.7-0.1-1c0-0.1-0.1-0.2-0.1-0.3c-0.3-0.6-1.1-1.9-1.9-3c-0.2-0.3-0.4-0.6-0.7-0.8
				c-0.1-0.1-0.1-0.1-0.2-0.2c-0.1-0.1-0.3-0.2-0.4-0.3c0,0-0.1,0-0.1,0c-0.1,0-0.1,0-0.1,0c0,0-0.1,0.1-0.1,0.1c0,0,0,0,0,0.1
				c0,0,0,0.1,0,0.1c0,0.1,0,0.1,0,0.1c0,0.1,0,0.1,0,0.2c0,0,0,0.1,0,0.1c-10.8,3.1-20.6,5-29.5,6c-25.3,2.9-43.8-1.1-58.2-5
				c-10.4-2.8-30.9-9-50.8-17.6C45.9,164.4,23.4,231.3,34.2,268.1z"/>
			<path class="st4" d="M111.5,341.6c-0.1,0-7.9,0.7-8,0.7c-0.1,0-0.3,0-0.4,0c-0.2,0-0.4,0-0.5,0c-0.9,0-1.9,0.1-2.9,0.1
				c-0.3,0-0.6,0-0.9,0c-0.3,0-0.5,0-0.8,0c-0.6,0-1.2,0.1-1.8,0.1c-0.2,0-0.4,0-0.6,0c-0.1,0-0.2,0-0.3,0c-0.3,0-0.6,0-0.9,0
				c-1.3,0-2.7,0.1-4.1,0.2c-0.5,0-0.9,0-1.4,0c-0.2,0-0.4,0-0.6,0c0,0-0.1,0-0.1,0c-0.4,0-0.8,0-1.2,0.1c-1,0-2,0.1-3,0.1
				c-1.3,0-2.7,0.1-4,0.1c-0.8,0-1.6,0.1-2.3,0.1c-0.6,0-1.2,0-1.8,0.1c-0.5,0-1.1,0-1.6,0.1c-2.2,0.1-4.4,0.2-6.6,0.2
				c-1.1,0-2.2,0.1-3.3,0.1c-0.2,0-0.3,0-0.5,0c-11.8,0.3-19.3,0.3-24.1-0.8c-1-0.2-1.8-0.6-2.3-1.1c-0.2-0.2-0.4-0.5-0.6-0.7
				c-2.3-3.8,2-11.6,3.2-15.2c4.4-13.5,5.8-36.4-1.7-52.1c5.3,0,14.5-0.3,20.1-1.1c0.3,1.6,0.6,3.1,0.8,4.6
				c11-2.9,26.4-8.3,38.7-15.8c12.2-7.5,20.5-12.4,29.8-19c-14.3,13.6-36.8,32.5-53.2,35.9c2.1,0.3,5.7,0.7,9.3,1.2
				c-9.9,4.4-22.9,0.1-23.7,9.9c0.2,17.9-5.4,29.5-7.5,36.5c-2.8,9.5-0.4,11,6.3,10.7c1.9-0.1,5.4-0.5,9.8-0.8h0.1
				C78.7,335.5,99.6,336.9,111.5,341.6z"/>
			<path class="st6" d="M110.7,341c-7.7-3.9-17.1-6.7-26.3-7.8c-4-0.5-8-0.7-11.8-0.5"/>
			<path class="st6" d="M188.9,341.2c-4.9-4.1-27.2-12.3-35.5-10.9"/>
			<path class="st6" d="M83.5,326.2c-8.1,3.2-15.9,9.3-19.7,17"/>
			<path class="st6" d="M158.9,325.6c-5.4,3.6-10.4,7.9-13.3,13.6"/>
			<g>
				<path class="st6" d="M95.9,313.8c-2.1,5.4-6.1,10.2-12.4,12.4c18.1,3.2,25.1,9.5,29.4,14.9c0.5,1.1-13.5,1.6-29,2.1
					c-18,0.7-36.7,1.6-44.2-0.1c-7.4-1.7-1.2-12.7,0.3-17.1c4.8-14.8,5.6-37.2-1.7-52.1"/>
				<path class="st6" d="M120.5,315.2c0,0.2,0,0.3-0.1,0.5c0,0.2,0,0.4-0.1,0.5c0,0.2-0.1,0.4-0.1,0.6s-0.1,0.4-0.1,0.6
					c0,0.2-0.1,0.4-0.1,0.6c-0.1,0.4-0.2,0.8-0.3,1.2c-0.1,0.2-0.1,0.4-0.2,0.6c-0.2,0.6-0.3,1.2-0.5,1.8c-0.2,0.5-0.3,1.1-0.5,1.6
					c-1.2,3.9-2.9,8-4.3,11.4c-0.1,0.3-0.2,0.6-0.2,0.9c0,0.1,0,0.2,0,0.2c0,0.1,0,0.2,0,0.3c0.8,4,13.3,4.1,16.2,4.2
					c5.3,0.2,11.8,0.5,17.1,0.6c13.1,0.2,37.9,1.5,40.9,1.5c1.5,0,2.7-0.1,2.8-0.6c0,0,0-0.1,0-0.1c0.1-0.6-0.7-1.7-2.9-3.6
					c-1.1-0.9-16.4-12.8-29.2-12.4c0,0-0.1,0-0.1,0c1.9-1.9,3.8-4.9,5.3-8.4c0.1-0.2,0.2-0.5,0.3-0.7c0.2-0.5,0.4-1,0.6-1.5
					c1.8-4.3,2.8-8.6,3-12.6"/>
			</g>
			<g>
				<path class="st7" d="M197.9,82.8c-1.1-11.6-4.8-16.6-11.7-20.3c-9.3-4.9-14.2-7-24.3-8c-3.6-0.3-7.7-0.5-8.3-4.1
					c-0.3-1.6,0.3-3.3,1.9-5.5c-3.2,0-6.6,1.3-9.2,3.4c-5.2,4.2-13.1,6.8-19.3,6.6c-21.7-0.7-35.5,1.8-46,20.9
					c-2.4,4.3-6,14.1-3.5,25c3.6,15.9,5.5,22.6,22.7,34.5c20.5,14.2,63,21.2,84.2-5.6C194.3,117.2,199.5,100.1,197.9,82.8z"/>
				<path class="st8" d="M156.4,90.8c7.2-3.6,13,14.5,12.4,19.7c-2,17.8-28,16.9-40.1,10.8c-17.4-8.7,3.9-36.7,16.3-31.8"/>
				<path class="st8" d="M197.9,82.8c1.4,13.6-2.3,28.9-5.3,31.1c-2.3,1.7-14.4-5.6-22.4-17.6c-8.5-12.6-9.5-32.8-4.1-39.3
					c1.1-1.4,15.8,1.5,24.6,7.9C193.4,66.9,196.6,70.7,197.9,82.8z"/>
				<path class="st8" d="M130.5,56.1c7.8,44.6-43.2,68.6-48.2,61.4c-3.2-4.6-10-24-2.4-39.4c3.9-7.9,9.9-11.3,14.7-14
					c6-3.3,13.8-5.7,22.2-7.3C123,55.6,130.1,53.6,130.5,56.1z"/>
			</g>
			<g>
				<path class="st9" d="M160.7,90.8c0.1-2.7-5.2-5.1-11.8-5.5c-6.7-0.3-12.2,1.6-12.3,4.3c-0.1,2.7,5.2,5.1,11.8,5.5
					C155.1,95.4,160.6,93.5,160.7,90.8z"/>
				<path class="st10" d="M149.3,92c0,4.8-1.1,12.9-3.8,18.3"/>
			</g>
			<g>
				<path class="st11" d="M83,73.8C95,60.3,110.7,56,129.2,56.1"/>
				<path class="st11" d="M201.4,77.9c-9.8-13-17.1-17.8-35.3-20.9"/>
			</g>
			<path class="st10" d="M157.3,107.1c-5.5,6.5-19,3.7-22.2-5"/>
			<path class="st6" d="M184.9,154.6c9.5,2.9,22.4,13.9,30.3,37.7c2.6,1.1,2.9,4.2,1.9,6.4c-2.6,4.9-9.3,8-16.9,9.7"/>
			<path class="st6" d="M215.2,192.1c-2.6,2.7-5.8,4.9-9.2,6.5"/>
			<line class="st5" x1="101.4" y1="289.3" x2="101.4" y2="295.3"/>
			<line class="st5" x1="107.5" y1="293.2" x2="107.5" y2="299.2"/>
			<path class="st4" d="M206.6,226.5c-3.6-4.3-8-10.1-10.1-11.3c-4.3-2.7-10.4-2.3-15.2-2.3c-12.4,0-22,10.2-35.2,11.5
				c-8.1,0.8-29.9-7.7-27.6-11.6c1.9-3.2,12.4,0.1,29.4-0.4c12.7-0.4,24.2-1.5,36.6-3.6c3-0.5,10.1-0.5,12.6-5
				c0.5,2,2.7,6.8,3.7,8.9C203.2,217.4,205.3,223.1,206.6,226.5z"/>
			<path class="st4" d="M188.3,168.5c1.6,3,9.1,12.5,11.6,16c2.5,3.5,3.7,8.2,4.8,14.2c0.4,2.3,1.4,4.9,2.7,7.6
				c-0.6,0.3-1.4,0.7-2.3,0.9c1.8,3.6,3.6,7.4,6.1,11.7c3,5.3,6.7,9,10.6,9.3c-2.9,1.9-4.1,3.9-4.1,17.7c0,6.9,0.8,16.8-3.4,19.4
				c0.8-1.1,0.8-4.5,0.8-9.3c0-4.9-7.5-34-7.5-38.6c-6.3-2-4.6-6-7.7-6.9c-1.5-2.9-2.3-2.9-2.5-4.8c-0.1-1.8,2.2-3.5,1.8-9
				s-1.2-8.6-4.3-15.1C191.8,175,188.3,168.5,188.3,168.5z"/>
			<path class="st6" d="M185.2,158.5c-41.2,11.8-83.1,3.4-87.7,1.1"/>
			<path class="st6" d="M63,276.5c26.8,5.3,50.9,5.3,70.2,3c21.1-2.6,42.9-7.5,60.9-12.8c2.6-0.8,13.8-4.9,18.7-8.2
				c-1.1-14.5-4.1-26.7-7.6-35.6c-0.2-0.7-0.5-1.3-0.8-1.9c-0.1-0.3-0.3-0.7-0.4-1c-0.7-1.7-1.6-3.6-2.4-5.6
				c-0.2-0.4-0.4-0.8-0.6-1.2c-0.2-0.5-0.4-0.9-0.6-1.3c-0.1-0.2-0.2-0.4-0.2-0.5c-0.1-0.3-0.3-0.6-0.4-0.9
				c-0.9-1.7-1.7-3.3-2.5-4.7c0,0,0,0,0-0.1c0.1-0.2,0.2-0.4,0.2-0.5c0,0,0,0,0-0.1c0.9-1.9,1.4-4,1.5-6.1c0-0.2,0-0.3,0-0.5
				c0.1-0.9,0-1.8,0-2.6c-0.1-1.6-0.4-3.2-0.8-4.8c-1.7-6.9-5.5-13.7-8.2-18.9c-0.7-1.3-2.4-4.1-2.5-5.3c0,0,0,0,0-0.1
				c0,0,0-0.1,0-0.1c0-0.8,1-1.9,1.2-3.2c0-0.1,0-0.1,0-0.2c0-0.4,0-0.9-0.2-1.3c-0.3-0.6-1.1-1.9-1.9-3c-0.2-0.3-0.4-0.6-0.7-0.8
				c-0.1-0.1-0.1-0.1-0.2-0.2c-0.2-0.2-0.4-0.3-0.5-0.3c-0.1,0-0.2,0-0.2,0.2c0,0,0,0.1,0,0.1c0,0.1,0,0.2,0,0.3c0,0.1,0,0.1,0,0.1
				c0,0,0,0.1,0,0.1c0,0,0,0,0,0.1"/>
			<path class="st6" d="M178.8,160.6c0.6,1.7,1.2,3,1.2,4.9"/>
			<path class="st6" d="M168.3,162.7c0.8,1.6,0.9,3.6,0.9,5.4"/>
			<line class="st6" x1="155.7" y1="164.3" x2="156.4" y2="168.5"/>
			<polyline class="st6" points="146.8,165.5 146.8,166.2 146.8,166.6 146.8,167.3 146.8,167.8 146.8,168.3 146.8,168.7 			"/>
			<polyline class="st6" points="151.7,165.7 151.7,166.2 151.7,166.6 151.7,167.1 151.7,167.6 151.7,168 			"/>
			<polyline class="st6" points="116.9,164.3 116.9,164.8 116.9,165.2 116.9,166.2 116.9,166.6 			"/>
			<polyline class="st6" points="113.4,164.3 113.4,165 113.4,165.7 113.4,166.2 			"/>
			<path class="st6" d="M107.1,172.7c41.2,6.5,73-0.3,80.6-5.9"/>
			<g>
				<path class="st0" d="M109.1,69.7c-6.2-0.4-11.5,4.3-11.9,10.5l0,0.7c-0.4,6.2,4.4,11.4,10.6,11.8c6.2,0.4,11.5-4.3,11.9-10.5
					l0-0.7C120,75.4,115.3,70.1,109.1,69.7z"/>
				<path class="st12" d="M109.1,69.7c-6.2-0.4-11.5,4.3-11.9,10.5l0,0.7c-0.4,6.2,4.4,11.4,10.6,11.8c6.2,0.4,11.5-4.3,11.9-10.5
					l0-0.7C120,75.4,115.3,70.1,109.1,69.7z"/>
				<circle class="st13" cx="111" cy="84.6" r="2.7"/>
			</g>
			<path class="st6" d="M219.8,269.7c5.1-6.2,7-35.6,6.5-41.3c-0.3-3.1-3.2-13.2-9.8-28.6"/>
			<g>
				<path class="st0" d="M183.3,73.7c-5.9-0.3-10.9,4.1-11.2,9.9l0,0.7c-0.3,5.8,4.1,10.8,10,11.2c5.9,0.3,10.9-4.1,11.2-9.9l0-0.7
					C193.6,79,189.1,74,183.3,73.7z"/>
				<path class="st12" d="M183.3,73.7c-5.9-0.3-10.9,4.1-11.2,9.9l0,0.7c-0.3,5.8,4.1,10.8,10,11.2c5.9,0.3,10.9-4.1,11.2-9.9l0-0.7
					C193.6,79,189.1,74,183.3,73.7z"/>
				<circle class="st13" cx="184.5" cy="87.9" r="2.7"/>
			</g>
			<g>
				<path d="M122.3,195.5c7.7-0.7,14.8-1.3,21.8-1.6c5.8-0.2,9.7,3.1,10.6,6.5c1.4,4.6-1,8.1-5.5,10.1c-0.2,0.1-0.5,0.2-1,0.4
					c6,2.4,7.3,8.2,13.2,12.8c-4,0.3-7.6,0.6-11.3,0.9c-3.5-3-6.1-6.1-8.3-9.2c-1.2-1.7-2.7-2.9-5.3-2.1c0.6,4,1.3,8.1,3.6,12.3
					c-3.3,0.3-6.2,0.7-9.4,1.1C126.9,216.4,125.5,206.4,122.3,195.5z M134.5,201c0.5,2.1,0.8,4,1.2,6.4c2.2-0.3,4.4-0.5,6.5-1
					c1.9-0.4,2.7-1.6,2.6-3.2c-0.2-1.6-1.6-2.8-3.7-2.8C139,200.4,136.8,200.8,134.5,201z"/>
				<path d="M184.3,198.9c-2.8,0.6-5.5,1.1-8.4,1.6c-1-2.6-3-3.8-5.6-3.6c-1.7,0.1-2.9,0.7-3,2.6c0.4,1.5,1.6,1.9,2.9,2.1
					c2.4,0.4,4.7,0.7,7.1,1.1c1.3,0.2,2.6,0.6,3.9,0.9c7.8,2.5,10.6,11.3,5.5,15.9c-1.6,1.5-3.9,2.6-6.1,3.2
					c-3.6,1-7.4,1.2-11.4,0.5c-5.4-0.8-10.2-4.4-10.7-9.5c3-0.4,6.1-0.8,9.4-1.2c0.3,0.6,0.5,1.1,0.8,1.7c1.7,2.8,5.5,3.9,8.5,2.5
					c1.3-0.6,2.1-1.7,1.9-3.1c-0.2-1.3-1.3-2.2-2.6-2.6c-1.2-0.3-2.4-0.5-3.6-0.7c-2.4-0.5-4.9-0.8-7.2-1.5
					c-4.5-1.3-6.7-4.1-7.1-7.7c-0.4-3.9,0.8-7.3,4.4-8.8c3.4-1.4,7.6-1.9,12.3-1.1C179.8,192.1,182.8,194.4,184.3,198.9z"/>
			</g>
			<path class="st6" d="M46.6,141.9c-1-45.4,14.8-88.9,59.7-111.1c3.4-1.6,8.4-3.8,12.2-5.1c10.2-3.4,19.7-6.1,22.3-8.5
				c1,2.1,0,4.2-2.4,4.9c11.5-0.2,20.7-3.8,26.1-9.1c2.1,2.5,2.2,7-1.1,10.5c7.8-3.3,17.5-3.3,24.4,2.3c-4.6-0.7-10.3,0-10.3,2.1
				c0,1.8,12.7,0.7,17.5,8.4c-5.2-2-11.7,0.3-11.6,0.8c3.4,0.8,5.6,1.9,8.3,6.7c-3-1.4-6.5-1.2-9.1-0.9c4.8,3.2,8.6,7.3,11.8,12.6
				c13.9,23.5,6.5,51-4.7,73.4c-1,2-2.4,4.2-2.7,6.5c-0.2,1.1,0.5,3,0,4c-0.2,0.4-1.2-1.1-1.3-0.6c-0.3,2.1,0,4.4,0.2,6.5
				c0.1,0.8,1,2.8,0.4,2.3c-0.2-0.2-0.7-1.9-1.5-1.7c-0.4,0.1,0,11.3,0.3,12.4"/>
			<path class="st4" d="M96.5,313.9c0.3,0,0.6,0.1,0.9,0.1c0.4,0.1,0.8,0.1,1.2,0.2c0.6,0.1,1.2,0.2,1.8,0.2
				c1.2,0.1,2.3,0.3,3.5,0.4c3.2,0.3,6.4,0.4,9.7,0.4c16.5-0.1,33.5-3.8,47.1-9.5c0.6-0.2,1.1-0.5,1.6-0.7c2.9-1.3,5.9-2.6,8.8-4
				c0.8-0.4,1.6-0.9,2.4-1.3c2.1-1.2,4.1-2.4,5.9-3.9c0.7-0.5,1.3-1,1.9-1.6c0.3-0.3,0.6-0.6,0.9-0.8c0.4-0.4,0.8-0.8,1.2-1.1
				c0.5-0.5,0.9-1,1.3-1.4c0.2-0.2,0.4-0.4,0.6-0.6c0.2-0.2,0.3-0.4,0.5-0.6c1.3-1.6,2-2.7,2.4-3.1c0.1,0,0.1-0.1,0.2-0.1
				c0.2-0.1,0.1,3.3,0.2,3.3c0.1,0,0.3,0,0.4,0c0.4-0.1,0.9-0.7,1.4-1.5c0.2-0.3,0.3-0.6,0.5-0.9c1-1.9,2-4.7,2.8-7
				c0.1-0.2,0.1-0.4,0.2-0.6c0.7-1.9,1.2-3.4,1.4-3.8c0.1-0.1,0.1-0.2,0.2-0.2c0.1,0,0.3,0,0.4,0.2c0.3,0.3,0.6,0.9,0.9,1.5
				c0,0.1,0.1,0.1,0.1,0.2c0,0,0,0,0,0.1c0.1,0.2,0.2,0.4,0.3,0.7c0,0.1,0.1,0.2,0.1,0.3c0.2,0.4,0.3,0.8,0.3,0.8
				c0.1-0.1,1-2,1.9-4.7c0.1-0.2,0.1-0.4,0.2-0.5c0.1-0.4,0.2-0.8,0.4-1.1c0.8-2.6,1.5-5.8,1.4-8.8c0,0,0-0.1,0-0.1
				c-1.7,0.7-3.4,1.2-5.1,1.8c0,0-0.1,0-0.1,0c-0.9,0.3-1.7,0.6-2.2,0.7c-3.8,1.1-7.7,2.2-11.8,3.2c-15.6,3.7-29.1,6.9-49.1,9.7
				c-3.2,0.4-8.5,1.7-11.8,1.1c27.6,4.7,56-6.2,58.8-0.8c1.9,3.6-3.8,11-12.1,16.5C150.3,308,118.1,316,96.5,313.9z"/>
			<path class="st4" d="M46.6,141.9c9.7,0.4,17.7,4.2,23.4,7.9c-6.9-67.5,17.1-94.6,42.3-105.4c4.8-2.1,11.3-9,15.9-10.1
				c-0.5,3.8,5.7,4,9,3.6c4.2-0.5,9.3-6.5,20-9.2c-5.3,5.9-1.2,8.9,1.9,9.4c2.2,0.4,8-2.5,13.7-0.6c-2.9,1.4-2.3,3.4,0,4.3
				c12,4.6,20.4,11.8,23.7,18.3c-0.7-1.5-1.5-3-2.4-4.5c-1-1.7-2-3.2-3.1-4.6c-0.9-1.2-1.9-2.2-2.9-3.2c-1.7-1.8-3.6-3.3-5.8-4.7
				c2.6-0.3,6.1-0.5,9.1,0.9c-0.6-1-1.2-1.9-1.7-2.6c-0.2-0.2-0.3-0.4-0.5-0.6c-1.8-2.2-3.7-2.9-6.1-3.5c0,0,0-0.1,0-0.1
				c0,0,0.1-0.1,0.1-0.1c1-0.7,6.7-2.4,11.4-0.7c-0.2-0.2-0.3-0.5-0.5-0.7c-0.3-0.5-0.7-0.9-1.1-1.2c-2.4-2.5-5.9-3.7-9-4.5
				c-0.7-0.2-1.4-0.3-2-0.5c-0.2,0-0.4-0.1-0.6-0.1c-0.6-0.1-1.2-0.2-1.7-0.3c-0.2,0-0.3-0.1-0.5-0.1c-0.3-0.1-0.6-0.1-0.9-0.2
				c-0.8-0.2-1.2-0.5-1.2-0.8c0-2.1,5.8-2.8,10.3-2.1c-6.9-5.6-16.6-5.6-24.4-2.3c3.3-3.5,3.2-8,1.1-10.5c-5.4,5.3-14.6,8.9-26.1,9
				c0.8-0.2,1.4-0.6,1.9-1.1c0.1-0.1,0.2-0.3,0.4-0.5c0.6-0.9,0.7-1.9,0.4-3c0-0.1-0.1-0.3-0.2-0.4c-2.6,2.4-12.1,5.1-22.3,8.5
				c-0.7,0.2-1.5,0.5-2.2,0.8c-0.5,0.2-1.1,0.4-1.6,0.6c-2.9,1.2-6,2.5-8.4,3.7c-2.1,1-4.1,2.1-6.1,3.2c-1.3,0.7-2.5,1.5-3.7,2.2
				c-0.7,0.4-1.3,0.8-2,1.3C59,60.5,46.8,102,46.6,141.9z"/>
			<g>
				<polygon class="st0" points="215,215.2 215,265.5 178.2,278 141.3,265.5 141.3,215.2 178.2,204.2 				"/>
				<g>
					<polygon class="st14" points="182,276.7 215,265.5 215,218.8 182,228.6 					"/>
					<polygon class="st14" points="174.3,276.7 141.3,265.5 141.3,218.8 174.3,228.6 					"/>
					<polygon class="st14" points="209.3,213.5 178.2,222.4 147,213.5 178.2,204.2 					"/>
				</g>
			</g>
			<g>
				<g>
					<path class="st1" d="M33.2,272.2c4.7,7.2,16.2,9.6,38.1,1.8c16.1-5.7,29.2-13.3,48.7-26.2c10.1-6.6,15.1-9.2,17.9-17
						c6.7-18.7,18.3-17.8,16.5-19.6c-1.9-1.7-8.8-5.7-15.9-4.2c-13.4,2.8-14,15.5-21.6,18.5c-12.5,4.8-41,15.5-43.6,13.2
						c-1.9-1.6-3.2-6.3-3.1-12.8c0.1-4,0.4-6.7-0.1-10.9c-0.1,0-24.6-16.9-53.3,0c-0.7,0.4-0.3,7.8,0.6,14.1
						C20.1,251.6,27.6,263.8,33.2,272.2z"/>
					<path class="st2" d="M14.7,215.4c0.5,0,1.2-0.1,2-0.4c27.2-10.3,42.2-4.1,52.9-0.1c0.1,0.1,0.3,0.1,0.4,0.1
						c6.2,2.1,5.7-4,4.2-9.4c0.4-1.6,1.2-4.5,2.8-8c-0.3-3.7-0.9-8.5,0.1-12.1l-5.7-34c-8.4-6.6-23.1-14-38.2-6.4
						c-17.9,8.9-23.9,23.2-20.8,62.1C12.5,209.7,11.5,215.2,14.7,215.4z"/>
					<path class="st4" d="M14.7,215.4c0.5,0,1.2-0.1,2-0.4c3.6-1.4,7-2.4,10.1-3.2c-1-4.4-1.7-9-2.2-13.5
						c-1.6-13.8-2.9-48.3,16.9-55.9c-2.8,0.5-5.6,1.4-8.4,2.8c-17.9,8.9-23.9,23.2-20.8,62.1C12.5,209.7,11.5,215.2,14.7,215.4z"/>
					<path class="st3" d="M134.2,236.4c1.6-1.4,2.9-3.1,3.8-5.6c6.7-18.7,18.3-17.8,16.5-19.6c-1.9-1.7-8.8-5.7-15.9-4.2
						c-10.9,2.3-13.3,11.2-18,16C126,223.9,132.8,226.6,134.2,236.4z"/>
					<path class="st4" d="M33.1,272.2c4.8,7.2,16.2,9.6,38.1,1.8c16.1-5.7,27.7-12.2,48.7-26.2c10-6.7,15.1-9.2,17.9-17
						c6.7-18.7,18.3-17.8,16.5-19.6c-1.5-1.4-6.1-4.1-11.5-4.5c2,3.1-3.7,6-6.9,12.4c-3.6,7.3-1.3,11-9.3,17
						c-8,6-42.3,28.3-63.7,32.4c-21.4,4.1-22.3-0.6-26.5-8.1c-4.3-7.7-8.4-25.2-10.9-48.2c-2.8,0.8-6,1.9-8.8,2.9
						c-0.8,0.3-0.2,7.8,0.6,14.1C20.1,251.6,27.6,263.8,33.1,272.2z"/>
					<path class="st6" d="M70,215c0.3,3.4,0.1,7.3,0.1,10.3c0,6.7,1.2,11.7,3.1,13.3c2.6,2.3,31.2-8.4,43.7-13.3
						c7.6-2.9,8.2-15.7,21.6-18.5c7.1-1.5,14.1,2.5,15.9,4.2s-9.8,0.8-16.5,19.6c-2.8,7.8-7.8,10.5-18,17.1
						c-19.9,12.9-32.6,20.4-48.7,26.1c-21.9,7.8-33,5.2-38.1-1.8c-5.6-7.5-13.8-22.6-16.1-44.7c-0.3-3.2-1-9.2-0.4-12.5"/>
					<path class="st6" d="M69.6,214.9c7.2-0.5,6.1-4,4.5-9.6"/>
					<path class="st6" d="M77,197.6c-1.6,3.7-2.5,6.6-2.8,8.2"/>
					<path class="st6" d="M77,185.5c-0.9,3.6-0.3,8.4-0.1,12.1c1.6-0.9,3.5-2.5,4.9-4.7"/>
					<path class="st6" d="M71.3,151.5c-8.4-6.6-23.1-14-38.2-6.4c-17.8,8.9-23.9,23.2-20.8,62.1c0.2,2.8-1.1,10,4.4,7.7
						c11.6-4.7,26.1-7.7,41.7-3.9"/>
					<path class="st6" d="M73.2,205.8c-11.4-6.8-29.6-10.4-44.7-4.4"/>
					<path class="st6" d="M64.6,202.6c-0.2,1.7-0.6,2.9-1.2,4.5"/>
					<line class="st6" x1="55.2" y1="200.3" x2="54.4" y2="204.3"/>
					<line class="st6" x1="46.2" y1="199.2" x2="46.3" y2="203.2"/>
					<g>
						<line class="st5" x1="36" y1="228.3" x2="36.3" y2="234.3"/>
						<line class="st5" x1="42.3" y1="232.7" x2="42.5" y2="238.7"/>
					</g>
					<path class="st6" d="M134.2,236.4c-0.7-6.5-5.4-12.3-13.7-13.4"/>
					<path class="st6" d="M128.5,226.1c5.8-14.2,13.1-16.9,25.9-14.9"/>
				</g>
			</g>
			<g>
				<path class="st3" d="M221.7,266.1c-0.7,1.5-2.1,5.1-4.8,6.1c-1.8,0.7-3.8,0.8-5.4,0.8c-3.1,0.1-6.1,1.5-8.7,1.3
					c-2.3-0.2-4-1.5-4.6-2.9c-0.9-1.8-3.1-11.4,0-12.4c3-1,10.9,8.2,14.6,7.4c1.1-0.5,1.8-1.2,2.3-2.1c1.6-0.5,3.3-0.6,4.6-0.2
					C220.9,264.3,221.5,265.1,221.7,266.1z"/>
				<path class="st6" d="M198.1,258.9c1.4,5.8,3.3,11.3,10.8,14.4"/>
			</g>
			<path class="st4" d="M201.5,259.9c0.2,3.2,1.8,7.9,6.5,9.7c4.7,1.8,9.3,2.7,13.5-3c-1.8,3.7-2.7,5.1-5.7,5.8
				c-3,0.7-4.9,0.3-6.8,0.8c-1.8,0.4-4.5,1.7-7.6,0.8c-3.1-0.9-3.7-3.2-4.4-6.9s-1-7,0.8-8C199.1,258.3,200.5,259.3,201.5,259.9"/>
			<path class="st6" d="M221.7,266.1c-0.8,1.8-2.1,5.1-4.8,6.1c-1.8,0.7-3.8,0.8-5.4,0.8c-3.1,0.1-6.1,1.5-8.7,1.3
				c-2.3-0.2-4-1.5-4.6-2.9c-0.9-1.8-3.1-11.4,0-12.4c3-1,10.9,8.2,14.6,7.4c1.1-0.5,1.8-1.2,2.3-2.1c1.6-0.5,3.3-0.6,4.6-0.2
				C220.9,264.3,221.5,265.1,221.7,266.1z"/>
			<line class="st6" x1="215" y1="264.1" x2="215" y2="237.9"/>
			<path class="st6" d="M197.7,271.4c-2.9,0.5-19.6,6.7-19.6,6.7l-36.9-12.5"/>
			<polyline class="st6" points="158.5,210 178.2,204.2 215,215.2 			"/>
			<path class="st6" d="M76.9,307.8c10.6,5.3,23.4,7.5,36.6,7.4c16.5-0.1,33.5-3.8,47.2-9.5c0,0,0,0,0,0c0.5-0.2,1-0.4,1.5-0.7
				c6.6-2.9,13.7-6,19.1-10.8c5.1-4.5,6.3-7.5,7.1-7.9c0.2-0.1,0.1,3.3,0.2,3.3c2.3,0.8,5.8-12.3,6.7-13.8c0.7-1.2,2.3,3.5,2.3,3.5
				s1.3-2.6,2.4-6.1"/>
		</g>
		<g>
			<path class="st1" d="M542.5,327.5c1.4,4.4,7.7,15.3,0.3,17.1c-7.4,1.7-26.1,0.8-44.2,0.1c-15.5-0.6-29.6-1-29-2.1
				c4.3-5.4,11.3-11.7,29.4-14.9c-6.3-2.2-10.7-7.4-12.9-13.8c-7.6,2-15.7,2.8-24,2.8c0,0.2,0,0.3,0.1,0.5c0,0.2,0,0.4,0.1,0.5
				c0,0.2,0.1,0.4,0.1,0.6s0.1,0.4,0.1,0.6c0,0.2,0.1,0.4,0.1,0.6c0.1,0.4,0.2,0.8,0.3,1.2c0.1,0.2,0.1,0.4,0.2,0.6
				c0.2,0.6,0.3,1.2,0.5,1.8c0.2,0.5,0.3,1.1,0.5,1.6c1.2,3.8,2.9,8,4.3,11.4c0.1,0.3,0.2,0.6,0.2,0.9c0,0.1,0,0.2,0,0.2
				c0,0.1,0,0.2,0,0.3c-0.8,4-13.3,4.1-16.2,4.2c-5.3,0.2-11.8,0.5-17.1,0.6c-13.1,0.2-37.9,1.5-40.9,1.5c-1.5,0-2.7-0.1-2.8-0.6
				c0,0,0-0.1,0-0.1c-0.1-0.6,0.7-1.7,2.9-3.6c1.1-1,16.4-12.8,29.2-12.4h0.1c-1.9-1.9-3.8-4.9-5.3-8.4c-0.1-0.2-0.2-0.5-0.3-0.7
				c-0.2-0.5-0.4-1-0.6-1.5c-1.2-3-2.7-8.2-3-12.7c-4-1.6-7.8-3.3-13.1-8.1c-5.1-4.5-6.3-7.5-7.1-7.9c-0.2-0.1-0.1,3.3-0.2,3.3
				c-2.3,0.8-5.8-12.3-6.7-13.8c-0.7-1.2-2.4,3.5-2.4,3.5s-4-7.9-3.9-15.3c-2.7-1.1-5.2-2.2-7.6-3.4c-0.6-0.3-1.2-0.7-1.8-1
				c-0.3-1.1-0.5-2.2-0.7-3.2c-0.2-1-0.3-2.1-0.3-3.1c-0.6-10.2,3.1-21.5,6.6-30.5c0.2-0.7,0.5-1.3,0.8-1.9c0.1-0.3,0.3-0.7,0.4-1
				c0.7-1.7,1.6-3.6,2.4-5.6c0.2-0.4,0.4-0.8,0.6-1.2c0.2-0.5,0.4-0.9,0.6-1.3c0.1-0.2,0.2-0.3,0.2-0.5c0.1-0.3,0.3-0.6,0.4-0.8
				c0.4-0.9,0.9-1.7,1.3-2.5c0.4-0.8,0.8-1.5,1.2-2.2c0,0,0,0,0,0c-0.1-0.2-0.2-0.3-0.2-0.5c0,0,0,0,0-0.1c-0.9-2-1.4-4-1.5-6.1
				c0-0.2,0-0.3,0-0.5c0-0.9,0-1.8,0-2.6c0.1-1.6,0.4-3.2,0.8-4.8c1.7-6.9,5.5-13.7,8.2-18.9c0.7-1.3,2.3-4.1,2.5-5.3c0,0,0,0,0-0.1
				v-0.1c0-0.8-1-1.9-1.2-3.2c0-0.1,0-0.1,0-0.2c0-0.4,0-0.9,0.2-1.3c0.3-0.6,1.1-2,1.9-3c0.2-0.3,0.4-0.6,0.7-0.8
				c0.1-0.1,0.2-0.2,0.2-0.2c0.2-0.2,0.4-0.3,0.5-0.3c0.1,0,0.2,0,0.2,0.2c0,0,0,0,0,0.1c0,0,0,0,0,0.1c0,0.2,0,0.3-0.1,0.4
				c0,0,0-0.1,0-0.1c0,0,0-0.1,0-0.1c0-0.1,0-0.2,0-0.2c0.1-1.2,0.3-4.4,0.4-7.1c0.1-2.5,0-4.8-0.2-4.8c-0.8-0.2-1.3,1.5-1.5,1.7
				c-0.6,0.6,0.3-1.5,0.4-2.3c0.2-2,0.5-4.4,0.2-6.5c-0.1-0.5-1,1-1.2,0.6c-0.5-1,0.2-2.9,0-4c-0.3-2.2-1.7-4.5-2.7-6.5
				c-11.2-22.4-18.6-49.8-4.7-73.4c3.1-5.3,6.9-9.4,11.8-12.6c-2.6-0.3-6.1-0.5-9.1,0.9c2.7-4.8,4.9-5.9,8.3-6.7
				c0.1-0.5-6.3-2.8-11.6-0.8c4.7-7.7,17.5-6.6,17.5-8.4c0-2.1-5.8-2.8-10.3-2.1c6.9-5.6,16.6-5.6,24.4-2.3
				c5.2-9.5,12.4-14.3,21.2-13.7c-0.4,4.1-1.1,9.1,3.8,12.2c4.8-3.8,7.3-5.2,14-5c-4,3.1-4.4,5.2,5.8,8.6c3.8,1.3,8.8,3.5,12.2,5.1
				c44.9,22.1,59.5,64.3,59.6,108.5c0.1,21.4,27.4,93.1,16.5,130.4c-0.8,2.7-6.5,3.9-8.1,4.1C536.8,290.5,538.1,313.9,542.5,327.5z"
				/>
			<path class="st4" d="M536,140.2c-0.1,0-0.2,0-0.3,0h-0.1c-0.2,0-0.5,0-0.7,0c-0.2,0-0.3,0-0.5,0c-0.3,0-0.6,0-0.9,0.1
				c-0.5,0.1-1.1,0.1-1.6,0.2c-0.4,0.1-0.8,0.1-1.2,0.2c-6.2,1.3-11.6,4.6-15.8,8.4c5.6-26.8,4.8-51.4-8.1-74.3
				c-13.9-24.6-38.4-33.2-60.2-34.8c-5.1-0.4-10.9-2.5-10.9-7.8c-9.3,2.2-9.3,7.1-18.9,9.8c-11.5,3.2-20.1,7.9-27.8,13.8
				c0.8-1.3,1.6-2.5,2.5-3.6c0.9-1.1,1.9-2.2,2.9-3.2c1.7-1.8,3.6-3.3,5.8-4.7c-2.6-0.3-6.1-0.5-9.1,0.9c0.6-1.1,1.2-1.9,1.7-2.7
				c0.2-0.2,0.3-0.4,0.5-0.6c0.7-0.8,1.4-1.5,2.2-1.9c0.3-0.2,0.7-0.4,1-0.6c0.9-0.4,1.8-0.7,2.9-1c0,0,0-0.1,0-0.1
				c0-0.1-0.1-0.1-0.1-0.1c-1-0.7-6.7-2.4-11.4-0.7c0.2-0.2,0.3-0.5,0.5-0.7c0.3-0.4,0.7-0.9,1.1-1.2c2.5-2.5,5.9-3.7,9-4.5
				c0.7-0.2,1.4-0.3,2-0.4c0.2,0,0.4-0.1,0.6-0.1c0.6-0.1,1.2-0.2,1.7-0.3c0.2,0,0.3-0.1,0.5-0.1c0.3-0.1,0.6-0.1,0.8-0.2
				c0.8-0.2,1.2-0.5,1.2-0.8c0-1-1.2-1.7-3-2.1c-1.8-0.4-4.2-0.4-6.4-0.2c-0.3,0-0.6,0.1-0.9,0.1c0.5-0.4,1-0.8,1.5-1.1
				c1-0.7,2.1-1.2,3.2-1.7c0.6-0.2,1.1-0.4,1.7-0.6c1.4-0.5,2.9-0.8,4.4-0.9c0.6-0.1,1.2-0.1,1.8-0.1c4-0.1,8.1,0.7,11.8,2.2
				c0.2-0.3,0.4-0.7,0.6-1c0.3-0.5,0.6-1.1,1-1.6c5.2-7.9,11.8-11.1,19.7-11.1c-0.8,4.8-0.5,7.9,1.7,10.4c0.1,0.1,0.1,0.2,0.2,0.2
				c0.5,0.6,1.2,1.1,1.9,1.6c6.2-4.6,8.3-5,14-5c-3.7,2.9-4.3,4.8,3.7,7.8c0.3,0.1,0.6,0.2,0.9,0.3c0.4,0.1,0.8,0.3,1.2,0.4
				c0.7,0.2,1.5,0.5,2.2,0.8c0.5,0.2,1.1,0.4,1.6,0.6c2.9,1.2,6,2.5,8.4,3.7c2.1,1,4.1,2.1,6.1,3.2C522.4,58.2,535.7,98.2,536,140.2
				z"/>
			<path class="st1" d="M360.3,239.2c2-7.4,5.8-20.3,8.7-34.4c4.2,3,10.8,4.3,17.5,4.8c-0.3,9,1.4,13.8,2.8,15.4
				c0.9,18.3-2.7,25.6-11,33.6c-4.9,4.7-21.2,9.1-25.9,4.2C346.6,256.8,357,251.3,360.3,239.2z"/>
			<path class="st2" d="M397.7,152.4c0,2.2-0.1,4.9-0.2,7.6c-0.5,7.1-4,14.1-5.8,20.5c-3.5,12.5-4.9,22.1-5.1,29.1
				c-6.8-0.4-13.3-1.8-17.5-4.8c-1.2-0.8-2.2-1.8-3-2.9C370.5,166.9,387.8,153.2,397.7,152.4z"/>
			<path class="st3" d="M518.7,345.3c-2.6-0.1-5.3-0.1-7.9-0.2c-1.2,0-2.5-0.1-3.7-0.1c-2.9-0.1-5.7-0.2-8.5-0.3c-0.4,0-0.8,0-1.3,0
				c-0.3,0-0.6,0-0.9,0c-1.5-0.1-2.9-0.1-4.4-0.2c-0.3,0-0.7,0-1,0c-2.6-0.1-5.1-0.2-7.4-0.3c-0.3,0-0.7,0-1,0c-0.4,0-0.8,0-1.1-0.1
				c-0.5,0-0.9,0-1.4-0.1c-0.4,0-0.9,0-1.3-0.1c-0.5,0-1-0.1-1.4-0.1c-0.5,0-1-0.1-1.4-0.1c-0.9-0.1-1.7-0.1-2.5-0.2
				c-0.4,0-0.7-0.1-1-0.1c0,0-0.1,0-0.1,0c-0.3,0-0.5-0.1-0.8-0.1c-0.2,0-0.4,0-0.5-0.1c-0.1,0-0.2,0-0.2,0
				c-0.4-0.1-0.7-0.1-0.9-0.2c-0.1,0-0.1,0-0.2-0.1c-0.1,0-0.1,0-0.1-0.1c0,0-0.1-0.1-0.1-0.1c0,0,0-0.1,0-0.1
				c0.6-0.8,1.3-1.5,2-2.3c0.2-0.3,0.5-0.5,0.8-0.8c0.3-0.3,0.5-0.5,0.8-0.8c0.3-0.3,0.6-0.5,0.9-0.8c2-1.7,4.6-3.5,7.8-5.1
				c0.6-0.3,1.2-0.6,1.8-0.8c0.1,0,0.1,0,0.2-0.1c0.3-0.1,0.6-0.3,0.9-0.4c0.4-0.2,0.9-0.3,1.3-0.5c0.4-0.1,0.8-0.3,1.2-0.4
				c0.3-0.1,0.6-0.2,0.9-0.3c0.3-0.1,0.7-0.2,1-0.3c0.2-0.1,0.4-0.1,0.7-0.2c0.3-0.1,0.6-0.2,0.9-0.3c0.3-0.1,0.6-0.2,0.9-0.2
				c1-0.3,2-0.5,3-0.7c0.5-0.1,1.1-0.2,1.6-0.3c0.8-0.2,1.7-0.3,2.5-0.5C506.8,330.8,514.9,336.5,518.7,345.3z"/>
			<path class="st3" d="M437.3,342.3c-0.7,0-1.4,0-2.1,0c-13.1,0.2-37.9,1.5-40.9,1.5c-1.3,0-2.2,0-2.7-0.4
				c-0.5-0.4-0.2-1.2,1.4-2.7c0.1-0.1,0.2-0.2,0.3-0.3c0.1-0.1,0.2-0.2,0.3-0.3c0.2-0.2,0.5-0.4,0.7-0.7c1.1-1,16.4-12.8,29.3-12.4
				C428.8,330.6,434.3,335.8,437.3,342.3z"/>
			<path class="st4" d="M468.6,337.3c0,0.1,0,0.2,0,0.3c0,0.2-0.1,0.3-0.1,0.4c0,0.1-0.1,0.2-0.2,0.4c-0.1,0.2-0.3,0.4-0.6,0.6
				c-0.2,0.2-0.5,0.4-0.8,0.5c-0.1,0.1-0.3,0.2-0.5,0.2c-0.5,0.2-1,0.4-1.6,0.6c-1.2,0.4-2.6,0.7-4,0.9c-0.2,0-0.5,0.1-0.7,0.1
				c-0.2,0-0.5,0.1-0.7,0.1c-0.2,0-0.5,0-0.7,0.1c-1.6,0.2-3.2,0.2-4.4,0.3c-0.2,0-0.3,0-0.5,0c-0.1,0-0.2,0-0.3,0
				c-0.1,0-0.2,0-0.4,0c-0.4,0-0.7,0-0.9,0c-0.3,0-0.6,0-0.9,0s-0.6,0-0.9,0c-0.8,0-1.6,0.1-2.4,0.1c-0.6,0-1.3,0-1.9,0.1
				c-0.5,0-0.9,0-1.4,0c-1.1,0-2.1,0.1-3.2,0.1c-1.5,0-3,0.1-4.4,0.1c-0.7,0-1.4,0-2.1,0c-13.1,0.2-37.9,1.5-40.9,1.5
				c-0.2,0-0.4,0-0.6,0c-0.1,0-0.3,0-0.4,0c-0.1,0-0.1,0-0.2,0c-0.1,0-0.1,0-0.2,0c-0.2,0-0.3,0-0.5-0.1c0,0-0.1,0-0.1,0
				c-0.1,0-0.2,0-0.2,0c0,0,0,0-0.1,0c0,0-0.1,0-0.1,0c0,0-0.1,0-0.1-0.1c-0.1,0-0.1,0-0.1-0.1c0,0-0.1-0.1-0.1-0.1
				c-0.1-0.1-0.1-0.2-0.1-0.3c0,0,0-0.1,0-0.1s0-0.1,0-0.1s0-0.1,0-0.1c0-0.1,0.1-0.2,0.1-0.3c0,0,0,0,0-0.1c0,0,0-0.1,0.1-0.1
				c0-0.1,0.1-0.1,0.1-0.2s0.1-0.2,0.2-0.3c0,0,0-0.1,0.1-0.1c0.1-0.1,0.2-0.3,0.4-0.5c0.1-0.1,0.1-0.2,0.2-0.3
				c0.1-0.1,0.2-0.2,0.3-0.3c0.1-0.1,0.2-0.2,0.3-0.3c0.1-0.1,0.2-0.2,0.3-0.3c0.2-0.2,0.5-0.4,0.7-0.7c0,0,0.1,0,0.1,0
				c0,0,0.1,0,0.1-0.1c0,0,0.1-0.1,0.1-0.1c0,0,0.1,0,0.1-0.1c0.2-0.2,0.5-0.4,0.9-0.7c0.1,0,0.1,0,0.1-0.1c0,0,0.1,0,0.1-0.1
				c2.1-1.5,6.2-4.4,11.1-6.8c0.1-0.1,0.3-0.1,0.4-0.2c1-0.5,2-0.9,3-1.3c0.1-0.1,0.3-0.1,0.4-0.2c0.1,0,0.1,0,0.1-0.1
				c0.6-0.2,1.2-0.5,1.8-0.7c0.9-0.3,1.8-0.6,2.6-0.8c0.3-0.1,0.5-0.2,0.8-0.2c0.8-0.2,1.6-0.4,2.4-0.5c0.1,0,0.1,0,0.2,0
				c0,0,0.1,0,0.1,0c0.2,0,0.4-0.1,0.6-0.1c0.1,0,0.2,0,0.3,0c0,0,0.1,0,0.2,0s0.1,0,0.1,0c0.2,0,0.4,0,0.6-0.1c0.1,0,0.2,0,0.3,0
				c0.3,0,0.6,0,1-0.1c0.4,0,0.7,0,1.1,0c0.2,0,0.5,0,0.7,0c0,0-0.1,0-0.1-0.1l-0.3-0.3c-0.6-0.6-1.1-1.3-1.7-2.1
				c-1.3-1.8-2.5-4.1-3.5-6.6c-0.2-0.5-0.4-1-0.6-1.5c-1.2-3-2.6-7.8-3-12.7c12.1,6.2,30.6,11.9,47.6,12.4l0.1,0.5
				c0,0.2,0,0.3,0.1,0.5c0,0.2,0,0.4,0.1,0.6c0,0.2,0.1,0.4,0.1,0.6s0.1,0.4,0.1,0.6c0,0.2,0.1,0.4,0.1,0.6c0.1,0.4,0.2,0.8,0.3,1.2
				c0.1,0.2,0.1,0.4,0.2,0.6c0.9,3.3,2.2,7,3.6,10.5c0.4,1.1,0.8,2.2,1.3,3.2c0.2,0.4,0.3,0.9,0.5,1.3
				C468.5,336.6,468.6,337,468.6,337.3z"/>
			<path class="st4" d="M545.6,342.7c-0.2,0.3-0.4,0.5-0.6,0.7c-0.5,0.5-1.3,0.9-2.3,1.1c-4.7,1.1-12.3,1.1-24.1,0.8
				c-0.2,0-0.3,0-0.5,0c-1.1,0-2.2-0.1-3.3-0.1c-2.2-0.1-4.4-0.1-6.6-0.2c-0.5,0-1.1,0-1.6-0.1c-0.6,0-1.2,0-1.8-0.1
				c-0.8,0-1.5-0.1-2.3-0.1c-1.3,0-2.7-0.1-4-0.1c-1,0-2-0.1-3-0.1c-0.4,0-0.8,0-1.2,0c0,0-0.1,0-0.1,0c-0.2,0-0.4,0-0.6,0
				c-0.5,0-0.9,0-1.4,0c-1.4,0-2.8-0.1-4.1-0.2c-0.3,0-0.6,0-0.9,0c-0.1,0-0.2,0-0.3,0c-0.2,0-0.4,0-0.6,0c-0.6,0-1.2,0-1.8-0.1
				c-0.3,0-0.5,0-0.8,0c-0.3,0-0.6,0-0.9,0c-1,0-2-0.1-2.9-0.1c-0.2,0-0.4,0-0.5,0c-0.2,0-0.3,0-0.4,0c-0.1,0-7.9-0.7-8-0.7
				c12-4.7,32.8-6.1,42.7-5.5h0.1c4.4,0.3,7.9,0.7,9.8,0.8c6.7,0.2,9.1-1.3,6.3-10.7c-2.7-9-11.1-25.6-5.7-53.4
				c5.7,0.8,14.9,1.1,20.1,1.1c-7.5,15.7-6.1,38.6-1.7,52.1C543.7,331.1,548,338.9,545.6,342.7z"/>
			<g>
				<line class="st5" x1="408.8" y1="150.3" x2="408.7" y2="156.2"/>
				<line class="st5" x1="415.1" y1="153.2" x2="415" y2="159.2"/>
			</g>
			<path class="st2" d="M552.3,271.3c-2.5,8.1-53.1,7.4-77.5,7.3c-8.4,0.1-16.7,0-24.6-0.3c-16.8-0.6-34.5-3.3-50.1-7
				c-4.1-1-8.1-2-11.8-3.2c-2.6-0.8-5-1.6-7.3-2.4c-2.8-1.1-5.3-2.2-7.6-3.4c-0.6-0.3-3.7-1.4-3.8-2.3c-0.2-1.2,1.6-16.4,3-22
				c0.6-2.4,1.4-4.8,2.1-7.1c0.8-2.3,1.6-4.5,2.4-6.6c0.2-0.7,0.5-1.3,0.8-1.9c0.1-0.3,0.3-0.7,0.4-1c0.7-1.7,1.6-3.7,2.4-5.6
				c0.2-0.4,0.4-0.8,0.6-1.2c0.2-0.5,0.4-0.9,0.6-1.3c0.1-0.2,0.2-0.4,0.2-0.5c0.2-0.3,0.3-0.6,0.4-0.8c0.1-0.2,0.2-0.4,0.3-0.6
				c0.3-0.6,0.6-1.2,1-1.8c0.4-0.8,0.8-1.5,1.2-2.2c0,0,0,0,0-0.1c-0.1-0.2-0.2-0.3-0.2-0.5c0,0,0,0,0-0.1c-0.9-1.9-1.4-4-1.5-6.1
				c0-0.2,0-0.3,0-0.5c0-0.6,0-1.2,0-1.8V198c0-0.2,0-0.5,0.1-0.7c0.1-1.6,0.4-3.2,0.8-4.8c0.3-1.3,0.7-2.6,1.1-3.9
				c1.9-5.5,4.8-10.8,7-15.1c0.1-0.2,0.2-0.3,0.3-0.6c0.1-0.2,0.2-0.4,0.3-0.6c0.1-0.2,0.3-0.5,0.4-0.7c0.1-0.2,0.3-0.5,0.4-0.8
				c0.3-0.6,0.6-1.2,0.8-1.8c0.1-0.2,0.1-0.4,0.2-0.6c0-0.1,0-0.2,0.1-0.2c0,0,0,0,0-0.1v-0.1c0-0.8-1-1.9-1.2-3.2
				c0-0.1,0-0.1,0-0.2c0-0.3,0-0.7,0.1-1c0-0.1,0.1-0.2,0.1-0.3c0.3-0.6,1.1-1.9,1.9-3c0.2-0.3,0.4-0.6,0.7-0.8
				c0.1-0.1,0.1-0.1,0.2-0.2c0.1-0.1,0.3-0.2,0.4-0.3c0,0,0.1,0,0.1,0c0.1,0,0.1,0,0.1,0c0,0,0.1,0.1,0.1,0.1c0,0,0,0,0,0.1
				c0,0,0,0.1,0,0.1c0,0.1,0,0.1,0,0.1c0,0.1,0,0.1,0,0.2c0,0,0,0.1,0,0.1c10.8,3.1,20.6,5,29.5,6c25.3,2.9,43.8-1.1,58.2-5
				c10.4-2.8,30.8-10.7,50.8-19.3C560.2,186.5,561.6,234.5,552.3,271.3z"/>
			<path class="st6" d="M471.7,342.5c7.7-3.9,17.1-6.7,26.3-7.8c4-0.5,8-0.7,11.8-0.5"/>
			<path class="st6" d="M393.5,342.6c4.9-4.1,27.2-12.3,35.5-10.9"/>
			<path class="st6" d="M499,327.6c8.1,3.2,15.9,9.3,19.7,17"/>
			<path class="st6" d="M423.5,327.1c5.4,3.6,10.4,7.9,13.3,13.6"/>
			<path class="st6" d="M486.6,315.3c2.1,5.5,6.1,10.2,12.4,12.4c-18.1,3.2-25.1,9.5-29.4,14.9c-0.5,1.1,13.5,1.6,29,2.1
				c18,0.7,36.7,1.6,44.2-0.1c7.4-1.7,1.2-12.7-0.3-17.1c-4.8-14.8-5.3-35.7,1.1-51"/>
			<path class="st6" d="M462,316.6c0,0.2,0,0.3,0.1,0.5c0,0.2,0.1,0.4,0.1,0.5c0,0.2,0.1,0.4,0.1,0.6s0.1,0.4,0.1,0.6
				c0,0.2,0.1,0.4,0.1,0.6c0.1,0.4,0.2,0.8,0.3,1.2c0.1,0.2,0.1,0.4,0.2,0.6c0.2,0.6,0.3,1.2,0.5,1.8c0.2,0.5,0.3,1.1,0.5,1.6
				c1.2,3.9,2.9,8,4.3,11.4c0.1,0.3,0.2,0.6,0.2,0.9c0,0.1,0,0.2,0,0.2c0,0.1,0,0.2,0,0.3c-0.8,4-13.3,4.1-16.2,4.2
				c-5.3,0.2-11.8,0.5-17.1,0.6c-13.1,0.2-37.8,1.5-40.9,1.5c-1.5,0-2.7-0.1-2.8-0.6c0,0,0-0.1,0-0.1c-0.1-0.6,0.7-1.7,2.9-3.6
				c1.1-0.9,16.4-12.8,29.2-12.4c0,0,0,0,0.1,0c-1.9-1.9-3.8-4.9-5.3-8.4c-0.1-0.2-0.2-0.5-0.3-0.7c-0.2-0.5-0.4-1-0.6-1.5
				c-1.2-3.1-2.5-8.2-3-12.7"/>
			<path class="st6" d="M397.7,152.4c-9.9,0.7-27.2,14.4-31.8,49.6c3.2,4.5,10.3,6.7,18,7.4"/>
			<path class="st6" d="M367,195.1c4.9,4,10,5.5,15.9,6.4"/>
			<g>
				<line class="st5" x1="416.3" y1="284.9" x2="416.3" y2="290.9"/>
				<line class="st5" x1="422.4" y1="288.8" x2="422.4" y2="294.8"/>
				<path class="st4" d="M375.8,228c3.6-4.3,8-10.1,10.1-11.3c4.3-2.7,10.4-2.3,15.2-2.3c12.4,0,22,10.2,35.2,11.5
					c8.1,0.8,22.4-6.9,20.2-10.8c-1.9-3.2-5-0.7-21.9-1.2c-12.7-0.4-24.2-1.5-36.6-3.6c-3-0.5-10.1-0.5-12.6-5
					c-0.5,2-2.7,6.8-3.7,8.9C379.2,218.8,377.2,224.5,375.8,228z"/>
				<path class="st6" d="M397.3,159.9c41.2,11.8,78,7,106.4-5.3"/>
				<path class="st6" d="M474.8,278.6c-8.4,0.1-16.7,0-24.5-0.3c-21.3-0.8-43.9-4.9-61.9-10.2c-2.6-0.8-13.8-4.9-18.7-8.2
					c1.1-14.5,4.1-26.7,7.6-35.6c0.2-0.7,0.5-1.3,0.8-1.9c0.1-0.3,0.3-0.7,0.4-1c0.7-1.7,1.6-3.6,2.5-5.6c0.2-0.4,0.4-0.8,0.6-1.2
					c0.2-0.5,0.4-0.9,0.6-1.3c0.1-0.2,0.2-0.4,0.2-0.5c0.1-0.3,0.3-0.6,0.4-0.8c0.9-1.7,1.7-3.3,2.5-4.7c0,0,0,0,0-0.1
					c-0.1-0.2-0.2-0.3-0.2-0.5c0,0,0,0,0-0.1c-0.9-1.9-1.4-4-1.5-6.1c0-0.2,0-0.3,0-0.5c-0.1-0.9,0-1.8,0-2.6
					c0.1-1.6,0.4-3.2,0.8-4.8c1.7-6.9,5.5-13.7,8.2-18.9c0.7-1.3,2.3-4.1,2.5-5.3c0,0,0,0,0-0.1s0-0.1,0-0.1c0-0.8-1-1.9-1.2-3.2
					c0-0.1,0-0.1,0-0.2c0-0.4,0-0.9,0.2-1.3c0.3-0.6,1.1-1.9,1.9-3c0.2-0.3,0.5-0.6,0.7-0.8c0.1-0.1,0.2-0.1,0.2-0.2
					c0.2-0.2,0.4-0.3,0.5-0.3c0.1,0,0.2,0,0.2,0.2c0,0,0,0,0,0.1c0,0.1,0,0.2,0,0.3c0,0.1,0,0.1,0,0.1c0,0,0,0.1,0,0.1
					c0,0,0,0,0,0.1"/>
				<path class="st6" d="M403.7,162c-0.6,1.7-1.2,3-1.2,4.9"/>
				<path class="st6" d="M414.2,164.1c-0.8,1.6-0.9,3.6-0.9,5.4"/>
				<line class="st6" x1="426.8" y1="165.7" x2="426.1" y2="169.9"/>
				<polyline class="st6" points="435.7,166.9 435.7,167.6 435.7,168.1 435.7,168.8 435.7,169.2 435.7,169.7 435.7,170.2 				"/>
				<polyline class="st6" points="430.8,167.1 430.8,167.6 430.8,168.1 430.8,168.5 430.8,169 430.8,169.5 				"/>
				<polyline class="st6" points="465.5,165.7 465.5,166.2 465.5,166.7 465.5,167.6 465.5,169.7 				"/>
				<polyline class="st6" points="469,165.7 469,166.4 469,167.1 469,169.7 				"/>
				<g>
					<g>
						<g>
							<path class="st13" d="M426.8,202.9c-0.5-1.7-2-3-4.8-3.1c-5.8-0.3-11.8-0.4-19.1-0.6c-0.2,0.6-0.3,1.1-0.5,1.7
								c-1.2,3.3-2.9,6.4-4.7,9.4c-0.4,0.8-0.9,1.5-1.3,2.3c-0.4,0.6-0.7,1.2-1,1.8c-2.4,4.3-4.4,8.7-4.6,13.9
								c3.3,0,6.4,0.1,9.7,0.2c-0.2-4.2,1.4-8.1,3.5-11.8c2.9-0.4,3.4,0.8,3.6,2.5c0.3,3.1,1.1,6.3,2.8,9.7
								c3.5,0.2,6.8,0.4,10.5,0.7c-2-3.5-1.9-7.2-2.8-10.2c-0.2-0.6-0.4-1.1-0.6-1.6c-0.4-0.8-0.9-1.4-1.7-2
								c0.5-0.1,0.8-0.2,1.1-0.2c1.8-0.5,3.4-1.2,4.8-2.1c0.1,0,0.1-0.1,0.2-0.2c2.4-1.6,4.2-3.8,5-6.6
								C427,205.3,427.1,204,426.8,202.9z M410.4,205.3c2,0,3.9-0.1,5.6,0.1c1.7,0.2,2,1.4,1.2,2.9c-0.8,1.4-2.2,2.5-4,2.6
								c-2,0.2-3.9,0.2-6,0.2C408.5,209,409.5,207.2,410.4,205.3z"/>
							<path class="st13" d="M453.4,208.3c-3.2,0.2-6.1,0.3-9,0.5c0.4-2.6-0.7-3.9-3-4c-1.5-0.1-2.9,0.4-4,2.2
								c-0.4,1.5,0.3,2,1.3,2.3c1.9,0.6,3.8,1.2,5.7,1.8c1.1,0.4,2.1,0.8,3.1,1.4c6.3,3.4,2.9,12.2-3.2,16.2c-2,1.3-4.4,2.1-6.5,2.4
								c-3.5,0.5-6.9,0.2-10.2-1c-4.3-1.5-6.8-5.6-4.9-10.5c2.8,0,5.5,0,8.5-0.1c0,0.6-0.1,1.2-0.1,1.7c0.1,3,2.9,4.5,6.1,3.5
								c1.4-0.5,2.6-1.4,3.1-2.8c0.4-1.3,0-2.3-1-2.8c-0.9-0.5-1.8-0.8-2.7-1.1c-1.9-0.7-3.8-1.3-5.5-2.2c-3.1-1.8-3.5-4.6-2-7.9
								c1.7-3.7,4.6-6.7,8.5-7.8c3.7-1.1,7.4-1.1,11.2,0.2C452.7,201.2,454.4,203.7,453.4,208.3z"/>
						</g>
					</g>
				</g>
				<path class="st6" d="M505.6,309.2c-10.6,5.3-23.4,7.5-36.6,7.4c-16.5-0.1-33.5-3.8-47.1-9.5c0,0,0,0,0,0c-0.5-0.2-1-0.4-1.5-0.7
					c-6.6-2.9-13.7-6-19.1-10.8c-5-4.5-6.3-7.5-7.1-7.9c-0.2-0.1-0.1,3.3-0.2,3.3c-2.3,0.8-5.8-12.3-6.7-13.8
					c-0.7-1.2-2.4,3.5-2.4,3.5s-4-7.9-3.9-15.3c0,0,0-0.1,0-0.1"/>
				<path class="st6" d="M394.7,168.2c7.6,5.6,39.4,12.4,80.6,5.9"/>
			</g>
			<path class="st4" d="M449.2,230.3c11.6,17.5,30,34.6,47.7,42c19.2,8.1,25.1,6.3,34.6,1.3c8.7-4.6,16.1-11,24.5-21.3
				c0.7-8,1.5-18,2.2-24.9c-2,7.8-6.8,18.1-13.4,26.9c-6.6,8.8-14.4,16.3-23.2,17.8c-8.8,1.5-21.6-3-30.2-7.2
				C482.8,260.6,469.6,254.2,449.2,230.3z"/>
			<g>
				<path class="st1" d="M531.6,267.7c-9.7,7.7-22.5,4.9-37.6-1.7c-13.8-6-26.3-15-39.3-29.5c-8-9-12.6-14.6-18.7-23.9
					c-4.3-6.6-6.7-13.3-5.9-17.4c0.3-1.5,1.1-5.8,1.5-7.9c0.5-2.5,6,3.9,10.8,9.4c8.1,9.5,12.4,13.3,19.3,17.6
					c12.4,7.7,33.2,18.8,36.1,16.8c2.1-1.4,4.6-6,5.9-10.3c1.3-4.5,1.6-7,2.6-11.1c0.1,0,28.7-13,55.1,7.3c0.7,0.5-1.2,6.2-4.4,14.1
					C549.2,250.7,541.3,260,531.6,267.7z"/>
				<path class="st2" d="M563.4,217.7c-0.5,0-1.2-0.2-1.9-0.6c-25.8-13.5-41.4-9.2-52.5-6.5c-0.1,0-0.3,0.1-0.4,0.1
					c-6.4,1.3-5.2-4.7-3-9.9c-0.2-1.6-0.7-4.6-1.8-8.3c0.7-3.7,1.9-8.3,1.4-12l9.8-33c9.2-5.5,24.6-11.1,38.7-1.7
					c16.6,11,20.9,25.9,13.1,64.2C566.3,212.3,566.6,217.9,563.4,217.7z"/>
				<path class="st4" d="M563.4,217.7c-0.5,0-1.2-0.2-1.9-0.6c-3.4-1.8-6.6-3.3-9.7-4.5c1.5-4.3,2.8-8.7,3.8-13.1
					c3.2-13.6,8.7-47.6-10-57.6c2.7,0.8,5.4,2,8,3.8c16.6,11,20.9,25.9,13.1,64.2C566.3,212.3,566.6,217.9,563.4,217.7z"/>
				<path class="st6" d="M509.6,210.4c-2,0.4-3.6,1.1-4.8-0.3c-2.1-2.3-0.7-5.7,0.9-9.7"/>
				<path class="st6" d="M503.8,192.5c1.2,3.8,1.6,6.9,1.8,8.4"/>
				<path class="st6" d="M499.1,185.3c0.6,2.6,2.3,4.9,4.6,7.2c0.7-3.7,1.9-8.3,1.4-12"/>
				<path class="st6" d="M515,147.4c9.2-5.5,24.6-11.1,38.7-1.7c16.6,11,20.9,25.9,13.1,64.2c-0.6,2.8-0.1,10-5.3,7.2
					c-11-6-25-10.8-40.9-8.9"/>
				<path class="st6" d="M506.5,201c12.1-5.4,30.6-6.8,44.9,1"/>
				<path class="st6" d="M515.4,198.9c0,1.7,0.2,2.9,0.6,4.6"/>
				<line class="st6" x1="525.1" y1="197.8" x2="525.4" y2="201.9"/>
				<line class="st6" x1="534.2" y1="197.8" x2="533.5" y2="201.7"/>
			</g>
			<path class="st6" d="M535.7,140c0.5-44.2-14.7-85.6-59.6-107.7c-3.4-1.6-8.4-3.8-12.2-5.1c-10.2-3.4-9-5.6-5.8-8.6
				c-5.7,0-7.8,0.4-14,5c-4.1-2.8-4.8-6.1-3.8-12.2c-8.7,0-15.8,3.8-21.2,13.7c-7.8-3.3-17.5-3.3-24.4,2.3c4.6-0.7,10.3,0,10.3,2.1
				c0,1.8-12.7,0.7-17.5,8.4c5.2-2,11.7,0.3,11.6,0.8c-3.4,0.8-5.6,1.9-8.3,6.7c3-1.4,6.5-1.2,9.1-0.9c-4.8,3.2-8.6,7.3-11.8,12.6
				c-13.9,23.5-6.5,51,4.7,73.4c1,2,2.4,4.2,2.7,6.5c0.2,1.1-0.5,3,0,4c0.2,0.4,1.2-1.1,1.3-0.6c0.3,2.1,0,4.4-0.2,6.5
				c-0.1,0.8-1,2.8-0.4,2.3c0.2-0.2,0.7-1.9,1.5-1.7c0.4,0.1,0,11.3-0.3,12.4"/>
			<path class="st4" d="M485.8,315.1c-0.3,0-0.6,0.1-0.9,0.1c-0.4,0.1-0.8,0.1-1.2,0.2c-0.6,0.1-1.2,0.2-1.8,0.2
				c-1.2,0.1-2.3,0.3-3.5,0.4c-3.2,0.3-6.4,0.4-9.7,0.4c-16.5-0.1-33.5-3.8-47.1-9.5c-0.6-0.2-1.1-0.5-1.6-0.7
				c-2.9-1.3-5.9-2.6-8.8-4c-0.8-0.4-1.6-0.9-2.4-1.3c-2.1-1.2-4.1-2.4-5.9-3.9c-0.7-0.5-1.3-1-1.9-1.6c-0.3-0.3-0.6-0.6-0.9-0.8
				c-0.4-0.4-0.8-0.8-1.2-1.1c-0.5-0.5-0.9-1-1.3-1.4c-0.2-0.2-0.4-0.4-0.6-0.6c-0.2-0.2-0.3-0.4-0.5-0.6c-1.3-1.6-2-2.7-2.4-3.1
				c-0.1,0-0.1-0.1-0.2-0.1c-0.2-0.1-0.1,3.3-0.2,3.3c-0.1,0-0.3,0-0.4,0c-0.4-0.1-0.9-0.7-1.4-1.5c-0.2-0.3-0.3-0.6-0.5-0.9
				c-1-1.9-2-4.7-2.8-7c-0.1-0.2-0.1-0.4-0.2-0.6c-0.7-1.9-1.2-3.4-1.4-3.8c-0.1-0.1-0.1-0.2-0.2-0.2c-0.1,0-0.3,0-0.4,0.2
				c-0.3,0.3-0.6,0.9-0.9,1.5c0,0.1-0.1,0.1-0.1,0.2c0,0,0,0,0,0.1c-0.1,0.2-0.2,0.4-0.3,0.7c0,0.1-0.1,0.2-0.1,0.3
				c-0.2,0.4-0.3,0.8-0.3,0.8c-0.1-0.1-1-2-1.9-4.7c-0.1-0.2-0.1-0.4-0.2-0.5c-0.1-0.4-0.2-0.8-0.4-1.1c-0.8-2.6-1.5-5.8-1.4-8.8
				c0,0,0-0.1,0-0.1c1.7,0.7,3.4,1.2,5.1,1.8c0,0,0.1,0,0.1,0c0.9,0.3,1.7,0.6,2.2,0.7c3.8,1.1,7.7,2.2,11.8,3.2
				c15.6,3.7,33.2,6.4,50.1,7c3.2,0.1,6.6,1,9.9,0.2c-27.4,6.2-57.7-3.6-59.4-0.1c-2.4,5.2,2.8,11.4,11.7,17.3
				C430.4,307.5,459.5,315.3,485.8,315.1z"/>
			<g>
				<path class="st7" d="M386.9,80.2c2.1-8.6,8.7-15.3,15.2-19.8c6.6-4.6,13.8-6.6,22.5-6.2c2.8,0.1,4.1-1.4,4.8-2.9
					c1.3-2.9,0-5.7,0-5.7c1.4,0.4,3,2,4.5,2.9c6.6,4,16.8,4.7,23,4.7c21.6,0,35.6,0,46.2,19.3c2.4,4.3,6,14.2,3.6,25.2
					c-3.6,16.1-5.5,22.8-22.9,34.8c-20.7,14.3-63.6,21.4-85-5.6C388.8,114.2,383,96.3,386.9,80.2z"/>
				<path class="st8" d="M428.8,87.7c-7.2-3.6-13.1,14.6-12.5,19.9c2,18,28.3,17,40.4,10.9c17.6-8.8-3.9-37.1-16.5-32.1"/>
				<path class="st8" d="M386,79.7c-2.2,9.3,0.2,26.7,4.3,33.2c1.5,2.4,15.5-2.7,24.9-18.7c6.1-10.4,11.3-28.9,4.4-36.6
					c-10.8,0.6-17.1,1.8-22,3.5C394.1,62.4,388.5,69.2,386,79.7z"/>
				<path class="st8" d="M449.2,54.8c1.6,45.5,49.4,62.4,54.5,55.1c3.2-4.7,7.4-24.1-0.2-36.6c-0.9-1.4-5-10.8-23.2-16.2
					C468.2,53.5,459,53.6,449.2,54.8z"/>
				<path class="st9" d="M424.5,87.7c-0.1-2.7,5.2-5.2,11.9-5.5c6.7-0.3,12.3,1.6,12.4,4.3c0.1,2.7-5.2,5.2-11.9,5.5
					C430.2,92.4,424.6,90.5,424.5,87.7z"/>
				<path class="st15" d="M427.5,105.1c1.1,6.6,17.1,10,23.9-2.6"/>
				<path class="st15" d="M436.5,90.8c-0.7,6.4-0.7,12.5,1.4,20.2"/>
				<g>
					<g>
						<g>
							<path class="st0" d="M390.2,80.5c0.9,4.9,6.6,2.3,12.4,2.4c6.6,0.1,13,2.8,12.5-4.7c-0.3-5.6-6.1-7.8-14.6-7.9
								C392,70.2,389,74.4,390.2,80.5z"/>
							<path class="st16" d="M390,79.3c2.5-5.2,7.5-6,14-5c6.8,1.1,9.9,3.8,10.9,7.1c0.3-1,0.4-2.1,0.3-3.3
								c-0.3-5.6-6.2-7.8-14.6-7.9C392.6,70.2,389.5,73.8,390,79.3z"/>
							<path class="st13" d="M408.9,78.6c0-3.1-2.5-5.5-5.6-5.5c-3.1,0-5.5,2.5-5.5,5.6c0,3.1,2.5,5.5,5.6,5.5
								C406.4,84.1,408.9,81.6,408.9,78.6z"/>
							<path class="st17" d="M390.2,80.5c0.9,4.8,6.6,2.6,12.4,2.4c6.7-0.2,13,2.9,12.5-4.7c-0.3-5.6-6.1-7.8-14.6-7.9
								C392,70.2,389,74.4,390.2,80.5z"/>
						</g>
						<circle class="st0" cx="399.7" cy="75.3" r="2.5"/>
					</g>
					<g>
						<g>
							<path class="st0" d="M491.7,80.6c-1.1,5.5-7.5,2.4-14,2.4c-7.4,0-14.6,2.8-13.9-5.6c0.5-6.3,7.1-8.6,16.6-8.5
								S493.1,73.7,491.7,80.6z"/>
							<path class="st16" d="M491.9,79.3c-2.6-5.9-8.3-7-15.5-5.9c-7.6,1.1-11.2,4-12.3,7.7c-0.3-1.1-0.4-2.3-0.3-3.7
								c0.5-6.3,7.1-8.6,16.6-8.5C489.2,69,492.7,73.1,491.9,79.3z"/>
							<path class="st13" d="M472.5,77.8c0.1-3.4,3-6.1,6.4-6c3.4,0.1,6.1,3,6,6.4c-0.1,3.4-3,6.1-6.4,6
								C475,84.1,472.3,81.2,472.5,77.8z"/>
							<path class="st17" d="M491.7,80.6c-1.1,5.4-7.5,2.7-14,2.4c-7.5-0.3-14.6,2.9-13.9-5.6c0.5-6.3,7.1-8.6,16.6-8.5
								S493.1,73.7,491.7,80.6z"/>
						</g>
						<circle class="st0" cx="474.1" cy="75.1" r="2.7"/>
					</g>
				</g>
				<g>
					<path class="st11" d="M448.3,54.9c24.1-4.5,43.7,0.8,58.2,18.7"/>
					<path class="st11" d="M419.6,57.6c-19.3-0.5-32.9,6.1-44.4,20.7"/>
				</g>
				<g>
					<path class="st11" d="M421.8,79.8c6.7-6.1,21.1-7.4,29.4-2.9"/>
					<g>
						<path class="st18" d="M421.8,79.8c0,14.2-11.5,25.6-25.6,25.6c-0.2,0-0.4,0-0.7,0c-2,0-4-0.3-5.9-0.8c-1-0.3-2-0.6-3-1
							c-4-1.6-7.5-4.2-10.1-7.4c-3.7-4.4-5.9-10.1-5.9-16.3c0-13.5,10.4-24.5,23.6-25.5c0.7-0.1,1.3-0.1,2-0.1
							c3.7,0,7.2,0.8,10.4,2.2c1,0.4,1.9,0.9,2.8,1.5c1.7,1,3.3,2.3,4.7,3.7C418.8,66.1,421.8,72.6,421.8,79.8z"/>
						<linearGradient id="SVGID_1_" gradientUnits="userSpaceOnUse" x1="385.0729" y1="75.0937" x2="395.9665" y2="79.6895">
							<stop  offset="0" style="stop-color:#FFFFFF;stop-opacity:0.2"/>
							<stop  offset="1" style="stop-color:#FFFFFF;stop-opacity:0"/>
						</linearGradient>
						<path class="st19" d="M406.6,56.3l-20,47.2c-4-1.6-7.5-4.2-10.1-7.4l17.7-41.9c0.7-0.1,1.3-0.1,2-0.1
							C399.9,54.1,403.4,54.9,406.6,56.3z"/>
						
							<linearGradient id="SVGID_00000044174689005121332350000003496016740050734492_" gradientUnits="userSpaceOnUse" x1="399.4928" y1="81.1841" x2="404.5141" y2="83.3117">
							<stop  offset="5.586592e-03" style="stop-color:#FFFFFF;stop-opacity:0"/>
							<stop  offset="1" style="stop-color:#FFFFFF;stop-opacity:0.2"/>
						</linearGradient>
						<path style="fill:url(#SVGID_00000044174689005121332350000003496016740050734492_);" d="M414.1,61.5l-18.6,43.9
							c-2,0-4-0.3-5.9-0.8l19.8-46.7C411.1,58.8,412.7,60.1,414.1,61.5z"/>
					</g>
					<g>
						<path class="st18" d="M502.5,76.9c0,14.2-11.5,25.6-25.6,25.6c-1,0-2.1-0.1-3.1-0.2c-2-0.2-3.9-0.7-5.7-1.4
							c-1-0.4-1.9-0.8-2.9-1.3c-3.9-2-7.2-5-9.7-8.6c-2.7-4.1-4.3-9-4.3-14.2c0-12.6,9-23,21-25.2c1.5-0.3,3-0.4,4.6-0.4
							c2.9,0,5.7,0.5,8.3,1.4c1,0.3,2,0.7,2.9,1.2c1.8,0.9,3.4,1.9,4.9,3.1C498.8,61.7,502.5,68.9,502.5,76.9z"/>
						<g>
							
								<linearGradient id="SVGID_00000105392112089251365050000009995279813462921909_" gradientUnits="userSpaceOnUse" x1="463.6786" y1="71.3422" x2="474.5724" y2="75.938">
								<stop  offset="0" style="stop-color:#FFFFFF;stop-opacity:0.2"/>
								<stop  offset="1" style="stop-color:#FFFFFF;stop-opacity:0"/>
							</linearGradient>
							<path style="fill:url(#SVGID_00000105392112089251365050000009995279813462921909_);" d="M485.1,52.7l-19.9,47.1
								c-3.9-2-7.2-5-9.7-8.6l16.7-39.4c1.5-0.3,3-0.4,4.6-0.4C479.8,51.3,482.5,51.8,485.1,52.7z"/>
							
								<linearGradient id="SVGID_00000067226836380390503160000013523143962202261419_" gradientUnits="userSpaceOnUse" x1="478.1053" y1="77.4301" x2="483.1106" y2="79.551">
								<stop  offset="0" style="stop-color:#FFFFFF;stop-opacity:0"/>
								<stop  offset="1" style="stop-color:#FFFFFF;stop-opacity:0.2"/>
							</linearGradient>
							<path style="fill:url(#SVGID_00000067226836380390503160000013523143962202261419_);" d="M493,57l-19.2,45.3
								c-2-0.2-3.9-0.7-5.7-1.4l20-47.1C489.8,54.7,491.5,55.8,493,57z"/>
						</g>
					</g>
					<circle class="st11" cx="396.2" cy="79.8" r="25.6"/>
					<circle class="st11" cx="476.9" cy="76.9" r="25.6"/>
				</g>
			</g>
			<path class="st1" d="M360.1,175.1c1.2,0.3,1.4,3,0.7,6.8c-0.7,3.9-1.5,8-2.2,15c-0.4,3.5-0.5,14.4,9.7,23.5
				c1.2,11.4,1.3,17.9,0,26.6c-1.3,8.9-7.8,21.4-16,15.8c-8.2-5.6-12.1-19.4-11.3-34.7c0.9-18.4,4.9-30.4,6.9-36.5
				C351.7,179.6,357.4,174.5,360.1,175.1z"/>
			<path class="st6" d="M365.9,218c1-4.2,2.1-8.6,3-13.2"/>
			<g>
				<polygon class="st0" points="436.6,161.1 427.1,210.6 388.5,215.9 354.7,196.6 364.3,147.2 402.5,143.3 				"/>
				<g>
					<polygon class="st14" points="392.6,215.3 427.1,210.6 435.9,164.7 401.7,168.1 					"/>
					<polygon class="st14" points="385,213.9 354.7,196.6 363.6,150.8 394.1,166.6 					"/>
					<polygon class="st14" points="431.3,158.4 399.1,161.3 370.2,146.6 402.5,143.3 					"/>
				</g>
			</g>
			<g>
				<path class="st3" d="M453.8,208.7c-3.4-2.9-6.8-6.5-11.5-11.9c-4.7-5.5-10.3-11.9-10.8-9.4c-0.4,2.1-1.2,6.4-1.5,7.9
					c-0.8,4.1,1.6,10.8,5.9,17.4c3.2,4.9,5.9,8.7,9,12.6C449.8,220.9,453.2,215,453.8,208.7z"/>
				<path class="st3" d="M359,204.5c-0.7-3.7-0.5-6.7-0.4-7.6c0.7-6.9,1.5-11.1,2.2-15c0.7-3.9,0.6-6.5-0.7-6.8
					c-2.7-0.6-8.4,4.5-12.3,16.4c-0.5,1.6-2.2,7-3,10.1C348.1,205,352.7,206.1,359,204.5z"/>
			</g>
			<path class="st4" d="M557.1,231.2c-7.9,19.5-15.8,28.8-25.5,36.5s-22.5,4.9-37.6-1.7c-13.8-5.9-26.3-15-39.3-29.5
				c-8-9-12.6-14.6-18.7-23.9c-4.3-6.6-6.7-13.3-5.9-17.4c0.3-1.5,1.1-5.8,1.5-7.9c0.2-1.2,1.6-0.4,3.5,1.4
				c-0.7,4.2-0.6,9.9,2.8,16.1c4.2,7.6,13.7,19.5,27.9,31.7c14.2,12.2,43.1,26.3,53.4,25.8c13.2-0.6,27.1-13.9,35.6-48.6
				c1.6,0.7,4.4,2.1,6.7,3.3C562.2,217.5,560.3,223.2,557.1,231.2z"/>
			<g>
				<line class="st5" x1="544.2" y1="233.8" x2="541.8" y2="239.2"/>
				<line class="st5" x1="536.8" y1="235.6" x2="534.4" y2="241.1"/>
			</g>
			<path class="st6" d="M445,225.1c4.9-4.3,8.3-10.1,8.9-16.5"/>
			<path class="st6" d="M344.9,201.6c3,3.9,9.1,4.3,14.1,2.9"/>
			<path class="st6" d="M561.5,217.1c0.7,0.5-1.2,6.2-4.4,14.1c-7.9,19.6-15.8,28.8-25.5,36.5c-9.7,7.7-22.5,4.9-37.6-1.7
				c-13.8-6-26.3-15-39.3-29.5c-8-9-12.6-14.6-18.7-23.9c-4.3-6.6-6.7-13.3-5.9-17.4c0.3-1.5,1.1-5.8,1.5-7.9
				c0.5-2.5,6,3.9,10.8,9.4c8.1,9.5,12.4,13.3,19.3,17.6c12.4,7.7,33.2,18.8,36.1,16.8c2.1-1.4,4.6-6,5.9-10.3
				c1.3-4.5,1.9-7.1,2.4-10"/>
			<path class="st4" d="M382.4,212.4c0,0.1-0.1,0.2-0.1,0.3c-0.1,0.2-0.2,0.4-0.2,0.5c-0.2,0.4-0.4,0.8-0.6,1.3
				c-0.2,0.4-0.4,0.8-0.6,1.2c-0.9,1.9-1.7,3.9-2.5,5.6c-0.1,0.3-0.3,0.7-0.4,1c-0.2,0.6-0.5,1.3-0.8,1.9c-0.8,2.1-1.6,4.3-2.4,6.6
				c-0.8,2.3-1.5,4.7-2.1,7.1c-1.4,5.6-3.3,20.8-3,22c0.1,0.7,2,1.5,3.1,1.9c-6.9,3-16.9,4.5-20.4,0.9c-8.2-5.6-12.1-19.4-11.3-34.7
				c0.9-18.4,4.9-30.4,6.9-36.5c3.3-10.3,8-15.5,11-16.4c0.5-0.1,0.9-0.2,1.2-0.1c0.7,0.2,1.1,1.2,1.1,2.9c-1.3,1.2-2.5,2.5-3.7,4
				c-7.9,10.3-10.4,26.9-10.3,39.9c0.1,16,3.2,24.1,6.6,30.9c3.3,6.8,11.8,6.2,13.6,3.6c1.8-2.6,2.5-14.6,3.8-21
				c1.5-7.3,3.7-14,5.1-18.7c1.2-4.2-1.4-8-3.3-9.6L382.4,212.4z"/>
			<path class="st6" d="M372.7,261.8c-6.7,2.8-16.4,4.1-20.3,0.9c-7.9-6.4-12.1-19.4-11.3-34.7c0.9-18.4,4.9-30.4,6.9-36.5
				c3.8-11.9,9.5-17,12.3-16.4c1.2,0.3,1.4,3,0.7,6.8c-0.7,3.9-1.5,8-2.2,15c-0.4,3.5-0.5,14.4,9.7,23.5"/>
			<path class="st6" d="M431.1,190c6.5,9.7,11.6,20.8,19.9,27.7"/>
			<path class="st6" d="M360.1,175.1c-3.8,6.2-8,20.7-8.4,30"/>
			<line class="st5" x1="357.1" y1="237.9" x2="357" y2="243.8"/>
			<line class="st5" x1="363.2" y1="241.8" x2="363.2" y2="247.8"/>
			<path class="st6" d="M557.4,230.3c0.2,10.5-1.7,27.9-5.2,40.9c-1.4,5.4-26.9,6.6-33.1,6.9"/>
			<polyline class="st6" points="433.1,179.6 436.6,161.1 402.5,143.3 			"/>
			<polyline class="st6" points="358.5,198.8 388.5,215.9 427.1,210.6 			"/>
			<g>
				<line class="st5" x1="494" y1="138.4" x2="494.1" y2="144.4"/>
				<line class="st5" x1="487.9" y1="142.3" x2="487.9" y2="148.3"/>
			</g>
		</g>
		<g>
			<polygon class="st0" points="261.1,283.8 261.1,334.1 224.2,346.6 187.4,334.1 187.4,283.8 224.2,272.7 			"/>
			<g>
				<polygon class="st14" points="228.1,345.3 261.1,334.1 261.1,287.4 228.1,297.2 				"/>
				<polygon class="st14" points="220.4,345.3 187.4,334.1 187.4,287.4 220.4,297.2 				"/>
				<polygon class="st14" points="255.4,282 224.2,291 193.1,282 224.2,272.7 				"/>
			</g>
		</g>
		<g>
			<polygon class="st0" points="301.8,215.2 301.8,265.5 265,278 228.1,265.5 228.1,215.2 265,204.2 			"/>
			<g>
				<polygon class="st14" points="269.6,276.7 302.6,265.5 302.6,218.8 269.6,228.6 				"/>
				<polygon class="st14" points="261.1,276.7 228.1,265.5 228.1,218.8 261.1,228.6 				"/>
				<polygon class="st14" points="296.1,213.5 265,222.4 233.8,213.5 265,204.2 				"/>
			</g>
		</g>
		<g>
			<polygon class="st0" points="342.7,146.6 342.7,197 305.8,209.5 269,197 269,146.6 305.8,135.6 			"/>
			<g>
				<polygon class="st14" points="309.7,208.2 342.7,197 342.7,150.3 309.7,160 				"/>
				<polygon class="st14" points="302,208.2 269,197 269,150.3 302,160 				"/>
				<polygon class="st14" points="337,144.9 305.8,153.8 274.7,144.9 305.8,135.6 				"/>
			</g>
		</g>
		<g>
			<path class="st13" d="M299,307.4c-0.7-0.9-1.6-2.7-1.6-4.2c0-3.3,0-13.3,0-13.3c0-1.8-0.2-3.4-0.6-4.7c-0.4-1.3-1.1-2.5-2-3.4
				c-0.9-0.9-2.1-1.6-3.5-2.1c-1.4-0.5-3.2-0.7-5.3-0.7c-1.1,0-2.2,0.1-3.3,0.3c-1.1,0.2-2.1,0.5-3,0.8c-0.9,0.3-1.7,0.7-2.4,1
				c-0.7,0.4-1.2,0.7-1.5,1c-0.3,0.3-0.5,0.7-0.5,1c-0.1,0.3-0.1,0.7-0.1,1.3c0,0.3,0,0.6,0.1,0.9c0,0.3,0.1,0.5,0.2,0.7
				c0.1,0.2,0.2,0.3,0.3,0.4c0.1,0.1,0.3,0.1,0.4,0.1c0.3,0,0.6-0.2,1.2-0.5c0.5-0.3,1.2-0.6,1.9-1c0.8-0.4,1.7-0.7,2.7-1
				c1-0.3,2.2-0.5,3.5-0.5c1.2,0,2.2,0.1,3.1,0.4s1.5,0.7,2,1.3c0.5,0.6,0.9,1.3,1.1,2.1c0.2,0.9,0.4,1.8,0.4,2.9c0,0,0,2,0,2.9
				c-1.3-0.3-4.2-0.6-7.8-0.6c-7.9,0-11.4,4.1-11.4,9.8c0,6,4.8,8.8,9,8.7c6.3,0,8.6-2.8,10.9-5.2c0.6,2.1,1.3,3.2,2.3,4.4
				c0.2,0.2,0.3,0.3,0.5,0.3c0.2,0,0.4-0.1,0.7-0.2c0.5-0.2,1-0.5,1.4-0.8c0.5-0.4,0.8-0.7,1-0.9c0.2-0.2,0.3-0.5,0.4-0.7
				C299.2,307.8,299.2,307.6,299,307.4z M292.2,301.8c-1.6,3.2-4.8,4.9-8.6,4.9c-3.7,0-5.1-2.3-5.1-4.6c0-3.7,2.4-5.9,6.5-5.9
				c3.1,0,5.6,0.3,7.1,0.7C292.2,298.3,292.2,301.8,292.2,301.8z M342.6,280.8c0,0.1,0,0.3-0.1,0.5c0,0.2-0.1,0.5-0.2,0.8l-8.1,27.4
				c-0.1,0.2-0.2,0.4-0.3,0.6c-0.1,0.2-0.3,0.3-0.6,0.4s-0.6,0.1-1,0.2c-0.4,0-1.2,0.1-1.9,0.1c-0.7,0-1.2,0-1.7-0.1
				c-0.4,0-0.8-0.1-1.1-0.2c-0.3-0.1-0.5-0.2-0.6-0.4c-0.1-0.1-0.2-0.3-0.3-0.5l-5.3-20.9l-0.1-0.3l-0.1,0.3l-4.7,20.9
				c-0.1,0.2-0.2,0.4-0.3,0.6c-0.1,0.2-0.3,0.3-0.6,0.4c-0.3,0.1-0.6,0.1-1.1,0.2c-0.4,0-1,0-1.6,0.1c-0.7,0-1.4,0-1.9-0.1
				c-0.4,0-0.8-0.1-1-0.2c-0.3-0.1-0.5-0.2-0.6-0.4c-0.1-0.1-0.2-0.3-0.3-0.5l-8.2-27.3c-0.1-0.3-0.2-0.6-0.2-0.8
				c0-0.2-0.1-0.4-0.1-0.5c0-0.2,0-0.3,0.1-0.5c0.1-0.1,0.2-0.2,0.4-0.3c0.2-0.1,0.5-0.1,0.8-0.1c0.3,0,0.8,0,1.2,0
				c0.6,0,1.1,0,1.4,0c0.4,0,0.6,0.1,0.8,0.2c0.2,0.1,0.3,0.2,0.4,0.3c0.1,0.1,0.2,0.3,0.2,0.5l6.7,23.3l0.1,0.3l0.1-0.3l5.2-23.3
				c0-0.2,0.1-0.4,0.2-0.5c0.1-0.1,0.2-0.2,0.4-0.3c0.2-0.1,0.5-0.1,0.8-0.2c0.3,0,1.3-0.1,1.8-0.1c0.5,0,1.5,0,1.8,0
				c0.3,0,0.6,0.1,0.8,0.2c0.2,0.1,0.3,0.2,0.4,0.3c0.1,0.1,0.1,0.3,0.2,0.4l5.9,23.1l0.1,0.3l0-0.3l6.6-23c0-0.2,0.1-0.4,0.2-0.5
				c0.1-0.1,0.2-0.2,0.4-0.3c0.2-0.1,0.5-0.1,0.8-0.2c0.4,0,0.8,0,1.4-0.1c0.5,0,0.9,0,1.2,0c0.3,0,0.6,0.1,0.7,0.2
				c0.2,0.1,0.3,0.2,0.4,0.3C342.6,280.5,342.6,280.6,342.6,280.8z M355.4,311.4c-1,0-2.9-0.1-3.8-0.3c-0.9-0.2-1.8-0.4-2.5-0.6
				c-0.7-0.2-1.4-0.5-1.9-0.8c-0.5-0.3-0.9-0.5-1.2-0.8c-0.3-0.2-0.5-0.6-0.6-1c-0.1-0.4-0.2-0.9-0.2-1.6c0-0.4,0-0.8,0.1-1.1
				c0-0.3,0.1-0.5,0.2-0.7c0.1-0.2,0.2-0.4,0.4-0.5c0.2-0.1,0.3-0.2,0.6-0.2c0.3,0,0.7,0.1,1.2,0.5c0.5,0.3,1,0.6,1.7,0.9
				c0.7,0.3,1.4,0.6,2.3,0.9c0.9,0.3,2.7,0.4,3.9,0.4c1.1,0,2.5-0.1,3.2-0.3c0.7-0.2,1.3-0.5,1.8-0.8c0.5-0.3,0.9-0.8,1.1-1.3
				c0.3-0.5,0.4-1.2,0.4-1.9c0-0.7-0.2-1.4-0.6-1.9c-0.4-0.5-0.9-1-1.6-1.4c-0.6-0.4-2.2-1-3.9-1.5c-1.1-0.3-2-0.6-2.8-0.9
				c-0.9-0.4-1.8-0.8-2.7-1.2c-0.9-0.5-1.7-1-2.4-1.7c-0.7-0.7-1.3-1.5-1.7-2.4c-0.4-0.9-0.7-2.1-0.7-3.4c0-1.2,0.2-2.3,0.7-3.4
				c0.4-1.1,1.1-2,2-2.8c0.9-0.8,2-1.4,3.4-1.9c1.5-0.5,3.3-0.9,5-0.9c1.6,0,3,0.2,3.8,0.3c0.8,0.1,1.5,0.3,2.1,0.5
				c0.6,0.2,1.2,0.4,1.6,0.6c0.5,0.2,0.8,0.4,1,0.6c0.3,0.2,0.4,0.4,0.5,0.5c0.1,0.2,0.2,0.3,0.2,0.5c0,0.2,0.1,0.4,0.1,0.6
				c0,0.2,0.1,0.6,0.1,0.9c0,0.4,0,0.7,0,1c0,0.3-0.1,0.5-0.2,0.7c-0.1,0.2-0.2,0.4-0.4,0.5c-0.2,0.1-0.3,0.2-0.5,0.2
				c-0.3,0-0.6-0.1-1-0.4c-0.4-0.2-0.8-0.5-1.4-0.7c-0.6-0.3-1.2-0.5-2-0.7c-0.8-0.2-2.3-0.4-3.5-0.4c-0.9,0-2.4,0.2-3,0.4
				c-0.6,0.2-1.2,0.5-1.6,0.8c-0.4,0.3-0.7,0.8-0.9,1.2c-0.2,0.5-0.3,1-0.3,1.6c0,0.8,0.2,1.4,0.6,1.9c0.4,0.5,0.9,1,1.6,1.4
				c0.7,0.4,1.4,0.8,2.3,1.1c0.9,0.3,3.1,1,4.3,1.4c1,0.3,2,0.7,2.8,1.1c0.9,0.5,1.7,1,2.4,1.7c0.7,0.7,1.3,1.5,1.7,2.4
				c0.4,0.9,0.7,2,0.7,3.3c0,1.5-0.3,2.9-0.8,4.1c-0.6,1.2-1.4,2.2-2.4,3c-1,0.8-2.3,1.4-3.7,1.8
				C359.4,311.1,356.9,311.4,355.4,311.4z"/>
			<path class="st23" d="M269,320.1c-0.5,0.5,18.8,20.6,51.6,20.5c25.4,0,43.1-12.6,41.8-14.5c-1.3-1.8-15.2,7.9-41.8,8
				C288.9,334.1,269.9,319.2,269,320.1z"/>
			<path class="st23" d="M371.4,319.1c-0.8-0.9-4.1-1.5-9.3-1c-5.5,0.6-9.4,3.1-9.1,3.6c0.3,0.5,4.2-0.3,7.8-0.4
				c3-0.1,5.9,0.1,6.4,0.8c0.7,0.8,0.6,2.8-0.3,6.5c-1.1,4.5-2.8,7.3-2.4,7.6c0.4,0.3,3.6-2.5,5.7-7.7
				C371.9,324.2,372.1,319.9,371.4,319.1z"/>
		</g>
	</g>
</g>
</svg>
