<svg width="208" height="372" viewBox="0 0 208 372" fill="none" xmlns="http://www.w3.org/2000/svg">
<g clip-path="url(#clip0_291_4374)">
<path d="M40.1 184.3C39.9 181.7 34 188.9 35.8 191.3C36.6 192.3 37.9 193 38.5 194C38.9 194.5 38 195.2 37.8 195.5C34.6 199.8 32.5 204.6 30.6 209.4C28.5 214.6 27.2 219.2 26.4 224.8C25.9 228.3 28.7 231.9 27.9 235C25.8 243.4 20.1 243.5 17.7 260.1C16.8 265.9 14.2 272.8 14.2 278.8C14.2 279.8 13.7 283.8 14.7 284.5C27.8 294.1 47 295.2 64.7 295.2C68.3 295.2 71.7 298.1 75.2 297.2C80.4 295.9 85.6 296.3 90.8 295C91.5 294.8 95.1 295.7 95.1 295C95.1 294.8 91.1 290.1 90.8 289C88.9 281.4 92 278.7 95.8 273.1C97.2 271 93.8001 276.3 93.5001 274C101 267 99.0001 284.2 97.5001 274C97.2001 272.2 95.8 274 97.5001 277.5C99.5001 281 100.5 283 108.5 289C114.5 292 118 295 126.5 293.5C127.9 293.3 135 293 141 290C145 288 150.2 285.5 152 276.5C155.5 271.5 152 268.8 152 261.4C152 254 151 251 148.7 238.9C180.8 216.8 203.1 228.7 203.1 228.3C203 211.6 199.6 190.7 190.7 178.9C186.7 173.6 181.2 166.5 174 164.7C169.9 163.7 165.4 159.7 160.8 161C152.1 163.5 140.5 167.3 135 174.8C133.2 177.2 130.5 183.3 128 185C126.9 185.7 125.4 186.2 124 186.4C117.1 187.8 110 187.5 103.1 188.9C88.3 191.9 76.6 190.6 61.8 187.7C59.4 187.2 53.7 187.9 51.4 187.5C48.5 187 46.1 187 43.2 186.3C39.9 185.5 40.1 184.6 40.1 184.3Z" fill="#FFDB1F"/>
<g clip-path="url(#clip1_291_4374)">
<path d="M110.03 270.646C109.429 271.824 107.697 274.134 106.518 274.783C106.253 274.928 104.689 275.722 104.737 276.059C104.762 276.251 107.312 276.443 107.624 276.54C109.26 277.069 110.295 277.815 111.666 278.777" fill="#9D7B51"/>
<path d="M142.845 248.802C143.254 250.053 144.722 250.63 145.54 251.592C147.368 253.806 149.245 255.875 151.001 258.16C151.699 259.05 152.661 261.24 153.695 261.745" fill="#CAA77A"/>
<path d="M118.98 217.983C117.873 217.983 117.584 216.853 116.766 216.66C116.67 216.636 116.526 216.66 116.502 216.756C116.333 217.141 116.935 219.764 117.223 219.764C117.248 219.764 116.694 218.705 116.598 218.681C116.165 218.585 115.371 218.801 114.914 218.729C113.735 218.561 113.278 219.09 112.147 219.306C112.051 219.33 110.92 219.475 110.896 219.475C110.8 219.667 111.305 219.643 111.522 219.643C111.835 219.667 113.35 219.715 113.47 220.173C113.543 220.437 112.58 220.581 112.412 220.606C111.979 220.702 108.611 222.001 108.851 222.458C108.899 222.554 111.185 222.554 111.594 222.554C111.69 222.554 111.859 222.554 111.859 222.554C111.859 222.554 111.185 222.699 110.872 222.819C110.175 223.108 109.621 223.276 109.092 223.805C108.875 224.022 108.755 224.31 108.563 224.527C108.515 224.575 108.346 224.575 108.394 224.623C108.611 224.84 111.498 223.829 111.762 224.094C111.907 224.238 111.353 224.286 111.233 224.455C111.065 224.671 110.896 224.864 110.704 225.08C110.03 225.754 109.501 226.5 109.02 227.294C107.624 229.627 107.071 231.215 106.614 233.861C106.518 234.511 106.301 235.401 106.446 236.075C106.758 237.615 106.758 239.106 107.239 240.598C107.552 241.512 108.25 243.894 108.707 244.76C109.766 246.901 110.944 247.911 110.439 250.365C109.958 252.771 108.972 255.225 108.587 257.655C108.226 259.868 109.02 262.154 108.755 264.391C108.49 266.845 107.841 269.251 106.975 271.584C106.542 272.763 105.724 272.956 105.195 273.99C105.098 274.207 104.569 274.88 104.834 275.145C104.93 275.241 105.387 275.169 105.267 275.049C105.267 275.049 103.366 275.722 103.126 275.77C101.081 276.179 99.1319 276.54 98.1455 278.513C98.0012 278.802 97.3275 279.644 97.2313 280.077C97.1351 280.534 97.1591 283.228 97.8328 284.888C97.9771 285.249 100.118 286.404 100.118 286.428C100.094 286.548 98.9635 286.621 99.0116 286.789C99.2041 287.992 101.153 288.882 101.826 289.7C102.38 290.398 102.283 293.14 102.452 293.261C103.727 294.03 108.779 293.742 109.645 292.587C109.958 292.154 110.704 289.604 110.872 289.459C110.968 289.363 110.728 290.205 110.824 290.277C111.233 290.47 112.195 290.085 112.652 290.181C113.591 290.374 114.986 290.398 115.876 290.542C116.333 290.614 116.165 290.47 116.646 290.542C118.715 290.879 119.341 291.192 121.41 291.553C121.626 291.577 124.369 291.528 124.561 291.336C124.85 291.047 125.932 288.858 126.245 288.762C126.317 288.738 126.582 288.762 126.51 288.93C126.221 289.772 127.929 292.924 128.555 293.549C128.819 293.814 129.637 294.151 129.974 294.271C132.091 294.969 134.16 294.006 136.277 294.271C138.082 294.488 139.838 295.065 141.594 295.426C142.557 295.618 143.639 295.233 144.601 295.426C147.753 296.051 151.867 294.969 154.465 293.02C155.5 292.25 157.617 288.04 154.128 284.864C175.227 278.513 152.276 253.324 147.44 243.846C146.622 242.234 146.31 240.646 146.021 238.962C145.78 237.47 143.601 238.895 143 237.5C141.749 234.613 141.426 229.002 139.453 226.524C138.226 224.888 136.71 223.661 135.099 222.458C132.813 220.726 129.974 219.667 127.159 218.921C126.221 218.681 125.307 218.464 124.393 218.272C124.08 218.2 123.743 218.128 123.43 218.079C122.324 217.863 123.286 218.753 123.07 218.97C122.853 219.186 122.083 218.44 121.41 218.368C120.736 218.296 120.952 218.272 119.148 217.791" fill="#CAA77A"/>
<path d="M108.418 232.996C108.972 230.734 109.982 229.844 112.003 229.459C114.385 229.026 115.131 225.417 117.416 225.321C117.849 225.297 118.835 225.081 119.052 224.696C119.702 223.469 118.21 222.939 118.956 223.084C119.702 223.228 124.465 224.888 126.077 225.056C130.744 225.562 135.099 226.476 137.865 231.48C138.491 232.611 139.982 236.34 139.333 239.227C138.395 243.437 137.889 245.193 133.342 248.321C127.929 252.05 113.519 250.943 110.199 244.832C110.295 240.069 107.384 237.206 108.418 232.996Z" fill="#FFDBAF"/>
<path d="M121.41 238.817C119.533 237.879 117.368 241.608 117.296 244.254C117.103 249.667 124.465 250.967 128.579 248.272C132.885 245.457 127.689 237.181 124.417 238.504" fill="#9D7B51"/>
<path d="M108.394 231.961C106.614 235.834 108.899 243.629 110.439 245.145C112.244 244.567 113.711 243.821 114.866 242.931C122.3 237.278 117.608 226.476 117.103 225.97C116.766 225.634 110.656 229.411 109.982 229.531C109.02 229.699 108.755 231.167 108.394 231.961Z" fill="#9D7B51"/>
<path d="M126.799 225.753C123.406 242.089 136.759 245.529 138.082 243.604C138.924 242.377 140.584 236.652 138.394 232.778C138.178 232.393 135.171 228.087 134.762 228.159C131.49 228.688 127.472 222.481 126.799 225.753Z" fill="#9D7B51"/>
<path d="M154.97 221.448C154.898 221.375 154.85 221.279 154.778 221.207Z" fill="#9D7B51"/>
<path d="M113.543 251.447L113.519 253.011" stroke="#9D7B51" stroke-width="0.931044" stroke-miterlimit="10" stroke-linecap="round" stroke-linejoin="round"/>
<path d="M115.082 252.241L115.058 253.805" stroke="#9D7B51" stroke-width="0.931044" stroke-miterlimit="10" stroke-linecap="round" stroke-linejoin="round"/>
<path opacity="0.23" d="M107.793 224.815C108.924 224.815 109.862 224.503 110.944 224.262C111.257 224.19 111.883 223.853 111.883 224.166C111.883 224.238 111.762 224.214 111.69 224.262C110.752 224.815 110.006 225.609 109.453 226.596C109.26 226.932 108.779 227.847 108.9 227.606C113.158 219.932 144.048 217.045 142.268 248.248C142.244 248.537 141.907 248.994 142.172 249.09C142.725 249.282 143.471 246.275 144.168 246.54C144.481 246.66 146.598 242.787 146.839 242.618C147.248 242.354 146.719 243.172 146.695 242.715C146.517 239.937 144.468 239.376 143.5 237C142.268 230 139.72 226.311 135.676 222.795C130.648 218.416 123.503 218.103 123.31 218.055C123.286 218.055 122.564 218.488 122.204 218.416C120.856 218.199 119.365 217.694 118.017 217.309C117.801 217.261 116.574 216.299 116.526 216.371C116.382 216.684 116.285 218.368 116.43 218.608C116.526 218.777 117.2 218.512 116.983 218.512C115.251 218.512 113.086 219.066 111.233 219.45C111.161 219.475 111.041 219.475 111.041 219.547C111.041 220.076 113.446 219.739 113.446 220.1C113.446 220.365 110.102 221.303 109.645 221.688C109.501 221.808 108.972 222.217 109.092 222.337C109.549 222.795 110.632 222.217 111.233 222.53" fill="#3F2719"/>
<path d="M111.618 224.021C110.343 224.864 109.453 226.139 108.755 227.438C106.181 232.129 106.109 236.219 107.961 242.618C108.37 244.062 109.092 245.409 109.741 246.708C110.006 247.237 110.367 247.815 110.463 248.416C110.511 248.705 110.343 249.21 110.463 249.451C110.511 249.571 110.776 249.162 110.8 249.282C110.872 249.836 110.8 250.461 110.752 250.99C110.728 251.183 110.487 251.736 110.632 251.592C110.68 251.544 110.824 251.087 111.016 251.159C111.137 251.207 111.016 254.118 110.968 254.407" stroke="#2D1F04" stroke-width="0.630319" stroke-miterlimit="10" stroke-linecap="round" stroke-linejoin="round"/>
<path d="M111.233 224.19C110.608 224.503 110.223 224.503 109.573 224.695C109.26 224.792 109.02 224.912 108.683 224.96C108.394 225.032 108.081 225.056 107.793 225.128C107.672 225.177 107.408 225.369 107.408 225.249C107.408 224.84 110.728 222.987 111.377 222.771C111.474 222.747 111.618 222.747 111.642 222.65C111.69 222.506 111.401 222.53 111.257 222.482C110.632 222.314 109.14 222.819 108.611 222.434C108.466 222.338 109.597 221.64 109.645 221.616C110.343 221.231 111.017 220.726 111.786 220.509C112.243 220.389 113.158 220.702 113.158 220.245C113.158 219.691 110.656 219.884 110.463 219.691C110.439 219.667 110.535 219.643 110.583 219.643C111.161 219.355 111.786 219.138 112.388 218.994C113.519 218.729 115.563 218.464 116.67 218.825" stroke="#2D1F04" stroke-width="0.630319" stroke-miterlimit="10" stroke-linecap="round" stroke-linejoin="round"/>
<path d="M116.887 219.066C116.55 218.416 115.973 217.334 116.285 216.588C116.309 216.54 116.55 216.275 116.622 216.323C116.839 216.443 117.007 216.828 117.272 216.973C118.354 217.55 119.581 217.959 120.784 218.248C121.506 218.416 122.228 218.464 122.925 218.633C123.094 218.657 123.431 218.681 123.431 218.681C123.431 218.681 122.468 217.815 122.829 217.646C122.901 217.622 129.565 219.042 132.549 220.774" stroke="#2D1F04" stroke-width="0.630319" stroke-miterlimit="10" stroke-linecap="round" stroke-linejoin="round"/>
<path d="M125.62 224.96C136.59 226.043 139.525 234.439 139.525 234.439" stroke="#2D1F04" stroke-width="1.82841" stroke-miterlimit="10" stroke-linecap="round" stroke-linejoin="round"/>
<path d="M117.633 225.777C107.937 226.812 106.109 237.806 106.109 237.806" stroke="#2D1F04" stroke-width="1.82841" stroke-miterlimit="10" stroke-linecap="round" stroke-linejoin="round"/>
<path d="M120.086 238.961C120.062 238.239 121.434 237.614 123.19 237.518C124.946 237.421 126.39 237.927 126.438 238.648C126.462 239.37 125.091 239.996 123.334 240.092C121.554 240.188 120.111 239.683 120.086 238.961Z" fill="#251707"/>
<path d="M130.263 215.144C130.263 215.12 130.287 215.12 130.311 215.12C130.335 215.12 130.359 215.144 130.359 215.144C130.359 215.168 130.335 215.168 130.311 215.168C130.287 215.192 130.263 215.168 130.263 215.144Z" fill="#2D1F04"/>
<path d="M130.744 234.944C130.672 234.944 130.576 234.92 130.504 234.92Z" fill="#2D1F04"/>
<path d="M123.118 240.164C122.877 243.797 126.197 241.487 126.414 245.264" stroke="#2D1F04" stroke-width="0.733768" stroke-miterlimit="10" stroke-linecap="round" stroke-linejoin="round"/>
<path d="M127.448 217.838C127.376 217.766 127.328 217.67 127.256 217.598Z" fill="#9D7B51"/>
<path d="M113.976 232.827C115.588 232.827 116.887 234.126 116.887 235.714V235.907C116.887 237.494 115.588 238.794 113.976 238.794C112.364 238.794 111.065 237.494 111.065 235.907V235.714C111.065 234.102 112.364 232.827 113.976 232.827Z" fill="white"/>
<path d="M113.976 232.827C115.588 232.827 116.887 234.126 116.887 235.714V235.907C116.887 237.494 115.588 238.794 113.976 238.794C112.364 238.794 111.065 237.494 111.065 235.907V235.714C111.065 234.102 112.364 232.827 113.976 232.827Z" stroke="#2D1F04" stroke-width="0.625507" stroke-miterlimit="10" stroke-linecap="round" stroke-linejoin="round"/>
<path d="M132.5 233.332C134.112 233.332 135.411 234.631 135.411 236.219V236.411C135.411 237.999 134.112 239.298 132.5 239.298C130.888 239.298 129.589 237.999 129.589 236.411V236.219C129.589 234.607 130.888 233.332 132.5 233.332Z" fill="white"/>
<path d="M132.5 233.332C134.112 233.332 135.411 234.631 135.411 236.219V236.411C135.411 237.999 134.112 239.298 132.5 239.298C130.888 239.298 129.589 237.999 129.589 236.411V236.219C129.589 234.607 130.888 233.332 132.5 233.332Z" stroke="#2D1F04" stroke-width="0.625507" stroke-miterlimit="10" stroke-linecap="round" stroke-linejoin="round"/>
<path d="M113.35 235.761C113.35 235.352 113.663 235.016 114.048 235.016C114.433 235.016 114.746 235.352 114.746 235.761C114.746 236.17 114.433 236.507 114.048 236.507C113.663 236.483 113.35 236.146 113.35 235.761Z" fill="#2D1F04"/>
<path d="M131.851 236.147C131.851 235.738 132.163 235.401 132.548 235.401C132.933 235.401 133.246 235.738 133.246 236.147C133.246 236.556 132.933 236.893 132.548 236.893C132.188 236.869 131.851 236.532 131.851 236.147Z" fill="#2D1F04"/>
<path d="M134.425 266.099C134.425 265.69 134.738 265.354 135.123 265.354C135.508 265.354 135.82 265.69 135.82 266.099C135.82 266.508 135.508 266.845 135.123 266.845C134.762 266.845 134.425 266.508 134.425 266.099Z" fill="#2D1F04"/>
<path d="M117.175 264.535C117.175 264.126 117.488 263.789 117.873 263.789C118.258 263.789 118.571 264.126 118.571 264.535C118.571 264.944 118.258 265.281 117.873 265.281C117.488 265.257 117.175 264.944 117.175 264.535Z" fill="#2D1F04"/>
<path d="M98.9876 286.717C97.8088 287.896 94.5369 289.412 93.0693 290.711C92.6604 291.072 91.6259 291.962 91.674 292.587C91.698 292.78 91.8424 292.708 91.9386 292.684C93.0934 292.563 94.8256 292.443 95.9804 292.635C97.1111 292.828 101.851 294.175 102.596 293.453C102.933 293.141 102.813 292.611 102.741 292.226C102.428 290.157 101.105 288.81 99.7093 287.343C99.4928 287.126 99.1801 286.525 98.9876 286.717Z" fill="#D2D2D2"/>
<path d="M125.957 289.387L120.183 295.377L119.052 297.639C119.076 297.663 119.557 297.35 119.557 297.35C120.592 296.676 122.637 295.762 123.888 295.497C125.403 295.185 127.111 294.776 128.555 294.295C128.651 294.27 129.18 294.27 129.132 294.078C128.699 292.466 125.957 289.387 125.957 289.387Z" fill="#D2D2D2"/>
<path d="M134.064 282.266C133.992 282.362 134.257 282.169 134.353 282.121C134.786 281.929 135.243 281.977 135.7 281.977C136.494 281.977 139.14 282.651 139.381 283.613C139.453 283.926 137.432 286.644 137.12 287.077C136.446 287.992 136.999 290.253 136.35 290.903C136.326 290.927 135.027 289.603 134.93 289.483C133.896 288.112 133.126 286.741 133.439 284.888C133.535 284.287 133.463 283.637 133.583 283.036C133.607 282.795 134.257 282.001 134.064 282.266Z" fill="#D2D2D2"/>
<path d="M146.358 240.429C137.48 258.04 124.922 258.641 125.066 258.834C125.379 259.243 137.384 258.112 146.598 243.316C147.152 242.402 147.031 239.058 146.358 240.429Z" fill="#689BD4"/>
<path d="M101.61 275.794C97.3998 273.966 97.5922 266.46 98.8432 263.525C102.211 255.634 108.924 250.389 116.502 246.756C120.327 244.928 125.499 243.941 125.499 244.038C125.499 244.182 124.032 244.928 123.839 245.048C122.685 245.626 121.001 246.78 120.736 248.152C120.568 248.946 121.241 250.076 121.025 251.039C120.664 252.53 119.028 253.156 118.186 254.262C117.44 255.249 116.79 256.428 116.237 257.534C113.278 263.38 107.504 278.368 101.61 275.794Z" fill="#CAA77A"/>
<path d="M116.839 247.021C116.502 247.286 117.753 247.767 118.09 248.152C118.595 248.729 118.932 249.884 119.196 250.63C119.413 251.255 119.509 251.953 119.629 252.579C119.653 252.699 119.509 253.324 119.677 253.3C120.062 253.228 120.207 252.843 120.495 252.627C122.588 251.063 120.255 248.272 121.698 246.853C122.083 246.468 125.235 244.664 125.235 244.567C125.235 244.255 123.455 244.591 123.286 244.664C121.169 245.482 118.619 245.65 116.839 247.021Z" fill="#D2D2D2"/>
<path d="M109.814 270.574C110.199 270.574 109.14 272.21 108.851 272.691C108.009 274.11 106.614 274.616 105.507 275.698C105.459 275.746 105.122 275.939 105.122 276.035C105.17 276.348 107.288 276.179 107.6 276.3C109.26 276.901 110.968 278.008 112.003 279.427C112.725 280.414 112.508 281.52 112.58 282.627C112.604 283.132 113.326 283.974 113.495 284.528C113.639 284.937 113.23 285.321 113.326 285.706C113.711 287.294 115.78 290.085 117.272 290.831C118.066 291.24 123.31 291.745 123.455 291.625C125.475 290.133 127.304 288.449 129.301 286.957C129.662 286.693 133.15 285.081 133.198 285.009C133.872 283.854 133.27 282.17 135.099 281.4C136.061 280.991 137.721 281.448 138.779 281.4C141.931 281.232 144.505 279.235 146.262 276.757C146.959 275.746 147.873 275.073 147.801 273.701C147.753 272.571 147.32 271.344 147.488 270.213C147.513 270.069 147.561 270.045 147.416 269.972C146.983 269.828 146.502 270.622 146.237 270.887C145.853 271.272 145.155 271.44 144.65 271.632C142.34 272.523 139.622 273.461 137.144 273.581C136.47 273.605 135.772 274.183 135.075 274.207C133.751 274.279 132.188 274.327 130.913 273.87C130.191 273.605 130.552 272.763 129.998 272.595C127.641 271.825 124.898 271.56 122.42 271.199C120.953 270.983 119.365 270.839 117.921 271.199C116.983 271.416 115.852 271.608 114.986 272.09C114.938 272.114 114.673 272.282 114.625 272.258C114.409 272.066 114.216 271.969 113.855 271.873C112.941 271.632 111.618 271.512 110.8 271.031C110.463 270.839 110.054 270.814 109.693 270.766C109.573 270.742 109.284 270.718 109.381 270.67C109.525 270.598 109.669 270.574 109.814 270.574Z" fill="white"/>
<path d="M116.646 246.949C116.646 247.43 119.605 248.946 119.605 253.204" stroke="#2D1F04" stroke-width="0.630319" stroke-miterlimit="10" stroke-linecap="round" stroke-linejoin="round"/>
<path d="M125.211 244.519C124.08 245.096 119.365 248.32 118.811 249.45Z" fill="#CAA77A"/>
<path d="M125.211 244.519C124.08 245.096 119.365 248.32 118.811 249.45" stroke="#2D1F04" stroke-width="0.630319" stroke-miterlimit="10" stroke-linecap="round" stroke-linejoin="round"/>
<path d="M121.145 249.523C121.049 249.474 119.413 251.062 119.413 251.062Z" fill="#CAA77A"/>
<path d="M121.145 249.523C121.049 249.474 119.413 251.062 119.413 251.062" stroke="#2D1F04" stroke-width="0.630319" stroke-miterlimit="10" stroke-linecap="round" stroke-linejoin="round"/>
<path d="M101.947 275.891C97.7366 274.062 97.9291 266.556 99.1801 263.621C102.548 255.73 109.26 250.486 116.839 246.853C120.664 245.025 125.836 244.038 125.836 244.134C125.836 244.279 124.369 245.025 124.176 245.145C123.022 245.722 121.337 246.877 121.073 248.248C120.928 249.042 121.578 250.173 121.362 251.135C121.001 252.627 119.365 253.252 118.523 254.359C117.777 255.345 117.127 256.524 116.574 257.631C113.639 263.477 107.865 278.441 101.947 275.891Z" stroke="#2D1F04" stroke-width="0.630319" stroke-miterlimit="10" stroke-linecap="round" stroke-linejoin="round"/>
<path d="M102.644 276.131C98.5785 276.131 96.2208 280.341 97.6402 283.926C98.0011 284.816 98.3139 285.658 99.2281 286.115" stroke="#2D1F04" stroke-width="0.630319" stroke-miterlimit="10" stroke-linecap="round" stroke-linejoin="round"/>
<path d="M104.064 285.081C98.771 285.008 90.9762 292.635 91.5055 292.635C99.2281 292.635 105.291 294.704 109.14 292.779C110.728 291.985 111.281 289.483 110.415 287.775" stroke="#2D1F04" stroke-width="0.630319" stroke-miterlimit="10" stroke-linecap="round" stroke-linejoin="round"/>
<path d="M110.872 290.302C112.195 290.302 116.622 290.35 117.873 290.999" stroke="#2D1F04" stroke-width="0.630319" stroke-miterlimit="10" stroke-linecap="round" stroke-linejoin="round"/>
<path d="M133.27 284.768C130.864 285.97 128.94 287.149 126.775 288.785C124.176 290.734 118.282 297.47 118.378 297.566C118.643 297.831 125.187 294.391 130.191 294.078C133.848 293.861 150.087 297.109 154.177 293.332C158.266 289.555 155.788 285.441 153.262 284.551C146.454 282.121 139.549 283.757 139.501 283.877" stroke="#2D1F04" stroke-width="0.630319" stroke-miterlimit="10" stroke-linecap="round" stroke-linejoin="round"/>
<path d="M146.743 242.306C147.296 247.887 176.382 277.551 154.273 284.624" stroke="#2D1F04" stroke-width="0.630319" stroke-miterlimit="10" stroke-linecap="round" stroke-linejoin="round"/>
<path d="M142.364 260.782C146.141 264.559 150.038 271.584 146.31 276.829C144.794 278.97 142.893 280.991 140.247 281.52C138.082 281.953 135.965 280.341 134.04 282.266C132.572 283.734 133.703 287.005 134.569 288.473C134.834 288.906 136.374 290.734 136.374 290.734C136.374 290.734 137.24 284.816 139.405 283.926" stroke="#2D1F04" stroke-width="0.630319" stroke-miterlimit="10" stroke-linecap="round" stroke-linejoin="round"/>
<path d="M118.09 254.96C118.691 255.85 120.736 258.063 124.056 258.954" stroke="#2D1F04" stroke-width="0.630319" stroke-miterlimit="10" stroke-linecap="round" stroke-linejoin="round"/>
<path d="M118.499 254.431C119.1 255.321 121.193 258.112 124.513 258.978" stroke="#2D1F04" stroke-width="0.630319" stroke-miterlimit="10" stroke-linecap="round" stroke-linejoin="round"/>
<path d="M124.946 259.098C124.898 259.098 124.85 259.098 124.802 259.098" stroke="#2D1F04" stroke-width="0.630319" stroke-miterlimit="10" stroke-linecap="round" stroke-linejoin="round"/>
<path d="M124.73 259.242C123.406 258.689 119.822 262.586 121.362 263.26C122.396 263.693 123.96 260.95 124.224 260.036C124.273 259.844 124.489 259.242 124.826 259.435C125.163 259.603 125.139 260.156 125.139 260.445C125.139 261.648 124.994 263.067 125.908 263.957C126.51 264.559 127.376 263.476 127.28 262.875C127.087 261.479 126.029 259.771 124.73 259.242Z" stroke="#2D1F04" stroke-width="0.630319" stroke-miterlimit="10" stroke-linecap="round" stroke-linejoin="round"/>
<path d="M125.042 259.146C124.128 260.614 123.19 266.701 123.767 268.433" stroke="#2D1F04" stroke-width="0.630319" stroke-miterlimit="10" stroke-linecap="round" stroke-linejoin="round"/>
<path d="M124.898 259.459C123.719 261.793 125.74 266.845 127.448 268.553" stroke="#2D1F04" stroke-width="0.630319" stroke-miterlimit="10" stroke-linecap="round" stroke-linejoin="round"/>
<path d="M129.084 273.533C138.106 275.313 146.743 270.694 147.513 269.924" stroke="#2D1F04" stroke-width="0.630319" stroke-miterlimit="10" stroke-linecap="round" stroke-linejoin="round"/>
<path d="M109.838 270.646C110.391 271.079 114.264 271.945 115.251 271.945" stroke="#2D1F04" stroke-width="0.630319" stroke-miterlimit="10" stroke-linecap="round" stroke-linejoin="round"/>
<path d="M130.335 273.316C130.335 273.677 130.431 272.931 130.335 272.787C130.167 272.522 129.71 272.33 129.421 272.258C128.194 271.897 116.622 269.082 114.288 273.172C111.305 278.369 112.749 287.27 116.117 290.085C117.921 291.576 121.193 291.649 123.406 291.649" stroke="#2D1F04" stroke-width="0.630319" stroke-miterlimit="10" stroke-linecap="round" stroke-linejoin="round"/>
<path d="M128.868 273.581C125.187 276.035 125.355 283.806 128.386 287.463" stroke="#2D1F04" stroke-width="0.630319" stroke-miterlimit="10" stroke-linecap="round" stroke-linejoin="round"/>
<path d="M128.386 271.945C117.248 271.031 114.649 290.758 119.894 291.408" stroke="#2D1F04" stroke-width="0.630319" stroke-miterlimit="10" stroke-linecap="round" stroke-linejoin="round"/>
<path d="M127.881 275.073C134.064 276.227 139.453 275.506 142.629 274.567" stroke="#2D1F04" stroke-width="0.630319" stroke-miterlimit="10" stroke-linecap="round" stroke-linejoin="round"/>
<path d="M109.092 272.09C109.068 271.97 110.993 272.812 112.388 273.004" stroke="#2D1F04" stroke-width="0.630319" stroke-miterlimit="10" stroke-linecap="round" stroke-linejoin="round"/>
<path d="M105.002 275.794C108.466 276.275 111.137 277.695 112.532 279.643" stroke="#2D1F04" stroke-width="0.630319" stroke-miterlimit="10" stroke-linecap="round" stroke-linejoin="round"/>
<path d="M134.305 282.098C135.868 281.569 138.611 282.17 139.405 283.758" stroke="#2D1F04" stroke-width="0.630319" stroke-miterlimit="10" stroke-linecap="round" stroke-linejoin="round"/>
<path d="M136.759 282.025C133.751 283.036 135.002 288.425 135.965 290.325" stroke="#2D1F04" stroke-width="0.630319" stroke-miterlimit="10" stroke-linecap="round" stroke-linejoin="round"/>
<path d="M99.1559 286.812C100.696 288.28 102.717 290.566 102.476 293.26" stroke="#2D1F04" stroke-width="0.630319" stroke-miterlimit="10" stroke-linecap="round" stroke-linejoin="round"/>
<path d="M92.1069 292.322C94.0797 290.686 98.0974 288.545 100.768 288.785" stroke="#2D1F04" stroke-width="0.630319" stroke-miterlimit="10" stroke-linecap="round" stroke-linejoin="round"/>
<path d="M92.6364 292.057C95.812 292.346 99.0117 290.806 102.187 291.095" stroke="#2D1F04" stroke-width="0.630319" stroke-miterlimit="10" stroke-linecap="round" stroke-linejoin="round"/>
<path d="M126.269 289.411C127.015 290.758 127.496 292.9 129.493 294.199" stroke="#2D1F04" stroke-width="0.630319" stroke-miterlimit="10" stroke-linecap="round" stroke-linejoin="round"/>
<path d="M119.389 296.773C121.819 294.752 124.248 292.996 127.232 291.817" stroke="#2D1F04" stroke-width="0.630319" stroke-miterlimit="10" stroke-linecap="round" stroke-linejoin="round"/>
<path opacity="0.23" d="M142.821 248.609C167.408 270.429 158.844 280.558 154.898 282.025C150.303 283.758 149.317 282.723 147.176 283.084C146.598 283.18 145.444 283.252 145.444 283.252C145.444 283.252 148.547 282.843 149.317 283.902C152.805 288.858 146.286 291.552 142.412 286.524C141.522 285.369 140.151 283.517 139.044 284.239C137.047 285.538 137.144 290.422 136.205 290.446C135.243 290.47 133.607 286.813 133.294 284.431C129.902 285.658 125.908 288.738 121.097 294.175C121.001 294.295 118.643 297.086 118.956 297.302C119.726 297.807 122.252 296.123 122.973 295.811C125.981 294.536 129.252 293.212 132.428 293.838C133.39 294.03 137.721 294.391 138.755 294.656C142.725 295.642 154.225 296.22 155.452 291.36C155.909 289.531 157.184 288.401 154.056 284.792C153.768 284.455 154.225 284.912 154.225 284.455C154.225 284.263 158.146 282.771 158.579 282.41C161.274 280.101 161.707 277.719 162.356 274.423C163.848 267.013 154.489 254.527 150.279 249.258C148.788 247.382 148.21 245.602 147.152 243.509C147.104 243.388 146.358 243.1 146.237 243.1C145.323 243.148 143.326 248.729 142.821 248.609Z" fill="#3F2719"/>
<path opacity="0.23" d="M98.7229 278.128C98.8192 277.864 98.3861 278.585 98.2658 278.826C98.0012 279.379 98.0253 280.197 98.2177 280.775C98.747 282.338 100.72 283.277 102.235 283.613C105.652 284.359 109.982 279.933 112.364 280.775C113.11 281.039 113.23 284.046 113.495 284.84C115.034 289.459 121.602 289.989 124.273 289.195C126.871 288.425 133.102 285.129 133.294 284.888C134.064 283.926 133.198 282.338 134.714 282.218C140.8 281.785 150.688 280.029 142.436 261.432C142.027 260.518 147.224 267.398 147.344 268.89C147.705 273.846 148.234 276.252 144.313 279.524C143.543 280.149 142.436 281.208 141.354 281.328C138.948 281.593 138.804 281.544 133.872 282.218C132.645 282.386 133.535 284.119 133.222 285.009C133.174 285.153 131.057 285.875 130.72 286.139C130.119 286.645 123.767 291.577 123.599 291.601C120.688 291.913 113.11 289.652 111.017 290.783C109.838 291.432 111.065 292.106 109.333 292.779C106.229 293.982 99.589 292.996 96.3653 292.707C95.6916 292.635 93.1174 292.659 92.7806 292.058C92.2754 291.119 98.338 286.452 99.6612 286.26C99.7574 286.236 98.9395 286.38 98.9395 286.26C99.0116 285.514 98.5786 285.394 98.0974 284.816C96.4855 282.819 97.9531 279.957 98.7229 278.128Z" fill="#3F2719"/>
<path opacity="0.23" d="M129.661 273.509C130.167 273.701 128.843 274.255 128.651 274.736C128.242 275.674 128.266 277.142 128.338 278.152C128.507 280.39 129.806 282.675 131.442 284.143C131.562 284.263 132.332 284.985 132.26 285.129C132.043 285.658 129.036 287.39 128.434 287.174C124.2 285.73 125.259 271.873 129.661 273.509Z" fill="#3F2719"/>
<path opacity="0.23" d="M109.862 270.815C111.233 270.718 112.292 271.633 113.687 272.042C114.288 272.21 115.66 272.282 115.034 272.234C114.096 272.138 112.604 276.18 112.532 276.805C112.46 277.503 112.965 278.922 112.292 278.85C111.931 278.826 107.504 276.156 106.133 275.771C105.964 275.722 105.724 275.722 105.628 275.602C105.315 275.241 107.143 274.135 107.336 273.942C108.274 273.004 108.611 270.911 109.862 270.815Z" fill="#3F2719"/>
<path opacity="0.23" d="M127.472 271.801C118.09 272.956 117.873 288.473 117.681 288.256C117.632 288.184 117.536 286.596 117.416 285.514C116.983 281.4 119.677 274.808 126.005 272.258" fill="#3F2719"/>
<path opacity="0.23" d="M116.526 257.294C108.731 276.059 100.648 273.581 98.747 268.024C98.4102 268 99.0357 271.272 99.0598 271.632C99.4206 274.928 105.195 281.352 112.244 266.652" fill="#3F2719"/>
<path opacity="0.23" d="M125.042 244.735C124.489 244.495 124.08 245.457 123.743 245.89C123.142 246.636 122.589 247.718 122.757 248.777C122.901 249.595 123.503 251.038 123.022 251.832C122.348 252.963 120.977 253.829 120.062 254.719C118.715 256.067 117.801 257.967 117.103 259.699C116.911 260.156 116.454 261.768 115.924 263.525C115.323 265.521 114.601 267.711 114.048 268.721C113.639 269.467 112.989 270.838 112.195 271.223C111.883 271.367 110.247 270.429 110.343 270.189C110.824 268.89 111.859 267.903 112.364 266.628C113.134 264.679 113.831 262.875 114.77 260.998C115.612 259.29 116.454 257.727 117.44 256.091C117.729 255.585 117.825 254.96 118.21 254.503C118.86 253.685 121.289 252.217 121.482 251.447C121.795 250.196 120.52 248.753 121.001 247.574C121.458 246.419 122.613 245.89 123.671 245.433C123.912 245.361 125.283 244.856 125.042 244.735Z" fill="#3F2719"/>
<path d="M146.719 242.738C144.986 246.01 137.552 257.582 124.537 258.953" stroke="#2D1F04" stroke-width="0.630319" stroke-miterlimit="10" stroke-linecap="round" stroke-linejoin="round"/>
<path d="M146.454 240.646C144.722 243.917 138.106 255.61 127.063 258.497" stroke="#2D1F04" stroke-width="0.630319" stroke-miterlimit="10" stroke-linecap="round" stroke-linejoin="round"/>
<path d="M128.555 219.09C129.71 219.475 130.792 219.932 131.827 220.437C137.262 223.114 140.761 227.689 143.008 232M146.743 242.234C146.508 241.37 142.87 236.428 142 234M142 234C141.454 232.476 143.925 233.76 143.008 232M142 234V235.5L143.008 232" stroke="#2D1F04" stroke-width="0.630319" stroke-miterlimit="10" stroke-linecap="round" stroke-linejoin="round"/>
<path opacity="0.23" d="M140.175 267.35C139.116 267.494 138.803 270.261 133.078 269.251C129.685 268.649 129.012 267.567 126.943 267.158C124.441 266.652 123.358 267.037 120.832 267.35C116.141 267.951 115.636 265.666 115.347 267.085C115.058 268.481 123.888 266.893 125.932 267.687C129.204 268.962 132.284 271.247 136.325 270.862C138.587 270.67 142.244 267.061 140.175 267.35Z" fill="#3F2719"/>
<path d="M127.978 277.021C128.699 277.046 129.397 277.046 130.095 277.07C130.672 277.094 130.889 277.455 130.913 277.815C130.961 278.297 130.744 278.657 130.263 278.826C130.239 278.826 130.215 278.85 130.167 278.85C130.744 279.163 130.84 279.764 131.177 280.293C130.768 280.293 130.407 280.293 130.023 280.293C129.854 279.957 129.662 279.62 129.469 279.283C129.373 279.09 129.229 278.946 128.964 279.018C128.964 279.451 128.964 279.86 128.964 280.317C128.603 280.317 128.29 280.317 127.978 280.317C127.978 279.235 127.978 278.152 127.978 277.021ZM128.988 277.719C128.988 277.936 128.988 278.152 128.988 278.393C129.205 278.369 129.421 278.393 129.638 278.345C129.83 278.321 129.926 278.2 129.926 278.032C129.926 277.864 129.83 277.743 129.638 277.719C129.421 277.695 129.205 277.719 128.988 277.719Z" fill="#2D1F04"/>
<path d="M133.992 277.96C133.679 277.984 133.367 278.008 133.054 278.032C133.006 277.767 132.837 277.599 132.573 277.599C132.404 277.599 132.26 277.647 132.188 277.84C132.188 278.008 132.308 278.056 132.428 278.08C132.669 278.152 132.909 278.2 133.15 278.273C133.27 278.321 133.415 278.369 133.535 278.417C134.329 278.778 134.257 279.692 133.703 280.101C133.511 280.245 133.294 280.318 133.054 280.366C132.693 280.438 132.308 280.414 131.947 280.318C131.466 280.197 131.153 279.788 131.153 279.259C131.466 279.235 131.755 279.235 132.067 279.211C132.092 279.283 132.116 279.331 132.116 279.403C132.236 279.716 132.573 279.86 132.861 279.74C133.006 279.692 133.102 279.596 133.102 279.427C133.102 279.283 133.03 279.187 132.885 279.139C132.789 279.091 132.669 279.067 132.549 279.018C132.308 278.946 132.067 278.898 131.851 278.802C131.418 278.633 131.201 278.321 131.201 277.936C131.225 277.527 131.49 277.19 131.947 277.07C132.38 276.949 132.813 276.949 133.246 277.07C133.752 277.214 133.968 277.479 133.992 277.96Z" fill="#2D1F04"/>
</g>
<path d="M91.4999 290L92.0001 280.5L95.5001 274.5L106.5 289L104.39 300.271L91.4999 290Z" fill="#D9D9D9"/>
<path d="M149.9 352.3C142 355.5 134.3 354.4 127.5 360.2C126.3 361.2 122.6 364.5 123.1 366.2C124 369.1 130.2 368.3 132.5 368.4C141.1 368.6 150 369.7 158.6 369.9C160.2 369.9 168.3 370.8 168.5 368.7C169.1 363.2 157.7 359.1 155 356.3" fill="#B6B1AE"/>
<path d="M57.6 350.7C48.8 350.5 38.9 354.4 32.1 359.8C31.4 360.3 26 365.4 26.6 366.2C28 368.2 34.7 366.7 36.7 366.9C45.3 367.8 54.5 366.2 63.3 366.4C64.8 366.4 70.5 367.5 71.4 365.7C72.7 363.2 65.8 359 64.5 358.3" fill="#B6B1AE"/>
<path d="M47.2 330.3C46.2 327.9 40.8 331.8 38.8 333C37.8 333.6 31.3 333.7 31.7 334.8C33.7 341.4 39.2 348.4 44.9 351.4C45.4 351.7 56.1 352.3 56.2 351.7C56.4 350.7 53.2 347 52.7 346.1C49.8 341.6 49.2 335.2 47.2 330.3Z" fill="#B6B1AE"/>
<path d="M98.9 260.9C98.8 260.7 98.6 260.5 98.5 260.2Z" fill="#B6B1AE"/>
<path d="M40.7 67.8999C38.2 67.8999 31.5 80.6999 30.1 83.3999C19 102.8 23.1 125.4 31.9 144.7C34.2 149.7 33.1 151.2 35.4 155.8C36.5 157.9 40.2 162.9 40.2 165.2C40.2 165.7 40.2 166.7 40.2 166.7C40.2 166.7 39.5 163 38.7 161.4C38.4 160.9 37.4 159.9 37.9 159.9C38.2 159.9 38.6 160.7 38.7 160.9C41.1 167 38.4 174.8 40 181.2C41.1 185.6 49.5 190.9 54.2 192.1C71.8 196.5 89.5 191.8 107.1 191.8C111.5 191.8 124.2 193.2 127.9 189.5C131 186.4 132 182.4 134.5 178.9C137.9 174.2 145.8 168.4 151.2 166.2C156.8 163.9 163.9 165.3 169.4 166.7C170.8 167.1 175.1 168.9 176.5 167.5C178.8 165.2 177.1 158.9 176.5 156C175 148.3 175.5 138.5 174 131C173 125.9 171.3 118.4 169.4 113.5C161.9 93.9999 154 78.7999 137.3 66.5999C133.1 63.5999 126.1 58.1999 121.3 55.7999C116.7 53.4999 111.5 53.5999 106.9 51.1999C100.8 48.1999 94.2 44.1999 87.6 42.5999C86 42.1999 88.3 45.0999 88.1 45.3999C87.9 45.7999 83.8 45.7999 83.3 45.6999C77.8 44.5999 72.3 44.6999 67.1 42.3999C66.2 41.9999 63.1 38.7999 62 39.0999C58.9 40.0999 63.5 48.6999 63.5 48.6999C63.5 48.6999 63.1 47.9999 62.7 47.6999C61.2 46.4999 57.8 45.5999 55.9 45.1999C51.8 44.3999 50 46.9999 46.5 47.6999C46 47.7999 41.9 48.8999 41.9 48.9999C41.9 49.8999 48.5 50.8999 48.5 51.7999C48.5 52.5999 47.1 52.2999 46.7 52.2999C44.8 52.5999 33.7 57.1999 34.5 59.5999C34.9 60.6999 40.7 60.6999 41.8 61.3999C42.1 61.5999 42.8 61.6999 42.8 61.6999C42.8 61.6999 38.2 62.3999 36 62.9999C33.2 63.6999 27.4 70.0999 32.5 70.0999" fill="#CAA77A"/>
<path d="M193.7 301.3C192.7 301.6 192.2 311 191.8 314.5C190.9 321.4 191.1 329.5 192 336.3C192.8 343 197 351.5 199.7 357.7C200.7 359.8 200.6 364.5 200 366.8C198.9 371.1 173.5 371 170.1 369.6C170.1 369.6 162.2 359.8 159.7 357.9C157.5 356.3 159.1 356 154.2 353.9C151.1 352.6 147.3 352.6 144.5 349.7C141.8 347 140.3 340.8 137.3 338.8C134.4 336.8 132.1 338.3 122.6 340.3C113.1 342.3 106.2 341.9 97 339.6C95.4 339.2 95.7 342.3 96.5 345.8C97.4 349.7 99 354.1 99.6 355C100.1 355.7 104.5 360.8 103.3 362C100.9 364.4 83.7 366.8 80.8 366.8C77.6 366.8 74.6 365.4 71.4 366C70.7 366.1 69.2 366 69.2 366C69.2 366 70.9 366.7 70.7 366.2C70.4 365.2 68.4 363.6 67.7 362.7C65.2 359.4 61.2 354.8 58.4 351.9C56 349.5 55.3 347.3 53.8 344.3C51.6 339.8 50.1 334.3 48.8 329.4C48.5 328.3 48.2 330.4 47.6 329.4C45.1 325.7 36 339.4 30.7 334.1C28.2 331.6 24.6 326.2 24 323.2C22.5 315.8 22 307.1 22 299.3C22 298 21.5 291.7 22.2 291.1C23.8 289.9 27 290.6 28.9 290.6C35.0001 292.4 39.2001 292.8 45.5001 294.5C49.7001 295.6 54.4 295.6 58.7 296C65.5 296.7 72.3 294.9 79.1 295.5C85.6 296 91.2 297.1 96.8 296C98.1 295.7 105.1 303.3 106 302.4C107 301.4 104.2 288.6 106.3 288.1C110 287.2 113 290.8 116.5 291.5C125.1 293.2 134.7 293.8 142.6 289C146.1 286.9 149.7 283.7 151.1 280.3C152.6 276.5 152.4 273.3 153.8 269.4C155.6 264.5 153.4 257.3 152.4 252.3C151.8 249.1 148.9 240.6 150.5 237.3C153.3 231.7 170.9 228 177 226.5C182.5 225.2 192.4 225.1 198 226.5C204.9 228.2 202.6 227.6 203.8 232.4C207.8 248.4 207 264.8 199.5 281.5C197.5 285.9 196.4 289.5 192.5 292.4C191.6 293.1 187.3 298.3 187.1 298.7C186.7 299.4 193.5 292.3 193.7 292.4C198.2 293.9 193.2 302.7 191.8 307.3" fill="#CAA77A"/>
<path d="M28.6 107.2C30.7 98.6002 36 88.8002 43.8 87.4002C52.9 85.7002 60.4 93.0002 69.2 92.7002C70.8 92.6002 74 91.7002 75 90.2002C75.9 88.9002 75 87.0002 75 87.0002C76.4 87.4002 77.8 89.4002 79.5 89.9002C86.1 91.8002 92.9 86.0002 98.9 84.2002C118.8 78.2002 134.3 80.3002 144.9 99.5002C147.3 103.8 150.9 113.7 148.5 124.7C144.9 140.8 143 147.5 125.6 159.5C104.9 173.8 62 180.9 40.6 153.9C30.4 141.3 24.6 123.4 28.6 107.2Z" fill="#FFDBAF"/>
<path d="M68.7 114.6C61.5 111 55.6 129.2 56.2 134.5C58.2 152.5 84.5 151.5 96.6 145.4C114.2 136.6 92.7 108.3 80.1 113.3" fill="#9D7B51"/>
<path d="M28.6 107.3C24.7 114.4 29.1 135.8 32.1 138C34.4 139.7 50.2 127.8 54.7 120.2C55.9 118.2 62 105.3 59.7 103C58.4 101.7 41.4 104.1 38.8 104.6C35.3 105.4 30.2 104.3 28.6 107.3Z" fill="#9D7B51"/>
<path d="M94.7 104C95.6 133.3 138.5 148.9 143.6 141.6C146.8 136.9 153.2 115 144.8 100.2C144 98.7997 134.6 101.9 133.1 102.1C120.5 104.1 94.3 91.1997 94.7 104Z" fill="#9D7B51"/>
<path d="M46.7 302.1V308.1" stroke="#9D7B51" stroke-width="4.1072" stroke-miterlimit="10" stroke-linecap="round" stroke-linejoin="round"/>
<path d="M53.2 305.7V311.6" stroke="#9D7B51" stroke-width="4.1072" stroke-miterlimit="10" stroke-linecap="round" stroke-linejoin="round"/>
<path d="M59.3 309.6V315.6" stroke="#9D7B51" stroke-width="4.1072" stroke-miterlimit="10" stroke-linecap="round" stroke-linejoin="round"/>
<path d="M176.2 239.7V245.7" stroke="#9D7B51" stroke-width="4.1072" stroke-miterlimit="10" stroke-linecap="round" stroke-linejoin="round"/>
<path d="M183.2 241.8V247.8" stroke="#9D7B51" stroke-width="4.1072" stroke-miterlimit="10" stroke-linecap="round" stroke-linejoin="round"/>
<path d="M49.7 171.6L49.6 177.5" stroke="#9D7B51" stroke-width="4.1072" stroke-miterlimit="10" stroke-linecap="round" stroke-linejoin="round"/>
<path d="M55.5 174.6V180.6" stroke="#9D7B51" stroke-width="4.1072" stroke-miterlimit="10" stroke-linecap="round" stroke-linejoin="round"/>
<path d="M108.1 105.2C108.1 107.9 108.6 109.7 109.5 110.9C112.2 114.4 118.3 112.5 124.4 111.4C131 110.3 132.5 106.2 133.7 103.7" fill="white"/>
<path d="M29.6 103.7C24 118.3 47.2 116.8 51.5 105.7Z" fill="white"/>
<path opacity="0.23" d="M28.0001 69.0494C32.2254 69.0494 35.7628 67.8631 39.8898 66.9733C41.069 66.6767 43.4273 65.4903 43.4273 66.5778C43.4273 66.8744 42.936 66.7755 42.7394 66.9733C39.202 69.0494 36.3524 72.1143 34.3871 75.7723C33.6993 77.0575 31.8323 80.5178 32.3236 79.628C48.1439 50.5616 164.29 39.6865 157.608 157.633C157.51 158.72 156.233 160.5 157.215 160.796C159.279 161.488 162.62 159.511 165.273 160.401C166.452 160.796 174.903 165.542 175.787 164.949C177.261 163.96 179.5 166 176.475 156.545C182.371 116.801 136.777 63.513 132.846 61.338C117.812 52.9344 87.0558 43.5422 86.368 43.4433C86.2697 43.4433 83.5184 45.124 82.1427 44.8275C77.1313 43.9377 71.4321 42.0592 66.4207 40.5762C65.6346 40.3785 61.0163 36.7205 60.8197 37.0171C60.2302 38.2035 59.9354 44.5309 60.4267 45.4206C60.8197 46.1127 63.2763 45.0252 62.4902 45.0252C56.0049 45.0252 47.8491 47.1014 40.8725 48.5843C40.5777 48.6832 40.1846 48.6832 40.1846 48.9798C40.1846 50.9571 49.2248 49.6719 49.2248 51.056C49.2248 52.0446 36.6472 55.6038 34.8784 56.9879C34.3871 57.3833 32.3236 58.9652 32.8149 59.4595C34.4854 61.1402 38.6124 59.0641 40.8725 60.1516" fill="#3F2719"/>
<path opacity="0.23" d="M177.5 308C165.7 312.5 183.7 361.5 180.9 361.2C148 358.6 127.9 366 127.9 367.2C127.9 368.3 133.6 368 134.7 368.3C141.3 370 157.8 371.2 164.6 370.8C177.1 370 180.9 369.7 193.4 369.7C195 369.7 196.8 369.8 198.1 368.9C203.3 365.4 193.3 348.9 192.7 343.7C191.7 335.4 191.6 321.6 192.7 313.5C193.1 310.9 195 296 194.5 293.5C193.5 288.4 179 307.4 177.5 308Z" fill="#3F2719"/>
<path opacity="0.23" d="M146.1 167.5C145.4 167.8 144.6 168.1 144 168.6C142.9 169.3 146.6 168.2 147.9 168.2C150.9 168.2 206.1 193.7 187.9 271.6C182.3 295.7 158.6 305.8 142.1 306.1C127.2 306.4 113.1 301.3 107.1 297.4C106.9 297.3 107.2 303 107.4 303.1C108.8 303.6 121.6 310.8 135.2 312.3C139.4 312.8 143.3 311.5 147.5 311.8C158.9 312.6 162 311.8 172.8 308.5C176.7 307.3 180.8 302.9 184.1 300.9C190.8 296.8 196.1 290.8 199.7 281.6C201.7 276.3 204 271.1 204.8 265.9C206.8 253 206.6 241.3 203.5 229C201.9 222.8 206.3 234.1 205 225.5C198.5 183.1 183.2 150.5 146.1 167.5Z" fill="#3F2719"/>
<path opacity="0.23" d="M50.8 325.7C49.1 324.1 48.5 332.9 48.5 333.7C49 340.5 52 346.3 56.1 351.7C56.3 351.9 55.3 350.1 55.2 350.3C54.9 351.1 50.5 352.9 49.7 353.1C47.2 353.6 23.7 362.4 26.9 367.3C27 367.4 51.2 366.9 53.2 366.9C66.4 366.9 76.6 366.9 89.8 366.9C91.7 366.9 101.3 364.1 102.4 362.5C103.9 360.3 99.1 352.4 98.4 350.5C98 349.5 96.1 340 95.9 339.9C91.7 337.1 82.5 338.2 77.8 337C70.2 335.1 56.5 331.2 50.8 325.7Z" fill="#3F2719"/>
<path opacity="0.23" d="M23.8 289.9C25.1 293.4 24.7 298.9 25.8 301.2C27.6 304.9 27.2 299.8 30.3 302.6C31.9 304.1 32.1 315.9 35.3 314.9C38.9 313.8 49.3 325 50.9 324.5C51.4 324.3 49.6 327.3 50.2 327C50.9 326.6 49 326.9 49.2 327.7C49.4 329.4 48.4 333 48.9 334.7C49.3 336.5 56.2 350.6 55.7 350.7C48.9 352.4 43.3 350.2 41.4 348.2C30.3 337.1 21.7 318.6 23.2 301.5C23.3 299.4 23.1 288 23.8 289.9Z" fill="#3F2719"/>
<path opacity="0.23" d="M21.5 248.3C20.1 251.3 26.1 241.2 28.1 239.9C32.4 237.2 38.9 237.1 43.7 237.1C56.1 237.1 66.3 248.8 79.6 248.8C83 248.8 92.9 246.9 89.9 241C88.3 237.7 80.5 238.5 77.5 238.5C64.8 238.5 53.3 237 40.9 234.9C37.9 234.4 30.8 234.4 28.3 229.9C27.7 228.7 25.5 238.3 25 239.1C22 243.5 23.9 243.1 21.5 248.3Z" fill="#3F2719"/>
<path opacity="0.23" d="M147.4 334.8C146.4 333.6 159.8 323.9 156.4 325C73.6 351.5 40.1 314 39.2 315.2C38.9 315.6 43.8 319.5 44.1 319.9C49.4 325.7 54.5 328.7 61.6 332.3C100.2 351.5 148.7 336.3 147.4 334.8Z" fill="#3F2719"/>
<path d="M42.0001 66C38.8303 69.222 36.9153 74.5585 34.8021 79.1902C24.3024 101.845 29.8494 130.642 37.3115 153.398C37.9719 155.411 38.8964 157.727 39.0945 159.942C39.2266 161.05 38.7643 162.963 39.0945 163.97C39.2266 164.373 39.8869 162.862 39.9529 163.366C40.1511 165.48 39.9529 167.897 39.8209 169.911C39.7548 170.716 39.1605 172.83 39.5567 172.226C39.6888 172.025 40.019 170.313 40.5473 170.515C40.8114 170.615 40.5473 181.892 40.4152 183" stroke="#2D1F04" stroke-width="2.7806" stroke-miterlimit="10" stroke-linecap="round" stroke-linejoin="round"/>
<path d="M40.8 67.3002C38.4 68.5002 36.9 68.5002 34.5 69.2002C33.3 69.5002 32.3 70.0002 31.1 70.3002C30 70.5002 28.8 70.6002 27.7 70.9002C27.2 71.0002 26.2 71.8002 26.2 71.3002C26.2 69.7002 38.9 62.6002 41.4 61.8002C41.8 61.7002 42.3 61.7002 42.5 61.4002C42.7 60.9002 41.5 60.9002 41 60.8002C38.6 60.2002 32.9 62.1002 30.9 60.6002C30.4 60.2002 34.7 57.6002 34.9 57.4002C37.5 55.9002 40.2 54.0002 43.1 53.2002C44.8 52.7002 48.4 53.9002 48.4 52.1002C48.4 50.0002 38.8 50.7002 38.1 50.0002C38 49.9002 38.4 49.9002 38.5 49.8002C40.7 48.7002 43.1 47.8002 45.4 47.3002C49.8 46.3002 57.5 45.2002 61.8 46.7002" stroke="#2D1F04" stroke-width="2.7806" stroke-miterlimit="10" stroke-linecap="round" stroke-linejoin="round"/>
<path d="M62.5 47.6998C61.3 45.1998 59 41.0998 60.2 38.1998C60.3 37.9998 61.2 36.9998 61.5 37.0998C62.4 37.4998 63 39.0998 64 39.5998C68.2 41.7998 72.8 43.3998 77.5 44.3998C80.2 44.9998 83 45.2998 85.7 45.8998C86.3 45.9998 87.6 46.0998 87.6 46.0998C87.6 46.0998 83.9 42.7998 85.3 42.0998C85.5 41.9998 96.1 45.8998 97.1 46.2998C104.7 49.1998 112.3 50.9998 119.5 54.4998" stroke="#2D1F04" stroke-width="2.7806" stroke-miterlimit="10" stroke-linecap="round" stroke-linejoin="round"/>
<path d="M24.1 290.9C23.9 298.3 27.8 305.6 27.8 305.6C27.8 305.6 29.4 300.8 30.2 302.1C31.1 303.6 34.6 316.6 36.9 315.9C37 315.9 36.9 312.4 37.1 312.6C37.9 313 42.6 319.3 44.2 320.5C49.9 324.8 56.7 328.4 63.3 331.3C87.8 342 124.2 346.3 148.6 334.1" stroke="#2D1F04" stroke-width="2.7806" stroke-miterlimit="10" stroke-linecap="round" stroke-linejoin="round"/>
<path d="M48.6 323.7C46.3 330.8 51.8 345.9 57.4 351.4" stroke="#2D1F04" stroke-width="2.7806" stroke-miterlimit="10" stroke-linecap="round" stroke-linejoin="round"/>
<path d="M96.2 340.8C96.4 345.8 98.4 356.5 102.5 360.5" stroke="#2D1F04" stroke-width="2.7806" stroke-miterlimit="10" stroke-linecap="round" stroke-linejoin="round"/>
<path d="M56.5 351.2C43.6 350.8 28.8 362.9 27.8 364" stroke="#2D1F04" stroke-width="2.7806" stroke-miterlimit="10" stroke-linecap="round" stroke-linejoin="round"/>
<path d="M69.1 366.9C74.5 366.9 81 366.5 86.4 366.3C89.6 366.2 103.9 365.7 103.1 361.4" stroke="#2D1F04" stroke-width="2.7806" stroke-miterlimit="10" stroke-linecap="round" stroke-linejoin="round"/>
<path d="M136.9 338.9C139.6 345 143.8 350.3 150.3 352.5" stroke="#2D1F04" stroke-width="2.7806" stroke-miterlimit="10" stroke-linecap="round" stroke-linejoin="round"/>
<path d="M196.6 290.5C189.1 305.6 191.7 336.9 196.6 351.9C198 356.3 204.5 367.1 196.9 369.1" stroke="#2D1F04" stroke-width="2.7806" stroke-miterlimit="10" stroke-linecap="round" stroke-linejoin="round"/>
<path d="M149.5 352C131.3 355.2 124.2 361.6 119.9 367" stroke="#2D1F04" stroke-width="2.7806" stroke-miterlimit="10" stroke-linecap="round" stroke-linejoin="round"/>
<path d="M120 367.3C121.9 368.9 195.4 371.2 197.1 369" stroke="#2D1F04" stroke-width="2.7806" stroke-miterlimit="10" stroke-linecap="round" stroke-linejoin="round"/>
<path d="M97.7 273.4C95.4 282.9 110.5 291.7 118.6 293C142 296.7 156.7 285.4 153.2 259.2C152.4 253.4 151.5 243.9 148.4 238.8" stroke="#2D1F04" stroke-width="2.7806" stroke-miterlimit="10" stroke-linecap="round" stroke-linejoin="round"/>
<path d="M97.2 271.8C86.3 284.6 90.2 292.2 103 300.2" stroke="#2D1F04" stroke-width="2.7806" stroke-miterlimit="10" stroke-linecap="round" stroke-linejoin="round"/>
<path d="M100.5 298.6C105.9 302.8 160.8 333.1 194.9 290.6C208.2 274 207.8 254.2 203.1 228.5" stroke="#2D1F04" stroke-width="2.7806" stroke-miterlimit="10" stroke-linecap="round" stroke-linejoin="round"/>
<path d="M104 53C155.187 70.0093 177 120.746 177 157" stroke="#2D1F04" stroke-width="2.7806" stroke-miterlimit="10" stroke-linecap="round" stroke-linejoin="round"/>
<path d="M23.3 290.7C23.3 310.3 21.7 323.8 33.8 340.6C36.8 344.8 43.2 352.2 49.1 352.2" stroke="#2D1F04" stroke-width="2.7806" stroke-miterlimit="10" stroke-linecap="round" stroke-linejoin="round"/>
<path d="M30.9 333.9C38.3 335.1 41.9 331.1 48 328.1" stroke="#2D1F04" stroke-width="2.7806" stroke-miterlimit="10" stroke-linecap="round" stroke-linejoin="round"/>
<path d="M38.6 333.2C38.6 338.6 48.9 349.6 54.9 349.6" stroke="#2D1F04" stroke-width="2.7806" stroke-miterlimit="10" stroke-linecap="round" stroke-linejoin="round"/>
<path d="M106.2 288.5C104.2 293.4 105.9 296.8 105.9 301.2" stroke="#2D1F04" stroke-width="2.7806" stroke-miterlimit="10" stroke-linecap="round" stroke-linejoin="round"/>
<path d="M92 280.4C92 288.1 98.8 292.8 104.7 295.7" stroke="#2D1F04" stroke-width="2.7806" stroke-miterlimit="10" stroke-linecap="round" stroke-linejoin="round"/>
<path d="M57.8 351.6C63.2 355.2 67.7 359.4 70.5 365.2" stroke="#2D1F04" stroke-width="2.7806" stroke-miterlimit="10" stroke-linecap="round" stroke-linejoin="round"/>
<path d="M150.1 352.2C158.2 355.5 165.3 361.5 169.2 369.3" stroke="#2D1F04" stroke-width="2.7806" stroke-miterlimit="10" stroke-linecap="round" stroke-linejoin="round"/>
<path d="M26.5 367.3C31.6 368.5 73.7 366.3 76.1 366.7Z" fill="black"/>
<path d="M26.5 367.3C31.6 368.5 73.7 366.3 76.1 366.7" stroke="#2D1F04" stroke-width="2.7806" stroke-miterlimit="10" stroke-linejoin="round"/>
<path d="M28.2 363.5L27.6 363.8L26.6 365.2L26.1 366.3L26.5 367.3" fill="black"/>
<path d="M28.2 363.5L27.6 363.8L26.6 365.2L26.1 366.3L26.5 367.3" stroke="#2D1F04" stroke-width="2.7806" stroke-miterlimit="10" stroke-linejoin="round"/>
<path d="M26.9 367.2C31.9 363.1 54.3 354.7 62.7 356.2" stroke="#2D1F04" stroke-width="2.7806" stroke-miterlimit="10" stroke-linecap="round" stroke-linejoin="round"/>
<path d="M121.9 367.1C129.6 363.2 139.1 360.4 148.4 359.3C152.5 358.8 156.5 358.6 160.3 358.8" stroke="#2D1F04" stroke-width="2.7806" stroke-miterlimit="10" stroke-linecap="round" stroke-linejoin="round"/>
<path d="M40.2 184.6C81.4 196.4 123.3 188 127.9 185.7" stroke="#2D1F04" stroke-width="2.7806" stroke-miterlimit="10" stroke-linecap="round" stroke-linejoin="round"/>
<path d="M40.2 184.7C40.7 182 37.3 186.8 36.7 188.2C35.8 190.2 37.8 192 37.7 193C37.6 194.2 35.7 197 35.2 198.3C31.5 208.3 22.6 221.1 28.1 231.9" stroke="#2D1F04" stroke-width="2.7806" stroke-miterlimit="10" stroke-linecap="round" stroke-linejoin="round"/>
<path d="M14.5 285.9C32.1 296.3 70.7 298.6 96.1 295.6" stroke="#2D1F04" stroke-width="2.7806" stroke-miterlimit="10" stroke-linecap="round" stroke-linejoin="round"/>
<path d="M13.8 285.4C11.9 273.4 16.4 258.1 20.8 247C22.6 242.4 26 237.9 27.5 233.2" stroke="#2D1F04" stroke-width="2.7806" stroke-miterlimit="10" stroke-linecap="round" stroke-linejoin="round"/>
<path d="M177 158C177.524 159.31 178.286 161.214 179 163" stroke="#2D1F04" stroke-width="2.7806" stroke-miterlimit="10" stroke-linecap="round" stroke-linejoin="round"/>
<path d="M200.9 228C206.6 229.9 204 222.3 203.6 219.4" stroke="#2D1F04" stroke-width="2.7806" stroke-miterlimit="10" stroke-linecap="round" stroke-linejoin="round"/>
<path d="M186.3 172.6C188.2 175.3 190 178.2 191.7 181C197.3 190.5 202.7 212.9 204.2 224.7" stroke="#2D1F04" stroke-width="2.7806" stroke-miterlimit="10" stroke-linecap="round" stroke-linejoin="round"/>
<path d="M148.7 239.1C141.5 240.1 141.9 236.5 142.2 230.6" stroke="#2D1F04" stroke-width="2.7806" stroke-miterlimit="10" stroke-linecap="round" stroke-linejoin="round"/>
<path d="M126.2 202.7C131.1 207.2 136.7 213.6 138.9 220.1C140 223.4 140.7 228 142.2 231.1" stroke="#2D1F04" stroke-width="2.7806" stroke-miterlimit="10" stroke-linecap="round" stroke-linejoin="round"/>
<path d="M135.3 213.2C134.8 209.4 134.3 204.6 132.7 201.3" stroke="#2D1F04" stroke-width="2.7806" stroke-miterlimit="10" stroke-linecap="round" stroke-linejoin="round"/>
<path d="M169.8 162.6C143.2 156.5 126.4 185.7 127.8 186.8" stroke="#2D1F04" stroke-width="2.7806" stroke-miterlimit="10" stroke-linecap="round" stroke-linejoin="round"/>
<path d="M187.3 174C182.3 167.6 178.2 165.2 170.1 162.7" stroke="#2D1F04" stroke-width="2.7806" stroke-miterlimit="10" stroke-linecap="round" stroke-linejoin="round"/>
<path d="M179 163C179.2 164.4 179 165.7 179.2 167.1" stroke="#2D1F04" stroke-width="2.7806" stroke-miterlimit="10" stroke-linecap="round" stroke-linejoin="round"/>
<path d="M92.1 101.8L148.6 100.8" stroke="#2D1F04" stroke-width="8.0658" stroke-miterlimit="10" stroke-linecap="round" stroke-linejoin="round"/>
<path d="M65.0001 103L48.908 103.375L22.0001 104" stroke="#2D1F04" stroke-width="8.0658" stroke-miterlimit="10" stroke-linecap="round" stroke-linejoin="round"/>
<path d="M105.9 105.7C110.1 118.3 132 114.3 132.4 104.1" stroke="#2D1F04" stroke-width="3.2369" stroke-miterlimit="10" stroke-linecap="round" stroke-linejoin="round"/>
<path d="M28.8 107.6C27 116.6 51.8 117.3 51.8 106" stroke="#2D1F04" stroke-width="3.2369" stroke-miterlimit="10" stroke-linecap="round" stroke-linejoin="round"/>
<path d="M64.3 114.6C64.2 111.9 69.5 109.4 76.2 109.099C82.9 108.799 88.5 110.7 88.6 113.4C88.7 116.1 83.4 118.6 76.7 118.9C70 119.3 64.5 117.3 64.3 114.6Z" fill="#251707"/>
<path d="M121.7 103.7C121.9 103.5 122.2 103.4 122.4 103.2" stroke="#2D1F04" stroke-width="3.2369" stroke-miterlimit="10" stroke-linecap="round" stroke-linejoin="round"/>
<path d="M76.5 119.8C76.5 129.9 82.2 118 90.2 122" stroke="#2D1F04" stroke-width="3.2369" stroke-miterlimit="10" stroke-linecap="round" stroke-linejoin="round"/>
<path d="M143.2 230.9C153 221.8 170.1 214.3 186.3 217.1" stroke="#2D1F04" stroke-width="2.7806" stroke-miterlimit="10" stroke-linecap="round" stroke-linejoin="round"/>
<path d="M109.6 197.9C97.9 202 52.5 201.7 38.2 192.3" stroke="#2D1F04" stroke-width="2.7806" stroke-miterlimit="10" stroke-linecap="round" stroke-linejoin="round"/>
<path d="M46.6 186.7C46 188.4 45.4 189.7 45.4 191.6" stroke="#2D1F04" stroke-width="2.7806" stroke-miterlimit="10" stroke-linecap="round" stroke-linejoin="round"/>
<path d="M57.1 188.8C56.3 190.4 56.2 192.4 56.2 194.2" stroke="#2D1F04" stroke-width="2.7806" stroke-miterlimit="10" stroke-linecap="round" stroke-linejoin="round"/>
<path d="M69.7 190.4L69 194.6" stroke="#2D1F04" stroke-width="2.7806" stroke-miterlimit="10" stroke-linecap="round" stroke-linejoin="round"/>
<path d="M78.6 191.6V192.3V192.8V193.5V193.9V194.4V194.9" stroke="#2D1F04" stroke-width="2.7806" stroke-miterlimit="10" stroke-linecap="round" stroke-linejoin="round"/>
<path d="M150.9 225.9C151.4 227.5 152.1 228.6 153 230.1" stroke="#2D1F04" stroke-width="2.7806" stroke-miterlimit="10" stroke-linecap="round" stroke-linejoin="round"/>
<path d="M159.8 221.7L161.4 225.4" stroke="#2D1F04" stroke-width="2.7806" stroke-miterlimit="10" stroke-linecap="round" stroke-linejoin="round"/>
<path d="M168.4 218.7L169.1 222.6" stroke="#2D1F04" stroke-width="2.7806" stroke-miterlimit="10" stroke-linecap="round" stroke-linejoin="round"/>
<path d="M73.7 191.8V192.3V192.8V193.2V193.7V194.2" stroke="#2D1F04" stroke-width="2.7806" stroke-miterlimit="10" stroke-linecap="round" stroke-linejoin="round"/>
<path d="M108.5 190.4V190.9V191.4V192.3V192.8" stroke="#2D1F04" stroke-width="2.7806" stroke-miterlimit="10" stroke-linecap="round" stroke-linejoin="round"/>
<path d="M112 190.4V191.1V191.8V192.3" stroke="#2D1F04" stroke-width="2.7806" stroke-miterlimit="10" stroke-linecap="round" stroke-linejoin="round"/>
<path d="M40.3 106.3C40.3 104.1 42.1 102.3 44.3 102.3C46.5 102.3 48.3 104.1 48.3 106.3C48.3 108.5 46.5 110.3 44.3 110.3C42.1 110.3 40.3 108.5 40.3 106.3Z" fill="#2D1F04"/>
<path d="M121 104C121 101.8 122.8 100 125 100C127.2 100 129 101.8 129 104C129 106.2 127.2 108 125 108C122.8 108 121 106.2 121 104Z" fill="#2D1F04"/>
<path d="M115.5 108.4C115.2 108.4 114.9 108.3 114.6 108.3Z" fill="#2D1F04"/>
<path d="M45.8 223.8C53 224 59.1 224.1 64.9 224.4C69.6 224.7 70.6 228.1 69.6 231.3C68.2 235.7 64.6 238.7 59.6 240.1C59.3 240.2 59.1 240.2 58.5 240.3C62.3 243.2 60.7 248.9 63.6 254.1C59.9 253.9 56.6 253.6 53.1 253.4C51.4 250.1 50.6 246.8 50.3 243.7C50.1 242 49.6 240.7 46.7 241.2C44.6 244.9 43 248.7 43.2 253C39.9 252.9 36.8 252.8 33.5 252.8C34.1 241.9 42.8 234.1 45.8 223.8ZM53.4 230C52.5 231.9 51.5 233.7 50.2 235.8C52.3 235.7 54.2 235.8 56.2 235.6C58 235.4 59.4 234.4 60.2 233C61 231.5 60.6 230.3 59 230.1C57.2 229.9 55.3 230 53.4 230Z" fill="#2D1F04"/>
<path d="M96.4 233C93.2 233.2 90.3 233.3 87.4 233.5C87.8 230.9 86.7 229.6 84.4 229.5C82.9 229.4 81.5 229.9 80.4 231.7C80 233.2 80.7 233.7 81.7 234C83.6 234.6 85.5 235.2 87.4 235.8C88.5 236.2 89.5 236.6 90.5 237.2C96.8 240.6 93.4 249.4 87.3 253.4C85.3 254.7 82.9 255.5 80.8 255.8C77.3 256.3 73.9 256 70.6 254.8C66.3 253.3 63.8 249.2 65.7 244.3C68.5 244.3 71.2 244.3 74.2 244.2C74.2 244.8 74.1 245.4 74.1 245.9C74.2 248.9 77 250.4 80.2 249.4C81.6 248.9 82.8 248 83.3 246.6C83.7 245.3 83.3 244.3 82.3 243.8C81.4 243.3 80.5 243 79.6 242.7C77.7 242 75.8 241.4 74.1 240.5C71 238.7 70.6 235.9 72.1 232.6C73.8 228.9 76.7 225.9 80.6 224.8C84.3 223.7 88 223.7 91.8 225C95.6 225.9 97.3 228.4 96.4 233Z" fill="#2D1F04"/>
<g clip-path="url(#clip2_291_4374)">
<path d="M9.09543 41.9422L7.72551 42.1776L7.98812 43.5425L16.0914 85.6617C13.0044 88.6174 11.3959 93.0079 12.2767 97.5862L15.6773 115.262C17.0738 122.521 24.1187 127.395 31.4036 126.143L37.3169 125.127L38.6869 124.892L38.4243 123.527L30.4894 82.2832L30.2268 80.9182L28.8569 81.1536L24.3135 81.9343L16.6413 42.0557L16.3787 40.6907L15.0088 40.9261L9.09543 41.9422Z" fill="#BEBEBE" stroke="#2D1F04" stroke-width="2.78"/>
<path d="M31.7227 28.4641L32.2548 27.954L32.1142 27.2235C31.3435 23.2173 27.4556 20.5272 23.4348 21.2181L11.6081 23.2503C4.32322 24.5021 -0.455232 31.4082 0.941233 38.6668L1.05001 39.2321L1.52816 39.563L8.57504 44.4388L9.0532 44.7697L9.62064 44.6722L15.534 43.6561L15.9488 43.5848L16.2498 43.2963L31.7227 28.4641Z" fill="#2D1F04" stroke="black" stroke-width="2.78"/>
<path d="M155.247 60.7077L155.246 60.7031C155.238 60.6738 155.226 60.6322 155.211 60.5787C155.181 60.4718 155.137 60.3171 155.077 60.1183C154.957 59.7208 154.775 59.1464 154.522 58.4234C154.016 56.9778 153.225 54.9355 152.08 52.5225C149.791 47.7005 146.073 41.3735 140.356 35.3705C128.863 23.3024 109.428 12.6981 77.7955 17.9636L77.7812 17.9661C46.212 23.5606 31.9702 39.9517 25.7079 55.0707C22.5929 62.5913 21.4696 69.7502 21.1231 75.025C20.9497 77.6647 20.9704 79.8393 21.0351 81.3607C21.0675 82.1216 21.111 82.7197 21.1469 83.1317C21.1648 83.3377 21.1809 83.4973 21.1927 83.6074C21.1986 83.6624 21.2035 83.7051 21.207 83.7351L21.2075 83.7398L26.9906 174.008C27.031 174.638 27.4943 175.169 28.1177 175.301L91.7853 188.707C91.9595 188.744 92.1385 188.748 92.3128 188.718L110.053 185.669L127.793 182.621C127.967 182.591 128.133 182.528 128.283 182.436L182.882 148.707C183.417 148.377 183.652 147.726 183.456 147.123L155.247 60.7077Z" fill="#FFDB1F" stroke="#2D1F04" stroke-width="2.78" stroke-linejoin="round"/>
<path opacity="0.25" fill-rule="evenodd" clip-rule="evenodd" d="M64.8453 53.0148C66.9189 50.2664 67.42 46.9969 66.6304 44.004C60.9525 50.689 50.8229 52.4296 43.0244 48.0603C43.4 51.1243 45.0987 54.0158 48.0514 55.9005C53.5034 59.3765 61.037 58.082 64.8453 53.0148Z" fill="white"/>
<path opacity="0.5" fill-rule="evenodd" clip-rule="evenodd" d="M163.319 89.9029L94.0063 102.276L24.5271 113.752L28.3799 173.945C30.1335 144.226 40.9034 135.273 51.1453 133.513C67.478 130.706 85.3698 152.642 92.0475 187.352L109.787 184.303L127.527 181.255C120.85 146.546 129.432 120.061 145.759 117.255C156.007 115.494 169.422 120.292 182.127 147.526L163.319 89.9029Z" fill="#FFDB1F"/>
<path d="M155.235 60.6708L154.854 59.5031L153.646 59.7106L87.9902 70.9923L22.3345 82.274L21.1268 82.4815L21.205 83.7013L23.1407 113.894L23.2375 115.403L24.742 115.204C36.2097 113.689 49.8074 117.036 61.9783 128.086C74.1618 139.147 84.9881 158.001 90.6803 187.588L90.9429 188.953L92.3128 188.718L110.053 185.669L127.793 182.621L129.163 182.386L128.9 181.021C123.208 151.434 126.319 130.185 133.603 115.778C140.879 101.387 152.36 93.7307 163.658 91.3343L165.14 91.0199L164.669 89.5747L155.235 60.6708Z" fill="#CAA77A" stroke="#2D1F04" stroke-width="2.78"/>
<path d="M160.269 80.2405L161.471 79.7766L161.069 78.5437L158.999 72.1979L158.618 71.0299L157.41 71.2375L90.258 82.7763L23.1061 94.3151L21.8983 94.5226L21.9767 95.7426L22.4028 102.371L22.4855 103.659L23.7836 103.693L80.9399 105.204L96.5942 186.572L96.8568 187.937L98.2267 187.702L110.053 185.669L121.88 183.637L123.25 183.402L122.987 182.037L107.333 100.669L160.269 80.2405Z" fill="#323232" stroke="#2D1F04" stroke-width="2.78"/>
<path opacity="0.23" d="M93 27.0002C102.299 43.4856 97.8161 37.7105 104.5 50.5002C111.764 71.4699 112.5 66.5001 125 64.0001C125.99 64.4797 119 66.0001 129 64.0001C133.413 63.1176 130.5 63.547 136.5 62.439C147 60.5001 151 59.5001 154.5 58.0001C155.198 56.5602 147.243 44.0625 147 42.5002C137.659 38.0634 133.941 28.7271 129 27.0001C121.305 21.2487 119.31 23.5213 112.5 19.0002C118.369 21.1307 97.4679 16.64 95 16.0001C89.9742 14.6768 93.114 25.3886 93 27.0002Z" fill="#3F2719"/>
<path opacity="0.23" d="M151.5 96.0002C139.5 106.5 133.5 114 130 128C121.5 148.5 129.54 177.863 130 178.972C130.422 179.988 132.297 179.332 136.5 177C143.5 173.116 148.872 167.975 155 165C166.24 159.472 167.914 154.761 179.46 149.972C180.938 149.359 182.639 148.762 183.495 147.432C179.46 137.911 175.546 121.574 173 117C171.069 107.589 168.587 103.904 166.5 96.0002C165.873 93.4453 166.077 95.1178 164.657 93.0001C161.78 88.6724 152.656 94.8713 151.5 96.0002Z" fill="#3F2719"/>
</g>
</g>
<defs>
<clipPath id="clip0_291_4374">
<rect width="208" height="372" fill="white"/>
</clipPath>
<clipPath id="clip1_291_4374">
<rect width="71.9333" height="83" fill="white" transform="translate(91.0001 215)"/>
</clipPath>
<clipPath id="clip2_291_4374">
<rect width="212.997" height="204.489" fill="white" transform="matrix(0.985556 -0.16935 0.188924 0.981992 -30.7769 20.6318)"/>
</clipPath>
</defs>
</svg>
