<?xml version="1.0" encoding="utf-8"?>
<!-- Generator: Adobe Illustrator 26.0.3, SVG Export Plug-In . SVG Version: 6.00 Build 0)  -->
<!DOCTYPE svg PUBLIC "-//W3C//DTD SVG 1.1//EN" "http://www.w3.org/Graphics/SVG/1.1/DTD/svg11.dtd" [
	<!ENTITY ns_extend "http://ns.adobe.com/Extensibility/1.0/">
<!ENTITY ns_ai "http://ns.adobe.com/AdobeIllustrator/10.0/">
<!ENTITY ns_graphs "http://ns.adobe.com/Graphs/1.0/">
<!ENTITY ns_vars "http://ns.adobe.com/Variables/1.0/">
<!ENTITY ns_imrep "http://ns.adobe.com/ImageReplacement/1.0/">
<!ENTITY ns_sfw "http://ns.adobe.com/SaveForWeb/1.0/">
<!ENTITY ns_custom "http://ns.adobe.com/GenericCustomNamespace/1.0/">
<!ENTITY ns_adobe_xpath "http://ns.adobe.com/XPath/1.0/">
]>
<svg version="1.1" id="Слой_1"
	xmlns:x="&ns_extend;"
	xmlns:i="&ns_ai;"
	xmlns:graph="&ns_graphs;"
	xmlns="http://www.w3.org/2000/svg"
	xmlns:xlink="http://www.w3.org/1999/xlink" x="0px" y="0px" width="286.8px" height="361.3px" viewBox="0 0 286.8 361.3" style="enable-background:new 0 0 286.8 361.3;" xml:space="preserve">
	<style type="text/css">
	.st0{fill:#FFFFFF;}
	.st1{fill:#B6B1AE;}
	.st2{fill:#CAA77A;}
	.st3{fill:#FFDBAF;}
	.st4{fill:#9D7B51;}
	.st5{fill:none;stroke:#9D7B51;stroke-width:3.87;stroke-linecap:round;stroke-linejoin:round;stroke-miterlimit:10;}
	.st6{opacity:0.23;fill:#3F2719;}
	.st7{fill:#3F2719;}
	.st8{fill:none;stroke:#2D1F04;stroke-width:2.62;stroke-linecap:round;stroke-linejoin:round;stroke-miterlimit:10;}
	.st9{fill:none;stroke:#2D1F04;stroke-width:2.62;stroke-linejoin:round;stroke-miterlimit:10;}
	.st10{fill:none;stroke:#2D1F04;stroke-width:7.6;stroke-linecap:round;stroke-linejoin:round;stroke-miterlimit:10;}
	.st11{fill:none;stroke:#2D1F04;stroke-width:3.05;stroke-linecap:round;stroke-linejoin:round;stroke-miterlimit:10;}
	.st12{fill:#251707;}
	.st13{fill:#2D1F04;}
	.st14{fill:#FF6900;}
	.st15{fill:#FFDB1F;}
	.st16{fill:none;stroke:#000000;stroke-linecap:round;stroke-linejoin:round;stroke-miterlimit:10;}
	.st17{opacity:0.51;fill:#FFFFFF;}
	.st18{fill:#D2D2D2;}
	.st19{fill:none;stroke:#3F2719;stroke-width:2.62;stroke-linecap:round;stroke-linejoin:round;stroke-miterlimit:10;}
	</style>
	<metadata>
		<sfw xmlns="&ns_sfw;">
			<slices></slices>
			<sliceSourceBounds bottomLeftOrigin="true" height="361.3" width="286.8" x="819.4" y="-717.4"></sliceSourceBounds>
		</sfw>
	</metadata>
	<path class="st0" d="M286.8,267.8c-0.1-2.2-0.7-4.2-1.6-6.1c0.1-0.3,0.2-0.7,0.4-1c0.4-1.3,0.5-2.7,0.3-4.1
	c-0.2-1.4-0.6-2.7-1.2-3.9c-0.1-0.1-0.1-0.2-0.2-0.3c0-0.1,0.1-0.2,0.1-0.3c0.4-1.3,0.5-2.7,0.3-4.1c-0.1-0.9-0.3-1.8-0.7-2.6
	c0.1-0.9,0.1-1.8-0.1-2.8c-0.3-1.9-1.1-3.6-2.3-5c0.7-1.7,0.9-3.6,0.6-5.5c-0.3-1.7-1-3.3-2-4.7c0.1-0.3,0.1-0.6,0.2-0.9
	c0.2-0.1,0.4-0.2,0.6-0.4c1.2-0.8,2.1-1.8,2.8-3c0.6-1,1.1-2.2,1.4-3.4c0.3-1.4,0.3-2.8,0-4.2c-0.3-1.4-0.9-2.8-1.8-3.9
	c-0.7-1-1.6-1.8-2.6-2.5c-1.2-0.8-2.5-1.3-3.8-1.6c-0.2,0-0.4-0.1-0.7-0.1c-0.3-0.4-0.6-0.8-0.9-1.3c-1.3-1.6-2.8-2.9-4.6-3.9
	c-0.3-0.1-0.5-0.3-0.8-0.4c0.2-0.4,0.5-0.7,0.7-1.1c2.1-3.9,2.6-8.1,1.4-12.2c-0.8-2.8-2.3-5.2-4.3-7.2c0.2-0.7,0.3-1.5,0.4-2.2
	c0.2-2-0.1-4-0.7-5.9c-0.5-1.4-1.2-2.7-2-3.9c-0.1-1.5-0.3-2.9-0.8-4.3c-0.3-0.8-0.6-1.5-0.9-2.2c-0.1-0.6-0.2-1.3-0.5-1.9
	c-0.6-1.8-1.6-3.3-3-4.5c0-2.1-0.3-4.2-1.2-6.2c-0.9-2.3-2.2-4.2-4-5.8c0.4-0.3,0.8-0.7,1.1-1c0,0,0,0,0-0.1c0.9-1,1.6-2.2,2.1-3.5
	c0.5-1.3,0.7-2.6,0.6-4c-0.1-1.4-0.4-2.7-1-4l-4.6-9.7c-0.6-1.3-1.4-2.4-2.5-3.3c-0.7-0.6-1.4-1.1-2.2-1.5c0.3-2.2,0-4.4-1.1-6.4
	c-1.3-2.4-3.4-4.2-6-5c0,0,0,0,0,0c0.3-1.3,0.4-2.7,0.1-4c-0.2-1.4-0.7-2.6-1.4-3.8l-4.1-6.7c-0.8-1.2-1.8-2.3-3-3.1
	c-1-0.7-2.1-1.2-3.3-1.5c-0.8-0.2-1.7-0.3-2.6-0.3c-0.5,0-0.9,0-1.4,0.1c-1,0.1-2,0.4-3,0.9c-0.1-3.3-1.2-6.4-3.2-9.1
	c-1.4-1.8-3-3.3-4.9-4.3c-0.1-0.5-0.2-0.9-0.3-1.4c-0.4-1.3-1.1-2.5-2-3.5c-0.9-1.1-2-1.9-3.3-2.5c-0.2-0.1-0.4-0.2-0.5-0.2
	c-0.1-0.2-0.1-0.4-0.2-0.6c-0.4-1.3-1.1-2.5-2-3.5c-0.9-1.1-2-1.9-3.3-2.5c-1.2-0.6-2.5-0.9-3.8-1c0,0,0,0,0,0c-0.2,0-0.5,0-0.7,0
	c-0.5,0-0.9,0-1.4,0.1c-0.3-4.3-2.2-8.1-5.4-10.9c-2.4-2.1-5.2-3.4-8.2-3.8c-0.4-1-0.9-2-1.5-3c-1.1-1.7-2.5-3.1-4.2-4.2
	c-0.6-0.4-1.2-0.7-1.8-1c2.7-2.8,4.4-6.7,4.4-10.9v-1c0-8.7-7.2-15.9-16-15.9c-0.8,0-1.5,0.1-2.2,0.2c-7.9-6.3-15.2-7.8-20.1-7.8
	c-9.3,0-17.7,4.8-23,13.2c-4.1,6.5-5.8,14.3-5,22c-2-0.4-3.6-0.6-5-0.6c-0.2,0-0.5,0-0.7,0c-0.5-0.2-0.9-0.3-1.4-0.5
	c0.5-9.6-1.7-18-6.6-24.3C95.7,3.8,88,0,79.8,0C72,0,64.5,3.5,59,9.5c-8.8,0-16,7.1-16,15.9v1c0,6.9,4.5,12.7,10.7,14.9
	c-0.1,0-0.1,0.1-0.2,0.1c-2.8,1-4.9,3.3-5.7,6.1c-0.2,0.8-0.3,1.7-0.3,2.5c-3.9,2.5-6.5,5.1-6.8,9.2c-0.1,0.8,0,1.6,0.2,2.4
	c-2.5,2-4.5,4.6-4.5,8.4c0,3,1.4,5.6,3.6,7.3c-2.6,4.8-4.5,10-5.5,15.7h-1c-4,0-7.3,3.3-7.3,7.3c0,4,3.3,7.3,7.3,7.3h0.1
	c0.5,12.1,3.9,25.4,10.2,39.8c0.4,1.8,1,3.8,2.2,6.3v0c0,0.6,0.1,1.2,0.1,1.6l0,0.2c0,1.8,0.1,3.7,0.3,5.9c-0.1,1.7-0.2,4.1-0.1,6.7
	c-16.5,7.3-30.7,22.8-39,42.8c-3.4,7.5-5.7,15.1-6.7,22c0,0,0,0,0,0.1c-0.3,1.6-0.5,3.3-0.5,5.3c-0.2,5.1,0.3,9.8,1.6,13.8
	c0,0,0,0.1,0,0.1c0.8,5.5,3.9,9.9,8.8,12.4c3.6,2.4,8.1,3.6,13.5,3.6h0.1c0.2,0,0.4,0,0.6,0c2.2,0,4.4-0.2,6.8-0.6
	c1.4-0.2,2.9-0.6,4.7-1c0.4-0.1,0.8-0.2,1.2-0.3c0,0.2,0.1,0.3,0.1,0.5c0.2,1.9,0.5,3.7,0.7,5.5c-0.7,3.1-0.1,6.7,1.9,10.8
	c0.3,1.5,0.6,2.7,0.9,3.9c1.7,7.3,3.8,13.8,6.1,18.8c0.9,2.5,1.9,4.3,3.1,5.8c1,1.6,2.2,3,3.4,4.2c1.2,1.3,2.4,2.6,3.9,3.6
	c0.3,2.6,0.9,5.2,1.8,7.7c-5,1.8-9.9,4.5-14,7.7c-0.7,0.5-2.1,1.9-3.4,3.2c-1,0.6-1.8,1.4-2.5,2.3l-1,1.3c-0.4,0.6-0.8,1.2-1.1,1.9
	l-0.4,1c-0.9,2.1-0.9,4.4-0.1,6.5l0.3,0.8c0.2,0.5,0.4,0.9,0.6,1.3c0.3,0.7,0.8,1.3,1.3,1.8c1,1.1,2.3,2,3.8,2.5
	c0.3,0.1,0.6,0.2,0.9,0.3c1.5,0.3,3.7,0.5,9.4,0.5c2.9,0,6.5-0.1,11-0.2c2.7-0.1,5.4-0.1,8.1-0.2l4-0.1l1.6-0.1l3.4-0.1h24.1
	c1.8,0,4.5-0.5,8-1.6c2.7-0.5,8.3-1.7,11.4-6c0.1,0.9,0.4,1.8,0.8,2.6c0.6,1.3,1.5,2.5,2.6,3.4c2.3,1.9,4.9,2.2,9.3,2.6
	c1.4,0.3,3,0.4,5,0.4c0.4,0,0.8,0,1.2,0c1.5,0.1,3.2,0.2,4.9,0.3c7.1,1.3,18,2.1,24.3,2.1c1.3,0,2.5,0,3.5-0.1l1.8-0.1
	c2-0.1,3.7-0.2,5.3-0.3c3,0.4,6.8,0.6,10.4,0.6c8.3,0,12.4-1.1,14.4-1.9c1.5-0.4,3.6-1.2,5.3-3.3c0.2-0.3,0.5-0.6,0.7-1
	c0.3,0,0.7,0,0.9,0c3.5,0,6.9-1.2,9.9-3.6c0.3-0.2,0.5-0.4,0.8-0.7c1.9,0.8,3.6,1.4,4.9,1.9c3.1,1.2,5.3,1.7,7.3,1.7
	c3.3,0,6.2-1.5,8-4c0.3-0.4,0.5-0.8,0.8-1.1c7.9-8.6,13-22.4,15.2-40.9c1.1-7.2,1.6-15,1.6-23.3c0.6,0.1,1.1,0.1,1.7,0.1
	c0.2,0,0.5,0,0.7,0l5.8-0.4c4.4-0.3,8.2-2.2,11.1-5.5C285.7,276.1,287.1,272.1,286.8,267.8z M24.7,259.1c-0.2,0-0.4,0-0.5,0
	c0.3,0,0.7,0,1,0C25,259.1,24.9,259.1,24.7,259.1z M52.2,60.4C52.1,60.4,52.1,60.4,52.2,60.4c0,0,0.2,0,0.3,0
	C52.4,60.4,52.3,60.4,52.2,60.4z M141.1,338.9C141,338.9,141,338.9,141.1,338.9c0.1,0,0.3,0,0.5,0
	C141.4,338.9,141.2,338.9,141.1,338.9z M142.3,9.6c0.1,0,0.1,0,0.2,0c0,0,0.1,0,0.2,0H142.3z M190.6,77.9
	C190.6,77.9,190.6,77.9,190.6,77.9L190.6,77.9C190.6,77.9,190.6,77.9,190.6,77.9z M237.9,345.5c0,0-0.1,0-0.1,0
	C237.8,345.5,237.9,345.5,237.9,345.5C237.9,345.5,237.9,345.5,237.9,345.5z M244.3,163.4c-0.1,0-0.2,0-0.2,0c0.3,0,0.6,0,0.8,0
	C244.7,163.4,244.5,163.4,244.3,163.4z M246.9,149.8C246.9,149.8,247,149.8,246.9,149.8C247,149.8,247,149.8,246.9,149.8
	L246.9,149.8z M253.4,163c0.1,0,0.2,0,0.2,0c0,0,0,0,0,0C253.6,163,253.5,163,253.4,163z"/>
	<g>
		<g>
			<path class="st1" d="M160.9,333.9c-7.4,3-14.7,2-21.2,7.5c-1.1,0.9-4.7,4.1-4.2,5.7c0.8,2.7,6.7,2,8.8,2.1
			c8.1,0.2,16.5,1.2,24.6,1.4c1.5,0,9.1,0.9,9.4-1.2c0.6-5.2-10.2-9-12.7-11.7"/>
			<path class="st1" d="M73.9,332.4c-8.3-0.2-17.6,3.5-24.1,8.5c-0.6,0.5-5.7,5.3-5.2,6c1.3,1.9,7.7,0.5,9.6,0.7
			c8.1,0.9,16.8-0.6,25-0.4c1.4,0,6.8,1,7.6-0.6c1.2-2.3-5.3-6.3-6.5-7"/>
			<path class="st1" d="M112.8,247.7c-0.1-0.2-0.3-0.4-0.4-0.6"/>
			<path class="st2" d="M58,65.9c-2.4,0-8.6,12.1-10,14.6c-10.4,18.2-6.6,39.5,1.7,57.8c2.1,4.7,1.2,6.1,3.3,10.5
			c1,2,4.5,6.7,4.5,8.8c0,0.5,0,1.4,0,1.4s-0.7-3.5-1.4-5c-0.2-0.5-1.2-1.4-0.7-1.4c0.3,0,0.6,0.8,0.7,1c2.3,5.8-0.3,13.1,1.2,19.1
			c1,4.2,9,9.2,13.4,10.3c16.6,4.1,33.3-0.2,49.9-0.2c4.2,0,16.1,1.3,19.6-2.1c2.9-2.9,3.8-6.7,6.2-10c3.2-4.5,10.6-9.9,15.8-11.9
			c5.3-2.1,12-0.8,17.2,0.5c1.3,0.3,5.4,2,6.7,0.7c2.2-2.2,3.2-8.5,2.6-11.2c-1.5-7.3-1-18-2.4-25.1c-1-4.8-2.8-9.4-4.5-14.1
			c-7.1-18.3-17-33.3-32.7-44.7c-3.9-2.9-10.5-7.9-15-10.2c-4.4-2.2-9.2-2.1-13.6-4.3c-5.7-2.9-12-6.6-18.1-8.1
			c-1.6-0.4,0.6,2.3,0.5,2.6c-0.2,0.4-4,0.3-4.5,0.2c-5.1-1-10.4-0.9-15.3-3.1C82,41.5,79,38.4,78,38.7c-2.9,1,1.4,9.1,1.4,9.1
			s-0.4-0.7-0.7-1c-1.4-1.1-4.6-2-6.4-2.4c-3.9-0.8-5.5,1.7-8.8,2.4c-0.4,0.1-4.3,1.1-4.3,1.2c0,0.8,6.2,1.8,6.2,2.6
			c0,0.7-1.4,0.4-1.7,0.5c-1.8,0.3-12.2,4.6-11.5,6.9c0.3,1,5.8,1,6.9,1.7c0.3,0.2,1,0.2,1,0.2s-4.3,0.7-6.4,1.2
			c-2.7,0.7-8.1,6.7-3.3,6.7"/>
			<path class="st2" d="M202.2,285.8c-0.9,0.3-4,8.9-4.4,12.2c-0.8,6.5,4.2,15.1,5,21.5c0.8,6.3,1,12.4,3.6,18.2
			c0.9,2,0,8.7-0.6,10.9c-1,4-22.5,2.9-25.8,1.6c0,0-7.4-9.2-9.8-11c-2-1.5-0.5-1.8-5.2-3.8c-2.9-1.2-6.5-1.2-9.2-4
			c-2.6-2.6-4-8.4-6.8-10.3c-2.8-1.8-4.9-0.5-13.8,1.4c-8.9,1.9-15.5,1.5-24.1-0.7c-1.5-0.4-1.3,2.5-0.5,5.8
			c0.8,3.7,2.3,7.9,2.9,8.7c0.4,0.7,4.6,5.5,3.5,6.6c-2.2,2.3-18.5,4.5-21.2,4.5c-3.1,0-5.9-1.3-8.8-0.8c-0.7,0.1-2.1,0-2.1,0
			s1.6,0.7,1.4,0.2c-0.3-0.9-2.2-2.5-2.8-3.3c-2.3-3.1-6.1-7.5-8.8-10.1c-2.2-2.2-2.9-4.3-4.4-7.2c-2.1-4.2-3.5-9.4-4.7-14.1
			c-0.3-1.1-0.5,1-1.2,0c-2.3-3.5,5.2-12.3,0.2-17.3c-2.4-2.4-6.9-4.8-6.9-4.8S51,292,51,284.7c0-1.2-10.3-13.6-1.2-13.1
			c9.1,0.4-4.8,4.2-3,4.2c6,0,10.9-0.4,16.9,1.2c3.9,1.1,7.1,3.6,11.3,4c6.4,0.6,12.8-1,19.2-0.5c6.2,0.5,11.4,1.5,16.6,0.5
			c1.2-0.2,7.9,6.8,8.6,6.1c0.9-0.9-1.7-13,0.3-13.5c3.5-0.9,6.3,2.6,9.6,3.2c8.1,1.6,17.1,2.2,24.6-2.3c3.3-2,6.7-5,8-8.2
			c1.4-3.5,1.2-6.6,2.6-10.3c1.7-4.6-0.3-11.4-1.3-16.1c-0.6-3-3.3-11-1.8-14.1c2.7-5.3,19.6-13.9,25.3-15.2
			c5.2-1.2,11.1-2.3,16.4-0.9c6.5,1.6,7.3,7.1,8.5,11.6c3.8,15.1,3,30.5-4,46.3c-1.8,4.2-2.9,7.6-6.6,10.3c-0.9,0.7-4.9,5.6-5.1,6
			c-0.3,0.7,5,0.4,5.1,0.4c4.2,1.4,0.6,3.3-0.7,7.7"/>
			<path class="st3" d="M46.6,103c2-8.1,7-17.3,14.3-18.7c8.6-1.6,15.7,5.3,24,5c1.5-0.1,4.5-1,5.4-2.3c0.9-1.3,0-3,0-3
			c1.3,0.4,2.6,2.3,4.2,2.7c6.2,1.8,12.6-3.7,18.3-5.4c18.7-5.7,33.4-3.6,43.3,14.5c2.2,4.1,5.7,13.4,3.3,23.8
			c-3.4,15.1-5.2,21.5-21.6,32.8c-19.5,13.5-59.9,20.2-80.1-5.3C48.3,135.1,42.9,118.2,46.6,103z"/>
			<path class="st4" d="M84.3,109.9c-6.8-3.4-12.3,13.8-11.8,18.7c1.9,16.9,26.6,16,38.1,10.3c16.6-8.3-3.7-34.9-15.5-30.2"/>
			<path class="st4" d="M46.6,103c-3.7,6.7,0.5,26.8,3.3,28.9c2.2,1.6,17-9.6,21.3-16.7c1.1-1.9,6.8-14.1,4.7-16.2
			c-1.2-1.2-17.2,1-19.7,1.5C52.9,101.2,48.1,100.3,46.6,103z"/>
			<path class="st4" d="M108.8,99.9c0.8,27.6,41.3,42.3,46,35.4c3-4.4,9.6-25.7,1.7-39.6c-0.8-1.4-10.2,2.1-11.6,2.4
			C133.1,100,108.5,87.9,108.8,99.9z"/>
			<line x1="63.7" y1="286.6" x2="63.6" y2="292.3"/>
			<line class="st5" x1="63.7" y1="286.6" x2="63.6" y2="292.3"/>
			<line x1="69.8" y1="290" x2="69.7" y2="295.6"/>
			<line class="st5" x1="69.8" y1="290" x2="69.7" y2="295.6"/>
			<line x1="75.5" y1="293.7" x2="75.5" y2="299.3"/>
			<line class="st5" x1="75.5" y1="293.7" x2="75.5" y2="299.3"/>
			<line x1="66.4" y1="163.6" x2="66.4" y2="169.2"/>
			<line class="st5" x1="66.4" y1="163.6" x2="66.4" y2="169.2"/>
			<line x1="72" y1="166.5" x2="71.9" y2="172.1"/>
			<line class="st5" x1="72" y1="166.5" x2="71.9" y2="172.1"/>
			<path class="st0" d="M121.5,101.1c0,2.5,0.5,4.2,1.4,5.4c2.6,3.3,8.3,1.5,14,0.5c6.2-1.1,7.6-4.9,8.8-7.2"/>
			<path class="st0" d="M47.5,99.7c-5.3,13.8,16.6,12.3,20.6,1.9"/>
			<path class="st6" d="M45.7,67.6c4,0,7.5-1.1,11.4-2c1.1-0.3,3.3-1.5,3.3-0.3c0,0.2-0.5,0.2-0.7,0.3c-3.4,2-6.1,4.9-8,8.4
			c-0.7,1.2-2.5,4.5-2,3.7C65.1,50,176.4,39.6,170,152c-0.1,1-1.3,2.7-0.3,3c2,0.7,5.2-1.3,7.7-0.3c1.1,0.4,9.2,4.9,10,4.4
			c1.4-1,0.4-6.3,0.7-8c5.7-37.9-38.1-88.7-41.9-90.8c-14.4-8-43.9-16.9-44.6-17.1c-0.1,0-2.7,1.6-4,1.3c-4.8-0.8-10.2-2.6-15.1-4
			c-0.7-0.2-5.2-3.7-5.4-3.3c-0.5,1.1-0.9,7.2-0.3,8c0.4,0.6,2.8-0.3,2-0.3c-6.2,0-14.1,2-20.8,3.3c-0.2,0-0.7,0.1-0.7,0.3
			c0,1.9,8.7,0.7,8.7,2c0,1-12.1,4.4-13.7,5.7c-0.5,0.4-2.5,1.9-2,2.3c1.6,1.6,5.6-0.4,7.7,0.7"/>
			<path class="st6" d="M185.9,290.7c-3.3,1.3-4,6.2-3.5,12.6c1.2,15.4,9.6,39.1,7.7,38.9c-31-2.4-49.9,4.5-49.9,5.7
			c0,1.1,5.4,0.8,6.4,1c6.2,1.6,21.8,2.7,28.1,2.3c11.8-0.7,15.3-1,27.1-1c1.5,0,0.4,0.5,1.7-0.3c4.9-3.3,0.7-18.8,0.1-23.7
			c-1-7.8-5.2-21.9-4.1-29.6c0.3-2.4,4.5-8.8,4-11.2C202.5,280.6,187.3,290.2,185.9,290.7z"/>
			<path class="st7" d="M95.6,320.9c0,0.2,0,0.4,0,0.7"/>
			<path class="st6" d="M68.4,310.1c-2.2,0-3,5.4-3,6.2c0.5,6.4,3.3,11.8,7.2,16.9c0.1,0.2-0.8-1.5-0.9-1.3c-0.2,0.7-4.4,2.5-5.2,2.6
			c-2.4,0.5-24.5,8.8-21.4,13.4c0.1,0.1,22.9-0.3,24.8-0.3c12.4,0,22.1,0,34.5,0c1.8,0,10.8-2.6,11.8-4.1c1.4-2.1-3.1-9.5-3.8-11.3
			c-0.4-1-2.1-10.6-2.3-10.7c-3.9-2.6-16.1-9.8-20.6-10.5C74.3,308.6,77.3,310.1,68.4,310.1z"/>
			<path class="st8" d="M59.5,64.7c-4.6,3-7.3,8-10.3,12.3c-15,21.2-5.4,52,5.3,73.3"/>
			<path class="st8" d="M58.1,65.3c-2.2,1.1-3.7,1.1-5.9,1.8c-1.1,0.3-2,0.7-3.2,1c-1.1,0.2-2.2,0.3-3.2,0.6
			c-0.5,0.1-1.4,0.9-1.4,0.4c0-1.5,12-8.2,14.3-8.9c0.3-0.1,0.9-0.1,1-0.4c0.2-0.5-0.9-0.5-1.4-0.6c-2.3-0.6-7.7,1.2-9.5-0.2
			c-0.5-0.4,3.5-2.8,3.8-3c2.5-1.4,5-3.2,7.7-4c1.6-0.5,5,0.7,5-1c0-2-9-1.3-9.7-2c-0.1-0.1,0.3-0.1,0.4-0.2c2-1,4.3-1.9,6.5-2.4
			c4.1-1,11.4-1.9,15.5-0.6"/>
			<path class="st8" d="M72.8,332.8c-12.2-0.4-26.1,11-27,12"/>
			<path class="st8" d="M84.8,347.6c5,0,11.2-0.4,16.3-0.5c3-0.1,16.5-0.5,15.7-4.7"/>
			<path class="st8" d="M132.7,348.1c1.8,1.5,71,3.6,72.6,1.6"/>
			<path class="st8" d="M74.1,333.2c5.1,3.4,9.3,7.4,12,12.8"/>
			<path d="M44.6,348c4.8,1.1,44.4-0.9,46.7-0.5"/>
			<path class="st9" d="M44.6,348c4.8,1.1,44.4-0.9,46.7-0.5"/>
			<polyline points="46.2,344.4 45.6,344.7 44.7,346 44.2,347.1 44.6,348 		"/>
			<polyline class="st9" points="46.2,344.4 45.6,344.7 44.7,346 44.2,347.1 44.6,348 		"/>
			<path class="st8" d="M45,347.9c4.7-3.9,25.8-11.7,33.7-10.4"/>
			<path class="st8" d="M134.5,347.9c7.3-3.7,16.2-6.3,25-7.4c3.8-0.5,7.6-0.6,11.3-0.5"/>
			<line class="st10" x1="106.4" y1="97.9" x2="159.7" y2="96.9"/>
			<polyline class="st10" points="81.4,98.9 64.2,99.2 35.3,99.7 		"/>
			<path class="st11" d="M119.5,101.6c3.9,11.8,24.6,8.1,25-1.5"/>
			<path class="st11" d="M46.8,103.3c-1.7,8.5,21.6,9.2,21.6-1.5"/>
			<path class="st12" d="M80.3,109.9c-0.1-2.6,4.9-4.9,11.2-5.2c6.3-0.3,11.6,1.5,11.7,4.1c0.1,2.6-4.9,4.9-11.2,5.2
			C85.6,114.3,80.4,112.5,80.3,109.9z"/>
			<path class="st11" d="M134.3,99.7c0.2-0.1,0.4-0.3,0.6-0.4"/>
			<path class="st11" d="M91.7,114.8c0,9.6,5.4-1.7,12.9,2"/>
			<path class="st13" d="M57.6,102.1c0-2.1,1.7-3.8,3.8-3.8c2.1,0,3.8,1.7,3.8,3.8c0,2.1-1.7,3.8-3.8,3.8
			C59.3,105.9,57.6,104.2,57.6,102.1z"/>
			<path class="st13" d="M133.7,100c0-2.1,1.7-3.8,3.8-3.8c2.1,0,3.8,1.7,3.8,3.8c0,2.1-1.7,3.8-3.8,3.8
			C135.4,103.7,133.7,102,133.7,100z"/>
			<path class="st13" d="M124.4,41.9c0-0.1,0.1-0.1,0.2-0.1c0.1,0,0.2,0,0.2,0.1c0,0.1-0.1,0.1-0.2,0.1
			C124.5,42.1,124.4,42,124.4,41.9z"/>
			<path class="st13" d="M128.5,104.1c-0.3,0-0.6-0.1-0.9-0.1"/>
			<path class="st14" d="M110.5,322.9c-0.2-0.6,1.1,3.5,1.1,4.3c0,2.6,2.5,4.5,5,5.3c2.7,0.9,5.6,0.9,8.2,1.8
			c4.2,1.4,11.6,4.1,16.1,3.7c2.4-0.2,5.4-1,7.6-1.8c1.8-0.7,4.3-0.7,6.1-1.5c0.3-0.1,2.4-1.8,4.9-0.4c2.6,1.3,0.3,0.2,0.2,0
			c-1.5-1.4-7.4-5.4-9.2-6.6c-0.1-0.1-0.2-0.2-0.3-0.2c-1-0.1-2.7,0.7-3.7,0.9c-1.9,0.4-4.1,0.1-6.1,0.3c-6.7,0.6-13-0.9-19.3-2.5
			C119,325.5,111.2,325.2,110.5,322.9z"/>
			<path class="st15" d="M167.5,69c2,3.9,5.5,7.8,7.9,11.8c1.9,3.2,2.1,7.3,3.9,10.4c7.5,12.5,18.9,22.7,25.5,35.9
			c12.8,25.7,18.7,61.8,18.7,90.5"/>
			<path class="st15" d="M146,52.8c13.5,13.5,31.9,36.1,36.6,54.9c3.4,13.5,4.7,27.7,4.7,41.6"/>
			<path class="st16" d="M130.6,48.9c5.3,0,11,5.4,15.1,8.3c14.1,10.1,27.2,22.2,33.4,39.1c1.6,4.4,2.8,9.1,3.9,13.6
			c1,4.2,0.8,9.6,3.2,13.3"/>
			<path class="st15" d="M55.6,150.9c-1.2-0.2-2,20.5-0.8,23c2.1,4.3,4.5,6.5,3.6,12.5c-0.7,4.6-1.3,9-2.8,15.5
			c-1.5,6.6-3.6,7.3-3.4,10.1c0.5,7.2-0.2,2.1,2.6,2.1c0.8,0-3.2,0.9,3.7,1.7c7,0.8,8.3,8.7,13.3,3.1c7.4-8.5,18.1-4.6,28.3-6.3
			c6.5-1.1,12.2-1.9,18,1c2.8,1.4,7.7,0.5,10.4,1.8c2.7,1.4,8.2-5.9,10.2-3.3c2,2.7,13.5,0.2,13.9,0.2c0.6,0,1.4,0.4,1.8,0
			c0.6-0.6-0.9-1.6-1.2-2.4c-1.7-4-4.8-8.3-5.5-12.8c-1.3-9.4-3.8-18.2,0.5-26.8c0.8-1.6,2.2-6.2,3.6-7.4
			c6.5-5.7,25.4-10.1,36.2-4.1c1.7,1,36.7,67,37.9,64.7c1.2-2.4-3.2-70.5-4.3-72.8c-26-57.4-31.2-61.3-54.3-81.6
			c-13.5-11.8-29.9-18.5-45-22.3c-1.3-0.3-14.2-4.6-15.3-2.8c-0.2,0.3,0.1,0.7,0.3,0.9c2,2.5,10.8,4.2,13.7,4.9
			c8.3,1.8,18.8,8.6,25.5,13.7c6.2,4.7,10.2,12.4,13,19.1c1.5,3.5,3.8,9.9,5.2,13.7c3.2,8.6,2.8,13.7,1.8,22
			c-0.5,3.9-1.4,8.7-2.1,12.7c-1.7,10-10.3,24.8-18.5,30.7c-4,2.9-8.8,4.5-13.1,7c-2.8,1.7-7.4,3.3-10.7,3.7
			c-11.8,1.5-20.4,0.2-31.3-1.3c-5.1-0.7-11.1-1.1-16.1-3C66.9,164.8,59.6,156.4,55.6,150.9z"/>
			<path class="st15" d="M110.9,322.4c-0.4-0.8,0.5,1.8,0.6,2.7c0.2,0.9-0.3,3.6,0.2,4.4c0.8,1.2-1-3.3-0.1-6.1
			c0.8-2.5,5.9,1.7,12.5,2.2c4,0.3,11.1,1.7,14.4,1.7c4.2,0,9.6,1.2,14.1-0.7c1.6-0.7,4.8,7.8,5.9,6.8c0.3-0.3-4.8-4.5-5.3-5
			c-2-2.5-4.8-5.6-4.8-8.7c0-2,8-6.5,9.5-7.8c10.1-8.3,18.6-11.1,30.8-12.4c2.9-0.3,3.6,0.2,6.4,0.8c6.9,1.4,4.6,5.5,3.7,8.3
			c-0.3,0.8,1.3,5.1,1.5,6.3c0.3,2.4,1.9,4.8,2.8,7c2.2,5.8,2.6,10.7,2.6,16.8c0,2.1-0.2,11.8,0.6,8.7c0.9-3.1,0.1-1.8,0.5-2.1
			c0.7-0.5-0.8-2,0.5-2.4c2.4-0.6-3.6-8.2-1.2-8.8c5.3-1.3-4.1-9.9-3.6-13.2c1.7-12.1-6.5,1.5,2.2-7.7
			c15.8-16.8,22.4-53.5,23.2-59.9c5-37.1-7.6-88.1-9.8-93.6c-0.1-0.3-2.1,36.3-17-4.2c-2-5.4,9.5,35.1,9.4,35.1
			c-0.4,0,2.4,58.6,2.4,58.7c-1,3.4-2,7-3.4,10.2c-2.8,6.6-6.9,11.7-13.6,14.6c-10.2,4.4-22.3-0.3-25.9-2.3
			c-3.6-1.9-5.5-4.2-7.1-5.8c-0.7-0.7-3.1-2.6-3.9-2.6c-0.9,0-15-10.1-23.8-15.3c-6.2-3.6-16.6-11.3-23.8-10.9
			c-15.6,0.8-18.7,0.4-47.1,9c-3.3,1-20.3,2.3-20,7.2c1.6,25.4,7.2,44.4,12.1,52.1c4.8,7.7,9.5,5.5,11,5.3
			C92.1,307.5,111.7,324.1,110.9,322.4z"/>
			<path class="st8" d="M110.3,323.1c0.2,4.7,2.1,14.8,5.9,18.6"/>
			<path class="st8" d="M148.6,321.3c2.6,5.7,6.5,10.7,12.6,12.8"/>
			<path class="st8" d="M159.8,333.9c-17.2,3-23.2,8.8-27.2,13.9"/>
			<path class="st14" d="M179.1,80.9c-0.1-0.3,8.1,11.2,9,12.2c6.8,7.4,13.3,15.3,18.4,23.9c1.9,3.2,3,7.2,4.6,10.5
			c1.8,3.9,4.2,7.4,6,11.3c9.2,19.3,62.8,147.4,20.6,205.5c-1.9,2.6-30.8-14.7-33.6-14c-1.7,0.4-1.9-9.8-1.9-15.7
			c0-2.5,2.9-2.4,4.6-4.1c2.7-2.7,3.4-2.9,6.8-9.5c3.4-6.7,2.5-8.5,4.7-13.5c4.4-10.3,4.4-16,5.7-27.1c0.7-6,1.2-10.2,1.2-16.2
			c0-3.8,0.5-9.2,0.7-17.7c0.3-8.5-0.5-7.3-0.7-16.7c-0.3-9.4-0.9-9.7-2-18.7c-1.1-9-2.3-13.9-4.4-23.6c-0.7-3.2-0.6-6.1-2.5-11.6
			c-1.8-5.5-3.1-11.2-5.9-18.2c-3.1-7.7-6.6-14.9-10.3-22.3c-1.5-3-2.1-7.2-4.1-9.8C190.2,97.8,184,89.3,179.1,80.9z"/>
			<path class="st17" d="M181.2,85.7c86.4,97.5,53.2,289.4,26.4,255.8c-2.2-2.7-1.4-10.4-3.1-15.1c-0.5-1.3-3.6-12.7-2.7-13
			c9.9-3.6,17.7-23.3,21.8-47.5c3.7-22.4,3.8-44,0.9-66.4c-1.3-9.8-1.4-14.8-2.5-19.9c-3.2-14.7-5.4-28.5-11.3-41.9
			c-5.3-12.2-12-30.6-20.7-41.3"/>
			<path class="st16" d="M181.2,85.7c86.4,97.5,53.2,289.4,26.4,255.8c-2.2-2.7-1.4-10.4-3.1-15.1c-0.5-1.3-3.6-12.7-2.7-13
			c9.9-3.6,17.7-23.3,21.8-47.5c3.7-22.4,3.8-44,0.9-66.4c-1.3-9.8-1.4-14.8-2.5-19.9c-3.2-14.7-5.4-28.5-11.3-41.9
			c-5.3-12.2-12-30.6-20.7-41.3"/>
			<path class="st14" d="M163.9,16.3L163.9,16.3c3.9,0,7,3.1,7,6.9v1c0,3.8-3.1,6.9-7,6.9s-7-3.1-7-6.9v-1
			C156.8,19.4,160,16.3,163.9,16.3z"/>
			<path class="st8" d="M163.9,16.3L163.9,16.3c3.9,0,7,3.1,7,6.9v1c0,3.8-3.1,6.9-7,6.9s-7-3.1-7-6.9v-1
			C156.8,19.4,160,16.3,163.9,16.3z"/>
			<path class="st14" d="M58.1,17.6L58.1,17.6c3.9,0,7,3.1,7,6.9v1c0,3.8-3.1,6.9-7,6.9c-3.9,0-7-3.1-7-6.9v-1
			C51,20.7,54.2,17.6,58.1,17.6z"/>
			<path class="st8" d="M58.1,17.6L58.1,17.6c3.9,0,7,3.1,7,6.9v1c0,3.8-3.1,6.9-7,6.9c-3.9,0-7-3.1-7-6.9v-1
			C51,20.7,54.2,17.6,58.1,17.6z"/>
			<path class="st8" d="M159.1,215.1c1.3-2.5,2.3-8.9-3.8-15.5"/>
			<path class="st8" d="M54.4,149.3c11.3,22.6,45.4,27,68.9,22.8c17.4-3.1,50.2-22.5,41.7-73.5c-2.6-15.5-15.6-39-38.2-46.9"/>
			<path class="st8" d="M54.6,151.5c0-0.3,1.4,22.2,1.4,22.2"/>
			<path class="st8" d="M148.9,321.5c0-2.4,2.3-5.1,5.9-7.9c15-11.5,52.8-22.9,44.6-6.3"/>
			<path class="st8" d="M197.7,300c0,6.1,12.5,44.2,8.2,48.5"/>
			<path class="st8" d="M110.6,322.6c7.1,3.6,33.6,6.8,40.5,3.3"/>
			<path class="st8" d="M111.3,329.7c8.5,4.9,25.3,8.3,33.4,8.3"/>
			<path class="st8" d="M108.7,44c28.1,2.7,50.9,15,69.8,35.1c69.4,73.4,94.2,234.1,58.6,265.5c-1.3,1.2-30.2-12.1-31.5-12.4"/>
			<path class="st8" d="M45.5,252.6c-1.6,12.3,7.4,53.9,18.4,60"/>
			<path class="st8" d="M128.4,47.7c-17.5-21.3,5.9-54.8,30.7-30.4"/>
			<path class="st8" d="M95.8,43.7c9.4-35.6-21.5-45.2-33.6-25.6"/>
			<path class="st8" d="M160.8,333.9c7.9,3.9,15.3,8,19.3,16.1"/>
			<path class="st8" d="M78.5,46.9c-1.2-2.3-3.3-6.2-2.2-8.9c0.1-0.1,1-1.1,1.2-1c0.8,0.4,1.4,1.8,2.4,2.4c3.9,2.1,8.3,3.6,12.7,4.6
			c2.6,0.6,5.2,0.8,7.7,1.4c0.6,0.1,1.8,0.2,1.8,0.2s-3.5-3.1-2.2-3.8c0.2-0.1,10.2,3.6,11.1,4c7.1,2.8,15.5,5.5,22.3,8.8"/>
			<path class="st18" d="M129.7,215.4c-1-0.7,2.4-1,3.5-1.4c2.5-0.9,4.8-1.6,7.3-2.4c3.5-1.1,16.2-2.5,17.9,1.9
			c2.1,5.2-0.7,16.9-3,21.3c-0.1,0.3-0.2,0.5-0.3,0.8c-0.9,2-1.9,3.9-2.8,5.8c0,0,0.1,0.5-0.2,0.3c-0.7-0.5-2.7-8.2-3.4-9.5
			c-0.3-0.7-1.2-1.1-1.6-1.7c-0.9-1.3-1.3-3-2.3-4.2c-1.8-2.3-4.5-3.9-6.9-5.6C134.9,218.9,132.8,217.5,129.7,215.4z"/>
			<path class="st2" d="M186.2,158.2c13.4,7.3,19.4,20.1,22.6,33c8.2,32.7,11.6,54.9-9.9,81.3c-17.1,21.1-65.4-35.1-85.2-35.9
			c-30.4-1.2-101.1,36.1-104.2,13.2C4.4,223.3,24,181.5,55.5,173c1.3,4.5,1.9,8.4,2,11.7c0.6,13.5-2.7,25.1-6.8,27.9
			c0.6,0.5,21,6.9,21.4,6.3c1.6-2.2,61.2-23.5,80.1,18c6.7-8.2,9.4-23.6,1.8-25.2c-5.6-14.4-16.2-29.6-2.6-46.3
			C158.9,156.2,175.9,152.6,186.2,158.2z"/>
			<path class="st8" d="M55.7,173.5c-39.1,7.1-69.9,91.9-26.8,84.2c18.1-3.2,69.8-26.7,88.3-20.5"/>
			<path class="st8" d="M50.2,192.3c-0.8,0-7.6,17.2-1.3,21c6.4,3.8,50.8,5.2,117.6,55c33.4,25,44.1-11.7,46.1-19.8
			c6.4-25.8-0.1-76-24.9-90.1"/>
			<path class="st19" d="M128.6,215.4c16.5,2.3,23.3,25.4,23.3,25.4s15.5-29,0.8-29.8C138,210.3,125.7,215,128.6,215.4z"/>
			<path class="st19" d="M129.6,215.6c-15.5-4.1-45.8-6.8-57.4,3.6"/>
			<path class="st8" d="M140.5,211.8c11.5,2.1,9.5,21,11.6,28.1"/>
			<path class="st8" d="M187.6,158.3c-31.6-15.5-55.6,19.2-33.8,52.2"/>
			<path class="st8" d="M55.9,173.4c2.3,4.5,2.7,12.9,1.3,21.5c-1.1,6.6-3.3,13.4-6.6,18.8"/>
			<path class="st8" d="M202.6,313.4c35.3-18.3,46.1-235.7-86-267.3"/>
			<path class="st8" d="M64.6,311.3c1.1,7.9,3.8,16.6,9,21.8"/>
			<path class="st6" d="M146.4,180.3c-1-10.7,17.1-20,26.2-16.5c13.2,5.1,20.5,17.9,25.2,30.6c6.3,16.9,10.5,93.5-118.6,22.2
			c-0.6-0.3-7,1.9-6.5,2.1c42.9,12.8,86.8,44.2,89.3,46.7c3.3,3.2,8.6,5.6,12.6,7.7c6.3,3.4,16.3,4.5,22.5,1.4
			c1.9-1,3.1-3.1,4.4-4.7c6.9-8.4,9.9-17,11.1-28.2c0.3-3.1,1.8-6.2,2-9.3c0.4-5.5-1-10.9-1.6-16.4c-0.6-6.6-0.4-13.7-2.1-20
			c-2.1-8-6.1-19.8-12.1-27.6c-2.7-3.5-5.8-5.8-8.5-8.3c-3.5-3.3-5.2-3-11.8-4.8c-13.7-3.9-27.2,6.9-31.5,18.1"/>
			<path class="st6" d="M51.1,214.5c43.3,19.4-48.1,50.2-40.5,13.6c0.1-0.6-2.1,5.2-2.2,5.7c-1.1,5.3,0.4,13.7,2.7,18.6
			c3.4,7.2,13.6,6.3,20.2,4.8c5.8-1.3,10.8-3,16.2-4.7c12.6-3.9,27.2-8.2,34.7-11.2c7.5-3,15.8-4.6,22.1-5.9
			c1.6-0.3,6.1,0.5,7.2-0.3c0.6-0.5-3.8-3.1-4.1-3.3c-4.6-2.2-9.3-3.1-14.1-4.8c-12.3-4.4-23.9-7.7-36.2-12"/>
			<path class="st6" d="M149.7,321.3c27.6-22,49.4-18.2,49.5-12.9c0,2.6,1.9-10.1-3.1-10c-2.4,0-19.4,1.7-12.9,1
			c7-0.8-7.7,2.8-14,6.3c-3.7,2.1-7.7,3-10.8,6C156.7,313.2,147.6,322.9,149.7,321.3z"/>
			<path class="st6" d="M156.9,75.7c0,6.5,7.5,16.7,9.8,23.1c3.5,9.7,7.4,76.1-48.9,78.1c-3.3,0.1-23.4-2.1-26-4.7
			c-0.5-0.5,17.1,1.3,17.9,1.4c3.2,0.4,27.3-5.6,36.9-12.8c20.4-15.3,24.9-53.3,14.3-74.6"/>
			<path class="st6" d="M159.4,213.9c-0.4-0.9,3,4.5,3.2,7.3c0.1,2.7-0.8,11.8-9.2,20.6c-0.2,0.2,2.6-7.4,2.9-8.1
			C158.1,227.9,162.2,219.8,159.4,213.9z"/>
			<path d="M243.7,311.5c-5.7,0-10.4,4.7-10.4,10.4v0.2c0,5.7,4.6,10.4,10.4,10.4c0.6,0,1.2-0.3,1.8-0.4c1.7-6.6,3.2-13.1,4.4-18.4
			C248.1,312.4,246,311.5,243.7,311.5z"/>
			<path d="M225,240.9l-1.5,22.7c1.4,0.3,2.8,0.4,4.3,0.1c6.4-1.1,10.6-7.1,9.5-13.3l0-0.3C236.2,244.3,230.9,240.5,225,240.9z"/>
			<path d="M207,310.3l-5.5,5.5c0,0,1.6,9.3,4.6,15.4c7.4-0.5,9.9-6.2,9.9-10.5v-0.2C216.1,315.1,212.1,310.9,207,310.3z"/>
			<path d="M130.6,326.4c1,4.6,5,8.2,9.9,8.2c4.9,0,8.9-3.5,9.9-8.2H130.6z"/>
			<path d="M245.5,220.2c-3.7,0.7-6.5,3.8-6.5,7.8c0,4.5,3.6,8.1,8.1,8.1h0.5c0.2,0,0.4-0.1,0.7-0.1L245.5,220.2z"/>
			<path d="M251.2,259.7c-3.7,0.7-6.5,3.8-6.5,7.8c0,4.5,3.6,8.1,8.1,8.1h0.5c0.2,0,0.4-0.1,0.7-0.1L251.2,259.7z"/>
			<path d="M230.3,171.2c-2.5,1-4,3.6-3.4,6.3c0.6,3.1,3.7,5.1,6.8,4.4l0.3-0.1c0.2,0,0.3-0.1,0.4-0.2L230.3,171.2z"/>
			<path d="M218.3,165.7c2.6-0.7,4.4-3.1,4.2-5.8c-0.3-3.1-3-5.5-6.1-5.2l-0.4,0c-0.2,0-0.3,0.1-0.5,0.1L218.3,165.7z"/>
			<path d="M226.2,193.1c-0.5,0-1,0.2-1.5,0.2l1.3,19.2c4.7-0.4,8.7-3.9,9.1-8.7C235.6,198.4,231.6,193.6,226.2,193.1z"/>
			<path class="st8" d="M64.2,311.6c0,0,22.5-8.6,46.3,10.8"/>
			<path class="st6" d="M109.4,44.3c73.2,22.5,90.6,87.5,94,131.7c15.7,34.4,15.7,89-11.1,100.3c-20.8,34-119.1,39.2-131.1,0.5
			c-9.5-36.1,33.2-34.3,43.6-32.1c14.4,3.1,55.2,22.5,66.7,27.1c-3.8-2.3-9.9-5.9-10.3-6.3c-5.1-4.9-11-9.7-16.7-13.9
			c-8.1-5.8-20.1-14.5-30-16.3c-1.7-0.3-3.5-0.5-5.2-0.5c-12.3,0-26,6.5-37.2,9.8c-2.6,0.8-25.9,8.7-26,8.8
			c-0.2,0.5-0.9,2.1-1.2,4.8c0,0,0,0.1,0,0.1c-0.1,0.8,0,1.7,0,2.7c0.1-0.3,0.1-0.6,0.2-1c0.3,3.4,2.3,21.9,4.7,27.1
			c2.6,5.7,4,15.2,6.4,17.8c1,1,4.5,6.2,6,6.4c1,0.1,4.5,0,5.8-0.3c4.7-1.2,14.5-2.7,19-0.8c4.7,1.9,8.9,2.7,13.2,5.5
			c4.2,2.7,8.8,7.2,13.6,8.9c2.1,0.7,6.3,1,8.3,0.9c4.6-0.2,6.2,1.8,10.8,2.3c1.1,0.1,16.3,0,16.6-0.2c0.7-0.5-0.3-7.2,0.2-8.8
			c1.5-5,29.2-18.7,39.7-18.9c4-0.5,9.6-1.2,9.9-1.1c3.7,2.1-0.7,6.3-0.5,8.8c0.1,1,1.7,7,3,6.8c4.8-0.5,13-18.7,15.1-25
			c5-15.2,9.3-45.2,8.9-61.1c-0.5-20.8-2.3-46-7.3-66.5c-5.5-22.4-13.1-36.8-24.7-56.4c-7.6-12.7-15.8-29.7-27.6-39.2
			c-6.9-5.6-20.9-12.1-29-14.9C134.4,50.4,106.7,43.4,109.4,44.3z"/>
			<path class="st6" d="M45,261.1c-0.1,0.6-0.2,1.2,0.2,2.4C45.1,262.6,45.1,261.9,45,261.1z"/>
			<path class="st6" d="M171.6,271.9c1.3,0.8,3.6,2.1,3.6,2.2c0,0,1.2-0.3,1-0.3C175.8,273.7,173,272.5,171.6,271.9z"/>
			<path class="st6" d="M169.5,305.7c1.6-0.7,3.8-1.6,4.8-2.1c0.8-0.4,0.8-0.5,0.7-0.5c-1.1,0.6-2.1,1.3-3.7,1.8
			C169.4,305.5,169.5,305.6,169.5,305.7z"/>
			<path class="st6" d="M175,303c0.7-0.4,1.4-0.9,2.6-1.1c1.1-0.2-1.6,0.4-2.1,0.6C174.2,303.1,174.9,303,175,303z"/>
			<path class="st6" d="M56.5,200.3c0.1,0.1,0.3,0.1,0.4,0.2"/>
			<path class="st6" d="M58.3,155.3c4,3.1,8.3,6,11.9,9.6c1,1-0.4-0.3-0.8,1c-22,68.5,19.3,46.3,19.2,46.5
			c-1.6,4.9-24.3,6.3-27.2,4.8c-5.1-2.5-9.9-2.5-14-6.7c-4.5-4.5-0.7-15.7,3.9-20.1c1.4-2.4,3.1-4.6,4.7-6.7c0,0,0.9-2,1.3-3.1
			c-0.4-3.4-0.8-6.8-0.8-6.9c-0.6-1.8-0.8-3.9-1.1-5.9c-0.5-4.5-1.3-8.9-1.2-13.5c0-0.5-0.3-3.4,0.2-3.5
			C54.6,150.7,57.7,154.9,58.3,155.3z"/>
			<line x1="175.2" y1="193.8" x2="175.1" y2="199.5"/>
			<line class="st5" x1="175.2" y1="193.8" x2="175.1" y2="199.5"/>
			<line x1="181.4" y1="196.7" x2="181.3" y2="202.4"/>
			<line class="st5" x1="181.4" y1="196.7" x2="181.3" y2="202.4"/>
			<line x1="188.1" y1="193" x2="188.1" y2="198.7"/>
			<line class="st5" x1="188.1" y1="193" x2="188.1" y2="198.7"/>
			<line x1="177" y1="322.4" x2="177" y2="328.1"/>
			<line class="st5" x1="177" y1="322.4" x2="177" y2="328.1"/>
			<line x1="182.1" y1="325.9" x2="182.1" y2="331.5"/>
			<line class="st5" x1="182.1" y1="325.9" x2="182.1" y2="331.5"/>
			<line x1="18.8" y1="226.1" x2="18.8" y2="231.7"/>
			<line class="st5" x1="18.8" y1="226.1" x2="18.8" y2="231.7"/>
			<path d="M233.7,281.3L233.7,281.3c5.4,0,9.8,4.4,9.8,9.7v0.5c0,5.4-4.4,9.7-9.8,9.7c-5.4,0-9.8-4.4-9.8-9.7V291
			C223.9,285.6,228.3,281.3,233.7,281.3z"/>
			<g>
				<g>
					<path class="st13" d="M109.2,189.8c3.8,0.1,7.2,0.1,10.5,0.3c2.7,0.1,3.5,1.9,3.4,3.5c-0.2,2.3-1.6,3.8-4.1,4.7
					c-0.1,0-0.3,0.1-0.5,0.1c2.6,1.4,2.6,4.3,4.3,7c-2,0-3.8,0-5.7-0.1c-1-1.7-1.8-3.4-2.5-5c-0.4-0.9-0.9-1.5-2.4-1.3
					c-0.4,2-0.7,4-0.5,6.2c-1.8,0-3.4,0-5.1,0C106,199.8,108.7,195.1,109.2,189.8z M113.8,193c-0.2,1-0.5,2-0.8,3.1
					c1.1-0.1,2.2,0,3.3-0.2c0.9-0.1,1.6-0.7,1.7-1.4c0.2-0.8-0.2-1.4-1.1-1.5C115.9,192.9,114.9,193,113.8,193z"/>
					<path class="st13" d="M138.3,194.3c-1.7,0.1-3.2,0.2-4.8,0.3c-0.1-1.3-0.8-2-2.1-2c-0.9,0-1.6,0.2-2,1.1c-0.1,0.7,0.4,1,1,1.1
					c1.1,0.3,2.3,0.5,3.4,0.9c0.6,0.2,1.3,0.4,1.9,0.7c3.8,1.7,3,6-0.1,8.1c-1,0.7-2.3,1.1-3.4,1.3c-1.9,0.3-3.7,0.2-5.5-0.3
					c-2.4-0.7-3.9-2.7-3.5-5.2c1.5-0.1,3-0.1,4.6-0.2c0.1,0.3,0.1,0.6,0.2,0.9c0.4,1.5,2,2.2,3.6,1.6c0.7-0.3,1.3-0.7,1.4-1.4
					c0.1-0.7-0.3-1.1-0.9-1.4c-0.5-0.2-1.1-0.4-1.6-0.5c-1.1-0.3-2.3-0.6-3.3-1c-2-0.8-2.8-2.3-2.4-4c0.5-1.9,2-3.5,4.2-4.1
					c2.1-0.6,4.2-0.6,6.3,0C137.4,190.7,138.3,192,138.3,194.3z"/>
				</g>
			</g>
		</g>
		<g>
			<path d="M152,38.3c0.1-0.5,0-1-0.1-1.4s-0.3-0.9-0.5-1.3c-0.2-0.4-0.5-0.8-0.9-1.1c-0.3-0.3-0.7-0.6-1.2-0.8
			c-1-0.4-2.1-0.5-3.1-0.2c-0.3,0.1-0.6,0.1-0.9-0.1c-0.3-0.2-0.6-0.4-0.7-0.7c-0.1-0.3-0.1-0.7,0-1c0.2-0.4,0.4-0.6,0.8-0.7
			c1.7-0.5,3.3-0.4,4.9,0.3c1.8,0.8,3,2.1,3.8,3.9s0.7,3.6-0.1,5.4s-2.1,3-3.9,3.8c-1.8,0.7-3.6,0.7-5.4-0.1
			c-1.6-0.7-2.8-1.9-3.5-3.5c-0.1-0.4-0.1-0.7,0-1.1c0.2-0.3,0.4-0.6,0.7-0.7c0.3-0.1,0.7-0.1,1,0c0.3,0.1,0.5,0.3,0.6,0.6
			c0.2,0.5,0.6,0.9,0.9,1.3c0.4,0.4,0.8,0.7,1.3,0.9c0.4,0.2,0.9,0.3,1.4,0.4s0.9,0,1.4-0.1c0.5-0.1,0.9-0.3,1.3-0.5
			s0.8-0.5,1.1-0.9l-4.7-2.1c-0.3-0.2-0.6-0.4-0.7-0.7c-0.1-0.3-0.1-0.7,0-1c0.2-0.3,0.4-0.6,0.7-0.7c0.3-0.1,0.7-0.1,1,0L152,38.3z
			"/>
			<path d="M170.1,57.5c-0.2,0.3-0.5,0.5-0.8,0.6c-0.4,0.1-0.7,0-1-0.2c-0.3-0.2-0.5-0.5-0.6-0.8c-0.1-0.4,0-0.7,0.2-1l4-6
			c0.2-0.3,0.4-0.7,0.4-1.1c0.1-0.4,0.1-0.8,0-1.2c-0.1-0.4-0.2-0.7-0.4-1.1s-0.5-0.6-0.9-0.9c-0.3-0.2-0.7-0.4-1.1-0.4
			c-0.4-0.1-0.8-0.1-1.2,0c-0.4,0.1-0.7,0.2-1.1,0.4c-0.3,0.2-0.6,0.5-0.8,0.8l-4,6c-0.2,0.3-0.5,0.5-0.8,0.6s-0.7,0-1-0.2
			c-0.3-0.2-0.5-0.5-0.6-0.8s0-0.7,0.2-1l4-6c0.2-0.3,0.4-0.7,0.4-1.1c0.1-0.4,0.1-0.8,0-1.2s-0.2-0.7-0.4-1.1
			c-0.2-0.3-0.5-0.6-0.8-0.8c-0.3-0.2-0.7-0.4-1.1-0.4c-0.4-0.1-0.8-0.1-1.2,0s-0.7,0.2-1.1,0.4c-0.3,0.2-0.6,0.5-0.8,0.8l-4,6
			c-0.2,0.3-0.5,0.5-0.8,0.6s-0.7,0-1-0.2c-0.3-0.2-0.5-0.5-0.6-0.8s0-0.7,0.2-1l6.3-9.7c0.2-0.3,0.5-0.5,0.8-0.6s0.7,0,1,0.2
			c0.2,0.2,0.4,0.4,0.5,0.6c0.1,0.3,0.1,0.5,0,0.8c1.1,0,2.1,0.3,3.1,0.9c0.7,0.5,1.3,1,1.7,1.7s0.7,1.5,0.8,2.3
			c1.7-0.5,3.3-0.3,4.7,0.7c0.6,0.4,1.2,0.9,1.6,1.6s0.7,1.3,0.8,2s0.2,1.4,0,2.2s-0.4,1.4-0.8,2.1L170.1,57.5z"/>
			<path d="M185.8,63.9c-1.3,1.5-2.9,2.3-4.9,2.4c-2,0.1-3.7-0.5-5.1-1.8c-1.5-1.3-2.3-2.9-2.4-4.9c-0.1-2,0.5-3.7,1.8-5.1
			c1.3-1.5,2.9-2.3,4.9-2.4s3.7,0.5,5.1,1.8c1.5,1.3,2.3,2.9,2.4,4.9c0.1,1-0.1,1.9-0.4,2.8C187,62.3,186.5,63.1,185.8,63.9z
			 M183.5,55.8c-0.5-0.4-1-0.7-1.5-0.9c-0.6-0.2-1.1-0.3-1.7-0.2s-1.1,0.2-1.6,0.4c-0.5,0.3-1,0.6-1.4,1.1c-0.4,0.5-0.7,1-0.9,1.5
			s-0.3,1.1-0.2,1.7c0,0.6,0.2,1.1,0.4,1.7s0.6,1,1.1,1.4c0.5,0.4,1,0.7,1.5,0.9c0.6,0.2,1.1,0.3,1.7,0.2c0.6,0,1.1-0.2,1.7-0.4
			c0.5-0.2,1-0.6,1.4-1.1c0.4-0.5,0.7-1,0.9-1.5c0.2-0.6,0.3-1.1,0.2-1.7c0-0.6-0.2-1.1-0.4-1.7S183.9,56.2,183.5,55.8z"/>
			<path d="M193.1,73.5l-3.4,2.9c-0.1,0.1-0.3,0.2-0.4,0.3c-0.2,0.1-0.3,0.1-0.5,0.1s-0.3-0.1-0.5-0.1c-0.2-0.1-0.3-0.2-0.4-0.3
			c-0.1-0.1-0.2-0.3-0.3-0.5s-0.1-0.3-0.1-0.5c0-0.2,0.1-0.3,0.1-0.5c0.1-0.2,0.2-0.3,0.3-0.4l8.7-7.6c0.1-0.1,0.3-0.2,0.4-0.3
			c0.2-0.1,0.3-0.1,0.5-0.1c0.2,0,0.3,0.1,0.5,0.1c0.2,0.1,0.3,0.2,0.4,0.3c0.1,0.1,0.2,0.3,0.3,0.4c0.1,0.2,0.1,0.3,0.1,0.5
			c0,0.2-0.1,0.3-0.1,0.5c-0.1,0.2-0.2,0.3-0.3,0.4l-3.4,2.9l4.3,4.9l3.4-2.9c0.1-0.1,0.3-0.2,0.4-0.3c0.2-0.1,0.3-0.1,0.5-0.1
			c0.2,0,0.3,0.1,0.5,0.1c0.2,0.1,0.3,0.2,0.4,0.3c0.1,0.1,0.2,0.3,0.3,0.5s0.1,0.3,0.1,0.5c0,0.2-0.1,0.3-0.1,0.5
			c-0.1,0.2-0.2,0.3-0.3,0.4l-8.7,7.6c-0.1,0.1-0.3,0.2-0.4,0.3c-0.2,0.1-0.3,0.1-0.5,0.1c-0.2,0-0.3-0.1-0.5-0.1
			c-0.2-0.1-0.3-0.2-0.4-0.3c-0.1-0.1-0.2-0.3-0.3-0.5c-0.1-0.2-0.1-0.3-0.1-0.5s0.1-0.3,0.1-0.5c0.1-0.2,0.2-0.3,0.3-0.4l3.4-2.9
			L193.1,73.5z"/>
			<path d="M205.5,91.7c0.2,0.3,0.3,0.6,0.3,1c0,0.3-0.2,0.6-0.5,0.9c-0.3,0.2-0.6,0.3-1,0.3c-1.7-0.4-3.1-1.3-4.2-2.7
			c-1.2-1.6-1.6-3.3-1.4-5.3s1.2-3.5,2.8-4.7s3.3-1.6,5.3-1.4c1.9,0.3,3.5,1.2,4.7,2.8c1.2,1.6,1.6,3.3,1.4,5.3
			c-0.1,1-0.4,1.8-0.9,2.6c-0.5,0.8-1.1,1.5-1.9,2.1c-0.3,0.2-0.6,0.3-1,0.3s-0.6-0.2-0.9-0.5l-6-8c-0.3,0.4-0.5,0.8-0.6,1.3
			c-0.1,0.5-0.2,0.9-0.2,1.4c0,0.5,0.1,0.9,0.2,1.4c0.1,0.5,0.4,0.9,0.7,1.3c0.3,0.4,0.7,0.8,1.1,1.1c0.4,0.3,0.9,0.5,1.4,0.6
			C205.1,91.3,205.3,91.4,205.5,91.7z M209.4,89.5c0.3-0.4,0.5-0.8,0.6-1.3s0.2-0.9,0.2-1.4c0-0.5-0.1-0.9-0.2-1.4
			c-0.2-0.5-0.4-0.9-0.7-1.3c-0.3-0.4-0.6-0.7-1-1c-0.4-0.3-0.8-0.5-1.3-0.6c-0.4-0.1-0.9-0.2-1.4-0.2c-0.5,0-0.9,0.1-1.4,0.3
			L209.4,89.5z"/>
			<path d="M223.1,102.8c0.5,0.7,0.7,1.5,0.9,2.3s0.1,1.6-0.1,2.4c-0.2,0.8-0.5,1.5-1,2.2c-0.5,0.7-1.1,1.2-1.8,1.7
			c-0.7,0.4-1.5,0.7-2.3,0.8c-0.8,0.1-1.6,0.1-2.4-0.1c-0.8-0.2-1.5-0.5-2.2-1c-0.7-0.5-1.2-1.1-1.7-1.8l-2.6-4.2
			c-0.1-0.2-0.2-0.3-0.2-0.5s0-0.3,0-0.5c0-0.2,0.1-0.3,0.2-0.5c0.1-0.1,0.2-0.3,0.4-0.4l15-9.2c0.2-0.1,0.3-0.2,0.5-0.2
			c0.2,0,0.3,0,0.5,0c0.2,0,0.3,0.1,0.5,0.2c0.1,0.1,0.3,0.2,0.4,0.4l4.1,6.7c0.1,0.2,0.2,0.3,0.2,0.5c0,0.2,0,0.3,0,0.5
			s-0.1,0.3-0.2,0.5c-0.1,0.1-0.2,0.3-0.4,0.4c-0.2,0.1-0.3,0.2-0.5,0.2c-0.2,0-0.3,0-0.5,0s-0.3-0.1-0.5-0.2
			c-0.1-0.1-0.3-0.2-0.4-0.4l-3.4-5.5l-4.4,2.7L223.1,102.8z M214.8,107.9c0.3,0.4,0.6,0.8,1,1c0.4,0.3,0.8,0.5,1.2,0.6
			c0.4,0.1,0.9,0.1,1.4,0c0.5-0.1,0.9-0.2,1.3-0.5c0.4-0.3,0.8-0.6,1-1c0.3-0.4,0.5-0.8,0.6-1.2c0.1-0.4,0.1-0.9,0.1-1.4
			c-0.1-0.5-0.2-0.9-0.5-1.3l-1.9-3l-6,3.7L214.8,107.9z"/>
			<path d="M218.3,115.1l18.6-2.3c0.7-0.1,1.1,0.2,1.4,0.7c0.3,0.5,0.2,1-0.2,1.6L226,129.4c-0.1,0.1-0.3,0.3-0.4,0.3
			c-0.3,0.2-0.7,0.2-1,0.1c-0.4-0.1-0.6-0.3-0.8-0.7c-0.2-0.3-0.2-0.7-0.1-1c0.1-0.2,0.1-0.3,0.2-0.5l4.2-4.9l-3.1-5.7l-6.4,0.8
			c-0.2,0-0.3,0-0.5-0.1c-0.4-0.1-0.6-0.3-0.8-0.7c-0.2-0.3-0.2-0.7-0.1-1c0.1-0.4,0.3-0.6,0.7-0.8
			C217.9,115.2,218.1,115.1,218.3,115.1z M229.9,120.5l4-4.7l-6.1,0.8L229.9,120.5z"/>
			<path d="M242.2,123.7c0.2-0.1,0.3-0.1,0.5-0.1c0.2,0,0.3,0,0.5,0.1c0.2,0.1,0.3,0.1,0.4,0.3c0.1,0.1,0.2,0.3,0.3,0.4l4.6,9.7
			c0.1,0.2,0.1,0.3,0.1,0.5s0,0.3-0.1,0.5c-0.1,0.2-0.1,0.3-0.3,0.4c-0.1,0.1-0.3,0.2-0.4,0.3c-0.2,0.1-0.4,0.1-0.5,0.1
			c-0.2,0-0.3,0-0.5-0.1c-0.2-0.1-0.3-0.1-0.4-0.3s-0.2-0.3-0.3-0.4l-4-8.5l-14.7,7c-0.2,0.1-0.3,0.1-0.5,0.1c-0.2,0-0.3,0-0.5-0.1
			s-0.3-0.1-0.4-0.3s-0.2-0.3-0.3-0.4c-0.2-0.4-0.2-0.7,0-1.1c0.2-0.3,0.4-0.6,0.8-0.8c0,0,0,0,0.1,0L242.2,123.7z"/>
			<path d="M245.5,157.5c0.4-0.3,0.7-0.7,1-1.1s0.4-0.8,0.5-1.3c0.1-0.5,0.2-0.9,0.1-1.4c0-0.5-0.1-0.9-0.3-1.4
			c-0.4-1-1.1-1.8-2.1-2.3c-0.3-0.2-0.5-0.4-0.6-0.7c-0.1-0.4-0.1-0.7,0-1c0.1-0.3,0.4-0.6,0.7-0.7c0.4-0.1,0.7-0.1,1.1,0.1
			c1.6,0.8,2.7,2,3.3,3.7c0.7,1.8,0.7,3.6-0.1,5.4s-2.1,3.1-3.9,3.8s-3.6,0.7-5.4-0.1s-3.1-2.1-3.8-3.9c-0.7-1.7-0.7-3.3-0.1-5
			c0.2-0.4,0.4-0.6,0.8-0.8c0.4-0.1,0.7-0.1,1,0c0.3,0.1,0.6,0.4,0.7,0.7c0.1,0.3,0.1,0.6,0,0.9c-0.2,0.5-0.3,1.1-0.3,1.6
			c0,0.5,0.1,1,0.3,1.5c0.2,0.4,0.4,0.8,0.7,1.2c0.3,0.4,0.7,0.7,1.1,0.9c0.4,0.3,0.8,0.4,1.3,0.6s0.9,0.2,1.4,0.1l-1.9-4.8
			c-0.1-0.4-0.1-0.7,0-1c0.1-0.3,0.4-0.6,0.7-0.7s0.7-0.1,1,0s0.6,0.4,0.7,0.7L245.5,157.5z"/>
			<path d="M247.3,183.4c-0.4,0.1-0.7,0.1-1-0.1s-0.6-0.4-0.7-0.8c-0.1-0.4-0.1-0.7,0.1-1c0.2-0.3,0.4-0.5,0.8-0.7l6.8-2.4
			c0.4-0.1,0.7-0.3,1-0.6c0.3-0.3,0.5-0.6,0.7-0.9c0.2-0.3,0.3-0.7,0.3-1.1s0-0.8-0.2-1.2c-0.1-0.4-0.3-0.7-0.6-1
			c-0.3-0.3-0.6-0.5-0.9-0.7c-0.3-0.2-0.7-0.3-1.1-0.3c-0.4,0-0.8,0-1.2,0.2l-6.8,2.4c-0.4,0.1-0.7,0.1-1-0.1
			c-0.3-0.2-0.6-0.4-0.7-0.8c-0.1-0.4-0.1-0.7,0.1-1c0.2-0.3,0.4-0.6,0.8-0.7l6.8-2.4c0.4-0.1,0.7-0.3,1-0.6
			c0.3-0.3,0.5-0.6,0.7-0.9s0.3-0.7,0.3-1.1c0-0.4,0-0.8-0.2-1.2c-0.1-0.4-0.3-0.7-0.6-1c-0.3-0.3-0.6-0.5-0.9-0.7
			c-0.3-0.2-0.7-0.3-1.1-0.3c-0.4,0-0.8,0-1.2,0.2l-6.8,2.4c-0.4,0.1-0.7,0.1-1-0.1c-0.3-0.2-0.6-0.4-0.7-0.8
			c-0.1-0.4-0.1-0.7,0.1-1s0.4-0.6,0.8-0.7l10.9-3.8c0.3-0.1,0.7-0.1,1,0.1c0.3,0.2,0.6,0.4,0.7,0.8c0.1,0.3,0.1,0.6,0,0.8
			c-0.1,0.3-0.2,0.5-0.5,0.7c0.9,0.7,1.5,1.5,1.9,2.6c0.3,0.8,0.4,1.6,0.3,2.4c-0.1,0.8-0.3,1.6-0.8,2.3c1.7,0.7,2.8,1.8,3.3,3.4
			c0.3,0.7,0.3,1.5,0.3,2.2c-0.1,0.8-0.2,1.5-0.6,2.1s-0.8,1.2-1.3,1.7c-0.6,0.5-1.2,0.9-1.9,1.1L247.3,183.4z"/>
			<path d="M257.5,197.5c-1.9,0.6-3.7,0.4-5.4-0.6c-1.7-1-2.9-2.4-3.4-4.2c-0.6-1.9-0.4-3.7,0.6-5.4s2.4-2.9,4.2-3.4
			c1.9-0.6,3.7-0.4,5.4,0.6c1.7,0.9,2.9,2.4,3.4,4.2c0.5,1.9,0.4,3.7-0.6,5.4c-0.5,0.9-1.1,1.6-1.8,2.1
			C259.2,196.8,258.4,197.2,257.5,197.5z M259.7,189.4c-0.2-0.6-0.5-1.1-0.8-1.6s-0.8-0.8-1.3-1.1c-0.5-0.3-1-0.4-1.6-0.5
			c-0.6-0.1-1.2,0-1.8,0.2c-0.6,0.2-1.1,0.4-1.6,0.8c-0.5,0.4-0.8,0.8-1.1,1.3c-0.3,0.5-0.4,1-0.5,1.6c-0.1,0.6,0,1.2,0.2,1.8
			c0.2,0.6,0.5,1.1,0.8,1.6s0.8,0.8,1.3,1.1s1,0.4,1.6,0.5s1.2,0,1.7-0.1c0.6-0.2,1.1-0.4,1.6-0.8c0.5-0.4,0.8-0.8,1.1-1.3
			c0.3-0.5,0.5-1,0.5-1.6C260,190.6,259.9,190,259.7,189.4z"/>
			<path d="M273.6,213.4c0.2,0,0.4,0,0.5,0c0.2,0,0.3,0.1,0.5,0.2c0.1,0.1,0.3,0.2,0.4,0.4s0.2,0.3,0.2,0.5c0,0.2,0,0.3,0,0.5
			c0,0.2-0.1,0.3-0.2,0.5c-0.1,0.1-0.2,0.3-0.3,0.4c-0.1,0.1-0.3,0.2-0.5,0.2l-5.9,1.3c0.5,0.4,1,0.9,1.3,1.4
			c0.3,0.5,0.5,1.1,0.7,1.8c0.4,1.7,0,3.2-1.1,4.7l0,0c-1.1,1.5-2.6,2.4-4.5,2.8c-1.9,0.4-3.7,0.2-5.3-0.7l0,0
			c-1.6-0.9-2.6-2.1-3-3.8c-0.3-1.3-0.1-2.5,0.5-3.7l-5.9,1.3c-0.2,0-0.4,0-0.5,0c-0.2,0-0.3-0.1-0.5-0.2c-0.1-0.1-0.3-0.2-0.4-0.4
			s-0.2-0.3-0.2-0.5c-0.1-0.4,0-0.7,0.2-1c0.2-0.3,0.5-0.5,0.8-0.6l5.9-1.3c-0.5-0.4-1-0.9-1.3-1.4c-0.3-0.5-0.5-1.1-0.7-1.8
			c-0.2-0.8-0.2-1.6,0-2.4c0.2-0.8,0.6-1.6,1.1-2.2c0.5-0.7,1.1-1.3,1.9-1.8c0.8-0.5,1.6-0.9,2.6-1.1c1-0.2,1.9-0.3,2.8-0.1
			c0.9,0.1,1.7,0.4,2.5,0.8s1.4,0.9,1.9,1.6s0.9,1.4,1,2.2c0.1,0.6,0.2,1.3,0.1,1.9c-0.1,0.6-0.3,1.2-0.6,1.8L273.6,213.4z
			 M265.6,211.6c-0.1-0.5-0.3-0.9-0.6-1.3s-0.7-0.7-1.2-0.9s-1-0.4-1.5-0.4s-1.1,0-1.7,0.1c-0.6,0.1-1.2,0.3-1.6,0.6
			c-0.5,0.3-0.9,0.6-1.2,1c-0.3,0.4-0.6,0.8-0.7,1.3c-0.1,0.5-0.2,0.9,0,1.4c0.1,0.5,0.3,0.9,0.6,1.3c0.3,0.4,0.7,0.7,1.2,0.9
			s1,0.4,1.5,0.4c0.6,0.1,1.1,0,1.7-0.1c0.6-0.1,1.1-0.3,1.6-0.6c0.5-0.3,0.9-0.6,1.2-1c0.3-0.4,0.6-0.8,0.7-1.3
			C265.7,212.6,265.7,212.1,265.6,211.6z M267.7,221c-0.1-0.5-0.3-0.9-0.6-1.3c-0.3-0.4-0.7-0.7-1.2-0.9c-0.5-0.2-1-0.4-1.5-0.4
			s-1.1,0-1.7,0.1c-0.6,0.1-1.1,0.3-1.6,0.6c-0.5,0.3-0.9,0.6-1.2,1c-0.3,0.4-0.6,0.8-0.7,1.3c-0.1,0.5-0.2,0.9-0.1,1.4
			s0.3,0.9,0.6,1.3c0.3,0.4,0.7,0.7,1.2,0.9c0.5,0.2,1,0.4,1.5,0.4c0.6,0.1,1.1,0,1.7-0.1c0.6-0.1,1.1-0.3,1.6-0.6
			c0.5-0.3,0.9-0.6,1.2-1c0.3-0.4,0.6-0.8,0.7-1.3C267.8,222,267.8,221.5,267.7,221z"/>
			<path d="M259.9,243.4c-0.1-0.4,0-0.7,0.2-1c0.2-0.3,0.5-0.5,0.9-0.5c-0.5-0.5-1-1.1-1.3-1.7c-0.3-0.6-0.5-1.3-0.7-2
			c-0.1-0.9-0.1-1.8,0.1-2.6s0.6-1.6,1.1-2.3c0.5-0.7,1.1-1.3,1.8-1.8c0.7-0.5,1.6-0.8,2.4-0.9l6.2-1c0.4-0.1,0.7,0,1,0.2
			c0.3,0.2,0.5,0.5,0.5,0.9c0.1,0.4,0,0.7-0.2,1c-0.2,0.3-0.5,0.5-0.9,0.5l-6.2,1c-0.5,0.1-1,0.3-1.5,0.6s-0.8,0.6-1.1,1
			c-0.3,0.4-0.5,0.9-0.6,1.4s-0.1,1-0.1,1.6c0.1,0.5,0.3,1,0.6,1.5s0.6,0.8,1.1,1.1c0.4,0.3,0.9,0.5,1.4,0.6c0.5,0.1,1,0.1,1.6,0.1
			l6.2-1c0.4-0.1,0.7,0,1,0.2c0.3,0.2,0.5,0.5,0.5,0.9c0.1,0.4,0,0.7-0.2,1s-0.5,0.5-0.9,0.5l-11.4,1.9c-0.4,0.1-0.7,0-1-0.2
			C260.2,244,260,243.7,259.9,243.4z"/>
			<path d="M273.2,244.9c0.2,0,0.3,0,0.5,0s0.3,0.1,0.5,0.2c0.1,0.1,0.2,0.2,0.3,0.4s0.1,0.3,0.2,0.5s0,0.4,0,0.5
			c0,0.2-0.1,0.3-0.2,0.5c-0.1,0.1-0.2,0.2-0.4,0.3s-0.3,0.1-0.5,0.2l-2.9,0.4c-0.4,0-0.8,0.2-1.1,0.4c-0.3,0.2-0.6,0.5-0.9,0.8
			c-0.2,0.3-0.4,0.6-0.5,1c-0.1,0.4-0.1,0.8-0.1,1.2c0.1,0.4,0.2,0.8,0.4,1.1c0.2,0.3,0.5,0.6,0.8,0.9c0.3,0.2,0.6,0.4,1,0.5
			c0.4,0.1,0.8,0.1,1.2,0.1l2.9-0.4c0.2,0,0.3,0,0.5,0c0.2,0,0.3,0.1,0.5,0.2c0.1,0.1,0.2,0.2,0.3,0.4c0.1,0.2,0.1,0.3,0.2,0.5
			c0,0.2,0,0.4,0,0.5s-0.1,0.3-0.2,0.5s-0.2,0.2-0.4,0.3c-0.2,0.1-0.3,0.1-0.5,0.2l-11.5,1.4c-0.2,0-0.3,0-0.5,0
			c-0.2-0.1-0.3-0.1-0.5-0.2c-0.1-0.1-0.2-0.2-0.3-0.4c-0.1-0.2-0.1-0.3-0.2-0.5c0-0.2,0-0.3,0-0.5c0-0.2,0.1-0.3,0.2-0.5
			c0.1-0.1,0.2-0.2,0.4-0.3c0.2-0.1,0.3-0.1,0.5-0.2l3.8-0.5c-0.7-0.8-1.1-1.8-1.2-2.9c-0.1-0.8,0-1.5,0.2-2.2s0.5-1.4,1-1.9
			c0.4-0.6,1-1,1.6-1.4c0.6-0.4,1.4-0.6,2.1-0.7L273.2,244.9z"/>
			<path d="M264.1,270.8l0.3,0c-0.6-0.6-1-1.3-1.3-2s-0.5-1.5-0.6-2.4c-0.1-2,0.4-3.7,1.7-5.2c1.3-1.5,2.9-2.3,4.9-2.4
			c2-0.1,3.7,0.4,5.2,1.7c1.5,1.3,2.3,2.9,2.4,4.9c0.1,1.9-0.4,3.7-1.7,5.2c-1.3,1.5-2.9,2.3-4.9,2.4l-5.8,0.4c-0.4,0-0.7-0.1-1-0.3
			s-0.4-0.5-0.5-0.9c0-0.4,0.1-0.7,0.3-1S263.8,270.8,264.1,270.8z M274,265.6c0-0.6-0.2-1.2-0.5-1.7c-0.3-0.5-0.6-1-1.1-1.3
			c-0.4-0.4-0.9-0.6-1.5-0.8c-0.6-0.2-1.1-0.3-1.7-0.2c-0.6,0-1.2,0.2-1.7,0.5c-0.5,0.3-1,0.6-1.3,1c-0.4,0.4-0.7,0.9-0.9,1.5
			s-0.3,1.1-0.2,1.8c0,0.6,0.2,1.2,0.5,1.7c0.3,0.5,0.6,1,1.1,1.3c0.4,0.4,0.9,0.7,1.5,0.8c0.6,0.2,1.1,0.3,1.7,0.2
			c0.6,0,1.2-0.2,1.7-0.5c0.5-0.3,1-0.6,1.3-1.1c0.4-0.4,0.7-0.9,0.9-1.5S274.1,266.2,274,265.6z"/>
		</g>
	</g>
</svg>
