<?xml version="1.0" encoding="utf-8"?>
<!-- Generator: Adobe Illustrator 26.0.3, SVG Export Plug-In . SVG Version: 6.00 Build 0)  -->
<!DOCTYPE svg PUBLIC "-//W3C//DTD SVG 1.1//EN" "http://www.w3.org/Graphics/SVG/1.1/DTD/svg11.dtd" [
	<!ENTITY ns_extend "http://ns.adobe.com/Extensibility/1.0/">
	<!ENTITY ns_ai "http://ns.adobe.com/AdobeIllustrator/10.0/">
	<!ENTITY ns_graphs "http://ns.adobe.com/Graphs/1.0/">
	<!ENTITY ns_vars "http://ns.adobe.com/Variables/1.0/">
	<!ENTITY ns_imrep "http://ns.adobe.com/ImageReplacement/1.0/">
	<!ENTITY ns_sfw "http://ns.adobe.com/SaveForWeb/1.0/">
	<!ENTITY ns_custom "http://ns.adobe.com/GenericCustomNamespace/1.0/">
	<!ENTITY ns_adobe_xpath "http://ns.adobe.com/XPath/1.0/">
]>
<svg version="1.1" id="Слой_1" xmlns:x="&ns_extend;" xmlns:i="&ns_ai;" xmlns:graph="&ns_graphs;"
	 xmlns="http://www.w3.org/2000/svg" xmlns:xlink="http://www.w3.org/1999/xlink" x="0px" y="0px" width="479.5px" height="346.7px"
	 viewBox="0 0 479.5 346.7" style="enable-background:new 0 0 479.5 346.7;" xml:space="preserve">
<style type="text/css">
	.st0{fill:#FFFFFF;}
	.st1{fill:#CAA77A;}
	.st2{fill:#FFDB1F;}
	.st3{opacity:0.23;fill:#3F2719;}
	.st4{fill:#B6B1AE;}
	.st5{fill:#FFDBAF;}
	.st6{fill:#9D7B51;}
	.st7{fill:none;stroke:#9D7B51;stroke-width:3.87;stroke-linecap:round;stroke-linejoin:round;stroke-miterlimit:10;}
	.st8{fill:#251707;}
	.st9{fill:none;stroke:#2D1F04;stroke-width:2.62;stroke-linecap:round;stroke-linejoin:round;stroke-miterlimit:10;}
	.st10{fill:none;stroke:#2D1F04;stroke-width:7.6;stroke-linecap:round;stroke-linejoin:round;stroke-miterlimit:10;}
	.st11{fill:#D3E5EA;}
	.st12{fill:#2D1F04;}
	.st13{fill:none;stroke:#2D1F04;stroke-width:2.7806;stroke-linecap:round;stroke-linejoin:round;stroke-miterlimit:10;}
	.st14{fill:url(#SVGID_1_);}
	.st15{fill:url(#SVGID_00000020396483757995845090000017663911860509267603_);}
	.st16{fill:#5F5F5F;}
	.st17{fill:url(#SVGID_00000171679938576348258350000013037720174757101229_);}
	.st18{fill:url(#SVGID_00000003827409454009131580000005787528478402239370_);}
	.st19{fill:url(#SVGID_00000055677368048919411490000008602327029346563475_);}
	.st20{fill:url(#SVGID_00000072252680184692565390000003276231248840073382_);}
	.st21{fill:#8C8C8C;}
	.st22{fill:#222222;}
	.st23{fill:#D2D2D2;}
	.st24{fill:#FAFAFA;}
	.st25{fill:none;stroke:#2D1F04;stroke-width:2.8223;stroke-linecap:round;stroke-linejoin:round;stroke-miterlimit:10;}
	.st26{fill:#6AD36A;}
	.st27{opacity:0.17;fill:#FFFFFF;}
</style>
<metadata>
	<sfw  xmlns="&ns_sfw;">
		<slices></slices>
		<sliceSourceBounds  bottomLeftOrigin="true" height="346.7" width="479.5" x="-198.2" y="299.4"></sliceSourceBounds>
	</sfw>
</metadata>
<g>
	<path class="st0" d="M89.7,346.7c-6.3,0-12.6-1.6-18.1-4.7l-58.3-32.2c-3.3-1.8-8.7-6.2-9.2-15.4c-0.2-0.2-0.4-0.5-0.5-0.7
		c-0.1-0.1-0.2-0.3-0.3-0.5c-0.4-0.6-0.7-1.2-1-1.8c-0.1-0.2-0.2-0.3-0.3-0.5c-0.4-0.8-0.7-1.7-1-2.5c-0.1-0.2-0.1-0.5-0.2-0.7
		c-0.2-0.7-0.3-1.3-0.4-1.9c0-0.3-0.1-0.5-0.1-0.8c-0.1-0.7-0.2-1.5-0.2-2.2c0-0.2,0-0.4,0-0.5V178.3c0-0.2,0-0.4,0-0.6
		c0-0.5,0.1-1.1,0.1-1.6c0-0.3,0.1-0.6,0.1-0.8c0.1-0.5,0.2-1,0.3-1.4c0.1-0.3,0.1-0.6,0.2-0.9c0.1-0.4,0.3-0.9,0.4-1.4
		c0.1-0.2,0.2-0.5,0.3-0.8c0.2-0.6,0.5-1.2,0.9-1.9c0.1-0.2,0.2-0.4,0.4-0.7c0.2-0.4,0.5-0.8,0.8-1.2c0.1-0.2,0.3-0.4,0.4-0.6
		c0.3-0.4,0.6-0.8,0.9-1.2c0.2-0.2,0.3-0.4,0.5-0.5c0.4-0.4,0.8-0.8,1.1-1.2c0.1-0.1,0.4-0.3,0.4-0.4c0.5-0.4,1-0.8,1.6-1.2
		c0.1,0,0.1-0.1,0.2-0.1c0.2-0.1,0.3-0.2,0.5-0.3c3-2,6.5-3.1,10.1-3.3l173-9c0.4,0,0.7,0,1.1,0c3.8,0,7.4,1.1,10.4,2.9
		c-3.2-12-6.2-25.5-6.9-39.8c-2.8-5-3.6-10.5-2.4-15.8c0.7-2.8,1.9-5.4,3.6-7.7c0.4-2.4,0.9-4.7,1.5-6.9c-1-1.1-1.9-2.4-2.4-3.9
		c-2-5.1-0.2-11,4.4-14.1c0.4-0.3,3.3-2.2,8-4.4c0.1-0.2,0.3-0.4,0.4-0.6c-0.4-1.2-0.7-2.5-0.9-3.8c0,0,0,0,0-0.1
		c-1-6.1-0.9-13,0.4-21c0.1-0.3,0.1-0.7,0.2-1c-1.5-1.2-2.9-2.8-3.9-4.9c-0.7-1.6-1.1-3.2-1.2-5c-0.1-1.7,0.1-4.4,2.2-9.7
		c0.6-1.4,1.2-2.8,1.7-4c1.5-3,3.8-6.7,8.1-8.4c1-0.4,2.1-0.7,3.2-0.8c0.5-0.1,1-0.1,1.5-0.1c1.6,0,3.7,0.2,12.8,2.3
		c2.1,0.5,4.5,1.1,7.3,1.8c8.7,2.2,17.9,5.8,24.6,8.6c0.8-0.3,1.5-0.6,2.3-0.9c3.9-1.3,8.1-2,12.6-2c0,0,0.1,0,0.1,0
		c1.8,0,3.4,0.4,5,1.1c3.2,1.4,5.7,4.2,6.6,7.8c0.1,0.5,0.2,1,0.3,1.4c0.4,0.5,0.8,1.1,1.2,1.6c1.2,0.1,2.4,0.5,3.5,0.9
		c0.4,0.2,0.8,0.4,1.2,0.6c3,1.7,4.5,4.1,5.3,5.3c2.9,0.3,6.5,0.8,11.3,1.6c7.6,1.3,23.2,5.7,39.4,12.2c3.7,1.5,6.6,2.7,9,4
		c0,0,0.1,0,0.1,0c0.3,0.2,0.6,0.3,0.9,0.5c0,0,0.1,0,0.1,0.1c1.3,0.7,2.9,1.8,4.4,3.3c8.3,6.6,16.3,16.5,18.6,21
		c1.7,3.4,2.7,7.7,3,12.8c2.5,4.1,5,8.5,7.2,13.1c0.3,0.5,0.5,1.1,0.7,1.6c8.9,14.1,18.6,24.7,28.1,34.9c3.9,4.2,7.6,8.2,11.2,12.4
		c20.8,24.2,34.7,43.4,39.4,64.5l0.1,0.2c0.1,0.3,0.2,0.7,0.2,1c0.2,1.2,0.4,2.3,0.6,3.4l0,0.2c0.4,2.3,0.7,4.6,0.8,6.8
		c0,0,0,0.1,0,0.2c0.1,1.1,0.1,2.1,0.2,3.2c0,0,0,0.1,0,0.1c0.1,2.2,0.1,4.4,0,6.5l0,0.1c-0.1,2.1-0.3,4.2-0.6,6.3c0,0,0,0.1,0,0.1
		c-0.3,2.1-0.7,4.1-1.2,6c0,0,0,0.1,0,0.1c-1.5,5.9-3.7,11.3-6.7,15.9c-0.5,0.9-1,1.8-1.5,2.6c-0.1,0.2-0.3,0.4-0.4,0.6
		c-0.6,1-1.3,1.9-2,2.8c-0.1,0.1-0.2,0.3-0.3,0.4c-1.6,2-3.5,4-5.5,5.7c-0.1,0.1-0.2,0.1-0.2,0.2c-0.8,0.7-1.7,1.4-2.7,2.1
		c-0.2,0.1-0.7,0.5-0.7,0.5c-0.8,0.6-1.6,1.1-2.4,1.6c-0.3,0.2-0.5,0.3-0.8,0.5c-0.8,0.5-1.6,1-2.4,1.4l-0.7,0.4
		c-0.9,0.5-1.9,1-2.8,1.5l-0.3,0.2c-2,1-4.2,1.9-6.5,2.8l-0.6,0.2c-0.9,0.3-1.7,0.6-2.6,0.9l-0.8,0.3c-0.8,0.3-1.7,0.5-2.5,0.8
		l-0.7,0.2c-0.9,0.3-1.8,0.5-2.7,0.8l-0.4,0.1c-0.5,0.1-1.1,0.3-1.6,0.4c-1.7,2-4.1,3.6-7.4,4.4c-2.4,0.6-4.8,1-7.4,1.4
		c-0.3,0-0.5,0.1-0.8,0.1c-2.9,0.3-5.5,0.4-7.6,0.5c-0.2,0-0.5,0-0.7,0c-1.1,2-2.1,4.9-3.1,9.1c-0.3,1.3-0.6,2.7-0.9,4
		c-0.2,1-0.4,2-0.6,3c-1,4.8-2.1,10.1-3.7,15.6c-1.5,5-6.1,8.4-11.4,8.4l-177.2,0l-115.4,12C92.3,346.7,91,346.7,89.7,346.7z"/>
	<g>
		<g>
			<g>
				<path class="st1" d="M390.7,194.9c0.4,13.6,35,40.4,70.4,59c-11.8,25.6-56.7,24.3-62.2,30.1c-8.2,8.5-8.2,23.6-12.8,38.9
					c-41.1,0-191.9,0-202.9,0c-2.1-4.4-3.9-10.4-2.8-20.6c0.1-0.8,0.2-1.6,0.3-2.4c2.1-13.5,6.6-28.1,15.5-45.2
					c0.2-0.4,0.4-0.8,0.6-1.2c0.1-0.2,0.2-0.4,0.3-0.6c0.4-0.7,0.7-1.4,1.1-2.1c0.2-0.3,0.3-0.6,0.5-0.9c0.1-0.1,0.1-0.3,0.2-0.4
					c0.1-0.1,0.2-0.3,0.2-0.4s0.2-0.3,0.2-0.4c0.1-0.2,0.2-0.3,0.3-0.5v0c-0.2-0.5-0.3-1-0.4-1.5c0,0,0,0,0,0c0-0.2-0.1-0.3-0.1-0.5
					c0,0,0,0,0,0c0,0,0,0,0,0c0,0,0,0,0,0c-0.1-0.8-0.2-1.6-0.3-2.4l0,0c-0.1-1.1-0.1-2.2,0-3.4c0.6-14.3,9.2-33.6,9.4-34.7
					c0.2-1.1-1.9-3.3-0.7-5.4c0.6-1.1,3.2-4.3,4-4.4c0,0,0,0,0,0c0.1,0.1,0.1,0.3,0,0.8c0.1,0,0.1,0,0.2,0.1c1,0.4,2.1,0.8,3.2,1.1
					c-0.2,0.7-0.4,1.3-0.5,1.9h0c0.2-0.6,0.3-1.2,0.5-1.9c0.9,0.3,1.8,0.6,2.7,0.9c0.4,0.1,0.9,0.3,1.3,0.4c0.4,0.1,0.8,0.3,1.3,0.4
					c6.4,2,14.3,4,23.5,5.6c0.2,0,0.5,0.1,0.8,0.1c0.4,0.1,0.8,0.1,1.2,0.2c6,1.1,10.8,1.7,16.1,2c0.1,0,0.2,0,0.3,0
					c3.2,0.2,6.5,0.4,10.5,0.5c19.4,0.6,33.6-2,36.6-2.6c0.4-0.1,0.9-0.2,1.3-0.3c10-3.1,17.5-6.3,24.8-9.9c4.1-2,8.8-5.2,13.2-7.6
					c0.2-0.1,0.4-0.2,0.6-0.3c7.1-3.8,14.7-4.5,20.1-3.8c0,0,0,0,0,0C383.1,186.2,390.7,194.9,390.7,194.9z"/>
				<path class="st1" d="M169,228.3c-12.4,18.6-50.3,31.9-51.9,61.2c22.1,15.2,67.3,15.9,67.3,15.9c6-34.1,34.4-54.8,26.3-69.4
					C202.6,221.4,180.6,218.6,169,228.3z"/>
				<g>
					<path class="st2" d="M216.7,190.8c-0.7,3.1-1.7,6.7-2.3,9c-0.8,0-3.8,2.8-4.6,3.8c-1.5,1.9,0.3,4.4-0.1,5.5
						c-0.3,0.9-5.6,24.6-9.4,37.8c-8.1-4.2-26.8-13.5-30.4-17.7c-0.3-0.3-0.5-0.6-0.8-0.8c-0.8-0.9-1.7-6,2.1-8.2
						c0.5-1.2,1.1-2.4,1.7-3.8C184.1,192.1,200.3,185.5,216.7,190.8L216.7,190.8z"/>
				</g>
				<g>
					<path class="st3" d="M216.7,190.8c-0.7,3.1-1.7,6.7-2.3,9c-0.8,0-3.8,2.8-4.6,3.8c-1.5,1.9,0.3,4.4-0.1,5.5
						c-0.3,0.9-5.6,24.6-9.4,37.8c-3.4-1.7-8.6-4.4-13.8-7.2c2.9,0.9,5.9,0.8,6.6-1.3c0.9-2.8,1.1-5.6-0.8-6.5
						c2.6-0.1,5.6-11.4,7.6-17.1c1.8-5.2,7.7-21.5,15.2-24.4C215.5,190.4,216.1,190.6,216.7,190.8L216.7,190.8z"/>
				</g>
				<path class="st1" d="M373.3,195c-6.9,1.8-13.2,3.9-21.9,6c-13.7,3.3-26.3,7.6-40.1,8.8c-3,0.3-17.2-0.8-36.6-1.6
					c-12.6-0.5-21.5-1.5-32.3-3.2c-13.7-2.1-21.1-5-30.6-8.2c0.2-0.6,3.8-7.9,3.6-7.9c0.6-2.3,1.4-6,2.1-9.1l0,0
					c0.6-2.9,1-5.6,0.8-5.7c-0.8,0-1.5,0.7-2,1.5c-1.4-4.5,2.4-7.2,2.6-9.6c0-0.5-1.4-0.1-2.5,1.5c0.3-3.5,1.8-4.2,1.9-5.5
					c0.1-2.5-0.9-5.4-1.6-7.7c-7.5-27.2-21.2-80,22.2-106.5c-1.8-3.9-7.1-3-7.1-3c1-4.9,9.9-8.6,20.5-5.3c0.5-0.5-2.8-5.1,2.3-9.7
					c-0.1,4.1,2.8,8.5,4,6.8c4.5-10.2,12.4-14.8,22.6-14.8c-3.6,2.1-6,7.6-5.5,13c0,0,4.4-6.1,8.3-6.9c-4.5,5.6-2,9.6-0.2,10.4
					c1.5,0.7,8.7-1.5,9.1-4.7c1.8,1,0.6,4.8,16,13.5C374.1,83.9,381.3,154,373.3,195z"/>
				<path class="st4" d="M277.4,287.3c-0.1-0.3-0.3-0.5-0.4-0.8"/>
				<path class="st5" d="M214.7,81.2c4.2-9,17.3-13.8,25.4-17.2c9.4-4.1,40.6-4,36.4-13.7c10.1,3.4,15.8,14.1,24.8,15.9
					c9.4,1.9,29.3,11.6,40.5,36.6c2.2,5,8.4,45.9-25.5,60.1c-25.9,10.8-80.4,5.1-98-29.2C209.9,117.6,208.1,98.3,214.7,81.2z"/>
				<path class="st6" d="M263.3,88.8c-7.1-5.5-17.1,13.1-18.9,18.7c-4.5,14.3-1.1,22.8,6.9,27c8,4.3,19.1,5,28.5,1.3
					c23.7-9.3,8.2-48.6-6.7-45.8"/>
				<path class="st6" d="M211.3,112.8c14.2,1.6,50.5-7.7,41.5-53.2c-9.7-0.6-19.2,0.9-31.9,8.4C210.7,82.2,209.7,99.2,211.3,112.8z"
					/>
				<path class="st6" d="M297.2,68.4c-26.6,62.3,42.4,70.9,42.4,70.9s10.3-23.2-0.3-44.2C332.8,82.2,316.1,70.8,297.2,68.4z"/>
				<g>
					<line class="st7" x1="236.9" y1="178.7" x2="236.4" y2="185.3"/>
					<line class="st7" x1="229.9" y1="181.6" x2="229.4" y2="188.3"/>
				</g>
				<path class="st3" d="M233.2,43.1c-0.1,0-0.3,0.1-0.4,0.1c-0.1,0-0.1,0.1-0.1,0.2"/>
				<path class="st8" d="M257.5,88.1c0.4-2.7,5.7-4.2,11.9-3.3c6.2,0.9,10.8,3.8,10.4,6.5s-5.7,4.2-11.9,3.3
					C261.8,93.7,257.1,90.8,257.5,88.1z"/>
				<path class="st9" d="M211.5,195.9c2.9-6.8,7.2-21.5,6.8-21.8c-0.8,0-1.5,0.7-2,1.5c-1.4-4.5,2.4-7.2,2.6-9.6
					c0-0.5-1.4-0.1-2.5,1.5c0.3-3.5,1.8-4.2,1.9-5.5c0.1-2.5-0.9-5.4-1.6-7.7c-7.5-27.2-21.2-80,22.2-106.5c-1.8-3.9-7.2-3-7.2-3
					c1-4.9,9.9-8.6,20.5-5.3c0.5-0.5-2.8-5.1,2.3-9.7c-0.1,4.1,2.8,8.5,4,6.8c4.5-10.2,12.4-14.8,22.6-14.8c-3.6,2.1-6,7.6-5.5,13
					c0,0.1,4.4-6,8.3-6.9c-4.8,4.9-2.2,9.5-0.3,10.3c1.5,0.7,8.9-1.4,9.3-4.6c1.8,1,0.6,4.8,16,13.5C374.4,84,381.4,154.1,373.3,195
					"/>
				<path class="st9" d="M267.1,94c-1.4,4.4-1.7,10.6-0.6,17.3"/>
				<path class="st3" d="M251.5,277.6c-0.2-0.1-0.4-0.2-0.5-0.3"/>
				<path class="st3" d="M373.3,195c-6.1,1.7-16.1,4.5-21.9,6c7.4-30.8,8.8-78.9-9.4-110.7c-12.8-22.4-31.7-33.8-48.8-38.8
					c-1.5-0.4-3.7-3.3-6-3.5c0.1,1.1-0.8,1.8-2,1.6c-1.6-0.3-4.7-1.7-3.6-4.5c-3.2-0.2-4.7,3.3-6.5,3.2c-1.8-0.1-3.7-4.5-7.7-4.9
					c1.5,3.4-1.9,5.3-4.2,5.8c-2.8,0.5-4.2-1.1-3.3-2.6c-2.8-0.2-4.2,2.2-10.3,3.8c-9.4,2.4-18.9,6.1-27.3,11.6
					c4.2-5.2,9.6-10,16.4-14.1c-1.8-3.9-7.1-3-7.1-3c1-4.9,9.9-8.6,20.5-5.3c0.5-0.5-2.8-5.1,2.3-9.7c-0.1,4.1,2.8,8.5,4,6.8
					c4.5-10.2,12.4-14.8,22.6-14.8c-3.6,2.1-6,7.6-5.5,13c0,0,4.4-6.1,8.3-6.9c-4.5,5.4-2,9.6-0.2,10.4c1.5,0.7,8.7-1.5,9.2-4.7
					c1.8,1,0.6,4.8,16,13.5C374.1,83.9,381.3,154,373.3,195z"/>
				<path class="st9" d="M245.1,223.6"/>
				<path class="st9" d="M260.3,180.5"/>
				<path class="st10" d="M260.4,66.5c-28.6-8.9-52.3,7.3-52.3,7.3"/>
				<path class="st10" d="M288.1,72.3c41.3-0.4,56.9,21.8,56.9,21.8"/>
				<g>
					<path class="st8" d="M252.7,123.8c1.4-3.7,3.2-9.8,1.1-15.5c4.1,2.2,12,2.3,12.7,0.5c1.9,1.3,8.1,0.3,11.4-2.7
						C283.4,131.8,261.2,130.3,252.7,123.8z"/>
					<path class="st0" d="M252.6,124.1c0.8-2.3,1.2-3.6,1.7-5.6c4.7,2.1,13.3,3.8,20.4-1.3c0.8,1,1.5,2.9,0.3,7.4
						C269.7,129.5,259.7,128.9,252.6,124.1z"/>
					<path class="st0" d="M274.6,117.1c-5.6,4.7-14.9,4-20.4,1.3c0.3-2.5,0.6-7.1-0.4-9.7c4.4,1.1,10,1.3,12.7,0.5
						c3.3,0,7.1-1.2,9.2-2C276.4,109.8,275.8,115.2,274.6,117.1z"/>
					<path class="st11" d="M274.9,124.4c-2.1,2.1-5.1,3.2-8.4,3.4l0-1.1c4-0.6,4.9-3.7,5-5.3c0.1-1.5-1.8-1.7-6-1.1
						c5.7-1.1,6.7-4.4,7.1-6c0.5-1.7,0.7-3.8-0.7-3.3c-1.3,0.5-4.8,1.2-9.2,1.1c-2.5,0-6.7-0.8-7,0.4c-0.3,1.4-0.5,2.9-0.6,4.5
						c0,1.6,2.1,2.7,4.6,3c-0.2,0-4.5-0.9-5.2,0.2c-0.4,0.7-1.9,2.8,3.2,4.8l-0.3,1.3c-1.7-0.6-3.4-1.5-4.9-2.5
						c0.8-2.3,1.2-3.6,1.7-5.6c0.3-2.5,0.6-7.1-0.4-9.7c4.4,1.1,10,1.3,12.7,0.5c3.3,0,7.1-1.2,9.2-2c0.6,2.6-0.1,8-1.3,9.9
						C275.4,118.1,276.1,119.9,274.9,124.4z"/>
					<path class="st9" d="M253.8,108.3c7.8,3,17.1,1.7,24.2-2.2c5.7,25.9-16.7,24.1-25.3,17.7"/>
				</g>
				<g>
					<g>
						<path class="st0" d="M243.8,92.9c-2,5.2-7.8,1.2-14.1,0.1c-7.3-1.3-14.8,0.4-12.7-7.8c1.5-6.1,8.4-7.3,17.7-5.6
							C243.9,81.2,246.3,86.4,243.8,92.9z"/>
						<path class="st11" d="M244.2,91.6c-1.6-6.2-7-8.2-14.2-8.4c-7.7-0.2-11.7,2.1-13.4,5.6c-0.1-1.1,0-2.4,0.3-3.7
							c1.5-6.1,8.4-7.2,17.7-5.6C243.3,81.1,246,85.7,244.2,91.6z"/>
						<path class="st12" d="M224.8,86.6c0.7-3.4,3.9-5.5,7.3-4.9c3.4,0.7,5.5,3.9,4.9,7.3c-0.7,3.4-3.9,5.5-7.3,4.9
							C226.3,93.2,224.2,90,224.8,86.6z"/>
						<path class="st9" d="M243.8,92.9c-2,5.1-7.8,1.4-14.1,0.1c-7.3-1.6-14.8,0.5-12.7-7.8c1.5-6.1,8.4-7.3,17.7-5.6
							C243.9,81.2,246.3,86.4,243.8,92.9z"/>
					</g>
					<circle class="st0" cx="226.9" cy="84.3" r="2.7"/>
					<circle class="st0" cx="227.1" cy="89" r="1"/>
				</g>
				<path class="st2" d="M390.7,194.9c0,0-7.5-8.7-21.7-11.3c0,0,0,0,0,0c-5.3-0.7-13,0-20.1,3.8c-0.2,0.1-0.4,0.2-0.6,0.3
					c-4.3,2.4-9.1,5.5-13.2,7.6c-7.2,3.6-14.8,6.8-24.8,9.9c-0.4,0.1-0.9,0.2-1.3,0.3c-3,0.6-17.1,3.3-36.6,2.6
					c-4-0.1-7.3-0.3-10.5-0.5c-0.1,0-0.2,0-0.3,0c-5.3-0.4-10.1-1-16.1-2c-0.4-0.1-0.8-0.1-1.2-0.2c-0.3,0-0.5-0.1-0.8-0.1
					c-9.2-1.6-17-3.6-23.5-5.6c-0.4-0.1-0.9-0.3-1.3-0.4c-0.5-0.1-0.9-0.3-1.3-0.4c-0.9-0.3-1.8-0.6-2.7-0.9
					c-0.2,0.7-0.4,1.3-0.5,1.9h0c0.2-0.6,0.3-1.2,0.5-1.9c-1.1-0.4-2.2-0.8-3.2-1.1c-0.1,0-0.1,0-0.2-0.1c0.1-0.4,0.1-0.7,0-0.8
					c0,0,0,0,0,0c-0.8,0.1-3.4,3.3-4,4.4c-1.2,2.1,0.9,4.3,0.7,5.4c-0.2,1.1-8.9,20.4-9.4,34.7c0,1.2,0,2.3,0,3.4l0,0
					c0,0.8,0.1,1.6,0.3,2.4c0,0,0,0,0,0c0,0,0,0,0,0c0,0,0,0,0,0c0,0.2,0.1,0.3,0.1,0.5c0,0,0,0,0,0c0.1,0.5,0.2,1,0.4,1.5v0
					c-0.1,0.2-0.2,0.3-0.3,0.5c-0.1,0.1-0.2,0.3-0.2,0.4c-0.1,0.1-0.2,0.3-0.2,0.4c-0.1,0.1-0.1,0.3-0.2,0.4
					c-0.2,0.3-0.3,0.6-0.5,0.9c-0.4,0.7-0.7,1.4-1.1,2.1c-0.1,0.2-0.2,0.4-0.3,0.6c-0.2,0.4-0.4,0.8-0.6,1.2
					c-8.9,17.1-13.4,31.7-15.5,45.2c-0.1,0.8-0.2,1.6-0.3,2.4c-1,10.2,0.8,16.2,2.8,20.6c11,0,161.8,0,202.9,0
					c4.6-15.3,4.6-30.4,12.8-38.9c2.5-2.6,8.9-0.2,20.5-3c4.7-1.1-5.3-5-10.7-20.1c-6.2-17.2-9.7-36.8-11.7-53.6
					C393,202.6,390.8,198.3,390.7,194.9z"/>
				<path class="st4" d="M263.9,120.5c0.5,0,1,0,1.4-0.1C264.9,120.5,264.4,120.5,263.9,120.5z"/>
				<path class="st0" d="M263.9,120.5c0.5,0,1,0,1.4-0.1C264.9,120.5,264.4,120.5,263.9,120.5z"/>
				<path class="st0" d="M263.9,120.5c0.5,0,1,0,1.4-0.1C264.9,120.5,264.4,120.5,263.9,120.5z"/>
				<g>
					<g>
						<path class="st12" d="M222.3,239.7c8.1,0.9,15.6,1.4,23.1,2.3c6.2,0.7,8.4,4.9,7.4,8.7c-1.4,5.2-6.4,8.4-13.2,9.5
							c-0.4,0.1-0.7,0.1-1.4,0.2c5,3.9,2.6,10.5,7.8,16.9c-5.6-0.7-10.5-1.4-15.7-2.1c-2.4-4-3.2-7.9-3.3-11.6c0-2-0.6-3.6-4.2-3.4
							c-3.1,4.2-6,8.6-6.2,13.4c-4.4-0.5-8.1-0.9-11.8-1.2C208.4,259.7,219.9,252.7,222.3,239.7z M231.8,247.3
							c-1,2.2-2.3,4.1-4.1,6.5c2.6,0.2,5,0.4,7.6,0.4c2.3,0,4.2-1.1,5.2-2.7c1-1.7,0.4-3.1-1.7-3.6
							C236.6,247.6,234.2,247.5,231.8,247.3z"/>
						<path class="st12" d="M286.7,255.8c-3.6-0.1-6.9-0.3-10.5-0.4c0.3-3.1-1.3-5-4.3-5.4c-1.9-0.2-3.6,0.2-4.8,2.3
							c-0.4,1.8,0.6,2.5,2,3c2.4,1,4.9,1.9,7.3,2.9c1.3,0.6,2.6,1.3,3.8,2c7.4,4.8,3.9,14.6-2,18.6c-2,1.3-4.6,2.1-7.3,2.2
							c-4.4,0.2-9.5-0.6-14.5-2.3c-6.7-2.3-10.8-7.3-8.3-12.9c3.9,0.3,7.7,0.6,11.7,0.9c0,0.7,0,1.4,0,2c0.4,3.5,4.6,5.6,8.5,4.8
							c1.8-0.4,3.1-1.3,3.5-2.9c0.4-1.5-0.2-2.7-1.5-3.4c-1.1-0.6-2.4-1.1-3.6-1.6c-2.5-1.1-5.1-2-7.4-3.3c-4.3-2.5-4.9-6-3.2-9.9
							c1.9-4.3,4.9-7.8,9.6-8.9c4.4-1,9.1-0.8,14,1.1C284.9,246.5,287.5,250.2,286.7,255.8z"/>
					</g>
				</g>
				<path class="st3" d="M190.5,267.4c4.1-4.2,8.8-6.6,11.2-7.9c5-2.7,11-2.5,16.2-1.3c14.2,3.2,39.7,13.4,54.2,16.5
					c26.6,5.6,50.6-2.4,48.2-6.7c-2-3.5-42.9,3.4-57.6-3c-13-5.7-34-8.2-47.6-11.5c-3.3-0.8-13.9-4.4-16.3-9.7
					c-0.1,2.2,0.3,2.9,0.9,4.2C198.3,250.6,195.4,255.3,190.5,267.4z"/>
				<path class="st9" d="M211.7,196.8c0.2-0.7,0.1-1-0.2-0.9c-0.8,0.1-3.4,3.4-4,4.4c-1.2,2.1,0.9,4.3,0.7,5.4
					c-0.2,1.3-12.9,29.4-8.5,42.9"/>
				<path class="st9" d="M208.8,205.1c6.2,4.8,18.5,8.1,31.6,10.7c17.9,3.5,43.7,6,72.2,1.2"/>
				<path class="st9" d="M218.6,199.6c-0.8,1.9-1.6,3.3-1.7,5.4"/>
				<path class="st9" d="M230.1,202.9c-1,1.7-1.4,4-1.5,5.9"/>
				<polyline class="st9" points="287.2,209.2 287.1,209.7 287.1,210.2 287,211.3 287,211.8 				"/>
				<polyline class="st9" points="291.1,209.5 291,210.3 290.9,211.1 290.9,211.6 				"/>
				<path class="st9" d="M175.1,233.2c-2.5-1.6-4.4-3-5.3-4.1c-0.3-0.3-0.5-0.6-0.8-0.8c-0.8-0.9-1.7-5.8,2.1-8.2
					c0.5-1.2,1.1-2.4,1.7-3.8c10.2-21.9,24.5-29.5,39.2-26.8"/>
				<path class="st9" d="M171.1,220.1c5,3.4,14.2,8.8,23.8,12.9"/>
				<path class="st9" d="M178.5,224.7c-1.2,0.6-2.2,2.9-2.4,4"/>
				<path class="st9" d="M185.2,228.4c-0.8,0.6-1.5,2.4-1.6,3.1"/>
				<path class="st13" d="M183.2,322.9c-2.2-4.7-4.3-11.6-2.6-23c2.3-15.3,7.8-31.9,19.1-51.9"/>
				<path class="st9" d="M211.7,196.7c10.8,4,28.8,9.2,52.3,11.1c19.4,1.5,37.7,0.1,45.3-2.2c10.5-3.2,18.4-6.6,25.9-10.3
					c4.2-2.1,9.3-5.5,13.7-7.9c7.1-3.8,21.9-10,41.8,7.5"/>
				
					<radialGradient id="SVGID_1_" cx="225.4222" cy="1037.5093" r="23.0654" gradientTransform="matrix(0.9924 0.123 -7.167470e-02 0.5782 170.5974 -509.7452)" gradientUnits="userSpaceOnUse">
					<stop  offset="0" style="stop-color:#FF8A8A;stop-opacity:0.5"/>
					<stop  offset="1" style="stop-color:#FF8A8A;stop-opacity:0"/>
				</radialGradient>
				<path class="st14" d="M343.8,120.7c-0.9,7.8-12.3,12.8-25.5,11.3c-13.2-1.5-23.1-9.1-22.2-16.8c0.9-7.8,12.3-12.8,25.5-11.3
					C334.8,105.4,344.7,112.9,343.8,120.7z"/>
				
					<radialGradient id="SVGID_00000081619271346687402440000015782380888054550185_" cx="-327.0172" cy="1494.9662" r="21.0367" gradientTransform="matrix(0.8263 0.2031 -0.1378 0.5661 700.2586 -676.3634)" gradientUnits="userSpaceOnUse">
					<stop  offset="0" style="stop-color:#FF8A8A;stop-opacity:0.5"/>
					<stop  offset="1" style="stop-color:#FF8A8A;stop-opacity:0"/>
				</radialGradient>
				<path style="fill:url(#SVGID_00000081619271346687402440000015782380888054550185_);" d="M242.1,107.9
					c-1.6,6.9-11.1,10.6-21.1,8.3c-10-2.4-16.8-9.9-15.2-16.9c1.6-6.9,11.1-10.6,21.1-8.3C237,93.4,243.8,100.9,242.1,107.9z"/>
				<path class="st3" d="M419.4,281c-11.6,2.8-18,0.4-20.5,3c-8.2,8.5-8.2,23.6-12.8,38.9h-23.9c9.2-27.9,18.5-68.9,16.9-85.8
					c5.2,11,17.6,14.1,26.4,14.1c1,3.3,2,6.6,3.2,9.7C414.1,276,424.1,279.9,419.4,281z"/>
				<g>
					<path class="st16" d="M357.2,70.5c-1.1,0.4-5.6-1.8-7.3-1.2c-1.8,0.6-9.5,21.9-27.1,24.8c-9.7,1.6-30.3-8.1-32.3-20
						c-1.1-6.5,4.1-25.2-3.3-27.3c-2-0.6-3.7-0.6-5.3-0.1c-4.1,1.2-7.1,5.6-10.7,10.8c-2.8,4.1-5.1,6.8-7.8,8.7c0,0,0,0,0,0
						c-2.1,1.4-4.4,2.2-7.5,2.8c-16.2,2.7-33.3-3.5-35.3-15.8c-1.9-11.5,2.2-24.4,1.9-25.5c-0.3-1.1-5.4-3-6.1-4.5
						c-0.6-1.2,3-10.5,4.5-11.1c0.5-0.2,4.7,0.5,17.6,3.7c12.9,3.2,28.2,10.2,35,13.7s10.5,6.3,12.1,7.1c1.6,0.7,4.8,1.8,8.4,3
						c2.3,0.7,6.9,0.5,19.5,2.6c7.2,1.2,22.3,5.6,37,11.5c5.8,2.3,9.9,4.1,10.7,5.6l0,0c0.1,0.1,0.1,0.2,0.1,0.3
						C361.8,61.6,358.3,70.1,357.2,70.5z"/>
					<path class="st16" d="M282.1,46.5c-0.7,10.7-9.2,15.8-18.5,19.5c2.7-1.8,5-4.6,7.8-8.7C275,52.1,277.9,47.7,282.1,46.5z"/>
					<path class="st16" d="M378.5,94.4c-1,7.6-6.9,1.9-6.9-1.4c0.1-4.5-1.3-10.2-1.8-11c-2.8-4-8.5-10-12.6-11.5
						c1.1-0.4,4.6-8.9,4.1-10.9c0-0.1-0.1-0.2-0.1-0.3c7.6,5.8,14.8,15.1,16.2,17.7C378.7,79.5,379.7,85.1,378.5,94.4z"/>
					<path class="st9" d="M361.3,59.6c-0.4-1.6-4.6-3.5-10.9-6c-14.7-5.9-29.8-10.3-37-11.5c-12.6-2.1-17.2-1.9-19.5-2.6
						c-3.6-1.2-6.8-2.3-8.4-3c-1.6-0.7-5.4-3.6-12.1-7.1s-22-10.5-34.9-13.7s-17-3.9-17.6-3.7c-1.5,0.6-5,9.9-4.5,11.1
						c0.7,1.5,5.8,3.4,6.1,4.5c0.3,1.1-3.8,14-1.9,25.5c2,12.2,19.1,18.5,35.3,15.8c7.2-1.2,10.4-4.3,15.4-11.4
						c5-7.2,8.6-12.8,16-10.8c7.4,2.1,2.2,20.7,3.3,27.3c2,11.9,22.6,21.7,32.3,20c17.6-2.9,25.3-24.2,27.1-24.8s6.2,1.6,7.3,1.2
						C358.3,70.1,361.8,61.6,361.3,59.6z"/>
					
						<ellipse transform="matrix(0.351 -0.9364 0.9364 0.351 170.567 371.8626)" class="st2" cx="353.6" cy="62.9" rx="1.9" ry="2.9"/>
					
						<ellipse transform="matrix(0.351 -0.9364 0.9364 0.351 127.3768 223.2142)" class="st2" cx="224.7" cy="19.7" rx="1.9" ry="2.9"/>
					<path d="M226.6,50.5c1.3,7.8,14.5,12.9,24.6,13c1.6,0,3.1-0.1,4.5-0.3c1.6-0.3,3-0.9,4.3-1.7c3.2-2,5.9-5.5,8.4-9
						c0.8-1.1,1.6-2.3,2.3-3.5c2.1-3.4,3.6-6.8,3.1-9.7c-0.8-4.6-8.5-7.7-17.4-11.3c-2.9-1.2-5.9-2.3-8.7-3.2
						c-4.8-1.6-9.1-2.5-11.7-2.1c-3.8,0.6-5.8,2.6-6.9,5.3c-1,2.3-1.4,5.2-1.9,8.3c-0.1,0.6-0.2,1.2-0.2,1.7
						C226.3,43,226.1,47.8,226.6,50.5z"/>
					<path d="M296.1,70.9c1.3,7.8,15.4,17.5,27.3,16.5c0.5,0,1-0.1,1.5-0.2c1.8-0.3,3.9-1.4,6.2-3.1c4-2.9,8.1-7.6,10.8-12.3
						c2.1-3.6,3.3-7.2,2.8-10.1c-0.8-4.9-9.2-7.8-18-10.4c-1.9-0.5-3.8-1.1-5.7-1.6c-6.6-1.8-12.8-3-15.7-2.5
						c-2.4,0.4-4.1,1.5-5.3,3.1c-1.6,2.1-2.4,5.1-3.2,8.8c0,0.1,0,0.1,0,0.2C295.9,63.3,295.5,67.7,296.1,70.9z"/>
					
						<linearGradient id="SVGID_00000129202929001136811610000007790879226669463726_" gradientUnits="userSpaceOnUse" x1="479.4426" y1="-383.2629" x2="516.6843" y2="-367.5516" gradientTransform="matrix(0.9864 -0.1642 0.1642 0.9864 -111.3716 517.7295)">
						<stop  offset="0" style="stop-color:#FFFFFF;stop-opacity:0.5"/>
						<stop  offset="1" style="stop-color:#FFFFFF;stop-opacity:0"/>
					</linearGradient>
					<path style="fill:url(#SVGID_00000129202929001136811610000007790879226669463726_);" d="M340.4,70.3c-0.1,0.2-0.2,0.4-0.3,0.5
						c-2.5,4.3-6.4,8.7-10.3,11.6c-0.1,0-0.1,0.1-0.2,0.1l-28.2-30.6c0.1-0.1,0.2-0.2,0.2-0.3c1-1.3,2.2-2,4-2.3
						c1.5-0.3,5.4,0,14.8,2.5c1,0.3,2.1,0.6,3.3,0.9l0,0L340.4,70.3z"/>
					
						<linearGradient id="SVGID_00000062893732110244727110000011712960622917398205_" gradientUnits="userSpaceOnUse" x1="475.2812" y1="-374.4788" x2="499.843" y2="-364.1167" gradientTransform="matrix(0.9864 -0.1642 0.1642 0.9864 -111.3716 517.7295)">
						<stop  offset="0" style="stop-color:#FFFFFF;stop-opacity:0.5"/>
						<stop  offset="1" style="stop-color:#FFFFFF;stop-opacity:0"/>
					</linearGradient>
					<path style="fill:url(#SVGID_00000062893732110244727110000011712960622917398205_);" d="M321.4,85.4
						c-10.4-0.1-22.1-8.3-23.2-14.8c-0.4-2.3-0.2-5.6,0.4-9.2L321.4,85.4z"/>
					
						<linearGradient id="SVGID_00000028286514011330566050000017867778906717136289_" gradientUnits="userSpaceOnUse" x1="413.8097" y1="-418.0894" x2="450.545" y2="-402.5916" gradientTransform="matrix(0.9864 -0.1642 0.1642 0.9864 -111.3716 517.7295)">
						<stop  offset="0" style="stop-color:#FFFFFF;stop-opacity:0.5"/>
						<stop  offset="1" style="stop-color:#FFFFFF;stop-opacity:0"/>
					</linearGradient>
					<path style="fill:url(#SVGID_00000028286514011330566050000017867778906717136289_);" d="M269.1,47.4c-0.1,0.2-0.2,0.3-0.3,0.5
						c-0.7,1.2-1.6,2.4-2.2,3.4c-2.1,3.1-4.7,6.5-7.7,8.4c-0.1,0.1-0.2,0.1-0.4,0.2l-27.9-30.3c0.1-0.3,0.2-0.6,0.4-0.9
						c1-2.4,2.6-3.6,5.3-4c1.1-0.2,4-0.2,10.7,2c1.2,0.4,2.5,0.8,3.8,1.3l0,0L269.1,47.4z"/>
					
						<linearGradient id="SVGID_00000074433281448178488330000016118133075660578480_" gradientUnits="userSpaceOnUse" x1="410.4607" y1="-407.9509" x2="432.2169" y2="-398.7725" gradientTransform="matrix(0.9864 -0.1642 0.1642 0.9864 -111.3716 517.7295)">
						<stop  offset="0" style="stop-color:#FFFFFF;stop-opacity:0.5"/>
						<stop  offset="1" style="stop-color:#FFFFFF;stop-opacity:0"/>
					</linearGradient>
					<path style="fill:url(#SVGID_00000074433281448178488330000016118133075660578480_);" d="M249,61.3
						c-9.3-0.8-19.4-5.3-20.3-11.1c-0.4-2.2-0.3-6,0.1-10.2L249,61.3z"/>
				</g>
				<path class="st9" d="M331.8,106.4c-8.3-8.9-17-8.8-27-1.3c11-2,16.1,1,19,4.8"/>
				<path class="st1" d="M404.6,245.6c-12.5-16-12.7-34.3-14-47.6c-3.2-33.2-11-55.1-23.8-80.6c-4.1-4.6-6.7-15.4-9.6-26.4
					c-3.7-14.1-13.8-26.2-11.2-28.6c4.8-4.3,25.2,6.9,41.2,40.8c13.5,22.3,29,36.1,41.7,50.9c20.9,24.3,33.2,41.9,37.1,60.4
					C475.5,260,439.1,289.8,404.6,245.6z"/>
				<g>
					<path class="st4" d="M367.3,117c6-1.3,14.1-5,18.7-12c0.5-0.8,1-1.6,1.5-2.4c-16.5-33.8-36.9-44.7-41.6-40.3
						c-2.6,2.4,7.6,14.5,11.4,28.5C360.5,103.2,363.1,112.5,367.3,117z"/>
					<path class="st9" d="M366.8,117.3c12.8,25.5,20.6,47.4,23.8,80.6c1.3,13.3,4,28.7,14,47.6"/>
					<path class="st9" d="M348.2,62.5c10.1,5.3,24.6,22,32,46.6"/>
				</g>
				<path class="st9" d="M386.1,322.9c4.6-15.3,4.6-30.4,12.8-38.9c2.3-2.4,10.1-0.3,20.5-3c2.7-0.7-0.2-2.6,0.2-2.7
					c14.9-3.4,33.5-9.2,41.1-23.5c5.3-10,8.6-24.5,5.4-40.3c-3.8-18.6-16.1-36.1-37.1-60.4c-12.7-14.8-28.3-28.7-41.7-50.9
					c-4.7,8.1-13.4,11.7-20.4,14.2c-4.1-4.6-6.7-15.4-9.6-26.4c-3.7-14.1-13.8-26.3-11.2-28.6c4.8-4.3,25.2,6.9,41.2,40.8"/>
				<path class="st3" d="M391.6,208.5c-7.8-15.2-24-27.1-43.2-20.8c0.2-0.1,0.3-0.2,0.5-0.3c7.1-3.8,14.7-4.5,20.1-3.8c0,0,0,0,0,0
					c12.2,2.3,19.4,9,21.2,10.8c0.1,1.2,0.2,2.3,0.4,3.5C390.9,201.2,391.2,204.8,391.6,208.5z"/>
				<path class="st9" d="M413.1,270c1.7,2.7,3.8,5.5,6.5,8.3"/>
				<path class="st9" d="M413.1,282.2c-9.2-9.8-14.8-23-18.5-38.4"/>
				<path class="st3" d="M460.7,254.8c-7.4,14.8-26.2,20.3-41.2,23.6c-7.1-7.5-10-15.5-11.7-19.9c25.4,6.9,43.1-2.5,47.7-9.7
					c9.4-14.9,3.1-29-14.8-53.8c-16.8-23.2-30.3-42.6-46-69.8c-14.6-25.2-26.5-46.3-45.8-53.6c-2.5-4.7-4.1-8.1-2.8-9.2
					c4.8-4.3,25.2,6.9,41.2,40.8c13.5,22.3,29,36.1,41.7,50.9c20.9,24.3,33.2,41.9,37.1,60.4C469.4,230.9,466.9,245.2,460.7,254.8z"
					/>
				<path class="st3" d="M333,214.3c-0.7-4.4-2.7-5.8-8.1-6.7c-7.6-1.2-17.5-0.4-26.9-0.4c5.8-0.6,9.7-1.4,11.2-1.7
					c0.4-0.1,0.9-0.2,1.3-0.3c10-3.1,17.5-6.3,24.8-9.9c3.5-1.7,7.5-4.3,11.3-6.5C338.6,194.7,334.4,200.3,333,214.3z"/>
				<path class="st2" d="M170.9,60.6c-5.8,1.2-6.1,6-6.5,13.9c-0.4-7.9-0.9-12.8-6.5-13.9c5.8-1,6.2-6.3,6.5-13.9
					C164.8,54.3,165.1,59.2,170.9,60.6z"/>
				<path class="st2" d="M418,75.6c-8.1,1.7-8.5,8.4-9.1,19.3c-0.6-11-1.3-17.9-9.1-19.3c8.1-1.4,8.6-8.8,9.1-19.3
					C409.5,66.8,409.9,73.6,418,75.6z"/>
				<path class="st2" d="M140.1,97.5c-4.2,1.4-4.8,4.8-5.2,10.9c-0.3-6.2-1.3-9.7-5.2-10.9c3.8-1.2,4.9-5,5.2-10.9
					C135.2,92.6,135.8,96.1,140.1,97.5z"/>
				<path class="st2" d="M434,107.7c-4.8,1.6-5.6,5.6-6,12.8c-0.4-7.3-1.5-11.5-6-12.8c4.6-1.5,5.7-5.8,6-12.8
					C428.4,101.9,429.1,105.9,434,107.7z"/>
				<path class="st2" d="M186.4,120.9c-9.8,2.1-10.3,10.2-11,23.3c-0.7-13.2-1.5-21.6-11-23.3c9.8-1.7,10.4-10.6,11-23.3
					C176.1,110.3,176.6,118.5,186.4,120.9z"/>
			</g>
		</g>
		<g>
			<g>
				<path class="st9" d="M137.7,302.6c13.5,1.4,22.2,2.9,33.1,6.9"/>
			</g>
			<g>
				<g>
					<path class="st21" d="M265.5,317L92.3,334.9c-5.2,0.5-10.5-0.5-15-3.1L19,299.6c-2.1-1.2-3.1-3.2-3.1-6.2l178.8-11.6
						c4.5-0.3,9,0.5,13.1,2.5l61.4,25.8C269.2,314.1,267.9,316.7,265.5,317z"/>
				</g>
				<path class="st22" d="M193.8,277.5l-173,13.2c-4.9,0.4-9-3.5-9-8.4V178.5c0-4.5,3.5-8.1,7.9-8.4l173-9c4.8-0.2,8.8,3.6,8.8,8.4
					v99.7C201.6,273.6,198.2,277.2,193.8,277.5z"/>
				<path class="st23" d="M196.4,162.8c-0.3,0-0.7,0-1.1,0l-173,9c-5,0.2-7.9,2.6-7.9,7V284c0,2.4,1,4.5,2.6,6.1
					c-3-1.3-5.1-4.2-5.1-7.7V178.5c0-2.8,1.4-5.4,3.6-6.9c1-0.5,2.2-0.8,3.4-0.9l173-9C193.5,161.6,195,162,196.4,162.8z"/>
				<path class="st24" d="M194,169.5v99.7c0,0.4-0.3,0.7-0.7,0.8l-99,7.6l-17.6,1.4l-16.1,1.2L29,282.5l-6.6,0.5h-0.1
					c-0.4,0-0.8-0.3-0.8-0.8V178.4c0-0.4,0.3-0.7,0.7-0.8l74.7-3.9l31.1-1.6l15.8-0.8h0l17.3-0.9l32-1.7
					C193.6,168.7,194,169.1,194,169.5z"/>
				<path class="st23" d="M265.5,312.7L92.3,330.7c-5.2,0.5-10.5-0.5-15-3.1L19,295.4c-2.1-1.2-1.4-4.4,1-4.6l174.8-13.3
					c4.5-0.3,9,0.5,13.1,2.5l58.5,28.2C268.5,309.2,267.9,312.5,265.5,312.7z"/>
				<path class="st25" d="M193.8,277.5l-173,13.2c-4.9,0.4-9-3.5-9-8.4V178.5c0-4.5,3.5-8.1,7.9-8.4l173-9c4.8-0.2,8.8,3.6,8.8,8.4
					v99.7C201.6,273.6,198.2,277.2,193.8,277.5z"/>
				<path class="st25" d="M265.5,312.7L92.3,330.7c-5.2,0.5-10.5-0.5-15-3.1L19,295.4c-2.1-1.2-1.4-4.4,1-4.6l174.8-13.3
					c4.5-0.3,9,0.5,13.1,2.5l58.5,28.2C268.5,309.2,267.9,312.5,265.5,312.7z"/>
				<path class="st25" d="M26.1,294.3l54.7,29.5c3.2,1.7,6.9,2.5,10.5,2.1l11-1.1"/>
				<polygon class="st12" points="238.4,301.6 79.5,317.6 35.5,294.6 197.2,282.1 				"/>
				<g>
					<g>
						<path class="st23" d="M234.6,306.8c-0.1,0-0.2,0-0.3-0.1l-49.6-24.9c-0.3-0.2-0.4-0.5-0.3-0.8c0.2-0.3,0.5-0.4,0.8-0.3
							l49.6,24.9c0.3,0.2,0.4,0.5,0.3,0.8C235,306.6,234.8,306.8,234.6,306.8z"/>
					</g>
					<g>
						<path class="st23" d="M221.7,307.9c-0.1,0-0.2,0-0.3-0.1l-49.6-25.1c-0.3-0.2-0.4-0.5-0.3-0.8c0.2-0.3,0.5-0.4,0.8-0.3
							l49.6,25.1c0.3,0.2,0.4,0.5,0.3,0.8C222.1,307.7,221.9,307.9,221.7,307.9z"/>
					</g>
					<g>
						<path class="st23" d="M208.8,309c-0.1,0-0.2,0-0.3-0.1l-49.6-25.2c-0.3-0.2-0.4-0.5-0.3-0.8c0.2-0.3,0.5-0.4,0.8-0.3
							l49.6,25.2c0.3,0.2,0.4,0.5,0.3,0.8C209.3,308.8,209,309,208.8,309z"/>
					</g>
					<g>
						<path class="st23" d="M195.9,310.1c-0.1,0-0.2,0-0.3-0.1l-49.6-25.3c-0.3-0.2-0.4-0.5-0.3-0.8c0.2-0.3,0.5-0.4,0.8-0.3
							l49.6,25.3c0.3,0.2,0.4,0.5,0.3,0.8C196.4,309.9,196.2,310.1,195.9,310.1z"/>
					</g>
					<g>
						<path class="st23" d="M171.5,305.3c-0.1,0-0.2,0-0.3-0.1l-38-19.5c-0.3-0.2-0.4-0.5-0.3-0.8c0.2-0.3,0.5-0.4,0.8-0.3l38,19.5
							c0.3,0.2,0.4,0.5,0.3,0.8C172,305.1,171.7,305.3,171.5,305.3z"/>
					</g>
					<g>
						<path class="st23" d="M158.9,306.5c-0.1,0-0.2,0-0.3-0.1l-38.3-19.7c-0.3-0.2-0.4-0.5-0.3-0.8c0.2-0.3,0.5-0.4,0.8-0.3
							l38.3,19.7c0.3,0.2,0.4,0.5,0.3,0.8C159.4,306.4,159.2,306.5,158.9,306.5z"/>
					</g>
					<g>
						<path class="st23" d="M146.3,307.7c-0.1,0-0.2,0-0.3-0.1l-38.6-19.9c-0.3-0.2-0.4-0.5-0.3-0.8c0.2-0.3,0.5-0.4,0.8-0.3
							l38.6,19.9c0.3,0.2,0.4,0.5,0.3,0.8C146.8,307.6,146.6,307.7,146.3,307.7z"/>
					</g>
					<g>
						<path class="st23" d="M133.7,308.9c-0.1,0-0.2,0-0.3-0.1l-38.9-20.2c-0.3-0.2-0.4-0.5-0.3-0.8c0.2-0.3,0.5-0.4,0.8-0.3
							l38.9,20.2c0.3,0.2,0.4,0.5,0.3,0.8C134.2,308.8,134,308.9,133.7,308.9z"/>
					</g>
					<g>
						<path class="st23" d="M131.6,315.6c-0.1,0-0.2,0-0.3-0.1l-49.6-25.9c-0.3-0.2-0.4-0.5-0.3-0.8c0.2-0.3,0.5-0.4,0.8-0.3
							l49.6,25.9c0.3,0.2,0.4,0.5,0.3,0.8C132,315.5,131.8,315.6,131.6,315.6z"/>
					</g>
					<g>
						<path class="st23" d="M118.7,316.7c-0.1,0-0.2,0-0.3-0.1l-49.6-26c-0.3-0.2-0.4-0.5-0.3-0.8c0.2-0.3,0.5-0.4,0.8-0.3l49.6,26
							c0.3,0.2,0.4,0.5,0.3,0.8C119.1,316.6,118.9,316.7,118.7,316.7z"/>
					</g>
					<g>
						<path class="st23" d="M105.8,317.8c-0.1,0-0.2,0-0.3-0.1l-49.6-26.1c-0.3-0.2-0.4-0.5-0.3-0.8c0.2-0.3,0.5-0.4,0.8-0.3
							l49.6,26.1c0.3,0.2,0.4,0.5,0.3,0.8C106.3,317.7,106,317.8,105.8,317.8z"/>
					</g>
					<g>
						<path class="st23" d="M92.9,318.9c-0.1,0-0.2,0-0.3-0.1l-49.6-26.2c-0.3-0.2-0.4-0.5-0.3-0.8c0.2-0.3,0.5-0.4,0.8-0.3
							l49.6,26.2c0.3,0.2,0.4,0.5,0.3,0.8C93.4,318.8,93.2,318.9,92.9,318.9z"/>
					</g>
				</g>
				<g>
					<g>
						<path class="st23" d="M39.6,298c-0.3,0-0.6-0.2-0.6-0.6c0-0.3,0.2-0.6,0.6-0.7l170.2-13.1c0.3,0,0.6,0.2,0.7,0.6
							c0,0.3-0.2,0.6-0.6,0.7L39.6,298C39.6,298,39.6,298,39.6,298z"/>
					</g>
					<g>
						<path class="st23" d="M47.4,302.3c-0.3,0-0.6-0.2-0.6-0.6c0-0.3,0.2-0.6,0.6-0.7l169.2-13.9c0.3,0,0.6,0.2,0.7,0.6
							c0,0.3-0.2,0.6-0.6,0.7L47.4,302.3C47.5,302.3,47.4,302.3,47.4,302.3z"/>
					</g>
					<g>
						<path class="st23" d="M55.2,306.5c-0.3,0-0.6-0.2-0.6-0.6c0-0.3,0.2-0.6,0.6-0.7l168.3-14.6c0.3,0,0.6,0.2,0.7,0.6
							c0,0.3-0.2,0.6-0.6,0.7L55.2,306.5C55.3,306.5,55.3,306.5,55.2,306.5z"/>
					</g>
					<g>
						<path class="st23" d="M63.1,310.8c-0.3,0-0.6-0.2-0.6-0.6c0-0.3,0.2-0.6,0.6-0.7l167.4-15.4c0.3,0,0.6,0.2,0.7,0.6
							c0,0.3-0.2,0.6-0.6,0.7L63.1,310.8C63.1,310.8,63.1,310.8,63.1,310.8z"/>
					</g>
					<g>
						<path class="st23" d="M70.9,315c-0.3,0-0.6-0.2-0.6-0.6c0-0.3,0.2-0.6,0.6-0.7l166.4-16.1c0.3,0,0.6,0.2,0.7,0.6
							c0,0.3-0.2,0.6-0.6,0.7L70.9,315C70.9,315,70.9,315,70.9,315z"/>
					</g>
				</g>
				<path class="st24" d="M132.3,315.5l10.4,6.4c0.8,0.5,1.7,0.7,2.6,0.6l60.5-6.2c0.7-0.1,0.9-1,0.3-1.4l-12.2-6.5
					c-0.7-0.4-1.6-0.6-2.4-0.5l-58.8,6.2C131.9,314.2,131.7,315.2,132.3,315.5z"/>
			</g>
			<g>
				<path class="st26" d="M27.3,269.4l6.1-0.8c0.1,1,0.4,1.8,0.8,2.3c0.7,0.8,1.6,1.2,2.8,1.1c0.9-0.1,1.6-0.3,2.1-0.8
					c0.5-0.5,0.7-1,0.7-1.6c0-0.6-0.2-1-0.7-1.4c-0.5-0.4-1.6-0.7-3.3-1c-2.8-0.4-4.8-1.2-6.1-2.1c-1.2-1-1.8-2.3-1.8-4
					c0-1.1,0.3-2.1,0.9-3.2c0.6-1,1.6-1.9,2.8-2.5c1.2-0.6,3-1.1,5.1-1.2c2.7-0.2,4.7,0.2,6.1,1.1c1.4,0.9,2.2,2.5,2.5,4.6l-6.1,0.8
					c-0.2-0.9-0.5-1.6-1-2c-0.5-0.4-1.2-0.6-2.1-0.5c-0.8,0.1-1.3,0.3-1.7,0.6c-0.4,0.4-0.6,0.8-0.6,1.2c0,0.3,0.2,0.6,0.5,0.9
					c0.3,0.3,1,0.5,2.2,0.6c2.8,0.4,4.8,0.9,6.1,1.4c1.2,0.5,2.1,1.3,2.7,2.2c0.6,0.9,0.8,1.9,0.8,3.1c0,1.4-0.4,2.6-1.1,3.9
					c-0.7,1.2-1.8,2.2-3.1,2.8c-1.3,0.7-3,1.1-5,1.3c-3.6,0.3-6-0.3-7.4-1.5C28.3,273.2,27.5,271.5,27.3,269.4z"/>
				<path class="st26" d="M65.1,273.6l-5.4,0.4v-2.5c-0.8,1.1-1.6,1.9-2.4,2.4c-0.8,0.5-1.8,0.8-3,0.9c-1.6,0.1-2.8-0.3-3.8-1.2
					c-0.9-0.9-1.4-2.4-1.4-4.4v-9.8l5.8-0.4v8.5c0,1,0.2,1.6,0.5,2c0.4,0.4,0.8,0.5,1.5,0.5c0.7-0.1,1.3-0.4,1.7-0.9
					c0.4-0.6,0.7-1.6,0.7-3v-7.4l5.8-0.4V273.6z"/>
				<path class="st26" d="M68.6,252.1l5.9-0.4v7.4c0.6-0.7,1.2-1.2,2-1.5c0.7-0.4,1.6-0.6,2.4-0.6c1.8-0.1,3.4,0.4,4.6,1.7
					s1.8,3.2,1.8,5.7c0,1.7-0.3,3.2-0.8,4.5c-0.6,1.3-1.3,2.3-2.3,3c-1,0.7-2.1,1.1-3.2,1.2c-1,0.1-1.9-0.1-2.8-0.5
					c-0.6-0.3-1.3-0.9-2.1-1.8v2.3l-5.4,0.4V252.1z M74.4,265.2c0,1.3,0.2,2.3,0.7,2.8c0.5,0.6,1.1,0.8,1.9,0.8
					c0.7-0.1,1.3-0.4,1.7-1s0.7-1.6,0.7-3c0-1.2-0.2-2.1-0.7-2.6c-0.5-0.5-1-0.8-1.7-0.7c-0.8,0.1-1.4,0.4-1.9,1
					C74.7,263.1,74.4,264,74.4,265.2z"/>
				<path class="st26" d="M88.1,256.5l5.4-0.4v2.2c0.8-1,1.6-1.7,2.4-2.2c0.8-0.5,1.8-0.7,2.9-0.8c1.2-0.1,2.2,0.1,2.9,0.4
					c0.7,0.4,1.3,1,1.7,1.8c0.9-1.1,1.7-1.8,2.5-2.2c0.7-0.4,1.7-0.7,2.8-0.7c1.6-0.1,2.9,0.3,3.8,1.2c0.9,0.9,1.4,2.4,1.4,4.5v9.7
					l-5.8,0.4v-8.8c0-0.7-0.1-1.2-0.4-1.5c-0.4-0.5-0.9-0.7-1.4-0.7c-0.7,0-1.2,0.3-1.6,0.9c-0.4,0.5-0.6,1.4-0.6,2.5v8l-5.8,0.4
					v-8.5c0-0.7,0-1.1-0.1-1.4c-0.1-0.4-0.3-0.7-0.6-0.9c-0.3-0.2-0.7-0.3-1.1-0.3c-0.7,0-1.2,0.3-1.6,0.9c-0.4,0.5-0.6,1.4-0.6,2.6
					v7.9l-5.8,0.4V256.5z"/>
				<path class="st26" d="M117.5,248.5l5.8-0.4v4l-5.8,0.4V248.5z M117.5,254.4l5.8-0.4v15.4l-5.8,0.4V254.4z"/>
				<path class="st26" d="M134,247.3v5.9l3.2-0.2v4.3l-3.2,0.2v5.5c0,0.7,0.1,1.1,0.2,1.3c0.2,0.3,0.5,0.5,1,0.4
					c0.4,0,1-0.2,1.8-0.5l0.4,4c-1.4,0.4-2.8,0.7-4,0.8c-1.4,0.1-2.5,0-3.2-0.3c-0.7-0.3-1.2-0.9-1.5-1.6c-0.3-0.7-0.5-2-0.5-3.7
					v-5.4l-2.1,0.2v-4.3l2.1-0.2v-2.8L134,247.3z"/>
				<path class="st26" d="M146.9,246.4v5.9l3.2-0.2v4.3l-3.2,0.2v5.5c0,0.7,0.1,1.1,0.2,1.3c0.2,0.3,0.5,0.5,1,0.4
					c0.4,0,1-0.2,1.8-0.5l0.4,4c-1.4,0.4-2.8,0.7-4,0.8c-1.4,0.1-2.5,0-3.2-0.3c-0.7-0.3-1.2-0.9-1.5-1.6c-0.3-0.7-0.5-2-0.5-3.7
					V257l-2.1,0.2v-4.3l2.1-0.2v-2.8L146.9,246.4z"/>
				<path class="st26" d="M169.7,259.7l-11.6,0.9c0.1,0.9,0.4,1.6,0.8,2.1c0.6,0.6,1.3,0.9,2.2,0.8c0.6,0,1.1-0.2,1.6-0.6
					c0.3-0.2,0.7-0.6,1-1l5.7,0.1c-0.9,1.6-1.9,2.8-3.2,3.6c-1.2,0.8-3,1.2-5.3,1.4c-2,0.1-3.6,0-4.7-0.5c-1.1-0.5-2.1-1.3-2.9-2.5
					c-0.8-1.2-1.1-2.6-1.1-4.3c0-2.4,0.8-4.4,2.3-6c1.5-1.6,3.6-2.5,6.3-2.7c2.2-0.2,3.9,0.1,5.1,0.6c1.3,0.6,2.2,1.5,2.9,2.7
					c0.7,1.2,1,2.8,1,4.9V259.7z M163.8,257.3c-0.1-1.1-0.4-1.9-0.9-2.4s-1.1-0.7-1.9-0.6c-0.9,0.1-1.7,0.5-2.2,1.3
					c-0.4,0.5-0.6,1.2-0.7,2.1L163.8,257.3z"/>
				<path class="st26" d="M188.3,243.3v21.3l-5.4,0.4v-2.3c-0.8,1-1.5,1.7-2.1,2.1c-0.8,0.5-1.8,0.8-2.8,0.9c-2.1,0.2-3.6-0.5-4.7-2
					c-1.1-1.5-1.6-3.4-1.6-5.7c0-2.6,0.6-4.6,1.8-6c1.2-1.4,2.7-2.2,4.6-2.4c0.9-0.1,1.7,0,2.5,0.3c0.7,0.3,1.4,0.7,2,1.2v-7.4
					L188.3,243.3z M182.4,257.3c0-1.2-0.3-2.1-0.8-2.7c-0.5-0.6-1.1-0.8-1.9-0.8c-0.7,0-1.2,0.4-1.7,1c-0.5,0.6-0.7,1.6-0.7,2.9
					c0,1.3,0.2,2.2,0.7,2.7c0.5,0.6,1.1,0.8,1.7,0.7c0.7-0.1,1.4-0.4,1.9-1C182.2,259.6,182.4,258.6,182.4,257.3z"/>
			</g>
			<g>
				
					<ellipse transform="matrix(0.6601 -0.7512 0.7512 0.6601 -121.3419 156.3332)" class="st26" cx="112.1" cy="212.2" rx="31.9" ry="29.4"/>
				<g>
					<path class="st0" d="M109.7,228.4c-1.1,0.1-2.2-0.3-2.9-1.1l-8.9-9.9c-1.4-1.5-1.2-4,0.5-5.5c1.6-1.5,4-1.5,5.4,0l5.3,5.9
						l10.9-20.3c1-1.9,3.4-2.8,5.2-1.9c1.8,0.9,2.5,3.2,1.5,5.2L113,226.2c-0.6,1.2-1.7,2-3,2.2
						C109.9,228.4,109.8,228.4,109.7,228.4z"/>
				</g>
			</g>
			<g>
				<polygon class="st27" points="128.1,172.1 60.6,280.1 29,282.5 97,173.8 				"/>
				<polygon class="st27" points="161.2,170.4 94.3,277.5 76.7,278.9 143.9,171.3 143.9,171.3 				"/>
			</g>
		</g>
	</g>
</g>
</svg>
