<svg width="314" height="367" viewBox="0 0 314 367" fill="none" xmlns="http://www.w3.org/2000/svg">
<g clip-path="url(#clip0_281_499)">
<path d="M70.1 218.3C69.2 217.5 67.3 216.3 67.1 214.9C66.8 212.5 73.4 205.6 75.8 205C80.4 203.8 86.9 209.8 91.5 211.5C92.7 212 96.3 211.4 97 212.4C99.5 215.7 98.9 229.2 99.4 233.8C99.6 235.4 101.6 250.9 101.3 251.2C100.1 252.8 83.8 258.1 82 257.5C80.1 256.8 77.9 254.1 76.1 253C71.6 250.4 64.7 250.7 59.7 249.8C55 249 49.3 246.3 44.7 249.3C40.9 251.7 37.3 252 33.3 254C29.2 256.1 25 261.9 22.7 265.8C21.4 268 18.8 287.8 16.4 287.3C15.3 287.1 16 281.3 16.1 280.6C17.2 274.2 17.5 266.3 19.7 260.2C25.8 243.5 43.3 229.9 59.1 222.6C60.7 221.9 67.5 218.5 68.2 217C69.2 215.1 65.6 213.8 69.5 212.7" fill="#FFDB1F"/>
<path d="M30.7 282.2C40.4 288.3 49.2 291.4 60.6 292.6" stroke="#2D1F04" stroke-width="2.8223" stroke-miterlimit="10" stroke-linecap="round" stroke-linejoin="round"/>
<path d="M28.6 283.6C41.3 291.7 57.1 297.2 72.1 291.6" stroke="#2D1F04" stroke-width="2.8223" stroke-miterlimit="10" stroke-linecap="round" stroke-linejoin="round"/>
<path d="M85.2 42.7999C81.8 42.7999 73.1 59.9999 71.1 63.4999C56.4 89.4999 65 136.2 75 176C82.3 205.4 75.1 194.7 77.2 203.3C78.7 209.3 98.8 213.6 104.9 215.2C128.2 221.1 149.8 209 173.2 209C179 209 195.9 210.8 200.7 205.9C204.8 201.7 206.1 196.3 209.4 191.6C213.9 185.2 224.3 177.5 231.6 174.6C239.1 171.6 248.4 173.4 255.8 175.3C257.7 175.8 263.3 178.2 265.2 176.3C268.2 173.2 269.7 164.2 268.9 160.3C266.8 149.9 255.3 181.5 253.3 171.4C251.9 164.5 256.8 126.7 254.3 120.1C244.4 93.9999 235.2 57.0999 213.1 40.7999C207.5 36.6999 198.3 29.4999 191.9 26.2999C185.8 23.1999 181.6 22.7999 175.5 19.6999C167.4 15.5999 155.9 10.7999 147.3 8.69991C145.1 8.09991 148.2 11.9999 148 12.3999C147.7 12.9999 142.4 12.8999 141.6 12.6999C134.4 11.1999 127 11.3999 120.1 8.29991C119 7.79991 112.9 1.49991 111.6 1.99991C107.5 3.39991 115.4 16.7999 115.4 16.7999C115.4 16.7999 114.8 15.7999 114.4 15.3999C112.4 13.7999 107.9 12.4999 105.3 11.9999C99.8 10.8999 97.5 14.4999 92.9 15.3999C92.3 15.4999 86.9 16.9999 86.9 17.0999C86.9 18.2999 95.6 19.5999 95.6 20.7999C95.6 21.8999 93.7 21.3999 93.2 21.4999C90.6 21.8999 73.3 30.3999 74.3 33.5999C74.8 34.9999 85.3 32.7999 86.8 33.6999C87.2 33.8999 88.1 33.9999 88.1 33.9999C88.1 33.9999 82 34.8999 79 35.6999C75.3 36.5999 67.6 45.1999 74.3 45.1999" fill="#CAA77A"/>
<path d="M69.2 95.5001C72 83.9001 79.1 70.9001 89.3 69.0001C101.3 66.7001 111.4 76.5001 123 76.1001C125.2 76.0001 129.4 74.7001 130.7 72.8001C131.9 71.0001 130.7 68.5001 130.7 68.5001C132.5 69.0001 134.4 71.7001 136.6 72.4001C145.3 75.0001 154.4 67.2001 162.3 64.8001C188.7 56.7001 209.2 59.6001 223.3 85.4001C226.5 91.2001 231.3 104.4 228 119.2C223.2 140.8 220.7 149.8 197.6 165.9C170.2 185.1 113.3 194.6 85 158.3C71.7 141.2 64 117.2 69.2 95.5001Z" fill="#FFDBAF"/>
<path d="M122.3 105.4C112.7 100.6 105 125 105.7 132.1C108.3 156.2 143.1 154.9 159.3 146.8C182.6 135 154.1 97 137.5 103.8" fill="#9D7B51"/>
<path d="M69.8 93.3998C64.6 103 67.4 130.8 74.5 139.4C75.1 139.2 113.5 129.5 110.5 89.8998C110.3 87.4998 86.3 91.2998 82.8 91.9998C78.1 92.9998 71.9 89.4998 69.8 93.3998Z" fill="#9D7B51"/>
<path d="M156.8 91.1999C154.3 135.3 217.6 155.3 224.3 145.5C228.6 139.2 234.3 105.9 223.1 85.9999C222 84.0999 209.6 88.1999 207.6 88.5999C191 91.2999 157.2 83.0999 156.8 91.1999Z" fill="#9D7B51"/>
<path d="M97.1 181.9V189.9" stroke="#9D7B51" stroke-width="4.1689" stroke-miterlimit="10" stroke-linecap="round" stroke-linejoin="round"/>
<path d="M104.9 186V194" stroke="#9D7B51" stroke-width="4.1689" stroke-miterlimit="10" stroke-linecap="round" stroke-linejoin="round"/>
<path d="M174.6 92.7999C174.6 96.3999 175.3 98.8999 176.5 100.5C180.1 105.2 188.2 102.6 196.3 101.2C205.1 99.6999 207 94.1999 208.6 90.8999" fill="white"/>
<path d="M75.9 90.7998C68.5 110.4 99.3 108.3 104.9 93.3998Z" fill="white"/>
<path opacity="0.23" d="M68 45.1999C73.7 45.1999 78.5 43.5999 84 42.2999C85.5 41.8999 88.7 40.1999 88.7 41.7999C88.7 42.1999 88.1 42.0999 87.8 42.2999C83.1 45.1999 79.2 49.2999 76.5 54.1999C75.6 55.8999 73 60.5999 73.7 59.3999C95.3 19.9999 251.9 5.19986 242.9 165.3C242.8 166.7 241.1 169.1 242.4 169.6C245.2 170.6 249.7 167.8 253.2 169.1C254.8 169.7 266.1 176.1 267.3 175.3C269.3 173.9 258.3 167.7 258.6 165.3C266.6 111.4 227.9 54.9999 209.7 39.2999C186.4 19.2999 147.6 10.3999 146.7 10.1999C146.5 10.1999 142.9 12.3999 141 12.0999C134.2 10.9999 126.6 8.29986 119.8 6.39986C118.8 6.09986 112.5 1.19986 112.3 1.59986C111.5 3.19986 111.1 11.7999 111.8 13.0999C112.3 13.9999 115.7 12.5999 114.6 12.5999C105.9 12.5999 94.8 15.4999 85.4 17.3999C85.1 17.4999 84.5 17.4999 84.5 17.8999C84.5 20.5999 96.8 18.7999 96.8 20.7999C96.8 22.1999 79.8 26.9999 77.5 28.8999C76.8 29.4999 74 31.5999 74.7 32.1999C77 34.4999 82.6 31.5999 85.5 33.1999" fill="#3F2719"/>
<path d="M87.3 41C80.9 45.4 75 53.9 71.8 60.7C46.4 114.9 84.4 182.4 76.3 203.7" stroke="#2D1F04" stroke-width="2.8223" stroke-miterlimit="10" stroke-linecap="round" stroke-linejoin="round"/>
<path d="M85.4 41.9C82.3 43.5 80.2 43.5 77 44.4C75.4 44.9 74.1 45.4999 72.5 45.7999C71 46.0999 69.5 46.1999 68 46.5999C67.3 46.7999 66 47.9 66 47.2C66 45.1 82.9 35.6 86.1 34.5C86.6 34.3 87.3 34.4 87.5 33.9C87.7 33.2 86.2 33.2 85.5 33.1C82.3 32.3 74.7 34.8 72.1 32.8C71.4 32.3 77.1 28.7 77.4 28.6C80.9 26.6 84.4 24.1 88.3 23C90.6 22.3 95.3 24 95.3 21.6C95.3 18.7 82.6 19.8 81.6 18.8C81.5 18.7 82 18.6 82.2 18.5C85.1 17 88.3 15.9 91.4 15.1C97.2 13.7 107.5 12.3 113.2 14.3" stroke="#2D1F04" stroke-width="2.8223" stroke-miterlimit="10" stroke-linecap="round" stroke-linejoin="round"/>
<path d="M114.1 15.6C112.5 12.3 109.5 6.79997 111 2.89997C111.1 2.69997 112.4 1.29997 112.7 1.49997C113.8 2.09997 114.6 4.09997 116 4.89997C121.5 7.89997 127.7 9.99997 133.9 11.4C137.5 12.2 141.2 12.6 144.8 13.4C145.6 13.6 147.3 13.7 147.3 13.7C147.3 13.7 142.4 9.29997 144.2 8.29997C144.5 8.09997 158.5 13.4 159.8 13.9C169.8 17.8 180 20.2 189.5 24.9" stroke="#2D1F04" stroke-width="2.8223" stroke-miterlimit="10" stroke-linecap="round" stroke-linejoin="round"/>
<path d="M173.6 18.3999C243.6 41.8999 260.7 128.6 260.7 178.7" stroke="#2D1F04" stroke-width="2.8223" stroke-miterlimit="10" stroke-linecap="round" stroke-linejoin="round"/>
<path d="M268.8 165.4C269 166.9 268.6 169 268.5 171" stroke="#2D1F04" stroke-width="2.8223" stroke-miterlimit="10" stroke-linecap="round" stroke-linejoin="round"/>
<path d="M269.1 167.9C269.4 169.8 269 171.6 269.3 173.4" stroke="#2D1F04" stroke-width="2.8223" stroke-miterlimit="10" stroke-linecap="round" stroke-linejoin="round"/>
<path d="M230.9 87.6001L53.3 90.8001" stroke="#2D1F04" stroke-width="8.187" stroke-miterlimit="10" stroke-linecap="round" stroke-linejoin="round"/>
<path d="M171.7 93.4998C177.2 110.3 206.3 105 206.9 91.2998" stroke="#2D1F04" stroke-width="3.2856" stroke-miterlimit="10" stroke-linecap="round" stroke-linejoin="round"/>
<path d="M74.9 95.9002C72.5 108 105.3 109 105.3 93.7002" stroke="#2D1F04" stroke-width="3.2856" stroke-miterlimit="10" stroke-linecap="round" stroke-linejoin="round"/>
<path d="M116.6 105.5C116.4 101.9 123.5 98.5002 132.4 98.1002C141.3 97.7002 148.7 100.3 148.8 103.9C149 107.5 141.9 110.9 133 111.3C124.1 111.7 116.8 109.1 116.6 105.5Z" fill="#251707"/>
<path d="M192.6 90.8002C192.9 90.6002 193.2 90.4002 193.5 90.2002" stroke="#2D1F04" stroke-width="3.2856" stroke-miterlimit="10" stroke-linecap="round" stroke-linejoin="round"/>
<path d="M132.7 112.4C132.7 126 140.3 110 150.8 115.3" stroke="#2D1F04" stroke-width="3.2856" stroke-miterlimit="10" stroke-linecap="round" stroke-linejoin="round"/>
<path d="M91.4 93.1998C91.4 90.1998 93.8 87.7998 96.7 87.7998C99.6 87.7998 102 90.1998 102 93.1998C102 96.1998 99.6 98.5998 96.7 98.5998C93.8 98.5998 91.4 96.1998 91.4 93.1998Z" fill="#2D1F04"/>
<path d="M191.7 91.1998C191.7 88.1998 194.1 85.7998 197 85.7998C199.9 85.7998 202.3 88.1998 202.3 91.1998C202.3 94.1998 199.9 96.5998 197 96.5998C194.1 96.5998 191.7 94.1998 191.7 91.1998Z" fill="#2D1F04"/>
<path d="M184.4 97.1C184 97.1 183.6 97 183.1 97Z" fill="#2D1F04"/>
<path d="M115 249.9L305 291.8C308.9 292.6 309.4 299.6 306 301.8L210 363.1C206.6 365.3 200.8 365.9 197 364.6L4.99999 297.5C1.19999 296.2 1.09999 293.8 4.79999 292.3L91.2 255.7C95 254.1 111 249.1 115 249.9Z" fill="#E7E7E7"/>
<path d="M115 249.9L305 291.8C308.9 292.6 309.4 299.6 306 301.8L210 363.1C206.6 365.3 200.8 365.9 197 364.6L4.99999 297.5C1.19999 296.2 1.09999 293.8 4.79999 292.3L91.2 255.7C95 254.1 111 249.1 115 249.9Z" stroke="#2D1F04" stroke-width="2.8223" stroke-miterlimit="10" stroke-linecap="round" stroke-linejoin="round"/>
<path d="M117.8 249.4L307.8 291.3C311.7 292.1 307.9 296.5 304.6 298.6L206.5 360.3C203.1 362.5 196.9 360.8 193.1 359.5L9.3 295.7C5.5 294.4 3.7 294.5 7.4 293L87.9 257.9L94.1 255.2C97.8 253.6 113.9 248.6 117.8 249.4Z" fill="#D2D2D2"/>
<path d="M100 105.6L301.2 131.1C307.4 131.9 312.4 137.6 312.4 143.9L308.3 296.9L100 251.2L89.5 115.5C89.1 109.3 93.8 104.8 100 105.6Z" fill="#D2D2D2"/>
<path d="M100 105.6L301.2 131.1C307.4 131.9 312.4 137.6 312.4 143.9L308.3 296.9L100 251.2L89.5 115.5C89.1 109.3 93.8 104.8 100 105.6Z" stroke="#2D1F04" stroke-width="2.8223" stroke-miterlimit="10" stroke-linecap="round" stroke-linejoin="round"/>
<path d="M101.1 105.3L297.9 130.8C304 131.6 308.9 137.3 308.9 143.6L304.4 295.4L101.7 249.2L90.8 115.2C90.4 108.9 95 104.5 101.1 105.3Z" fill="#222222"/>
<path d="M101.1 105.3L297.9 130.8C304 131.6 308.9 137.3 308.9 143.6L304.4 295.4L101.7 249.2L90.8 115.2C90.4 108.9 95 104.5 101.1 105.3Z" stroke="#2D1F04" stroke-width="2.8223" stroke-miterlimit="10" stroke-linecap="round" stroke-linejoin="round"/>
<path d="M94.2 116.6L297.1 144.6L297.2 284.5L118.7 247.2L102.5 243.8L94.2 116.6Z" fill="#FAFAFA"/>
<path d="M94.2 116.6L297.1 144.6L297.2 284.5L118.7 247.2L102.5 243.8L94.2 116.6Z" stroke="#2D1F04" stroke-width="2.8223" stroke-miterlimit="10" stroke-linecap="round" stroke-linejoin="round"/>
<path d="M98.9 257.4L286.4 299.8L236.9 329.6L52.3 276.7L98.9 257.4Z" fill="#222222"/>
<path d="M59.2 272.7L255.8 326.1" stroke="#D2D2D2" stroke-width="1.6266" stroke-miterlimit="10" stroke-linecap="round" stroke-linejoin="round"/>
<path d="M71 267.5L265.5 320.5" stroke="#D2D2D2" stroke-width="1.6266" stroke-miterlimit="10" stroke-linecap="round" stroke-linejoin="round"/>
<path d="M80 262.3L273.7 312.6" stroke="#D2D2D2" stroke-width="1.6266" stroke-miterlimit="10" stroke-linecap="round" stroke-linejoin="round"/>
<path d="M91 258.8L273.1 302.7L281.8 304.8L285.3 305.7" stroke="#D2D2D2" stroke-width="1.6266" stroke-miterlimit="10" stroke-linecap="round" stroke-linejoin="round"/>
<path d="M220.4 329.7L274.1 294.9" stroke="#D2D2D2" stroke-width="1.6266" stroke-miterlimit="10" stroke-linecap="round" stroke-linejoin="round"/>
<path d="M206 325.7L257.6 291.5" stroke="#D2D2D2" stroke-width="1.6266" stroke-miterlimit="10" stroke-linecap="round" stroke-linejoin="round"/>
<path d="M190.2 320.7L243.2 286.6" stroke="#D2D2D2" stroke-width="1.6266" stroke-miterlimit="10" stroke-linecap="round" stroke-linejoin="round"/>
<path d="M177.3 315.6L229 283.7" stroke="#D2D2D2" stroke-width="1.6266" stroke-miterlimit="10" stroke-linecap="round" stroke-linejoin="round"/>
<path d="M175 304.1L214.4 279.5" stroke="#D2D2D2" stroke-width="1.6266" stroke-miterlimit="10" stroke-linecap="round" stroke-linejoin="round"/>
<path d="M161.5 300L185.5 285.4L199.4 276.9" stroke="#D2D2D2" stroke-width="1.6266" stroke-miterlimit="10" stroke-linecap="round" stroke-linejoin="round"/>
<path d="M148 296.6L182.4 274.3" stroke="#D2D2D2" stroke-width="1.6266" stroke-miterlimit="10" stroke-linecap="round" stroke-linejoin="round"/>
<path d="M132 292.4L167.2 270.4" stroke="#D2D2D2" stroke-width="1.6266" stroke-miterlimit="10" stroke-linecap="round" stroke-linejoin="round"/>
<path d="M116.6 288.4C116.6 288.4 153.2 267.1 153.7 267.7" stroke="#D2D2D2" stroke-width="1.6266" stroke-miterlimit="10" stroke-linecap="round" stroke-linejoin="round"/>
<path d="M81.9 295L87.4 291.9L139.9 264.5" stroke="#D2D2D2" stroke-width="1.6266" stroke-miterlimit="10" stroke-linecap="round" stroke-linejoin="round"/>
<path d="M65.8 293.4L127.6 260.6" stroke="#D2D2D2" stroke-width="1.6266" stroke-miterlimit="10" stroke-linecap="round" stroke-linejoin="round"/>
<path d="M45.8 290.9L114.9 257.9" stroke="#D2D2D2" stroke-width="1.6266" stroke-miterlimit="10" stroke-linecap="round" stroke-linejoin="round"/>
<path d="M76.7 204.9C73.4 204 71.1 209.1 68.9 212.2C65.9 216.5 70.7 216.4 65.4 219.5C47.6 230 14.1 243.9 14.8 287.3" stroke="#2D1F04" stroke-width="2.8223" stroke-miterlimit="10" stroke-linecap="round" stroke-linejoin="round"/>
<path d="M77 204.6C86.1 210.7 87.9 211.5 99.1 212.9" stroke="#2D1F04" stroke-width="2.8223" stroke-miterlimit="10" stroke-linecap="round" stroke-linejoin="round"/>
<path d="M68.3 217.6C75.8 223.5 82.1 225.8 91.7 227.8" stroke="#2D1F04" stroke-width="2.8223" stroke-miterlimit="10" stroke-linecap="round" stroke-linejoin="round"/>
<path d="M109.6 296.2L174.4 314.8C175.7 315.2 175.8 316 174.6 316.6L141.1 333.8C139.9 334.4 137.9 334.6 136.6 334.1L71.2 312.1C69.9 311.7 69.9 310.9 71.1 310.4L104.9 296.4C106.2 295.9 108.3 295.8 109.6 296.2Z" fill="#F0F0F0"/>
<path d="M230.9 156.8C230.4 156.2 230.7 155.1 230.2 154.5C229.9 154.1 229.5 153.7 229.1 153.3C226.1 150.6 227.8 158.2 230.8 157.3C232.1 156.9 234.1 153.5 236.9 154.3C237.8 154.6 231.7 157.9 230.9 156.8Z" fill="#FAFAFA"/>
<path d="M154 171.1C154.5 170.5 154.2 169.4 154.7 168.8C155 168.4 155.4 168 155.8 167.6C158.8 164.9 157.1 172.5 154.1 171.6C152.8 171.2 150.8 167.8 148 168.6C147 168.9 153.2 172.2 154 171.1Z" fill="#FAFAFA"/>
<path d="M173.4 146.4C173.9 145.9 173.9 144.8 174.4 144.2C174.7 143.8 175.1 143.5 175.5 143.2C178.3 141.1 175.5 148.2 173.4 146.8C172.5 146.2 171.6 142.6 169.3 142.9C168.4 143.2 172.5 147.4 173.4 146.4Z" fill="#FAFAFA"/>
<path d="M171.4 208.2C171.2 208.2 171.1 208.3 171.1 208.5C171.1 208.7 171.2 208.8 171.4 208.8C171.6 208.8 171.7 208.7 171.7 208.5C171.7 208.3 171.6 208.2 171.4 208.2Z" fill="#281D07"/>
<path d="M19.2 284.4C16.6 273.9 27.1 256.4 40.1 252C43.6 250.8 49.1 248.2 52.8 249C53.4 249.1 62.9 249.5 62.9 249.1C62.9 248.9 66 250.7 65.9 250.7C60.9 249.4 49.3 254.4 45.7 257.3C40.4 261.5 37.9 270.3 34.2 275.8C33.2 277.3 34.8 278.3 35.8 278C36.1 277.8 19.2 284.8 19.2 284.4Z" fill="#CAA77A"/>
<path d="M35 275.8C34.5 270 39.7 264 43.8 260.1C46.7 257.4 62.2 247 65.9 249.4C70.6 252.4 76.4 254.5 81.1 258C84.6 260.7 89 263.1 90.3 267.6C92.3 274.7 95.3 282.6 98.7 289.1C99.1 289.8 101.3 294.9 99.7 295.1C98 295.3 95.2 291.3 94.1 290.4C91.3 287.8 79 275.3 74.7 277.9C69.4 281.1 62.4 286.2 56 286.8C52.8 287.1 37.9 280.9 35.8 278.3C35.2 277.7 35.1 276.9 35 275.8Z" fill="#D2D2D2"/>
<path d="M18.6 286.1C17.6 282.5 19 275.1 20.2 271.8C26.3 255.5 44.2 246.6 60.8 248.6C66.3 249.3 71.7 251.2 76.4 254.4C85.5 260.6 99.8 281.5 99.6 294.3C99.6 294.8 100.2 295.6 96.7 292.7C92 288.8 82.7 280.8 80.1 279C74.3 274.9 65 286.2 57.6 286.2C50.2 286.2 39.5 283.3 34 279" stroke="#2D1F04" stroke-width="2.8223" stroke-miterlimit="10" stroke-linecap="round" stroke-linejoin="round"/>
<path d="M33.6 280C42 256.4 50.3 253.9 65.3 249.7" stroke="#2D1F04" stroke-width="2.8223" stroke-miterlimit="10" stroke-linecap="round" stroke-linejoin="round"/>
<path d="M46.9 257.8C49.7 257 83 279.5 99 294.7" stroke="#2D1F04" stroke-width="2.8223" stroke-miterlimit="10" stroke-linecap="round" stroke-linejoin="round"/>
<path d="M40.1 267.2C48.4 274.1 57.8 279.6 68.3 281.4" stroke="#2D1F04" stroke-width="2.8223" stroke-miterlimit="10" stroke-linecap="round" stroke-linejoin="round"/>
<path opacity="0.23" d="M28.5 283.4C27.3 284.2 42.5 292.8 46.6 293.8C58.5 296.8 68.5 288.7 79.9 291.8C82.1 292.4 100 298.1 101.2 296.2C102 295 95.7 292.3 94.9 291.5C90.6 287.3 83.9 280 77.8 278.1C70.8 275.9 65.2 286 58.2 286.1C54.6 286.2 50.9 286.4 47.4 285.5C42.9 284.4 39 280.3 34.4 279.8C32.8 279.7 30.1 282.3 28.5 283.4Z" fill="#3F2719"/>
<path opacity="0.23" d="M97.1 218.6C95.7 226.7 98.6 249.2 83 258.8C84.9 259.1 87.5 256.7 89.1 255.8C92.6 253.8 97.4 253.7 100.5 251.3C100.7 251.2 100.9 251 100.9 250.7C101.5 246.2 98.9 238.5 98.4 233.9C98.1 230.9 97.1 227.3 97.5 224.3C97.7 222.4 97.4 216.8 97.1 218.6Z" fill="#3F2719"/>
<path d="M81 208.5L77.2 215.5" stroke="#2D1F04" stroke-width="2.8008" stroke-miterlimit="10" stroke-linecap="round" stroke-linejoin="round"/>
<path d="M85.9 211L82.1 217.9" stroke="#2D1F04" stroke-width="2.8008" stroke-miterlimit="10" stroke-linecap="round" stroke-linejoin="round"/>
<path d="M93.6 49.2002L93.7 56.6002" stroke="#9D7B51" stroke-width="4.0719" stroke-miterlimit="10" stroke-linecap="round" stroke-linejoin="round"/>
<path d="M100.1 51.7002V59.0002" stroke="#9D7B51" stroke-width="4.0719" stroke-miterlimit="10" stroke-linecap="round" stroke-linejoin="round"/>
<path d="M86 190.8L86.1 198.2" stroke="#9D7B51" stroke-width="4.0719" stroke-miterlimit="10" stroke-linecap="round" stroke-linejoin="round"/>
<path d="M184.411 196.861C184.3 203.648 179.404 207.987 173.73 207.208C167.944 206.318 163.383 200.644 163.494 193.857C163.605 186.959 168.501 182.731 174.175 183.51C179.96 184.289 184.522 189.963 184.411 196.861ZM179.849 196.194C179.96 191.966 177.29 188.628 174.064 188.183C170.948 187.738 168.056 190.297 168.056 194.525C167.944 198.753 170.615 202.09 173.841 202.535C176.956 202.98 179.738 200.421 179.849 196.194Z" fill="#EA4335"/>
<path d="M206.996 200.087C206.885 206.874 201.99 211.213 196.316 210.434C190.641 209.655 185.968 203.87 186.08 197.083C186.191 190.185 191.086 185.957 196.761 186.736C202.546 187.626 207.108 193.3 206.996 200.087ZM202.435 199.42C202.546 195.192 199.876 191.854 196.649 191.409C193.534 190.964 190.641 193.523 190.641 197.751C190.53 201.979 193.2 205.316 196.427 205.761C199.542 206.206 202.324 203.647 202.435 199.42Z" fill="#FBBC05"/>
<path d="M228.915 192.077L228.47 213.327C228.247 222.117 223.685 225.01 218.234 224.231C213.227 223.452 210.223 219.224 209.11 215.886L213.116 214.551C213.783 216.554 215.452 219.113 218.234 219.558C221.683 220.003 223.908 218 223.908 213.439V211.77H223.797C222.684 213.105 220.681 213.995 218.234 213.661C213.004 212.882 208.332 206.986 208.443 200.421C208.554 193.746 213.449 189.184 218.679 189.963C221.126 190.297 223.129 191.854 224.13 193.412H224.242V191.521L228.915 192.077ZM224.575 202.758C224.687 198.53 222.239 195.192 219.124 194.747C216.008 194.302 213.227 196.972 213.116 201.089C213.004 205.205 215.563 208.655 218.79 209.1C222.016 209.545 224.575 206.874 224.575 202.758Z" fill="#4285F4"/>
<path d="M236.369 180.728L235.59 215.441L231.14 214.773L231.919 180.061L236.369 180.728Z" fill="#34A853"/>
<path d="M253.169 210.768L256.618 213.995C255.394 215.775 252.613 218.668 247.829 218C241.932 217.11 237.593 211.325 237.704 204.649C237.815 197.64 242.377 193.412 247.829 194.191C253.28 194.969 255.839 200.31 256.618 203.091L257.063 204.538L242.933 209.099C243.935 211.658 245.603 213.105 247.94 213.438C250.276 213.661 251.945 212.548 253.169 210.768ZM242.266 204.871L251.723 201.867C251.278 200.31 249.72 199.086 247.94 198.752C245.603 198.418 242.266 200.31 242.266 204.871Z" fill="#EA4335"/>
<path d="M146.583 188.294L146.694 183.287L161.603 185.512C161.714 186.402 161.825 187.404 161.714 188.628C161.603 192.41 160.601 196.972 157.597 199.865C154.705 202.869 151.033 204.093 146.138 203.425C137.237 202.09 129.894 192.744 130.116 182.62C130.339 172.495 138.016 165.263 146.916 166.598C151.812 167.266 155.372 170.047 157.931 173.274L154.705 176.389C152.813 174.053 150.365 172.161 146.805 171.605C140.241 170.604 135.012 175.833 134.9 183.287C134.789 190.742 139.684 197.417 146.249 198.419C150.477 199.086 152.924 197.417 154.482 195.971C155.817 194.747 156.596 192.856 157.041 190.074L146.583 188.294Z" fill="#4285F4"/>
</g>
<defs>
<clipPath id="clip0_281_499">
<rect width="314" height="367" fill="white"/>
</clipPath>
</defs>
</svg>
