<svg width="245" height="319" viewBox="0 0 245 319" fill="none" xmlns="http://www.w3.org/2000/svg">
<g clip-path="url(#clip0_281_765)">
<path d="M76.3 276C77.9 279.2 82.2 298.6 82.1 298.4C74.6 291 56.4 289.4 51.4 289.4C48.4 289.4 28.4 290.8 31.1 297.6C33.4 303.4 58.2 295.3 58.2 295.7C58.2 296.5 41.7 302.2 43.2 309.7C44.4 315.6 67.6 300.3 67.3 300.9C65 305.5 55 309 56.7 316C57.5 319.2 63.8 316.8 65.4 316C68.1 314.6 83.6 309.1 89.1 306.2C94.4 303.5 87.7 284.6 87.4 283.1" fill="#CAA77A"/>
<path d="M76.3 276C77.9 279.2 82.2 298.6 82.1 298.4C74.6 291 56.4 289.4 51.4 289.4C48.4 289.4 28.4 290.8 31.1 297.6C33.4 303.4 58.2 295.3 58.2 295.7C58.2 296.5 41.7 302.2 43.2 309.7C44.4 315.6 67.6 300.3 67.3 300.9C65 305.5 55 309 56.7 316C57.5 319.2 63.8 316.8 65.4 316C68.1 314.6 83.6 309.1 89.1 306.2C94.4 303.5 87.7 284.6 87.4 283.1" stroke="#2D1F04" stroke-width="2.62" stroke-miterlimit="10" stroke-linecap="round" stroke-linejoin="round"/>
<path d="M160.1 299.1C152.7 302.1 145.4 301.1 138.9 306.6C137.8 307.5 134.2 310.7 134.7 312.3C135.5 315 141.4 314.3 143.5 314.4C151.6 314.6 160.2 314.4 168.3 314.6C169.8 314.6 177.3 316.7 177.5 314.6C178.1 309.4 169.4 305.3 166.8 302.6" fill="#B6B1AE"/>
<path d="M112 212.9C111.9 212.7 111.7 212.5 111.6 212.3Z" fill="#B6B1AE"/>
<path d="M57.2 31.1C54.8 31.1 48.6 43.2001 47.2 45.7001C36.8 63.9001 40.6 85.2 48.9 103.5C51 108.2 50.1 109.6 52.2 114C53.2 116 56.7 120.7 56.7 122.8C56.7 123.3 56.7 124.2 56.7 124.2C56.7 124.2 56 120.7 55.3 119.2C55.1 118.7 54.1 117.8 54.6 117.8C54.9 117.8 55.2 118.6 55.3 118.8C57.6 124.6 55 131.9 56.5 137.9C57.5 142.1 65.5 147.1 69.9 148.2C86.5 152.3 103.2 148 119.8 148C124 148 135.9 149.3 139.4 145.9C142.3 143 147.3 154 149.7 150.7C152.9 146.2 156.9 139.3 162 137.2C167.3 135.1 170.8 129.9 176.1 131.2C177.4 131.5 186.7 126 188 124.7C190.2 122.5 188.4 116.6 187.9 113.9C186.4 106.6 186.9 95.9 185.5 88.8C184.5 84 182.7 79.4 181 74.7C173.9 56.4 164 41.4 148.3 30C144.4 27.1 137.8 22.1 133.3 19.8C128.9 17.6 124.1 17.7 119.7 15.5C114 12.6 107.7 8.90005 101.6 7.40005C100 7.00005 102.2 9.70005 102.1 10C101.9 10.4 98.1 10.3001 97.6 10.2001C92.5 9.20005 87.2 9.30005 82.3 7.10005C81.5 6.70005 78.5 3.70005 77.5 4.00005C74.6 5.00005 78.9 13.1 78.9 13.1C78.9 13.1 78.5 12.4 78.2 12.1C76.8 11 73.6 10.1 71.8 9.70005C67.9 8.90005 66.3 11.4 63 12.1C62.6 12.2 58.7 13.2 58.7 13.3C58.7 14.1 64.9 15.1 64.9 15.9C64.9 16.6 63.5 16.3 63.2 16.4C61.4 16.7 51 21 51.7 23.3C52 24.3 57.5 24.3 58.6 25C58.9 25.2 59.6 25.2001 59.6 25.2001C59.6 25.2001 55.3 25.9001 53.2 26.4001C50.2 27.0001 44.8 33 49.6 33" fill="#CAA77A"/>
<path d="M209 235.7C208.1 236 197.3 259.9 196.9 263.2C196.1 269.7 198.9 277.7 199.7 284.1C200.5 290.4 204.4 298.4 207 304.3C207.9 306.3 207.8 310.7 207.3 312.9C206.3 316.9 182.4 316.8 179.1 315.5C179.1 315.5 171.7 306.3 169.3 304.5C167.3 303 168.8 302.7 164.1 300.7C161.2 299.5 157.6 299.5 154.9 296.7C152.3 294.1 150.9 288.3 148.1 286.4C145.3 284.6 143.2 285.9 134.3 287.8C125.4 289.7 118.8 289.3 110.2 287.1C108.7 286.7 74.8 283.7 63.2 270.6C61 268.1 52.2 261.4 52.8 264C53.4 266.6 47.9 260.4 47.9 253C47.9 251.8 43.4 255 44.1 254.4C45.6 253.3 39.4 240.5 41.2 240.5C47.2 240.5 56.9 240.4 62.8 242.1C66.7 243.2 73.7 215.8 77.8 216.2C84.2 216.8 93.7 225.2 100.1 225.7C106.3 226.2 114.4 240.1 115 232.4C115.6 224.7 117.9 234.2 118.7 233.4C119 233.1 131.2 220.4 131.1 218.9" fill="#CAA77A"/>
<path d="M195.1 248.7C194.8 249.4 200.1 249.1 200.2 249.1C204.4 250.5 200.8 252.4 199.5 256.8" fill="#CAA77A"/>
<path d="M56.6 140.8C56.4 138.3 50.9 145.1 52.6 147.4C53.3 148.4 54.5 149 55.2 150C55.5 150.5 54.7 151.1 54.5 151.4C51.5 155.4 49.5 160 47.7 164.5C45.7 169.4 44.5 173.8 43.7 179C43.2 182.3 45.8 185.7 45.1 188.6C43.1 196.5 40.9 194.7 33.3 210.7C30.9 215.7 26.9 221.1 25.3 224.4C23.7 227.7 22.5 234.3 23.5 234.7C36.2 239 66.7 249.5 95.1 252.4C136.6 256.7 191.7 256.3 219.3 247.1C228 244.2 214.6 207.8 208.3 181.8C204.6 166.5 200 156.7 195.2 139.3C193.5 133.2 191.9 122.4 185.9 125.9C163 139.2 166.5 130.5 161.3 137.5C159.6 139.7 144.4 140.6 142.1 142.1C141.1 142.8 137.1 142.6 135.8 142.8C129.3 144.1 120.8 145.4 114.3 146.7C100.3 149.5 91.1 146.8 77.2 144C74.9 143.5 69.6 144.1 67.4 143.8C64.7 143.4 62.4 143.3 59.7 142.6C56.4 141.9 56.6 141.1 56.6 140.8Z" fill="#FFDB1F"/>
<path d="M45.8 68.1998C47.8 60.0998 52.8 50.8998 60.1 49.4998C68.7 47.8998 75.8 54.7998 84.1 54.4998C85.6 54.3998 88.6 53.4998 89.5 52.1998C90.4 50.8998 89.5 49.1998 89.5 49.1998C90.8 49.5998 92.1 51.4998 93.7 51.8998C99.9 53.6998 106.3 48.1998 112 46.4998C130.7 40.7998 145.4 42.8998 155.3 60.9998C157.5 65.0998 161 74.3998 158.6 84.7998C155.2 99.8998 153.4 106.3 137 117.6C117.5 131.1 77.1 137.8 56.9 112.3C47.5 100.3 42.1 83.3998 45.8 68.1998Z" fill="#FFDBAF"/>
<path d="M62.9 251.8L62.8 257.4" stroke="#9D7B51" stroke-width="3.87" stroke-miterlimit="10" stroke-linecap="round" stroke-linejoin="round"/>
<path d="M69 255.2L68.9 260.8" stroke="#9D7B51" stroke-width="3.87" stroke-miterlimit="10" stroke-linecap="round" stroke-linejoin="round"/>
<path d="M74.8 258.8L74.7 264.5" stroke="#9D7B51" stroke-width="3.87" stroke-miterlimit="10" stroke-linecap="round" stroke-linejoin="round"/>
<path d="M65.6 128.8V134.4" stroke="#9D7B51" stroke-width="3.87" stroke-miterlimit="10" stroke-linecap="round" stroke-linejoin="round"/>
<path d="M71.2 131.7L71.1 137.3" stroke="#9D7B51" stroke-width="3.87" stroke-miterlimit="10" stroke-linecap="round" stroke-linejoin="round"/>
<path opacity="0.23" d="M44.9 32.8001C48.9 32.8001 52.4 31.7001 56.3 30.8001C57.4 30.5001 59.6 29.3001 59.6 30.5001C59.6 30.7001 59.1 30.7001 58.9 30.8001C55.5 32.8001 52.8 35.7001 50.9 39.2001C50.2 40.4001 48.4 43.7001 48.9 42.9001C64.2 15.2001 175.6 4.80008 169.2 117.3C169.1 118.3 168.7 130.6 167.4 134.5C166.7 136.5 173.3 130.1 175.8 131.1C176.9 131.5 185.8 124.9 186.6 124.4C188 123.4 187 118.1 187.3 116.4C193 78.5001 149.2 27.7001 145.4 25.6001C131 17.6001 101.5 8.70008 100.8 8.50008C100.7 8.50008 98.1 10.1001 96.8 9.80008C92 9.00008 86.6 7.20008 81.7 5.80008C81 5.60008 76.5 2.10008 76.3 2.50008C75.8 3.60008 75.4 9.70008 76 10.5001C76.4 11.1001 78.8 10.2001 78 10.2001C71.8 10.2001 63.9 12.2001 57.2 13.5001C57 13.5001 56.5 13.6001 56.5 13.8001C56.5 15.7001 65.2 14.5001 65.2 15.8001C65.2 16.8001 53.1 20.2001 51.5 21.5001C51 21.9001 49 23.4001 49.5 23.8001C51.1 25.4001 55.1 23.4001 57.2 24.5001" fill="#3F2719"/>
<path opacity="0.23" d="M160.7 256.2C182.7 256.3 191.9 307.7 189.3 307.5C158.3 305.1 139.4 312 139.4 313.2C139.4 314.2 144.8 314 145.8 314.2C152 315.8 168 315.5 174.3 315.1C186.1 314.4 189.3 315.5 201.1 315.5C202.6 315.5 204.3 315.6 205.5 314.8C210.4 311.5 201 296 200.4 291.1C199.4 283.3 197.6 269.7 198.7 262C199 259.6 201.5 256.2 201.1 253.8C200.1 248.8 159.2 256.2 160.7 256.2Z" fill="#3F2719"/>
<path opacity="0.23" d="M39.1 201.1C37.8 204 43.4 194.4 45.3 193.2C49.4 190.6 78.8 194.9 83.3 194.9C95 194.9 129.7 203.6 141 200.2C144.1 199.3 155.5 196.4 152.8 187.6C151.3 182.7 142.2 182.4 139.3 182.4C127.3 182.4 80.6 192.6 69 190.6C66.2 190.1 47.8 188 45.5 183.7C44.9 182.6 42.8 191.6 42.4 192.3C39.5 196.6 41.4 196.2 39.1 201.1Z" fill="#3F2719"/>
<path opacity="0.23" d="M157.7 282.6C156.7 281.5 169.4 272.3 166.2 273.3C88.2 298.3 56.6 262.9 55.8 264.1C55.5 264.5 60.1 268.1 60.4 268.5C65.4 274 70.2 276.8 76.9 280.2C113.3 298.4 158.9 284 157.7 282.6Z" fill="#3F2719"/>
<path d="M58.7 29.8999C54.1 32.8999 51.4 37.8999 48.4 42.1999C33.4 63.3999 41.3 90.2999 52 111.6C52.9 113.5 54.3 115.6 54.6 117.7C54.7 118.8 54.1 120.5 54.6 121.5C54.8 121.9 55.7 120.5 55.8 120.9C56 122.9 55.8 125.1 55.6 127C55.5 127.7 54.7 129.7 55.2 129.2C55.4 129 55.9 127.4 56.6 127.6C57 127.7 56.6 138.2 56.4 139.3" stroke="#2D1F04" stroke-width="2.62" stroke-miterlimit="10" stroke-linecap="round" stroke-linejoin="round"/>
<path d="M57.3 30.4997C55.1 31.5997 53.6 31.5997 51.4 32.2997C50.3 32.5997 49.4 32.9997 48.2 33.2997C47.1 33.4997 46 33.5997 45 33.8997C44.5 33.9997 43.6 34.7997 43.6 34.2997C43.6 32.7997 55.6 26.0997 57.9 25.3997C58.2 25.2997 58.8 25.2997 58.9 24.9997C59.1 24.4997 58 24.4997 57.5 24.3997C55.2 23.7997 49.8 25.5997 48 24.1997C47.5 23.7997 51.5 21.3997 51.8 21.1997C54.3 19.7997 56.8 17.9997 59.5 17.1997C61.1 16.6997 64.5 17.8997 64.5 16.1997C64.5 14.1997 55.5 14.8997 54.8 14.1997C54.7 14.0997 55.1 14.0997 55.2 13.9997C57.2 12.9997 59.5 12.0997 61.7 11.5997C65.8 10.5997 73.1 9.69972 77.2 10.9997" stroke="#2D1F04" stroke-width="2.62" stroke-miterlimit="10" stroke-linecap="round" stroke-linejoin="round"/>
<path d="M77.7 12.0999C76.5 9.79989 74.4 5.89989 75.5 3.19989C75.6 3.09989 76.5 2.09989 76.7 2.19989C77.5 2.59989 78.1 3.99989 79.1 4.59989C83 6.69989 87.4 8.19989 91.8 9.19989C94.4 9.79989 97 9.99989 99.5 10.5999C100.1 10.6999 101.3 10.7999 101.3 10.7999C101.3 10.7999 97.8 7.69989 99.1 6.99989C99.3 6.89989 109.3 10.5999 110.2 10.9999C117.3 13.7999 124.5 15.3999 131.3 18.6999" stroke="#2D1F04" stroke-width="2.62" stroke-miterlimit="10" stroke-linecap="round" stroke-linejoin="round"/>
<path d="M41.4 241.7C40.4 247.5 45.1 255.1 45.1 255.1C45.1 255.1 46.6 250.6 47.3 251.8C48.1 253.2 51.4 265.5 53.6 264.8C53.7 264.8 53.6 261.5 53.8 261.7C54.6 262.1 59 268 60.5 269.1C65.9 273.2 72.3 276.6 78.5 279.3C101.6 289.4 135.9 293.4 158.9 281.9" stroke="#2D1F04" stroke-width="2.62" stroke-miterlimit="10" stroke-linecap="round" stroke-linejoin="round"/>
<path d="M147.8 286.5C150.4 292.2 154.3 297.3 160.4 299.3" stroke="#2D1F04" stroke-width="2.62" stroke-miterlimit="10" stroke-linecap="round" stroke-linejoin="round"/>
<path d="M202.3 251.7C191.7 271.1 199.5 284.6 204.1 298.7C205.5 302.9 211.5 313 204.4 314.9" stroke="#2D1F04" stroke-width="2.62" stroke-miterlimit="10" stroke-linecap="round" stroke-linejoin="round"/>
<path d="M159.7 298.8C142.5 301.8 135.9 307.8 131.8 312.9" stroke="#2D1F04" stroke-width="2.62" stroke-miterlimit="10" stroke-linecap="round" stroke-linejoin="round"/>
<path d="M120 14C169.8 30.5 189.5 85.3 188.6 123.6" stroke="#2D1F04" stroke-width="2.62" stroke-miterlimit="10" stroke-linecap="round" stroke-linejoin="round"/>
<path d="M158.6 298.4C166.3 301.5 174.3 307.1 178 314.4" stroke="#2D1F04" stroke-width="2.62" stroke-miterlimit="10" stroke-linecap="round" stroke-linejoin="round"/>
<path d="M133.7 313C141 309.3 149.9 306.7 158.7 305.6C162.5 305.1 166.3 305 170 305.1" stroke="#2D1F04" stroke-width="2.62" stroke-miterlimit="10" stroke-linecap="round" stroke-linejoin="round"/>
<path d="M56.7 141.1C95.5 152.3 147.3 148.6 187.6 124.6" stroke="#2D1F04" stroke-width="2.62" stroke-miterlimit="10" stroke-linecap="round" stroke-linejoin="round"/>
<path d="M56.7 141.2C57.1 138.7 54 143.2 53.4 144.5C52.5 146.4 54.4 148 54.4 149C54.3 150.1 52.5 152.7 52 154C48.5 163.4 40.1 175.5 45.3 185.6" stroke="#2D1F04" stroke-width="2.62" stroke-miterlimit="10" stroke-linecap="round" stroke-linejoin="round"/>
<path d="M24.4 235.1C86 262.9 203.2 257 220.6 246.5" stroke="#2D1F04" stroke-width="2.62" stroke-miterlimit="10" stroke-linecap="round" stroke-linejoin="round"/>
<path d="M24.2 235C18.4 230.2 44.2 190.4 45.6 186" stroke="#2D1F04" stroke-width="2.62" stroke-miterlimit="10" stroke-linecap="round" stroke-linejoin="round"/>
<path d="M188.7 124.2C189.3 125.3 193 129.1 192.4 133C196.1 144.6 222.5 222 222.6 240.3C222.6 244.2 222.4 245.6 220 246.9" stroke="#2D1F04" stroke-width="2.62" stroke-miterlimit="10" stroke-linecap="round" stroke-linejoin="round"/>
<path d="M67.2 70.1001C60.4 66.7001 54.9 83.9001 55.4 88.8001C57.3 105.7 82 104.8 93.5 99.1001C110.1 90.8001 89.8 64.2001 78 68.9001" fill="#9D7B51"/>
<path d="M63.1 70.0998C63 67.4998 68 65.1998 74.3 64.8998C80.6 64.5998 85.9 66.3998 86 68.9998C86.1 71.5998 81.1 73.8998 74.8 74.1998C68.5 74.4998 63.3 72.6998 63.1 70.0998Z" fill="#251707"/>
<path d="M74.6 75C74.6 84.6 80 73.3 87.5 77" stroke="#2D1F04" stroke-width="3.05" stroke-miterlimit="10" stroke-linecap="round" stroke-linejoin="round"/>
<path d="M133.4 152.9C97.3 158.7 63.9 154.3 54.9 148.3" stroke="#2D1F04" stroke-width="2.62" stroke-miterlimit="10" stroke-linecap="round" stroke-linejoin="round"/>
<path d="M192.5 132C189.6 134.5 173.8 144 160.8 146.5" stroke="#2D1F04" stroke-width="2.62" stroke-miterlimit="10" stroke-linecap="round" stroke-linejoin="round"/>
<path d="M62.8 143.1C62.3 144.7 61.7 145.9 61.7 147.7" stroke="#2D1F04" stroke-width="2.62" stroke-miterlimit="10" stroke-linecap="round" stroke-linejoin="round"/>
<path d="M72.7 145.1C72 146.6 71.8 148.5 71.8 150.2" stroke="#2D1F04" stroke-width="2.62" stroke-miterlimit="10" stroke-linecap="round" stroke-linejoin="round"/>
<path d="M167.3 134.8C168 136.3 168.2 138.2 168.2 139.9" stroke="#2D1F04" stroke-width="2.62" stroke-miterlimit="10" stroke-linecap="round" stroke-linejoin="round"/>
<path d="M171.4 132.8C172.1 134.3 172.3 136.2 172.3 137.9" stroke="#2D1F04" stroke-width="2.62" stroke-miterlimit="10" stroke-linecap="round" stroke-linejoin="round"/>
<path d="M84.5 146.6L83.9 150.5" stroke="#2D1F04" stroke-width="2.62" stroke-miterlimit="10" stroke-linecap="round" stroke-linejoin="round"/>
<path d="M92.9 147.7V148.4V148.8V149.4V149.9V150.3V150.8" stroke="#2D1F04" stroke-width="2.62" stroke-miterlimit="10" stroke-linecap="round" stroke-linejoin="round"/>
<path d="M88.3 147.9V148.4V148.8V149.2V149.7V150.1" stroke="#2D1F04" stroke-width="2.62" stroke-miterlimit="10" stroke-linecap="round" stroke-linejoin="round"/>
<path d="M121 146.6V147V147.5V148.4V148.8" stroke="#2D1F04" stroke-width="2.62" stroke-miterlimit="10" stroke-linecap="round" stroke-linejoin="round"/>
<path d="M124.3 146.6V147.3V147.9V148.4" stroke="#2D1F04" stroke-width="2.62" stroke-miterlimit="10" stroke-linecap="round" stroke-linejoin="round"/>
<path d="M32.6 53.1C28.9 59.8 33.1 79.9 35.9 82C38.1 83.6 52.9 72.4 57.2 65.3C58.3 63.4 64 51.2 61.9 49.1C60.7 47.9 44.7 50.1 42.2 50.6C38.8 51.3 34.1 50.4 32.6 53.1Z" fill="#9D7B51"/>
<path d="M33.5 49.7998C28.2 63.5998 50.1 62.0998 54.1 51.6998Z" fill="white"/>
<path d="M67.3 49L50.1 49.3L21.2 49.8" stroke="#2D1F04" stroke-width="7.6" stroke-miterlimit="10" stroke-linecap="round" stroke-linejoin="round"/>
<path d="M32.8 53.3999C31.1 61.8999 54.4 62.5999 54.4 51.8999" stroke="#2D1F04" stroke-width="3.05" stroke-miterlimit="10" stroke-linecap="round" stroke-linejoin="round"/>
<path d="M43.5 52.1999C43.5 50.0999 45.2 48.3999 47.3 48.3999C49.4 48.3999 51.1 50.0999 51.1 52.1999C51.1 54.2999 49.4 55.9999 47.3 55.9999C45.2 55.9999 43.5 54.2999 43.5 52.1999Z" fill="#2D1F04"/>
<path d="M112.1 92.5998C112.9 120.2 153.4 134.9 158.1 128C161.1 123.6 167.2 102.9 159.2 88.9998C158.4 87.5998 149.6 90.5998 148.2 90.7998C136.4 92.6998 111.7 80.5998 112.1 92.5998Z" fill="#9D7B51"/>
<path d="M124.7 93.6999C124.7 96.1999 125.2 97.8999 126.1 99.0999C128.7 102.4 134.4 100.6 140.1 99.5999C146.3 98.4999 147.7 94.6999 148.9 92.3999" fill="white"/>
<path d="M109.6 90.6001L162.9 89.6001" stroke="#2D1F04" stroke-width="7.6" stroke-miterlimit="10" stroke-linecap="round" stroke-linejoin="round"/>
<path d="M122.7 94.1997C126.6 106 147.3 102.3 147.7 92.6997" stroke="#2D1F04" stroke-width="3.05" stroke-miterlimit="10" stroke-linecap="round" stroke-linejoin="round"/>
<path d="M136.9 92.5998C136.9 90.4998 138.6 88.7998 140.7 88.7998C142.8 88.7998 144.5 90.4998 144.5 92.5998C144.5 94.6998 142.8 96.3998 140.7 96.3998C138.6 96.3998 136.9 94.6998 136.9 92.5998Z" fill="#2D1F04"/>
<path d="M131.7 96.7001C131.4 96.7001 131.1 96.6001 130.8 96.6001Z" fill="#2D1F04"/>
<path d="M26.2 235.9C25.7 236.7 24.1 240.6 23 240.5C21.8 240.5 19.4 239.1 18.3 238.6C13.7 236.6 9 236.8 4.4 238.4C3.1 238.9 2 239.5 1.9 241.1C1.4 248 18.3 240.6 21.1 244.4C21.5 245 16.9 246.2 16.6 246.3C14.3 247.2 5.1 252.2 7.4 256.3C9.2 259.6 14.7 256.2 16.7 254.8C16.9 254.7 19.3 252.6 19.4 252.7C19.5 252.8 12.2 262.9 18.6 265.7C20.7 266.6 23.8 266.2 24.9 263.8C25.8 261.8 26.2 259.3 26.5 257.2C26.6 256.8 26.7 255.9 26.7 255.9C26.7 255.9 27.4 257 27.7 257.6C29.3 259.9 33.3 262.3 36.1 260.8C41.5 257.9 27.4 248.9 33.9 242.9C34.4 242.4 35.5 240.8 36.2 240.7" fill="#CAA77A"/>
<path d="M26.2 235.9C25.7 236.7 24.1 240.6 23 240.5C21.8 240.5 19.4 239.1 18.3 238.6C13.7 236.6 9 236.8 4.4 238.4C3.1 238.9 2 239.5 1.9 241.1C1.4 248 18.3 240.6 21.1 244.4C21.5 245 16.9 246.2 16.6 246.3C14.3 247.2 5.1 252.2 7.4 256.3C9.2 259.6 14.7 256.2 16.7 254.8C16.9 254.7 19.3 252.6 19.4 252.7C19.5 252.9 12.2 262.9 18.6 265.7C20.7 266.6 23.8 266.2 24.9 263.8C25.8 261.8 26.2 259.3 26.5 257.1C26.6 256.7 26.7 255.8 26.7 255.8C26.7 255.8 27.4 256.9 27.7 257.5C29.3 259.8 33.3 262.2 36.1 260.7C41.5 257.8 27.4 248.8 33.9 242.8C34.4 242.3 35.5 240.7 36.2 240.6" stroke="#2D1F04" stroke-width="2.62" stroke-miterlimit="10" stroke-linecap="round" stroke-linejoin="round"/>
<path d="M219.5 247.5C220.4 249.3 220.9 252.6 223.3 253.2C225.4 253.7 240.3 243.6 242.7 252.9C245.3 263.4 228.7 256.8 226.3 258.4C224.9 259.3 228.5 262.2 229 263.3C230.2 265.8 230.7 269.4 229.8 272C228.9 274.6 226.5 274.1 224.9 272.5C223 270.5 223.7 267.3 223.5 267.3C223.5 267.3 222.5 271 221.9 273C220.3 277.9 217.2 284.9 211.5 281.5C209.4 280.2 210.9 274.6 211.2 272.8C212.6 265.4 212.5 249.6 212.5 249.6" fill="#CAA77A"/>
<path d="M219.5 247.5C220.4 249.3 220.9 252.6 223.3 253.2C225.4 253.7 240.3 243.6 242.7 252.9C245.3 263.4 228.7 256.8 226.3 258.4C224.9 259.3 228.5 262.2 229 263.3C230.2 265.8 230.7 269.4 229.8 272C228.9 274.6 226.5 274.1 224.9 272.5C223 270.6 223.7 267.3 223.5 267.3C223.5 267.3 222.5 271 221.9 273C220.3 277.9 217.2 284.9 211.5 281.5C209.4 280.2 210.9 274.6 211.2 272.8C212.6 265.4 212.5 249.6 212.5 249.6" stroke="#2D1F04" stroke-width="2.62" stroke-miterlimit="10" stroke-linecap="round" stroke-linejoin="round"/>
<path opacity="0.23" d="M168.2 134.2C176.4 163.5 194.8 245.7 156.1 255.3C153 256.1 167.7 253.7 170.6 254.2C179.1 255.6 186.9 253.6 195.4 252C199.6 251.2 204.5 251.4 208.5 250.1C210.4 249.5 221.7 247.3 222.1 245.7C224.4 236.6 219.9 223.5 217.7 214.9C215.9 207.6 214.7 202.7 212 195.8C210 190.8 207 184.1 206 178.9C204.7 172.5 201.4 166.6 200.3 160.1C198.8 151.3 195.1 143 192.9 134.5C192.2 131.5 193.6 128.1 191 125.5C187.5 121.9 167.8 132.9 168.2 134.2Z" fill="#3F2719"/>
<path d="M131.7 313.5C151 314.7 187.7 315.2 203.8 315.2" stroke="#2D1F04" stroke-width="2.62" stroke-miterlimit="10" stroke-linecap="round" stroke-linejoin="round"/>
<path d="M68.3 177.5C75.1 177.7 81.5 177.7 87.9 177.9C93.1 178.1 95.3 181.5 94.7 184.7C93.9 189.2 89.9 192.2 84.2 193.6C83.9 193.7 83.6 193.7 83 193.8C87.5 196.8 85.9 202.4 90.7 207.5C86 207.2 81.7 207 77.4 206.8C75.1 203.6 74.2 200.4 73.8 197.3C73.6 195.6 73.1 194.3 70 194.7C67.6 198.5 65.6 202.3 65.6 206.4C61.9 206.3 58.7 206.2 55.6 206.2C58 195.2 67.2 188.6 68.3 177.5ZM76.8 183.3C76.1 185.2 75.1 186.9 73.8 189.1C76 189.1 78 189.1 80.2 189C82.1 188.9 83.7 187.8 84.4 186.4C85.1 184.9 84.5 183.7 82.7 183.5C80.9 183.2 78.9 183.3 76.8 183.3Z" fill="#2D1F04"/>
<path d="M123.5 186.8C120.5 186.9 117.7 187 114.6 187.1C114.7 184.4 113.2 183 110.6 182.9C109 182.8 107.6 183.3 106.7 185.1C106.5 186.6 107.4 187.1 108.5 187.5C110.6 188.1 112.8 188.7 114.8 189.4C116 189.8 117.1 190.3 118.1 190.8C124.7 194.4 122.4 202.8 117.6 206.5C116 207.7 113.9 208.5 111.6 208.8C107.9 209.3 103.6 209 99.2 207.8C93.4 206.3 89.7 202.4 91.4 197.5C94.7 197.5 97.9 197.5 101.3 197.5C101.3 198.1 101.4 198.7 101.5 199.2C102.1 202.1 105.7 203.6 109 202.6C110.5 202.2 111.5 201.3 111.8 199.9C112 198.6 111.4 197.6 110.3 197.1C109.3 196.6 108.2 196.3 107.2 196C105 195.2 102.8 194.6 100.8 193.7C97 191.9 96.3 189 97.5 185.6C98.8 181.8 101.1 178.7 105 177.5C108.7 176.3 112.6 176.2 116.8 177.5C121.4 179.1 123.9 182 123.5 186.8Z" fill="#2D1F04"/>
</g>
<defs>
<clipPath id="clip0_281_765">
<rect width="245" height="319" fill="white"/>
</clipPath>
</defs>
</svg>
