<?xml version="1.0" encoding="utf-8"?>
<!-- Generator: Adobe Illustrator 26.0.3, SVG Export Plug-In . SVG Version: 6.00 Build 0)  -->
<!DOCTYPE svg PUBLIC "-//W3C//DTD SVG 1.1//EN" "http://www.w3.org/Graphics/SVG/1.1/DTD/svg11.dtd" [
	<!ENTITY ns_extend "http://ns.adobe.com/Extensibility/1.0/">
	<!ENTITY ns_ai "http://ns.adobe.com/AdobeIllustrator/10.0/">
	<!ENTITY ns_graphs "http://ns.adobe.com/Graphs/1.0/">
	<!ENTITY ns_vars "http://ns.adobe.com/Variables/1.0/">
	<!ENTITY ns_imrep "http://ns.adobe.com/ImageReplacement/1.0/">
	<!ENTITY ns_sfw "http://ns.adobe.com/SaveForWeb/1.0/">
	<!ENTITY ns_custom "http://ns.adobe.com/GenericCustomNamespace/1.0/">
	<!ENTITY ns_adobe_xpath "http://ns.adobe.com/XPath/1.0/">
]>
<svg version="1.1" id="Слой_1" xmlns:x="&ns_extend;" xmlns:i="&ns_ai;" xmlns:graph="&ns_graphs;"
	 xmlns="http://www.w3.org/2000/svg" xmlns:xlink="http://www.w3.org/1999/xlink" x="0px" y="0px" width="692.5px" height="364.3px"
	 viewBox="0 0 692.5 364.3" style="enable-background:new 0 0 692.5 364.3;" xml:space="preserve">
<style type="text/css">
	.st0{fill:#FFFFFF;}
	.st1{fill:#CCCCCC;}
	.st2{fill:#E6E6E6;}
	.st3{fill:#8C8C8C;}
	.st4{fill:#222222;}
	.st5{fill:#D2D2D2;}
	.st6{fill:#FAFAFA;}
	.st7{fill:none;stroke:#2D1F04;stroke-width:2.8223;stroke-linecap:round;stroke-linejoin:round;stroke-miterlimit:10;}
	.st8{fill:#2D1F04;}
	.st9{fill:#B6B1AE;}
	.st10{opacity:0.23;fill:#3F2719;}
	.st11{fill:#CAA77A;}
	.st12{fill:#FFDB1F;}
	.st13{fill:none;stroke:#9D7B51;stroke-width:4.1072;stroke-linecap:round;stroke-linejoin:round;stroke-miterlimit:10;}
	.st14{fill:none;stroke:#2D1F04;stroke-width:2.7806;stroke-linecap:round;stroke-linejoin:round;stroke-miterlimit:10;}
	.st15{fill:#292929;}
	.st16{fill:#FFDBAF;}
	.st17{fill:#9D7B51;}
	.st18{fill:#251707;}
	.st19{fill:none;stroke:#2D1F04;stroke-width:7.6;stroke-linecap:round;stroke-linejoin:round;stroke-miterlimit:10;}
	.st20{fill:none;stroke:#2D1F04;stroke-width:2.6;stroke-linecap:round;stroke-linejoin:round;stroke-miterlimit:10;}
	.st21{fill:#3399CC;}
	.st22{fill:#FF8A8A;}
	.st23{fill:none;stroke:#2D1F04;stroke-width:2;stroke-linecap:round;stroke-linejoin:round;stroke-miterlimit:10;}
	.st24{fill:none;stroke:#251707;stroke-width:2.7806;stroke-linecap:round;stroke-linejoin:round;stroke-miterlimit:10;}
	.st25{clip-path:url(#SVGID_00000016769872748012283330000006478688616194626729_);}
	.st26{fill:none;stroke:#9D7B51;stroke-width:3.87;stroke-linecap:round;stroke-linejoin:round;stroke-miterlimit:10;}
	.st27{fill:none;stroke:#2D1F04;stroke-width:2.62;stroke-linecap:round;stroke-linejoin:round;stroke-miterlimit:10;}
	.st28{fill:none;stroke:#2D1F04;stroke-width:6;stroke-linecap:round;stroke-linejoin:round;stroke-miterlimit:10;}
	.st29{fill:#D3E5EA;}
	.st30{fill:#F78537;}
</style>
<metadata>
	<sfw  xmlns="&ns_sfw;">
		<slices></slices>
		<sliceSourceBounds  bottomLeftOrigin="true" height="364.3" width="692.5" x="-151.4" y="-1211"></sliceSourceBounds>
	</sfw>
</metadata>
<g>
	<path class="st0" d="M17.5,364.3c-6.8,0-12.5-5.1-13.4-11.8c-1.5-11.7-0.8-55.7,4.4-81.6c-7.3-15.9-10-31.8-7.9-47.4
		c1.2-9.2,3.8-21.1,12.8-30.9c1.3-1.4,2.6-2.7,3.9-3.9c4-51.7,16.8-78.6,30.2-99.9c26.1-41.9,64.2-61.3,119.8-61.3
		c1.6,0,3.3,0,4.9,0h0.1c1.8,0,4-0.4,5.6-0.8c1.2-2.9,3.3-5.3,6.1-6.8c2-1.1,4.2-1.6,6.4-1.6c3.1,0,6.2,1.1,8.6,3.1
		c1.6,1.4,3.1,2.9,4.3,4.5c0.9-0.3,1.8-0.4,2.7-0.5c0.4,0,0.8-0.1,1.2-0.1c5.2,0,9.8,2.9,12.1,7.5c0.8,1.6,1.4,3.3,1.9,5
		c0.4,0.1,0.8,0.2,1.2,0.4c5.1,1.8,8.7,6.4,9,11.8c0.3,4.2-0.3,8.2-1.8,11.7c0.6,1.5,1,3.1,1.1,4.8c0.1,2.3-0.2,4.5-0.8,6.5
		c3.5,3,7.2,6.5,10.9,10.7c2.9,3.3,4.4,7.5,4.1,11.8c-0.3,4.4-2.2,8.4-5.4,11.3c-0.2,0.2-0.5,0.4-0.7,0.6c0.8,6.4,0.9,12.1,0.7,16.5
		c-0.8,15.8-5.3,33.6-13.7,52.9c-0.3,0.6-0.5,1.2-0.8,1.7c-0.1,0.3-0.3,0.7-0.5,1c5.4,4.3,10,9.9,13.9,16.9c1.4-0.5,2.8-0.8,4.2-0.8
		c0.4,0,0.7,0,1.1,0l29.8,2.7c2.1-2.4,4.7-4.3,7.6-5.6c4-4.9,10-7.9,16.5-7.9c3.4,0,6.7,0.8,9.7,2.3c2.9,0.1,5.8,0.9,8.4,2.2
		c2.8,0.2,5.6,1,8,2.3c3.2,0.1,6.3,1,9,2.4c2.8,0.2,5.6,1,8.1,2.3c2.8,0.3,5.4,1,7.7,2.2c-2.6-7.9-5.4-16.1-9.4-24.6
		c-26.6-13-33-30.6-30.2-42.1c1-4.2,3.8-7.7,7.7-9.6c2-1,4.3-1.5,6.6-1.5c4.7,0,9,1.9,15.4,4.9c1.9,0.9,4,1.9,6.3,2.8
		c4.4,1.9,5.9,1.9,8.3,2c0.6,0,1.3,0,1.9,0.1c1.6,0.1,3.2,0.3,4.7,0.6v-30.5c0-7.1,2.8-13.7,8-18.6c4.8-4.5,11-7,17.6-7
		c0.4,0,0.9,0,1.3,0l53.9,2.8c0-0.3,0-0.6,0.1-0.9c-0.4-0.4-0.8-0.8-1.2-1.2c-2.6-3.1-3.9-7.1-3.6-11.2c0.4-4.1,2.3-7.8,5.4-10.5
		c0.7-0.6,4-3.2,9.3-6.1c1.2-1.7,2.4-3.4,3.8-5c-0.1-1-0.1-2,0-2.9c0.5-5.2,3.3-9.9,7.9-13.3c2.8-2.1,6.1-3.5,9.6-4.3
		c0.8-1.3,1.7-2.6,2.8-3.8c2.5-2.7,6-4.3,9.7-4.4c5.1-4.7,11.7-7.7,19.3-8.4c0.5,0,0.9-0.1,1.3-0.1c5.5,0,10.6,3.5,12.5,8.6
		c1.1,0.2,2.1,0.5,3.1,0.9c3.6,1.6,5.5,4.1,6.3,5.2l0.1,0.2c0,0,1.4,1.4,7.2,4c27.4,12,48,33.1,59.9,61.3L637,88
		c10.5,0.5,19.2,7.3,22.7,16.6c0.1,0,0.1-0.1,0.2-0.1c6.8-5.2,11.2-8.7,17.4-8.7c1.1,0,2.2,0.1,3.3,0.4c4.2,1,7.7,3.7,9.7,7.6
		c5.3,10.6,3,29.1-20,47.8c-2,9.3-2.7,18-3.5,26.5c-0.4,4.6-0.8,8.9-1.3,13.4c-1.3,10.4-2.6,18.5-4.1,25.5v46.7
		c0,3.1-0.6,6.2-1.7,9.1v77.8c0,6.5-5.3,11.8-11.8,11.8C647.7,362.4,44.9,364.3,17.5,364.3z"/>
	<g>
		<g>
			<polygon class="st1" points="386.1,351.9 122.3,351.9 40.3,342.5 40.3,312.5 			"/>
			<polygon class="st2" points="648.4,243.2 648.4,351.9 384.3,351.9 40.3,312.5 243.4,206.4 			"/>
		</g>
		<g>
			<g>
				<path class="st3" d="M281.7,312.7L532,338.7c7.5,0.8,15.1-0.8,21.7-4.4l84.3-46.6c3.1-1.7,4.4-4.7,4.4-9l-258.6-16.8
					c-6.5-0.5-13,0.7-18.9,3.6l-88.7,37.4C276.4,308.5,278.1,312.4,281.7,312.7z"/>
			</g>
			<path class="st4" d="M385.2,255.7l250.2,19c7,0.5,13-5,13-12.1V112.6c0-6.4-5-11.8-11.5-12.1l-250.2-13
				c-6.9-0.4-12.7,5.2-12.7,12.1v144.1C374,250,378.9,255.3,385.2,255.7z"/>
			<path class="st5" d="M381.6,89.9c0.5,0,1,0,1.5,0l250.1,13c7.3,0.4,11.5,3.8,11.5,10.2v152.1c0,3.5-1.4,6.5-3.7,8.8
				c4.3-1.8,7.4-6.1,7.4-11.2V112.6c0-4.1-2.1-7.8-5.2-9.9c-1.5-0.8-3.1-1.2-4.9-1.3l-250.2-13C385.8,88.2,383.5,88.7,381.6,89.9z"
				/>
			<path class="st6" d="M385,99.5v144.1c0,0.6,0.4,1.1,1,1.1l143.1,11l25.5,2l23.2,1.8l45.7,3.5l9.6,0.7h0.1c0.6,0,1.1-0.5,1.1-1.1
				V112.5c0-0.6-0.5-1.1-1-1.1l-107.9-5.6l-44.9-2.4l-22.9-1.2h0l-25-1.3l-46.3-2.4C385.5,98.4,385,98.9,385,99.5z"/>
			<path class="st5" d="M281.7,306.6L532,332.6c7.5,0.8,15.1-0.8,21.7-4.4l84.3-46.6c3.1-1.7,2.1-6.4-1.4-6.6l-252.7-19.2
				c-6.5-0.5-13,0.7-18.9,3.6l-84.6,40.7C277.3,301.5,278.1,306.3,281.7,306.6z"/>
			<path class="st7" d="M385.2,255.7l250.2,19c7,0.5,13-5,13-12.1V112.6c0-6.4-5-11.8-11.5-12.1l-250.2-13
				c-6.9-0.4-12.7,5.2-12.7,12.1v144.1C374,250,378.9,255.3,385.2,255.7z"/>
			<path class="st7" d="M281.7,306.6L532,332.6c7.5,0.8,15.1-0.8,21.7-4.4l84.3-46.6c3.1-1.7,2.1-6.4-1.4-6.6l-252.7-19.2
				c-6.5-0.5-13,0.7-18.9,3.6l-84.6,40.7C277.3,301.5,278.1,306.3,281.7,306.6z"/>
			<path class="st7" d="M627.7,280l-79.1,42.7c-4.7,2.5-10,3.6-15.2,3l-15.9-1.6"/>
			<polygon class="st8" points="320.7,290.5 550.5,313.7 614.1,280.4 380.4,262.3 			"/>
			<g>
				<g>
					<path class="st5" d="M326.4,298c0.1,0,0.3,0,0.4-0.1l71.7-36.1c0.4-0.2,0.6-0.8,0.4-1.2c-0.2-0.4-0.8-0.6-1.2-0.4l-71.7,36.1
						c-0.4,0.2-0.6,0.8-0.4,1.2C325.7,297.8,326,298,326.4,298z"/>
				</g>
				<g>
					<path class="st5" d="M345,299.6c0.1,0,0.3,0,0.4-0.1l71.7-36.2c0.4-0.2,0.6-0.8,0.4-1.2c-0.2-0.4-0.8-0.6-1.2-0.4l-71.7,36.2
						c-0.4,0.2-0.6,0.8-0.4,1.2C344.3,299.4,344.6,299.6,345,299.6z"/>
				</g>
				<g>
					<path class="st5" d="M363.6,301.2c0.1,0,0.3,0,0.4-0.1l71.7-36.4c0.4-0.2,0.6-0.8,0.4-1.2c-0.2-0.4-0.8-0.6-1.2-0.4l-71.7,36.4
						c-0.4,0.2-0.6,0.8-0.4,1.2C362.9,301,363.3,301.2,363.6,301.2z"/>
				</g>
				<g>
					<path class="st5" d="M382.2,302.8c0.1,0,0.3,0,0.4-0.1l71.7-36.6c0.4-0.2,0.6-0.8,0.4-1.2c-0.2-0.4-0.8-0.6-1.2-0.4l-71.7,36.6
						c-0.4,0.2-0.6,0.8-0.4,1.2C381.5,302.6,381.9,302.8,382.2,302.8z"/>
				</g>
				<g>
					<path class="st5" d="M417.5,295.8c0.1,0,0.3,0,0.4-0.1l55-28.2c0.4-0.2,0.6-0.8,0.4-1.2c-0.2-0.4-0.8-0.6-1.2-0.4l-55,28.2
						c-0.4,0.2-0.6,0.8-0.4,1.2C416.9,295.6,417.2,295.8,417.5,295.8z"/>
				</g>
				<g>
					<path class="st5" d="M435.7,297.6c0.1,0,0.3,0,0.4-0.1l55.4-28.5c0.4-0.2,0.6-0.8,0.4-1.2c-0.2-0.4-0.8-0.6-1.2-0.4l-55.4,28.5
						c-0.4,0.2-0.6,0.8-0.4,1.2C435.1,297.4,435.4,297.6,435.7,297.6z"/>
				</g>
				<g>
					<path class="st5" d="M453.9,299.3c0.1,0,0.3,0,0.4-0.1l55.8-28.8c0.4-0.2,0.6-0.8,0.4-1.2c-0.2-0.4-0.8-0.6-1.2-0.4l-55.8,28.8
						c-0.4,0.2-0.6,0.8-0.4,1.2C453.3,299.2,453.6,299.3,453.9,299.3z"/>
				</g>
				<g>
					<path class="st5" d="M472.1,301.1c0.1,0,0.3,0,0.4-0.1l56.2-29.2c0.4-0.2,0.6-0.8,0.4-1.2s-0.8-0.6-1.2-0.4l-56.2,29.2
						c-0.4,0.2-0.6,0.8-0.4,1.2C471.5,300.9,471.8,301.1,472.1,301.1z"/>
				</g>
				<g>
					<path class="st5" d="M475.3,310.7c0.1,0,0.3,0,0.4-0.1l71.7-37.4c0.4-0.2,0.6-0.8,0.4-1.2c-0.2-0.4-0.8-0.6-1.2-0.4L474.8,309
						c-0.4,0.2-0.6,0.8-0.4,1.2C474.6,310.6,474.9,310.7,475.3,310.7z"/>
				</g>
				<g>
					<path class="st5" d="M493.9,312.3c0.1,0,0.3,0,0.4-0.1l71.7-37.5c0.4-0.2,0.6-0.8,0.4-1.2c-0.2-0.4-0.8-0.6-1.2-0.4l-71.7,37.5
						c-0.4,0.2-0.6,0.8-0.4,1.2C493.2,312.2,493.5,312.3,493.9,312.3z"/>
				</g>
				<g>
					<path class="st5" d="M512.5,313.9c0.1,0,0.3,0,0.4-0.1l71.7-37.7c0.4-0.2,0.6-0.8,0.4-1.2c-0.2-0.4-0.8-0.6-1.2-0.4l-71.7,37.7
						c-0.4,0.2-0.6,0.8-0.4,1.2C511.8,313.8,512.2,313.9,512.5,313.9z"/>
				</g>
				<g>
					<path class="st5" d="M531.1,315.5c0.1,0,0.3,0,0.4-0.1l71.7-37.9c0.4-0.2,0.6-0.8,0.4-1.2c-0.2-0.4-0.8-0.6-1.2-0.4l-71.7,37.9
						c-0.4,0.2-0.6,0.8-0.4,1.2C530.5,315.4,530.8,315.5,531.1,315.5z"/>
				</g>
			</g>
			<g>
				<g>
					<path class="st5" d="M608.2,285.4c0.5,0,0.9-0.4,0.9-0.8c0-0.5-0.3-0.9-0.8-1l-246-19c-0.5,0-0.9,0.3-1,0.8
						c0,0.5,0.3,0.9,0.8,1L608.2,285.4C608.2,285.4,608.2,285.4,608.2,285.4z"/>
				</g>
				<g>
					<path class="st5" d="M596.9,291.5c0.5,0,0.9-0.4,0.9-0.8c0-0.5-0.3-0.9-0.8-1l-244.7-20.1c-0.5,0-0.9,0.3-1,0.8
						c0,0.5,0.3,0.9,0.8,1L596.9,291.5C596.9,291.5,596.9,291.5,596.9,291.5z"/>
				</g>
				<g>
					<path class="st5" d="M585.6,297.6c0.5,0,0.9-0.4,0.9-0.8c0-0.5-0.3-0.9-0.8-1l-243.3-21.2c-0.5,0-0.9,0.3-1,0.8
						c0,0.5,0.3,0.9,0.8,1L585.6,297.6C585.5,297.6,585.6,297.6,585.6,297.6z"/>
				</g>
				<g>
					<path class="st5" d="M574.3,303.8c0.5,0,0.9-0.4,0.9-0.8c0-0.5-0.3-0.9-0.8-1l-241.9-22.2c-0.5,0-0.9,0.3-1,0.8
						c0,0.5,0.3,0.9,0.8,1L574.3,303.8C574.2,303.8,574.3,303.8,574.3,303.8z"/>
				</g>
				<g>
					<path class="st5" d="M563,309.9c0.5,0,0.9-0.3,0.9-0.8c0-0.5-0.3-0.9-0.8-1l-240.6-23.3c-0.5,0-0.9,0.3-1,0.8
						c0,0.5,0.3,0.9,0.8,1L563,309.9C562.9,309.9,562.9,309.9,563,309.9z"/>
				</g>
			</g>
			<path class="st6" d="M474.2,310.7l-15,9.2c-1.1,0.7-2.4,1-3.7,0.9l-87.4-8.9c-1.1-0.1-1.3-1.5-0.4-2l17.7-9.4
				c1.1-0.6,2.3-0.8,3.4-0.7l85,9C474.7,308.8,475,310.1,474.2,310.7z"/>
		</g>
		<path class="st9" d="M501.5,236.1c-0.1-0.2-0.2-0.4-0.4-0.6"/>
		<path class="st10" d="M479.8,228c-0.2-0.1-0.3-0.2-0.5-0.3"/>
		<g>
			<path class="st11" d="M319.3,262.6c-9,4.9-34.7,22.4-56.5,33.4c-9.5,4.8-19.3,6.4-29.6,3.3c-0.3-1.3-0.6-2.5-1-3.6
				c-1.8-6-4.8-14.1-7.4-19.7c8-12.7-0.3-30.6-5-42.4c5.8-2.6,11.3-5.3,13.9-7.3c3.7,9,8,20.8,9.8,26c24.8-7.9,47.4-8.8,67.7-11.6
				c10.6-1.5,36.4-7.3,37.9-2.6C351.4,244.8,327.3,258.3,319.3,262.6z"/>
			<path class="st12" d="M181.4,184.8c7.7,22.7,18.3,42.4,21.1,55.8c8.4-3.5,27.7-11.4,31.7-15.3c0.3-0.3,0.6-0.5,0.8-0.8
				c0.9-0.9,2.2-5.8-1.4-8.3c-0.4-1.2-0.9-2.5-1.4-3.9c-9.3-25-25-32.9-41.7-28.9L181.4,184.8z"/>
			<path class="st11" d="M31.1,195.9c5.5-4.1,10.2-6.7,16-8.4c5.3-1.5,41.7,14.9,59.8,20.8c6.2,2,55.1,17.5,107.6,7.4c0,0,0,0,0-0.1
				c-5.2-11.7-5.8-23.4-5.3-23.7c0.9-0.4,1.7,1.8,2,2c0.7,0.6-0.5-1.9-0.7-2.9c-0.4-2.6-0.9-5.5-0.7-8.1c0-0.6,1.4,1.2,1.6,0.7
				c0.5-1.3-0.4-3.6-0.3-5c0.2-2.8,1.9-5.8,3-8.3c6.4-14.9,11.8-31.7,12.6-48.2c0.5-10.8-0.7-31.4-15.3-47.9
				c-2.1-2.4,6.8-2.5,6.6-8.3c-6.5,3.5-15.4-1.2-18.9-3.2c8.3,0.3,20.5-1.5,19.7-12.9c-4.9,5.4-11.5,7.8-20.1,5.8
				c3.5-1.7,14.1-8.4,9.4-17.9c-2.3,8-8.8,9.9-17.4,6.8c4.2-2.1,7.1-8.4,0.6-13.8c0.7,6.6-12,9.4-18.5,9.3
				c-47-0.9-85.5,10.9-113.1,55C44.9,118.5,33.9,146.9,31.1,195.9z"/>
			<path class="st12" d="M233.1,351.9H18.3h-0.1c-1.3-11.1-0.6-54.3,4.1-78.3c0-0.1,0-0.2,0.1-0.3c0.2-1.1,0.4-2.1,0.7-3.1
				c0.1-0.5,0.2-1.1,0.4-1.6c0-0.1,0.1-0.2,0.1-0.3c-6.6-12.7-10.9-27.5-8.7-44c0.4-2.7,0.8-5.3,1.4-7.7c0-0.1,0-0.2,0.1-0.3
				c1.4-5.6,3.6-10.6,7.4-15c0.1-0.2,0.3-0.4,0.5-0.5c2.4-2.6,4.7-4.7,7.1-6.4c0,0.5-0.1,1-0.1,1.6c0.3-0.2,0.7-0.5,1-0.7
				c3.4-2.4,7-4.5,10.3-6c0,0,0,0,0.1,0c0,0,0,0,0,0c0.4-0.1,0.8-0.2,1.2-0.2c0,0,0.1,0,0.1,0c2.7-0.5,5.4-0.6,8.1-0.4
				c0.8,0.1,1.7,0.2,2.5,0.3c1.1,0.3,2.3,0.7,3.6,1.1c7.1,2.4,16.7,6.2,26,9.9c0,0,0.1,0,0.1,0c8.4,3.3,16.6,6.5,22.8,8.5
				c1.1,0.4,3.4,1.1,6.8,2.1c0.1,0,0.2,0.1,0.3,0.1c11.8,3.6,34.1,8.3,60,8.6c1.7,0,3.4,0,5.2,0c11.3-0.1,23.2-1.1,35.3-3.4
				c0,0,0,0,0,0c0,0,0,0,0,0c0,0,0,0,0,0c-0.2-3.2,3.3,3.1,4,4.8c0.9,2.6-1.8,4.6-1.8,5.8v0.1c0.1,1.6,1.8,5.2,2.5,6.9
				c4.8,11.8,13.2,29.8,5.1,42.6c2.6,5.6,5.6,13.8,7.4,19.7C235.9,309.8,238.7,336.9,233.1,351.9z"/>
			<g>
				<line class="st13" x1="106.5" y1="180.8" x2="105.4" y2="188.2"/>
				<line class="st13" x1="114.8" y1="184.8" x2="113.6" y2="192.2"/>
			</g>
			<path class="st10" d="M232.4,298c-4-5.8-7.8-10.5-10.2-12.3c-5.1-3.9-11.9-4.5-17.9-5c-15.5-1.4-29.4,12.1-46,10.6
				c-4.3-0.4-16.3-3.8-12-10.9c2.4-3.9,12-2,15.8-1.7c15.8,1.4,30.3,0.8,45.9-0.3c3.7-0.3,12.7,0.4,16.3-4.9
				c0.4,2.5,2.6,8.8,3.6,11.4C230.4,291,231.1,293.5,232.4,298z"/>
			<path class="st14" d="M214.5,215.7c-52.5,10.1-103.7-5-109.2-8.4"/>
			<path class="st14" d="M18.2,352.1c-1.5-11.5-0.5-61.4,5.2-83.8"/>
			<path class="st14" d="M214.5,215.7c-0.3-3.4,3.3,3,4,4.7c0.9,2.6-1.8,4.6-1.8,5.8c0,1.5,1.8,5.2,2.5,6.9
				c4.8,11.8,13.2,29.8,5.1,42.6c2.6,5.6,5.6,13.8,7.4,19.7c4.2,14.3,7,41.4,1.4,56.4"/>
			<path class="st15" d="M27.7,226.5c4.6-1.8,8.9-3.5,13.4-4.1c3.7-0.5,5.2,1.7,5.9,4.4c1,3.7,0.3,6.8-2.3,9.2
				c-0.1,0.1-0.3,0.2-0.6,0.5c4.2,1.2,6.3,5.7,10,8.6c-2.5,0.9-4.6,1.7-6.9,2.6c-2.2-2-4.3-4.2-6.3-6.5c-1.1-1.2-2.2-2.1-3.8-1
				c1,3.3,2.3,6.7,3.8,10c-2.1,0.8-3.9,1.5-5.9,2.3C31.2,244.2,28.8,235.9,27.7,226.5z M34.7,229.7c0.3,1.8,0.6,3.4,1.1,5.4
				c1.3-0.5,2.6-1,3.9-1.6c1.1-0.6,1.5-1.7,1.3-3c-0.2-1.4-1.1-2.2-2.3-2C37.4,228.7,36.1,229.3,34.7,229.7z M61.4,216.7
				c-2.8-0.2-5.5,0.5-8.2,2.2c-2.8,1.7-4.4,4.8-3.9,8.1c0.4,2.9,2.3,4.9,5.3,5.3c1.6,0.2,3.1,0.2,4.7,0.2c0.8,0,1.5,0,2.3,0.1
				c0.9,0.1,1.6,0.7,1.9,1.7c0.3,1.1,0,2-0.7,2.7c-1.6,1.5-4,1.2-5.4-0.9c-0.3-0.4-0.5-0.8-0.8-1.2c-1.9,0.8-3.7,1.5-5.5,2.3
				c1.4,4,4.5,6.3,7.8,6.1c2.5-0.1,4.8-0.9,6.8-2.1c1.2-0.8,2.4-1.9,3.1-3.2c2.1-4,0.7-10.8-4.6-11.9c-0.9-0.2-1.7-0.3-2.6-0.3
				c-1.6-0.1-3.1,0-4.7,0c-0.8,0-1.6-0.2-1.9-1.4c0.1-1.6,1-2.2,2.2-2.5c1.7-0.5,2.9,0.4,3.5,2.3c1.9-0.7,3.8-1.4,5.8-2.2
				C65.7,218.6,64.3,217,61.4,216.7z"/>
			<path class="st10" d="M58.7,281.3c-2.1,1.5-3.6,2.9-4.8,4.2c0,0-0.1,0-0.1,0.1c-2.1,2.1-3.3,3.9-4.3,5c-0.5,0.6-1.1,1.1-1.7,1.5
				c-0.1,0.1-0.2,0.1-0.3,0.2c-3,1.6-6.2,0.4-9-2c-1.6,13.6-1.1,42.4,1,61.6H18.3c-1.3-10.6-0.6-54.3,4-78.3c0-0.1,0-0.2,0.1-0.3
				c0.2-1.1,0.4-2.1,0.7-3.1c0.1-0.5,0.2-1.1,0.4-1.6c-6.6-12.7-11-27.6-8.8-44.2c0.4-2.8,0.9-5.4,1.6-8c0-0.1,0-0.2,0.1-0.3
				c1.5-5.5,3.9-10.5,7.4-15c0.1-0.2,0.3-0.4,0.5-0.6c6.1-7.5,12.7-10.8,19.6-11.8c0,0,0.1,0,0.1,0c2.6-0.4,5.3-0.5,8.1-0.4
				c2.8,0.1,5.6,0.4,8.5,0.9c-0.8,0.2-1.6,0.3-2.4,0.6c-21.2,5.6-31.2,27.6-26.6,52.6c0.9,4.8,2.1,9.2,3.5,13.1
				c1.9,5.2,4.3,9.7,6.8,13.4C47.3,277.3,53.8,281.6,58.7,281.3z"/>
			<path class="st14" d="M206.3,217.6c0.5,2.2,1.1,3.9,0.9,6.2"/>
			<path class="st14" d="M193,219c0.8,2,0.8,4.6,0.6,6.8"/>
			<line class="st14" x1="177.2" y1="219.6" x2="177.6" y2="224.9"/>
			<polyline class="st14" points="166,220.1 166,221 165.9,221.5 165.8,222.4 165.8,223 165.7,223.6 165.7,224.2 			"/>
			<polyline class="st14" points="172.1,220.9 172,221.5 172,222.1 171.9,222.7 171.9,223.3 171.8,223.8 			"/>
			<polyline class="st14" points="129,215.3 129,215.9 128.9,216.5 128.8,217.6 128.8,218.2 			"/>
			<polyline class="st14" points="124.7,214.9 124.6,215.8 124.5,216.7 124.5,217.2 			"/>
			<path class="st14" d="M216.8,226.3c-10.1,6.1-50.4,11-100.9-1.6"/>
			<g>
				<path class="st16" d="M221.4,100.3c-2.8-10.6-8.6-22.3-15.7-23.6c-4.5-0.8-8.3,1.6-12.1,4c-3.4,2.1-6.5,1.5-7.3-0.9
					c-0.8-2.2,0.4-3.7,2.7-5.4c-4.4,1.4-5.7,3.3-9.2,5.1c-5.9,3-9.2,3.7-10.8,3.4c-4.6-0.8-9.5-4.9-13.7-6.3
					c-18.7-6-32.5-2.2-40.3,22.4c-1.7,5.5-4.1,18.1-0.7,31.6c4.9,19.7,12.2,30.1,24.3,41.7c18.8,18,59.9,22,76.6-13.1
					C223.1,142.8,226.6,120,221.4,100.3z"/>
				<path class="st17" d="M199.7,112.3c6,0.3,13.2,9.4,9,24.3c-3.1,10.8-8.7,17.3-14.8,22.1c-9.9,7.8-20.7,6.9-27.9-2.1
					c-7.6-9.5-7.9-21.5-4.6-30.5c3.5-9.7,13.6-15.9,22.6-14.8L199.7,112.3z"/>
				<path class="st17" d="M221.4,100.3c1.3,5.7,3.4,14.6,2.1,27.8c-25.3-6.5-31.7-44.5-29.9-47.5c4.7-3,7.9-4.9,12.5-3.8
					C209.5,77.5,217.2,82.2,221.4,100.3z"/>
				<path class="st17" d="M168.8,82.9c0.2,41.2-29.5,50.4-54.2,48.9c-3.2-12-2.3-23.8,0.2-31.9c2.5-7.9,7.6-21.4,19.4-24.8
					C145.5,71.9,162.3,78.2,168.8,82.9z"/>
				<path class="st18" d="M205.2,114.1c0.3-3.4-4.3-6.7-10.4-7.5c-6.1-0.8-11.3,1.3-11.6,4.7c-0.3,3.4,4.3,6.8,10.4,7.5
					C199.7,119.6,204.9,117.5,205.2,114.1z"/>
			</g>
			<path class="st19" d="M191.1,81.8c7.5-5.5,17.2-11.9,38.2,11.7"/>
			<g>
				<path class="st0" d="M208.3,89.4L208.3,89.4c-5.7,1.9-8.4,8.9-6.2,15.7l0.3,0.8c2.2,6.8,8.7,10.8,14.3,8.9
					c5.7-1.9,8.4-8.9,6.2-15.7l-0.3-0.8C220.4,91.5,213.9,87.5,208.3,89.4z"/>
				<path class="st20" d="M208.3,89.4L208.3,89.4c-5.7,1.9-8.4,8.9-6.2,15.7l0.3,0.8c2.2,6.8,8.7,10.8,14.3,8.9
					c5.7-1.9,8.4-8.9,6.2-15.7l-0.3-0.8C220.4,91.5,213.9,87.5,208.3,89.4z"/>
				<circle class="st8" cx="216" cy="104" r="2.6"/>
			</g>
			<g>
				<path class="st0" d="M146.8,89.8L146.8,89.8c-7.7-1.1-14.8,4.3-15.8,11.9l-0.1,0.9c-1.1,7.6,4.3,14.7,12,15.7
					c7.7,1.1,14.8-4.3,15.8-11.9l0.1-0.9C159.9,97.9,154.5,90.9,146.8,89.8z"/>
				<path class="st20" d="M146.8,89.8L146.8,89.8c-7.7-1.1-14.8,4.3-15.8,11.9l-0.1,0.9c-1.1,7.6,4.3,14.7,12,15.7
					c7.7,1.1,14.8-4.3,15.8-11.9l0.1-0.9C159.9,97.9,154.5,90.9,146.8,89.8z"/>
				<circle class="st8" cx="150.6" cy="105.8" r="2.8"/>
			</g>
			<path class="st10" d="M31.1,195.9c5.4-3.9,11.4-7.3,16-8.4c5.4-1.3,18.9,3.5,22.4,5.3c1.5-84.4,47.2-121.6,77.4-128.5
				c3.6-0.8,12.7-2.4,13.6-6.8c3.4,1.4,4.8,4.4,8.7,4.6c2.4,0.1,5.8-1.3,9.3-8.4c1.6,4.8-0.7,8.7,1.7,9.1c3.7,0.5,11.9-5.7,15.5-4.7
				c-5.4,4.9,1.5,10.3,4.8,11.5c3.5,1.4,7.2,1.6,8.3,0c0.9,1.5,1.3,2.5,2.4,3.8c0.5-1.6,7.1-2.4,6.9-7.4c-6.5,3.5-15.4-1.2-18.9-3.2
				c8.3,0.3,20.5-1.5,19.7-12.9c-4.9,5.4-11.5,7.8-20.1,5.8c3.5-1.7,14.1-8.4,9.4-17.9c-2.3,8-8.8,9.9-17.4,6.8
				c4.2-2.1,7.1-8.4,0.6-13.8c0.7,6.6-12,9.4-18.5,9.3c-47-0.9-85.5,10.9-113.1,55C44.9,118.5,33.9,145.9,31.1,195.9z"/>
			<path class="st19" d="M171.5,82.7c-19.9-9-38.6-13.4-67.4,18.5"/>
			<g>
				<g>
					<path class="st15" d="M244.2,322l-9.3-0.7c-0.3-3.4,1-4.9,2.3-6.3L244.2,322z"/>
					<path class="st16" d="M234.9,321.3l-15.1-1.1c0,0-2.5-6.5-2.7-6.8c-0.3-0.3,5.1-0.6,5.1-0.6l-2.8-7.3l7.6-0.8l10.3,10.3
						C235.9,316.4,234.6,318,234.9,321.3z"/>
					<path class="st21" d="M217,313.4c0.3,0.3,2.7,6.8,2.7,6.8l-77.3-35.5c-5-2.3,2.2-17.8,7.1-15.5l77.3,35.5l-7.6,0.8l2.8,7.3
						C222.1,312.8,216.8,313.1,217,313.4z"/>
					<path class="st22" d="M142.5,284.7l-15-6.9c-5-2.3,2.2-17.8,7.1-15.5l15,6.9C144.6,266.9,137.5,282.5,142.5,284.7z"/>
				</g>
				<path class="st10" d="M244.2,322.1l-9.3-0.7l-15.1-1.1l-77.3-35.5l-15-6.9c-2.9-1.4-1.6-7.4,1-11.6c-1.3,3.5-1.1,5.7,1.1,6.7
					l15,6.9l70,32.1c4.9,2.2,10,3.8,15.3,4.6l10.4,1.6L244.2,322.1z"/>
				<g>
					<polyline class="st23" points="237.2,314.9 244.2,322 234.9,321.3 					"/>
					<line class="st23" x1="226.9" y1="304.6" x2="237.2" y2="314.9"/>
					<line class="st23" x1="234.9" y1="321.3" x2="219.8" y2="320.1"/>
					<path class="st23" d="M219.8,320.1l-77.3-35.5c-5-2.3,2.2-17.8,7.1-15.5l77.3,35.5"/>
					<path class="st23" d="M142.5,284.7l-15-6.9c-5-2.3,2.2-17.8,7.1-15.5l15,6.9C144.7,266.9,137.6,282.4,142.5,284.7z"/>
				</g>
			</g>
			<path class="st11" d="M203,300.1c-16.1,9.6-34.9,16.7-53.8,22.8c-20.4,6.7-37.6,8.8-50.1,6.1c-19.5-4.2-32.2-21-49.3-38.9
				c2.8-3.1,6.3-11.1,27-17.7c6.7-2.1,13.6-1.9,23.2-5.5c13.9,23.7,26,27.7,57.9,25.8c8.8-0.5,18-2.7,38.1-4
				C206.6,288,213,294.2,203,300.1z"/>
			<path class="st14" d="M214.5,215.7c-5.2-11.7-5.9-23.5-5.3-23.7c0.9-0.4,1.7,1.8,1.9,2c0.7,0.6-0.5-1.9-0.7-2.9
				c-0.4-2.5-0.9-5.5-0.7-8.1c0-0.6,1.4,1.2,1.6,0.7c0.5-1.3-0.4-3.6-0.3-5c0.2-2.8,1.8-5.8,3-8.3c6.4-14.9,11.8-31.7,12.6-48.2
				c0.5-10.8-0.7-31.4-15.3-47.9c-2.1-2.4,6.8-2.5,6.6-8.3c-6.5,3.5-15.3-1.2-18.9-3.2c8.3,0.3,20.5-1.5,19.7-12.9
				c-4.9,5.4-11.5,7.8-20.1,5.8c3.5-1.7,14.1-8.4,9.4-17.9c-2.3,8-8.8,9.9-17.4,6.8c4.2-2.1,7.1-8.4,0.6-13.8
				c0.7,6.6-12,9.4-18.5,9.3c-47-0.9-85.5,10.9-113.1,55c-14.7,23.6-25.4,50.7-28.5,99"/>
			<path class="st14" d="M96.4,237.6c0.2,1,0.4,1.9,0.6,2.8c1.2,4.2,3.6,9.5,4.2,13.7c4.4,5.8,7.1,8.8-1.1,12.8"/>
			<path class="st5" d="M202.6,300.1c-10.4,6.2-22,11.3-33.9,15.9c-6.7-10.5-6.2-18.1-5.3-23.7c9.7-1.1,15.3-3.5,31.6-4.5
				C205.5,287,212.5,294.2,202.6,300.1z"/>
			<path class="st10" d="M203,300.1c-16,9.8-34.9,16.7-53.8,22.9c-20.4,6.7-37.6,8.8-50.1,6.1c-19.5-4.2-32.2-21-49.3-38.9
				c1.8-2,3.9-6.1,10.7-10.5c-1.9,4.1,3.4,12.5,14,22.2c11.8,10.6,20.9,21.1,32.2,21.7c11.3,0.6,48.2-9.4,67.1-15.8
				c17.1-5.8,27.2-13.3,25.5-19.8C208.4,288,209.9,295.8,203,300.1z"/>
			<path class="st14" d="M49.9,290.1c-5,5.6-11,1.3-15.2-4.2c-11.7-15.6-23.3-36.7-20-61.7c1.2-9.2,3.4-17.1,9.3-23.5
				c19.8-21.5,39.5-10.4,61.1-0.4"/>
			<path class="st14" d="M100.1,254.5c-16.5-2.6-39.5,1.6-54.3,15.7"/>
			<path class="st14" d="M88.6,254.8c0.6,2,0.7,3.7,0.8,5.8"/>
			<line class="st14" x1="76.4" y1="256.6" x2="77.4" y2="261.6"/>
			<line class="st14" x1="65.4" y1="259.5" x2="67.4" y2="264.1"/>
			<path class="st14" d="M233.1,226.4c3.8,9.1,8,20.3,9.9,25.7c24.8-7.9,47.4-8.8,67.7-11.6c10.6-1.5,37-7.1,38.5-2.4
				c2.1,6.7-22.5,20-30.5,24.3c-9,4.9-34.7,22.4-56.5,33.4c-9.7,4.9-18.7,6.7-29.1,3.5"/>
			<path class="st14" d="M220.5,232.9c6.2-2.8,11.8-5.7,13.7-7.6c0.3-0.3,0.6-0.5,0.8-0.8c0.9-0.9,2.2-5.8-1.4-8.3
				c-0.4-1.2-0.9-2.5-1.4-3.9c-5.5-14.9-13.3-23.7-22.3-27.6"/>
			<path class="st14" d="M202.6,300.4c-16.1,9.6-34.5,16.3-53.3,22.5c-20.4,6.7-37.6,8.8-50.1,6.1c-19.5-4.2-32.2-21-49.3-38.9
				c2.8-3.1,6.3-11.1,27-17.7c6.7-2.1,13.6-1.9,23.2-5.5c13.9,23.7,26,27.7,57.9,25.8c8.8-0.5,16.9-3.8,37.1-5
				C205.5,287,212.5,294.6,202.6,300.4z"/>
			<path class="st14" d="M163.8,292.4c-0.9,5.7-1.4,13,5.3,23.5"/>
			<path class="st14" d="M204.9,292.4c-11.3,4.9-28.6,10.3-40.9,11.8"/>
			<path class="st24" d="M199.7,140.2c-6.4,2.5-14.7-1.8-17-6.3"/>
			<path class="st24" d="M195.8,116.5c1.6,7,0.5,18.4-1.8,24.3"/>
			<path class="st0" d="M296.5,330.2l-52-14.2c-5.2-1.4-7.9-7.1-5.6-12l44.1-95.7c1.8-3.9,6.1-5.9,10.2-4.7l52,14.2
				c5.2,1.4,7.9,7.1,5.6,12l-44.1,95.7C304.9,329.3,300.6,331.3,296.5,330.2z"/>
			<g>
				<path class="st5" d="M349,233.7c-4.7,1.8-12.4,6.9-13.9,13.6c-0.8,3.6,1.8,7.5,5.4,8.1c5.5,1,10.2-4.8,10.1-10.8
					C353.1,237.9,352.8,232.3,349,233.7z"/>
				<path class="st14" d="M349,233.7c-4.7,1.8-12.4,6.9-13.9,13.6c-0.8,3.6,1.8,7.5,5.4,8.1c5.5,1,10.2-4.8,10.1-10.8
					C353.1,237.9,352.8,232.3,349,233.7z"/>
				<path class="st14" d="M334.9,249.1c8.7-0.4,11-1.4,15.6-4.5"/>
			</g>
			<path class="st14" d="M339.1,255l-32.5,70.4c-1.8,3.9-6.1,5.9-10.2,4.7l-52-14.2c-5.2-1.4-7.9-7.1-5.6-12l44.1-95.7
				c1.8-3.9,6.1-5.9,10.2-4.7l52,14.2c5.2,1.4,7.9,7.1,5.6,12l-1.8,3.9"/>
			<g>
				<path class="st14" d="M295.3,212c-2.8-1.2-4.7-3.9-4.7-7.1c0-4.2,3.4-7.7,7.7-7.7c4.2,0,7.7,3.4,7.7,7.7c0,0.7-0.1,1.4-0.3,2.1"
					/>
				<path class="st14" d="M304.1,214.3c-2.8-1.2-4.7-3.9-4.7-7.1c0-4.2,3.4-7.7,7.7-7.7c4.2,0,7.7,3.4,7.7,7.7
					c0,0.7-0.1,1.4-0.3,2.1"/>
				<path class="st14" d="M311.8,216.4c-2.8-1.2-4.7-3.9-4.7-7.1c0-4.2,3.4-7.7,7.7-7.7c4.2,0,7.7,3.4,7.7,7.7
					c0,0.7-0.1,1.4-0.3,2.1"/>
				<path class="st14" d="M320.6,218.8c-2.8-1.2-4.7-3.9-4.7-7.1c0-4.2,3.4-7.7,7.7-7.7c4.2,0,7.7,3.4,7.7,7.7
					c0,0.7-0.1,1.4-0.3,2.1"/>
				<path class="st14" d="M328.9,221.2c-2.8-1.2-4.7-3.9-4.7-7.1c0-4.2,3.4-7.7,7.7-7.7c4.2,0,7.7,3.4,7.7,7.7
					c0,0.7-0.1,1.4-0.3,2.1"/>
				<path class="st14" d="M336.6,223.4c-2.8-1.2-4.7-3.9-4.7-7.1c0-4.2,3.4-7.7,7.7-7.7c4.2,0,7.7,3.4,7.7,7.7
					c0,0.7-0.1,1.4-0.3,2.1"/>
			</g>
			<g>
				<path class="st23" d="M281.6,226.9c0.3-0.6,0.6-2.3,1.5-2.4c0.6-0.1,1.2,0.7,1.5,1.1c0.6,0.7,0.7,1.4,1.8,0.9
					c0.2-0.1,0.4-0.3,0.6-0.2c0.7,0,1.4,1.2,1.9,1.6c0.4,0.3,0.7,0.6,1.2,0.6c0.4,0,0.8-0.1,1.2,0c0.7,0.2,0.9,1.1,1.4,1.6
					c0.4,0.3,0.5,0.3,1,0.3c1.9,0,3.8,0,5.8,0c0.4,0,0.6,0,0.9,0.2c0.8,0.6,1.2,1.2,2.3,1.1c0.7,0,1.4-0.4,2.1-0.4
					c0.9,0,1.8,0.7,2.4,1.3c0.3,0.3,0.8,1.2,1.2,1.5c0.3,0.2,0.8-0.1,1.2-0.2c0.7-0.2,1.7-0.8,2.5-0.7c0.5,0.1,0.9,0.5,1.2,0.9
					c0.8,0.9,1.5,1.8,2.8,2c0.2,0,0.4,0,0.7,0c0.9,0,2-0.2,2.8,0.2c0.6,0.2,1,0.8,1.6,1.1c1.1,0.5,1.9-0.6,3.1-0.4
					c0.6,0.1,1,0.6,1.6,0.8c0.4,0.1,0.8-0.1,1.3,0c0.6,0.1,1.1,0.5,1.6,0.7c0.5,0.1,0.5,0,1-0.1"/>
				<path class="st23" d="M276,239.8c1.9,0.1,3.8-0.8,5.7-0.4c0.2,0.9,0.1,2.8,1,3.4c0.2,0.1,0.4,0.1,0.7,0c1.2,0,2.4,0.1,3.5,0.1
					c1.1,0.1,3.3-0.1,4.2,0.7c0.3,0.3,0.2,0.5,0.4,0.9c0.4,0.6,1.2,0.7,1.9,0.7c1.2,0.1,2.4-0.3,3.6-0.2c0.5,0,0.4,0.3,0.8,0.4
					c0.5,0.2,1.5,0,2.1,0c0.6,0,1.1,0,1.7,0c0.2-0.1,0.4-0.1,0.6,0.1c0.5,0.5-0.1,1.6,0.8,1.9c0.7,0.3,1.9-0.3,2.7-0.4
					c0.8-0.1,1.2,0.4,1.7,0.9c1.6,1.6,3,3.5,5.2,4.2c0.4-0.5,1-3.5,2-2.8c0.6,0.5,0.9,1,1.7,1.3c0.8,0.3,1.4,0.3,2-0.3
					c0.6,0.2,1.1,1.1,1.5,1.5c0.6,0.6,1.1,1.3,2,1.4"/>
				<path class="st23" d="M280.4,258.6c0.9-0.1,1.8-0.6,2.7-0.9c0.9-0.2,1.5,0.6,2,1.2c0.4,0.4,0.7,1,1.3,0.9
					c0.7-0.1,1.1-0.5,1.8-0.4c0.6,0,1.1,0.2,1.8,0.2c0.4,0,0.8-0.1,1.1,0.2c0.5,0.3,0.6,1.1,1,1.5c0.7,1.1,2,0.9,3.2,0.9
					c0.6,0,1.2,0,1.9,0c0.1,0,0.3,0,0.4,0c0.3,0.1,0.5,0.4,0.8,0.5c0.2,0.1,0.4,0.1,0.6,0.1c0.3,0,0.7-0.1,0.9,0
					c0.5,0.3,0.5,1.1,0.9,1.5c0.6,0.5,1.5,0.5,2.2,0.3c0.5-0.1,1-0.3,1.5-0.1c0.4,0.2,0.7,0.4,1.2,0.4"/>
				<path class="st23" d="M258,275.8c0.3-0.2,0.6-0.5,0.9-0.7c0.6-0.3,1.4-0.9,2.1-0.8c0.1,0.3,0.5,0.9,0.8,1.1
					c0.4,0.3,1,0.1,1.5,0.5c0.4,0.3,0.6,0.8,1,1c0.8,0.3,1.5-0.2,2.2-0.3c0.2,0,0-0.1,0.3,0c0.1,0.1,0.3,0.4,0.4,0.6
					c0.2,0.3,0.2,0.4,0.3,0.8c0,0.2-0.1,0.5,0.1,0.6c0.1,0,0.4,0,0.6,0c0.6,0,1.1,0,1.7,0c0.6,0,1.2,0,1.8,0"/>
				<path class="st23" d="M255,283.1c0.9-0.1,1.7-0.6,2.5-0.7c0.4-0.1,0.4,0,0.6,0.4c0.2,0.4,0.4,0.8,0.6,1.2
					c0.7,0.9,1.7,0.6,2.7,0.6c0.7,0,1.3,0.6,2,0.8c0.3,0.1,0.7,0.2,1,0.4c0.5,0.3,0.9,0.4,1.5,0.4"/>
				<path class="st23" d="M253,290.3c0.3-0.2,0.4-0.6,0.7-0.8c0.3-0.2,0.7-0.1,1-0.1c0.6,0,0.8,0.3,1.2,0.8c0.3,0.4,0.6,0.9,1.1,0.9
					c0.5,0.1,1.1,0,1.6,0c0.5,0,0.6,0,1,0.3c0.3,0.3,0.7,0.6,1.1,0.6c0.2,0,0.5,0,0.7,0"/>
				<path class="st23" d="M293.4,285.6c0.9,0.1,1.7-0.5,2.5-0.7c0.5-0.2,0.4-0.1,0.6,0.2c0.2,0.5,0.4,1.1,0.7,1.6
					c0.4,0.7,0.7,0.9,1.5,0.8c1.2-0.1,2.4-0.2,3.7-0.2c0.6,0,0.3,0.5,0.4,1c0.1,0.5,0.4,0.9,0.9,0.9c0.8,0,1.7-0.2,2.4,0.1
					c0.5,0.2,1,0.8,1.7,0.7"/>
				<path class="st23" d="M291.1,293.6c0.3,0.2,0.6,0.2,0.9,0.2c1.6,0.1,3.2-0.5,4.8-0.7c0.3,0.5,0.4,1.2,0.9,1.5
					c0.3,0.2,0.7,0.1,1,0.1c0.7,0,1.4,0.2,2.1,0.3c0.7,0.1,1.4-0.2,1.9,0.4c0.5,0.5,0.8,1.7,1.7,1.8"/>
				<path class="st23" d="M283.1,264.7c-2.1,0.5-3.9,1.7-5.9,2.5c-1.8,0.7-3.7,1.1-5.6,1.5"/>
				<path class="st23" d="M272.6,265.2c-2.6,1.2-4.2,3.9-6.8,4.9c3.2,0.2,6.3,0.6,9.5,1"/>
				<path class="st23" d="M294.6,268.8c0.8,0.7,1.1,1.8,1.4,2.8c0.8,2.2,1.8,4.3,3.1,6.3"/>
				<path class="st23" d="M293.7,275c2.2,1.9,4.3,3.7,6.5,5.6c0.7-2.5,1-5.2,1-7.8"/>
			</g>
		</g>
		<g>
			<defs>
				<path id="SVGID_1_" d="M295,238.1l234.1,17.6l25.5,2l23.2,1.8l45.7,3.5l9.6,0.7l50.8,3.7c0.6,0,0.6-252.7,0-243.8L295,0.2
					C294.5-8.7,294.4,238,295,238.1z"/>
			</defs>
			<clipPath id="SVGID_00000120558092559661038150000002538750865966097815_">
				<use xlink:href="#SVGID_1_"  style="overflow:visible;"/>
			</clipPath>
			<g style="clip-path:url(#SVGID_00000120558092559661038150000002538750865966097815_);">
				<path class="st11" d="M606.8,160.2c0.3,10.8,6.2,47.2,6.5,70.8c0.1,9.4-6.5,18.7-10.2,30.9c-32.6,0-152.4,0-161.1,0
					c-1.6-3.5-3.1-8.3-2.3-16.4c0.1-0.6,0.1-1.2,0.2-1.9c1.6-10.7,5.3-22.3,12.3-35.9c0.1-0.3,0.3-0.6,0.5-0.9
					c0.1-0.2,0.2-0.3,0.2-0.5c0.3-0.5,0.6-1.1,0.9-1.6c0.1-0.2,0.3-0.5,0.4-0.7c0.1-0.1,0.1-0.2,0.2-0.3c0.1-0.1,0.1-0.2,0.2-0.3
					s0.1-0.2,0.2-0.3c0.1-0.1,0.1-0.2,0.2-0.4v0c-0.1-0.4-0.2-0.8-0.3-1.2c0,0,0,0,0,0c0-0.1,0-0.3-0.1-0.4c0,0,0,0,0,0c0,0,0,0,0,0
					c0,0,0,0,0,0c-0.1-0.6-0.2-1.3-0.2-1.9l0,0c-0.1-0.9-0.1-1.8,0-2.7c0.4-11.4,7.3-26.7,7.5-27.5c0.2-0.9-1.5-2.6-0.6-4.3
					c0.5-0.9,2.5-3.4,3.2-3.5c0,0,0,0,0,0c0.1,0.1,0.1,0.3,0,0.6c0,0,0.1,0,0.1,0c0.8,0.3,1.6,0.6,2.5,0.9c-0.2,0.5-0.3,1.1-0.4,1.5
					h0c0.1-0.4,0.3-1,0.4-1.5c0.7,0.2,1.4,0.5,2.1,0.7c0.3,0.1,0.7,0.2,1.1,0.3c0.3,0.1,0.7,0.2,1,0.3c5.1,1.6,11.4,3.2,18.6,4.5
					c0.2,0,0.4,0.1,0.6,0.1c0.3,0.1,0.6,0.1,1,0.2c4.8,0.8,8.5,1.3,12.8,1.6c0.1,0,0.2,0,0.3,0c2.5,0.2,5.2,0.3,8.3,0.4
					c15.4,0.5,26.7-1.6,29-2.1c0.3-0.1,0.7-0.2,1-0.2c7.9-2.5,13.9-5,19.7-7.9c3.2-1.6,7-4.1,10.5-6c0.2-0.1,0.3-0.2,0.4-0.2
					c5.6-3,11.7-3.6,16-3c0,0,0,0,0,0C600.8,153.3,606.8,160.2,606.8,160.2z"/>
				<path class="st11" d="M430.8,186.7c-9.8,14.8-24.2,50.3-25.5,73.5c9.5,0,39.2,0,39.2,0c4.7-27,25.7-55.9,19.3-67.5
					C457.4,181.2,440,179,430.8,186.7z"/>
				<path class="st21" d="M468.6,156.9c-0.6,2.4-1.3,5.3-1.8,7.1c-0.7,0-3,2.2-3.7,3c-1.2,1.5,0.2,3.5-0.1,4.3
					c-0.2,0.7-4.5,19.6-7.5,30c-6.5-3.3-21.3-10.7-24.2-14.1c-0.2-0.3-0.4-0.5-0.6-0.7c-0.7-0.7-1.4-4.8,1.6-6.5
					c0.4-0.9,0.9-1.9,1.4-3C442.7,158,455.6,152.7,468.6,156.9L468.6,156.9z"/>
				<path class="st10" d="M468.6,156.9c-0.6,2.4-1.3,5.3-1.9,7.1c-0.7,0-3,2.2-3.7,3c-1.2,1.5,0.2,3.5-0.1,4.3
					c-0.2,0.7-4.5,19.6-7.5,30c-2.7-1.4-6.8-3.5-11-5.7c2.3,0.7,4.7,0.6,5.2-1c0.7-2.2,0.8-4.5-0.7-5.2c2.1-0.1,4.5-9.1,6-13.6
					c1.4-4.1,6.1-17.1,12.1-19.4C467.7,156.6,468.2,156.8,468.6,156.9L468.6,156.9z"/>
				<path class="st11" d="M592.2,150.9c-5.2-1.3-9.1-1.5-16.8,3c-9.7,5.5-19.4,10.4-30.6,13.9c-2.3,0.7-13.2,4-30.5,3.1
					c-10-0.5-18.4-1.2-27.9-3.1c-10.8-2.2-16.3-3.8-21.8-6.1c0.1-0.5,2.4-6.6,2.2-6.5c0.3-1.9,0.6-4.8,0.9-7.3l0,0
					c0.2-2.4,0.4-4.5,0.2-4.6c-0.7,0.1-1.2,0.6-1.4,1.4c-1.5-3.4,1.4-5.9,1.3-7.8c0-0.4-1.1,0-1.9,1.4c0-2.8,1.1-3.5,1-4.5
					c-0.1-2-1.2-4.2-1.9-6c-8.1-20.9-23.1-61.5,9.1-85.9c-1.7-2.9-5.9-1.8-5.9-1.8c0.4-4,7.2-7.6,15.8-5.8c0.3-0.4-2.6-3.8,1.1-7.8
					c0.3,3.2,2.9,6.5,3.7,5c2.7-8.4,8.6-12.7,16.7-13.5c-2.7,1.9-4.2,6.5-3.3,10.7c0,0,3-5.1,6-6.1c-3.1,4.8-0.8,7.7,0.7,8.3
					c1.2,0.4,6.8-1.9,6.9-4.4c1.5,0.6,0.9,3.8,13.7,9.4C584,59.5,595.3,117.9,592.2,150.9z"/>
				<path class="st9" d="M516.9,233.6c-0.1-0.2-0.2-0.4-0.3-0.6"/>
				<path class="st16" d="M457.9,70.1c2.6-7.5,12.6-12.3,18.7-15.7c7.1-4,31.8-6.4,27.6-13.8c8.3,1.9,13.6,9.9,20.9,10.6
					c7.6,0.7,24.1,6.9,34.9,25.7c2.2,3.8,10.3,35.6-15.4,49.5c-19.6,10.6-63.1,10.4-79.8-15.2C457,99.2,454,84.1,457.9,70.1z"/>
				<path class="st17" d="M496.9,72.2c-6.1-3.8-12.5,11.7-13.5,16.3c-2.4,11.6,0.9,18.1,7.6,20.8s15.5,2.4,22.7-1.2
					c18-9.2,2.6-39.1-8.9-35.7"/>
				<path class="st17" d="M457.7,95.3c11.3,0.2,39.2-8.4,28.5-43.6c-7.7,0.3-15,0.5-24.5,7.4C454.8,71.2,455.4,84.7,457.7,95.3z"/>
				<path class="st17" d="M522.1,53.4C506,104.7,561.2,106,561.2,106s6.3-19.1-3.8-34.9C551.3,61.4,537.2,53.8,522.1,53.4z"/>
				<line class="st26" x1="483.9" y1="145.8" x2="483.1" y2="151.1"/>
				<line class="st26" x1="478.1" y1="147.8" x2="477.4" y2="153.1"/>
				<path class="st10" d="M469.5,38.5c-0.1,0.1-0.2,0.1-0.3,0.1c0,0-0.1,0.1-0.1,0.2"/>
				<path class="st27" d="M464.5,161c1.7-5.6,4-17.6,3.6-17.7c-0.7,0.1-1.2,0.6-1.4,1.4c-1.5-3.4,1.4-5.9,1.3-7.8
					c0-0.4-1.1,0-1.9,1.4c0-2.8,1.1-3.5,1.1-4.5c-0.1-2-1.2-4.2-1.9-6c-8.1-20.9-23.1-61.5,9.1-85.9c-1.7-2.9-5.9-1.8-5.9-1.8
					c0.4-4,7.2-7.6,15.8-5.8c0.3-0.4-2.6-3.8,1.1-7.8c0.3,3.2,2.9,6.5,3.7,5c2.7-8.4,8.6-12.7,16.7-13.5c-2.7,1.9-4.2,6.5-3.3,10.7
					c0,0.1,3-5.1,6-6.1c-3.4,4.3-1,7.7,0.6,8.2c1.2,0.4,6.9-1.8,7-4.4c1.5,0.6,0.9,3.8,13.7,9.4c54.6,23.9,65.7,82.2,62.6,115.2"/>
				<path class="st10" d="M496.3,225.9c-0.1-0.1-0.3-0.2-0.4-0.3"/>
				<path class="st10" d="M592.2,150.9c-5.7-1-11.7-0.6-16.8,3c3.4-25,0.7-63.1-16.2-86.7c-11.9-16.7-27.7-24.2-41.7-26.8
					c-1.2-0.2-3.2-2.3-5-2.3c0.2,0.9-0.5,1.5-1.4,1.4c-1.3-0.1-3.9-1-3.2-3.2c-2.5,0.1-3.5,3-4.9,3c-1.4,0-3.3-3.2-6.5-3.2
					c1.5,2.6-1,4.4-2.9,4.9c-2.2,0.6-3.4-0.5-2.8-1.8c-2.2,0.1-3.1,2.1-7.8,3.8c-7.2,2.7-14.4,6.3-20.7,11.4
					c2.9-4.5,6.8-8.7,11.9-12.5c-1.7-2.9-5.9-1.8-5.9-1.8c0.4-4,7.2-7.6,15.8-5.8c0.3-0.4-2.6-3.8,1.1-7.8c0.3,3.2,2.9,6.5,3.7,5
					c2.7-8.4,8.6-12.7,16.7-13.5c-2.7,1.9-4.2,6.5-3.3,10.7c0,0,3-5.1,6-6.1c-3.1,4.6-0.8,7.7,0.7,8.3c1.2,0.4,6.8-1.9,6.9-4.4
					c1.5,0.6,0.9,3.8,13.7,9.4C584,59.5,595.3,117.9,592.2,150.9z"/>
				<path class="st28" d="M492.8,54.8c-23.3-4.8-40.7,9.9-40.7,9.9"/>
				<path class="st28" d="M515.1,57.2c32.6-3.6,46.7,12.7,46.7,12.7"/>
				<g>
					<g>
						<path class="st0" d="M482.1,75.7c-0.7,4.4-5.9,3.8-11,4c-5.8,0.3-11.3,1.3-11.1-5.4c0.1-5,5.2-7.1,12.7-7.4
							C480.2,66.6,483,70.2,482.1,75.7z"/>
						<path class="st29" d="M482.3,74.6c-2.3-4.5-6.8-5.2-12.5-4.1c-6,1.2-8.7,3.6-9.4,6.6c-0.3-0.9-0.4-1.8-0.4-2.9
							c0.2-5,5.3-7.1,12.7-7.4C479.7,66.7,482.6,69.8,482.3,74.6z"/>
						<path class="st8" d="M463.5,74.7c-0.1-2.7,2.1-5,4.8-5c2.7-0.1,5,2.1,5,4.8c0.1,2.7-2.1,5-4.8,5
							C465.8,79.6,463.6,77.4,463.5,74.7z"/>
						<path class="st27" d="M482.1,75.7c-0.7,4.3-5.9,4-11,4c-5.9,0-11.4,1.4-11.1-5.4c0.1-5,5.2-7.1,12.7-7.4
							C480.2,66.6,483,70.2,482.1,75.7z"/>
					</g>
					<circle class="st0" cx="464.8" cy="72.5" r="2"/>
					<circle class="st0" cx="465.7" cy="76.2" r="0.8"/>
				</g>
				<g>
					<g>
						<path class="st0" d="M525.9,78.5c1.1,4.5,6.3,3.8,11.8,3.6c6.3-0.2,12.8,0.1,12.1-6.9c-0.6-5.1-6.2-6.9-14.4-6.6
							S524.6,72.9,525.9,78.5z"/>
						<path class="st29" d="M525.7,77.4c2.2-4.9,7-5.9,13.2-5.3c6.6,0.7,9.7,3,10.7,6.1c0.2-0.9,0.3-1.9,0.2-3
							c-0.6-5.1-6.2-6.9-14.4-6.6C527.8,68.9,525,72.4,525.7,77.4z"/>
						<path class="st8" d="M539.4,76c-0.2-2.8-2.6-5-5.4-4.8c-2.8,0.2-5,2.6-4.8,5.4c0.2,2.8,2.6,5,5.4,4.8
							C537.4,81.3,539.5,78.9,539.4,76z"/>
						<path class="st27" d="M525.9,78.5c1.1,4.4,7,3.9,12.6,3.5c6.4-0.5,12,0.2,11.3-6.8c-0.6-5.1-6.2-6.9-14.4-6.6
							S524.6,72.9,525.9,78.5z"/>
					</g>
					<circle class="st0" cx="530.6" cy="73.7" r="1.8"/>
					<circle class="st0" cx="531.5" cy="77.5" r="0.9"/>
				</g>
				<path class="st21" d="M606.8,160.2c-2.9-3-8-6.9-17.2-9c0,0,0,0,0,0c-4.2-0.5-10.3,0-16,3c-0.2,0.1-0.3,0.2-0.4,0.2
					c-3.4,1.9-7.2,4.4-10.5,6c-5.7,2.9-11.7,5.4-19.7,7.9c-0.3,0.1-0.7,0.2-1,0.2c-2.4,0.5-13.6,2.6-29,2.1
					c-3.1-0.1-5.8-0.2-8.3-0.4c-0.1,0-0.2,0-0.3,0c-4.2-0.3-8-0.8-12.8-1.6c-0.3-0.1-0.6-0.1-1-0.2c-0.2,0-0.4-0.1-0.6-0.1
					c-7.3-1.3-13.5-2.9-18.6-4.5c-0.3-0.1-0.7-0.2-1-0.3c-0.4-0.1-0.7-0.2-1.1-0.3c-0.7-0.2-1.5-0.5-2.1-0.7
					c-0.2,0.5-0.3,1.1-0.4,1.5h0c0.1-0.4,0.3-1,0.4-1.5c-0.9-0.3-1.7-0.6-2.5-0.9c0,0-0.1,0-0.1,0c0.1-0.3,0.1-0.5,0-0.6
					c0,0,0,0,0,0c-0.7,0.1-2.7,2.7-3.2,3.5c-1,1.7,0.7,3.4,0.6,4.3c-0.1,0.9-7,16.2-7.5,27.5c0,0.9,0,1.8,0,2.7l0,0
					c0,0.7,0.1,1.3,0.2,1.9c0,0,0,0,0,0c0,0,0,0,0,0c0,0,0,0,0,0c0,0.1,0,0.3,0.1,0.4c0,0,0,0,0,0c0.1,0.4,0.2,0.8,0.3,1.2v0
					c-0.1,0.1-0.1,0.2-0.2,0.4c-0.1,0.1-0.1,0.2-0.2,0.3c-0.1,0.1-0.1,0.2-0.2,0.3c-0.1,0.1-0.1,0.2-0.2,0.3
					c-0.1,0.2-0.3,0.5-0.4,0.7c-0.3,0.6-0.6,1.1-0.9,1.6c-0.1,0.2-0.2,0.3-0.2,0.5c-0.2,0.3-0.3,0.6-0.5,0.9
					c-7,13.6-10.7,25.2-12.3,35.9c-0.1,0.6-0.2,1.3-0.2,1.9c-0.8,8.1,0.6,12.9,2.3,16.4c8.8,0,128.5,0,161.1,0
					c3.7-12.2,3.7-24.2,10.2-30.9c2-2,7.1-0.2,16.3-2.3c3.7-0.9-5.9-36.7-14.2-54.5C612.5,167.9,609.3,162.7,606.8,160.2z"/>
				<g>
					<path class="st8" d="M473,195.7c6.4,0.7,12.4,1.1,18.4,1.8c4.9,0.6,6.7,3.9,5.9,6.9c-1.1,4.1-5.1,6.7-10.5,7.5
						c-0.3,0-0.6,0.1-1.1,0.1c4,3.1,2.1,8.3,6.2,13.4c-4.4-0.6-8.4-1.1-12.4-1.6c-1.9-3.2-2.6-6.2-2.6-9.2c0-1.6-0.4-2.9-3.3-2.7
						c-2.5,3.4-4.7,6.9-5,10.7c-3.5-0.4-6.4-0.7-9.4-0.9C462,211.7,471.2,206.1,473,195.7z M480.6,201.8c-0.8,1.7-1.9,3.3-3.3,5.2
						c2,0.1,4,0.4,6,0.4c1.8,0,3.3-0.9,4.1-2.1c0.8-1.3,0.3-2.5-1.4-2.8C484.4,202.1,482.5,202,480.6,201.8z"/>
					<path class="st8" d="M524.2,208.5c-2.8-0.1-5.5-0.2-8.3-0.3c0.3-2.5-1-4-3.4-4.3c-1.5-0.2-2.8,0.2-3.8,1.8
						c-0.3,1.4,0.5,2,1.6,2.4c1.9,0.8,3.9,1.5,5.8,2.3c1.1,0.5,2.1,1,3,1.6c5.9,3.8,3.1,11.6-1.6,14.7c-1.6,1-3.6,1.6-5.8,1.7
						c-3.5,0.2-7.5-0.4-11.6-1.8c-5.3-1.8-8.5-5.8-6.6-10.2c3.1,0.2,6.1,0.5,9.3,0.7c0,0.6,0,1.1,0,1.6c0.3,2.8,3.6,4.5,6.8,3.8
						c1.4-0.3,2.4-1.1,2.8-2.3c0.3-1.2-0.2-2.1-1.2-2.7c-0.9-0.5-1.9-0.9-2.8-1.3c-2-0.9-4.1-1.6-5.8-2.6c-3.4-2-3.9-4.8-2.5-7.8
						c1.5-3.4,3.9-6.2,7.6-7c3.5-0.8,7.2-0.7,11.1,0.9C522.8,201.2,524.9,204.1,524.2,208.5z"/>
				</g>
				<path class="st10" d="M447.8,217.8c3.3-3.3,7-5.3,8.9-6.3c4-2.1,8.7-2,12.9-1c11.3,2.5,31.5,10.6,43,13.1
					c21.1,4.5,40.2-1.9,38.3-5.3c-1.6-2.8-34.1,2.7-45.8-2.4c-10.4-4.5-27-6.5-37.8-9.2c-2.6-0.6-11-3.5-12.9-7.7
					c-0.1,1.7,0.2,2.3,0.7,3.3C454,204.5,451.7,208.1,447.8,217.8z"/>
				<path class="st27" d="M464.6,161.7c0.1-0.6,0.1-0.8-0.1-0.7c-0.7,0.1-2.7,2.7-3.2,3.5c-1,1.7,0.7,3.4,0.6,4.3
					c-0.2,1-10.3,23.3-6.8,34.1"/>
				<path class="st27" d="M462.3,168.3c4.9,3.8,14.7,6.4,25.1,8.5c14.2,2.8,34.7,4.8,57.4,0.9"/>
				<path class="st27" d="M470.2,164c-0.6,1.5-1.2,2.6-1.4,4.3"/>
				<path class="st27" d="M479.3,166.5c-0.8,1.3-1.1,3.1-1.2,4.7"/>
				<polyline class="st27" points="524.6,171.5 524.6,172 524.5,172.4 524.5,173.2 524.4,173.6 				"/>
				<polyline class="st27" points="527.7,171.8 527.6,172.4 527.6,173 527.6,173.4 				"/>
				<path class="st27" d="M435.6,190.6c-2-1.2-3.5-2.4-4.2-3.2c-0.2-0.3-0.4-0.5-0.6-0.7c-0.7-0.7-1.3-4.6,1.6-6.5
					c0.4-0.9,0.9-1.9,1.4-3c8.1-17.4,19.4-23.4,31.1-21.3"/>
				<path class="st18" d="M509.6,88.5c-1.4,9.1-6.9,13.9-12.9,13.2c-6-0.7-6.5-4.7-8-12.4C494,91.4,503.2,91.5,509.6,88.5z"/>
				<path class="st27" d="M432.4,180.2c3.9,2.7,11.2,7,18.9,10.3"/>
				<path class="st27" d="M438.2,183.9c-1,0.5-1.8,2.3-1.9,3.2"/>
				<path class="st27" d="M443.6,186.8c-0.7,0.5-1.2,1.9-1.3,2.5"/>
				<path class="st14" d="M442,261.9c-1.8-3.8-3.4-9.2-2-18.2c1.9-12.1,6.2-25.3,15.2-41.3"/>
				<path class="st27" d="M464.6,161.7c8.5,3.2,22.9,7.3,41.6,8.8c15.4,1.2,29.9,0.1,35.9-1.8c8.4-2.5,14.6-5.2,20.6-8.2
					c3.4-1.7,7.3-4.4,10.9-6.3c5.7-3,18.9-9.4,33.2,6c6.1,6.6,10.2,17.2,14,27.3"/>
				<path class="st10" d="M629.6,228.6c-9.2,2.2-14.3,0.3-16.3,2.3c-6.5,6.7-6.5,18.7-10.2,30.9h-19c2.1-7.2-6.9-17.7,2.2-41.2
					c4.2,8.8,25.2-15.7,32.1-15.7c0.8,2.6,1.6,5.2,2.5,7.7C625.4,224.6,633.3,227.7,629.6,228.6z"/>
				<path class="st18" d="M492.4,71.9c0.1-2.5,4-4.4,8.6-4.3c4.6,0.1,8.3,2.2,8.1,4.7c-0.1,2.5-4,4.4-8.6,4.3
					C495.9,76.5,492.2,74.4,492.4,71.9z"/>
				<path class="st0" d="M505.2,94.5c-2.2,1.3-11.4,1.8-15.7-1c-0.3-1.3-0.6-2.6-0.9-4.1c4.8,1.8,12.4,2.1,18.5,0.2
					C507.1,91.6,507.1,93.3,505.2,94.5z"/>
				<path class="st24" d="M488.6,89.3c5.4,2,14.6,2.2,20.9-0.8"/>
				<path class="st24" d="M498.7,76.1c-1,4.2-1.4,8.5-0.7,14.7"/>
				<path class="st27" d="M430.8,186.7c-9.8,14.8-24.2,50.3-25.5,73.5"/>
				<path class="st10" d="M539.2,169.4c4.1-0.6,15.4-0.8,18.5,1c3.7,2.2,9.8,9.5,15,21c-4.3-11.7-12.3-25.8,2.8-38.2
					C565,159.3,551.3,166.8,539.2,169.4z"/>
				<path class="st8" d="M458.3,227c0.7,0.1,1.4,0.2,2.2,0.3c-0.2,0.4-0.4,0.8-0.5,1.3c1.2-0.9,2.3-1.2,3.4-1.1
					c0.6,0.1,1,0.3,1.3,0.6c0.3,0.3,0.5,0.7,0.6,1.3c0.6-0.4,1.2-0.7,1.7-0.9c0.5-0.2,1.1-0.2,1.6-0.2c0.7,0.1,1.1,0.3,1.5,0.6
					c0.3,0.3,0.5,0.8,0.5,1.3c0,0.4-0.1,1.1-0.4,1.9c-0.7,2-1.2,3.9-1.6,5.9c-0.8-0.1-1.6-0.2-2.4-0.3c0.4-1.8,0.8-3.6,1.4-5.3
					c0.3-0.9,0.4-1.5,0.4-1.8c-0.1-0.4-0.4-0.6-0.8-0.7c-0.3,0-0.7,0-1,0.2c-0.4,0.2-0.7,0.4-1,0.8c-0.3,0.4-0.6,1-0.8,1.9
					c-0.5,1.5-0.9,3-1.2,4.5c-0.8-0.1-1.6-0.2-2.4-0.3c0.4-1.7,0.9-3.4,1.4-5.1c0.3-0.9,0.5-1.5,0.5-1.8c0-0.3,0-0.5-0.2-0.6
					c-0.1-0.2-0.3-0.3-0.6-0.3c-0.4-0.1-0.7,0-1.1,0.2c-0.4,0.2-0.7,0.4-1,0.8c-0.3,0.4-0.6,1-0.9,1.9c-0.5,1.5-0.9,3.1-1.3,4.6
					c-0.8-0.1-1.6-0.2-2.4-0.3C455.9,233.2,456.9,230.1,458.3,227z M476.8,236.1c0.8,0.2,1.5,0.5,2.3,0.7c-0.5,0.8-1.1,1.5-1.9,1.8
					c-0.8,0.4-1.6,0.5-2.6,0.4c-1.6-0.2-2.7-0.9-3.2-2c-0.4-0.9-0.4-2-0.1-3.3c0.5-1.5,1.3-2.7,2.4-3.4c1.1-0.8,2.2-1,3.4-0.9
					c1.3,0.2,2.2,0.8,2.6,1.8c0.5,1,0.4,2.4-0.2,4.3c-2-0.2-4-0.5-6-0.8c-0.2,0.7-0.1,1.3,0.1,1.8c0.3,0.4,0.7,0.7,1.2,0.8
					c0.4,0,0.7,0,1-0.2C476.3,236.8,476.6,236.5,476.8,236.1z M477.6,233.6c0.2-0.7,0.2-1.3,0-1.7c-0.2-0.4-0.6-0.6-1-0.7
					c-0.5-0.1-1,0.1-1.5,0.4c-0.5,0.3-0.8,0.8-1,1.5C475.3,233.3,476.5,233.5,477.6,233.6z M489,240.5c-0.8-0.1-1.6-0.2-2.4-0.3
					c0.2-1.5,0.6-3.1,1-4.6c0.3-1,0.4-1.6,0.4-1.9c0-0.3-0.1-0.5-0.3-0.7c-0.2-0.2-0.4-0.3-0.7-0.3c-0.4-0.1-0.8,0-1.2,0.2
					c-0.4,0.2-0.7,0.5-1,0.8c-0.2,0.4-0.5,1-0.8,2.1c-0.4,1.4-0.6,2.7-0.9,4.1c-0.8-0.1-1.6-0.2-2.4-0.3c0.5-3,1.4-6.1,2.5-9.1
					c0.7,0.1,1.5,0.2,2.2,0.3c-0.2,0.4-0.3,0.9-0.5,1.3c1.1-0.9,2.3-1.3,3.5-1.1c0.5,0.1,1,0.2,1.3,0.5c0.4,0.2,0.6,0.5,0.7,0.8
					c0.1,0.3,0.2,0.7,0.1,1.1c0,0.4-0.1,0.9-0.3,1.6C489.7,236.7,489.3,238.6,489,240.5z M497.8,232.3c-0.2,0.6-0.4,1.2-0.6,1.9
					c-0.5-0.1-1.1-0.1-1.6-0.2c-0.4,1.2-0.7,2.4-0.9,3.6c-0.2,0.7-0.2,1.2-0.2,1.3c0,0.1,0.1,0.2,0.2,0.3c0.1,0.1,0.2,0.1,0.4,0.2
					c0.2,0,0.6,0,1-0.1c0,0.6-0.1,1.2-0.1,1.8c-0.6,0.2-1.3,0.2-2,0.1c-0.4,0-0.8-0.2-1.2-0.3c-0.3-0.2-0.6-0.4-0.7-0.6
					c-0.1-0.2-0.2-0.6-0.2-1c0-0.3,0.1-0.8,0.3-1.7c0.3-1.3,0.6-2.6,1-3.9c-0.4,0-0.7-0.1-1.1-0.1c0.2-0.6,0.4-1.3,0.6-1.9
					c0.4,0,0.7,0.1,1.1,0.1c0.2-0.6,0.4-1.2,0.7-1.8c1-0.4,1.9-0.7,2.9-1c-0.4,1-0.8,2.1-1.2,3.1
					C496.8,232.2,497.3,232.3,497.8,232.3z M497.7,236.8c0.2-0.8,0.6-1.5,1.2-2.2c0.6-0.7,1.3-1.2,2.2-1.5c0.8-0.3,1.7-0.4,2.6-0.3
					c1.4,0.2,2.3,0.7,2.9,1.7c0.6,1,0.8,2.1,0.5,3.4c-0.3,1.3-0.9,2.4-1.9,3.1c-1,0.8-2.2,1.1-3.6,0.9c-0.8-0.1-1.6-0.4-2.3-0.8
					c-0.7-0.4-1.2-1-1.5-1.8C497.5,238.7,497.4,237.8,497.7,236.8z M500.1,237.2c-0.2,0.9-0.1,1.6,0.2,2.1c0.3,0.5,0.8,0.8,1.5,0.9
					c0.6,0.1,1.2-0.1,1.7-0.5c0.5-0.4,0.8-1.1,1-1.9c0.2-0.9,0.1-1.5-0.1-2.1c-0.3-0.5-0.8-0.8-1.4-0.9c-0.6-0.1-1.2,0.1-1.8,0.5
					C500.7,235.7,500.3,236.3,500.1,237.2z M510.6,242.8c-0.8-0.1-1.6-0.2-2.4-0.3c0.3-2.9,1-5.8,1.9-8.7c0.7,0.1,1.5,0.2,2.2,0.3
					c-0.1,0.4-0.2,0.8-0.4,1.2c0.5-0.5,1-0.9,1.4-1c0.4-0.1,0.7-0.2,1.1-0.2c0.5,0.1,1,0.3,1.4,0.6c-0.4,0.6-0.9,1.3-1.3,1.9
					c-0.3-0.3-0.7-0.5-1-0.5c-0.3,0-0.6,0-0.9,0.2c-0.3,0.1-0.5,0.4-0.8,0.9c-0.2,0.4-0.5,1.4-0.8,2.9
					C510.8,241,510.7,241.9,510.6,242.8z"/>
				<g>
					<g>
						<path class="st11" d="M585.9,223.2c2.8-15.9,13.4-25.8,20.6-33.7c17.8-19.6,28.2-39.6,34.9-57.8c1.8-4.8,4.8-6.4,7.8-7.1
							c5.6-1.3,6.9-1.2,13.8-6.4c8.3-6.3,14.7-12.1,15.9-9.6c2.2,4.4,1,19.8-20,34.2c-4.3,17.2-4.4,32-6.1,45.9
							c-3.2,25.3-6.9,41.9-15.8,54C615.2,272.6,578.2,267.2,585.9,223.2z"/>
						<path class="st5" d="M674.6,127.6c0,0.1-0.1,0.1-0.1,0.2c-3.2,4.5-8.1,9.6-15.6,15.1c-10.9-3.1-14-7-17.5-11.1
							c0.3-0.9,0.7-1.7,1.1-2.4c1.8-2.9,4.3-4,6.7-4.7c5.6-1.3,6.9-1.2,13.8-6.4c6.8-5,11.9-9.6,14.4-10.1c0.7-0.2,1.2,0,1.5,0.5
							c0.1,0.2,0.2,0.5,0.3,0.8C680.2,112.8,679.8,119.6,674.6,127.6z"/>
						<path class="st10" d="M622.1,256.7c-20.2,12-42.3,1.4-36.2-33.5c2.8-15.9,13.4-25.8,20.6-33.7c17.8-19.6,28.2-39.6,34.9-57.8
							c1.8-4.8,4.8-6.4,7.8-7.1c5.6-1.3,6.9-1.2,13.8-6.4c6.2-4.7,14.7-12.1,15.9-9.6c0.9,1.9,1.5,4.2,0.6,8.3
							c-2.8-1.1-6.4-1.1-11.9,3.9c-8.1,7.3-20.6,7.8-22.7,15.1c-2.1,7.3-12.7,29.5-22.9,46.4c-10.2,16.9-31.5,34.5-27.7,60.6
							C596.1,255.9,609.6,261.2,622.1,256.7z"/>
						<path class="st27" d="M585.9,223.2c2.8-15.9,13.4-25.8,20.6-33.7c17.8-19.6,28.2-39.6,34.9-57.8c1.8-4.8,4.8-6.2,7.8-7.1
							c3.5-1,6.8-1.3,13.8-6.4c8.6-6.3,14.7-12.1,15.9-9.6c2.2,4.4,2.5,17.5-20,34.2c-4.3,17.2-4.4,32-6.1,45.9
							c-3.2,25.3-6.9,41.9-15.8,54C615.2,272.6,578.2,267.2,585.9,223.2z"/>
					</g>
					<g>
						<line class="st13" x1="632.2" y1="218.8" x2="631.7" y2="225.9"/>
						<line class="st13" x1="626" y1="220.6" x2="625.4" y2="227.7"/>
					</g>
					<path class="st27" d="M641.3,131.8c3.5,4.1,6.7,8,17.5,11.1"/>
					<path class="st27" d="M649.1,138.9c13.2-6.4,26.7-16.9,28.7-30.8"/>
				</g>
				<g>
					<g>
						<path class="st11" d="M434.9,220.2c-10.4-12.9-16.5-15.4-25.4-22.9c-20.3-17-34.4-33.1-45-49.3c-2.8-4.2-6.1-5.1-9.2-5.2
							c-5.7,0-7,0.4-14.8-3.1c-9.5-4.3-17-8.5-17.7-5.8c-1.2,4.8,3.5,19.5,27.2,28.8c8.1,15.8,11.9,30.1,16.3,43.3
							c12.7,38.5,34.3,54.1,39.1,54.2C424.8,260.5,437.6,226.9,434.9,220.2z"/>
						<path class="st5" d="M331.1,151.4c0.1,0.1,0.1,0.1,0.2,0.2c4.1,3.7,10.1,7.6,18.6,11.2c9.9-5.4,12.1-9.9,14.6-14.8
							c-0.5-0.8-1.1-1.5-1.6-2.1c-2.4-2.5-5.1-3-7.6-3.1c-5.7,0-7,0.4-14.8-3.1c-7.7-3.3-13.8-6.6-16.4-6.6c-0.7,0-1.2,0.3-1.3,0.9
							c-0.1,0.3-0.1,0.5-0.1,0.8C322.3,138.2,324.2,144.8,331.1,151.4z"/>
						<path class="st10" d="M455,202.6L455,202.6c-0.1,0.1-0.1,0.3-0.2,0.4c-0.1,0.1-0.1,0.2-0.2,0.3s-0.1,0.2-0.2,0.3
							c-0.1,0.1-0.1,0.2-0.2,0.3c-0.1,0.2-0.3,0.5-0.4,0.7c-0.3,0.6-0.6,1.1-0.9,1.6c-0.1,0.2-0.2,0.3-0.2,0.5
							c-0.2,0.3-0.3,0.6-0.5,0.9c-7,13.6-10.7,25.2-12.3,35.9c-0.1,0.6-0.2,1.3-0.2,1.9c-0.7,6.9,0.3,11.4,1.6,14.8c-3,0-7.8,0-13,0
							c-5.6,0-21.3,0-23,0c-4.9-0.1-28.8-18.2-39.1-54.2c-3.9-13.4-8.2-27.5-16.3-43.3c-23.6-9.2-28.3-24-27.2-28.8
							c0.5-2.2,5.7,0.2,12.7,3.5c-3.9,4.3-2.8,10.3,9.3,18c15.5,9.9,13.2,11.2,18,25.8c4.7,14.7,22.4,59.7,47,68
							c4.3,1.4,22.9,2.7,26.7,3.1c-1.2-19.7,6-40.3,13.8-53.5c1.7,0.9,3.2,1.6,4.5,2.3l0,0h0c0,0.1,0,0.3,0.1,0.4c0,0,0,0,0,0
							C454.8,201.8,454.9,202.2,455,202.6z"/>
						<path class="st27" d="M430.2,223.5c-4-11.4-9.1-16.2-19.6-25.2c-20.2-17.2-35.5-34.1-46.2-50.3c-2.8-4.2-6.1-5-9.2-5.2
							c-3.7-0.2-6.9,0.3-14.8-3.1c-9.8-4.2-17-8.5-17.7-5.8c-1.2,4.8,1.5,17.7,27.2,28.8c8.1,15.8,11.8,30.1,16.3,43.3
							c11.7,34.4,31.4,52.5,37.1,53.9c12.1,3,27.7,0.3,38.1,0.3"/>
					</g>
					<path class="st27" d="M364.4,148c-2.5,4.8-4.7,9.3-14.6,14.8"/>
					<path class="st27" d="M358.4,156.7c-14.3-3.3-29.8-10.5-34.9-23.5"/>
				</g>
				<polygon class="st21" points="454.7,201 454.6,201 454.6,201 				"/>
				<path class="st22" d="M491.1,98.8c2-0.6,4.7-0.3,5.7,0.4c1.3-0.6,5.9-1.4,8.8-1.2C503.7,101.1,496,105.1,491.1,98.8z"/>
				<path class="st24" d="M488.6,89.3c1.6,7.6,2,11.7,8,12.4c6,0.7,11.5-4.1,12.9-13.2"/>
			</g>
		</g>
		<g>
			<path class="st21" d="M321.9,35.7c0.6-0.5,1.3-0.7,2.2-0.7c0.5,0,0.9,0.1,1.4,0.3s0.8,0.4,1.2,0.8c0.3,0.3,0.6,0.7,0.8,1.2
				c0.2,0.4,0.3,0.9,0.3,1.4V42c0,0.2-0.1,0.4-0.2,0.5c-0.1,0.1-0.3,0.2-0.5,0.2c-0.2,0-0.4-0.1-0.5-0.2c-0.1-0.1-0.2-0.3-0.2-0.5
				v-3.4c0-0.3-0.1-0.6-0.2-0.8c-0.1-0.3-0.3-0.5-0.5-0.7s-0.4-0.4-0.7-0.5c-0.3-0.1-0.5-0.2-0.8-0.2c-0.3,0-0.6,0.1-0.8,0.2
				c-0.3,0.1-0.5,0.3-0.7,0.5c-0.2,0.2-0.4,0.4-0.5,0.7s-0.2,0.5-0.2,0.8V42c0,0.2-0.1,0.4-0.2,0.5c-0.1,0.1-0.3,0.2-0.5,0.2
				c-0.2,0-0.4-0.1-0.5-0.2c-0.1-0.1-0.2-0.3-0.2-0.5v-6.3c0-0.2,0.1-0.4,0.2-0.5c0.1-0.1,0.3-0.2,0.5-0.2c0.2,0,0.4,0.1,0.5,0.2
				S321.9,35.5,321.9,35.7z M332.7,42.7c-0.9,0-1.7-0.3-2.4-0.9v3.5c0,0.2-0.1,0.4-0.2,0.5c-0.1,0.1-0.3,0.2-0.5,0.2
				c-0.2,0-0.4-0.1-0.5-0.2c-0.1-0.1-0.2-0.3-0.2-0.5v-6.5c0-1.1,0.4-2,1.1-2.7c0.8-0.8,1.7-1.1,2.7-1.1c1.1,0,2,0.4,2.7,1.1
				c0.4,0.4,0.7,0.8,0.9,1.3c0.2,0.5,0.3,1,0.3,1.5c0,1.1-0.4,2-1.1,2.7c-0.4,0.4-0.8,0.7-1.3,0.9S333.2,42.7,332.7,42.7z
				 M330.3,38.8c0,0.3,0.1,0.6,0.2,0.9c0.1,0.3,0.3,0.6,0.5,0.8s0.5,0.4,0.8,0.5c0.3,0.1,0.6,0.2,1,0.2c0.3,0,0.7-0.1,1-0.2
				c0.3-0.1,0.6-0.3,0.8-0.5s0.4-0.5,0.5-0.8c0.1-0.3,0.2-0.6,0.2-0.9s-0.1-0.6-0.2-0.9c-0.1-0.3-0.3-0.6-0.5-0.8s-0.5-0.4-0.8-0.5
				c-0.3-0.1-0.6-0.2-1-0.2c-0.3,0-0.7,0.1-1,0.2c-0.3,0.1-0.6,0.3-0.8,0.5s-0.4,0.5-0.5,0.8C330.3,38.2,330.3,38.5,330.3,38.8z
				 M348.7,42c0,0.2-0.1,0.4-0.2,0.5c-0.1,0.1-0.3,0.2-0.5,0.2c-0.2,0-0.4-0.1-0.5-0.2c-0.1-0.1-0.2-0.3-0.2-0.5V38
				c0-0.2,0-0.4-0.1-0.6s-0.2-0.4-0.4-0.5c-0.1-0.2-0.3-0.3-0.5-0.4c-0.2-0.1-0.4-0.1-0.6-0.1c-0.2,0-0.4,0-0.6,0.1
				c-0.2,0.1-0.4,0.2-0.5,0.4c-0.2,0.1-0.3,0.3-0.4,0.5c-0.1,0.2-0.1,0.4-0.1,0.6V42c0,0.2-0.1,0.4-0.2,0.5
				c-0.1,0.1-0.3,0.2-0.5,0.2c-0.2,0-0.4-0.1-0.5-0.2c-0.1-0.1-0.2-0.3-0.2-0.5V38c0-0.2,0-0.4-0.1-0.6c-0.1-0.2-0.2-0.4-0.4-0.5
				c-0.1-0.1-0.3-0.3-0.5-0.4c-0.2-0.1-0.4-0.1-0.6-0.1s-0.4,0-0.6,0.1c-0.2,0.1-0.4,0.2-0.5,0.4c-0.2,0.2-0.3,0.3-0.4,0.5
				s-0.1,0.4-0.1,0.6V42c0,0.2-0.1,0.4-0.2,0.5c-0.1,0.1-0.3,0.2-0.5,0.2c-0.2,0-0.4-0.1-0.5-0.2c-0.1-0.1-0.2-0.3-0.2-0.5v-6.3
				c0-0.2,0.1-0.4,0.2-0.5c0.1-0.1,0.3-0.2,0.5-0.2c0.2,0,0.3,0,0.4,0.1c0.1,0.1,0.2,0.2,0.3,0.4c0.5-0.3,1.1-0.5,1.7-0.5
				c0.5,0,0.9,0.1,1.3,0.3c0.4,0.2,0.8,0.5,1.1,0.8c0.6-0.7,1.4-1.1,2.4-1.1c0.4,0,0.8,0.1,1.2,0.2c0.4,0.2,0.7,0.4,1,0.7
				c0.3,0.3,0.5,0.6,0.7,1s0.2,0.8,0.2,1.2V42z"/>
			<path class="st21" d="M602.6,77l0-0.1c-0.4,0.3-0.7,0.5-1.2,0.6c-0.4,0.1-0.9,0.2-1.3,0.2c-1.1-0.1-2-0.5-2.7-1.3
				c-0.7-0.8-1-1.7-1-2.8c0.1-1.1,0.5-2,1.3-2.7c0.8-0.7,1.7-1,2.8-1c1.1,0.1,2,0.5,2.7,1.3c0.7,0.8,1,1.7,1,2.8l-0.2,3.2
				c0,0.2-0.1,0.4-0.2,0.5c-0.1,0.1-0.3,0.2-0.5,0.2c-0.2,0-0.4-0.1-0.5-0.2C602.7,77.4,602.6,77.2,602.6,77z M600.5,71.3
				c-0.3,0-0.7,0-1,0.1c-0.3,0.1-0.6,0.3-0.8,0.5c-0.2,0.2-0.4,0.5-0.6,0.7c-0.1,0.3-0.2,0.6-0.2,0.9s0,0.6,0.1,1
				c0.1,0.3,0.3,0.6,0.5,0.8c0.2,0.2,0.5,0.4,0.7,0.6c0.3,0.1,0.6,0.2,0.9,0.2c0.3,0,0.7,0,1-0.1s0.6-0.3,0.8-0.5
				c0.2-0.2,0.4-0.5,0.6-0.7c0.1-0.3,0.2-0.6,0.2-0.9c0-0.3,0-0.6-0.1-0.9c-0.1-0.3-0.3-0.6-0.5-0.8c-0.2-0.2-0.5-0.4-0.7-0.6
				C601.1,71.4,600.8,71.3,600.5,71.3z M606.9,70.9l0,0.1c0.4-0.3,0.7-0.5,1.2-0.6c0.4-0.1,0.9-0.2,1.3-0.2c0.2,0,0.4,0,0.7,0.1
				c0.2,0,0.4,0.1,0.6,0.2c0.2,0.1,0.4,0.2,0.5,0.3c0.1,0.1,0.2,0.3,0.2,0.5c0,0.1,0,0.2-0.1,0.3c0,0.1-0.1,0.2-0.2,0.2
				c-0.1,0.1-0.1,0.1-0.2,0.1c-0.1,0-0.2,0-0.3,0c-0.1,0-0.2,0-0.3-0.1c-0.3-0.1-0.6-0.2-0.9-0.2c-0.3,0-0.7,0-1,0.1
				c-0.3,0.1-0.6,0.3-0.8,0.5s-0.4,0.5-0.6,0.7c-0.1,0.3-0.2,0.6-0.2,0.9l-0.2,3.2c0,0.2-0.1,0.4-0.2,0.5c-0.1,0.1-0.3,0.2-0.5,0.2
				c-0.2,0-0.4-0.1-0.5-0.2c-0.1-0.1-0.2-0.3-0.2-0.5l0.3-6.3c0-0.2,0.1-0.4,0.2-0.5s0.3-0.2,0.5-0.2c0.2,0,0.4,0.1,0.5,0.2
				S606.9,70.7,606.9,70.9z M613.6,71.2l0,0.1c0.4-0.3,0.7-0.5,1.2-0.6c0.4-0.1,0.9-0.2,1.3-0.2c0.2,0,0.4,0,0.7,0.1
				c0.2,0,0.4,0.1,0.6,0.2c0.2,0.1,0.4,0.2,0.5,0.3c0.1,0.1,0.2,0.3,0.2,0.5c0,0.1,0,0.2-0.1,0.3c0,0.1-0.1,0.2-0.2,0.2
				s-0.1,0.1-0.2,0.1s-0.2,0-0.3,0c-0.1,0-0.2,0-0.3-0.1c-0.3-0.1-0.6-0.2-0.9-0.2c-0.3,0-0.7,0-1,0.1c-0.3,0.1-0.6,0.3-0.8,0.5
				c-0.2,0.2-0.4,0.5-0.6,0.7c-0.1,0.3-0.2,0.6-0.2,0.9l-0.2,3.2c0,0.2-0.1,0.4-0.2,0.5s-0.3,0.2-0.5,0.2c-0.2,0-0.4-0.1-0.5-0.2
				s-0.2-0.3-0.2-0.5l0.3-6.3c0-0.2,0.1-0.4,0.2-0.5c0.1-0.1,0.3-0.2,0.5-0.2c0.2,0,0.4,0.1,0.5,0.2C613.5,70.9,613.6,71,613.6,71.2
				z M620.3,77.7c0,0.3-0.1,0.5-0.3,0.7c-0.2,0.2-0.4,0.3-0.7,0.3c-0.3,0-0.5-0.1-0.7-0.3c-0.2-0.2-0.3-0.4-0.3-0.7
				c0-0.3,0.1-0.5,0.3-0.7c0.2-0.2,0.4-0.3,0.7-0.3c0.3,0,0.5,0.1,0.7,0.3C620.2,77.2,620.3,77.4,620.3,77.7z M632.2,78.5
				c0,0.2-0.1,0.4-0.2,0.5c-0.1,0.1-0.3,0.2-0.5,0.2c-0.2,0-0.4-0.1-0.5-0.2s-0.2-0.3-0.2-0.5l0.2-3.9c0-0.2,0-0.4-0.1-0.6
				c-0.1-0.2-0.2-0.4-0.3-0.5s-0.3-0.3-0.5-0.4c-0.2-0.1-0.4-0.2-0.6-0.2c-0.2,0-0.4,0-0.6,0.1c-0.2,0.1-0.4,0.2-0.5,0.3
				c-0.2,0.1-0.3,0.3-0.4,0.5c-0.1,0.2-0.1,0.4-0.2,0.6l-0.2,3.9c0,0.2-0.1,0.4-0.2,0.5s-0.3,0.2-0.5,0.2c-0.2,0-0.4-0.1-0.5-0.2
				s-0.2-0.3-0.2-0.5l0.2-3.9c0-0.2,0-0.4-0.1-0.6s-0.2-0.4-0.3-0.5c-0.1-0.2-0.3-0.3-0.5-0.4c-0.2-0.1-0.4-0.2-0.6-0.2
				c-0.2,0-0.4,0-0.6,0.1c-0.2,0.1-0.4,0.2-0.5,0.3c-0.2,0.1-0.3,0.3-0.4,0.5c-0.1,0.2-0.1,0.4-0.2,0.6l-0.2,3.9
				c0,0.2-0.1,0.4-0.2,0.5c-0.1,0.1-0.3,0.2-0.5,0.2c-0.2,0-0.4-0.1-0.5-0.2s-0.2-0.3-0.2-0.5l0.3-6.3c0-0.2,0.1-0.4,0.2-0.5
				c0.1-0.1,0.3-0.2,0.5-0.2c0.2,0,0.3,0.1,0.4,0.2c0.1,0.1,0.2,0.2,0.2,0.4c0.5-0.3,1.1-0.4,1.7-0.4c0.5,0,0.9,0.1,1.3,0.3
				s0.7,0.5,1,0.9c0.7-0.7,1.5-1,2.4-1c0.4,0,0.8,0.1,1.2,0.3c0.4,0.2,0.7,0.4,0.9,0.7c0.3,0.3,0.5,0.6,0.6,1
				c0.1,0.4,0.2,0.8,0.2,1.2L632.2,78.5z M639.8,79l0-0.1c-0.4,0.3-0.7,0.5-1.2,0.6c-0.4,0.1-0.9,0.2-1.3,0.2
				c-1.1-0.1-2-0.5-2.7-1.3c-0.7-0.8-1-1.7-1-2.8s0.5-2,1.3-2.7s1.7-1,2.8-1c1.1,0.1,2,0.5,2.7,1.3c0.7,0.8,1,1.7,1,2.8l-0.2,3.2
				c0,0.2-0.1,0.4-0.2,0.5s-0.3,0.2-0.5,0.2c-0.2,0-0.4-0.1-0.5-0.2C639.8,79.3,639.7,79.2,639.8,79z M637.6,73.2
				c-0.3,0-0.7,0-1,0.1s-0.6,0.3-0.8,0.5c-0.2,0.2-0.4,0.5-0.6,0.7c-0.1,0.3-0.2,0.6-0.2,0.9c0,0.3,0,0.6,0.1,1
				c0.1,0.3,0.3,0.6,0.5,0.8s0.5,0.4,0.7,0.6c0.3,0.1,0.6,0.2,0.9,0.2c0.3,0,0.7,0,1-0.1c0.3-0.1,0.6-0.3,0.8-0.5
				c0.2-0.2,0.4-0.5,0.6-0.7c0.1-0.3,0.2-0.6,0.2-0.9s0-0.6-0.1-0.9c-0.1-0.3-0.3-0.6-0.5-0.8c-0.2-0.2-0.5-0.4-0.7-0.6
				C638.3,73.3,638,73.3,637.6,73.2z M646.2,80c-0.9,0-1.7-0.4-2.4-1l-0.2,3.5c0,0.2-0.1,0.4-0.2,0.5c-0.1,0.1-0.3,0.2-0.5,0.2
				c-0.2,0-0.4-0.1-0.5-0.2c-0.1-0.1-0.2-0.3-0.2-0.5l0.3-6.5c0.1-1.1,0.5-2,1.3-2.7s1.7-1,2.8-1c1.1,0.1,2,0.5,2.7,1.3
				c0.4,0.4,0.6,0.8,0.8,1.3c0.2,0.5,0.2,1,0.2,1.5c-0.1,1.1-0.5,2-1.3,2.7c-0.4,0.4-0.8,0.6-1.3,0.8S646.7,80,646.2,80z M643.9,76
				c0,0.3,0,0.6,0.1,1c0.1,0.3,0.3,0.6,0.5,0.8c0.2,0.2,0.5,0.4,0.7,0.6c0.3,0.1,0.6,0.2,0.9,0.2c0.3,0,0.7,0,1-0.1
				c0.3-0.1,0.6-0.3,0.8-0.5c0.2-0.2,0.4-0.5,0.6-0.7c0.1-0.3,0.2-0.6,0.2-0.9s0-0.6-0.1-0.9c-0.1-0.3-0.3-0.6-0.5-0.8
				c-0.2-0.2-0.5-0.4-0.7-0.6c-0.3-0.1-0.6-0.2-0.9-0.2c-0.3,0-0.7,0-1,0.1c-0.3,0.1-0.6,0.3-0.8,0.5c-0.2,0.2-0.4,0.5-0.6,0.7
				C644,75.4,643.9,75.7,643.9,76z M653.2,69.8c0.1-0.2,0.2-0.3,0.3-0.4c0.1-0.1,0.3-0.1,0.4-0.1c0.1,0,0.2,0,0.3,0.1
				s0.2,0.1,0.2,0.2c0.1,0.1,0.1,0.2,0.1,0.2c0,0.1,0,0.2,0,0.3c0,0.2-0.1,0.3-0.1,0.4c-1.1,2-1.7,4-1.8,6c-0.1,1,0,2,0.2,3.1
				s0.5,2.1,0.9,3.1c0,0.1,0,0.1,0.1,0.2c0,0.1,0,0.1,0,0.2c0,0.2-0.1,0.4-0.2,0.5c-0.1,0.1-0.3,0.2-0.5,0.2c-0.1,0-0.3-0.1-0.4-0.1
				c-0.1-0.1-0.2-0.2-0.3-0.4c-1-2.3-1.4-4.6-1.3-6.8C651.4,74.1,652.1,71.9,653.2,69.8z M656.9,79.6c0,0.3-0.1,0.5-0.3,0.7
				c-0.2,0.2-0.4,0.3-0.7,0.3c-0.3,0-0.5-0.1-0.7-0.3c-0.2-0.2-0.3-0.4-0.3-0.7c0-0.3,0.1-0.5,0.3-0.7c0.2-0.2,0.4-0.3,0.7-0.3
				s0.5,0.1,0.7,0.3C656.8,79.1,656.9,79.3,656.9,79.6z M659.7,79.7c0,0.3-0.1,0.5-0.3,0.7c-0.2,0.2-0.4,0.3-0.7,0.3
				c-0.3,0-0.5-0.1-0.7-0.3c-0.2-0.2-0.3-0.4-0.3-0.7c0-0.3,0.1-0.5,0.3-0.7c0.2-0.2,0.4-0.3,0.7-0.3c0.3,0,0.5,0.1,0.7,0.3
				C659.6,79.2,659.7,79.5,659.7,79.7z M662.4,79.9c0,0.3-0.1,0.5-0.3,0.7c-0.2,0.2-0.4,0.3-0.7,0.3c-0.3,0-0.5-0.1-0.7-0.3
				c-0.2-0.2-0.3-0.4-0.3-0.7c0-0.3,0.1-0.5,0.3-0.7c0.2-0.2,0.4-0.3,0.7-0.3c0.3,0,0.5,0.1,0.7,0.3
				C662.4,79.4,662.5,79.6,662.4,79.9z M666.5,77.2c-0.1,1.1-0.3,2.3-0.6,3.3c-0.3,1.1-0.8,2.2-1.4,3.3c-0.1,0.2-0.2,0.3-0.3,0.4
				c-0.1,0.1-0.2,0.1-0.4,0.1c-0.2,0-0.4-0.1-0.5-0.2s-0.2-0.3-0.2-0.5c0-0.1,0-0.1,0-0.2c0-0.1,0-0.1,0.1-0.2c0.5-1,1-2,1.3-3
				s0.5-2,0.5-3c0.1-2-0.3-4.1-1.2-6.1c-0.1-0.1-0.1-0.2-0.1-0.4c0-0.1,0-0.2,0.1-0.3c0-0.1,0.1-0.2,0.2-0.2s0.1-0.1,0.2-0.2
				c0.1,0,0.2,0,0.3,0c0.1,0,0.3,0.1,0.4,0.1c0.1,0.1,0.2,0.2,0.3,0.4c0.5,1.1,0.8,2.3,1,3.4C666.5,74.9,666.5,76.1,666.5,77.2z"/>
			<path class="st30" d="M612.5,98.1c-1.3,0.2-1.8,0.9-1.7,2.1l0,0.4l1.4-0.2c0.2,0,0.4,0,0.5,0.1c0.2,0.1,0.2,0.3,0.3,0.5
				c0,0.2,0,0.4-0.1,0.5c-0.1,0.2-0.3,0.2-0.5,0.3L611,102l0.6,5.2c0,0.1,0,0.2,0,0.3c0,0.1-0.1,0.2-0.1,0.2s-0.1,0.1-0.2,0.2
				c-0.1,0-0.2,0.1-0.3,0.1c-0.1,0-0.2,0-0.3,0s-0.2-0.1-0.2-0.1c-0.1-0.1-0.1-0.1-0.2-0.2s-0.1-0.2-0.1-0.3l-0.6-5.2l-0.3,0
				c-0.2,0-0.4,0-0.5-0.1c-0.2-0.1-0.2-0.3-0.3-0.5c0-0.2,0-0.4,0.1-0.5c0.1-0.2,0.3-0.2,0.5-0.3l0.3,0l0-0.4
				c-0.3-2.2,0.7-3.5,2.9-3.7c0.2,0,0.4,0,0.5,0.1c0.2,0.1,0.2,0.3,0.3,0.5c0,0.2,0,0.4-0.1,0.5C612.8,98,612.7,98.1,612.5,98.1z
				 M621.3,106.8c-0.2,0-0.4,0-0.5-0.1c-0.2-0.1-0.2-0.3-0.3-0.5c-0.3,0.3-0.6,0.5-0.9,0.7s-0.7,0.3-1.1,0.3c-0.5,0.1-1,0-1.4-0.1
				c-0.5-0.1-0.9-0.3-1.2-0.6s-0.7-0.6-0.9-1c-0.2-0.4-0.4-0.9-0.5-1.4l-0.4-3.4c0-0.2,0-0.4,0.1-0.5s0.3-0.2,0.5-0.3
				c0.2,0,0.4,0,0.5,0.1c0.2,0.1,0.2,0.3,0.3,0.5l0.4,3.4c0,0.3,0.1,0.6,0.3,0.8c0.1,0.2,0.3,0.5,0.5,0.6c0.2,0.2,0.5,0.3,0.7,0.4
				c0.3,0.1,0.6,0.1,0.9,0.1c0.3,0,0.6-0.1,0.8-0.3s0.5-0.3,0.6-0.5c0.2-0.2,0.3-0.5,0.4-0.7c0.1-0.3,0.1-0.6,0.1-0.9l-0.4-3.4
				c0-0.2,0-0.4,0.1-0.5c0.1-0.2,0.3-0.2,0.5-0.3c0.2,0,0.4,0,0.5,0.1c0.2,0.1,0.2,0.3,0.3,0.5l0.8,6.3c0,0.2,0,0.4-0.1,0.5
				C621.7,106.6,621.5,106.7,621.3,106.8z M623.7,99.4c0.6-0.5,1.2-0.9,2.1-1c0.5-0.1,1,0,1.4,0.1c0.5,0.1,0.9,0.3,1.2,0.6
				c0.4,0.3,0.7,0.6,0.9,1s0.4,0.9,0.5,1.4l0.4,3.4c0,0.2,0,0.4-0.1,0.5c-0.1,0.2-0.3,0.2-0.5,0.3c-0.2,0-0.4,0-0.5-0.1
				c-0.2-0.1-0.2-0.3-0.3-0.5l-0.4-3.4c0-0.3-0.1-0.6-0.3-0.8c-0.1-0.2-0.3-0.5-0.5-0.6c-0.2-0.2-0.5-0.3-0.7-0.4
				c-0.3-0.1-0.6-0.1-0.9-0.1c-0.3,0-0.6,0.1-0.8,0.3c-0.2,0.1-0.5,0.3-0.6,0.5s-0.3,0.5-0.4,0.7s-0.1,0.6-0.1,0.9l0.4,3.4
				c0,0.2,0,0.4-0.1,0.5c-0.1,0.2-0.3,0.2-0.5,0.3c-0.2,0-0.4,0-0.5-0.1s-0.2-0.3-0.3-0.5l-0.8-6.3c0-0.2,0-0.4,0.1-0.5
				s0.3-0.3,0.5-0.3c0.2,0,0.4,0,0.5,0.2C623.6,99,623.7,99.2,623.7,99.4z M637,102.6c0.2,0,0.4,0,0.5,0.1c0.2,0.1,0.2,0.3,0.3,0.5
				c0,0.2,0,0.4-0.2,0.6c-0.6,0.7-1.4,1.1-2.4,1.2c-1.1,0.1-2-0.1-2.9-0.8c-0.8-0.7-1.3-1.5-1.5-2.6c-0.1-1.1,0.1-2,0.8-2.9
				c0.7-0.8,1.5-1.3,2.6-1.5c1-0.1,1.8,0.1,2.6,0.6c0.2,0.1,0.3,0.3,0.3,0.5c0,0.2,0,0.4-0.1,0.5c-0.1,0.2-0.3,0.2-0.5,0.3
				c-0.2,0-0.3,0-0.5-0.1c-0.3-0.2-0.5-0.3-0.8-0.4c-0.3-0.1-0.6-0.1-0.9,0c-0.3,0-0.6,0.1-0.9,0.3c-0.3,0.2-0.5,0.4-0.7,0.6
				c-0.2,0.2-0.3,0.5-0.4,0.8c-0.1,0.3-0.1,0.6-0.1,1c0,0.3,0.1,0.6,0.3,0.9s0.4,0.5,0.6,0.7s0.5,0.3,0.8,0.4c0.3,0.1,0.6,0.1,1,0.1
				c0.3,0,0.6-0.1,0.8-0.3c0.2-0.1,0.5-0.3,0.7-0.5C636.7,102.7,636.8,102.6,637,102.6z M638.9,96.8l0.3,0l-0.3-2.6
				c0-0.2,0-0.4,0.1-0.5c0.1-0.2,0.3-0.2,0.5-0.3c0.2,0,0.4,0,0.5,0.1c0.2,0.1,0.2,0.3,0.3,0.5l0.3,2.6l0.9-0.1c0.2,0,0.4,0,0.5,0.1
				c0.2,0.1,0.2,0.3,0.3,0.5c0,0.2,0,0.4-0.1,0.5s-0.3,0.2-0.5,0.3l-0.9,0.1l0.4,3.5c0.1,0.9,0.6,1.3,1.5,1.2c0.2,0,0.4,0,0.5,0.1
				c0.2,0.1,0.2,0.3,0.3,0.5c0,0.2,0,0.4-0.1,0.5s-0.3,0.2-0.5,0.3c-1.9,0.2-2.9-0.6-3.2-2.5l-0.4-3.5l-0.3,0c-0.2,0-0.4,0-0.5-0.1
				c-0.2-0.1-0.2-0.3-0.3-0.5c0-0.2,0-0.4,0.1-0.5C638.5,96.9,638.7,96.8,638.9,96.8z M645.5,94.6c0,0.2,0,0.4-0.2,0.6
				c-0.1,0.2-0.3,0.3-0.6,0.3c-0.2,0-0.4,0-0.6-0.2s-0.3-0.3-0.3-0.6c0-0.2,0-0.4,0.2-0.6c0.1-0.2,0.3-0.3,0.6-0.3
				c0.2,0,0.4,0,0.6,0.2C645.3,94.2,645.4,94.3,645.5,94.6z M644.9,103.1l-0.8-6.3c0-0.2,0-0.4,0.1-0.5c0.1-0.2,0.3-0.2,0.5-0.3
				c0.2,0,0.4,0,0.5,0.1c0.2,0.1,0.3,0.3,0.3,0.5l0.8,6.3c0,0.2,0,0.4-0.2,0.5c-0.1,0.2-0.3,0.2-0.5,0.3c-0.2,0-0.4,0-0.5-0.1
				C645,103.5,645,103.3,644.9,103.1z M655.2,98.7c0.1,1.1-0.1,2-0.8,2.9c-0.7,0.8-1.5,1.3-2.6,1.5c-1.1,0.1-2-0.1-2.9-0.8
				c-0.8-0.7-1.3-1.5-1.5-2.6c-0.1-1.1,0.1-2,0.8-2.9s1.5-1.3,2.6-1.5c1.1-0.1,2,0.1,2.9,0.8c0.4,0.3,0.8,0.7,1,1.1
				C655,97.7,655.1,98.2,655.2,98.7z M651,96.7c-0.3,0-0.6,0.1-0.9,0.3c-0.3,0.2-0.5,0.4-0.7,0.6c-0.2,0.2-0.3,0.5-0.4,0.8
				c-0.1,0.3-0.1,0.6-0.1,1c0,0.3,0.1,0.6,0.3,0.9s0.4,0.5,0.6,0.7c0.2,0.2,0.5,0.3,0.8,0.4c0.3,0.1,0.6,0.1,1,0.1
				c0.3,0,0.6-0.1,0.9-0.3c0.3-0.2,0.5-0.4,0.7-0.6c0.2-0.2,0.3-0.5,0.4-0.8c0.1-0.3,0.1-0.6,0.1-1c0-0.3-0.1-0.6-0.3-0.9
				s-0.4-0.5-0.6-0.7c-0.2-0.2-0.5-0.3-0.8-0.4C651.7,96.7,651.4,96.7,651,96.7z M657.3,95.2c0.6-0.5,1.2-0.9,2.1-1
				c0.5-0.1,1,0,1.4,0.1c0.5,0.1,0.9,0.3,1.2,0.6c0.4,0.3,0.7,0.6,0.9,1s0.4,0.9,0.5,1.4l0.4,3.4c0,0.2,0,0.4-0.1,0.5
				c-0.1,0.2-0.3,0.2-0.5,0.3c-0.2,0-0.4,0-0.5-0.1c-0.2-0.1-0.2-0.3-0.3-0.5l-0.4-3.4c0-0.3-0.1-0.6-0.3-0.8
				c-0.1-0.2-0.3-0.5-0.5-0.6c-0.2-0.2-0.5-0.3-0.7-0.4c-0.3-0.1-0.6-0.1-0.9-0.1c-0.3,0-0.6,0.1-0.8,0.3c-0.2,0.1-0.5,0.3-0.6,0.5
				c-0.2,0.2-0.3,0.5-0.4,0.7c-0.1,0.3-0.1,0.6-0.1,0.9l0.4,3.4c0,0.2,0,0.4-0.1,0.5s-0.3,0.2-0.5,0.3c-0.2,0-0.4,0-0.5-0.1
				c-0.2-0.1-0.2-0.3-0.3-0.5l-0.8-6.3c0-0.2,0-0.4,0.1-0.5c0.1-0.2,0.3-0.3,0.5-0.3c0.2,0,0.4,0,0.5,0.2
				C657.2,94.9,657.3,95,657.3,95.2z M665.3,90.7c0.1-0.2,0.1-0.3,0.2-0.4c0.1-0.1,0.2-0.2,0.4-0.2c0.1,0,0.2,0,0.3,0
				c0.1,0,0.2,0.1,0.2,0.1c0.1,0.1,0.1,0.1,0.2,0.2c0,0.1,0.1,0.2,0.1,0.3c0,0.2,0,0.3-0.1,0.4c-0.7,2.1-1,4.2-0.7,6.2
				c0.1,1,0.4,2,0.8,3s0.9,2,1.5,2.9c0,0.1,0.1,0.1,0.1,0.2s0,0.1,0,0.2c0,0.2,0,0.4-0.1,0.5c-0.1,0.2-0.3,0.3-0.5,0.3
				c-0.1,0-0.3,0-0.4-0.1c-0.1-0.1-0.2-0.2-0.3-0.3c-1.3-2.1-2.1-4.2-2.4-6.5C664.2,95.3,664.5,93,665.3,90.7z M670.6,99.7
				c0,0.3,0,0.5-0.2,0.7c-0.2,0.2-0.4,0.3-0.7,0.4c-0.3,0-0.5,0-0.7-0.2c-0.2-0.2-0.3-0.4-0.4-0.7c0-0.3,0-0.5,0.2-0.7
				c0.2-0.2,0.4-0.3,0.7-0.4c0.3,0,0.5,0,0.7,0.2C670.4,99.2,670.5,99.5,670.6,99.7z M673.3,99.4c0,0.3,0,0.5-0.2,0.7
				c-0.2,0.2-0.4,0.3-0.7,0.4c-0.3,0-0.5,0-0.7-0.2s-0.3-0.4-0.4-0.7c0-0.3,0-0.5,0.2-0.7c0.2-0.2,0.4-0.3,0.7-0.4
				c0.3,0,0.5,0,0.7,0.2C673.2,98.9,673.3,99.1,673.3,99.4z M676.1,99c0,0.3,0,0.5-0.2,0.7c-0.2,0.2-0.4,0.3-0.7,0.4
				c-0.3,0-0.5,0-0.7-0.2c-0.2-0.2-0.3-0.4-0.4-0.7c0-0.3,0-0.5,0.2-0.7c0.2-0.2,0.4-0.3,0.7-0.4c0.3,0,0.5,0,0.7,0.2
				S676,98.8,676.1,99z M679.6,95.7c0.1,1.1,0.1,2.3,0,3.4c-0.1,1.1-0.4,2.3-0.8,3.5c-0.1,0.2-0.1,0.3-0.2,0.4
				c-0.1,0.1-0.2,0.1-0.4,0.2c-0.2,0-0.4,0-0.5-0.2s-0.2-0.3-0.3-0.5c0-0.1,0-0.1,0-0.2c0-0.1,0-0.1,0-0.2c0.4-1.1,0.6-2.1,0.7-3.2
				s0.1-2.1,0-3.1c-0.2-2-1-4-2.2-5.9c-0.1-0.1-0.1-0.2-0.1-0.4c0-0.1,0-0.2,0-0.3c0-0.1,0.1-0.2,0.1-0.3c0.1-0.1,0.1-0.1,0.2-0.2
				c0.1,0,0.2-0.1,0.3-0.1c0.1,0,0.3,0,0.4,0.1c0.1,0.1,0.2,0.2,0.3,0.3c0.7,1,1.2,2.1,1.6,3.2C679.2,93.5,679.5,94.6,679.6,95.7z"
				/>
			<path class="st21" d="M577.7,36.2l0,0.1c0.4-0.2,0.8-0.3,1.2-0.4c0.4-0.1,0.9,0,1.3,0.1c0.2,0,0.4,0.1,0.6,0.2
				c0.2,0.1,0.4,0.2,0.6,0.3c0.2,0.1,0.3,0.2,0.4,0.4c0.1,0.2,0.1,0.3,0.1,0.5c0,0.1-0.1,0.2-0.1,0.3s-0.1,0.1-0.2,0.2
				c-0.1,0.1-0.2,0.1-0.3,0.1c-0.1,0-0.2,0-0.3,0c-0.1,0-0.2-0.1-0.3-0.1c-0.3-0.2-0.6-0.3-0.9-0.4c-0.3-0.1-0.7-0.1-1,0
				c-0.3,0.1-0.6,0.2-0.9,0.3c-0.3,0.2-0.5,0.4-0.7,0.6c-0.2,0.3-0.3,0.6-0.4,0.9l-0.7,3.1c0,0.2-0.2,0.3-0.3,0.5
				c-0.2,0.1-0.4,0.1-0.5,0.1c-0.2,0-0.4-0.2-0.5-0.3s-0.1-0.4-0.1-0.5l1.4-6.2c0-0.2,0.2-0.3,0.3-0.5c0.2-0.1,0.4-0.1,0.6-0.1
				c0.2,0,0.3,0.2,0.5,0.3C577.7,35.8,577.8,36,577.7,36.2z M587.5,43.4c0.2,0,0.4,0.2,0.5,0.3c0.1,0.2,0.1,0.3,0.1,0.5
				c0,0.2-0.2,0.4-0.3,0.5c-0.8,0.5-1.7,0.6-2.7,0.4c-1-0.2-1.9-0.8-2.4-1.7s-0.7-1.9-0.5-2.9c0.2-1,0.8-1.9,1.7-2.4
				s1.9-0.7,2.9-0.5c1,0.2,1.8,0.8,2.4,1.7c0.3,0.4,0.5,0.9,0.6,1.4c0.1,0.5,0.1,1-0.1,1.5c0,0.2-0.2,0.4-0.3,0.5s-0.4,0.1-0.5,0.1
				l-5.4-1.2c0,0.3,0.1,0.5,0.2,0.8c0.1,0.2,0.2,0.5,0.4,0.6c0.2,0.2,0.4,0.4,0.6,0.5c0.2,0.1,0.5,0.2,0.7,0.3
				c0.3,0.1,0.6,0.1,0.8,0.1c0.3,0,0.5-0.1,0.8-0.2C587.2,43.4,587.4,43.3,587.5,43.4z M588.4,41.1c0-0.3-0.1-0.5-0.2-0.8
				c-0.1-0.2-0.2-0.5-0.4-0.6c-0.2-0.2-0.4-0.4-0.6-0.5c-0.2-0.1-0.5-0.2-0.7-0.3c-0.3-0.1-0.5-0.1-0.8,0c-0.3,0-0.5,0.1-0.7,0.2
				c-0.2,0.1-0.5,0.2-0.6,0.4c-0.2,0.2-0.4,0.4-0.5,0.6L588.4,41.1z M592.3,38.7l0.3,0.1l0.6-2.5c0-0.2,0.2-0.3,0.3-0.5
				c0.2-0.1,0.4-0.1,0.6-0.1c0.2,0,0.3,0.2,0.5,0.3s0.1,0.4,0.1,0.5l-0.6,2.5l0.8,0.2c0.2,0,0.3,0.1,0.4,0.3
				c0.1,0.2,0.1,0.3,0.1,0.5c0,0.2-0.2,0.4-0.3,0.5c-0.2,0.1-0.3,0.1-0.5,0.1l-0.8-0.2l-0.8,3.4c-0.2,0.9,0.1,1.4,1,1.7
				c0.2,0,0.3,0.1,0.4,0.3c0.1,0.2,0.1,0.3,0.1,0.5c0,0.2-0.2,0.4-0.3,0.5c-0.2,0.1-0.3,0.1-0.5,0.1c-1.8-0.4-2.6-1.5-2.1-3.4
				l0.8-3.4l-0.3-0.1c-0.2,0-0.3-0.1-0.4-0.3s-0.1-0.4-0.1-0.6c0-0.2,0.2-0.3,0.3-0.5C592,38.7,592.1,38.7,592.3,38.7z M601.7,48.8
				c-0.2,0-0.4-0.2-0.5-0.3s-0.1-0.3-0.1-0.5c-0.4,0.2-0.7,0.3-1.1,0.3c-0.4,0-0.8,0-1.2-0.1c-0.5-0.1-0.9-0.3-1.3-0.6
				c-0.4-0.3-0.7-0.6-1-1c-0.2-0.4-0.4-0.8-0.5-1.3c-0.1-0.5-0.1-0.9,0-1.4l0.8-3.3c0-0.2,0.2-0.3,0.3-0.5c0.2-0.1,0.4-0.1,0.6-0.1
				c0.2,0,0.3,0.2,0.5,0.3c0.1,0.2,0.1,0.4,0.1,0.5l-0.8,3.3c-0.1,0.3-0.1,0.6,0,0.9c0.1,0.3,0.2,0.5,0.3,0.8s0.3,0.4,0.6,0.6
				c0.2,0.2,0.5,0.3,0.8,0.4c0.3,0.1,0.6,0.1,0.9,0c0.3-0.1,0.5-0.2,0.8-0.3c0.2-0.2,0.4-0.3,0.6-0.6c0.2-0.2,0.3-0.5,0.4-0.8
				l0.8-3.3c0-0.2,0.2-0.3,0.3-0.5c0.2-0.1,0.4-0.1,0.6-0.1c0.2,0,0.3,0.2,0.5,0.3c0.1,0.2,0.1,0.4,0.1,0.5l-1.4,6.2
				c0,0.2-0.2,0.3-0.3,0.5C602.1,48.8,601.9,48.9,601.7,48.8z M606.4,42.7l0,0.1c0.4-0.2,0.8-0.3,1.2-0.4c0.4-0.1,0.9,0,1.3,0.1
				c0.2,0,0.4,0.1,0.6,0.2c0.2,0.1,0.4,0.2,0.6,0.3c0.2,0.1,0.3,0.2,0.4,0.4c0.1,0.2,0.1,0.3,0.1,0.5c0,0.1-0.1,0.2-0.1,0.3
				c-0.1,0.1-0.1,0.1-0.2,0.2c-0.1,0.1-0.2,0.1-0.3,0.1c-0.1,0-0.2,0-0.3,0c-0.1,0-0.2-0.1-0.3-0.1c-0.3-0.2-0.6-0.3-0.9-0.4
				c-0.3-0.1-0.7-0.1-1,0c-0.3,0.1-0.6,0.2-0.9,0.3c-0.3,0.2-0.5,0.4-0.7,0.6c-0.2,0.3-0.3,0.6-0.4,0.9l-0.7,3.1
				c0,0.2-0.2,0.3-0.3,0.5c-0.2,0.1-0.4,0.1-0.5,0.1c-0.2,0-0.4-0.2-0.5-0.3c-0.1-0.2-0.1-0.4-0.1-0.5l1.4-6.2
				c0-0.2,0.2-0.3,0.3-0.5c0.2-0.1,0.4-0.1,0.6-0.1c0.2,0,0.3,0.2,0.5,0.3S606.5,42.5,606.4,42.7z M612.9,44.1
				c0.7-0.3,1.5-0.4,2.3-0.2c0.5,0.1,0.9,0.3,1.3,0.6s0.7,0.6,1,1c0.3,0.4,0.4,0.8,0.5,1.3c0.1,0.5,0.1,1,0,1.4l-0.8,3.3
				c0,0.2-0.2,0.4-0.3,0.5c-0.2,0.1-0.4,0.1-0.5,0.1c-0.2,0-0.4-0.2-0.5-0.3c-0.1-0.2-0.1-0.4-0.1-0.6l0.8-3.3
				c0.1-0.3,0.1-0.6,0-0.9c-0.1-0.3-0.2-0.5-0.3-0.8c-0.1-0.2-0.3-0.4-0.6-0.6c-0.2-0.2-0.5-0.3-0.8-0.4c-0.3-0.1-0.6-0.1-0.9,0
				c-0.3,0.1-0.5,0.2-0.8,0.3c-0.2,0.2-0.4,0.3-0.6,0.6c-0.2,0.2-0.3,0.5-0.4,0.8l-0.8,3.3c0,0.2-0.2,0.4-0.3,0.5
				c-0.2,0.1-0.4,0.1-0.5,0.1c-0.2,0-0.4-0.2-0.5-0.3c-0.1-0.2-0.1-0.4-0.1-0.6l1.4-6.2c0-0.2,0.2-0.3,0.3-0.5
				c0.2-0.1,0.4-0.1,0.6-0.1c0.2,0,0.3,0.2,0.4,0.3C612.9,43.8,613,43.9,612.9,44.1z"/>
			<path class="st22" d="M624.9,60.3c0.2,0,0.4,0,0.5,0.1c0.2,0.1,0.3,0.3,0.3,0.5c0,0.2,0,0.4-0.1,0.6c-0.6,0.8-1.3,1.3-2.3,1.5
				c-1,0.2-2,0.1-2.9-0.5c-0.9-0.6-1.5-1.4-1.7-2.4s-0.1-2,0.5-2.9c0.6-0.9,1.4-1.5,2.4-1.7c1-0.2,1.8-0.1,2.7,0.4
				c0.2,0.1,0.3,0.3,0.4,0.5c0,0.2,0,0.4-0.1,0.6c-0.1,0.2-0.3,0.3-0.5,0.3c-0.2,0-0.3,0-0.5-0.1c-0.3-0.1-0.5-0.2-0.8-0.3
				c-0.3,0-0.6,0-0.9,0c-0.3,0.1-0.6,0.2-0.9,0.4s-0.5,0.4-0.6,0.7s-0.3,0.6-0.3,0.9c-0.1,0.3,0,0.6,0,1c0.1,0.3,0.2,0.6,0.4,0.9
				c0.2,0.3,0.4,0.5,0.7,0.6s0.6,0.3,0.9,0.3c0.3,0.1,0.6,0,1,0c0.3-0.1,0.6-0.2,0.8-0.3c0.2-0.2,0.4-0.4,0.6-0.6
				C624.6,60.4,624.7,60.3,624.9,60.3z M633.9,56.5c0.2,1.1,0.1,2-0.5,2.9c-0.6,0.9-1.4,1.5-2.4,1.7c-1,0.2-2,0.1-2.9-0.5
				c-0.9-0.6-1.5-1.4-1.7-2.4c-0.2-1-0.1-2,0.5-2.9c0.6-0.9,1.4-1.5,2.4-1.7c1-0.2,2-0.1,2.9,0.5c0.5,0.3,0.8,0.6,1.1,1
				C633.6,55.5,633.8,56,633.9,56.5z M629.6,55c-0.3,0.1-0.6,0.2-0.9,0.4c-0.3,0.2-0.5,0.4-0.6,0.7c-0.2,0.3-0.3,0.6-0.3,0.9
				c-0.1,0.3,0,0.6,0,1c0.1,0.3,0.2,0.6,0.4,0.9s0.4,0.5,0.7,0.6s0.6,0.3,0.9,0.3s0.6,0.1,1,0c0.3-0.1,0.6-0.2,0.9-0.4
				s0.5-0.4,0.6-0.7s0.3-0.6,0.3-0.9c0.1-0.3,0-0.6,0-1c-0.1-0.3-0.2-0.6-0.4-0.9c-0.2-0.3-0.4-0.5-0.7-0.6
				c-0.3-0.2-0.6-0.3-0.9-0.3C630.2,54.9,629.9,54.9,629.6,55z M635.7,52.8c0.5-0.6,1.1-1,2-1.2c0.5-0.1,0.9-0.1,1.4,0
				s0.9,0.3,1.3,0.5c0.4,0.2,0.7,0.6,1,0.9c0.3,0.4,0.5,0.8,0.6,1.3l0.8,3.3c0,0.2,0,0.4-0.1,0.6s-0.3,0.3-0.4,0.3
				c-0.2,0-0.4,0-0.6-0.1c-0.2-0.1-0.3-0.3-0.3-0.5l-0.8-3.3c-0.1-0.3-0.2-0.5-0.4-0.8s-0.4-0.4-0.6-0.6c-0.2-0.1-0.5-0.2-0.8-0.3
				c-0.3-0.1-0.6,0-0.9,0c-0.3,0.1-0.6,0.2-0.8,0.4s-0.4,0.4-0.6,0.6c-0.1,0.2-0.2,0.5-0.3,0.8s0,0.6,0,0.9l0.8,3.3
				c0,0.2,0,0.4-0.1,0.6c-0.1,0.2-0.3,0.3-0.4,0.3c-0.2,0-0.4,0-0.6-0.1c-0.2-0.1-0.3-0.3-0.3-0.5l-1.4-6.2c0-0.2,0-0.4,0.1-0.5
				c0.1-0.2,0.3-0.3,0.5-0.3c0.2,0,0.4,0,0.5,0.1C635.5,52.5,635.6,52.6,635.7,52.8z M644.5,54.2c-0.5-0.1-0.8-0.2-1-0.3l0,0
				c-0.4-0.3-0.7-0.6-0.8-1.1c-0.1-0.3-0.1-0.7,0.1-1c0.1-0.3,0.3-0.6,0.6-0.9c0.2-0.3,0.5-0.5,0.9-0.7s0.7-0.3,1.1-0.4
				c1.1-0.3,2.2,0,3.2,0.7c0.1,0.1,0.2,0.2,0.2,0.4c0,0.2,0,0.4-0.1,0.5s-0.3,0.3-0.5,0.3c-0.1,0-0.3,0-0.4,0
				c-0.1-0.1-0.2-0.1-0.4-0.2c-0.6-0.4-1.2-0.5-1.8-0.3c-0.6,0.1-1.1,0.5-1.4,1c-0.1,0.1-0.1,0.2,0,0.3c0,0.1,0.1,0.2,0.2,0.2
				l3.4,0.3c0.5,0.1,0.8,0.2,1,0.3l0,0c0.4,0.3,0.7,0.6,0.8,1.1c0.1,0.3,0.1,0.7-0.1,1c-0.1,0.3-0.3,0.6-0.6,0.9
				c-0.2,0.3-0.5,0.5-0.9,0.7c-0.3,0.2-0.7,0.3-1.1,0.4c-1.1,0.3-2.2,0-3.2-0.7c-0.1-0.1-0.2-0.2-0.2-0.4c0-0.2,0-0.4,0.1-0.5
				s0.3-0.3,0.5-0.3c0.1,0,0.3,0,0.4,0c0.1,0.1,0.2,0.1,0.3,0.2c0.6,0.4,1.2,0.5,1.8,0.3c0.6-0.1,1.1-0.5,1.4-1c0-0.1,0.1-0.2,0-0.3
				c0-0.1-0.1-0.2-0.2-0.2L644.5,54.2z M650,48.8l0.3-0.1l-0.6-2.5c0-0.2,0-0.4,0.1-0.5c0.1-0.2,0.3-0.3,0.5-0.3
				c0.2,0,0.4,0,0.5,0.1c0.2,0.1,0.3,0.3,0.3,0.4l0.6,2.5l0.8-0.2c0.2,0,0.4,0,0.5,0.1s0.3,0.3,0.3,0.5c0,0.2,0,0.4-0.1,0.6
				c-0.1,0.2-0.3,0.3-0.4,0.3l-0.8,0.2l0.8,3.4c0.2,0.9,0.8,1.2,1.7,1c0.2,0,0.4,0,0.5,0.1s0.3,0.3,0.3,0.5c0,0.2,0,0.4-0.1,0.6
				s-0.3,0.3-0.4,0.3c-1.8,0.4-3-0.3-3.4-2.1l-0.8-3.4l-0.3,0.1c-0.2,0-0.4,0-0.5-0.1c-0.2-0.1-0.3-0.3-0.3-0.5c0-0.2,0-0.4,0.1-0.5
				C649.7,48.9,649.9,48.8,650,48.8z"/>
			<path class="st30" d="M424.7,56.6v3.3c0,0.6,0.3,0.9,0.9,0.9c0.2,0,0.4,0.1,0.5,0.2c0.1,0.1,0.2,0.3,0.2,0.5s-0.1,0.4-0.2,0.5
				s-0.3,0.2-0.5,0.2c-0.6,0-0.9,0.3-0.9,0.9v3.3c0,1.5-0.8,2.3-2.3,2.3c-0.2,0-0.4-0.1-0.5-0.2c-0.1-0.1-0.2-0.3-0.2-0.5
				c0-0.2,0.1-0.4,0.2-0.5c0.1-0.1,0.3-0.2,0.5-0.2c0.6,0,0.9-0.3,0.9-0.9v-3.3c0-0.7,0.2-1.2,0.5-1.6c-0.3-0.4-0.5-0.9-0.5-1.6
				v-3.3c0-0.6-0.3-0.9-0.9-0.9c-0.2,0-0.4-0.1-0.5-0.2c-0.1-0.1-0.2-0.3-0.2-0.5c0-0.2,0.1-0.4,0.2-0.5c0.1-0.1,0.3-0.2,0.5-0.2
				C423.9,54.3,424.7,55.1,424.7,56.6z"/>
			<path class="st30" d="M383,32.8c0.2,0,0.4,0.1,0.5,0.2c0.1,0.1,0.2,0.3,0.2,0.5c0,0.2-0.1,0.4-0.2,0.5c-0.1,0.1-0.3,0.2-0.5,0.2
				c-0.6,0-0.9,0.3-0.9,0.9v3.3c0,0.7-0.2,1.2-0.5,1.6c0.3,0.4,0.5,0.9,0.5,1.6v3.3c0,0.6,0.3,0.9,0.9,0.9c0.2,0,0.4,0.1,0.5,0.2
				s0.2,0.3,0.2,0.5c0,0.2-0.1,0.4-0.2,0.5c-0.1,0.1-0.3,0.2-0.5,0.2c-1.5,0-2.3-0.8-2.3-2.3v-3.3c0-0.6-0.3-0.9-0.9-0.9
				c-0.2,0-0.4-0.1-0.5-0.2c-0.1-0.1-0.2-0.3-0.2-0.5s0.1-0.4,0.2-0.5s0.3-0.2,0.5-0.2c0.6,0,0.9-0.3,0.9-0.9v-3.3
				C380.7,33.6,381.4,32.8,383,32.8z"/>
			<path class="st21" d="M302.6,86.4c-0.4-0.1-0.8-0.3-1-0.4l0,0c-0.4-0.3-0.6-0.7-0.6-1.2c0-0.4,0-0.7,0.2-1s0.4-0.6,0.7-0.8
				s0.6-0.4,1-0.5s0.7-0.2,1.1-0.3c1.2-0.1,2.2,0.3,3.1,1.1c0.1,0.1,0.2,0.3,0.2,0.4c0,0.2,0,0.4-0.2,0.5s-0.3,0.2-0.5,0.2
				c-0.1,0-0.3,0-0.4-0.1c-0.1-0.1-0.2-0.2-0.3-0.2c-0.5-0.4-1.1-0.6-1.8-0.6c-0.7,0.1-1.2,0.3-1.5,0.7c-0.1,0.1-0.1,0.2-0.1,0.3
				c0,0.1,0.1,0.2,0.2,0.2l3.3,0.8c0.5,0.1,0.8,0.3,1,0.4l0,0c0.4,0.3,0.6,0.7,0.6,1.2c0,0.4,0,0.7-0.2,1s-0.4,0.6-0.7,0.8
				c-0.3,0.2-0.6,0.4-1,0.5c-0.4,0.1-0.7,0.2-1.1,0.3c-1.2,0.1-2.2-0.3-3.1-1.1c-0.1-0.1-0.2-0.3-0.2-0.4c0-0.2,0-0.4,0.2-0.5
				c0.1-0.1,0.3-0.2,0.5-0.2c0.2,0,0.3,0,0.4,0.1s0.2,0.2,0.3,0.2c0.5,0.4,1.1,0.6,1.8,0.6c0.7-0.1,1.2-0.3,1.5-0.8
				c0.1-0.1,0.1-0.2,0.1-0.3c0-0.1-0.1-0.2-0.2-0.3L302.6,86.4z M308.8,81.8l0.3,0l-0.2-2.6c0-0.2,0-0.4,0.2-0.5s0.3-0.2,0.5-0.3
				c0.2,0,0.4,0,0.5,0.2c0.2,0.1,0.2,0.3,0.3,0.5l0.2,2.6l0.9-0.1c0.2,0,0.4,0,0.5,0.2c0.2,0.1,0.2,0.3,0.2,0.5c0,0.2,0,0.4-0.2,0.5
				c-0.1,0.2-0.3,0.2-0.5,0.3l-0.9,0.1l0.3,3.5c0.1,0.9,0.6,1.3,1.5,1.3c0.2,0,0.4,0,0.5,0.2c0.2,0.1,0.2,0.3,0.2,0.5
				c0,0.2,0,0.4-0.2,0.5c-0.1,0.2-0.3,0.2-0.5,0.3c-1.9,0.2-2.9-0.7-3.1-2.6l-0.3-3.5l-0.3,0c-0.2,0-0.4,0-0.5-0.2
				c-0.2-0.1-0.2-0.3-0.3-0.5c0-0.2,0-0.4,0.2-0.5C308.5,81.9,308.6,81.8,308.8,81.8z M315.1,82l0,0.1c0.3-0.3,0.7-0.5,1.1-0.7
				c0.4-0.2,0.8-0.3,1.3-0.3c0.2,0,0.4,0,0.7,0c0.2,0,0.5,0,0.7,0.1c0.2,0.1,0.4,0.1,0.5,0.3c0.1,0.1,0.2,0.3,0.2,0.5
				c0,0.1,0,0.2,0,0.3c0,0.1-0.1,0.2-0.1,0.2c-0.1,0.1-0.1,0.1-0.2,0.2c-0.1,0-0.2,0.1-0.3,0.1c-0.1,0-0.2,0-0.3-0.1
				c-0.3-0.1-0.6-0.1-1-0.1c-0.3,0-0.6,0.1-0.9,0.3c-0.3,0.2-0.5,0.3-0.7,0.6s-0.4,0.5-0.5,0.8c-0.1,0.3-0.1,0.6-0.1,1l0.3,3.2
				c0,0.2,0,0.4-0.2,0.5c-0.1,0.2-0.3,0.2-0.5,0.3c-0.2,0-0.4,0-0.5-0.2c-0.2-0.1-0.2-0.3-0.3-0.5l-0.5-6.3c0-0.2,0-0.4,0.2-0.5
				s0.3-0.2,0.5-0.3c0.2,0,0.4,0,0.5,0.2C315,81.6,315.1,81.8,315.1,82z M322.7,87.4c0,0.3-0.1,0.5-0.2,0.7
				c-0.2,0.2-0.4,0.3-0.7,0.3c-0.3,0-0.5-0.1-0.7-0.2c-0.2-0.2-0.3-0.4-0.3-0.7s0.1-0.5,0.2-0.7c0.2-0.2,0.4-0.3,0.7-0.3
				c0.3,0,0.5,0.1,0.7,0.2C322.5,86.9,322.7,87.2,322.7,87.4z M324.8,84.5c-0.4-0.1-0.8-0.3-1-0.4l0,0c-0.4-0.3-0.6-0.7-0.6-1.2
				c0-0.4,0-0.7,0.2-1c0.2-0.3,0.4-0.6,0.7-0.8c0.3-0.2,0.6-0.4,1-0.5c0.4-0.1,0.7-0.2,1.1-0.3c1.2-0.1,2.2,0.3,3.1,1.1
				c0.1,0.1,0.2,0.3,0.2,0.4c0,0.2,0,0.4-0.2,0.5c-0.1,0.1-0.3,0.2-0.5,0.2c-0.1,0-0.3,0-0.4-0.1c-0.1-0.1-0.2-0.2-0.3-0.2
				c-0.5-0.4-1.1-0.6-1.8-0.6c-0.7,0.1-1.2,0.3-1.5,0.7c-0.1,0.1-0.1,0.2-0.1,0.3s0.1,0.2,0.2,0.2l3.3,0.8c0.5,0.1,0.8,0.3,1,0.4
				l0,0c0.4,0.3,0.6,0.7,0.6,1.2c0,0.4,0,0.7-0.2,1s-0.4,0.6-0.7,0.8c-0.3,0.2-0.6,0.4-1,0.5c-0.4,0.1-0.7,0.2-1.1,0.3
				c-1.2,0.1-2.2-0.3-3.1-1.1c-0.1-0.1-0.2-0.3-0.2-0.4c0-0.2,0-0.4,0.2-0.5c0.1-0.1,0.3-0.2,0.5-0.2c0.2,0,0.3,0,0.4,0.1
				s0.2,0.2,0.3,0.2c0.5,0.4,1.1,0.6,1.8,0.6c0.7-0.1,1.2-0.3,1.5-0.8c0.1-0.1,0.1-0.2,0.1-0.3c0-0.1-0.1-0.2-0.2-0.3L324.8,84.5z
				 M330.9,87l-0.8-9.6c0-0.2,0-0.4,0.2-0.5s0.3-0.2,0.5-0.3c0.2,0,0.4,0,0.5,0.2c0.1,0.1,0.2,0.3,0.2,0.5l0.7,8.9l0.3,0
				c0.2,0,0.4,0,0.5,0.2c0.2,0.1,0.2,0.3,0.3,0.5c0,0.2,0,0.4-0.2,0.5s-0.3,0.2-0.5,0.3l-1.1,0.1c-0.2,0-0.4,0-0.5-0.2
				C331,87.4,330.9,87.2,330.9,87z M335.5,78.2c0,0.2,0,0.4-0.2,0.6s-0.3,0.3-0.6,0.3s-0.4,0-0.6-0.2c-0.2-0.2-0.3-0.3-0.3-0.6
				s0-0.4,0.2-0.6c0.2-0.2,0.3-0.3,0.6-0.3s0.4,0,0.6,0.2C335.4,77.7,335.5,77.9,335.5,78.2z M334.7,86.7l-0.5-6.3
				c0-0.2,0-0.4,0.2-0.5s0.3-0.2,0.5-0.3s0.4,0,0.5,0.2c0.2,0.1,0.2,0.3,0.3,0.5l0.5,6.3c0,0.2,0,0.4-0.2,0.5
				c-0.1,0.2-0.3,0.2-0.5,0.3s-0.4,0-0.5-0.2C334.8,87.1,334.7,86.9,334.7,86.7z M343.4,84.5c0.2,0,0.4,0,0.5,0.2s0.2,0.3,0.2,0.5
				c0,0.2,0,0.4-0.2,0.6c-0.7,0.7-1.5,1.1-2.4,1.2c-1.1,0.1-2-0.2-2.8-0.9c-0.8-0.7-1.3-1.6-1.4-2.6c-0.1-1.1,0.2-2,0.9-2.8
				s1.6-1.3,2.6-1.4c1-0.1,1.8,0.2,2.6,0.7c0.2,0.1,0.3,0.3,0.3,0.5c0,0.2,0,0.4-0.2,0.5c-0.1,0.1-0.3,0.2-0.5,0.3
				c-0.2,0-0.3,0-0.5-0.1c-0.3-0.2-0.5-0.3-0.8-0.4s-0.6-0.1-0.9-0.1c-0.3,0-0.6,0.1-0.9,0.3s-0.5,0.3-0.7,0.6
				c-0.2,0.2-0.4,0.5-0.5,0.8c-0.1,0.3-0.1,0.6-0.1,1c0,0.3,0.1,0.6,0.3,0.9c0.2,0.3,0.3,0.5,0.6,0.7c0.2,0.2,0.5,0.4,0.8,0.5
				c0.3,0.1,0.6,0.1,1,0.1c0.3,0,0.6-0.1,0.8-0.2s0.5-0.3,0.7-0.5C343.1,84.6,343.2,84.5,343.4,84.5z M351.1,83.9
				c0.2,0,0.4,0,0.5,0.2s0.2,0.3,0.2,0.5c0,0.2,0,0.4-0.2,0.5c-0.7,0.7-1.5,1.1-2.5,1.2c-1.1,0.1-2-0.2-2.8-0.9
				c-0.8-0.7-1.3-1.6-1.4-2.6s0.2-2,0.9-2.8s1.6-1.3,2.6-1.4c1.1-0.1,2,0.2,2.8,0.9c0.4,0.3,0.7,0.7,1,1.2c0.2,0.4,0.4,0.9,0.4,1.5
				c0,0.2,0,0.4-0.2,0.5s-0.3,0.2-0.5,0.2l-5.5,0.5c0.1,0.2,0.2,0.5,0.4,0.7c0.2,0.2,0.4,0.4,0.6,0.5c0.2,0.1,0.5,0.2,0.7,0.3
				s0.5,0.1,0.8,0.1c0.3,0,0.6-0.1,0.8-0.2c0.2-0.1,0.5-0.3,0.7-0.5C350.8,84,350.9,83.9,351.1,83.9z M351.2,81.4
				c-0.1-0.2-0.2-0.5-0.4-0.7s-0.4-0.4-0.6-0.5c-0.2-0.1-0.5-0.2-0.7-0.3c-0.3-0.1-0.5-0.1-0.8-0.1c-0.3,0-0.5,0.1-0.8,0.2
				c-0.2,0.1-0.5,0.2-0.7,0.4c-0.2,0.2-0.4,0.4-0.5,0.6c-0.1,0.2-0.2,0.5-0.3,0.7L351.2,81.4z M354.9,75.1c0.1-0.2,0.1-0.3,0.3-0.4
				c0.1-0.1,0.2-0.1,0.4-0.2c0.1,0,0.2,0,0.3,0s0.2,0.1,0.2,0.1s0.1,0.1,0.2,0.2c0,0.1,0.1,0.2,0.1,0.3c0,0.2,0,0.3-0.1,0.4
				c-0.8,2.1-1.1,4.2-1,6.2c0.1,1,0.3,2,0.6,3c0.3,1,0.8,2,1.4,3c0,0.1,0.1,0.1,0.1,0.2c0,0.1,0,0.1,0,0.2c0,0.2,0,0.4-0.2,0.5
				c-0.1,0.2-0.3,0.2-0.5,0.3c-0.1,0-0.3,0-0.4-0.1s-0.2-0.2-0.3-0.4c-1.3-2.1-2-4.3-2.2-6.6C353.7,79.7,354,77.4,354.9,75.1z
				 M359.9,84.3c0,0.3-0.1,0.5-0.2,0.7c-0.2,0.2-0.4,0.3-0.7,0.3c-0.3,0-0.5-0.1-0.7-0.2c-0.2-0.2-0.3-0.4-0.3-0.7s0.1-0.5,0.2-0.7
				c0.2-0.2,0.4-0.3,0.7-0.3c0.3,0,0.5,0.1,0.7,0.2C359.7,83.8,359.9,84.1,359.9,84.3z M362.6,84.1c0,0.3-0.1,0.5-0.2,0.7
				c-0.2,0.2-0.4,0.3-0.7,0.3c-0.3,0-0.5-0.1-0.7-0.2c-0.2-0.2-0.3-0.4-0.3-0.7s0.1-0.5,0.2-0.7c0.2-0.2,0.4-0.3,0.7-0.3
				c0.3,0,0.5,0.1,0.7,0.2C362.5,83.6,362.6,83.8,362.6,84.1z M365.4,83.9c0,0.3-0.1,0.5-0.2,0.7c-0.2,0.2-0.4,0.3-0.7,0.3
				c-0.3,0-0.5-0.1-0.7-0.2s-0.3-0.4-0.3-0.7s0.1-0.5,0.2-0.7c0.2-0.2,0.4-0.3,0.7-0.3c0.3,0,0.5,0.1,0.7,0.2
				C365.3,83.4,365.4,83.6,365.4,83.9z M369.1,80.6c0.1,1.1,0.1,2.3-0.1,3.4c-0.2,1.1-0.5,2.3-0.9,3.4c-0.1,0.2-0.2,0.3-0.3,0.4
				c-0.1,0.1-0.2,0.1-0.4,0.1c-0.2,0-0.4,0-0.5-0.2c-0.1-0.1-0.2-0.3-0.2-0.5c0-0.1,0-0.1,0-0.2s0-0.1,0.1-0.2
				c0.4-1,0.7-2.1,0.9-3.1c0.2-1.1,0.2-2.1,0.1-3.1c-0.2-2-0.8-4-2-5.9c-0.1-0.1-0.1-0.2-0.1-0.4c0-0.1,0-0.2,0-0.3s0.1-0.2,0.1-0.3
				c0.1-0.1,0.1-0.1,0.2-0.2c0.1,0,0.2-0.1,0.3-0.1c0.1,0,0.3,0,0.4,0.1s0.2,0.2,0.3,0.3c0.6,1.1,1.1,2.1,1.5,3.2
				C368.7,78.4,369,79.5,369.1,80.6z"/>
			<path class="st30" d="M331.9,60.9h-4.7c-0.2,0-0.4-0.1-0.5-0.2s-0.2-0.3-0.2-0.5s0.1-0.4,0.2-0.5c0.1-0.1,0.3-0.2,0.5-0.2h4.7
				c0.2,0,0.4,0.1,0.5,0.2c0.1,0.1,0.2,0.3,0.2,0.5c0,0.2-0.1,0.4-0.2,0.5C332.3,60.9,332.1,60.9,331.9,60.9z M331.9,64.1h-4.7
				c-0.2,0-0.4-0.1-0.5-0.2c-0.1-0.1-0.2-0.3-0.2-0.5s0.1-0.4,0.2-0.5c0.1-0.1,0.3-0.2,0.5-0.2h4.7c0.2,0,0.4,0.1,0.5,0.2
				c0.1,0.1,0.2,0.3,0.2,0.5c0,0.2-0.1,0.4-0.2,0.5C332.3,64,332.1,64.1,331.9,64.1z M340,61.2c0.3,0.2,0.4,0.4,0.4,0.6
				c0,0.3-0.1,0.5-0.4,0.6l-5.2,3.1c-0.1,0.1-0.2,0.1-0.4,0.1c-0.2,0-0.4-0.1-0.5-0.2s-0.2-0.3-0.2-0.5c0-0.3,0.1-0.5,0.4-0.6
				l4.2-2.5l-4.2-2.5c-0.2-0.2-0.4-0.4-0.4-0.6c0-0.1,0-0.2,0.1-0.3c0-0.1,0.1-0.2,0.2-0.2c0.1-0.1,0.1-0.1,0.2-0.2
				c0.1,0,0.2-0.1,0.3-0.1c0.1,0,0.3,0,0.4,0.1L340,61.2z"/>
			<path class="st21" d="M404.6,40.1l0.3-0.1l-0.8-2.5c-0.1-0.2,0-0.4,0-0.5c0.1-0.2,0.2-0.3,0.4-0.4c0.2-0.1,0.4,0,0.5,0
				s0.3,0.2,0.4,0.4l0.8,2.5l0.8-0.3c0.2-0.1,0.4,0,0.5,0.1c0.2,0.1,0.3,0.2,0.4,0.4c0.1,0.2,0,0.4,0,0.6c-0.1,0.2-0.2,0.3-0.4,0.4
				l-0.8,0.3l1,3.3c0.3,0.9,0.9,1.2,1.7,0.9c0.2-0.1,0.4,0,0.5,0.1c0.2,0.1,0.3,0.2,0.4,0.4c0.1,0.2,0,0.4,0,0.6
				c-0.1,0.2-0.2,0.3-0.4,0.4c-1.8,0.6-3-0.1-3.6-1.9l-1-3.3l-0.3,0.1c-0.2,0.1-0.4,0-0.5-0.1s-0.3-0.2-0.4-0.4
				c-0.1-0.2,0-0.4,0-0.5C404.3,40.2,404.4,40.1,404.6,40.1z M411.8,42.1c-0.5,0-0.8-0.1-1-0.2l0,0c-0.4-0.2-0.7-0.6-0.9-1
				c-0.1-0.3-0.1-0.7,0-1c0.1-0.3,0.3-0.6,0.5-0.9c0.2-0.3,0.5-0.5,0.8-0.7c0.3-0.2,0.7-0.4,1-0.5c1.1-0.3,2.2-0.2,3.3,0.4
				c0.1,0.1,0.2,0.2,0.3,0.4c0.1,0.2,0,0.4,0,0.6c-0.1,0.2-0.2,0.3-0.4,0.3c-0.1,0-0.3,0-0.4,0s-0.2-0.1-0.4-0.2
				c-0.6-0.3-1.2-0.4-1.9-0.2c-0.6,0.2-1.1,0.6-1.3,1.1c0,0.1-0.1,0.2,0,0.3c0,0.1,0.1,0.2,0.3,0.2l3.4,0c0.5,0,0.8,0.1,1,0.2l0,0
				c0.4,0.2,0.7,0.6,0.9,1c0.1,0.3,0.1,0.7,0,1c-0.1,0.3-0.3,0.6-0.5,0.9c-0.2,0.3-0.5,0.5-0.8,0.7c-0.3,0.2-0.7,0.4-1,0.5
				c-1.1,0.3-2.2,0.2-3.3-0.4c-0.1-0.1-0.2-0.2-0.3-0.4c-0.1-0.2,0-0.4,0-0.6c0.1-0.2,0.2-0.3,0.4-0.3c0.1,0,0.3,0,0.4,0
				c0.1,0.1,0.2,0.1,0.4,0.2c0.6,0.3,1.2,0.4,1.9,0.2c0.6-0.2,1.1-0.6,1.3-1.1c0-0.1,0-0.2,0-0.3c0-0.1-0.1-0.2-0.3-0.2L411.8,42.1z
				 M423.6,40c0.2-0.1,0.4,0,0.6,0s0.3,0.2,0.3,0.4c0.1,0.2,0,0.4-0.1,0.6c-0.5,0.8-1.2,1.4-2.1,1.7c-1,0.3-2,0.2-3-0.3
				c-1-0.5-1.6-1.3-1.9-2.3c-0.3-1-0.2-2,0.3-3c0.5-1,1.3-1.6,2.3-1.9c0.9-0.3,1.8-0.2,2.7,0.1c0.2,0.1,0.3,0.2,0.4,0.4
				c0.1,0.2,0,0.4,0,0.6c-0.1,0.2-0.2,0.3-0.4,0.4c-0.2,0.1-0.3,0-0.5,0c-0.3-0.1-0.6-0.2-0.8-0.2s-0.6,0-0.9,0.1
				c-0.3,0.1-0.6,0.3-0.8,0.5c-0.2,0.2-0.4,0.5-0.6,0.7c-0.1,0.3-0.2,0.6-0.3,0.9c0,0.3,0,0.6,0.1,1c0.1,0.3,0.3,0.6,0.5,0.8
				s0.5,0.4,0.7,0.6c0.3,0.1,0.6,0.2,0.9,0.3c0.3,0,0.6,0,1-0.1c0.3-0.1,0.5-0.2,0.8-0.4c0.2-0.2,0.4-0.4,0.6-0.6
				C423.3,40.1,423.4,40,423.6,40z"/>
			<path class="st22" d="M372.7,64.4c-0.2-0.1-0.3-0.2-0.4-0.4c-0.1-0.2-0.1-0.4,0-0.5c-0.4,0.1-0.8,0.2-1.1,0.2
				c-0.4,0-0.8-0.1-1.1-0.2c-0.5-0.2-0.9-0.4-1.2-0.8s-0.6-0.7-0.8-1.1c-0.2-0.4-0.3-0.9-0.3-1.3c0-0.5,0-1,0.2-1.4l1.2-3.2
				c0.1-0.2,0.2-0.3,0.4-0.4s0.4-0.1,0.6,0c0.2,0.1,0.3,0.2,0.4,0.4c0.1,0.2,0.1,0.4,0,0.6l-1.2,3.2c-0.1,0.3-0.1,0.6-0.1,0.9
				c0,0.3,0.1,0.6,0.2,0.8c0.1,0.3,0.3,0.5,0.5,0.7s0.5,0.3,0.7,0.5c0.3,0.1,0.6,0.1,0.8,0.1c0.3,0,0.6-0.1,0.8-0.2s0.5-0.3,0.7-0.5
				c0.2-0.2,0.3-0.5,0.4-0.7l1.2-3.2c0.1-0.2,0.2-0.3,0.4-0.4s0.4-0.1,0.6,0c0.2,0.1,0.3,0.2,0.4,0.4c0.1,0.2,0.1,0.4,0,0.6
				l-2.2,5.9c-0.1,0.2-0.2,0.3-0.4,0.4S372.9,64.4,372.7,64.4z M378.2,58.9c0.7-0.2,1.5-0.2,2.3,0.1c0.5,0.2,0.9,0.4,1.2,0.7
				c0.3,0.3,0.6,0.7,0.8,1.1c0.2,0.4,0.3,0.9,0.3,1.4c0,0.5,0,1-0.2,1.4l-1.2,3.2c-0.1,0.2-0.2,0.3-0.4,0.4c-0.2,0.1-0.4,0.1-0.6,0
				c-0.2-0.1-0.3-0.2-0.4-0.4c-0.1-0.2-0.1-0.4,0-0.6l1.2-3.2c0.1-0.3,0.1-0.6,0.1-0.8s-0.1-0.6-0.2-0.8c-0.1-0.3-0.3-0.5-0.5-0.7
				c-0.2-0.2-0.5-0.3-0.7-0.5c-0.3-0.1-0.6-0.1-0.8-0.1c-0.3,0-0.6,0.1-0.8,0.2c-0.3,0.1-0.5,0.3-0.7,0.5c-0.2,0.2-0.3,0.5-0.4,0.7
				l-1.2,3.2c-0.1,0.2-0.2,0.3-0.4,0.4c-0.2,0.1-0.4,0.1-0.6,0c-0.2-0.1-0.3-0.2-0.4-0.4c-0.1-0.2-0.1-0.4,0-0.6l2.2-5.9
				c0.1-0.2,0.2-0.3,0.4-0.4s0.4-0.1,0.6,0c0.2,0.1,0.3,0.2,0.4,0.4C378.2,58.5,378.3,58.7,378.2,58.9z M388.5,61.9
				c0.9,0.3,1.5,0.9,2,1.6l1.2-3.3c0.1-0.2,0.2-0.3,0.4-0.4c0.2-0.1,0.4-0.1,0.6,0c0.2,0.1,0.3,0.2,0.4,0.4s0.1,0.4,0,0.6l-2.2,6.1
				c-0.4,1-1,1.7-2,2.2c-1,0.4-2,0.5-3,0.1c-1-0.4-1.7-1-2.2-2c-0.5-1-0.5-2-0.1-3s1-1.7,2-2.2S387.5,61.5,388.5,61.9z M389.5,66.4
				c0.1-0.3,0.2-0.6,0.1-0.9s-0.1-0.6-0.2-0.9c-0.1-0.3-0.3-0.5-0.5-0.8c-0.2-0.2-0.5-0.4-0.8-0.5c-0.3-0.1-0.6-0.2-1-0.1
				s-0.6,0.1-0.9,0.2c-0.3,0.1-0.5,0.3-0.8,0.5c-0.2,0.2-0.4,0.5-0.5,0.8c-0.1,0.3-0.2,0.6-0.1,1c0,0.3,0.1,0.6,0.2,0.9
				s0.3,0.5,0.5,0.8c0.2,0.2,0.5,0.4,0.8,0.5c0.3,0.1,0.6,0.2,1,0.1s0.6-0.1,0.9-0.2c0.3-0.1,0.5-0.3,0.8-0.5
				C389.2,67,389.4,66.7,389.5,66.4z M396.9,70.9c0.2,0.1,0.3,0.2,0.4,0.4s0.1,0.4,0,0.6c-0.1,0.2-0.2,0.3-0.4,0.4
				c-0.9,0.3-1.8,0.3-2.7,0c-1-0.4-1.7-1-2.2-2c-0.5-1-0.5-2-0.1-3s1-1.7,2-2.2c1-0.5,2-0.5,3-0.1c1,0.4,1.7,1,2.2,2
				c0.2,0.5,0.4,1,0.4,1.5s-0.1,1-0.2,1.5c-0.1,0.2-0.2,0.3-0.4,0.4c-0.2,0.1-0.4,0.1-0.6,0l-5.2-1.9c0,0.3,0,0.5,0.1,0.8
				c0.1,0.3,0.2,0.5,0.3,0.7s0.3,0.4,0.5,0.6c0.2,0.2,0.4,0.3,0.7,0.4c0.3,0.1,0.6,0.2,0.8,0.2c0.3,0,0.5,0,0.8-0.1
				C396.5,70.8,396.7,70.8,396.9,70.9z M398,68.7c0-0.3,0-0.5-0.1-0.8s-0.2-0.5-0.3-0.7c-0.1-0.2-0.3-0.4-0.5-0.6
				c-0.2-0.2-0.4-0.3-0.7-0.4c-0.2-0.1-0.5-0.1-0.8-0.1c-0.3,0-0.5,0-0.8,0.1c-0.2,0.1-0.5,0.2-0.7,0.3s-0.4,0.3-0.6,0.5L398,68.7z
				 M406.3,66.4c-1.2-0.4-2-0.1-2.5,1.1l-0.1,0.3l1.3,0.5c0.2,0.1,0.3,0.2,0.4,0.4c0.1,0.2,0.1,0.4,0,0.6c-0.1,0.2-0.2,0.3-0.4,0.4
				c-0.2,0.1-0.4,0.1-0.6,0l-1.3-0.5l-1.8,4.9c0,0.1-0.1,0.2-0.1,0.2c-0.1,0.1-0.1,0.1-0.2,0.2c-0.1,0-0.2,0.1-0.3,0.1
				c-0.1,0-0.2,0-0.3,0s-0.2-0.1-0.2-0.1c-0.1-0.1-0.1-0.1-0.2-0.2S400,74,400,73.9c0-0.1,0-0.2,0-0.3l1.8-4.9l-0.3-0.1
				c-0.2-0.1-0.3-0.2-0.4-0.4s-0.1-0.4,0-0.6c0.1-0.2,0.2-0.3,0.4-0.4c0.2-0.1,0.4-0.1,0.6,0l0.3,0.1l0.1-0.3c0.8-2.1,2.2-2.8,4.3-2
				c0.2,0.1,0.3,0.2,0.4,0.4c0.1,0.2,0.1,0.4,0,0.6c-0.1,0.2-0.2,0.3-0.4,0.4C406.6,66.5,406.4,66.5,406.3,66.4z M409.1,68
				c-0.1,0.2-0.2,0.4-0.4,0.5c-0.2,0.1-0.4,0.1-0.7,0c-0.2-0.1-0.4-0.2-0.5-0.4c-0.1-0.2-0.1-0.4,0-0.7s0.2-0.4,0.4-0.5
				s0.4-0.1,0.7,0c0.2,0.1,0.4,0.2,0.5,0.4C409.2,67.5,409.2,67.7,409.1,68z M404.7,75.3l2.2-5.9c0.1-0.2,0.2-0.3,0.4-0.4
				c0.2-0.1,0.4-0.1,0.6,0c0.2,0.1,0.3,0.2,0.4,0.4c0.1,0.2,0.1,0.4,0,0.6l-2.2,5.9c-0.1,0.2-0.2,0.3-0.4,0.4
				c-0.2,0.1-0.4,0.1-0.6,0c-0.2-0.1-0.3-0.2-0.4-0.4C404.7,75.7,404.7,75.5,404.7,75.3z M411,70.9c0.7-0.2,1.5-0.2,2.3,0.1
				c0.5,0.2,0.9,0.4,1.2,0.7c0.3,0.3,0.6,0.7,0.8,1.1c0.2,0.4,0.3,0.9,0.3,1.4c0,0.5,0,1-0.2,1.4l-1.2,3.2c-0.1,0.2-0.2,0.3-0.4,0.4
				c-0.2,0.1-0.4,0.1-0.6,0c-0.2-0.1-0.3-0.2-0.4-0.4c-0.1-0.2-0.1-0.4,0-0.6l1.2-3.2c0.1-0.3,0.1-0.6,0.1-0.8
				c0-0.3-0.1-0.6-0.2-0.8c-0.1-0.3-0.3-0.5-0.5-0.7c-0.2-0.2-0.5-0.3-0.7-0.5c-0.3-0.1-0.6-0.1-0.8-0.1s-0.6,0.1-0.8,0.2
				s-0.5,0.3-0.7,0.5c-0.2,0.2-0.3,0.5-0.4,0.7l-1.2,3.2c-0.1,0.2-0.2,0.3-0.4,0.4c-0.2,0.1-0.4,0.1-0.6,0c-0.2-0.1-0.3-0.2-0.4-0.4
				c-0.1-0.2-0.1-0.4,0-0.6l2.2-5.9c0.1-0.2,0.2-0.3,0.4-0.4c0.2-0.1,0.4-0.1,0.6,0c0.2,0.1,0.3,0.2,0.4,0.4
				C411.1,70.5,411.1,70.7,411,70.9z M421.4,79.9c0.2,0.1,0.3,0.2,0.4,0.4c0.1,0.2,0.1,0.4,0,0.6c-0.1,0.2-0.2,0.3-0.4,0.4
				c-0.9,0.3-1.8,0.3-2.7,0c-1-0.4-1.7-1-2.2-2s-0.5-2-0.1-3c0.4-1,1-1.7,2-2.2c1-0.5,2-0.5,3-0.1c1,0.4,1.7,1,2.2,2
				c0.2,0.5,0.4,1,0.4,1.5c0,0.5-0.1,1-0.2,1.5c-0.1,0.2-0.2,0.3-0.4,0.4c-0.2,0.1-0.4,0.1-0.6,0l-5.2-1.9c0,0.3,0,0.5,0.1,0.8
				c0.1,0.3,0.2,0.5,0.3,0.7s0.3,0.4,0.5,0.6s0.4,0.3,0.7,0.4c0.3,0.1,0.6,0.2,0.8,0.2c0.3,0,0.5,0,0.8-0.1
				C421,79.8,421.2,79.8,421.4,79.9z M422.5,77.7c0-0.3,0-0.5-0.1-0.8c-0.1-0.3-0.2-0.5-0.3-0.7c-0.1-0.2-0.3-0.4-0.5-0.6
				c-0.2-0.2-0.4-0.3-0.7-0.4s-0.5-0.1-0.8-0.1c-0.3,0-0.5,0-0.8,0.1c-0.2,0.1-0.5,0.2-0.7,0.3s-0.4,0.3-0.6,0.5L422.5,77.7z
				 M429.7,77c0.9,0.3,1.5,0.9,2,1.6l1.2-3.3c0.1-0.2,0.2-0.3,0.4-0.4s0.4-0.1,0.6,0c0.2,0.1,0.3,0.2,0.4,0.4c0.1,0.2,0.1,0.4,0,0.6
				L432,82c-0.4,1-1,1.7-2,2.2c-1,0.4-2,0.5-3,0.1c-1-0.4-1.7-1-2.2-2s-0.5-2-0.1-3c0.4-1,1-1.7,2-2.2
				C427.7,76.6,428.7,76.6,429.7,77z M430.7,81.5c0.1-0.3,0.2-0.6,0.1-0.9c0-0.3-0.1-0.6-0.2-0.9s-0.3-0.5-0.5-0.8
				c-0.2-0.2-0.5-0.4-0.8-0.5c-0.3-0.1-0.6-0.2-1-0.1c-0.3,0-0.6,0.1-0.9,0.2c-0.3,0.1-0.5,0.3-0.8,0.5c-0.2,0.2-0.4,0.5-0.5,0.8
				s-0.2,0.6-0.1,1c0,0.3,0.1,0.6,0.2,0.9c0.1,0.3,0.3,0.5,0.5,0.8s0.5,0.4,0.8,0.5c0.3,0.1,0.6,0.2,1,0.1s0.6-0.1,0.9-0.2
				c0.3-0.1,0.5-0.3,0.8-0.5S430.6,81.8,430.7,81.5z"/>
			<path class="st21" d="M312.2,118c0,0.2,0,0.4-0.1,0.6s-0.3,0.3-0.5,0.4c-0.2,0-0.4,0-0.6-0.1s-0.3-0.3-0.4-0.5
				c0-0.2,0-0.4,0.1-0.6c0.1-0.2,0.3-0.3,0.5-0.4c0.2,0,0.4,0,0.6,0.1C312,117.6,312.1,117.7,312.2,118z M312.4,126.5l-1.3-6.2
				c0-0.2,0-0.4,0.1-0.5c0.1-0.2,0.3-0.3,0.5-0.3c0.2,0,0.4,0,0.5,0.1c0.2,0.1,0.3,0.3,0.3,0.5l1.3,6.2c0,0.2,0,0.4-0.1,0.6
				c-0.1,0.2-0.3,0.3-0.5,0.3c-0.2,0-0.4,0-0.5-0.1C312.5,126.9,312.4,126.7,312.4,126.5z M326,123.7c0,0.2,0,0.4-0.1,0.5
				c-0.1,0.2-0.3,0.3-0.5,0.3c-0.2,0-0.4,0-0.5-0.1c-0.2-0.1-0.3-0.3-0.3-0.5l-0.8-3.9c0-0.2-0.1-0.4-0.3-0.6
				c-0.1-0.2-0.3-0.3-0.5-0.4c-0.2-0.1-0.4-0.2-0.6-0.2c-0.2,0-0.4,0-0.7,0c-0.2,0-0.4,0.1-0.6,0.3c-0.2,0.1-0.3,0.3-0.4,0.5
				c-0.1,0.2-0.2,0.4-0.2,0.6s0,0.4,0,0.7l0.8,3.9c0,0.2,0,0.4-0.1,0.5c-0.1,0.2-0.3,0.3-0.5,0.3c-0.2,0-0.4,0-0.5-0.1
				c-0.2-0.1-0.3-0.3-0.3-0.5l-0.8-3.9c0-0.2-0.1-0.4-0.3-0.6c-0.1-0.2-0.3-0.3-0.5-0.4s-0.4-0.2-0.6-0.2c-0.2,0-0.4,0-0.7,0
				c-0.2,0-0.4,0.1-0.6,0.3c-0.2,0.1-0.3,0.3-0.4,0.5c-0.1,0.2-0.2,0.4-0.2,0.6c0,0.2,0,0.4,0,0.7l0.8,3.9c0,0.2,0,0.4-0.1,0.5
				s-0.3,0.3-0.5,0.3c-0.2,0-0.4,0-0.5-0.1c-0.2-0.1-0.3-0.3-0.3-0.5l-1.3-6.2c0-0.2,0-0.4,0.1-0.5c0.1-0.2,0.3-0.3,0.5-0.3
				c0.2,0,0.3,0,0.4,0c0.1,0.1,0.2,0.2,0.3,0.3c0.4-0.4,0.9-0.7,1.5-0.8c0.5-0.1,0.9-0.1,1.3,0c0.4,0.1,0.8,0.3,1.2,0.6
				c0.5-0.9,1.2-1.4,2.1-1.6c0.4-0.1,0.8-0.1,1.2,0c0.4,0.1,0.8,0.2,1.1,0.4c0.3,0.2,0.6,0.5,0.9,0.8s0.4,0.7,0.5,1.1L326,123.7z
				 M331.2,123.3c-0.9,0.2-1.8,0.1-2.6-0.3l0.7,3.4c0,0.2,0,0.4-0.1,0.5c-0.1,0.2-0.3,0.3-0.5,0.3c-0.2,0-0.4,0-0.5-0.1
				s-0.3-0.3-0.3-0.5l-1.3-6.4c-0.2-1,0-2,0.5-2.9c0.6-0.9,1.4-1.5,2.5-1.7c1-0.2,2,0,2.9,0.5c0.4,0.3,0.8,0.6,1.1,1
				c0.3,0.4,0.5,0.9,0.6,1.4c0.2,1.1,0,2-0.5,2.9c-0.3,0.5-0.7,0.8-1.1,1.1C332.1,123,331.7,123.2,331.2,123.3z M328,120
				c0.1,0.3,0.2,0.6,0.4,0.9c0.2,0.3,0.4,0.5,0.7,0.7s0.5,0.3,0.9,0.4c0.3,0.1,0.6,0.1,1,0c0.3-0.1,0.6-0.2,0.9-0.4
				c0.3-0.2,0.5-0.4,0.6-0.7s0.3-0.6,0.3-0.9c0.1-0.3,0.1-0.6,0-1c-0.1-0.3-0.2-0.6-0.4-0.9c-0.2-0.3-0.4-0.5-0.7-0.6
				s-0.5-0.3-0.9-0.4c-0.3-0.1-0.6-0.1-1,0c-0.3,0.1-0.6,0.2-0.9,0.4c-0.3,0.2-0.5,0.4-0.6,0.7c-0.2,0.3-0.3,0.5-0.3,0.9
				S327.9,119.7,328,120z M342.8,116.9c0.2,1.1,0,2-0.5,2.9c-0.6,0.9-1.4,1.5-2.5,1.7c-1,0.2-2,0-2.9-0.5s-1.5-1.4-1.7-2.5
				c-0.2-1,0-2,0.5-2.9c0.6-0.9,1.4-1.5,2.5-1.7c1-0.2,2,0,2.9,0.5c0.4,0.3,0.8,0.6,1.1,1.1C342.5,115.9,342.7,116.4,342.8,116.9z
				 M338.5,115.3c-0.3,0.1-0.6,0.2-0.9,0.4c-0.3,0.2-0.5,0.4-0.6,0.7c-0.2,0.3-0.3,0.5-0.3,0.9c-0.1,0.3-0.1,0.6,0,1
				c0.1,0.3,0.2,0.6,0.4,0.9s0.4,0.5,0.7,0.7s0.5,0.3,0.9,0.4s0.6,0.1,1,0c0.3-0.1,0.6-0.2,0.9-0.4c0.3-0.2,0.5-0.4,0.6-0.7
				s0.3-0.6,0.3-0.9c0.1-0.3,0.1-0.6,0-1s-0.2-0.6-0.4-0.9c-0.2-0.3-0.4-0.5-0.7-0.6c-0.3-0.2-0.5-0.3-0.9-0.4
				S338.9,115.2,338.5,115.3z M344.7,113.3l0,0.1c0.3-0.3,0.6-0.6,1-0.9c0.4-0.2,0.8-0.4,1.2-0.5c0.2,0,0.4-0.1,0.7-0.1
				c0.2,0,0.5,0,0.7,0c0.2,0,0.4,0.1,0.5,0.2c0.2,0.1,0.2,0.2,0.3,0.4c0,0.1,0,0.2,0,0.3c0,0.1-0.1,0.2-0.1,0.3s-0.1,0.1-0.2,0.2
				c-0.1,0.1-0.2,0.1-0.3,0.1c-0.1,0-0.2,0-0.3,0c-0.3-0.1-0.6,0-1,0c-0.3,0.1-0.6,0.2-0.9,0.4c-0.3,0.2-0.5,0.4-0.6,0.7
				c-0.2,0.3-0.3,0.5-0.3,0.9s-0.1,0.6,0,1l0.7,3.1c0,0.2,0,0.4-0.1,0.5c-0.1,0.2-0.3,0.3-0.5,0.3c-0.2,0-0.4,0-0.5-0.1
				c-0.2-0.1-0.3-0.3-0.3-0.5l-1.3-6.2c0-0.2,0-0.4,0.1-0.5c0.1-0.2,0.3-0.3,0.5-0.3c0.2,0,0.4,0,0.5,0.1
				C344.5,112.9,344.6,113.1,344.7,113.3z M350.3,111.3l0.3-0.1l-0.5-2.6c0-0.2,0-0.4,0.1-0.5c0.1-0.2,0.3-0.3,0.5-0.3
				c0.2,0,0.4,0,0.5,0.1c0.2,0.1,0.3,0.3,0.3,0.5l0.5,2.6l0.8-0.2c0.2,0,0.4,0,0.5,0.1c0.2,0.1,0.3,0.3,0.3,0.5c0,0.2,0,0.4-0.1,0.5
				c-0.1,0.2-0.3,0.3-0.5,0.3l-0.8,0.2l0.7,3.4c0.2,0.9,0.7,1.3,1.6,1.1c0.2,0,0.4,0,0.5,0.1c0.2,0.1,0.3,0.3,0.3,0.5
				c0,0.2,0,0.4-0.1,0.5c-0.1,0.2-0.3,0.3-0.5,0.3c-1.9,0.4-3-0.3-3.4-2.2l-0.7-3.4l-0.3,0.1c-0.2,0-0.4,0-0.5-0.1
				c-0.2-0.1-0.3-0.3-0.3-0.5c0-0.2,0-0.4,0.1-0.5C350,111.5,350.1,111.4,350.3,111.3z"/>
			<path class="st30" d="M374.8,105.3l0,0.1c0.4-0.2,0.8-0.4,1.2-0.5c0.4-0.1,0.9-0.1,1.3-0.1c0.2,0,0.4,0.1,0.6,0.1
				c0.2,0,0.4,0.1,0.6,0.2c0.2,0.1,0.3,0.2,0.5,0.3c0.1,0.1,0.2,0.3,0.1,0.5c0,0.1,0,0.2-0.1,0.3s-0.1,0.2-0.2,0.2
				c-0.1,0.1-0.2,0.1-0.2,0.1s-0.2,0-0.3,0c-0.1,0-0.2,0-0.3-0.1c-0.3-0.1-0.6-0.2-0.9-0.3c-0.3,0-0.7,0-1,0.1
				c-0.3,0.1-0.6,0.2-0.8,0.4c-0.2,0.2-0.4,0.4-0.6,0.7c-0.2,0.3-0.2,0.6-0.3,0.9l-0.3,3.2c0,0.2-0.1,0.4-0.3,0.5
				c-0.2,0.1-0.3,0.2-0.5,0.2c-0.2,0-0.4-0.1-0.5-0.3s-0.2-0.3-0.2-0.5l0.6-6.3c0-0.2,0.1-0.4,0.3-0.5c0.2-0.1,0.3-0.2,0.5-0.2
				c0.2,0,0.4,0.1,0.5,0.3S374.8,105.1,374.8,105.3z M385.5,111.1c0.2,0,0.4,0.1,0.5,0.3c0.1,0.1,0.2,0.3,0.2,0.5
				c0,0.2-0.1,0.4-0.3,0.5c-0.8,0.6-1.6,0.8-2.6,0.7c-1.1-0.1-1.9-0.6-2.6-1.4c-0.7-0.8-1-1.8-0.9-2.8c0.1-1.1,0.6-1.9,1.4-2.6
				c0.8-0.7,1.8-1,2.8-0.9c1.1,0.1,1.9,0.6,2.6,1.4c0.3,0.4,0.6,0.8,0.7,1.3s0.2,1,0.1,1.5c0,0.2-0.1,0.4-0.3,0.5
				c-0.2,0.1-0.3,0.2-0.5,0.2l-5.5-0.5c0.1,0.3,0.1,0.5,0.3,0.7c0.1,0.2,0.3,0.4,0.5,0.6c0.2,0.2,0.4,0.3,0.6,0.4
				c0.2,0.1,0.5,0.2,0.8,0.2c0.3,0,0.6,0,0.8-0.1c0.3-0.1,0.5-0.2,0.7-0.4C385.2,111.1,385.3,111.1,385.5,111.1z M386,108.7
				c-0.1-0.3-0.2-0.5-0.3-0.7c-0.1-0.2-0.3-0.4-0.5-0.6c-0.2-0.2-0.4-0.3-0.6-0.4c-0.2-0.1-0.5-0.2-0.8-0.2c-0.3,0-0.5,0-0.8,0.1
				s-0.5,0.2-0.7,0.3c-0.2,0.1-0.4,0.3-0.6,0.5s-0.3,0.4-0.4,0.7L386,108.7z M394.6,113.3c-0.7,0.5-1.6,0.7-2.5,0.6
				c-1.1-0.1-1.9-0.6-2.6-1.4c-0.7-0.8-1-1.8-0.9-2.8c0.1-1.1,0.6-1.9,1.4-2.6c0.8-0.7,1.8-1,2.8-0.9c1.1,0.1,1.9,0.6,2.6,1.4
				c0.7,0.8,1,1.8,0.9,2.8l-0.6,6.5c0,0.2-0.1,0.4-0.3,0.5c-0.2,0.1-0.3,0.2-0.5,0.2c-0.2,0-0.4-0.1-0.5-0.3
				c-0.1-0.1-0.2-0.3-0.2-0.5L394.6,113.3z M392.7,107.6c-0.3,0-0.7,0-1,0.1c-0.3,0.1-0.6,0.3-0.8,0.5c-0.2,0.2-0.4,0.4-0.6,0.7
				c-0.2,0.3-0.2,0.6-0.3,0.9c0,0.3,0,0.7,0.1,1c0.1,0.3,0.2,0.6,0.4,0.8c0.2,0.2,0.4,0.4,0.7,0.6c0.3,0.2,0.6,0.2,0.9,0.3
				c0.3,0,0.7,0,1-0.1c0.3-0.1,0.6-0.3,0.8-0.5c0.2-0.2,0.4-0.4,0.6-0.7c0.2-0.3,0.2-0.6,0.3-0.9c0-0.3,0-0.6-0.1-1
				s-0.2-0.6-0.4-0.8c-0.2-0.2-0.4-0.4-0.7-0.6C393.3,107.7,393,107.6,392.7,107.6z M403.6,114.9c-0.2,0-0.4-0.1-0.5-0.3
				s-0.2-0.3-0.2-0.5c-0.3,0.2-0.7,0.4-1.1,0.5s-0.8,0.1-1.2,0.1c-0.5,0-0.9-0.2-1.4-0.4c-0.4-0.2-0.8-0.5-1.1-0.9
				c-0.3-0.4-0.5-0.8-0.7-1.2s-0.2-0.9-0.2-1.4l0.3-3.4c0-0.2,0.1-0.4,0.3-0.5c0.2-0.1,0.3-0.2,0.5-0.2c0.2,0,0.4,0.1,0.5,0.3
				c0.1,0.2,0.2,0.3,0.2,0.5l-0.3,3.4c0,0.3,0,0.6,0.1,0.9s0.2,0.5,0.4,0.7c0.2,0.2,0.4,0.4,0.6,0.5c0.3,0.1,0.5,0.2,0.8,0.2
				c0.3,0,0.6,0,0.9-0.1c0.3-0.1,0.5-0.2,0.7-0.4c0.2-0.2,0.4-0.4,0.5-0.6s0.2-0.5,0.2-0.8l0.3-3.4c0-0.2,0.1-0.4,0.3-0.5
				c0.2-0.1,0.3-0.2,0.5-0.2c0.2,0,0.4,0.1,0.5,0.3c0.1,0.2,0.2,0.3,0.2,0.5l-0.6,6.3c0,0.2-0.1,0.4-0.3,0.5
				C404,114.9,403.8,115,403.6,114.9z M408.2,106.2c0,0.2-0.1,0.4-0.3,0.6c-0.2,0.2-0.4,0.2-0.6,0.2c-0.2,0-0.4-0.1-0.6-0.3
				c-0.2-0.2-0.2-0.4-0.2-0.6c0-0.2,0.1-0.4,0.3-0.6c0.2-0.2,0.4-0.2,0.6-0.2c0.2,0,0.4,0.1,0.6,0.3S408.2,105.9,408.2,106.2z
				 M405.8,114.4l0.6-6.3c0-0.2,0.1-0.4,0.3-0.5c0.2-0.1,0.3-0.2,0.5-0.2c0.2,0,0.4,0.1,0.5,0.3c0.1,0.2,0.2,0.3,0.2,0.5l-0.6,6.3
				c0,0.2-0.1,0.4-0.3,0.5c-0.2,0.1-0.3,0.2-0.5,0.2c-0.2,0-0.4-0.1-0.5-0.3C405.9,114.8,405.8,114.6,405.8,114.4z M410.8,108.5
				l0,0.1c0.4-0.2,0.8-0.4,1.2-0.5c0.4-0.1,0.9-0.1,1.3-0.1c0.2,0,0.4,0.1,0.6,0.1c0.2,0,0.4,0.1,0.6,0.2c0.2,0.1,0.3,0.2,0.5,0.3
				c0.1,0.1,0.2,0.3,0.1,0.5c0,0.1,0,0.2-0.1,0.3s-0.1,0.2-0.2,0.2c-0.1,0.1-0.2,0.1-0.2,0.1s-0.2,0-0.3,0c-0.1,0-0.2,0-0.3-0.1
				c-0.3-0.1-0.6-0.2-0.9-0.3c-0.3,0-0.7,0-1,0.1c-0.3,0.1-0.6,0.2-0.8,0.4s-0.4,0.4-0.6,0.7c-0.2,0.3-0.2,0.6-0.3,0.9l-0.3,3.2
				c0,0.2-0.1,0.4-0.3,0.5c-0.2,0.1-0.3,0.2-0.5,0.2c-0.2,0-0.4-0.1-0.5-0.3c-0.1-0.2-0.2-0.3-0.2-0.5l0.6-6.3
				c0-0.2,0.1-0.4,0.3-0.5c0.2-0.1,0.3-0.2,0.5-0.2c0.2,0,0.4,0.1,0.5,0.3C410.7,108.1,410.8,108.3,410.8,108.5z M421.4,114.4
				c0.2,0,0.4,0.1,0.5,0.3c0.1,0.1,0.2,0.3,0.2,0.5c0,0.2-0.1,0.4-0.3,0.5c-0.8,0.6-1.6,0.8-2.6,0.7c-1.1-0.1-1.9-0.6-2.6-1.4
				c-0.7-0.8-1-1.8-0.9-2.8c0.1-1.1,0.6-1.9,1.4-2.6c0.8-0.7,1.8-1,2.8-0.9c1.1,0.1,1.9,0.6,2.6,1.4c0.3,0.4,0.6,0.8,0.7,1.3
				s0.2,1,0.1,1.5c0,0.2-0.1,0.4-0.3,0.5c-0.2,0.1-0.3,0.2-0.5,0.2l-5.5-0.5c0.1,0.3,0.1,0.5,0.3,0.7s0.3,0.4,0.5,0.6
				c0.2,0.2,0.4,0.3,0.6,0.4s0.5,0.2,0.8,0.2c0.3,0,0.6,0,0.8-0.1c0.3-0.1,0.5-0.2,0.7-0.4C421.1,114.4,421.2,114.3,421.4,114.4z
				 M422,112c-0.1-0.3-0.2-0.5-0.3-0.7s-0.3-0.4-0.5-0.6c-0.2-0.2-0.4-0.3-0.6-0.4s-0.5-0.2-0.8-0.2c-0.3,0-0.5,0-0.8,0.1
				c-0.3,0.1-0.5,0.2-0.7,0.3c-0.2,0.1-0.4,0.3-0.6,0.5c-0.2,0.2-0.3,0.4-0.4,0.7L422,112z"/>
		</g>
	</g>
</g>
</svg>
