<?xml version="1.0" encoding="utf-8"?>
<!-- Generator: Adobe Illustrator 26.0.3, SVG Export Plug-In . SVG Version: 6.00 Build 0)  -->
<!DOCTYPE svg PUBLIC "-//W3C//DTD SVG 1.1//EN" "http://www.w3.org/Graphics/SVG/1.1/DTD/svg11.dtd" [
	<!ENTITY ns_extend "http://ns.adobe.com/Extensibility/1.0/">
	<!ENTITY ns_ai "http://ns.adobe.com/AdobeIllustrator/10.0/">
	<!ENTITY ns_graphs "http://ns.adobe.com/Graphs/1.0/">
	<!ENTITY ns_vars "http://ns.adobe.com/Variables/1.0/">
	<!ENTITY ns_imrep "http://ns.adobe.com/ImageReplacement/1.0/">
	<!ENTITY ns_sfw "http://ns.adobe.com/SaveForWeb/1.0/">
	<!ENTITY ns_custom "http://ns.adobe.com/GenericCustomNamespace/1.0/">
	<!ENTITY ns_adobe_xpath "http://ns.adobe.com/XPath/1.0/">
]>
<svg version="1.1" id="Слой_1" xmlns:x="&ns_extend;" xmlns:i="&ns_ai;" xmlns:graph="&ns_graphs;"
	 xmlns="http://www.w3.org/2000/svg" xmlns:xlink="http://www.w3.org/1999/xlink" x="0px" y="0px" width="631.1px" height="392.1px"
	 viewBox="0 0 631.1 392.1" style="enable-background:new 0 0 631.1 392.1;" xml:space="preserve">
<style type="text/css">
	.st0{fill:#FFFFFF;}
	.st1{fill:#CAA77A;}
	.st2{fill:#FFDB1F;}
	.st3{fill:#B6B1AE;}
	.st4{opacity:0.23;fill:#3F2719;}
	.st5{fill:none;stroke:#9D7B51;stroke-width:4.1072;stroke-linecap:round;stroke-linejoin:round;stroke-miterlimit:10;}
	.st6{fill:none;stroke:#2D1F04;stroke-width:2.7806;stroke-linecap:round;stroke-linejoin:round;stroke-miterlimit:10;}
	.st7{fill:#2D1F04;}
	.st8{fill:#D2D2D2;}
	.st9{opacity:0.32;fill:#FFFFFF;}
	.st10{fill:#FFDBAF;}
	.st11{fill:#9D7B51;}
	.st12{fill:#251707;}
	.st13{fill:none;stroke:#2D1F04;stroke-width:3.2369;stroke-linecap:round;stroke-linejoin:round;stroke-miterlimit:10;}
	.st14{fill:none;stroke:#2D1F04;stroke-width:8.0658;stroke-linecap:round;stroke-linejoin:round;stroke-miterlimit:10;}
	.st15{opacity:0.34;fill:#FFFFFF;}
	.st16{fill:url(#SVGID_1_);}
	.st17{fill:url(#SVGID_00000070117684662903236770000011381077088626733725_);}
	.st18{fill:url(#SVGID_00000164499089786387515700000013708323790795514514_);}
	.st19{fill:url(#SVGID_00000023255340354425357620000004366099163437519776_);}
	.st20{fill:none;stroke:#251707;stroke-width:2.7806;stroke-linecap:round;stroke-linejoin:round;stroke-miterlimit:10;}
	.st21{fill:none;stroke:#2D1F04;stroke-width:2.6;stroke-linecap:round;stroke-linejoin:round;stroke-miterlimit:10;}
	.st22{fill:#3399CC;}
	.st23{fill:#D3E5EA;}
	.st24{fill:none;stroke:#2D1F04;stroke-width:2.62;stroke-linecap:round;stroke-linejoin:round;stroke-miterlimit:10;}
</style>
<metadata>
	<sfw  xmlns="&ns_sfw;">
		<slices></slices>
		<sliceSourceBounds  bottomLeftOrigin="true" height="392.1" width="631.1" x="-85.4" y="127.7"></sliceSourceBounds>
	</sfw>
</metadata>
<g>
	<path class="st0" d="M377.2,392.1c-7.9,0-17-0.4-26.8-0.7l-8.6-0.3c-14.8-0.5-21.6-0.9-25.7-1.3c-2.8-0.3-6.5-0.6-9.6-2.7
		c-3.7,0.6-7.6,0.9-11.4,1l-0.8,0c-1.8,0.1-3.8,0.1-5.8,0.2c-4.5,0.2-9,0.3-13.1,0.4c-8.6,0.1-22.2,0.7-32.1,1.1
		c-7.7,0.3-11.4,0.5-12.9,0.5c-7.1,0-11.7-2.7-13.7-7.9c-3.2-8.2,3.5-14.3,6-16.6c0,0,0.9-0.7,2.3-1.8c-2.5-2.3-5.3-5.2-8.7-8.7
		c-4.2-4.4-8.2-9.9-11.9-16.3c0.4,1.6,0.8,3.1,1.3,4.6c0.1,0.4,0.5,1.3,0.8,2c2.3,5.6,5.7,13.9,1.8,21.6c-2.1,4.1-5.9,6.9-10.6,8
		c-3.8,0.9-9,1.3-16.9,1.3c-7.2,0-15.7-0.3-24.6-0.7l-7.8-0.3c-13.6-0.5-19.8-0.8-23.6-1.2c-2.5-0.2-5.9-0.6-8.9-2.4
		c-3.8,0.6-7.5,0.7-10.1,0.8l-0.7,0c-1.6,0.1-3.3,0.1-5.1,0.2c-4.1,0.2-8.4,0.3-12.2,0.4c-7.9,0.1-20.3,0.7-29.3,1
		c-7,0.3-10.4,0.4-11.8,0.4c-9.5,0-12.6-5.3-13.7-8.6c-0.3-0.8-0.4-1.7-0.5-2.6c-0.6-6.5,4-10.7,6.5-13c0,0,0.5-0.4,1.3-1
		c-2.1-2-4.4-4.4-7.2-7.3c-11.4-12-20.9-31.3-26.4-55c-1.3-5.6-2.3-10.4-2.7-13.1c-2.8-16.7-3.5-32.7-1.8-45.9c0,0-0.1-0.1-0.1-0.1
		c-1.7-2.4-2.4-5.2-2-8.1c3.8-29.7,16.6-48.1,30.1-55.6c-0.9-2.5-0.9-4.8-0.8-6.4c-0.2-0.4-0.5-0.9-0.7-1.3c-0.3-0.5-0.5-1-0.7-1.4
		c-4.4-8.8-7.8-17.4-10-25.6C7,122.3,0,109.8,0,96.3c0-9.7,3.6-19,9.9-26.2c5.5-6.3,12.1-9.4,12.1-9.4c-0.9-3-0.5-6.4,1.2-9.2
		c1.6-2.5,3.5-4.6,5.6-6.1c0.4-2.8,1.8-5.4,4.1-7.2c5.7-4.6,12.8-7.1,20.7-7.1c2,0,4.1,0.2,6.2,0.5c6.7-7.9,15.6-12,26-12
		c3.4,0,6.5,1.5,8.7,4c0.9,1.1,1.6,2.4,2.1,3.7c2.1-0.4,4.4-0.5,7-0.5c4.7,0,8.8,2.8,10.6,7.2c0.3,0.9,0.6,1.7,0.7,2.6
		c4.3,1.6,9,3.7,11.6,4.9c0.1,0,0.1,0.1,0.2,0.1c23.4,11.5,40.9,28.6,52,50.7c8.3,16.5,12.9,35.8,13.8,57.4
		c8.2,1.9,14.9,5.2,20.5,10.1c-0.6-2.2-0.5-4.2-0.3-5.5c-0.2-0.5-0.6-1.2-0.9-1.7c-0.3-0.5-0.6-1-0.8-1.6
		c-10.5-20.9-15.3-40.3-14.5-57.8c-1-0.9-1.9-1.9-2.6-3c-4.2-6.5-2.4-15.2,4.1-19.4c1.4-0.9,2.7-1.7,4.1-2.5
		c1.2-2.9,2.6-5.6,4.2-8.3c1.2-2,2.4-3.8,3.7-5.6c-1.6-3.3-1.9-7.1-0.9-10.8c-0.2-0.7-0.4-1.3-0.6-2c-1.9-8.2,1.9-16.4,9.9-21.4
		c1.7-1.1,3.6-1.6,5.7-1.7c3.1-4.9,8.3-9.1,15.6-10.4c0.6-0.1,1.3-0.2,2-0.2c1.5,0,2.9,0.3,4.2,0.8c0.9-1,1.9-1.9,3-2.8
		C253.9,2,259.9,0,266.5,0c8,0,14.2,3,14.5,3.2c3.6,1.8,5.9,5.2,6.3,9.1c0,0,0,0.1,0,0.1c1,0.5,1.9,1.2,2.7,2
		c0.8,0.8,2.2,2.6,2.9,5.2c2.3,0.8,4.7,1.6,7.1,2.4c5.7,1.9,11.6,3.8,17.5,6.6c57.2,26.8,69.7,81.9,71.3,117.6
		c13.2,2.8,23.1,9.1,30.6,19.8c0.9-0.6,1.8-1.2,2.8-1.7c-0.9-2.5-0.9-4.8-0.8-6.4c-0.2-0.4-0.5-0.9-0.7-1.3c-0.3-0.5-0.5-1-0.7-1.4
		c-8.8-17.5-13.3-34-13.5-49c-1-1.6-1.7-3.5-2-5.5c-0.5-3.7,0.4-7.4,2.7-10.4c0.4-0.5,0.8-1.1,1.2-1.6c1.5-6.3,4-12.3,7.2-17.8
		c0.5-0.9,1-1.7,1.6-2.5c-0.3-1-0.5-2-0.5-3c-0.2-0.2-0.4-0.5-0.6-0.7c-3.1-3.8-3.5-9.1-0.9-13.2c1.6-2.5,3.5-4.5,5.6-6.1
		c0.4-2.8,1.8-5.4,4.1-7.2c5.3-4.4,11.9-6.8,19.2-7.1c0.7-1.6,1.6-3,2.7-4.3c2-2.4,5-3.8,8.2-4c0,0,0.4,0,0.5,0c3,0,5.9,1.2,8,3.3
		c1.8,1.8,4.4,3.2,7.6,4.2c1.6-1.6,3.6-2.7,5.8-3.1c0.7-0.1,1.5-0.2,2.2-0.2c2.6,0,5.1,0.9,7.2,2.5c1.9,1,8.4,3.2,12.8,4.6l0.2,0.1
		c1.9,0.6,3.8,1.2,5.8,1.9c4.8,1.6,10.5,4.2,13.4,5.6c0.1,0,0.1,0.1,0.2,0.1c23.4,11.5,40.9,28.6,52,50.7
		c8.3,16.5,12.9,35.8,13.8,57.4c26.9,6.2,36.8,28.4,43.7,62c0.1,0.2,0.2,0.5,0.3,0.9c1,3,2.8,9-0.2,14.5c0.5,2.1,0.8,4.1,1.1,5.6
		l0,0.1c4.8,26.7-0.8,46.3-3.5,53.4c-2.8,7.6-10.2,16.8-29.2,19.3c-3.4,12-2.3,27.7,1.1,37.9c0.1,0.4,0.5,1.3,0.8,2
		c2.3,5.6,5.7,13.9,1.8,21.6c-2.1,4.1-5.9,6.9-10.6,8c-3.8,0.9-9,1.3-16.9,1.3c-7.2,0-15.7-0.3-24.6-0.7l-7.8-0.3
		c-13.6-0.5-19.8-0.8-23.6-1.2c-2.5-0.2-5.9-0.6-8.9-2.4c-3.8,0.6-7.5,0.7-10.1,0.8l-0.7,0c-1.6,0.1-3.3,0.1-5.1,0.2
		c-4.1,0.2-8.4,0.3-12.2,0.4c-7.9,0.1-20.3,0.7-29.3,1c-7,0.3-10.4,0.4-11.8,0.4c-9.5,0-12.6-5.3-13.7-8.6c-0.3-0.8-0.4-1.7-0.5-2.6
		c-0.6-6.5,4-10.7,6.5-13c0,0,0.5-0.4,1.3-1c-2.1-2-4.4-4.4-7.2-7.3c-6.7-7-12.7-16.6-17.6-28.2c-1.7,0.3-3.5,0.6-5.4,0.8
		c-0.1,0.1-0.1,0.3-0.2,0.4c-4.6,13.7-2.1,31.2,1.5,42.3c0.1,0.4,0.6,1.4,0.9,2.3c2.4,5.9,6.1,14.8,2,22.7c-2.1,4.2-6,7.1-10.9,8.2
		C391.3,391.7,385.7,392.1,377.2,392.1z"/>
	<g>
		<path class="st1" d="M193.8,346.8c1.4,4.4,7.7,15.3,0.3,17.1c-7.4,1.7-26.1,0.8-44.2,0.1c-15.5-0.6-29.6-1-29-2.1
			c4.3-5.4,11.3-11.7,29.4-14.9c-6.3-2.2-10.7-7.4-12.9-13.8c-7.6,2-15.7,2.8-24,2.8c0,0.2,0,0.3,0.1,0.5c0,0.2,0,0.4,0.1,0.5
			c0,0.2,0.1,0.4,0.1,0.6s0.1,0.4,0.1,0.6c0,0.2,0.1,0.4,0.1,0.6c0.1,0.4,0.2,0.8,0.3,1.2c0.1,0.2,0.1,0.4,0.2,0.6
			c0.2,0.6,0.3,1.2,0.5,1.8c0.2,0.5,0.3,1.1,0.5,1.6c1.2,3.8,2.9,8,4.3,11.4c0.1,0.3,0.2,0.6,0.2,0.9c0,0.1,0,0.2,0,0.2
			c0,0.1,0,0.2,0,0.3c-0.8,4-13.3,4.1-16.2,4.2c-5.3,0.2-11.8,0.5-17.1,0.6c-13.1,0.2-37.9,1.5-40.9,1.5c-1.5,0-2.7-0.1-2.8-0.6
			c0,0,0-0.1,0-0.1c-0.1-0.6,0.7-1.7,2.9-3.6c1.1-1,16.4-12.8,29.2-12.4h0.1c-1.9-1.9-3.8-4.9-5.3-8.4c-0.1-0.2-0.2-0.5-0.3-0.7
			c-0.2-0.5-0.4-1-0.6-1.5c-1.2-3-2.1-6.3-2.5-9.3c-0.5-0.2-1-0.4-1.5-0.7c-6.6-2.9-13.7-6-19.1-10.8c-5.1-4.5-6.3-7.5-7.1-7.9
			c-0.2-0.1-0.1,3.3-0.2,3.3c-2.3,0.8-5.8-12.3-6.7-13.8c-0.7-1.2-2.4,3.5-2.4,3.5s-4-7.9-3.9-15.3v0c-2.7-1-5.2-2.2-7.6-3.4
			c-0.6-0.3-1.2-0.7-1.8-1c-0.3-1.1-0.5-2.2-0.7-3.2c-0.2-1-0.3-2.1-0.3-3.1c-0.6-10.2,3.1-21.5,6.6-30.5c0.2-0.7,0.5-1.3,0.8-1.9
			c0.1-0.3,0.3-0.7,0.4-1c0.7-1.7,1.6-3.6,2.4-5.6c0.2-0.4,0.4-0.8,0.6-1.2l0,0v0c0.2-0.4,0.4-0.9,0.6-1.3c0.1-0.2,0.2-0.3,0.2-0.5
			c0.1-0.3,0.3-0.6,0.4-0.8c0.4-0.9,0.9-1.7,1.3-2.5c0.4-0.8,0.8-1.5,1.2-2.2c0,0,0,0,0,0c-0.1-0.2-0.2-0.3-0.2-0.5c0,0,0,0,0-0.1
			c-0.9-2-1.4-4-1.5-6.1c0-0.2,0-0.3,0-0.5c0-0.9,0-1.8,0-2.6c0.1-1.6,0.4-3.2,0.8-4.8c1.7-6.9,5.5-13.7,8.2-18.9
			c0.7-1.3,2.3-4.1,2.5-5.3v0c0,0,0,0,0,0v-0.1c0,0,0,0,0,0c0-0.8-1-1.9-1.2-3.2c0-0.1,0-0.1,0-0.2c0-0.4,0-0.9,0.2-1.3
			c0.3-0.6,1.1-2,1.9-3c0.2-0.3,0.4-0.6,0.7-0.8c0.1-0.1,0.2-0.2,0.2-0.2c0.2-0.2,0.4-0.3,0.5-0.3c0.1,0,0.2,0,0.2,0.2
			c0,0,0,0,0,0.1c0,0,0,0,0,0.1c0,0.2,0,0.3-0.1,0.4c0,0,0,0,0,0c0,0,0-0.1,0-0.1h0c0,0,0-0.1,0-0.1v0c0-0.1,0-0.1,0-0.2
			c0.1-1.2,0.3-4.4,0.4-7.1c0.1-2.5,0-4.8-0.2-4.8c-0.8-0.2-1.3,1.5-1.5,1.7c-0.6,0.6,0.3-1.5,0.4-2.3c0.2-2,0.5-4.4,0.2-6.5
			c-0.1-0.5-1,1-1.2,0.6c-0.5-1,0.2-2.9,0-4c-0.3-2.2-1.7-4.5-2.7-6.5c-11.2-22.4-18.6-49.8-4.7-73.4c3.1-5.3,6.9-9.4,11.8-12.6
			c-2.6-0.3-6.1-0.5-9.1,0.9c2.7-4.8,4.9-5.9,8.3-6.7c0.1-0.5-6.3-2.8-11.6-0.8c4.7-7.7,17.5-6.6,17.5-8.4c0-2.1-5.8-2.8-10.3-2.1
			c6.9-5.6,16.6-5.6,24.4-2.3c5.2-9.5,12.4-14.3,21.2-13.7c-0.4,4.1-1.1,9.1,3.8,12.2c4.8-3.8,7.3-5.2,14-5c-4,3.1-4.4,5.2,5.8,8.6
			c3.8,1.3,8.8,3.5,12.2,5.1c44.9,22.1,59.5,64.3,59.6,108.5c0.1,21.4,26.3,97.3,15.4,134.6C188.2,309.6,189,332,193.8,346.8z"/>
		<path class="st1" d="M41.6,335.7c-3.4-4-7-8-11.3-15.4c-14.9-25.2-21.6-72.7-17-96.1c4.2,3,10.8,4.3,17.5,4.8
			c-0.3,9,1.4,13.8,2.8,15.4c0.9,18.3,3.1,28.1,5.5,34.6c2.2,5.5,5,11.2,8.3,16.9c-1.4,14.7-1,21,4.3,34.4
			C59.8,350.8,54.3,350.8,41.6,335.7z"/>
		<path class="st2" d="M42,171.7c0,2.2-0.1,4.9-0.2,7.6c-0.5,7.1-4,14.1-5.8,20.5c-3.5,12.5-4.9,22.1-5.1,29.1
			c-6.8-0.4-13.3-1.8-17.5-4.8c-1.2-0.8-2.2-1.8-3-2.9C14.9,186.3,32.1,172.5,42,171.7z"/>
		<g>
			<path class="st3" d="M170,364.7c-2.6-0.1-5.3-0.1-7.9-0.2c-1.2,0-2.5-0.1-3.7-0.1c-2.9-0.1-5.7-0.2-8.5-0.3c-0.4,0-0.8,0-1.3,0
				c-0.3,0-0.6,0-0.9,0c-1.5-0.1-2.9-0.1-4.4-0.2c-0.3,0-0.7,0-1,0c-2.6-0.1-5.1-0.2-7.4-0.3c-0.3,0-0.7,0-1,0c-0.4,0-0.8,0-1.1-0.1
				c-0.5,0-0.9,0-1.4-0.1c-0.4,0-0.9,0-1.3-0.1c-0.5,0-1-0.1-1.4-0.1c-0.5,0-1-0.1-1.4-0.1c-0.9-0.1-1.7-0.1-2.5-0.2
				c-0.4,0-0.7-0.1-1-0.1c0,0-0.1,0-0.1,0c-0.3,0-0.5-0.1-0.8-0.1c-0.2,0-0.4,0-0.5-0.1c-0.1,0-0.2,0-0.2,0
				c-0.4-0.1-0.7-0.1-0.9-0.2c-0.1,0-0.1,0-0.2-0.1c-0.1,0-0.1,0-0.1-0.1c0,0-0.1-0.1-0.1-0.1c0,0,0-0.1,0-0.1
				c0.6-0.8,1.3-1.5,2-2.3c0.2-0.3,0.5-0.5,0.8-0.8c0.3-0.3,0.5-0.5,0.8-0.8c0.3-0.3,0.6-0.5,0.9-0.8c2-1.7,4.6-3.5,7.8-5.1
				c0.6-0.3,1.2-0.6,1.8-0.8c0.1,0,0.1,0,0.2-0.1c0.3-0.1,0.6-0.3,0.9-0.4c0.4-0.2,0.9-0.3,1.3-0.5c0.4-0.1,0.8-0.3,1.2-0.4
				c0.3-0.1,0.6-0.2,0.9-0.3c0.3-0.1,0.7-0.2,1-0.3c0.2-0.1,0.4-0.1,0.7-0.2c0.3-0.1,0.6-0.2,0.9-0.3c0.3-0.1,0.6-0.2,0.9-0.2
				c1-0.3,2-0.5,3-0.7c0.5-0.1,1.1-0.2,1.6-0.3c0.8-0.2,1.7-0.3,2.5-0.5C158.1,350.1,166.2,355.8,170,364.7z"/>
			<path class="st3" d="M88.6,361.6c-0.7,0-1.4,0-2.1,0c-13.1,0.2-37.9,1.5-40.9,1.5c-1.3,0-2.2,0-2.7-0.4c-0.5-0.4-0.2-1.2,1.4-2.7
				c0.1-0.1,0.2-0.2,0.3-0.3c0.1-0.1,0.2-0.2,0.3-0.3c0.2-0.2,0.5-0.4,0.7-0.7c1.1-1,16.4-12.8,29.3-12.4h0
				C80.2,349.9,85.7,355.1,88.6,361.6z"/>
		</g>
		<g>
			<path class="st4" d="M119.9,356.6c0,0.1,0,0.2,0,0.3c0,0.2-0.1,0.3-0.1,0.4c0,0.1-0.1,0.2-0.2,0.4c-0.1,0.2-0.3,0.4-0.6,0.6
				c-0.2,0.2-0.5,0.4-0.8,0.5c-0.1,0.1-0.3,0.2-0.5,0.2c-0.5,0.2-1,0.4-1.6,0.6c-1.2,0.4-2.6,0.7-4,0.9c-0.2,0-0.5,0.1-0.7,0.1
				c-0.2,0-0.5,0.1-0.7,0.1c-0.2,0-0.5,0-0.7,0.1c-1.6,0.2-3.2,0.2-4.4,0.3c-0.2,0-0.3,0-0.5,0c-0.1,0-0.2,0-0.3,0
				c-0.1,0-0.2,0-0.4,0c-0.4,0-0.7,0-0.9,0c-0.3,0-0.6,0-0.9,0s-0.6,0-0.9,0c-0.8,0-1.6,0.1-2.4,0.1c-0.6,0-1.3,0-1.9,0.1
				c-0.5,0-0.9,0-1.4,0c-1.1,0-2.1,0.1-3.2,0.1c-1.5,0-3,0.1-4.4,0.1c-0.7,0-1.4,0-2.1,0c-13.1,0.2-37.9,1.5-40.9,1.5
				c-0.2,0-0.4,0-0.6,0c-0.1,0-0.3,0-0.4,0c-0.1,0-0.1,0-0.2,0c-0.1,0-0.1,0-0.2,0c-0.2,0-0.3,0-0.5-0.1c0,0-0.1,0-0.1,0
				c-0.1,0-0.2,0-0.2,0c0,0,0,0-0.1,0c0,0-0.1,0-0.1,0c0,0-0.1,0-0.1-0.1c-0.1,0-0.1,0-0.1-0.1c0,0-0.1-0.1-0.1-0.1
				c-0.1-0.1-0.1-0.2-0.1-0.3c0,0,0-0.1,0-0.1s0-0.1,0-0.1s0-0.1,0-0.1c0-0.1,0.1-0.2,0.1-0.3c0,0,0,0,0-0.1c0,0,0-0.1,0.1-0.1
				c0-0.1,0.1-0.1,0.1-0.2s0.1-0.2,0.2-0.3c0,0,0-0.1,0.1-0.1c0.1-0.1,0.2-0.3,0.4-0.5c0.1-0.1,0.1-0.2,0.2-0.3
				c0.1-0.1,0.2-0.2,0.3-0.3c0.1-0.1,0.2-0.2,0.3-0.3c0.1-0.1,0.2-0.2,0.3-0.3c0.2-0.2,0.5-0.4,0.7-0.7h0l0,0h0c0,0,0,0,0.1-0.1
				c0,0,0.1-0.1,0.1-0.1h0c0,0,0.1,0,0.1-0.1c0.2-0.2,0.5-0.4,0.9-0.7c0,0,0,0,0,0c0,0,0.1,0,0.1-0.1c0,0,0.1,0,0.1-0.1
				c2.1-1.5,6.2-4.4,11.1-6.8c0.1-0.1,0.3-0.1,0.4-0.2c1-0.5,2-0.9,3-1.3c0.1-0.1,0.3-0.1,0.4-0.2c0.1,0,0.1,0,0.1-0.1c0,0,0,0,0,0
				c0.6-0.2,1.2-0.5,1.8-0.7c0,0,0,0,0,0c0.9-0.3,1.7-0.6,2.6-0.8c0.3-0.1,0.5-0.2,0.8-0.2c0.8-0.2,1.6-0.4,2.4-0.5
				c0.1,0,0.1,0,0.2,0c0,0,0,0,0,0c0,0,0,0,0.1,0c0.2,0,0.4-0.1,0.6-0.1c0.1,0,0.2,0,0.3,0c0,0,0.1,0,0.2,0s0.1,0,0.1,0
				c0.2,0,0.4,0,0.6-0.1c0.1,0,0.2,0,0.3,0c0.3,0,0.6,0,1-0.1c0.4,0,0.7,0,1.1,0c0.2,0,0.5,0,0.7,0c0,0-0.1,0-0.1-0.1l-0.3-0.3
				c-0.6-0.6-1.1-1.3-1.7-2.1c-1.3-1.8-2.5-4.1-3.5-6.6c-0.2-0.5-0.4-1-0.6-1.5c-1.2-3-2-6.3-2.5-9.3c13.6,5.7,30.6,9.4,47.1,9.5h0
				c0,0.2,0,0.3,0.1,0.5c0,0.2,0,0.4,0.1,0.6c0,0.2,0.1,0.4,0.1,0.6s0.1,0.4,0.1,0.6c0,0.2,0.1,0.4,0.1,0.6c0.1,0.4,0.2,0.8,0.3,1.2
				c0.1,0.2,0.1,0.4,0.2,0.6c0.9,3.3,2.2,7,3.6,10.5c0.4,1.1,0.8,2.2,1.3,3.2c0,0,0,0,0,0c0.2,0.4,0.3,0.9,0.5,1.2
				C119.8,355.9,119.9,356.3,119.9,356.6z"/>
			<path class="st4" d="M197,362c-0.2,0.3-0.4,0.5-0.6,0.7c-0.5,0.5-1.3,0.9-2.3,1.1c-4.7,1.1-12.3,1.1-24.1,0.8c-0.2,0-0.3,0-0.5,0
				c-1.1,0-2.2-0.1-3.3-0.1c-2.2-0.1-4.4-0.1-6.6-0.2c-0.5,0-1.1,0-1.6-0.1c-0.6,0-1.2,0-1.8-0.1c-0.8,0-1.5-0.1-2.3-0.1
				c-1.3,0-2.7-0.1-4-0.1h0c-1,0-2-0.1-3-0.1c-0.4,0-0.8,0-1.2,0c0,0,0,0,0,0c0,0-0.1,0-0.1,0c-0.2,0-0.4,0-0.6,0c0,0,0,0,0,0
				c-0.5,0-0.9,0-1.4,0c-1.4,0-2.8-0.1-4.1-0.2c-0.3,0-0.6,0-0.9,0c-0.1,0-0.2,0-0.3,0c-0.2,0-0.4,0-0.6,0c-0.6,0-1.2,0-1.8-0.1
				c-0.3,0-0.5,0-0.8,0c-0.3,0-0.6,0-0.9,0c-1,0-2-0.1-2.9-0.1c-0.2,0-0.4,0-0.5,0c-0.2,0-0.3,0-0.4,0c-0.1,0-7.9-0.7-8-0.7
				c12-4.7,32.8-6.1,42.7-5.5h0.1c4.4,0.3,7.9,0.7,9.8,0.8c6.7,0.2,9.1-1.3,6.3-10.7c-2.7-9-11.1-25.6-5.7-53.4
				c5.7,0.8,14.9,1.1,20.1,1.1c-7.5,15.7-6.1,38.6-1.7,52.1C195,350.4,199.3,358.2,197,362z"/>
		</g>
		<g>
			<line class="st5" x1="53.1" y1="169.6" x2="53" y2="175.5"/>
			<line class="st5" x1="59.4" y1="172.6" x2="59.4" y2="178.5"/>
		</g>
		<path class="st2" d="M195.5,294.6c-16.4,3.3-52,3.4-76.3,3.2c-8.4,0.1-16.7,0-24.6-0.3c-16.8-0.6-34.5-3.3-50.1-7
			c-4.1-1-8.1-2-11.8-3.2c-2.6-0.8-5-1.6-7.3-2.4c0,0,0,0,0,0v0h0c-2.7-1-5.2-2.2-7.5-3.4c-0.6-0.3-3.7-1.4-3.8-2.3
			c-0.2-1.2,1.6-16.4,3-22c0,0,0,0,0,0c0.6-2.4,1.4-4.8,2.1-7.1c0.8-2.3,1.6-4.5,2.4-6.6c0.2-0.7,0.5-1.3,0.8-1.9
			c0.1-0.3,0.3-0.7,0.4-1c0.7-1.7,1.6-3.7,2.4-5.6c0.2-0.4,0.4-0.8,0.6-1.2l0,0v0c0.2-0.4,0.4-0.9,0.6-1.3c0.1-0.2,0.2-0.4,0.2-0.5
			c0.2-0.3,0.3-0.6,0.4-0.8c0.1-0.2,0.2-0.4,0.3-0.6c0.3-0.6,0.6-1.2,1-1.8c0,0,0,0,0,0c0.4-0.8,0.8-1.5,1.2-2.2c0,0,0,0,0,0
			c0,0,0,0,0,0c-0.1-0.2-0.2-0.3-0.2-0.5c0,0,0,0,0-0.1c-0.9-1.9-1.4-4-1.5-6.1c0-0.2,0-0.3,0-0.5c0-0.6,0-1.2,0-1.8v-0.1
			c0-0.2,0-0.5,0.1-0.7c0.1-1.6,0.4-3.2,0.8-4.8c0.3-1.3,0.7-2.6,1.1-3.9c1.9-5.5,4.8-10.8,7-15.1c0.1-0.2,0.2-0.3,0.3-0.6
			c0.1-0.2,0.2-0.4,0.3-0.6c0,0,0,0,0,0c0.1-0.2,0.2-0.5,0.4-0.7c0.1-0.2,0.3-0.5,0.4-0.8c0.3-0.6,0.6-1.2,0.8-1.8c0,0,0,0,0,0
			c0.1-0.2,0.1-0.4,0.2-0.6c0-0.1,0-0.2,0.1-0.2v0c0,0,0,0,0,0v-0.1c0,0,0,0,0,0c0-0.8-1-1.9-1.2-3.2c0-0.1,0-0.1,0-0.2
			c0-0.3,0-0.7,0.1-1c0-0.1,0.1-0.2,0.1-0.3c0.3-0.6,1.1-1.9,1.9-3c0.2-0.3,0.4-0.6,0.7-0.8c0.1-0.1,0.1-0.1,0.2-0.2
			c0.1-0.1,0.3-0.2,0.4-0.3c0,0,0.1,0,0.1,0c0.1,0,0.1,0,0.1,0c0,0,0.1,0.1,0.1,0.1c0,0,0,0,0,0.1c0,0,0,0.1,0,0.1v0
			c0,0,0,0.1,0,0.1c0,0.1,0,0.1,0,0.2c0,0,0,0,0,0c0,0,0,0,0,0.1h0c10.8,3.1,20.5,5,29.5,6c25.3,2.9,43.8-1.1,58.2-5
			c10.4-2.8,30.8-10.7,50.8-19.3C180.8,183.5,206.2,257.8,195.5,294.6z"/>
		<path class="st6" d="M123.1,361.8c7.7-3.9,17.1-6.7,26.3-7.8c4-0.5,8-0.7,11.8-0.5"/>
		<path class="st6" d="M44.8,361.9c4.9-4.1,27.2-12.3,35.5-10.9"/>
		<path class="st6" d="M150.3,347c8.1,3.2,15.9,9.3,19.7,17"/>
		<path class="st6" d="M74.9,346.4c5.4,3.6,10.4,7.9,13.3,13.6"/>
		<g>
			<path class="st6" d="M137.4,333.2c2.2,6.4,6.6,11.6,12.9,13.8c-18.1,3.2-25.1,9.5-29.4,14.9c-0.5,1.1,13.5,1.6,29,2.1
				c18,0.7,36.7,1.6,44.2-0.1c7.4-1.7,1.2-12.7-0.3-17.1c-4.8-14.8-5.6-37.2,1.7-52.1"/>
			<path class="st6" d="M113.3,336c0,0.2,0,0.3,0.1,0.5c0,0.2,0.1,0.4,0.1,0.6c0,0.2,0.1,0.4,0.1,0.6s0.1,0.4,0.1,0.6
				c0,0.2,0.1,0.4,0.1,0.6c0.1,0.4,0.2,0.8,0.3,1.2c0.1,0.2,0.1,0.4,0.2,0.6c0.2,0.6,0.3,1.2,0.5,1.8c0.2,0.5,0.3,1.1,0.5,1.6
				c1.2,3.8,2.9,7.9,4.3,11.4c0.1,0.3,0.2,0.6,0.2,0.9c0,0.1,0,0.2,0,0.2c0,0.1,0,0.2,0,0.3c-0.8,4-13.3,4.1-16.2,4.2
				c-5.3,0.2-11.8,0.5-17.1,0.6c-13.1,0.2-37.9,1.5-40.9,1.5c-1.5,0-2.7-0.1-2.8-0.6c0,0,0-0.1,0-0.1c-0.1-0.6,0.7-1.7,2.9-3.6
				c1.1-1,16.4-12.8,29.2-12.4c0,0,0.1,0,0.1,0c-1.9-1.9-3.8-4.9-5.3-8.4c-0.1-0.2-0.2-0.5-0.3-0.7c-0.2-0.5-0.4-1-0.6-1.5
				c-1.2-3-2.1-6.3-2.5-9.3"/>
		</g>
		<path class="st6" d="M42,171.7c-9.9,0.7-27.2,14.4-31.8,49.6c3.2,4.5,10.3,6.7,18,7.4"/>
		<path class="st3" d="M55.2,346c-0.4,0.6-1.7,0.5-3-0.3c-1.3-0.8-3-2.3-5.2-4.4c-0.3-0.3-0.7-0.7-1-1c-0.4-0.4-0.9-0.9-1.3-1.4
			c-0.3-0.3-0.6-0.7-1-1c-0.8-0.9-1.7-1.8-2.6-2.8c-3.5-3.9-7.2-8.9-10.8-14.8c7.1,2.1,11.5,0.9,17.2-1.4c0.8,2.8,2.3,6.6,3.6,9.8
			C55.1,338.8,56.2,344.4,55.2,346z"/>
		<path class="st6" d="M15.8,280.4c4.6,21.2,13,41.7,24.5,53.8c16.2,17.1,19.1,16.9,11.1-4.5c-2-5.3-3.3-9.4-4-13.1"/>
		<path class="st6" d="M13.3,224.1c-2.6,13.2-2.2,30.9,1.1,49.2"/>
		<path class="st6" d="M39.1,321.6c1.3,6.5,7.9,15.4,15.7,24.3"/>
		<path class="st6" d="M11.4,214.5c4.9,4,10,5.5,15.9,6.4"/>
		<path class="st6" d="M30.3,320.3c5.1,1.5,10,1.7,17.2-1.4"/>
		<g>
			<line class="st5" x1="54.6" y1="300.3" x2="54.6" y2="306.3"/>
			<line class="st5" x1="60.7" y1="304.2" x2="60.7" y2="310.2"/>
			<path class="st4" d="M20.1,247.3c3.6-4.3,8-10.1,10.1-11.3c4.3-2.7,10.4-2.3,15.2-2.3c12.4,0,22,10.2,35.2,11.5
				c8.1,0.8,22.4-6.9,20.2-10.8c-1.9-3.2-5-0.7-21.9-1.2c-12.7-0.4-24.2-1.5-36.6-3.6c-3-0.5-10.1-0.5-12.6-5
				c-0.5,2-2.7,6.8-3.7,8.9C23.6,238.2,21.5,243.8,20.1,247.3z"/>
			<path class="st6" d="M41.6,179.2c41.2,11.8,83.1,3.4,87.7,1.1"/>
			<path class="st6" d="M119.1,297.9c-8.4,0.1-16.7,0-24.5-0.3c-21.3-0.8-43.9-4.9-61.9-10.2c-2.6-0.8-13.8-4.9-18.7-8.2
				c1.1-14.5,4.1-26.7,7.6-35.6c0.2-0.7,0.5-1.3,0.8-1.9c0.1-0.3,0.3-0.7,0.4-1c0.7-1.7,1.6-3.7,2.4-5.6c0.2-0.4,0.4-0.8,0.6-1.2
				l0,0v0c0.2-0.4,0.4-0.9,0.6-1.3c0.1-0.2,0.2-0.3,0.2-0.5c0.1-0.3,0.3-0.6,0.4-0.9c0.9-1.7,1.7-3.3,2.5-4.7c0,0,0,0,0-0.1
				c-0.1-0.2-0.2-0.4-0.2-0.5c0,0,0,0,0-0.1c-0.9-1.9-1.4-4-1.5-6.1c0-0.2,0-0.3,0-0.5c-0.1-0.9,0-1.8,0-2.6
				c0.1-1.6,0.4-3.2,0.8-4.8c1.7-6.9,5.5-13.7,8.2-18.9c0.7-1.3,2.3-4.1,2.5-5.3c0,0,0,0,0-0.1c0,0,0,0,0-0.1c0,0,0,0,0,0
				c0-0.8-1-1.9-1.2-3.2c0-0.1,0-0.1,0-0.2c0-0.4,0-0.9,0.2-1.3c0.3-0.6,1.1-1.9,1.9-3c0.2-0.3,0.5-0.6,0.7-0.8
				c0.1-0.1,0.2-0.1,0.2-0.2c0.2-0.2,0.4-0.3,0.5-0.3c0.1,0,0.2,0,0.2,0.2c0,0,0,0.1,0,0.1c0,0.1,0,0.2,0,0.3c0,0,0,0,0,0
				c0,0,0,0.1,0,0.1h0c0,0,0,0.1,0,0.1c0,0,0,0,0,0.1"/>
			<path class="st6" d="M48,181.3c-0.6,1.7-1.2,3-1.2,4.9"/>
			<path class="st6" d="M58.5,183.4c-0.8,1.6-0.9,3.6-0.9,5.4"/>
			<line class="st6" x1="71.1" y1="185.1" x2="70.4" y2="189.3"/>
			<polyline class="st6" points="80,186.2 80,186.9 80,187.4 80,188.1 80,188.6 80,189 80,189.5 			"/>
			<polyline class="st6" points="75.1,186.5 75.1,186.9 75.1,187.4 75.1,187.9 75.1,188.3 75.1,188.8 			"/>
			<polyline class="st6" points="109.9,185.1 109.9,185.5 109.9,186 109.9,186.9 109.9,187.4 			"/>
			<polyline class="st6" points="113.4,185.1 113.4,185.8 113.4,186.5 113.4,186.9 			"/>
			<g>
				<g>
					<g>
						<path class="st7" d="M71.1,222.2c-0.5-1.7-2-3-4.8-3.1c-5.8-0.3-11.8-0.4-19.1-0.6c-0.2,0.6-0.3,1.1-0.5,1.7
							c-1.2,3.3-2.9,6.4-4.7,9.4c-0.4,0.8-0.9,1.5-1.3,2.3c-0.4,0.6-0.7,1.2-1,1.8c-2.4,4.3-4.4,8.7-4.6,13.9c3.3,0,6.4,0.1,9.7,0.2
							c-0.2-4.2,1.4-8.1,3.5-11.8c2.9-0.4,3.4,0.8,3.6,2.5c0.3,3.1,1.1,6.3,2.8,9.7c3.5,0.2,6.8,0.4,10.5,0.7
							c-2-3.5-1.9-7.2-2.8-10.2c-0.2-0.6-0.4-1.1-0.6-1.6c-0.4-0.8-0.9-1.4-1.7-2c0.5-0.1,0.8-0.2,1.1-0.2c1.8-0.5,3.4-1.2,4.8-2.1
							c0.1,0,0.1-0.1,0.2-0.2c2.4-1.6,4.2-3.8,5-6.6C71.4,224.6,71.5,223.3,71.1,222.2z M54.8,224.6c2,0,3.9-0.1,5.6,0.1
							c1.7,0.2,2,1.4,1.2,2.9c-0.8,1.4-2.2,2.5-4,2.6c-2,0.2-3.9,0.2-6,0.2C52.8,228.3,53.9,226.5,54.8,224.6z"/>
						<path class="st7" d="M97.8,227.6c-3.2,0.2-6.1,0.3-9,0.5c0.4-2.6-0.7-3.9-3-4c-1.5-0.1-2.9,0.4-4,2.2c-0.4,1.5,0.3,2,1.3,2.3
							c1.9,0.6,3.8,1.2,5.7,1.8c1.1,0.4,2.1,0.8,3.1,1.4c6.3,3.4,2.9,12.2-3.2,16.2c-2,1.3-4.4,2.1-6.5,2.4c-3.5,0.5-6.9,0.2-10.2-1
							c-4.3-1.5-6.8-5.6-4.9-10.5c2.8,0,5.5,0,8.5-0.1c0,0.6-0.1,1.2-0.1,1.7c0.1,3,2.9,4.5,6.1,3.5c1.4-0.5,2.6-1.4,3.1-2.8
							c0.4-1.3,0-2.3-1-2.8c-0.9-0.5-1.8-0.8-2.7-1.1c-1.9-0.7-3.8-1.3-5.5-2.2c-3.1-1.8-3.5-4.6-2-7.9c1.7-3.7,4.6-6.7,8.5-7.8
							c3.7-1.1,7.4-1.1,11.2,0.2C97,220.5,98.7,223,97.8,227.6z"/>
					</g>
				</g>
			</g>
			<path class="st6" d="M149.9,328.5c-10.6,5.3-23.4,7.5-36.6,7.4h0c-16.5-0.1-33.5-3.8-47.1-9.5c0,0,0,0,0,0
				c-0.5-0.2-1-0.4-1.5-0.7c-6.6-2.9-13.7-6-19.1-10.8c-5-4.5-6.3-7.4-7.1-7.9c-0.2-0.1-0.1,3.3-0.2,3.3c-2.3,0.8-5.8-12.3-6.7-13.8
				c-0.7-1.2-2.3,3.5-2.3,3.5s-4-7.9-3.9-15.3c0,0,0-0.1,0-0.1"/>
			<path class="st6" d="M39,187.5c7.6,5.6,39.4,12.4,80.6,5.9"/>
		</g>
		<g>
			<g>
				<path class="st8" d="M125.9,308.4l-44.1-68.5c-3.3-5.2-1.8-12.1,3.3-15.4l42.9-27.6c5.2-3.3,12.1-1.8,15.4,3.3l44.1,68.5
					c3.3,5.2,1.8,12.1-3.3,15.4l-42.9,27.6C136.1,315.1,129.2,313.6,125.9,308.4z"/>
				<path class="st4" d="M184.2,284.4L140.8,312c-5.7,3.2-11.2,2-14.7-3.2l-44.9-69.7c-2.6-4.4-1.8-8.3,0.1-11
					c1.5-2.2,3.8-3.5,5.2-4.3c-4.2,5.2-3.9,10.9-1.7,14.2c12.1,18.8,43.4,66.2,43.4,66.2c3.5,5.1,8.1,5.3,12.9,2.7
					c0,0,26.4-17,39.5-25.4c3.5-2.3,7.4-7.8,4.5-16.5c1.4,2.1,3,3.9,3.8,5.8C190,273,191.1,279.6,184.2,284.4z"/>
				<path class="st9" d="M140.5,202.6c-3.3-4-6.7-4.2-11.8-1.9c0,0-1.7,0.8-48.3,27l48.4-31.2c5.4-3.3,11.1-2.2,14.7,3.2l47.7,74
					C166.1,238.2,140.5,202.6,140.5,202.6z"/>
				<path class="st6" d="M125.9,308.4l-44.1-68.5c-3.3-5.2-1.8-12.1,3.3-15.4l42.9-27.6c5.2-3.3,12.1-1.8,15.4,3.3l44.1,68.5
					c3.3,5.2,1.8,12.1-3.3,15.4l-42.9,27.6C136.1,315.1,129.2,313.6,125.9,308.4z"/>
				<g>
					<g>
						<path d="M133.7,241.6c1.4,2.2,2.7,4.4,4,6.6c1,1.8,0.3,3.2-0.7,4c-1.4,1.1-2.9,1.1-4.4,0c-0.1-0.1-0.1-0.1-0.3-0.3
							c0.2,2.4-1.5,3.9-2.4,5.9c-0.8-1.3-1.5-2.4-2.3-3.5c0.7-1.2,1.3-2.4,2-3.7c0.4-0.7,0.5-1.4-0.2-2.1c-1.3,0.8-2.6,1.7-4,2.5
							c-0.7-1.1-1.3-2-2-3C126.9,245.9,130.2,243.8,133.7,241.6z M133.5,246c-0.7,0.4-1.3,0.8-2,1.3c0.5,0.6,0.9,1.3,1.4,1.9
							c0.4,0.5,1,0.6,1.5,0.3c0.5-0.3,0.7-0.9,0.4-1.5C134.4,247.3,134,246.7,133.5,246z"/>
						<path d="M142.6,261.8c-0.7-0.9-1.3-1.8-2-2.7c0.7-0.7,0.9-1.5,0.3-2.3c-0.3-0.5-0.8-0.9-1.5-0.7c-0.5,0.3-0.4,0.8-0.3,1.3
							c0.3,0.8,0.6,1.7,0.8,2.5c0.1,0.5,0.2,1,0.3,1.4c0.5,3.1-2.5,4.8-4.8,3.9c-0.8-0.3-1.5-0.8-2.1-1.5c-0.9-1-1.6-2.2-2-3.5
							c-0.6-1.7,0.1-3.5,1.7-4.5c0.6,0.9,1.3,1.8,2,2.7c-0.2,0.2-0.3,0.4-0.4,0.5c-0.7,1-0.5,2.3,0.5,3c0.4,0.3,0.9,0.4,1.4,0.1
							c0.4-0.3,0.6-0.7,0.5-1.2c-0.1-0.4-0.2-0.8-0.3-1.2c-0.2-0.9-0.5-1.7-0.7-2.6c-0.3-1.7,0.2-3,1.4-3.6c1.3-0.7,2.8-0.6,4.1,0.6
							c1.2,1.1,2.1,2.4,2.5,4C144.4,259.6,144,260.7,142.6,261.8z"/>
					</g>
					<g>
						<path d="M133.7,241.6c1.4,2.2,2.7,4.4,4,6.6c1,1.8,0.3,3.2-0.7,4c-1.4,1.1-2.9,1.1-4.4,0c-0.1-0.1-0.1-0.1-0.3-0.3
							c0.2,2.4-1.5,3.9-2.4,5.9c-0.8-1.3-1.5-2.4-2.3-3.5c0.7-1.2,1.3-2.4,2-3.7c0.4-0.7,0.5-1.4-0.2-2.1c-1.3,0.8-2.6,1.7-4,2.5
							c-0.7-1.1-1.3-2-2-3C126.9,245.9,130.2,243.8,133.7,241.6z M133.5,246c-0.7,0.4-1.3,0.8-2,1.3c0.5,0.6,0.9,1.3,1.4,1.9
							c0.4,0.5,1,0.6,1.5,0.3c0.5-0.3,0.7-0.9,0.4-1.5C134.4,247.3,134,246.7,133.5,246z"/>
						<path d="M142.6,261.8c-0.7-0.9-1.3-1.8-2-2.7c0.7-0.7,0.9-1.5,0.3-2.3c-0.3-0.5-0.8-0.9-1.5-0.7c-0.5,0.3-0.4,0.8-0.3,1.3
							c0.3,0.8,0.6,1.7,0.8,2.5c0.1,0.5,0.2,1,0.3,1.4c0.5,3.1-2.5,4.8-4.8,3.9c-0.8-0.3-1.5-0.8-2.1-1.5c-0.9-1-1.6-2.2-2-3.5
							c-0.6-1.7,0.1-3.5,1.7-4.5c0.6,0.9,1.3,1.8,2,2.7c-0.2,0.2-0.3,0.4-0.4,0.5c-0.7,1-0.5,2.3,0.5,3c0.4,0.3,0.9,0.4,1.4,0.1
							c0.4-0.3,0.6-0.7,0.5-1.2c-0.1-0.4-0.2-0.8-0.3-1.2c-0.2-0.9-0.5-1.7-0.7-2.6c-0.3-1.7,0.2-3,1.4-3.6c1.3-0.7,2.8-0.6,4.1,0.6
							c1.2,1.1,2.1,2.4,2.5,4C144.4,259.6,144,260.7,142.6,261.8z"/>
					</g>
				</g>
			</g>
			<g>
				<path class="st1" d="M222.1,282.1c-2.5,8.3-12.9,13.7-36.1,12.4c-17-1-31.4-3.9-54.2-13.4c-11.1-4.7-17.1-2.6-21.9-9.3
					c-11.7-16.1-22.6-12-21.3-14.2c1.3-2.2,6.9-7.9,14.1-8.5c13.7-1.1,17.8,11,25.9,11.7c13.3,1.1,48,3,49.9,0.1
					c1.4-2.1-2.7-6.7-6.3-12.4c-2.5-4-3.2-6.7-3.9-10.8c0.1-0.1,21.2-23.3,53.5-15.1c0.8,0.2,2.4,7.4,3.4,13.7
					C228.8,258.7,225,272.5,222.1,282.1z"/>
				<path class="st2" d="M223.9,222.4c-0.5,0.2-1.2,0.3-2,0.2c-29-2.2-41.6,7.9-50.8,14.8c-0.1,0.1-0.2,0.2-0.3,0.2
					c-5.4,3.8-6.6-2.2-6.7-7.8c-0.8-1.4-2.4-3.9-4.9-6.9c-0.8-3.7-1.6-8.4-3.5-11.6l-4.1-34.2c6.2-8.7,18.2-19.9,34.9-16.9
					c19.6,3.6,29.5,15.5,37.4,53.8C224.4,216.3,226.9,221.3,223.9,222.4z"/>
				<path class="st4" d="M223.9,222.4c-0.5,0.2-1.2,0.3-2,0.2c-3.8-0.3-7.4-0.4-10.7-0.3c-0.3-4.5-0.9-9.1-1.7-13.6
					c-2.4-13.7-10.8-47.2-31.9-48.9c2.8-0.3,5.8-0.3,8.9,0.3c19.6,3.6,29.5,15.5,37.4,53.8C224.4,216.3,226.9,221.3,223.9,222.4z"/>
				<path class="st3" d="M115.1,276.1c-1.9-0.9-3.6-2.2-5.2-4.4c-11.7-16.1-22.6-12-21.3-14.2c1.3-2.2,6.9-8,14.1-8.5
					c11.1-0.9,16,7,21.8,10.3C119.5,261.9,113.7,266.3,115.1,276.1z"/>
				<path class="st4" d="M222.1,282.1c-2.5,8.3-12.9,13.7-36.1,12.4c-17-1-31.4-3.9-54.2-13.4c-11.1-4.7-17.1-2.6-21.9-9.3
					c-11.7-16.1-22.6-12-21.3-14.2c1-1.7,4.7-5.7,9.8-7.5c-1.1,3.5,5.3,4.7,10.1,9.9c5.5,6,4.4,10.2,13.7,13.7
					c9.3,3.5,48.5,15.3,70.3,13.2c21.7-2.1,21.2-6.8,23.2-15.2c2-8.6,1-26.6-3.1-49.3c2.9,0,6.3,0.2,9.3,0.3c0.8,0,2.4,7.4,3.4,13.7
					C228.9,258.7,225,272.5,222.1,282.1z"/>
				<path class="st6" d="M168.4,237.7c0.6,3.3,2,6.7,3.2,9.3c2.8,6.1,8.3,11.7,7,13.8c-1.9,2.9-36.6,1-49.9-0.1
					c-8.1-0.7-12.2-12.8-25.9-11.7c-7.3,0.6-12.8,6.4-14.1,8.5c-1.3,2.2,9.6-1.9,21.3,14.2c4.9,6.7,10.8,4.7,21.9,9.3
					c22.8,9.5,37.1,12.5,54.2,13.4c23.2,1.3,33.1-4.3,36.1-12.4c3.3-8.8,6.9-25.6,3-47.4c-0.6-3.2-1.6-9.1-3.2-12.1"/>
				<path class="st6" d="M171.1,237.4c-7,1.5-6.9-2.1-7-7.9"/>
				<path class="st6" d="M159.1,222.9c2.6,3.1,4.2,5.7,5,7"/>
				<path class="st6" d="M159.1,222.9c-0.8-3.7-1.6-8.4-3.5-11.6"/>
				<path class="st6" d="M151.6,177.1c6.2-8.7,18.2-19.9,34.9-16.9c19.6,3.6,29.5,15.5,37.4,53.8c0.6,2.8,3.9,9.2-2,8.7
					c-12.5-1.2-27.2,0-41.1,8"/>
				<path class="st6" d="M165,229.6c9-9.7,25.4-18.3,41.6-16.8"/>
				<path class="st6" d="M172.3,224.1c0.6,1.6,1.4,2.6,2.4,4"/>
				<line class="st6" x1="180.8" y1="219.3" x2="182.7" y2="222.9"/>
				<line class="st6" x1="189.1" y1="215.7" x2="190.1" y2="219.6"/>
				<g>
					<line class="st5" x1="212.6" y1="244.8" x2="212.5" y2="250.7"/>
					<line class="st5" x1="206.5" y1="249.5" x2="206.4" y2="255.4"/>
				</g>
				<path class="st6" d="M115.1,276.1c-1.1-6.4,1.8-13.3,9.4-16.7"/>
				<path class="st6" d="M88.6,257.6c11.7-5.5,19.5-4.9,29,7.1"/>
			</g>
		</g>
		<path class="st6" d="M180.1,159.4c0.5-44.2-14.7-85.6-59.6-107.7c-3.4-1.6-8.4-3.8-12.2-5.1c-10.2-3.4-9-5.6-5.8-8.6
			c-5.7,0-7.8,0.4-14,5c-4.1-2.8-4.8-6.1-3.8-12.2c-8.7,0-15.8,3.8-21.2,13.7c-7.8-3.3-17.5-3.3-24.4,2.3c4.6-0.7,10.3,0,10.3,2.1
			c0,1.8-12.7,0.7-17.5,8.4c5.2-2,11.7,0.3,11.6,0.8c-3.4,0.8-5.6,1.9-8.3,6.7c3-1.4,6.5-1.2,9.1-0.9c-4.8,3.2-8.6,7.3-11.8,12.6
			c-13.9,23.5-6.5,51,4.7,73.4c1,2,2.4,4.2,2.7,6.5c0.2,1.1-0.5,3,0,4c0.2,0.4,1.2-1.1,1.3-0.6c0.3,2.1,0,4.4-0.2,6.5
			c-0.1,0.8-1,2.8-0.4,2.3c0.2-0.2,0.7-1.9,1.5-1.7c0.4,0.1,0,11.3-0.3,12.4"/>
		<path class="st6" d="M163.5,297.4c6.2-0.3,22.4-0.9,32-2.7"/>
		<path class="st4" d="M129.2,333.9c-0.3,0-0.6,0.1-0.9,0.1c-0.4,0.1-0.8,0.1-1.2,0.2c-0.6,0.1-1.2,0.2-1.8,0.2
			c-1.2,0.1-2.3,0.3-3.5,0.4c0,0,0,0,0,0c-3.2,0.3-6.4,0.4-9.7,0.4h0c-16.5-0.1-33.5-3.8-47.1-9.5c0,0,0,0,0,0h0v0
			c-0.5-0.2-1-0.4-1.5-0.7c-2.9-1.3-5.9-2.6-8.8-4c-0.8-0.4-1.6-0.9-2.4-1.3c-2.1-1.2-4.1-2.4-5.9-3.9c-0.7-0.5-1.3-1-1.9-1.6
			c-0.3-0.3-0.6-0.6-0.9-0.8c-0.4-0.4-0.8-0.8-1.2-1.1c-0.5-0.5-0.9-1-1.3-1.4c-0.2-0.2-0.4-0.4-0.6-0.6l0,0
			c-0.2-0.2-0.3-0.4-0.5-0.6c-1.3-1.6-2-2.7-2.4-3.1c-0.1,0-0.1-0.1-0.2-0.1h0v0c-0.2-0.1-0.1,3.3-0.2,3.3c-0.1,0-0.3,0-0.4,0
			c-0.4-0.1-0.9-0.7-1.4-1.5c-0.2-0.3-0.3-0.6-0.5-0.9c-1-1.9-2-4.7-2.8-7c-0.1-0.2-0.1-0.4-0.2-0.6c-0.7-1.9-1.2-3.4-1.4-3.8
			c-0.1-0.1-0.1-0.2-0.2-0.2c-0.1,0-0.3,0-0.4,0.2c-0.3,0.3-0.6,0.9-0.9,1.5c0,0.1-0.1,0.1-0.1,0.2c0,0,0,0,0,0.1
			c-0.1,0.2-0.2,0.4-0.3,0.7c0,0.1-0.1,0.2-0.1,0.3c0,0,0,0,0,0c-0.2,0.4-0.3,0.8-0.3,0.8c-0.1-0.1-1-2-1.9-4.7
			c-0.1-0.2-0.1-0.4-0.2-0.5c-0.1-0.4-0.2-0.8-0.4-1.1c-0.8-2.6-1.5-5.8-1.4-8.8v0h0v-0.1h0v0c0,0,0,0,0,0c1.6,0.6,3.3,1.2,5.1,1.8
			c0,0,0.1,0,0.1,0c0.9,0.3,1.7,0.6,2.2,0.7c3.8,1.1,7.7,2.2,11.8,3.2c15.6,3.7,33.2,6.4,50.1,7c3.2,0.1,6.5,0.2,9.9,0.2
			c-25.9,0.3-47.6-3.5-58.2-4c-3.4-0.1-5.7,0.1-6.6,0.9c-1.4,1.3-0.5,8,7.1,15.3c2.3,2.2,5.2,4.4,8.8,6.5
			C73,326.8,107.5,336,129.2,333.9z"/>
		<path class="st4" d="M40.9,170.9c0,0.9,0,1.8-0.1,2.8c0,0.1,0,0.2,0,0.3v0.2c0,0.1,0,0.2,0,0.3c0,0.2,0,0.4,0,0.6
			c0,0.2,0,0.3,0,0.5c0,0.3,0,0.6-0.1,0.9c0,0.2,0,0.4,0,0.7c0,0.2,0,0.3,0,0.5c0,0.2,0,0.3,0,0.4c0,0,0,0.1,0,0.1c0,0,0,0,0-0.1
			c0,0,0,0,0-0.1l0,0c0,0,0,0,0-0.1c0,0,0-0.1-0.1-0.1c0,0-0.1-0.1-0.1,0c0,0-0.1,0-0.1,0c-0.1,0-0.2,0.1-0.4,0.3
			c-0.1,0.1-0.1,0.1-0.2,0.2c-0.2,0.2-0.4,0.5-0.7,0.8c-0.8,1-1.6,2.4-1.9,3c0,0.1-0.1,0.2-0.1,0.3c0,0,0,0.1,0,0.1
			c0,0.1,0,0.1,0,0.2c0,0,0,0.1,0,0.2c0,0.2,0,0.4,0,0.5v0l0,0.2c0,0.2,0.1,0.3,0.1,0.5c0.3,0.9,0.8,1.7,1,2.3c0,0.1,0,0.1,0,0.1
			c0,0.1,0.1,0.2,0.1,0.3c0,0,0,0,0,0v0c0,0,0,0,0,0v0c0,0,0,0,0,0c0,0.1,0,0.1,0,0.2c0,0.2-0.1,0.4-0.2,0.6c0,0,0,0,0,0
			c-0.2,0.5-0.5,1.2-0.8,1.8c-0.1,0.2-0.3,0.5-0.4,0.8c-0.1,0.2-0.3,0.5-0.4,0.7c0,0,0,0,0,0c-0.1,0.2-0.2,0.4-0.3,0.6
			c-0.1,0.2-0.2,0.4-0.3,0.6c-2.2,4.3-5.1,9.6-7,15.1c-0.4,1.3-0.8,2.6-1.1,3.9c-0.2,0.6-0.3,1.2-0.4,1.8c0,0.2-0.1,0.4-0.1,0.6
			c-0.1,0.4-0.1,0.8-0.2,1.2c-0.1,0.4-0.1,0.8-0.1,1.2c0,0.2,0,0.5,0,0.7v0.1c0,0.2,0,0.4,0,0.6c0,0.4,0,0.8,0,1.2
			c0,0.2,0,0.3,0,0.5c0,0.2,0,0.5,0.1,0.7c0,0.2,0,0.3,0.1,0.5c0,0.3,0.1,0.6,0.1,0.9c0,0.2,0.1,0.4,0.1,0.6c0,0,0,0,0,0.1
			c0,0.2,0.1,0.3,0.1,0.4c0,0.1,0,0.1,0,0.2c0,0.1,0,0.1,0,0.1c0.1,0.2,0.1,0.4,0.2,0.5c0.1,0.2,0.1,0.4,0.2,0.7
			c0.2,0.4,0.3,0.9,0.5,1.3c-0.3,0.8-0.7,1.8-1.1,2.8c0,0,0,0,0,0c-0.4,1-0.9,1.9-1.2,2.8c0,0,0,0.1-0.1,0.1
			c-0.1,0.1-0.1,0.3-0.2,0.4c-0.1,0.2-0.2,0.3-0.2,0.5c-0.2,0.4-0.4,0.9-0.6,1.3v0l0,0c-0.2,0.4-0.4,0.8-0.6,1.2
			c-0.9,1.9-1.7,3.8-2.4,5.6c-0.1,0.4-0.3,0.7-0.4,1c-0.2,0.6-0.5,1.3-0.8,1.9c-0.8,2.1-1.6,4.3-2.4,6.6c-0.8,2.3-1.5,4.7-2.1,7.1
			c0,0,0,0,0,0c-0.1,0.4-0.2,0.9-0.3,1.4c-0.8,3.2-1.4,6.6-1.6,9.8c-0.2,1.2-0.3,2.4-0.5,3.6c-1-5.8-1.7-11.6-2.2-17.3
			c3.1-7.9,6.3-17.4,9.2-27.2c0.2,0,0.5,0.1,0.7,0.2c-0.2,0-0.5-0.1-0.7-0.2c0,0,0,0,0,0c0.7-2.4,1.4-4.9,2.1-7.4
			c4.9-17.7,8.9-35.4,10.9-46c1.4-0.8,2.7-1.3,3.9-1.8c0.5-0.2,1.1-0.3,1.6-0.4c0.1,0,0.3-0.1,0.4-0.1c0.4-0.1,0.9-0.1,1.3-0.2
			C40.7,170.9,40.8,170.9,40.9,170.9z"/>
		<path class="st4" d="M40.5,334.9c-3.4-4.1-7-8-11.4-15.4C22.9,309,18.2,294.7,15,279.9c0.5,0.3,1,0.6,1.6,0.9
			c2.3,1.2,4.8,2.4,7.6,3.4v0c-0.1,7.3,3.9,15.3,3.9,15.3s1.6-4.8,2.4-3.5c0.9,1.5,4.4,14.5,6.7,13.8c0.1,0-0.1-3.5,0.2-3.3
			c0.8,0.4,2,3.3,7.1,7.9c0.6,0.6,1.3,1.1,1.9,1.6c0.8,4,2.1,8.3,4.2,13.6C58.6,350.1,53.2,350.1,40.5,334.9z"/>
		<g>
			<path class="st10" d="M31.2,99.5c2.1-8.6,8.7-15.3,15.2-19.8c6.6-4.6,13.8-6.6,22.5-6.2c2.8,0.1,4.1-1.4,4.8-2.9
				c1.3-2.9,0-5.7,0-5.7c1.4,0.4,3,2,4.5,2.9c6.6,4,16.8,4.7,23,4.7c21.6,0,35.6,0,46.2,19.3c2.4,4.3,6,14.2,3.6,25.2
				c-3.6,16.1-5.5,22.8-22.9,34.8c-20.7,14.3-63.6,21.4-85-5.6C33.1,133.6,27.3,115.6,31.2,99.5z"/>
			<path class="st11" d="M71,106.8c-7.2-3.6-13.1,14.6-12.5,19.9c2,18,28.3,17,40.4,10.9c17.6-8.8-3.9-37.1-16.5-32.1"/>
			<path class="st11" d="M30.3,99.1c-2.9,11.5,1.1,28.9,4.1,31.1c2.3,1.7,15.1-3,24-16.5c6-9,8-22.2,5.8-24.5
				C56,80.2,44.5,80,41.9,80.5C38.2,81.2,33,88.5,30.3,99.1z"/>
			<path class="st11" d="M93.6,84.7c3.2,42.3,47.2,56.3,52.2,49c3.2-4.7,10.2-26.4,1.7-41.2c-0.8-1.4-4.6-10.7-22.8-16.1
				C112.5,72.8,101.2,77,93.6,84.7z"/>
			<path class="st12" d="M66.6,106.8c-0.1-2.7,5.2-5.2,11.9-5.5c6.7-0.3,12.3,1.6,12.4,4.3c0.1,2.7-5.2,5.2-11.9,5.5
				C72.3,111.4,66.7,109.5,66.6,106.8z"/>
			<path class="st13" d="M78.8,112c0,3.4,0,6.5,0,8.1c0,3.9,5.9,10.6,14.8,4.5"/>
			<path class="st0" d="M55.2,98.1c0,11.4-21.8,11.8-23,1.7c-0.5-4.9,1.6-7.1,5-7.9C42.3,90.7,55.5,89.9,55.2,98.1z"/>
			<path class="st13" d="M55.2,98.1c0,11.4-21.8,11.8-23,1.7c-0.5-4.9,1.7-6.9,5-7.9C42.8,90.3,55.5,89.9,55.2,98.1z"/>
			<path class="st7" d="M39.6,98.5c0-2.2,1.8-4,4-4c2.2,0,4,1.8,4,4c0,2.2-1.8,4-4,4C41.4,102.5,39.6,100.7,39.6,98.5z"/>
			<path class="st0" d="M134.7,96.8c-1.2,10.1-26.4,12.2-26.6-1c-0.1-5.3,6.1-7,15-7.5S135.5,89.9,134.7,96.8z"/>
			<path class="st13" d="M134.7,96.8c-0.7,10.2-26.4,12.2-26.6-1c-0.1-5.3,6.1-7,15-7.5S135.2,90,134.7,96.8z"/>
			<path class="st7" d="M117.4,95.8c0.2-2.2,2.2-3.8,4.4-3.6c2.2,0.2,3.8,2.2,3.6,4.4c-0.2,2.2-2.2,3.8-4.4,3.6
				C118.8,100,117.2,98,117.4,95.8z"/>
			<path class="st13" d="M76,125.3c-2.3,2.1-6,2.9-10.4-1.5"/>
			<g>
				<path class="st14" d="M93.6,85.2c17.2-14.3,38.3-10.7,57.3,7.8"/>
				<path class="st14" d="M64.3,89.1c-15.5-13.8-30.4-11.8-44.7,8.6"/>
			</g>
			<g>
				<path class="st14" d="M64.1,96.2c6.7-6.1,21.1-7.4,29.4-2.9"/>
				<g>
					<path class="st15" d="M64.1,96.2c0,14.2-11.5,25.6-25.6,25.6c-0.2,0-0.4,0-0.7,0c-2,0-4-0.3-5.9-0.8c-1-0.3-2-0.6-3-1
						c-4-1.6-7.5-4.2-10.1-7.4c-3.7-4.4-5.9-10.1-5.9-16.3c0-13.5,10.4-24.5,23.6-25.5c0.7-0.1,1.3-0.1,2-0.1
						c3.7,0,7.2,0.8,10.4,2.2c1,0.4,1.9,0.9,2.8,1.5c1.7,1,3.3,2.3,4.7,3.7C61.2,82.6,64.1,89,64.1,96.2z"/>
					<linearGradient id="SVGID_1_" gradientUnits="userSpaceOnUse" x1="27.4027" y1="91.5436" x2="38.2963" y2="96.1394">
						<stop  offset="0" style="stop-color:#FFFFFF;stop-opacity:0.2"/>
						<stop  offset="1" style="stop-color:#FFFFFF;stop-opacity:0"/>
					</linearGradient>
					<path class="st16" d="M48.9,72.8l-20,47.2c-4-1.6-7.5-4.2-10.1-7.4l17.7-41.9c0.7-0.1,1.3-0.1,2-0.1
						C42.2,70.6,45.7,71.4,48.9,72.8z"/>
					
						<linearGradient id="SVGID_00000028286060892860335540000015367795622642620336_" gradientUnits="userSpaceOnUse" x1="41.8226" y1="97.634" x2="46.8439" y2="99.7616">
						<stop  offset="5.586592e-03" style="stop-color:#FFFFFF;stop-opacity:0"/>
						<stop  offset="1" style="stop-color:#FFFFFF;stop-opacity:0.2"/>
					</linearGradient>
					<path style="fill:url(#SVGID_00000028286060892860335540000015367795622642620336_);" d="M56.4,77.9l-18.6,43.9
						c-2,0-4-0.3-5.9-0.8l19.8-46.7C53.4,75.3,55,76.5,56.4,77.9z"/>
				</g>
				<g>
					<path class="st15" d="M144.8,93.3c0,14.2-11.5,25.6-25.6,25.6c-1,0-2.1-0.1-3.1-0.2c-2-0.2-3.9-0.7-5.7-1.4
						c-1-0.4-1.9-0.8-2.9-1.3c-3.9-2-7.2-5-9.7-8.6c-2.7-4.1-4.3-9-4.3-14.2c0-12.6,9-23,21-25.2c1.5-0.3,3-0.4,4.6-0.4
						c2.9,0,5.7,0.5,8.3,1.4c1,0.3,2,0.7,2.9,1.2c1.8,0.9,3.4,1.9,4.9,3.1C141.1,78.1,144.8,85.3,144.8,93.3z"/>
					<g>
						
							<linearGradient id="SVGID_00000160911335056699863800000000113166485643208346_" gradientUnits="userSpaceOnUse" x1="106.0085" y1="87.7921" x2="116.9023" y2="92.3879">
							<stop  offset="0" style="stop-color:#FFFFFF;stop-opacity:0.2"/>
							<stop  offset="1" style="stop-color:#FFFFFF;stop-opacity:0"/>
						</linearGradient>
						<path style="fill:url(#SVGID_00000160911335056699863800000000113166485643208346_);" d="M127.5,69.1l-19.9,47.1
							c-3.9-2-7.2-5-9.7-8.6l16.7-39.4c1.5-0.3,3-0.4,4.6-0.4C122.1,67.7,124.9,68.2,127.5,69.1z"/>
						
							<linearGradient id="SVGID_00000083796678342151603840000017028371147562884247_" gradientUnits="userSpaceOnUse" x1="120.4351" y1="93.88" x2="125.4404" y2="96.0009">
							<stop  offset="0" style="stop-color:#FFFFFF;stop-opacity:0"/>
							<stop  offset="1" style="stop-color:#FFFFFF;stop-opacity:0.2"/>
						</linearGradient>
						<path style="fill:url(#SVGID_00000083796678342151603840000017028371147562884247_);" d="M135.3,73.4l-19.2,45.3
							c-2-0.2-3.9-0.7-5.7-1.4l20-47.1C132.2,71.2,133.8,72.2,135.3,73.4z"/>
					</g>
				</g>
				<circle class="st14" cx="38.5" cy="96.2" r="25.6"/>
				<circle class="st14" cx="119.2" cy="93.3" r="25.6"/>
			</g>
		</g>
		<path class="st4" d="M180.3,159.5c-0.1,0-0.2,0-0.3,0h-0.1c-0.2,0-0.5,0-0.7,0c-0.2,0-0.3,0-0.5,0c-0.3,0-0.6,0-0.9,0.1
			c-0.5,0.1-1.1,0.1-1.6,0.2c-0.4,0.1-0.8,0.1-1.2,0.2c-6.2,1.3-11.6,4.6-15.8,8.4c5.6-26.8,4.8-51.4-8.1-74.3
			c-13.9-24.6-38.4-33.2-60.2-34.8C85.8,59.1,80,57,80,51.7c-9.3,2.2-9.3,7.1-18.9,9.8c-11.5,3.2-20.1,7.9-27.8,13.8
			c0.8-1.3,1.6-2.5,2.5-3.6c0.9-1.1,1.9-2.2,2.9-3.2c1.7-1.8,3.6-3.3,5.8-4.7c-2.6-0.3-6.1-0.5-9.1,0.9c0.6-1.1,1.2-1.9,1.7-2.7
			c0.2-0.2,0.3-0.4,0.5-0.6c0.7-0.8,1.4-1.5,2.2-1.9c0.3-0.2,0.7-0.4,1-0.6c0.9-0.4,1.8-0.7,2.9-1h0c0,0,0-0.1-0.1-0.1
			c0-0.1-0.1-0.1-0.1-0.1c-1-0.7-6.7-2.4-11.4-0.7c0.2-0.2,0.3-0.5,0.5-0.7c0.3-0.4,0.7-0.9,1.1-1.2c2.5-2.5,5.9-3.7,9-4.5
			c0.7-0.2,1.4-0.3,2-0.4c0.2,0,0.4-0.1,0.6-0.1c0.6-0.1,1.2-0.2,1.7-0.3c0.2,0,0.3-0.1,0.5-0.1c0.3-0.1,0.6-0.1,0.8-0.2
			c0.8-0.2,1.2-0.5,1.2-0.8c0-1-1.2-1.7-3-2.1c-1.8-0.4-4.2-0.4-6.4-0.2c-0.3,0-0.6,0.1-0.9,0.1c0.5-0.4,1-0.8,1.5-1.1
			c1-0.7,2.1-1.2,3.2-1.7c0.6-0.2,1.1-0.4,1.7-0.6c1.4-0.5,2.9-0.8,4.4-0.9c0.6-0.1,1.2-0.1,1.8-0.1c4-0.1,8.1,0.7,11.8,2.2
			c0.2-0.3,0.4-0.7,0.6-1c0.3-0.5,0.6-1.1,1-1.6c5.2-7.9,11.8-11.1,19.7-11.1c-0.8,4.8-0.5,7.9,1.7,10.4c0.1,0.1,0.1,0.2,0.2,0.2
			c0.5,0.6,1.2,1.1,1.9,1.6c6.2-4.6,8.3-5,14-5c-3.7,2.9-4.3,4.8,3.7,7.8c0,0,0,0,0,0c0.3,0.1,0.6,0.2,0.9,0.3
			c0.4,0.1,0.8,0.3,1.2,0.4c0.7,0.2,1.5,0.5,2.2,0.8c0.5,0.2,1.1,0.4,1.6,0.6c2.9,1.2,6,2.5,8.4,3.7c2.1,1,4.1,2.1,6.1,3.2
			C166.8,77.5,180.1,117.5,180.3,159.5z"/>
	</g>
	<g>
		<path class="st1" d="M585.6,346.8c1.4,4.4,7.7,15.3,0.3,17.1c-7.4,1.7-26.1,0.8-44.2,0.1c-15.5-0.6-29.6-1-29-2.1
			c4.3-5.4,11.3-11.7,29.4-14.9c-6.3-2.2-10.7-7.4-12.9-13.8c-7.6,2-15.7,2.8-24,2.8c0,0.2,0,0.3,0.1,0.5c0,0.2,0,0.4,0.1,0.5
			c0,0.2,0.1,0.4,0.1,0.6s0.1,0.4,0.1,0.6c0,0.2,0.1,0.4,0.1,0.6c0.1,0.4,0.2,0.8,0.3,1.2c0.1,0.2,0.1,0.4,0.2,0.6
			c0.2,0.6,0.3,1.2,0.5,1.8c0.2,0.5,0.3,1.1,0.5,1.6c1.2,3.8,2.9,8,4.3,11.4c0.1,0.3,0.2,0.6,0.2,0.9c0,0.1,0,0.2,0,0.2
			c0,0.1,0,0.2,0,0.3c-0.8,4-13.3,4.1-16.2,4.2c-5.3,0.2-11.8,0.5-17.1,0.6c-13.1,0.2-37.9,1.5-40.9,1.5c-1.5,0-2.7-0.1-2.8-0.6
			c0,0,0-0.1,0-0.1c-0.1-0.6,0.7-1.7,2.9-3.6c1.1-1,16.4-12.8,29.2-12.4h0.1c-1.9-1.9-3.8-4.9-5.3-8.4c-0.1-0.2-0.2-0.5-0.3-0.7
			c-0.2-0.5-0.4-1-0.6-1.5c-1.2-3-2.1-6.3-2.5-9.3c-0.5-0.2-1-0.4-1.5-0.7c-6.6-2.9-13.7-6-19.1-10.8c-5.1-4.5-6.3-7.5-7.1-7.9
			c-0.2-0.1-0.1,3.3-0.2,3.3c-2.3,0.8-5.8-12.3-6.7-13.8c-0.7-1.2-2.4,3.5-2.4,3.5s-4-7.9-3.9-15.3v0c-2.7-1-5.2-2.2-7.6-3.4
			c-0.6-0.3-1.2-0.7-1.8-1c-0.3-1.1-0.5-2.2-0.7-3.2c-0.2-1-0.3-2.1-0.3-3.1c-0.6-10.2,3.1-21.5,6.6-30.5c0.2-0.7,0.5-1.3,0.8-1.9
			c0.1-0.3,0.3-0.7,0.4-1c0.7-1.7,1.6-3.6,2.4-5.6c0.2-0.4,0.4-0.8,0.6-1.2l0,0v0c0.2-0.4,0.4-0.9,0.6-1.3c0.1-0.2,0.2-0.3,0.2-0.5
			c0.1-0.3,0.3-0.6,0.4-0.8c0.4-0.9,0.9-1.7,1.3-2.5c0.4-0.8,0.8-1.5,1.2-2.2c0,0,0,0,0,0c-0.1-0.2-0.2-0.3-0.2-0.5c0,0,0,0,0-0.1
			c-0.9-2-1.4-4-1.5-6.1c0-0.2,0-0.3,0-0.5c0-0.9,0-1.8,0-2.6c0.1-1.6,0.4-3.2,0.8-4.8c1.7-6.9,5.5-13.7,8.2-18.9
			c0.7-1.3,2.3-4.1,2.5-5.3v0c0,0,0,0,0,0v-0.1c0,0,0,0,0,0c0-0.8-1-1.9-1.2-3.2c0-0.1,0-0.1,0-0.2c0-0.4,0-0.9,0.2-1.3
			c0.3-0.6,1.1-2,1.9-3c0.2-0.3,0.4-0.6,0.7-0.8c0.1-0.1,0.2-0.2,0.2-0.2c0.2-0.2,0.4-0.3,0.5-0.3c0.1,0,0.2,0,0.2,0.2
			c0,0,0,0,0,0.1c0,0,0,0,0,0.1c0,0.2,0,0.3-0.1,0.4c0,0,0,0,0,0c0,0,0-0.1,0-0.1h0c0,0,0-0.1,0-0.1v0c0-0.1,0-0.1,0-0.2
			c0.1-1.2,0.3-4.4,0.4-7.1c0.1-2.5,0-4.8-0.2-4.8c-0.8-0.2-1.3,1.5-1.5,1.7c-0.6,0.6,0.3-1.5,0.4-2.3c0.2-2,0.5-4.4,0.2-6.5
			c-0.1-0.5-1,1-1.2,0.6c-0.5-1,0.2-2.9,0-4c-0.3-2.2-1.7-4.5-2.7-6.5c-11.2-22.4-18.6-49.8-4.7-73.4c3.1-5.3,6.9-9.4,11.8-12.6
			c-2.6-0.3-6.1-0.5-9.1,0.9c2.7-4.8,4.9-5.9,8.3-6.7c0.1-0.5-6.3-2.8-11.6-0.8c4.7-7.7,17.5-6.6,17.5-8.4c0-2.1-5.8-2.8-10.3-2.1
			c6.9-5.6,16.6-5.6,24.4-2.3c-3.3-3.5-3.2-8-1.1-10.5c5.4,5.3,14.6,8.9,26.1,9c-2.4-0.7-3.4-2.9-2.5-4.9c2.6,2.3,12.1,5.1,22.3,8.5
			c3.8,1.3,8.8,3.5,12.2,5.1c44.9,22.1,59.5,64.3,59.6,108.5c0.1,21.4,26.3,97.3,15.4,134.6C580,309.6,580.8,332,585.6,346.8z"/>
		<path class="st1" d="M433.4,335.7c-3.4-4-7-8-11.3-15.4c-14.9-25.2-21.6-72.7-17-96.1c4.2,3,10.8,4.3,17.5,4.8
			c-0.3,9,1.4,13.8,2.8,15.4c0.9,18.3,3.1,28.1,5.5,34.6c2.2,5.5,5,11.2,8.3,16.9c-1.4,14.7-1,21,4.3,34.4
			C451.6,350.8,446.1,350.8,433.4,335.7z"/>
		<path class="st2" d="M433.8,171.7c0,2.2-0.1,4.9-0.2,7.6c-0.5,7.1-4,14.1-5.8,20.5c-3.5,12.5-4.9,22.1-5.1,29.1
			c-6.8-0.4-13.3-1.8-17.5-4.8c-1.2-0.8-2.2-1.8-3-2.9C406.7,186.3,423.9,172.5,433.8,171.7z"/>
		<g>
			<path class="st3" d="M561.8,364.7c-2.6-0.1-5.3-0.1-7.9-0.2c-1.2,0-2.5-0.1-3.7-0.1c-2.9-0.1-5.7-0.2-8.5-0.3c-0.4,0-0.8,0-1.3,0
				c-0.3,0-0.6,0-0.9,0c-1.5-0.1-2.9-0.1-4.4-0.2c-0.3,0-0.7,0-1,0c-2.6-0.1-5.1-0.2-7.4-0.3c-0.3,0-0.7,0-1,0c-0.4,0-0.8,0-1.1-0.1
				c-0.5,0-0.9,0-1.4-0.1c-0.4,0-0.9,0-1.3-0.1c-0.5,0-1-0.1-1.4-0.1c-0.5,0-1-0.1-1.4-0.1c-0.9-0.1-1.7-0.1-2.5-0.2
				c-0.4,0-0.7-0.1-1-0.1c0,0-0.1,0-0.1,0c-0.3,0-0.5-0.1-0.8-0.1c-0.2,0-0.4,0-0.5-0.1c-0.1,0-0.2,0-0.2,0
				c-0.4-0.1-0.7-0.1-0.9-0.2c-0.1,0-0.1,0-0.2-0.1c-0.1,0-0.1,0-0.1-0.1c0,0-0.1-0.1-0.1-0.1c0,0,0-0.1,0-0.1
				c0.6-0.8,1.3-1.5,2-2.3c0.2-0.3,0.5-0.5,0.8-0.8c0.3-0.3,0.5-0.5,0.8-0.8c0.3-0.3,0.6-0.5,0.9-0.8c2-1.7,4.6-3.5,7.8-5.1
				c0.6-0.3,1.2-0.6,1.8-0.8c0.1,0,0.1,0,0.2-0.1c0.3-0.1,0.6-0.3,0.9-0.4c0.4-0.2,0.9-0.3,1.3-0.5c0.4-0.1,0.8-0.3,1.2-0.4
				c0.3-0.1,0.6-0.2,0.9-0.3c0.3-0.1,0.7-0.2,1-0.3c0.2-0.1,0.4-0.1,0.7-0.2c0.3-0.1,0.6-0.2,0.9-0.3c0.3-0.1,0.6-0.2,0.9-0.2
				c1-0.3,2-0.5,3-0.7c0.5-0.1,1.1-0.2,1.6-0.3c0.8-0.2,1.7-0.3,2.5-0.5C550,350.1,558,355.8,561.8,364.7z"/>
			<path class="st3" d="M480.4,361.6c-0.7,0-1.4,0-2.1,0c-13.1,0.2-37.9,1.5-40.9,1.5c-1.3,0-2.2,0-2.7-0.4
				c-0.5-0.4-0.2-1.2,1.4-2.7c0.1-0.1,0.2-0.2,0.3-0.3c0.1-0.1,0.2-0.2,0.3-0.3c0.2-0.2,0.5-0.4,0.7-0.7c1.1-1,16.4-12.8,29.3-12.4
				h0C472,349.9,477.5,355.1,480.4,361.6z"/>
		</g>
		<g>
			<path class="st4" d="M511.7,356.6c0,0.1,0,0.2,0,0.3c0,0.2-0.1,0.3-0.1,0.4c0,0.1-0.1,0.2-0.2,0.4c-0.1,0.2-0.3,0.4-0.6,0.6
				c-0.2,0.2-0.5,0.4-0.8,0.5c-0.1,0.1-0.3,0.2-0.5,0.2c-0.5,0.2-1,0.4-1.6,0.6c-1.2,0.4-2.6,0.7-4,0.9c-0.2,0-0.5,0.1-0.7,0.1
				c-0.2,0-0.5,0.1-0.7,0.1c-0.2,0-0.5,0-0.7,0.1c-1.6,0.2-3.2,0.2-4.4,0.3c-0.2,0-0.3,0-0.5,0c-0.1,0-0.2,0-0.3,0
				c-0.1,0-0.2,0-0.4,0c-0.4,0-0.7,0-0.9,0c-0.3,0-0.6,0-0.9,0s-0.6,0-0.9,0c-0.8,0-1.6,0.1-2.4,0.1c-0.6,0-1.3,0-1.9,0.1
				c-0.5,0-0.9,0-1.4,0c-1.1,0-2.1,0.1-3.2,0.1c-1.5,0-3,0.1-4.4,0.1c-0.7,0-1.4,0-2.1,0c-13.1,0.2-37.9,1.5-40.9,1.5
				c-0.2,0-0.4,0-0.6,0c-0.1,0-0.3,0-0.4,0c-0.1,0-0.1,0-0.2,0c-0.1,0-0.1,0-0.2,0c-0.2,0-0.3,0-0.5-0.1c0,0-0.1,0-0.1,0
				c-0.1,0-0.2,0-0.2,0c0,0,0,0-0.1,0c0,0-0.1,0-0.1,0c0,0-0.1,0-0.1-0.1c-0.1,0-0.1,0-0.1-0.1c0,0-0.1-0.1-0.1-0.1
				c-0.1-0.1-0.1-0.2-0.1-0.3c0,0,0-0.1,0-0.1s0-0.1,0-0.1s0-0.1,0-0.1c0-0.1,0.1-0.2,0.1-0.3c0,0,0,0,0-0.1c0,0,0-0.1,0.1-0.1
				c0-0.1,0.1-0.1,0.1-0.2s0.1-0.2,0.2-0.3c0,0,0-0.1,0.1-0.1c0.1-0.1,0.2-0.3,0.4-0.5c0.1-0.1,0.1-0.2,0.2-0.3
				c0.1-0.1,0.2-0.2,0.3-0.3c0.1-0.1,0.2-0.2,0.3-0.3c0.1-0.1,0.2-0.2,0.3-0.3c0.2-0.2,0.5-0.4,0.7-0.7h0l0,0h0c0,0,0,0,0.1-0.1
				c0,0,0.1-0.1,0.1-0.1h0c0,0,0.1,0,0.1-0.1c0.2-0.2,0.5-0.4,0.9-0.7c0,0,0,0,0,0c0,0,0.1,0,0.1-0.1c0,0,0.1,0,0.1-0.1
				c2.1-1.5,6.2-4.4,11.1-6.8c0.1-0.1,0.3-0.1,0.4-0.2c1-0.5,2-0.9,3-1.3c0.1-0.1,0.3-0.1,0.4-0.2c0.1,0,0.1,0,0.1-0.1c0,0,0,0,0,0
				c0.6-0.2,1.2-0.5,1.8-0.7c0,0,0,0,0,0c0.9-0.3,1.7-0.6,2.6-0.8c0.3-0.1,0.5-0.2,0.8-0.2c0.8-0.2,1.6-0.4,2.4-0.5
				c0.1,0,0.1,0,0.2,0c0,0,0,0,0,0c0,0,0,0,0.1,0c0.2,0,0.4-0.1,0.6-0.1c0.1,0,0.2,0,0.3,0c0,0,0.1,0,0.2,0s0.1,0,0.1,0
				c0.2,0,0.4,0,0.6-0.1c0.1,0,0.2,0,0.3,0c0.3,0,0.6,0,1-0.1c0.4,0,0.7,0,1.1,0c0.2,0,0.5,0,0.7,0c0,0-0.1,0-0.1-0.1l-0.3-0.3
				c-0.6-0.6-1.1-1.3-1.7-2.1c-1.3-1.8-2.5-4.1-3.5-6.6c-0.2-0.5-0.4-1-0.6-1.5c-1.2-3-2-6.3-2.5-9.3c13.6,5.7,30.6,9.4,47.1,9.5h0
				c0,0.2,0,0.3,0.1,0.5c0,0.2,0,0.4,0.1,0.6c0,0.2,0.1,0.4,0.1,0.6s0.1,0.4,0.1,0.6c0,0.2,0.1,0.4,0.1,0.6c0.1,0.4,0.2,0.8,0.3,1.2
				c0.1,0.2,0.1,0.4,0.2,0.6c0.9,3.3,2.2,7,3.6,10.5c0.4,1.1,0.8,2.2,1.3,3.2c0,0,0,0,0,0c0.2,0.4,0.3,0.9,0.5,1.2
				C511.6,355.9,511.7,356.3,511.7,356.6z"/>
			<path class="st4" d="M588.8,362c-0.2,0.3-0.4,0.5-0.6,0.7c-0.5,0.5-1.3,0.9-2.3,1.1c-4.7,1.1-12.3,1.1-24.1,0.8
				c-0.2,0-0.3,0-0.5,0c-1.1,0-2.2-0.1-3.3-0.1c-2.2-0.1-4.4-0.1-6.6-0.2c-0.5,0-1.1,0-1.6-0.1c-0.6,0-1.2,0-1.8-0.1
				c-0.8,0-1.5-0.1-2.3-0.1c-1.3,0-2.7-0.1-4-0.1h0c-1,0-2-0.1-3-0.1c-0.4,0-0.8,0-1.2,0c0,0,0,0,0,0c0,0-0.1,0-0.1,0
				c-0.2,0-0.4,0-0.6,0c0,0,0,0,0,0c-0.5,0-0.9,0-1.4,0c-1.4,0-2.8-0.1-4.1-0.2c-0.3,0-0.6,0-0.9,0c-0.1,0-0.2,0-0.3,0
				c-0.2,0-0.4,0-0.6,0c-0.6,0-1.2,0-1.8-0.1c-0.3,0-0.5,0-0.8,0c-0.3,0-0.6,0-0.9,0c-1,0-2-0.1-2.9-0.1c-0.2,0-0.4,0-0.5,0
				c-0.2,0-0.3,0-0.4,0c-0.1,0-7.9-0.7-8-0.7c12-4.7,32.8-6.1,42.7-5.5h0.1c4.4,0.3,7.9,0.7,9.8,0.8c6.7,0.2,9.1-1.3,6.3-10.7
				c-2.7-9-11.1-25.6-5.7-53.4c5.7,0.8,14.9,1.1,20.1,1.1c-7.5,15.7-6.1,38.6-1.7,52.1C586.8,350.4,591.1,358.2,588.8,362z"/>
		</g>
		<g>
			<line class="st5" x1="444.9" y1="169.6" x2="444.9" y2="175.5"/>
			<line class="st5" x1="451.2" y1="172.6" x2="451.2" y2="178.5"/>
		</g>
		<path class="st2" d="M587.3,294.6c-16.4,3.3-52,3.4-76.3,3.2c-8.4,0.1-16.7,0-24.6-0.3c-16.8-0.6-34.5-3.3-50.1-7
			c-4.1-1-8.1-2-11.8-3.2c-2.6-0.8-5-1.6-7.3-2.4c0,0,0,0,0,0v0h0c-2.7-1-5.2-2.2-7.5-3.4c-0.6-0.3-3.7-1.4-3.8-2.3
			c-0.2-1.2,1.6-16.4,3-22c0,0,0,0,0,0c0.6-2.4,1.4-4.8,2.1-7.1c0.8-2.3,1.6-4.5,2.4-6.6c0.2-0.7,0.5-1.3,0.8-1.9
			c0.1-0.3,0.3-0.7,0.4-1c0.7-1.7,1.6-3.7,2.4-5.6c0.2-0.4,0.4-0.8,0.6-1.2l0,0v0c0.2-0.4,0.4-0.9,0.6-1.3c0.1-0.2,0.2-0.4,0.2-0.5
			c0.2-0.3,0.3-0.6,0.4-0.8c0.1-0.2,0.2-0.4,0.3-0.6c0.3-0.6,0.6-1.2,1-1.8c0,0,0,0,0,0c0.4-0.8,0.8-1.5,1.2-2.2c0,0,0,0,0,0
			c0,0,0,0,0,0c-0.1-0.2-0.2-0.3-0.2-0.5c0,0,0,0,0-0.1c-0.9-1.9-1.4-4-1.5-6.1c0-0.2,0-0.3,0-0.5c0-0.6,0-1.2,0-1.8v-0.1
			c0-0.2,0-0.5,0.1-0.7c0.1-1.6,0.4-3.2,0.8-4.8c0.3-1.3,0.7-2.6,1.1-3.9c1.9-5.5,4.8-10.8,7-15.1c0.1-0.2,0.2-0.3,0.3-0.6
			c0.1-0.2,0.2-0.4,0.3-0.6c0,0,0,0,0,0c0.1-0.2,0.2-0.5,0.4-0.7c0.1-0.2,0.3-0.5,0.4-0.8c0.3-0.6,0.6-1.2,0.8-1.8c0,0,0,0,0,0
			c0.1-0.2,0.1-0.4,0.2-0.6c0-0.1,0-0.2,0.1-0.2v0c0,0,0,0,0,0v-0.1c0,0,0,0,0,0c0-0.8-1-1.9-1.2-3.2c0-0.1,0-0.1,0-0.2
			c0-0.3,0-0.7,0.1-1c0-0.1,0.1-0.2,0.1-0.3c0.3-0.6,1.1-1.9,1.9-3c0.2-0.3,0.4-0.6,0.7-0.8c0.1-0.1,0.1-0.1,0.2-0.2
			c0.1-0.1,0.3-0.2,0.4-0.3c0,0,0.1,0,0.1,0c0.1,0,0.1,0,0.1,0c0,0,0.1,0.1,0.1,0.1c0,0,0,0,0,0.1c0,0,0,0.1,0,0.1v0
			c0,0,0,0.1,0,0.1c0,0.1,0,0.1,0,0.2c0,0,0,0,0,0c0,0,0,0,0,0.1h0c10.8,3.1,20.5,5,29.5,6c25.3,2.9,43.8-1.1,58.2-5
			c10.4-2.8,30.8-10.7,50.8-19.3C572.6,183.5,598.1,257.8,587.3,294.6z"/>
		<path class="st6" d="M514.9,361.8c7.7-3.9,17.1-6.7,26.3-7.8c4-0.5,8-0.7,11.8-0.5"/>
		<path class="st6" d="M436.7,361.9c4.9-4.1,27.2-12.3,35.5-10.9"/>
		<path class="st6" d="M542.1,347c8.1,3.2,15.9,9.3,19.7,17"/>
		<path class="st6" d="M466.7,346.4c5.4,3.6,10.4,7.9,13.3,13.6"/>
		<g>
			<path class="st6" d="M529.2,333.2c2.2,6.4,6.6,11.6,12.9,13.8c-18.1,3.2-25.1,9.5-29.4,14.9c-0.5,1.1,13.5,1.6,29,2.1
				c18,0.7,36.7,1.6,44.2-0.1c7.4-1.7,1.2-12.7-0.3-17.1c-4.8-14.8-5.6-37.2,1.7-52.1"/>
			<path class="st6" d="M505.1,336c0,0.2,0,0.3,0.1,0.5c0,0.2,0.1,0.4,0.1,0.6c0,0.2,0.1,0.4,0.1,0.6c0,0.2,0.1,0.4,0.1,0.6
				c0,0.2,0.1,0.4,0.1,0.6c0.1,0.4,0.2,0.8,0.3,1.2c0.1,0.2,0.1,0.4,0.2,0.6c0.2,0.6,0.3,1.2,0.5,1.8c0.2,0.5,0.3,1.1,0.5,1.6
				c1.2,3.8,2.9,7.9,4.3,11.4c0.1,0.3,0.2,0.6,0.2,0.9c0,0.1,0,0.2,0,0.2c0,0.1,0,0.2,0,0.3c-0.8,4-13.3,4.1-16.2,4.2
				c-5.3,0.2-11.8,0.5-17.1,0.6c-13.1,0.2-37.9,1.5-40.9,1.5c-1.5,0-2.7-0.1-2.8-0.6c0,0,0-0.1,0-0.1c-0.1-0.6,0.7-1.7,2.9-3.6
				c1-1,16.4-12.8,29.2-12.4c0,0,0,0,0.1,0c-1.9-1.9-3.8-4.9-5.3-8.4c-0.1-0.2-0.2-0.5-0.3-0.7c-0.2-0.5-0.4-1-0.6-1.5
				c-1.2-3-2.1-6.3-2.5-9.3"/>
		</g>
		<g>
			<path class="st10" d="M420.7,103.6c1.1-11.6,4.8-16.6,11.7-20.3c9.3-4.9,14.2-7,24.3-8c3.6-0.3,7.7-0.5,8.3-4.1
				c0.3-1.6-0.3-3.3-1.9-5.5c3.2,0,6.6,1.3,9.2,3.4c5.2,4.2,13.1,6.8,19.3,6.6c21.7-0.7,35.5,1.8,46,20.9c2.4,4.3,6,14.1,3.5,25
				c-3.6,15.9-5.5,22.6-22.7,34.5c-20.5,14.2-63,21.2-84.2-5.6C424.3,138,419.1,120.9,420.7,103.6z"/>
			<path class="st11" d="M462.2,111.5c-7.2-3.6-13,14.5-12.4,19.7c2,17.8,28,16.9,40.1,10.8c17.4-8.7-3.9-36.7-16.3-31.8"/>
			<path class="st11" d="M420.7,103.6c-1.4,13.6,2.3,28.9,5.3,31.1c2.3,1.7,14.4-5.6,22.4-17.6c8.5-12.6,9.5-32.8,4.1-39.3
				c-1.1-1.4-15.8,1.5-24.6,7.9C425.2,87.7,422,91.4,420.7,103.6z"/>
			<path class="st11" d="M488.1,76.9c-7.8,44.6,43.2,68.6,48.2,61.4c3.2-4.6,10-24,2.4-39.4c-3.9-7.9-9.9-11.3-14.7-14
				c-6-3.3-13.8-5.7-22.2-7.3C495.6,76.4,488.5,74.4,488.1,76.9z"/>
		</g>
		<g>
			<path class="st12" d="M457.9,111.6c-0.1-2.7,5.2-5.1,11.8-5.5c6.7-0.3,12.2,1.6,12.3,4.3c0.1,2.7-5.2,5.1-11.8,5.5
				C463.5,116.2,458,114.3,457.9,111.6z"/>
			<path class="st20" d="M469.9,112.8c0,4.8,0,10.7,1.3,17.3"/>
		</g>
		<g>
			<path class="st14" d="M535.6,94.5c-11.9-13.5-27.7-17.8-46.2-17.6"/>
			<path class="st14" d="M417.2,98.7c9.8-13,17.1-17.8,35.3-20.9"/>
		</g>
		<path class="st20" d="M462.6,125.3c4.3,7.5,13.6,6.3,16.9-2.5"/>
		<path class="st6" d="M433.9,171.7c-9.9,0.7-27.2,14.4-31.8,49.6c3.2,4.5,10.3,6.7,18,7.4"/>
		<path class="st3" d="M447,346c-0.4,0.6-1.7,0.5-3-0.3c-1.3-0.8-3-2.3-5.2-4.4c-0.3-0.3-0.7-0.7-1-1c-0.4-0.4-0.9-0.9-1.3-1.4
			c-0.3-0.3-0.6-0.7-1-1c-0.8-0.9-1.7-1.8-2.6-2.8c-3.5-3.9-7.2-8.9-10.8-14.8c7.1,2.1,11.5,0.9,17.2-1.4c0.8,2.8,2.3,6.6,3.6,9.8
			C446.9,338.8,448,344.4,447,346z"/>
		<path class="st6" d="M407.6,280.4c4.6,21.2,13,41.7,24.5,53.8c16.2,17.1,19.1,16.9,11.1-4.5c-2-5.3-3.3-9.4-4-13.1"/>
		<path class="st6" d="M405.1,224.1c-2.6,13.2-2.2,30.9,1.1,49.2"/>
		<path class="st6" d="M430.9,321.6c1.3,6.5,7.9,15.4,15.7,24.3"/>
		<path class="st6" d="M403.2,214.5c4.9,4,10,5.5,15.9,6.4"/>
		<path class="st6" d="M422.1,320.3c5.1,1.5,10,1.7,17.2-1.4"/>
		<g>
			<line class="st5" x1="446.4" y1="300.3" x2="446.4" y2="306.3"/>
			<line class="st5" x1="452.6" y1="304.2" x2="452.5" y2="310.2"/>
			<path class="st4" d="M412,247.3c3.6-4.3,8-10.1,10.1-11.3c4.3-2.7,10.4-2.3,15.2-2.3c12.4,0,22,10.2,35.2,11.5
				c8.1,0.8,22.4-6.9,20.2-10.8c-1.9-3.2-5-0.7-21.9-1.2c-12.7-0.4-24.2-1.5-36.6-3.6c-3-0.5-10.1-0.5-12.6-5
				c-0.5,2-2.7,6.8-3.7,8.9C415.4,238.2,413.3,243.8,412,247.3z"/>
			<path class="st6" d="M433.4,179.2c41.2,11.8,83.1,3.4,87.7,1.1"/>
			<path class="st6" d="M511,297.9c-8.4,0.1-16.7,0-24.5-0.3c-21.3-0.8-43.9-4.9-61.9-10.2c-2.6-0.8-13.8-4.9-18.7-8.2
				c1.1-14.5,4.1-26.7,7.6-35.6c0.2-0.7,0.5-1.3,0.8-1.9c0.1-0.3,0.3-0.7,0.4-1c0.7-1.7,1.6-3.7,2.4-5.6c0.2-0.4,0.4-0.8,0.6-1.2
				l0,0v0c0.2-0.4,0.4-0.9,0.6-1.3c0.1-0.2,0.2-0.3,0.2-0.5c0.1-0.3,0.3-0.6,0.4-0.9c0.9-1.7,1.7-3.3,2.5-4.7c0,0,0,0,0-0.1
				c-0.1-0.2-0.2-0.4-0.2-0.5c0,0,0,0,0-0.1c-0.9-1.9-1.4-4-1.5-6.1c0-0.2,0-0.3,0-0.5c0-0.9,0-1.8,0-2.6c0.1-1.6,0.4-3.2,0.8-4.8
				c1.7-6.9,5.5-13.7,8.2-18.9c0.7-1.3,2.4-4.1,2.5-5.3c0,0,0,0,0-0.1c0,0,0,0,0-0.1c0,0,0,0,0,0c0-0.8-1-1.9-1.2-3.2
				c0-0.1,0-0.1,0-0.2c0-0.4,0-0.9,0.2-1.3c0.3-0.6,1.1-1.9,1.9-3c0.2-0.3,0.5-0.6,0.7-0.8c0.1-0.1,0.1-0.1,0.2-0.2
				c0.2-0.2,0.4-0.3,0.5-0.3c0.1,0,0.2,0,0.2,0.2c0,0,0,0.1,0,0.1c0,0.1,0,0.2,0,0.3c0,0,0,0,0,0c0,0,0,0.1,0,0.1h0c0,0,0,0.1,0,0.1
				c0,0,0,0,0,0.1"/>
			<path class="st6" d="M439.8,181.3c-0.6,1.7-1.2,3-1.2,4.9"/>
			<path class="st6" d="M450.3,183.4c-0.8,1.6-0.9,3.6-0.9,5.4"/>
			<line class="st6" x1="462.9" y1="185.1" x2="462.2" y2="189.3"/>
			<polyline class="st6" points="471.8,186.2 471.8,186.9 471.8,187.4 471.8,188.1 471.8,188.6 471.8,189 471.8,189.5 			"/>
			<polyline class="st6" points="466.9,186.5 466.9,186.9 466.9,187.4 466.9,187.9 466.9,188.3 466.9,188.8 			"/>
			<polyline class="st6" points="501.7,185.1 501.7,185.5 501.7,186 501.7,186.9 501.7,187.4 			"/>
			<polyline class="st6" points="505.2,185.1 505.2,185.8 505.2,186.5 505.2,186.9 			"/>
			<g>
				<g>
					<g>
						<path class="st7" d="M462.9,222.2c-0.5-1.7-2-3-4.8-3.1c-5.8-0.3-11.8-0.4-19.1-0.6c-0.2,0.6-0.3,1.1-0.5,1.7
							c-1.2,3.3-2.9,6.4-4.7,9.4c-0.4,0.8-0.9,1.5-1.3,2.3c-0.4,0.6-0.7,1.2-1,1.8c-2.4,4.3-4.4,8.7-4.6,13.9c3.3,0,6.4,0.1,9.7,0.2
							c-0.2-4.2,1.4-8.1,3.5-11.8c2.9-0.4,3.4,0.8,3.6,2.5c0.3,3.1,1.1,6.3,2.8,9.7c3.5,0.2,6.8,0.4,10.5,0.7
							c-2-3.5-1.9-7.2-2.8-10.2c-0.2-0.6-0.4-1.1-0.6-1.6c-0.4-0.8-0.9-1.4-1.7-2c0.5-0.1,0.8-0.2,1.1-0.2c1.8-0.5,3.4-1.2,4.8-2.1
							c0.1,0,0.1-0.1,0.2-0.2c2.4-1.6,4.2-3.8,5-6.6C463.2,224.6,463.3,223.3,462.9,222.2z M446.6,224.6c2,0,3.9-0.1,5.6,0.1
							c1.7,0.2,2,1.4,1.2,2.9c-0.8,1.4-2.2,2.5-4,2.6c-2,0.2-3.9,0.2-6,0.2C444.6,228.3,445.7,226.5,446.6,224.6z"/>
						<path class="st7" d="M489.6,227.6c-3.2,0.2-6.1,0.3-9,0.5c0.4-2.6-0.7-3.9-3-4c-1.5-0.1-2.9,0.4-4,2.2c-0.4,1.5,0.3,2,1.3,2.3
							c1.9,0.6,3.8,1.2,5.7,1.8c1.1,0.4,2.1,0.8,3.1,1.4c6.3,3.4,2.9,12.2-3.2,16.2c-2,1.3-4.4,2.1-6.5,2.4c-3.5,0.5-6.9,0.2-10.2-1
							c-4.3-1.5-6.8-5.6-4.9-10.5c2.8,0,5.5,0,8.5-0.1c0,0.6-0.1,1.2-0.1,1.7c0.1,3,2.9,4.5,6.1,3.5c1.4-0.5,2.6-1.4,3.1-2.8
							c0.4-1.3,0-2.3-1-2.8c-0.9-0.5-1.8-0.8-2.7-1.1c-1.9-0.7-3.8-1.3-5.5-2.2c-3.1-1.8-3.5-4.6-2-7.9c1.7-3.7,4.6-6.7,8.5-7.8
							c3.7-1.1,7.4-1.1,11.2,0.2C488.8,220.5,490.6,223,489.6,227.6z"/>
					</g>
				</g>
			</g>
			<path class="st6" d="M541.7,328.5c-10.6,5.3-23.4,7.5-36.6,7.4h0c-16.5-0.1-33.5-3.8-47.1-9.5c0,0,0,0,0,0
				c-0.5-0.2-1-0.4-1.5-0.7c-6.6-2.9-13.7-6-19.1-10.8c-5-4.5-6.3-7.4-7.1-7.9c-0.2-0.1-0.1,3.3-0.2,3.3c-2.3,0.8-5.8-12.3-6.7-13.8
				c-0.7-1.2-2.4,3.5-2.4,3.5s-4-7.9-3.9-15.3c0,0,0-0.1,0-0.1"/>
			<path class="st6" d="M430.9,187.5c7.6,5.6,39.4,12.4,80.6,5.9"/>
		</g>
		<g>
			<path class="st0" d="M509.5,90.5L509.5,90.5c6.2-0.4,11.5,4.3,11.9,10.5l0,0.7c0.4,6.2-4.4,11.4-10.6,11.8
				c-6.2,0.4-11.5-4.3-11.9-10.5l0-0.7C498.6,96.1,503.3,90.8,509.5,90.5z"/>
			<path class="st21" d="M509.5,90.5L509.5,90.5c6.2-0.4,11.5,4.3,11.9,10.5l0,0.7c0.4,6.2-4.4,11.4-10.6,11.8
				c-6.2,0.4-11.5-4.3-11.9-10.5l0-0.7C498.6,96.1,503.3,90.8,509.5,90.5z"/>
			<circle class="st7" cx="510.2" cy="102" r="2.3"/>
		</g>
		<g>
			<path class="st0" d="M435.3,91.1L435.3,91.1c5.9-0.3,10.9,4.1,11.2,9.9l0,0.7c0.3,5.8-4.1,10.8-10,11.2
				c-5.9,0.3-10.9-4.1-11.2-9.9l0-0.7C425,96.5,429.5,91.4,435.3,91.1z"/>
			<path class="st21" d="M435.3,91.1L435.3,91.1c5.9-0.3,10.9,4.1,11.2,9.9l0,0.7c0.3,5.8-4.1,10.8-10,11.2
				c-5.9,0.3-10.9-4.1-11.2-9.9l0-0.7C425,96.5,429.5,91.4,435.3,91.1z"/>
			<circle class="st7" cx="436" cy="102" r="2.3"/>
		</g>
		<g>
			<g>
				<path class="st8" d="M517.7,308.4l-44.1-68.5c-3.3-5.2-1.8-12.1,3.3-15.4l42.9-27.6c5.2-3.3,12.1-1.8,15.4,3.3l44.1,68.5
					c3.3,5.2,1.8,12.1-3.3,15.4l-42.9,27.6C527.9,315.1,521,313.6,517.7,308.4z"/>
				<path class="st4" d="M576,284.4L532.7,312c-5.7,3.2-11.2,2-14.7-3.2l-44.9-69.7c-2.6-4.4-1.8-8.3,0.1-11
					c1.5-2.2,3.8-3.5,5.2-4.3c-4.2,5.2-3.9,10.9-1.7,14.2c12.1,18.8,43.4,66.2,43.4,66.2c3.5,5.1,8.1,5.3,12.9,2.7
					c0,0,26.4-17,39.5-25.4c3.5-2.3,7.4-7.8,4.5-16.5c1.4,2.1,3,3.9,3.8,5.8C581.8,273,582.9,279.6,576,284.4z"/>
				<path class="st9" d="M532.3,202.6c-3.3-4-6.7-4.2-11.8-1.9c0,0-1.7,0.8-48.3,27l48.4-31.2c5.4-3.3,11.1-2.2,14.7,3.2l47.7,74
					C557.9,238.2,532.3,202.6,532.3,202.6z"/>
				<path class="st6" d="M517.7,308.4l-44.1-68.5c-3.3-5.2-1.8-12.1,3.3-15.4l42.9-27.6c5.2-3.3,12.1-1.8,15.4,3.3l44.1,68.5
					c3.3,5.2,1.8,12.1-3.3,15.4l-42.9,27.6C527.9,315.1,521,313.6,517.7,308.4z"/>
				<g>
					<g>
						<path d="M525.5,241.6c1.4,2.2,2.7,4.4,4,6.6c1,1.8,0.3,3.2-0.7,4c-1.4,1.1-2.9,1.1-4.4,0c-0.1-0.1-0.1-0.1-0.3-0.3
							c0.2,2.4-1.5,3.9-2.4,5.9c-0.8-1.3-1.5-2.4-2.3-3.5c0.7-1.2,1.3-2.4,2-3.7c0.4-0.7,0.5-1.4-0.2-2.1c-1.3,0.8-2.6,1.7-4,2.5
							c-0.7-1.1-1.3-2-2-3C518.7,245.9,522,243.8,525.5,241.6z M525.3,246c-0.7,0.4-1.3,0.8-2,1.3c0.5,0.6,0.9,1.3,1.4,1.9
							c0.4,0.5,1,0.6,1.5,0.3c0.5-0.3,0.7-0.9,0.4-1.5C526.2,247.3,525.8,246.7,525.3,246z"/>
						<path d="M534.5,261.8c-0.7-0.9-1.3-1.8-2-2.7c0.7-0.7,0.9-1.5,0.3-2.3c-0.3-0.5-0.8-0.9-1.5-0.7c-0.5,0.3-0.4,0.8-0.3,1.3
							c0.3,0.8,0.6,1.7,0.8,2.5c0.1,0.5,0.2,1,0.3,1.4c0.5,3.1-2.5,4.8-4.8,3.9c-0.8-0.3-1.5-0.8-2.1-1.5c-0.9-1-1.6-2.2-2-3.5
							c-0.6-1.7,0.1-3.5,1.7-4.5c0.6,0.9,1.3,1.8,2,2.7c-0.2,0.2-0.3,0.4-0.4,0.5c-0.7,1-0.5,2.3,0.5,3c0.4,0.3,0.9,0.4,1.4,0.1
							c0.4-0.3,0.6-0.7,0.5-1.2c-0.1-0.4-0.2-0.8-0.3-1.2c-0.2-0.9-0.5-1.7-0.7-2.6c-0.3-1.7,0.2-3,1.4-3.6c1.3-0.7,2.8-0.6,4.1,0.6
							c1.2,1.1,2.1,2.4,2.5,4C536.2,259.6,535.8,260.7,534.5,261.8z"/>
					</g>
					<g>
						<path d="M525.5,241.6c1.4,2.2,2.7,4.4,4,6.6c1,1.8,0.3,3.2-0.7,4c-1.4,1.1-2.9,1.1-4.4,0c-0.1-0.1-0.1-0.1-0.3-0.3
							c0.2,2.4-1.5,3.9-2.4,5.9c-0.8-1.3-1.5-2.4-2.3-3.5c0.7-1.2,1.3-2.4,2-3.7c0.4-0.7,0.5-1.4-0.2-2.1c-1.3,0.8-2.6,1.7-4,2.5
							c-0.7-1.1-1.3-2-2-3C518.7,245.9,522,243.8,525.5,241.6z M525.3,246c-0.7,0.4-1.3,0.8-2,1.3c0.5,0.6,0.9,1.3,1.4,1.9
							c0.4,0.5,1,0.6,1.5,0.3c0.5-0.3,0.7-0.9,0.4-1.5C526.2,247.3,525.8,246.7,525.3,246z"/>
						<path d="M534.5,261.8c-0.7-0.9-1.3-1.8-2-2.7c0.7-0.7,0.9-1.5,0.3-2.3c-0.3-0.5-0.8-0.9-1.5-0.7c-0.5,0.3-0.4,0.8-0.3,1.3
							c0.3,0.8,0.6,1.7,0.8,2.5c0.1,0.5,0.2,1,0.3,1.4c0.5,3.1-2.5,4.8-4.8,3.9c-0.8-0.3-1.5-0.8-2.1-1.5c-0.9-1-1.6-2.2-2-3.5
							c-0.6-1.7,0.1-3.5,1.7-4.5c0.6,0.9,1.3,1.8,2,2.7c-0.2,0.2-0.3,0.4-0.4,0.5c-0.7,1-0.5,2.3,0.5,3c0.4,0.3,0.9,0.4,1.4,0.1
							c0.4-0.3,0.6-0.7,0.5-1.2c-0.1-0.4-0.2-0.8-0.3-1.2c-0.2-0.9-0.5-1.7-0.7-2.6c-0.3-1.7,0.2-3,1.4-3.6c1.3-0.7,2.8-0.6,4.1,0.6
							c1.2,1.1,2.1,2.4,2.5,4C536.2,259.6,535.8,260.7,534.5,261.8z"/>
					</g>
				</g>
			</g>
			<g>
				<path class="st1" d="M613.9,282.1c-2.5,8.3-12.9,13.7-36.1,12.4c-17-1-31.4-3.9-54.2-13.4c-11.1-4.7-17.1-2.6-21.9-9.3
					c-11.7-16.1-22.6-12-21.3-14.2c1.3-2.2,6.9-7.9,14.1-8.5c13.7-1.1,17.8,11,25.9,11.7c13.3,1.1,48,3,49.9,0.1
					c1.4-2.1-2.7-6.7-6.3-12.4c-2.5-4-3.2-6.7-3.9-10.8c0.1-0.1,21.2-23.3,53.5-15.1c0.8,0.2,2.4,7.4,3.4,13.7
					C620.7,258.7,616.9,272.5,613.9,282.1z"/>
				<path class="st2" d="M615.7,222.4c-0.5,0.2-1.2,0.3-2,0.2c-29-2.2-41.6,7.9-50.8,14.8c-0.1,0.1-0.2,0.2-0.3,0.2
					c-5.4,3.8-6.6-2.2-6.7-7.8c-0.8-1.4-2.4-3.9-4.9-6.9c-0.8-3.7-1.6-8.4-3.5-11.6l-4.1-34.2c6.2-8.7,18.2-19.9,34.9-16.9
					c19.6,3.6,29.5,15.5,37.4,53.8C616.2,216.3,618.7,221.3,615.7,222.4z"/>
				<path class="st4" d="M615.7,222.4c-0.5,0.2-1.2,0.3-2,0.2c-3.8-0.3-7.4-0.4-10.7-0.3c-0.3-4.5-0.9-9.1-1.7-13.6
					c-2.4-13.7-10.8-47.2-31.9-48.9c2.8-0.3,5.8-0.3,8.9,0.3c19.6,3.6,29.5,15.5,37.4,53.8C616.2,216.3,618.7,221.3,615.7,222.4z"/>
				<path class="st3" d="M506.9,276.1c-1.9-0.9-3.6-2.2-5.2-4.4c-11.7-16.1-22.6-12-21.3-14.2c1.3-2.2,6.9-8,14.1-8.5
					c11.1-0.9,16,7,21.8,10.3C511.3,261.9,505.5,266.3,506.9,276.1z"/>
				<path class="st4" d="M613.9,282.1c-2.5,8.3-12.9,13.7-36.1,12.4c-17-1-31.4-3.9-54.2-13.4c-11.1-4.7-17.1-2.6-21.9-9.3
					c-11.7-16.1-22.6-12-21.3-14.2c1-1.7,4.7-5.7,9.8-7.5c-1.1,3.5,5.3,4.7,10.1,9.9c5.5,6,4.4,10.2,13.7,13.7
					c9.3,3.5,48.5,15.3,70.3,13.2c21.7-2.1,21.2-6.8,23.2-15.2c2-8.6,1-26.6-3.1-49.3c2.9,0,6.3,0.2,9.3,0.3c0.8,0,2.4,7.4,3.4,13.7
					C620.7,258.7,616.9,272.5,613.9,282.1z"/>
				<path class="st6" d="M560.2,237.7c0.6,3.3,2,6.7,3.2,9.3c2.8,6.1,8.3,11.7,7,13.8c-1.9,2.9-36.6,1-49.9-0.1
					c-8.1-0.7-12.2-12.8-25.9-11.7c-7.3,0.6-12.8,6.4-14.1,8.5c-1.3,2.2,9.6-1.9,21.3,14.2c4.9,6.7,10.8,4.7,21.9,9.3
					c22.8,9.5,37.1,12.5,54.2,13.4c23.2,1.3,33.1-4.3,36.1-12.4c3.3-8.8,6.9-25.6,3-47.4c-0.6-3.2-1.6-9.1-3.2-12.1"/>
				<path class="st6" d="M562.9,237.4c-7,1.5-6.9-2.1-7-7.9"/>
				<path class="st6" d="M550.9,222.9c2.6,3.1,4.2,5.7,5,7"/>
				<path class="st6" d="M550.9,222.9c-0.8-3.7-1.6-8.4-3.5-11.6"/>
				<path class="st6" d="M543.4,177.1c6.2-8.7,18.2-19.9,34.9-16.9c19.6,3.6,29.5,15.5,37.4,53.8c0.6,2.8,3.9,9.2-2,8.7
					c-12.5-1.2-27.2,0-41.1,8"/>
				<path class="st6" d="M556.8,229.6c9-9.7,25.4-18.3,41.6-16.8"/>
				<path class="st6" d="M564.2,224.1c0.6,1.6,1.4,2.6,2.4,4"/>
				<line class="st6" x1="572.6" y1="219.3" x2="574.5" y2="222.9"/>
				<line class="st6" x1="580.9" y1="215.7" x2="581.9" y2="219.6"/>
				<g>
					<line class="st5" x1="604.4" y1="244.8" x2="604.3" y2="250.7"/>
					<line class="st5" x1="598.3" y1="249.5" x2="598.3" y2="255.4"/>
				</g>
				<path class="st6" d="M506.9,276.1c-1.1-6.4,1.8-13.3,9.4-16.7"/>
				<path class="st6" d="M480.4,257.6c11.7-5.5,19.5-4.9,29,7.1"/>
			</g>
		</g>
		<path class="st6" d="M571.9,159.4c0.5-44.2-14.7-85.6-59.6-107.7c-3.4-1.6-8.4-3.8-12.2-5.1c-10.2-3.4-19.7-6.1-22.3-8.5
			c-1,2.1,0,4.2,2.4,4.9c-11.5-0.2-20.7-3.8-26.1-9.1c-2.1,2.5-2.2,7,1.1,10.5c-7.8-3.3-17.5-3.3-24.4,2.3c4.6-0.7,10.3,0,10.3,2.1
			c0,1.8-12.7,0.7-17.5,8.4c5.2-2,11.7,0.3,11.6,0.8c-3.4,0.8-5.6,1.9-8.3,6.7c3-1.4,6.5-1.2,9.1-0.9c-4.8,3.2-8.6,7.3-11.8,12.6
			c-13.9,23.5-6.5,51,4.7,73.4c1,2,2.4,4.2,2.7,6.5c0.2,1.1-0.5,3,0,4c0.2,0.4,1.2-1.1,1.3-0.6c0.3,2.1,0,4.4-0.2,6.5
			c-0.1,0.8-1,2.8-0.4,2.3c0.2-0.2,0.7-1.9,1.5-1.7c0.4,0.1,0,11.3-0.3,12.4"/>
		<path class="st6" d="M555.3,297.4c6.2-0.3,22.4-0.9,32-2.7"/>
		<path class="st4" d="M522.1,334.7c-0.3,0-0.6,0.1-0.9,0.1c-0.4,0.1-0.8,0.1-1.2,0.2c-0.6,0.1-1.2,0.2-1.8,0.2
			c-1.2,0.1-2.3,0.3-3.5,0.4c0,0,0,0,0,0c-3.2,0.3-6.4,0.4-9.7,0.4h0c-16.5-0.1-33.5-3.8-47.1-9.5c0,0,0,0,0,0h0v0
			c-0.5-0.2-1-0.4-1.5-0.7c-2.9-1.3-5.9-2.6-8.8-4c-0.8-0.4-1.6-0.9-2.4-1.3c-2.1-1.2-4.1-2.4-5.9-3.9c-0.7-0.5-1.3-1-1.9-1.6
			c-0.3-0.3-0.6-0.6-0.9-0.8c-0.4-0.4-0.8-0.8-1.2-1.1c-0.5-0.5-0.9-1-1.3-1.4c-0.2-0.2-0.4-0.4-0.6-0.6l0,0
			c-0.2-0.2-0.3-0.4-0.5-0.6c-1.3-1.6-2-2.7-2.4-3.1c-0.1,0-0.1-0.1-0.2-0.1h0v0c-0.2-0.1-0.1,3.3-0.2,3.3c-0.1,0-0.3,0-0.4,0
			c-0.4-0.1-0.9-0.7-1.4-1.5c-0.2-0.3-0.3-0.6-0.5-0.9c-1-1.9-2-4.7-2.8-7c-0.1-0.2-0.1-0.4-0.2-0.6c-0.7-1.9-1.2-3.4-1.4-3.8
			c-0.1-0.1-0.1-0.2-0.2-0.2c-0.1,0-0.3,0-0.4,0.2c-0.3,0.3-0.6,0.9-0.9,1.5c0,0.1-0.1,0.1-0.1,0.2c0,0,0,0,0,0.1
			c-0.1,0.2-0.2,0.4-0.3,0.7c0,0.1-0.1,0.2-0.1,0.3c0,0,0,0,0,0c-0.2,0.4-0.3,0.8-0.3,0.8c-0.1-0.1-1-2-1.9-4.7
			c-0.1-0.2-0.1-0.4-0.2-0.5c-0.1-0.4-0.2-0.8-0.4-1.1c-0.8-2.6-1.5-5.8-1.4-8.8v0h0v-0.1h0v0c0,0,0,0,0,0c1.6,0.6,3.3,1.2,5.1,1.8
			c0,0,0.1,0,0.1,0c0.9,0.3,1.7,0.6,2.2,0.7c3.8,1.1,7.7,2.2,11.8,3.2c15.6,3.7,33.2,6.4,50.1,7c3.2,0.1,6.5,0.2,9.9,0.2
			c-25.9,0.3-47.6-3.5-58.2-4c-3.4-0.1-5.7,0.1-6.6,0.9c-1.4,1.3-0.5,8,7.1,15.3c2.3,2.2,5.2,4.4,8.8,6.5
			C466,327.5,500.5,336.8,522.1,334.7z"/>
		<path class="st4" d="M433.8,171.7c0,0.9,0,1.8-0.1,2.8c0,0.1,0,0.2,0,0.3v0.2c0,0.1,0,0.2,0,0.3c0,0.2,0,0.4,0,0.6
			c0,0.2,0,0.3,0,0.5c0,0.3,0,0.6-0.1,0.9c0,0.2,0,0.4,0,0.7c0,0.2,0,0.3,0,0.5c0,0.2,0,0.3,0,0.4c0,0,0,0.1,0,0.1c0,0,0,0,0-0.1
			c0,0,0,0,0-0.1l0,0c0,0,0,0,0-0.1c0,0,0-0.1-0.1-0.1c0,0-0.1-0.1-0.1,0c0,0-0.1,0-0.1,0c-0.1,0-0.2,0.1-0.4,0.3
			c-0.1,0.1-0.1,0.1-0.2,0.2c-0.2,0.2-0.4,0.5-0.7,0.8c-0.8,1-1.6,2.4-1.9,3c0,0.1-0.1,0.2-0.1,0.3c0,0,0,0.1,0,0.1
			c0,0.1,0,0.1,0,0.2c0,0,0,0.1,0,0.2c0,0.2,0,0.4,0,0.5v0l0,0.2c0,0.2,0.1,0.3,0.1,0.5c0.3,0.9,0.8,1.7,1,2.3c0,0.1,0,0.1,0,0.1
			c0,0.1,0.1,0.2,0.1,0.3c0,0,0,0,0,0v0c0,0,0,0,0,0v0c0,0,0,0,0,0c0,0.1,0,0.1,0,0.2c0,0.2-0.1,0.4-0.2,0.6c0,0,0,0,0,0
			c-0.2,0.5-0.5,1.2-0.8,1.8c-0.1,0.2-0.3,0.5-0.4,0.8c-0.1,0.2-0.3,0.5-0.4,0.7c0,0,0,0,0,0c-0.1,0.2-0.2,0.4-0.3,0.6
			c-0.1,0.2-0.2,0.4-0.3,0.6c-2.2,4.3-5.1,9.6-7,15.1c-0.4,1.3-0.8,2.6-1.1,3.9c-0.2,0.6-0.3,1.2-0.4,1.8c0,0.2-0.1,0.4-0.1,0.6
			c-0.1,0.4-0.1,0.8-0.2,1.2c-0.1,0.4-0.1,0.8-0.1,1.2c0,0.2,0,0.5,0,0.7v0.1c0,0.2,0,0.4,0,0.6c0,0.4,0,0.8,0,1.2
			c0,0.2,0,0.3,0,0.5c0,0.2,0,0.5,0.1,0.7c0,0.2,0,0.3,0.1,0.5c0,0.3,0.1,0.6,0.1,0.9c0,0.2,0.1,0.4,0.1,0.6c0,0,0,0,0,0.1
			c0,0.2,0.1,0.3,0.1,0.4c0,0.1,0,0.1,0,0.2c0,0.1,0,0.1,0,0.1c0.1,0.2,0.1,0.4,0.2,0.5c0.1,0.2,0.1,0.4,0.2,0.7
			c0.2,0.4,0.3,0.9,0.5,1.3c-0.3,0.8-0.7,1.8-1.1,2.8c0,0,0,0,0,0c-0.4,1-0.9,1.9-1.2,2.8c0,0,0,0.1-0.1,0.1
			c-0.1,0.1-0.1,0.3-0.2,0.4c-0.1,0.2-0.2,0.3-0.2,0.5c-0.2,0.4-0.4,0.9-0.6,1.3v0l0,0c-0.2,0.4-0.4,0.8-0.6,1.2
			c-0.9,1.9-1.7,3.8-2.4,5.6c-0.1,0.4-0.3,0.7-0.4,1c-0.2,0.6-0.5,1.3-0.8,1.9c-0.8,2.1-1.6,4.3-2.4,6.6c-0.8,2.3-1.5,4.7-2.1,7.1
			c0,0,0,0,0,0c-0.1,0.4-0.2,0.9-0.3,1.4c-0.8,3.2-1.4,6.6-1.6,9.8c-0.2,1.2-0.3,2.4-0.5,3.6c-1-5.8-1.7-11.6-2.2-17.3
			c3.1-7.9,6.3-17.4,9.2-27.2c0.2,0,0.5,0.1,0.7,0.2c-0.2,0-0.5-0.1-0.7-0.2c0,0,0,0,0,0c0.7-2.4,1.4-4.9,2.1-7.4
			c4.9-17.7,8.9-35.4,10.9-46c1.4-0.8,2.7-1.3,3.9-1.8c0.5-0.2,1.1-0.3,1.6-0.4c0.1,0,0.3-0.1,0.4-0.1c0.4-0.1,0.9-0.1,1.3-0.2
			C433.7,171.7,433.8,171.7,433.8,171.7z"/>
		<path class="st4" d="M571.9,159.4c-0.1,0-0.2,0-0.3,0h-0.1c-0.2,0-0.5,0-0.7,0.1c-0.2,0-0.3,0-0.5,0c-0.3,0-0.6,0-0.9,0.1
			c-0.1,0-0.2,0-0.4,0c-8.2,1.1-15,5.5-20,10.5c-0.2,0.1-0.4,0.2-0.7,0.3c6.9-67.5-17-94.3-42.2-105.2c-4.8-2.1-11.3-9-15.9-10.1
			c0.5,3.8-5.7,4-9,3.6c-4.2-0.5-9.3-6.5-20-9.2c5.3,5.9,1.2,8.9-1.9,9.4c-2.2,0.4-8-2.5-13.7-0.6c2.9,1.4,2.3,3.4,0,4.3
			c-12,4.6-20.4,11.8-23.7,18.3c0.7-1.5,1.5-3,2.4-4.5c1-1.7,2-3.2,3.1-4.6c0.9-1.2,1.9-2.2,2.9-3.2c1.7-1.8,3.6-3.3,5.8-4.7
			c-2.6-0.3-6.1-0.5-9.1,0.9c0.6-1,1.2-1.9,1.7-2.6c0.2-0.2,0.3-0.4,0.5-0.6c1.8-2.2,3.7-2.9,6.1-3.5h0c0,0,0-0.1-0.1-0.1
			c0,0-0.1-0.1-0.1-0.1c-1-0.7-6.7-2.4-11.4-0.7c0.2-0.2,0.3-0.5,0.5-0.7c0.3-0.5,0.7-0.9,1.1-1.2c2.4-2.5,5.9-3.7,9-4.5
			c0.7-0.2,1.4-0.3,2-0.5c0.2,0,0.4-0.1,0.6-0.1c0.6-0.1,1.2-0.2,1.7-0.3c0.2,0,0.3-0.1,0.5-0.1c0.3-0.1,0.6-0.1,0.9-0.2
			c0.8-0.2,1.2-0.5,1.2-0.8c0-2.1-5.8-2.8-10.3-2.1c6.9-5.6,16.6-5.6,24.4-2.3c-3.3-3.5-3.2-8-1.1-10.5c5.4,5.3,14.6,8.9,26.1,9
			c-0.8-0.2-1.4-0.6-1.9-1.1c-0.1-0.1-0.2-0.3-0.4-0.5c-0.6-0.9-0.7-1.9-0.4-3c0-0.1,0.1-0.3,0.2-0.4c2.6,2.4,12.1,5.1,22.3,8.5
			c0.7,0.2,1.5,0.5,2.2,0.8c0.5,0.2,1.1,0.4,1.6,0.6c2.9,1.2,6,2.5,8.4,3.7c2.1,1,4.1,2.1,6.1,3.2c1.3,0.7,2.5,1.5,3.7,2.2
			c0.7,0.4,1.3,0.8,2,1.3C559.7,81.3,571.7,119.4,571.9,159.4z"/>
		<path class="st4" d="M433.4,335.7c-3.4-4.1-7-8-11.4-15.4c-6.2-10.5-10.9-24.8-14.1-39.6c0.5,0.3,1,0.6,1.6,0.9
			c2.3,1.2,4.8,2.4,7.6,3.4v0c-0.1,7.3,3.9,15.3,3.9,15.3s1.6-4.8,2.4-3.5c0.9,1.5,4.4,14.5,6.7,13.8c0.1,0-0.1-3.5,0.2-3.3
			c0.8,0.4,2,3.3,7.1,7.9c0.6,0.6,1.3,1.1,1.9,1.6c0.8,4,2.1,8.3,4.2,13.6C451.6,350.8,446.1,350.8,433.4,335.7z"/>
	</g>
	<g>
		<path class="st1" d="M225,348.8c-3.7-4.4-7.6-8.7-12.4-16.8c-16.3-27.5-23.7-79.5-18.6-105.1c4.6,3.2,11.8,4.7,19.2,5.2
			c-0.3,9.8,1.5,15.1,3.1,16.8c0.9,19.9,3.4,30.7,6,37.8c2.4,6,5.5,12.2,9.1,18.5c-1.5,16-1.1,22.9,4.7,37.6
			C244.9,365.3,238.9,365.3,225,348.8z"/>
		<path class="st22" d="M225.4,169.5c-0.1,2.5-0.1,5.4-0.3,8.3c-0.5,7.8-4.3,15.5-6.3,22.4c-3.9,13.7-5.4,24.1-5.6,31.8
			c-7.4-0.5-14.5-2-19.2-5.2c-1.3-0.9-2.4-2-3.3-3.2C195.8,185.4,214.6,170.4,225.4,169.5z"/>
		<path class="st1" d="M396.9,283.5c1.1-8.8,1.7-16.2,1.5-23.6c-0.2-5.7-2-7.9-3.9-12.4c-9.4-23.9-18.9-61.5-18.3-90.3
			c1-49.3-17-95.7-65-118.1c-7.8-3.8-16-5.8-24.2-8.8c-1.5-0.6-4.8-1.4-5.9-3.1c-1.3-1.9-0.4-4.6-0.5-4.6c-7,1.2-3.9,7.4-3.9,7.4
			s-1.4-0.1-2-0.2c-2.9-0.6-5.9-3.2-5.7-7.6c0.3-5.8,6.6-8.2,5.6-8.7c-0.2-0.1-11.3-5.2-19.8,1.5c-4.7,3.7-6.9,8.7-5.3,15.4
			c-10.5-1.9-8.9-11-9-11c-9.3,1.7-12.8,12.6-6.2,17c0,1.1-4.5,0.9-7.6-1.3c-2.3-1.6-3.2-5.2-3.5-5.1c-8.8,5.4-4.7,14.8,3.1,15.7
			c0.6,0.1,1.8,0.1,1.6,0.7c-0.1,0.2-1.8,1.4-4.7,1.5c-3,0-4.2-1.5-4.3-1.1c-1.3,4,5.3,7.5,7.8,6.2c-5.2,3.5-8.8,7.6-12.2,13.5
			c-14.9,25.9-6.9,55,5.4,79.5c1.1,2.2,2.6,4.6,3,7.1c0.2,1.2-0.5,3.3,0,4.3c0.2,0.5,1.3-1.2,1.4-0.7c0.2,1.9,0.1,4.1-0.1,6.1
			c-0.1,0.5-1,3-0.6,3.2c0.4,0.3,2.2-1.7,2.1-0.2c-0.2,2.7-0.1,7.4-0.4,11.9c-0.5,7.8-4.3,15.5-6.3,22.4
			c-8.9,31.3-5.2,45.5-2.5,48.6c1,21.3,3.7,32.1,6.5,39.1c2.8,7.1,6.9,15.2,9.9,19.7c4.5,6.7,10.3,13.7,17.7,21
			c0.5,0.5,1.1,1.1,1.7,1.5c-2.3,7.9,3.4,24.5,9.4,30.4c-14-0.4-30.8,12.5-32,13.6c-4.9,4.5-3.4,4.8,0,4.8c3.4,0,30.4-1.4,44.7-1.6
			c5.8-0.1,12.9-0.4,18.7-0.6c3.5-0.1,20-0.2,17.5-6.2c-3-7.1-6.7-16.9-7-22.4c9.1,0.6,18.2,0,26.4-1.9c2.4,7,7.2,12.7,14.1,15
			c-19.8,3.5-27.4,10.4-32.1,16.2c-0.6,1.2,14.8,1.7,31.7,2.3c19.7,0.7,40.2,1.8,48.3-0.1c8.1-1.9,1.3-13.8-0.3-18.6
			c-5.3-16.2-7.3-38.4,0.8-54.9C395.7,298.9,395.9,290.9,396.9,283.5z"/>
		<g>
			<path class="st3" d="M365.3,380.4c-2.8-0.1-5.7-0.2-8.7-0.3c-1.4,0-2.7-0.1-4.1-0.1c-3.1-0.1-6.2-0.2-9.3-0.3
				c-0.5,0-0.9,0-1.4-0.1c-0.3,0-0.6,0-0.9,0c-1.6-0.1-3.2-0.1-4.8-0.2c-0.4,0-0.7,0-1.1,0c-2.8-0.1-5.6-0.2-8.1-0.3
				c-0.4,0-0.7,0-1.1,0c-0.4,0-0.8,0-1.3-0.1c-0.5,0-1-0.1-1.5-0.1c-0.5,0-1-0.1-1.4-0.1c-0.5,0-1.1-0.1-1.5-0.1
				c-0.5,0-1.1-0.1-1.6-0.1c-1-0.1-1.9-0.1-2.7-0.2c-0.4,0-0.8-0.1-1.1-0.1c0,0-0.1,0-0.1,0c-0.3,0-0.6-0.1-0.9-0.1
				c-0.2,0-0.4-0.1-0.6-0.1c-0.1,0-0.2,0-0.2,0c-0.4-0.1-0.7-0.2-1-0.2c-0.1,0-0.2-0.1-0.2-0.1c-0.1,0-0.1-0.1-0.2-0.1
				c0,0-0.1-0.1-0.1-0.1c0-0.1,0-0.1,0-0.2c0.7-0.8,1.4-1.7,2.2-2.5c0.3-0.3,0.5-0.6,0.8-0.9c0.3-0.3,0.6-0.6,0.9-0.9
				c0.3-0.3,0.6-0.6,0.9-0.9c2.2-1.9,5-3.8,8.6-5.5c0.6-0.3,1.3-0.6,2-0.9c0.1,0,0.1-0.1,0.2-0.1c0.3-0.1,0.7-0.3,1-0.4
				c0.5-0.2,0.9-0.4,1.4-0.5c0.4-0.2,0.9-0.3,1.3-0.5c0.3-0.1,0.7-0.2,1-0.3c0.4-0.1,0.7-0.2,1.1-0.4c0.2-0.1,0.5-0.1,0.7-0.2
				c0.3-0.1,0.6-0.2,1-0.3c0.3-0.1,0.6-0.2,1-0.3c1.1-0.3,2.2-0.6,3.3-0.8c0.6-0.1,1.2-0.2,1.8-0.4c0.9-0.2,1.8-0.4,2.8-0.5
				C352.3,364.5,361.1,370.8,365.3,380.4z"/>
			<path class="st3" d="M276.3,377.1c-0.8,0-1.5,0-2.3,0.1c-14.3,0.2-41.4,1.6-44.7,1.6c-1.4,0-2.4-0.1-2.9-0.4
				c-0.5-0.4-0.2-1.3,1.5-3c0.1-0.1,0.2-0.2,0.3-0.3c0.1-0.1,0.2-0.2,0.3-0.3c0.2-0.2,0.5-0.5,0.8-0.7c1.1-1,18-14,32-13.6h0
				C267.1,364.3,273.1,370,276.3,377.1z"/>
		</g>
		<g>
			<path class="st22" d="M398.8,259.6c0.1,7.6-0.3,15.5-1.3,23.5c-1.1,8.7-2,16.1-5,22.7c-0.5,1.2-1.2,2.6-1.6,3.8
				c-10.5,12.3-36.1,19.5-55.8,22.8c-35,5.9-65.8,3.1-88.1-7.8c-13.6-14.2-20.9-27.2-25-39.5c-0.8-2.3-1.4-4.6-2-6.9
				c-2.6-10.4-3.1-20.3-3.6-30c-3.5-2-5.7-23.6,2.3-48.2c1.7-5.3,4.2-10.2,4.4-11.5c0.1-1.1-2.1-3.1-1.1-5.2
				c0.7-1.4,4.3-6.7,3.8-3.8c44.6,12.8,89.4,3.6,94.9,2.4c8.2-1.8,16.9-4.3,25.6-7.3c4.1-7.1,11.1-16,30.1-17.9
				C383.6,156.2,398.6,243.4,398.8,259.6z"/>
		</g>
		<g>
			<path class="st7" d="M248,216.3c5.8,0.5,11,0.8,16.1,1.3c4.2,0.4,5.2,3.5,4.9,6.3c-0.4,3.9-2.7,6.4-6.6,7.6
				c-0.2,0.1-0.4,0.1-0.8,0.2c3.9,2.6,3.8,7.6,6.2,12.2c-3.1-0.2-5.8-0.4-8.7-0.6c-1.4-3-2.5-5.8-3.4-8.6c-0.5-1.5-1.3-2.7-3.5-2.4
				c-0.8,3.3-1.3,6.7-1.2,10.6c-2.7-0.2-5.2-0.3-7.8-0.5C242.7,233.5,246.2,224.8,248,216.3z M254.7,222.1c-0.4,1.7-0.8,3.3-1.4,5.2
				c1.7,0,3.4,0.1,5,0c1.5-0.1,2.4-1,2.8-2.2c0.4-1.3-0.2-2.4-1.7-2.6C258,222.2,256.4,222.2,254.7,222.1z M287.8,218.7
				c-3.1-1.2-6.4-1.4-9.7-0.6c-3.5,0.8-5.9,3.4-6.8,6.6c-0.7,2.9,0.3,5.4,3.4,6.9c1.6,0.8,3.3,1.3,5,2c0.8,0.3,1.7,0.6,2.4,1
				c0.9,0.5,1.4,1.3,1.2,2.4c-0.2,1.2-1.1,2-2.2,2.4c-2.5,0.8-4.9-0.5-5.5-3.1c-0.1-0.5-0.1-0.9-0.2-1.5c-2.5,0-4.8,0-7.1,0
				c-0.6,4.2,1.5,7.8,5.1,9.2c2.7,1,5.5,1.3,8.4,0.9c1.8-0.2,3.7-0.9,5.3-2c4.8-3.2,6.4-10.6,0.7-13.7c-0.9-0.5-1.8-0.9-2.8-1.3
				c-1.7-0.6-3.5-1.1-5.2-1.7c-0.9-0.3-1.7-0.8-1.5-2c0.7-1.5,1.9-1.8,3.2-1.7c2,0.2,3.1,1.4,3.1,3.6c2.4,0,4.8,0,7.4-0.1
				C292.4,222.3,291.1,220,287.8,218.7z"/>
			<g>
				<path d="M243,246c0.6,0,1.3,0.1,1.9,0.1c0,0.3-0.1,0.7-0.1,1c0.8-0.8,1.7-1.1,2.6-1.1c0.5,0,0.9,0.1,1.3,0.4
					c0.4,0.2,0.6,0.5,0.8,0.9c0.4-0.4,0.8-0.7,1.2-0.8c0.4-0.2,0.9-0.3,1.3-0.2c0.6,0,1.1,0.2,1.5,0.4c0.4,0.2,0.7,0.6,0.8,1
					c0.1,0.3,0.2,0.9,0.1,1.6c-0.1,1.6-0.1,3.2,0,4.8c-0.7,0-1.4-0.1-2.1-0.1c-0.1-1.4-0.1-2.9,0-4.3c0-0.7,0-1.2-0.2-1.5
					c-0.2-0.3-0.5-0.5-0.9-0.5c-0.3,0-0.6,0.1-0.9,0.2c-0.3,0.2-0.5,0.4-0.6,0.7c-0.1,0.3-0.2,0.8-0.2,1.6c0,1.2,0,2.4,0.1,3.6
					c-0.7,0-1.4-0.1-2.1-0.1c-0.1-1.4-0.1-2.8-0.1-4.1c0-0.7,0-1.2,0-1.4c-0.1-0.2-0.2-0.4-0.3-0.5c-0.1-0.1-0.4-0.2-0.6-0.2
					c-0.3,0-0.6,0.1-0.9,0.2c-0.3,0.2-0.5,0.4-0.6,0.7c-0.1,0.3-0.2,0.8-0.3,1.6c0,1.2,0,2.5,0.1,3.7c-0.7,0-1.4-0.1-2.1-0.1
					C242.5,251,242.6,248.5,243,246z"/>
				<path d="M261.4,252c0.7,0.1,1.4,0.3,2.1,0.4c-0.3,0.7-0.7,1.3-1.3,1.6c-0.6,0.4-1.3,0.5-2.2,0.5c-1.4-0.1-2.5-0.5-3.2-1.4
					c-0.5-0.7-0.8-1.6-0.8-2.6c0-1.3,0.4-2.2,1.2-2.9c0.7-0.7,1.6-1,2.7-0.9c1.2,0.1,2.1,0.5,2.8,1.3c0.7,0.8,1,1.9,0.9,3.5
					c-1.8-0.1-3.6-0.2-5.4-0.3c0,0.6,0.2,1.1,0.5,1.4c0.3,0.3,0.7,0.5,1.2,0.6c0.3,0,0.6-0.1,0.8-0.2
					C261.1,252.7,261.3,252.4,261.4,252z M261.6,250c0-0.6-0.2-1-0.4-1.3c-0.3-0.3-0.7-0.5-1.1-0.5c-0.5,0-0.9,0.1-1.2,0.4
					c-0.3,0.3-0.5,0.7-0.5,1.3C259.4,249.9,260.5,250,261.6,250z"/>
				<path d="M272.7,255c-0.7,0-1.4-0.1-2.1-0.1c0-1.3,0.1-2.6,0.1-3.8c0-0.8,0-1.3-0.1-1.6c-0.1-0.2-0.2-0.4-0.4-0.6
					c-0.2-0.1-0.5-0.2-0.7-0.2c-0.4,0-0.7,0.1-1,0.2c-0.3,0.2-0.5,0.4-0.6,0.7c-0.1,0.3-0.2,0.9-0.2,1.7c0,1.1,0,2.3,0,3.4
					c-0.7,0-1.4-0.1-2.1-0.1c0-2.5,0-5,0.1-7.6c0.7,0,1.3,0.1,2,0.1c0,0.4,0,0.7,0,1.1c0.7-0.8,1.6-1.2,2.7-1.1
					c0.5,0,0.9,0.1,1.3,0.3c0.4,0.2,0.7,0.4,0.9,0.7c0.2,0.3,0.3,0.5,0.4,0.9c0.1,0.3,0.1,0.8,0.1,1.4
					C272.8,251.9,272.8,253.4,272.7,255z"/>
				<path d="M278.8,247.7c0,0.5,0,1.1,0,1.6c-0.5,0-1,0-1.5-0.1c0,1,0,2-0.1,3c0,0.6,0,1,0,1.1c0,0.1,0.1,0.2,0.2,0.3
					c0.1,0.1,0.2,0.1,0.4,0.1c0.2,0,0.5,0,0.9-0.1c0,0.5,0.1,1,0.1,1.6c-0.5,0.2-1.1,0.2-1.7,0.2c-0.4,0-0.7-0.1-1-0.2
					c-0.3-0.1-0.5-0.3-0.7-0.5c-0.1-0.2-0.2-0.5-0.3-0.8c0-0.2,0-0.7,0-1.4c0-1.1,0.1-2.2,0.1-3.3c-0.3,0-0.7,0-1,0
					c0-0.5,0-1.1,0-1.6c0.3,0,0.7,0,1,0c0-0.5,0-1,0-1.5c0.7-0.4,1.4-0.7,2.1-1.1c0,0.9,0.1,1.8,0.1,2.7
					C277.8,247.7,278.3,247.7,278.8,247.7z"/>
				<path d="M279.7,251.5c0-0.7,0.2-1.3,0.6-1.9c0.4-0.6,0.8-1.1,1.5-1.4c0.6-0.3,1.4-0.4,2.1-0.4c1.2,0.1,2.3,0.5,3,1.3
					c0.8,0.8,1.2,1.7,1.1,2.9c-0.1,1.1-0.6,2.1-1.4,2.8c-0.9,0.7-1.9,1-3.1,1c-0.7,0-1.4-0.2-2-0.6c-0.6-0.3-1.1-0.8-1.4-1.4
					C279.9,253.1,279.7,252.3,279.7,251.5z M281.9,251.7c0,0.7,0.1,1.3,0.5,1.7c0.4,0.4,0.8,0.6,1.4,0.7c0.6,0,1-0.1,1.4-0.5
					c0.4-0.4,0.6-0.9,0.7-1.7c0-0.7-0.1-1.3-0.5-1.7c-0.4-0.4-0.8-0.6-1.4-0.7c-0.6,0-1,0.1-1.4,0.5
					C282.2,250.4,282,250.9,281.9,251.7z"/>
				<path d="M291.4,255.9c-0.7,0-1.4-0.1-2.1-0.1c0.4-2.5,0.5-5,0.4-7.5c0.7,0,1.3,0.1,2,0.1c0,0.4,0,0.7,0,1.1
					c0.3-0.5,0.6-0.8,0.9-1c0.3-0.1,0.6-0.2,0.9-0.2c0.5,0,1,0.2,1.4,0.4c-0.2,0.6-0.4,1.1-0.6,1.7c-0.4-0.2-0.7-0.4-1-0.4
					c-0.3,0-0.6,0.1-0.8,0.2c-0.2,0.1-0.4,0.4-0.5,0.8c-0.1,0.4-0.2,1.2-0.4,2.5C291.6,254.4,291.5,255.1,291.4,255.9z"/>
			</g>
		</g>
		<g>
			<path class="st4" d="M310.4,372.5c-0.1,0.1-0.1,0.3-0.2,0.4c-0.2,0.2-0.4,0.5-0.6,0.7c-0.2,0.2-0.5,0.4-0.8,0.6
				c-0.2,0.1-0.3,0.2-0.5,0.3c-0.5,0.2-1.1,0.5-1.7,0.7c-1.3,0.4-2.8,0.7-4.4,0.9c-0.3,0-0.5,0.1-0.8,0.1c-0.2,0-0.5,0.1-0.8,0.1
				c-0.3,0-0.5,0.1-0.8,0.1c-1.8,0.2-3.5,0.3-4.8,0.3c-0.2,0-0.3,0-0.5,0c-0.1,0-0.2,0-0.3,0c-0.1,0-0.3,0-0.4,0c-0.4,0-0.7,0-1,0
				c-0.3,0-0.6,0-1,0c-0.3,0-0.6,0-1,0c-0.8,0-1.7,0.1-2.6,0.1c-0.7,0-1.4,0.1-2.1,0.1c-0.5,0-1,0-1.5,0.1c-1.2,0-2.3,0.1-3.5,0.1
				c-1.7,0.1-3.3,0.1-4.9,0.1c-0.8,0-1.5,0-2.2,0.1c-14.3,0.2-41.4,1.6-44.7,1.6c-0.2,0-0.5,0-0.7,0c-0.2,0-0.3,0-0.4,0
				c-0.1,0-0.1,0-0.2,0c-0.1,0-0.1,0-0.2,0c-0.2,0-0.4,0-0.5-0.1c-0.1,0-0.1,0-0.2,0c-0.1,0-0.2,0-0.2-0.1c0,0,0,0-0.1,0
				c0,0-0.1,0-0.1,0c-0.1,0-0.1,0-0.1-0.1c-0.1,0-0.1-0.1-0.2-0.1c0,0-0.1-0.1-0.1-0.1c-0.1-0.2-0.1-0.3-0.1-0.5c0,0,0-0.1,0-0.1
				c0-0.1,0.1-0.2,0.1-0.3c0,0,0,0,0-0.1c0,0,0-0.1,0.1-0.1c0-0.1,0.1-0.2,0.2-0.2c0.1-0.1,0.1-0.2,0.2-0.3c0,0,0.1-0.1,0.1-0.1
				c0.1-0.2,0.3-0.3,0.4-0.5c0.1-0.1,0.2-0.2,0.3-0.3c0.1-0.1,0.2-0.2,0.3-0.3c0.1-0.1,0.2-0.2,0.3-0.3c0.1-0.1,0.2-0.2,0.3-0.3
				c0.2-0.2,0.5-0.5,0.8-0.7h0c0,0,0,0,0.1-0.1c0,0,0,0,0,0c0,0,0,0,0.1-0.1c0,0,0.1-0.1,0.1-0.1c0,0,0,0,0,0c0,0,0.1-0.1,0.1-0.1
				c0.2-0.2,0.5-0.4,0.9-0.7c0,0,0,0,0,0c0,0,0.1-0.1,0.1-0.1c0,0,0.1-0.1,0.1-0.1c2.3-1.7,6.8-4.8,12.2-7.4
				c0.2-0.1,0.3-0.1,0.5-0.2c1.1-0.5,2.1-1,3.3-1.5c0.2-0.1,0.3-0.1,0.5-0.2c0.1,0,0.1,0,0.1-0.1c0,0,0,0,0,0
				c0.6-0.2,1.3-0.5,1.9-0.7c0,0,0,0,0,0c0.9-0.3,1.9-0.6,2.8-0.9c0.3-0.1,0.6-0.2,0.9-0.2c0.9-0.2,1.7-0.4,2.6-0.6
				c0.1,0,0.1,0,0.2,0c0,0,0,0,0,0c0,0,0,0,0.1,0c0.2,0,0.5-0.1,0.7-0.1c0.1,0,0.2,0,0.3,0c0.1,0,0.1,0,0.2,0c0.1,0,0.1,0,0.2,0
				c0.2,0,0.4-0.1,0.7-0.1c0.1,0,0.2,0,0.3,0c0.4,0,0.7-0.1,1.1-0.1c0.4,0,0.8,0,1.2,0c0.2,0,0.5,0,0.7,0h0
				c-0.2-0.2-0.3-0.3-0.5-0.5c-0.6-0.7-1.2-1.5-1.8-2.3c-5-7.3-9-20.9-7-27.7c11.5,10.1,31.5,16.7,51.2,17.9c0,0,0,0.1,0,0.1h0
				c0.3,4.4,2.6,11.3,5.1,17.6c0.5,1.2,0.9,2.4,1.4,3.5c0,0,0,0,0,0c0.2,0.5,0.4,0.9,0.6,1.4C310.6,371.2,310.6,371.9,310.4,372.5z"
				/>
			<path class="st4" d="M394.8,377.5c-0.2,0.3-0.4,0.5-0.6,0.8c-0.6,0.6-1.4,1-2.5,1.3c-5.2,1.2-13.4,1.2-26.3,0.9
				c-0.2,0-0.4,0-0.5,0c-1.2,0-2.4-0.1-3.6-0.1c-2.4-0.1-4.8-0.2-7.2-0.2c-0.6,0-1.2,0-1.8-0.1c-0.7,0-1.3,0-1.9-0.1
				c-0.8,0-1.7-0.1-2.5-0.1c-1.5-0.1-2.9-0.1-4.4-0.2h0c-1.1,0-2.2-0.1-3.3-0.1c-0.5,0-0.9,0-1.4-0.1c0,0,0,0,0,0c0,0-0.1,0-0.1,0
				c-0.2,0-0.4,0-0.6,0c0,0,0,0,0,0c-0.5,0-1,0-1.5-0.1c-1.5-0.1-3-0.1-4.5-0.2c-0.3,0-0.6,0-0.9,0c-0.1,0-0.2,0-0.3,0
				c-0.2,0-0.5,0-0.7,0c-0.7,0-1.4-0.1-2-0.1c-0.3,0-0.6,0-0.9,0c-0.3,0-0.7,0-1,0c-1.1,0-2.1-0.1-3.1-0.2c-0.2,0-0.4,0-0.6,0
				c-0.2,0-0.3,0-0.5,0c-0.2,0-8.6-0.8-8.8-0.8c13.1-5.2,35.9-6.7,46.7-6h0.1c4.8,0.3,8.7,0.8,10.7,0.9c7.3,0.3,10-1.4,6.9-11.7
				c-2.9-9.8-6.5-26.8-6.2-38.5c7.9-3.3,14.8-7.4,19.2-12.3c-5.3,15.8-3.9,35.9,0.9,50.7C392.6,364.8,397.3,373.4,394.8,377.5z"/>
		</g>
		<path class="st4" d="M342.8,341.4c3.2-2,9.7-6.1,11.7-8.9c-38.5,17.1-74.9,9.2-96.3,1.8c19.6,11.1,35.8,13.7,51,13.7
			S334.4,344.8,342.8,341.4z"/>
		<g>
			<path class="st4" d="M216.7,255.5c16.2,3.7,46-1.4,46.5-1.2c0.5,0.1,6,1.2,19.8,4.8c13.8,3.6,29.8,7,38.1,7c3.1,0,7-2.8,11.3-7.6
				c4.4-5,8.2-10.9,11.8-17.5c-7.7,11.5-17.2,16.6-19.9,17.3c-3.4,0.9-4.4,0.9-9.2,0.6c-15.4-1.2-47.5-10.4-51-10.9
				c-2.5-0.4-38.1,5.8-48-1.3"/>
			<path class="st4" d="M246.6,270.7c-9.2,0.5-20.6,6.8-24.7,14.5c-0.8-2.3-1.4-4.6-2-6.9C226.9,273,236,270.3,246.6,270.7z"/>
			<path class="st4" d="M392.5,305.9c-0.6,1.2-1.2,2.6-1.6,3.8c-10.5,12.3-36.1,19.5-55.8,22.8c-35,5.9-65.8,3.1-88.1-7.8
				c-2.7-2.8-5.2-5.6-7.4-8.4c3.1,1.5,7.2,3.6,10.4,5.1c9.1,4.2,18.6,5,20.6,1.7c1-1.7,2.5-5.1,1.6-9.2c-1.2-5.6-4.8-16.5-2-27
				c-1.5,12,5.9,21.1,6.3,30c0,9.8,8.9,11.6,18.8,12.2c7.7,0.5,15.1,0.5,29.3-1c14.8-1.6,17.3-5.8,17.5-14.9
				c0.1-6.7-1.5-18-4.9-23.6c-4.1-6.9-18.3-11.5-33.6-14.9c10.3-0.2,30.8,1.4,40.5,10.1c3.2,2.8,6.3,6.3,9.9,8.7
				C368.5,302.8,387.5,306.9,392.5,305.9z"/>
		</g>
		<path class="st4" d="M311.1,38.9c-7.8-3.8-16-5.8-24.2-8.8c-1.5-0.6-4.8-1.4-5.9-3.1c-1.3-1.9-0.4-4.6-0.5-4.6
			c-7,1.2-3.9,7.4-3.9,7.4s-1.4-0.1-2-0.2c-2.9-0.6-5.9-3.2-5.7-7.6c0.3-5.8,6.6-8.2,5.6-8.7c-0.2-0.1-11.3-5.2-19.8,1.5
			c-4.7,3.7-6.9,8.7-5.3,15.4c-10.5-1.9-8.9-11-9-11c-9.3,1.7-12.8,12.6-6.2,17c0,1.1-4.5,0.9-7.6-1.3c-2.3-1.6-3.2-5.2-3.5-5.1
			c-8.8,5.4-4.7,14.8,3.1,15.7c0.6,0.1,1.8,0.1,1.6,0.7c-0.1,0.2-1.8,1.4-4.7,1.5c-3,0-4.2-1.5-4.3-1.1c-1.3,4,5.3,7.5,7.8,6.2
			c-5,3.3-8.4,7.2-11.7,12.7c4.8-5.7,12.9-11.3,23.9-14.9c-1.3-1.1-0.2-4.3,1.9-4.8c-0.5,2.4,3.9,3.3,8.8,2.1
			c-1.3-1.4-2.7-6,3.3-7.6c-2.8,4.1,3.7,7.3,6.5,6.6c3.1-0.7,2.9-2.3,1.7-3.5c2.3-1.2,4.6,1.5,5.7,2.1c2.3,1.1,4.9,0.6,11.2,1.6
			c35.7,5.5,55.1,20.7,64,40.4c7.5,16.6,15.7,46.3,12.4,77.5c3.4-2.8,7.5-5.1,12.5-6.4c3.2-0.9,6.3-1.4,9.3-1.6
			C376.5,108.7,359.1,61.3,311.1,38.9z"/>
		<g>
			<line class="st5" x1="237.5" y1="167.2" x2="237.5" y2="173.7"/>
			<line class="st5" x1="244.4" y1="170.5" x2="244.4" y2="177"/>
		</g>
		<path class="st6" d="M246.6,324.6c22.3,11.2,52.9,13.9,88.2,7.9c19.8-3.3,45.3-10.5,55.8-22.8"/>
		<path class="st6" d="M225.6,179.7c44.6,12.8,95.1,4.5,118.6-4.2"/>
		<path class="st6" d="M300.7,194.1c-12.7,4.4-61.9,4.1-77.3-6.1"/>
		<g>
			<path class="st6" d="M232.5,181.9c-0.6,1.9-1.3,3.3-1.3,5.3"/>
			<path class="st6" d="M243.9,184.2c-0.8,1.7-1,3.9-1,5.8"/>
			<line class="st6" x1="256.8" y1="185.4" x2="256.8" y2="190.5"/>
			<polyline class="st6" points="267.1,187.2 267.1,188 267.1,188.5 267.1,189.3 267.1,189.8 267.1,190.3 267.1,190.8 			"/>
			<polyline class="st6" points="261.8,187.5 261.8,188 261.8,188.5 261.8,189 261.8,189.5 261.8,190 			"/>
			<polyline class="st6" points="299.5,186 299.5,186.5 299.5,187 299.5,188 299.5,188.5 			"/>
			<polyline class="st6" points="303.3,186 303.3,186.7 303.3,187.5 303.3,188 			"/>
		</g>
		<path class="st6" d="M314,377.3c8.4-4.3,18.7-7.3,28.8-8.5c4.4-0.5,8.8-0.7,12.9-0.5"/>
		<path class="st6" d="M228.5,377.4c5.4-4.5,29.7-13.5,38.8-11.9"/>
		<path class="st6" d="M343.8,361.1c8.8,3.5,17.4,10.2,21.6,18.6"/>
		<path class="st6" d="M261.3,360.4c5.9,3.9,11.4,8.6,14.5,14.8"/>
		<path class="st6" d="M376.3,156.9c0.5-48.4-17-95.7-65-118.1c-7.8-3.8-16-5.9-24.2-8.9c-1.5-0.6-4.8-1.4-5.9-3.1
			c-1.3-1.9-0.4-4.6-0.5-4.6c-7,1.2-3.8,7.4-3.8,7.4s-1.4-0.1-2.1-0.2c-2.9-0.6-5.9-3.2-5.7-7.6c0.3-5.8,6.6-8.2,5.6-8.7
			c-0.3-0.1-11.3-5.2-19.8,1.5c-4.7,3.7-6.8,9.9-5.2,16.6"/>
		<path class="st6" d="M226.2,52.5c-2.6,1.3-8.5-1.9-7.2-6c0.1-0.4,1.3,1.1,4.3,1.1c2.9,0,4.7-1.3,4.7-1.5c0.2-0.5-1-0.6-1.6-0.7
			c-7.8-0.9-11.9-10.3-3.1-15.7c0.3-0.2,1.2,3.5,3.5,5.1c3.1,2.2,7.6,2.4,7.6,1.3c-6.6-4.4-3.2-15.3,6.2-17c0.2,0-2,9.1,8.4,11"/>
		<path class="st6" d="M227.8,51.8c-5.2,3.5-9.4,8-12.8,13.8c-15.2,25.7-7.1,55.7,5.1,80.2c1.1,2.2,2.6,4.6,3,7.1
			c0.2,1.2-0.5,3.3,0,4.3c0.2,0.5,1.3-1.2,1.4-0.7c0.3,2.2,0,4.8-0.2,7.1c-0.1,0.8-1.1,3.1-0.5,2.5c0.2-0.2,0.8-2.1,1.6-1.8
			c0.5,0.2,0,12.2-0.2,13.5"/>
		<g>
			<path class="st6" d="M329.6,346c2.4,7,7.2,12.7,14.1,15c-19.8,3.5-27.4,10.4-32.1,16.2c-0.6,1.2,14.8,1.7,31.7,2.3
				c19.7,0.7,40.2,1.8,48.3-0.1c8.1-1.9,1.3-13.8-0.3-18.6c-5.3-16.2-7.1-38.7,0.8-54.9"/>
			<path class="st6" d="M251.9,330.1c-2.3,7.9,3.4,24.5,9.4,30.4c-14-0.4-30.8,12.5-32,13.6c-4.9,4.5-3.4,4.8,0,4.8
				s30.4-1.4,44.7-1.6c5.8-0.1,12.9-0.4,18.7-0.6c3.5-0.1,20-0.2,17.5-6.2c-3-7.1-6.7-16.9-7-22.4"/>
		</g>
		<g>
			<path class="st10" d="M211.1,95.1c1.1-12.7,5.3-18.1,12.8-22.1c10.2-5.4,15.5-7.7,26.6-8.7c3.9-0.4,8.4-0.5,9-4.4
				c0.3-1.7-0.4-3.6-2.1-6c3.5,0,7.3,1.4,10.1,3.7c5.7,4.6,14.3,7.5,21.1,7.3c23.8-0.8,38.8,2,50.3,22.8c2.6,4.7,6.5,15.4,3.8,27.3
				c-3.9,17.4-6,24.7-24.9,37.7c-22.4,15.5-68.9,23.2-92-6.1C215,132.7,209.4,114,211.1,95.1z"/>
			<path class="st11" d="M256.4,103.8c-7.8-3.9-14.2,15.9-13.5,21.5c2.2,19.4,30.6,18.4,43.8,11.8c19-9.5-4.3-40.2-17.9-34.7"/>
			<path class="st11" d="M211.1,95.1c-1.5,14.9,2.5,31.6,5.8,34c2.5,1.9,15.7-6.1,24.5-19.2c9.3-13.8,8.3-32.9,5.9-35.3
				c-1.4-1.4-18.5-3.3-28.3,1C215.6,77.1,212.5,81.8,211.1,95.1z"/>
			<path class="st11" d="M284.6,72.1c-5.8,44.5,47.4,68.8,52.8,60.9c3.5-5.1,10.2-26.3,2.6-43.1c-4-8.7-12.2-18.5-16.4-18.5
				c-7.5-0.1-18.9-2.8-26.9-1C290,71.9,285,69.3,284.6,72.1z"/>
		</g>
		<g>
			<path class="st12" d="M251.7,103.8c-0.1-2.9,5.6-5.6,12.9-6c7.3-0.4,13.3,1.7,13.4,4.7c0.1,2.9-5.6,5.6-12.9,6
				C257.8,108.9,251.8,106.8,251.7,103.8z"/>
			<path class="st20" d="M264.9,105.2c0,5.3,0,11.7,1.4,18.9"/>
		</g>
		<g>
			<path class="st14" d="M337.7,82.4c-15.4-12.3-33.1-14-53-10.3"/>
			<path class="st14" d="M204.5,82.5c14.9-9.7,24.2-11.9,44.1-8.2"/>
		</g>
		<path class="st20" d="M256.1,120.8c3.8,5.9,17.3,4.8,23.7-3"/>
		<g>
			<path class="st8" d="M317.6,319.8l-49.4-76.7c-3.3-5.2-1.8-12.1,3.3-15.4l48.6-31.3c5.2-3.3,12.1-1.8,15.4,3.3l49.4,76.7
				c3.3,5.2,1.8,12.1-3.3,15.4l-48.6,31.3C327.9,326.5,321,325,317.6,319.8z"/>
			<path class="st4" d="M380.8,292.7l-47.4,30.2c-6.3,3.5-12.2,2.2-16-3.5l-49.1-76.2c-2.8-4.9-1.9-9.1,0.1-12.1
				c1.6-2.4,4.2-3.8,5.7-4.7c-4.6,5.7-4.3,11.9-1.9,15.6c13.3,20.6,47.5,72.4,47.5,72.4c3.8,5.6,8.9,5.8,14.1,3
				c0,0,28.8-18.6,43.1-27.8c3.8-2.5,8.1-8.6,5-18.1c1.5,2.3,3.2,4.3,4.2,6.4C387.2,280.2,388.4,287.5,380.8,292.7z"/>
			<path class="st9" d="M333.1,203.3c-3.6-4.4-7.3-4.6-12.9-2.1c0,0-1.8,0.9-52.8,29.5l52.9-34c5.9-3.6,12.1-2.4,16,3.5l52.1,80.9
				C361,242.2,333.1,203.3,333.1,203.3z"/>
			<path class="st6" d="M317.6,319.8l-49.4-76.7c-3.3-5.2-1.8-12.1,3.3-15.4l48.6-31.3c5.2-3.3,12.1-1.8,15.4,3.3l49.4,76.7
				c3.3,5.2,1.8,12.1-3.3,15.4l-48.6,31.3C327.9,326.5,321,325,317.6,319.8z"/>
			<g>
				<g>
					<path d="M325.6,246c1.5,2.4,3,4.8,4.4,7.2c1.1,2,0.4,3.5-0.7,4.4c-1.5,1.2-3.1,1.2-4.8,0c-0.1-0.1-0.2-0.1-0.3-0.3
						c0.2,2.6-1.6,4.3-2.6,6.5c-0.9-1.4-1.7-2.6-2.5-3.9c0.7-1.3,1.5-2.7,2.2-4c0.4-0.7,0.6-1.5-0.2-2.3c-1.4,0.9-2.8,1.8-4.3,2.8
						c-0.8-1.2-1.4-2.2-2.1-3.3C318.2,250.7,321.8,248.4,325.6,246z M325.4,250.8c-0.7,0.5-1.4,0.9-2.2,1.4c0.5,0.7,1,1.4,1.5,2.1
						c0.5,0.6,1.1,0.6,1.6,0.3c0.6-0.3,0.8-1,0.4-1.7C326.4,252.2,325.9,251.5,325.4,250.8z"/>
					<path d="M335.4,268.1c-0.8-1-1.5-2-2.2-3c0.8-0.8,0.9-1.6,0.4-2.6c-0.4-0.6-0.9-1-1.6-0.8c-0.5,0.4-0.4,0.9-0.3,1.4
						c0.3,0.9,0.6,1.8,0.9,2.8c0.2,0.5,0.3,1,0.4,1.6c0.5,3.4-2.7,5.2-5.3,4.2c-0.8-0.3-1.6-0.9-2.3-1.6c-1-1.1-1.8-2.4-2.2-3.8
						c-0.6-1.9,0.1-3.8,1.8-5c0.7,1,1.4,2,2.2,3c-0.2,0.2-0.3,0.4-0.5,0.6c-0.8,1.1-0.6,2.5,0.5,3.2c0.5,0.3,1,0.5,1.5,0.1
						c0.5-0.3,0.6-0.8,0.5-1.3c-0.1-0.5-0.2-0.9-0.4-1.4c-0.3-0.9-0.6-1.9-0.8-2.8c-0.3-1.8,0.2-3.2,1.5-4c1.4-0.8,3.1-0.6,4.5,0.6
						c1.3,1.2,2.3,2.6,2.7,4.3C337.4,265.6,336.9,266.9,335.4,268.1z"/>
				</g>
				<g>
					<path d="M325.6,246c1.5,2.4,3,4.8,4.4,7.2c1.1,2,0.4,3.5-0.7,4.4c-1.5,1.2-3.1,1.2-4.8,0c-0.1-0.1-0.2-0.1-0.3-0.3
						c0.2,2.6-1.6,4.3-2.6,6.5c-0.9-1.4-1.7-2.6-2.5-3.9c0.7-1.3,1.5-2.7,2.2-4c0.4-0.7,0.6-1.5-0.2-2.3c-1.4,0.9-2.8,1.8-4.3,2.8
						c-0.8-1.2-1.4-2.2-2.1-3.3C318.2,250.7,321.8,248.4,325.6,246z M325.4,250.8c-0.7,0.5-1.4,0.9-2.2,1.4c0.5,0.7,1,1.4,1.5,2.1
						c0.5,0.6,1.1,0.6,1.6,0.3c0.6-0.3,0.8-1,0.4-1.7C326.4,252.2,325.9,251.5,325.4,250.8z"/>
					<path d="M335.4,268.1c-0.8-1-1.5-2-2.2-3c0.8-0.8,0.9-1.6,0.4-2.6c-0.4-0.6-0.9-1-1.6-0.8c-0.5,0.4-0.4,0.9-0.3,1.4
						c0.3,0.9,0.6,1.8,0.9,2.8c0.2,0.5,0.3,1,0.4,1.6c0.5,3.4-2.7,5.2-5.3,4.2c-0.8-0.3-1.6-0.9-2.3-1.6c-1-1.1-1.8-2.4-2.2-3.8
						c-0.6-1.9,0.1-3.8,1.8-5c0.7,1,1.4,2,2.2,3c-0.2,0.2-0.3,0.4-0.5,0.6c-0.8,1.1-0.6,2.5,0.5,3.2c0.5,0.3,1,0.5,1.5,0.1
						c0.5-0.3,0.6-0.8,0.5-1.3c-0.1-0.5-0.2-0.9-0.4-1.4c-0.3-0.9-0.6-1.9-0.8-2.8c-0.3-1.8,0.2-3.2,1.5-4c1.4-0.8,3.1-0.6,4.5,0.6
						c1.3,1.2,2.3,2.6,2.7,4.3C337.4,265.6,336.9,266.9,335.4,268.1z"/>
				</g>
			</g>
		</g>
		<path class="st1" d="M422.3,290.2c-2.8,9-14.1,15-39.4,13.6c-18.6-1.1-34.3-4.3-59.2-14.7c-12.1-5.1-18.6-2.9-23.9-10.2
			c-12.7-17.6-24.7-13.1-23.3-15.5c1.4-2.4,7.5-8.7,15.4-9.3c14.9-1.2,19.5,12,28.3,12.8c14.6,1.2,52.5,3.3,54.5,0.1
			c1.5-2.3-2.9-7.3-6.9-13.5c-2.8-4.4-3.5-7.3-4.3-11.8c0.1-0.1,23.2-25.4,58.5-16.5c0.9,0.2,2.7,8.1,3.8,15
			C429.6,264.6,425.5,279.8,422.3,290.2z"/>
		<path class="st22" d="M424.2,225c-0.5,0.2-1.3,0.3-2.2,0.2c-31.7-2.4-45.5,8.6-55.5,16.1c-0.1,0.1-0.2,0.2-0.4,0.2
			c-5.9,4.1-7.2-2.4-7.3-8.6c-0.9-1.5-2.7-4.3-5.4-7.5c-0.9-4-1.7-9.2-3.8-12.7l-4.4-37.4c6.8-9.5,19.9-21.8,38.1-18.5
			c21.5,3.9,32.2,16.9,40.9,58.8C424.7,218.3,427.5,223.8,424.2,225z"/>
		<path class="st4" d="M424.2,225c-0.5,0.2-1.3,0.3-2.2,0.2c-4.2-0.3-8.1-0.4-11.6-0.3c-0.4-5-1-9.9-1.8-14.8
			c-2.6-15-11.8-51.5-34.9-53.5c3-0.4,6.3-0.3,9.7,0.3c21.5,3.9,32.2,16.9,40.9,58.8C424.7,218.3,427.5,223.8,424.2,225z"/>
		<path class="st3" d="M305.3,283.7c-2.1-1-4-2.4-5.7-4.8c-12.7-17.6-24.7-13.1-23.3-15.5c1.4-2.4,7.5-8.7,15.4-9.3
			c12.2-1,17.4,7.7,23.8,11.3C310.1,268.1,303.8,273,305.3,283.7z"/>
		<path class="st4" d="M422.3,290.2c-2.8,9-14.1,15-39.4,13.6c-18.6-1.1-34.3-4.3-59.2-14.7c-12.1-5.1-18.6-2.9-23.9-10.2
			c-12.7-17.6-24.7-13.1-23.3-15.5c1.1-1.9,5.1-6.2,10.7-8.3c-1.2,3.8,5.8,5.1,11.1,10.9c6,6.5,4.8,11.1,15,14.9
			c10.2,3.8,53.1,16.7,76.8,14.4c23.7-2.3,23.2-7.5,25.3-16.6c2.2-9.4,1.8-30.4-2.6-55.2c3,0.3,6.1,0.8,9.4,1.6
			c0.9,0.2,2.7,8.1,3.8,15C429.6,264.6,425.5,279.8,422.3,290.2z"/>
		<path class="st6" d="M363.5,241.7c0.7,3.7,2.1,7.3,3.5,10.2c3.1,6.7,9.1,12.8,7.6,15.1c-2.1,3.2-40,1.1-54.5-0.1
			c-8.8-0.8-13.4-14-28.3-12.8c-7.9,0.6-14,6.9-15.4,9.3c-1.4,2.4,10.5-2.1,23.3,15.5c5.3,7.3,11.8,5.1,24,10.2
			c24.9,10.4,40.6,13.6,59.2,14.7c25.4,1.5,36.1-4.7,39.4-13.6c3.6-9.6,7.6-28,3.2-51.8c-0.6-3.5-1.8-9.9-3.4-13.2"/>
		<path class="st6" d="M366.5,241.3c-7.7,1.6-7.6-2.3-7.7-8.7"/>
		<path class="st6" d="M353.4,225.5c2.8,3.4,4.6,6.2,5.5,7.7"/>
		<path class="st6" d="M353.4,225.5c-0.9-4-1.7-9.2-3.8-12.7"/>
		<path class="st6" d="M345.2,175.4c6.8-9.5,19.9-21.8,38.1-18.5c21.5,3.9,32.2,17,40.9,58.8c0.6,3,4.1,11.1-2.2,9.5"/>
		<path class="st6" d="M359.9,232.8c9.8-10.6,27.8-20,45.5-18.3"/>
		<path class="st6" d="M367.9,226.9c0.7,1.7,1.5,2.9,2.6,4.4"/>
		<line class="st6" x1="377.1" y1="221.6" x2="379.2" y2="225.5"/>
		<line class="st6" x1="386.2" y1="217.7" x2="387.3" y2="221.9"/>
		<g>
			<line class="st5" x1="411.8" y1="249.4" x2="411.8" y2="255.9"/>
			<line class="st5" x1="405.2" y1="254.5" x2="405.1" y2="261"/>
		</g>
		<path class="st6" d="M305.3,283.7c-1.2-7,1.9-14.5,10.2-18.3"/>
		<path class="st6" d="M276.3,263.4c12.8-6,21.3-5.4,31.7,7.7"/>
		<g>
			<g>
				<path class="st0" d="M241.2,97.8c-0.6,5.3-7,3-13.2,3.6c-7.1,0.6-13.7,4-13.8-4.1c-0.1-6,6-8.8,15.1-9.6
					C238.4,86.9,241.9,91.1,241.2,97.8z"/>
				<path class="st23" d="M241.3,96.5c-3.1-5.4-8.6-5.9-15.4-4.3c-7.2,1.7-10.4,4.8-11.1,8.5c-0.4-1-0.6-2.2-0.6-3.5
					c-0.1-6,6-8.8,15.1-9.6C237.8,86.9,241.4,90.6,241.3,96.5z"/>
				<path class="st7" d="M221.9,96.6c-0.2-3.3,2.3-6.1,5.6-6.3c3.3-0.2,6.1,2.3,6.3,5.6c0.2,3.3-2.3,6.1-5.6,6.3
					C225,102.4,222.1,99.9,221.9,96.6z"/>
				<path class="st24" d="M241.2,97.8c-0.6,5.3-6.9,3.3-13.2,3.6c-7.2,0.3-13.7,4.1-13.8-4.1c-0.1-6,6-8.8,15.1-9.6
					C238.4,86.9,241.9,91.1,241.2,97.8z"/>
			</g>
			<circle class="st0" cx="223.3" cy="93.9" r="2.6"/>
			<circle class="st0" cx="224.6" cy="98.3" r="1"/>
		</g>
		<g>
			<g>
				<path class="st0" d="M297.2,96.2c1.3,5.5,7.7,2.2,14.3,1.9c7.5-0.3,14.9,2.4,13.9-6.2c-0.7-6.3-7.5-8.5-17.1-8
					C298.7,84.4,295.5,89.3,297.2,96.2z"/>
				<path class="st23" d="M296.9,94.9c2.5-6,8.2-7.4,15.5-6.6c7.8,0.8,11.5,3.6,12.8,7.4c0.2-1.1,0.3-2.4,0.1-3.7
					c-0.8-6.3-7.5-8.4-17.1-8C299.3,84.4,296,88.7,296.9,94.9z"/>
				<path class="st7" d="M317.2,92.4c-0.2-3.5-3.2-6.1-6.7-5.9c-3.5,0.2-6.1,3.2-5.9,6.7c0.2,3.5,3.2,6.1,6.7,5.9
					C314.8,98.9,317.5,95.9,317.2,92.4z"/>
				<path class="st24" d="M297.2,96.2c1.3,5.4,7.7,2.5,14.3,1.9c7.6-0.6,15,2.5,13.9-6.2c-0.7-6.3-7.5-8.5-17.1-8
					C298.7,84.4,295.5,89.3,297.2,96.2z"/>
			</g>
			<circle class="st0" cx="305.6" cy="90" r="2.8"/>
			<circle class="st0" cx="307.8" cy="94.6" r="1.1"/>
		</g>
		<path class="st6" d="M225.5,169.5c-10.8,0.8-29.7,15.8-34.7,54.2c3.9,5.5,12.9,7.8,22.5,8.3"/>
		<path class="st3" d="M239.8,360c-0.4,0.7-1.8,0.6-3.3-0.3c-1.4-0.9-3.3-2.5-5.7-4.8c-0.4-0.4-0.7-0.7-1.1-1.1
			c-0.5-0.5-1-1-1.5-1.5c-0.3-0.4-0.7-0.7-1.1-1.1c-0.9-0.9-1.8-2-2.8-3.1c-3.9-4.2-7.9-9.8-11.8-16.1c7.7,2.3,12.6,1,18.8-1.5
			c0.9,3,2.5,7.2,3.9,10.7C239.8,352.2,241,358.3,239.8,360z"/>
		<path class="st6" d="M194,226.9c-6.5,33,4.9,94.3,29.6,120.3c17.7,18.6,20.9,18.5,12.2-4.9c-6-16.2-6-21.7-4.3-36.3"/>
		<path class="st6" d="M222.2,333.4c1.5,7.1,8.6,16.9,17.2,26.6"/>
		<path class="st6" d="M191.9,216.3c5.4,4.4,10.9,6,17.3,7"/>
		<path class="st4" d="M224.3,183.2c-1.4,5.9-4,11.7-5.5,17c-3.9,13.7-5.4,24.1-5.6,31.8c-1.3-0.1-2.7-0.2-4-0.4c0-0.2,0-0.3,0-0.5
			c1.9-23.1,7.3-35.3,12.4-45.8L224.3,183.2z"/>
		<path class="st6" d="M342.8,341.4c-26.4,13.2-73.5,5.7-92.4-12.9c-31.3-30.8-33.1-55.9-34.2-80.1c-3.5-2-5.4-25,2.5-48.2
			c2.2-6.6,4-10.2,4.1-11.5c0.1-1.1-2.1-3.1-1.1-5.2c0.7-1.5,4.3-6.7,3.8-3.7"/>
		<path class="st6" d="M212.6,331.9c5.6,1.6,11,1.9,18.8-1.5"/>
		<path class="st4" d="M230.8,355.2c12,4.5-9-30-17.5-68.5c-3.8-17-4.3-34.8-4-55c1.3,0.1,2.6,0.3,3.9,0.3
			c-0.3,9.8,1.5,15.1,3.1,16.8c0.9,19.9,3.4,30.7,6,37.8c2.4,6,5.5,12.2,9.1,18.5c-1.5,16-1.1,22.9,4.7,37.6
			C243.5,361.9,240.4,364.8,230.8,355.2z"/>
	</g>
</g>
</svg>
