<?xml version="1.0" encoding="utf-8"?>
<!-- Generator: Adobe Illustrator 26.0.3, SVG Export Plug-In . SVG Version: 6.00 Build 0)  -->
<!DOCTYPE svg PUBLIC "-//W3C//DTD SVG 1.1//EN" "http://www.w3.org/Graphics/SVG/1.1/DTD/svg11.dtd" [
	<!ENTITY ns_extend "http://ns.adobe.com/Extensibility/1.0/">
	<!ENTITY ns_ai "http://ns.adobe.com/AdobeIllustrator/10.0/">
	<!ENTITY ns_graphs "http://ns.adobe.com/Graphs/1.0/">
	<!ENTITY ns_vars "http://ns.adobe.com/Variables/1.0/">
	<!ENTITY ns_imrep "http://ns.adobe.com/ImageReplacement/1.0/">
	<!ENTITY ns_sfw "http://ns.adobe.com/SaveForWeb/1.0/">
	<!ENTITY ns_custom "http://ns.adobe.com/GenericCustomNamespace/1.0/">
	<!ENTITY ns_adobe_xpath "http://ns.adobe.com/XPath/1.0/">
]>
<svg version="1.1" id="Слой_1" xmlns:x="&ns_extend;" xmlns:i="&ns_ai;" xmlns:graph="&ns_graphs;"
	 xmlns="http://www.w3.org/2000/svg" xmlns:xlink="http://www.w3.org/1999/xlink" x="0px" y="0px" width="426.7px" height="382.4px"
	 viewBox="0 0 426.7 382.4" style="enable-background:new 0 0 426.7 382.4;" xml:space="preserve">
<style type="text/css">
	.st0{fill:#FFFFFF;}
	.st1{fill:#CAA77A;}
	.st2{fill:#FFDB1F;}
	.st3{opacity:0.23;fill:#3F2719;}
	.st4{fill:#B6B1AE;}
	.st5{fill:#FFDBAF;}
	.st6{fill:#9D7B51;}
	.st7{fill:none;stroke:#9D7B51;stroke-width:3.87;stroke-linecap:round;stroke-linejoin:round;stroke-miterlimit:10;}
	.st8{fill:#251707;}
	.st9{fill:none;stroke:#2D1F04;stroke-width:2.62;stroke-linecap:round;stroke-linejoin:round;stroke-miterlimit:10;}
	.st10{fill:none;stroke:#2D1F04;stroke-width:7.6;stroke-linecap:round;stroke-linejoin:round;stroke-miterlimit:10;}
	.st11{fill:#D3E5EA;}
	.st12{fill:#2D1F04;}
	.st13{fill:none;stroke:#2D1F04;stroke-width:2.7806;stroke-linecap:round;stroke-linejoin:round;stroke-miterlimit:10;}
	.st14{fill:url(#SVGID_1_);}
	.st15{fill:url(#SVGID_00000107571657386674726750000003611551583926189442_);}
	.st16{opacity:0.43;}
	.st17{fill:#3399CC;}
	.st18{fill:#FF8A8A;}
	.st19{fill:#FF6900;}
	.st20{opacity:0.32;fill:#FFFFFF;}
</style>
<metadata>
	<sfw  xmlns="&ns_sfw;">
		<slices></slices>
		<sliceSourceBounds  bottomLeftOrigin="true" height="382.4" width="426.7" x="719.3" y="87.6"></sliceSourceBounds>
	</sfw>
</metadata>
<g>
	<path class="st0" d="M399.2,239.7c-0.4-15.6-0.9-33.1-0.2-47.1c18.3-18,29-38,27.5-51.7c-0.2-1.7-0.6-3.4-1.2-4.9c0,0,0,0,0-0.1
		c-1.3-3.3-3.5-6-6.4-7.7c-2-1.2-4.2-1.8-6.5-1.8c-0.7,0-1.3,0.1-1.9,0.1c-0.1-2.9-0.8-5.9-2.4-8.6c-23.9-40.4-54-70.9-89.6-90.5
		C285.2,9.3,246.4,0,203,0c-33.7,0-67.9,9.9-98.9,28.6C70,49.1,41.1,79.2,18,117.8c-2.4,4-3.1,8.7-1.9,13.3c0.8,3.2,2.5,6,4.7,8.2
		c-1.8-0.9-3.8-1.5-6.1-1.5c-1.8,0-3.6,0.4-5.4,1.2c-2.6,1.2-7.2,4.3-8.8,11.8c-2.9,13.8,6.2,35.5,23.2,55.7
		c5.7,23.2,6.7,34.3,7.9,47.1c0.3,3.6,0.7,7.3,1.1,11.4c3.3,29.5,5.8,40.5,10.4,53.9c4.4,13,10.9,28.7,22.7,35.8
		c7.1,4.3,15,6.4,23.4,6.4c3.5,0,7.2-0.4,10.9-1.1c0.2,6.2,1.6,11.9,4.1,17.2c1.9,4.1,4.4,5.2,16.5,5.2c45.7,0,134.5,0,182,0
		c13,0,16-2.4,17.1-7.8c1.8-8.5,5.5-15.4,7.6-18.3c0.5,0,1.1,0,1.7,0c3.5,0,8.8-0.1,16-1.3c16.9-1.6,33.6-14.6,43.8-33.9
		c9.8-18.6,11.3-41.6,10.6-72.7C399.4,245.6,399.3,242.7,399.2,239.7z M182.9,81.1c-2.9,0-5.7,1.1-7.8,3c-1.7,1.5-3.1,3.2-4.2,5.1
		c-4.6,0.3-8.8,1.5-12.3,3.6c-4.8,2.8-7.9,7.1-8.9,12c-0.3,1.4-0.3,2.9,0,4.3c-7.3,6.8-12.9,14.9-16.7,24.1
		c-4.5,4.2-7.1,7.6-7.6,8.3c-3,4.1-4.5,13.5,0.7,19.4c0.9,10.8,2.1,21,4.5,33.9c1.4,7.6,3.4,14.3,4.9,19.6c0.1,0.5,0.3,1.1,0.5,1.7
		c0.1,0.3,0.2,0.6,0.3,0.9c-0.6,1.5-1.2,3.4-1.4,5.9c-0.1,1-0.1,1.9,0.1,2.8c-0.6,2.4-0.6,4.7-0.2,7.1c-12.4,0.7-23.5,7.2-32.2,18.8
		c-8.5-17.2-15-28.1-21.2-38.7C76,204,71,195.4,65,183.4c-1.6-3.4-4.1-6.5-7.2-9.6c0,0,0.1,0,0.1,0.1c2.2,0.9,4.5,1.4,6.9,1.4
		c7,0,13.3-4.2,16.1-10.6c15.6-36.3,61-76.3,107.3-85.3c-0.9,0.6-1.8,1.3-2.6,2C184.7,81.2,183.8,81.1,182.9,81.1z M342.8,205.8
		c-4.3,12.9-8.7,26.1-14.9,37.6c-6.1-4.4-12.1-7.9-17.8-10.4c1.2-19.8-1.3-40.2-7.2-58.3c-10.8-32.9-31.8-58.3-62.4-75.5
		c-3.8-2.1-8.6-5.1-10-7.5c-0.7-1.2-2.2-3.6-5.3-5.4c-1.4-0.8-2.9-1.3-4.4-1.4c-0.3-0.5-0.7-1-1-1.4c-0.1-0.4-0.2-0.9-0.3-1.3
		c-0.4-1.6-1.2-3-2.1-4.2c70,4.1,105.3,48.2,128.4,86.8c2.3,3.8,5.9,6.5,10,7.8C350.7,182.2,346.8,193.7,342.8,205.8z"/>
	<g>
		<path class="st1" d="M312.7,250.3c14.5,12.9,43.6,28.4,67.2,56.3c-11.2,24.4-54,23.2-59.4,28.7c-7.8,8.1-7.8,22.5-12.2,37.1
			c-39.2,0-183,0-193.5,0c-2-4.2-3.7-9.9-2.7-19.6c0.1-0.7,0.2-1.5,0.3-2.3c2-12.9,6.3-26.8,14.8-43.1c0.2-0.4,0.4-0.7,0.6-1.1
			c0.1-0.2,0.2-0.4,0.3-0.6c0.4-0.6,0.7-1.3,1-2c0.1-0.3,0.3-0.5,0.5-0.8c0.1-0.1,0.1-0.2,0.2-0.4c0.1-0.1,0.1-0.3,0.2-0.4
			c0.1-0.1,0.2-0.3,0.2-0.4c0.1-0.1,0.2-0.3,0.2-0.4v0c-0.1-0.5-0.3-1-0.4-1.4c0,0,0,0,0,0c0-0.2-0.1-0.3-0.1-0.5c0,0,0,0,0,0
			c0,0,0,0,0,0c0,0,0,0,0,0c-0.1-0.7-0.2-1.5-0.3-2.3l0,0c-0.1-1-0.1-2.1,0-3.2c0.5-13.7,8.8-32.1,9-33.1c0.2-1.1-1.8-3.1-0.7-5.2
			c0.6-1,3-4.1,3.8-4.2c0,0,0,0,0,0c0.1,0.1,0.1,0.3,0,0.7c0.1,0,0.1,0,0.2,0.1c1,0.4,2,0.7,3.1,1.1c-0.2,0.7-0.3,1.3-0.5,1.8h0
			c0.2-0.5,0.3-1.1,0.5-1.8c0.8,0.3,1.7,0.6,2.6,0.9c0.4,0.1,0.8,0.3,1.3,0.4c0.4,0.1,0.8,0.2,1.2,0.4c6.1,1.9,13.6,3.8,22.4,5.3
			c0.2,0,0.5,0.1,0.7,0.1c0.4,0.1,0.8,0.1,1.2,0.2c5.7,1,10.3,1.6,15.3,1.9c0.1,0,0.2,0,0.3,0c3,0.2,6.2,0.4,10,0.5
			c18.5,0.6,32-1.9,34.9-2.5c0.4-0.1,0.8-0.2,1.2-0.3c9.5-3,16.7-6,23.6-9.5c3.9-1.9,8.4-5,12.6-7.2c0.2-0.1,0.4-0.2,0.5-0.3
			c6.8-3.6,14.1-4.3,19.2-3.6c0,0,0,0,0,0C305.5,242.1,312.7,250.3,312.7,250.3z"/>
		<path class="st1" d="M101.2,282.2c-10.6,6.2-31.9,20.4-45,39.3c5.1,14.5,11.1,22.3,20.5,25.9c15.7,6,35.8-1.3,42.4-8.8
			c21.8-24.8,29.5-35.1,21.8-49C133.2,275.6,112.3,272.9,101.2,282.2z"/>
		<g>
			<path class="st2" d="M146.7,246.4c-0.7,2.9-1.6,6.4-2.2,8.6c-0.8,0-3.7,2.7-4.4,3.6c-1.4,1.8,0.3,4.2-0.1,5.2
				c-0.3,0.9-5.4,23.5-9,36c-7.8-4-25.5-12.9-29-16.9c-0.3-0.3-0.5-0.5-0.7-0.8c-0.8-0.9-1.6-5.7,2-7.8c0.5-1.1,1-2.3,1.6-3.6
				C115.6,247.7,131.1,241.3,146.7,246.4L146.7,246.4z"/>
		</g>
		<g>
			<path class="st3" d="M146.7,246.4c-0.7,2.9-1.6,6.4-2.2,8.6c-0.8,0-3.6,2.7-4.4,3.6c-1.4,1.8,0.3,4.2-0.1,5.2
				c-0.3,0.9-5.4,23.5-9,36c-3.2-1.7-8.2-4.2-13.2-6.9c2.7,0.8,5.7,0.8,6.3-1.2c0.8-2.6,1-5.4-0.8-6.2c2.5-0.1,5.4-10.9,7.2-16.3
				c1.7-5,7.4-20.5,14.5-23.3C145.6,246.1,146.2,246.2,146.7,246.4L146.7,246.4z"/>
		</g>
		<path class="st1" d="M296.1,250.4c-6.6,1.7-12.6,3.7-20.9,5.7c-13,3.1-25.1,7.2-38.2,8.4c-2.9,0.3-16.4-0.8-34.9-1.6
			c-12-0.5-20.5-1.5-30.8-3.1c-13-2-20.1-4.8-29.2-7.9c0.2-0.6,3.7-7.5,3.4-7.5c0.6-2.2,1.4-5.7,2-8.6l0,0c0.6-2.8,1-5.3,0.8-5.5
			c-0.8,0-1.5,0.6-1.9,1.4c-1.3-4.3,2.3-6.9,2.5-9.1c0-0.5-1.3-0.1-2.4,1.4c0.3-3.3,1.7-4,1.8-5.2c0.1-2.4-0.9-5.1-1.5-7.4
			c-7.1-26-20.2-76.3,21.2-101.6c-1.7-3.7-6.8-2.8-6.8-2.9c0.9-4.7,9.5-8.2,19.6-5c0.4-0.4-2.6-4.9,2.2-9.2
			c-0.1,3.9,2.6,8.2,3.8,6.4c4.3-9.8,11.9-14.2,21.5-14.1c-3.4,2-5.8,7.2-5.3,12.4c0,0,4.2-5.8,7.9-6.6c-4.3,5.4-1.9,9.1-0.1,9.9
			c1.4,0.7,8.3-1.4,8.7-4.5c1.7,1,0.6,4.6,15.3,12.9C296.8,144.5,303.7,211.3,296.1,250.4z"/>
		<path class="st4" d="M204.7,338.5c-0.1-0.2-0.3-0.5-0.4-0.7"/>
		<path class="st5" d="M143,149.6c3.4-8.9,6.8-14.3,22.5-21.2c8.9-3.9,38.8-3.7,34-12.7c9.9,2.5,16,12.3,24.7,13.4
			c9.1,1.1,28.7,9,41.1,32c2.5,4.6,11.2,43.1-20.1,58.9c-23.9,12.1-75.3,15.8-94.4-15.5C141.8,189.9,137.9,166.3,143,149.6z"/>
		<path class="st6" d="M189.7,153.4c-7.2-4.7-15.4,13.7-16.7,19.1c-3.3,13.9,0.6,21.7,8.5,25.2s18.6,3.4,27.2-0.8
			c21.9-10.5,4.4-46.8-9.6-43.1"/>
		<path class="st6" d="M141.9,179.9c13.6,0.5,47.5-10.9,35.7-53.5c-9.3,0.1-18.2,2.2-29.7,10.2C139.2,150.8,139.5,167,141.9,179.9z"
			/>
		<path class="st6" d="M220.5,131.6c-20.9,61.1,45.3,64.4,45.3,64.4s8.2-22.8-3.4-42.1C255.3,142.2,238.7,132.5,220.5,131.6z"/>
		<g>
			<line class="st7" x1="166" y1="234.9" x2="165.5" y2="241.2"/>
			<line class="st7" x1="159.3" y1="237.6" x2="158.8" y2="244"/>
		</g>
		<path class="st3" d="M162.5,105.5c-0.1,0-0.3,0.1-0.3,0.1c-0.1,0-0.1,0.1-0.1,0.2"/>
		<path class="st8" d="M184.2,153.1c0.2-2.6,5.1-4.4,11.1-4c5.9,0.4,10.6,2.8,10.4,5.4c-0.2,2.6-5.1,4.4-11.1,4
			C188.6,158.1,184,155.7,184.2,153.1z"/>
		<path class="st9" d="M141.8,251.3c2.7-6.5,6.9-20.5,6.5-20.8c-0.8,0-1.5,0.6-1.9,1.5c-1.3-4.3,2.3-6.9,2.5-9.1
			c0-0.5-1.3-0.1-2.4,1.4c0.3-3.3,1.7-4,1.8-5.2c0.1-2.4-0.9-5.1-1.5-7.4c-7.2-26-20.2-76.3,21.2-101.6c-1.7-3.7-6.8-2.8-6.8-2.9
			c0.9-4.7,9.5-8.2,19.6-5c0.4-0.4-2.6-4.9,2.2-9.2c-0.1,3.9,2.6,8.2,3.8,6.4c4.3-9.8,11.9-14.2,21.5-14.1c-3.4,2-5.8,7.2-5.3,12.4
			c0,0.1,4.2-5.8,7.9-6.6c-4.6,4.7-2.1,9-0.3,9.9c1.4,0.7,8.5-1.3,8.9-4.4c1.7,1,0.6,4.6,15.3,12.9c62.4,35.1,69.1,101.9,61.4,141"
			/>
		<path class="st9" d="M193.7,158c-1,4.3-0.9,10.2,0.6,16.5c0,6.9-13.2,12.8-16.9,2.5"/>
		<path class="st3" d="M179.9,329.2c-0.2-0.1-0.3-0.2-0.5-0.3"/>
		<path class="st3" d="M296.1,250.4c-5.9,1.6-15.4,4.3-20.9,5.7c7.1-29.4,8.4-75.3-8.9-105.6c-12.2-21.4-30.2-32.3-46.6-37
			c-1.4-0.4-3.6-3.2-5.7-3.3c0.1,1.1-0.8,1.8-1.9,1.6c-1.5-0.3-4.5-1.6-3.4-4.3c-3-0.2-4.5,3.2-6.2,3c-1.7-0.1-3.6-4.3-7.4-4.6
			c1.5,3.3-1.8,5.1-4,5.5c-2.7,0.5-4-1-3.1-2.5c-2.7-0.2-4,2.1-9.8,3.6c-9,2.3-21.3,7.3-30.9,18.5c5.9-10.2,14.1-17,20.6-20.9
			c-1.7-3.7-6.8-2.8-6.8-2.9c0.9-4.7,9.5-8.2,19.6-5c0.4-0.4-2.6-4.9,2.2-9.2c-0.1,3.9,2.6,8.2,3.8,6.4c4.3-9.8,11.9-14.2,21.5-14.1
			c-3.4,2-5.8,7.2-5.3,12.4c0,0,4.2-5.8,7.9-6.6c-4.3,5.2-1.9,9.1-0.2,9.9c1.4,0.7,8.3-1.4,8.7-4.5c1.7,1,0.6,4.6,15.3,12.9
			C296.8,144.5,303.7,211.3,296.1,250.4z"/>
		<path class="st9" d="M173.8,277.7"/>
		<path class="st9" d="M188.3,236.6"/>
		<path class="st10" d="M181.8,127.3c-28.6,1-44.7,23.1-44.7,23.1"/>
		<path class="st10" d="M218.9,128.1c38.6,8.1,48.6,32,48.6,32"/>
		<g>
			<g>
				<path class="st0" d="M145.6,158.1c1.3,5.1,7.2,2,13.4,1.6c7-0.4,14,2,12.9-6c-0.8-5.9-7.1-7.8-16.1-7.3S143.9,151.6,145.6,158.1
					z"/>
				<path class="st11" d="M145.3,156.8c2.2-5.7,7.5-7,14.4-6.4c7.3,0.7,10.8,3.2,12.1,6.8c0.2-1.1,0.3-2.2,0.1-3.5
					c-0.8-5.9-7.1-7.8-16.1-7.3C147.4,147,144.3,151.1,145.3,156.8z"/>
				<path class="st12" d="M165.3,154.6c-0.3-3.3-3.1-5.7-6.4-5.4c-3.3,0.3-5.7,3.1-5.4,6.4c0.3,3.3,3.1,5.7,6.4,5.4
					C163.1,160.7,165.6,157.8,165.3,154.6z"/>
				<path class="st9" d="M145.6,158.1c1.3,5.1,7.2,2.2,13.4,1.6c7.1-0.7,14,2.1,12.9-6c-0.8-5.9-7.1-7.8-16.1-7.3
					S143.9,151.6,145.6,158.1z"/>
			</g>
			<circle class="st0" cx="155.3" cy="151.8" r="2.6"/>
		</g>
		<g>
			<g>
				<path class="st0" d="M252.1,160.1c-1.2,5.2-7.2,2.1-13.3,1.8c-7-0.3-14,2.2-13-5.8c0.7-5.9,7-7.9,16-7.5
					C250.7,149.1,253.7,153.7,252.1,160.1z"/>
				<path class="st11" d="M252.3,158.9c-2.3-5.6-7.6-6.9-14.5-6.1c-7.3,0.8-10.8,3.4-12,6.9c-0.2-1.1-0.3-2.2-0.1-3.5
					c0.7-5.9,7-7.9,16-7.5C250.1,149.1,253.2,153.1,252.3,158.9z"/>
				<path class="st12" d="M233.9,156.9c0.2-3.3,3-5.7,6.3-5.5c3.3,0.2,5.7,3,5.5,6.3c-0.2,3.3-3,5.7-6.3,5.5
					C236.2,162.9,233.7,160.1,233.9,156.9z"/>
				<path class="st9" d="M252.1,160.1c-1.2,5.1-7.2,2.3-13.3,1.8c-7.1-0.6-14,2.3-13-5.8c0.7-5.9,7-7.9,16-7.5
					C250.7,149.1,253.7,153.7,252.1,160.1z"/>
			</g>
			<circle class="st0" cx="235.6" cy="154.4" r="2.6"/>
		</g>
		<path class="st2" d="M292,239.6C292,239.5,292,239.5,292,239.6c-5.1-0.7-12.4,0-19.2,3.6c-0.2,0.1-0.4,0.2-0.5,0.3
			c-4.1,2.3-8.7,5.3-12.6,7.2c-6.9,3.4-14.1,6.5-23.6,9.5c-0.4,0.1-0.8,0.2-1.2,0.3c-2.8,0.6-16.3,3.1-34.9,2.5
			c-3.8-0.1-7-0.3-10-0.5c-0.1,0-0.2,0-0.3,0c-5.1-0.4-9.6-0.9-15.3-1.9c-0.4-0.1-0.8-0.1-1.2-0.2c-0.2,0-0.5-0.1-0.7-0.1
			c-8.7-1.5-16.3-3.4-22.4-5.3c-0.4-0.1-0.8-0.2-1.2-0.4c-0.4-0.1-0.9-0.3-1.3-0.4c-0.9-0.3-1.7-0.6-2.6-0.9
			c-0.2,0.7-0.3,1.3-0.5,1.8h0c0.2-0.5,0.3-1.1,0.5-1.8c-1.1-0.4-2.1-0.7-3.1-1.1c-0.1,0-0.1,0-0.2-0.1c0.1-0.4,0.1-0.6,0-0.7
			c0,0,0,0,0,0c-0.8,0.1-3.2,3.2-3.8,4.2c-1.2,2,0.9,4.1,0.7,5.2c-0.2,1-8.4,19.4-9,33.1c0,1.1,0,2.2,0,3.2l0,0
			c0,0.8,0.1,1.6,0.3,2.3c0,0,0,0,0,0c0,0,0,0,0,0c0,0,0,0,0,0c0,0.2,0.1,0.3,0.1,0.5c0,0,0,0,0,0c0.1,0.5,0.2,1,0.4,1.4v0
			c-0.1,0.1-0.2,0.3-0.2,0.4c-0.1,0.1-0.2,0.3-0.2,0.4c-0.1,0.1-0.1,0.3-0.2,0.4c-0.1,0.1-0.1,0.2-0.2,0.4c-0.1,0.3-0.3,0.6-0.5,0.8
			c-0.4,0.7-0.7,1.3-1,2c-0.1,0.2-0.2,0.4-0.3,0.6c-0.2,0.4-0.4,0.7-0.6,1.1c-8.4,16.3-12.8,30.2-14.8,43.1
			c-0.1,0.8-0.2,1.5-0.3,2.3c-1,9.7,0.8,15.5,2.7,19.6c10.5,0,154.4,0,193.5,0c2.2-7.4,4.6-17.9,12.4-26c2.4-2.4,8.5-0.2,19.6-2.8
			c4.5-1.1-5.2-15.9-10.4-30.4c-5.9-16.4-2.8-30.8,4.2-49C323,253.4,305.5,242.1,292,239.6z"/>
		<g>
			<g>
				<path class="st12" d="M152,293c7.7,0.8,14.9,1.4,22.1,2.2c5.9,0.7,8,4.7,7.1,8.3c-1.3,5-6.1,8-12.6,9.1
					c-0.3,0.1-0.7,0.1-1.4,0.2c4.8,3.8,2.5,10,7.5,16.1c-5.3-0.7-10-1.3-14.9-2c-2.3-3.8-3.1-7.5-3.2-11.1c0-2-0.5-3.5-4-3.3
					c-3,4-5.7,8.2-6,12.8c-4.2-0.5-7.7-0.8-11.2-1.1C138.8,312.1,149.7,305.5,152,293z M161.1,300.3c-1,2.1-2.2,3.9-3.9,6.2
					c2.4,0.2,4.8,0.4,7.3,0.4c2.2,0,4-1,4.9-2.6c1-1.6,0.4-3-1.6-3.4C165.7,300.6,163.4,300.6,161.1,300.3z"/>
				<path class="st12" d="M213.4,308.4c-3.4-0.1-6.6-0.3-10-0.4c0.3-3-1.3-4.8-4.1-5.1c-1.8-0.2-3.4,0.2-4.6,2.2
					c-0.4,1.7,0.6,2.4,1.9,2.9c2.3,0.9,4.7,1.8,7,2.7c1.3,0.5,2.5,1.2,3.6,1.9c7.1,4.6,3.8,13.9-1.9,17.7c-1.9,1.3-4.3,2-6.9,2.1
					c-4.2,0.2-9-0.5-13.9-2.2c-6.4-2.2-10.3-7-7.9-12.3c3.7,0.3,7.4,0.6,11.2,0.9c0,0.7,0,1.3,0,1.9c0.4,3.3,4.4,5.4,8.1,4.5
					c1.7-0.4,2.9-1.3,3.3-2.8c0.4-1.4-0.2-2.6-1.5-3.3c-1.1-0.6-2.2-1.1-3.4-1.6c-2.4-1-4.9-1.9-7-3.1c-4.1-2.4-4.7-5.7-3-9.4
					c1.9-4.1,4.7-7.4,9.2-8.5c4.2-1,8.7-0.8,13.3,1.1C211.7,299.5,214.3,303.1,213.4,308.4z"/>
			</g>
		</g>
		<path class="st3" d="M121.7,319.5c3.9-4,8.4-6.3,10.6-7.5c4.8-2.5,10.5-2.3,15.5-1.2c13.6,3,37.8,12.8,51.7,15.7
			c25.3,5.4,48.3-2.3,45.9-6.3c-2-3.4-41,3.2-55-2.9c-12.4-5.4-32.4-7.8-45.4-11c-3.1-0.8-13.2-4.2-15.5-9.2c-0.1,2.1,0.3,2.8,0.9,4
			C129.1,303.5,126.4,307.9,121.7,319.5z"/>
		<path class="st9" d="M141.9,252.2c0.2-0.7,0.1-0.9-0.2-0.9c-0.8,0.1-3.2,3.2-3.8,4.2c-1.1,2,0.9,4.1,0.7,5.2
			c-0.2,1.2-12.3,28-8.1,41"/>
		<path class="st9" d="M139.2,260.1c5.9,4.6,17.7,7.7,30.2,10.2c17.1,3.3,41.6,5.7,68.9,1.1"/>
		<path class="st9" d="M148.5,254.9c-0.7,1.8-1.5,3.1-1.6,5.1"/>
		<path class="st9" d="M159.5,258c-1,1.6-1.3,3.8-1.4,5.6"/>
		<polyline class="st9" points="213.9,264 213.9,264.5 213.9,265 213.8,266 213.7,266.4 		"/>
		<polyline class="st9" points="217.6,264.3 217.6,265 217.5,265.7 217.5,266.2 		"/>
		<path class="st9" d="M107,286.8c-2.3-1.5-4.2-2.8-5.1-3.9c-0.3-0.3-0.5-0.5-0.7-0.8c-0.8-0.9-1.6-5.5,2-7.8c0.5-1.1,1-2.3,1.6-3.6
			c9.7-20.9,23.3-28.1,37.4-25.5"/>
		<path class="st9" d="M103.2,274.4c4.7,3.2,13.5,8.4,22.7,12.3"/>
		<path class="st9" d="M110.2,278.8c-1.2,0.6-2.1,2.7-2.3,3.8"/>
		<path class="st9" d="M116.6,282.3c-0.8,0.6-1.4,2.3-1.5,3"/>
		<path class="st13" d="M114.7,372.4c-2.1-4.5-4.1-11.1-2.4-21.9c2.2-14.6,7.5-30.4,18.2-49.6"/>
		<path class="st9" d="M141.9,252.1c10.3,3.8,27.5,8.8,49.9,10.6c18.5,1.5,35.9,0.1,43.2-2.1c10.1-3.1,17.5-6.3,24.7-9.8
			c4.1-2,8.8-5.2,13.1-7.5c6.8-3.6,23.9-10.7,55.2,15.3"/>
		
			<radialGradient id="SVGID_1_" cx="213.3268" cy="681.8201" r="22.0036" gradientTransform="matrix(0.9988 4.920416e-02 -2.866979e-02 0.582 52.1397 -232.3598)" gradientUnits="userSpaceOnUse">
			<stop  offset="0" style="stop-color:#FF8A8A;stop-opacity:0.5"/>
			<stop  offset="1" style="stop-color:#FF8A8A;stop-opacity:0"/>
		</radialGradient>
		<path class="st14" d="M268.5,175.9c-0.3,7.4-10.8,13.1-23.5,12.5s-22.6-7-22.3-14.5c0.3-7.4,10.8-13.1,23.5-12.5
			C258.9,162,268.9,168.5,268.5,175.9z"/>
		
			<radialGradient id="SVGID_00000168118094488086076070000002428062245521692559_" cx="-203.7201" cy="1005.0587" r="20.0683" gradientTransform="matrix(0.8391 0.1414 -9.553622e-02 0.5748 419.0089 -377.1797)" gradientUnits="userSpaceOnUse">
			<stop  offset="0" style="stop-color:#FF8A8A;stop-opacity:0.5"/>
			<stop  offset="1" style="stop-color:#FF8A8A;stop-opacity:0"/>
		</radialGradient>
		<path style="fill:url(#SVGID_00000168118094488086076070000002428062245521692559_);" d="M169.6,174.5c-1.1,6.7-9.8,10.9-19.5,9.3
			c-9.7-1.6-16.7-8.3-15.6-15c1.1-6.7,9.8-10.9,19.5-9.3C163.7,161.1,170.7,167.8,169.6,174.5z"/>
		<path class="st3" d="M340.3,343.7c-11.1,2.6-17.2,0.4-19.6,2.8c-7.8,8.1-9.7,17.1-12.4,26h-22.8c8.8-26.6,16.2-50.4,14.7-66.6
			c5,10.5,16.8,13.5,25.2,13.4c0.9,3.1,1.9,6.3,3,9.3C333.6,343,344.7,342.6,340.3,343.7z"/>
		<path class="st9" d="M334.1,322c1.6,2.6,3.6,5.2,6.2,7.9"/>
		<path class="st9" d="M334.1,333.6c-8.7-9.3-14.1-21.9-17.6-36.6"/>
		<path class="st3" d="M257.6,268.8c-0.7-4.2-2.6-5.6-7.7-6.4c-7.3-1.2-16.7-0.4-25.7-0.4c5.6-0.6,9.3-1.3,10.7-1.6
			c0.4-0.1,0.8-0.2,1.2-0.3c9.5-3,16.7-6,23.6-9.5c3.3-1.7,7.1-4.1,10.8-6.2C263,250.2,259,255.4,257.6,268.8z"/>
		<path class="st1" d="M54.1,315.4c11,35.6,50,46.4,51.8-7.1c0.7-19.4-5.8-34.7-13.8-50.8c-17.1-34.6-24.3-42.1-37.7-68.6
			c-5.4,2.3-13.8,7.8-20.1,12.4c7.7,32.4,7.7,40.7,9.9,62.7C47.3,294.4,49.8,301.7,54.1,315.4z"/>
		<path class="st4" d="M54.4,188.8c-3.4,4.8-9.6,10.6-17.4,12c-0.9,0.2-1.8,0.3-2.6,0.4c-23.7-26.9-25.8-48.9-20.2-51.4
			c3.1-1.4,9.9,12.1,20.9,20.5C44.7,177.8,52,183.5,54.4,188.8z"/>
		<g>
			<g class="st16">
				<g>
					<path class="st17" d="M392.9,134.6c-2.5,0-5-1.3-6.3-3.6C344.5,59.8,284.4,25.1,202.9,25.1c-63,0-124.1,39.5-163.5,105.7
						c-2.1,3.5-6.6,4.6-10.1,2.6c-3.5-2.1-4.6-6.6-2.6-10.1c22.2-37.2,50-66.1,82.6-85.7c29.4-17.7,61.8-27.1,93.6-27.1
						c41.7,0,78.9,8.9,110.7,26.4c33.9,18.7,62.8,47.9,85.7,86.7c2.1,3.5,0.9,8-2.6,10.1C395.5,134.3,394.2,134.6,392.9,134.6z"/>
				</g>
				<g>
					<path class="st18" d="M43,144.5c-1.2,0-2.4-0.3-3.6-0.9c-3.5-2-4.8-6.4-2.9-10c18.5-33.3,44.5-61.1,75.2-80.5
						c29.5-18.6,61.4-28.5,92.4-28.5c82,0,142.5,35.6,185,108.9c2,3.5,0.8,8-2.7,10c-3.5,2-8,0.8-10-2.7
						c-39.6-68.4-96-101.6-172.2-101.6c-59.7,0-120.4,39.8-154.7,101.5C48.1,143.2,45.6,144.5,43,144.5z"/>
				</g>
				<g>
					<path class="st2" d="M53.7,155c-1.1,0-2.2-0.3-3.3-0.8c-3.6-1.8-5.1-6.2-3.3-9.9C77.8,83.1,144.4,38.7,205.3,38.7
						c40,0,73.6,9,102.8,27.4c27.5,17.3,50.5,42.8,70.3,77.9c2,3.5,0.8,8-2.8,10c-3.5,2-8,0.8-10-2.8
						c-37.8-66.7-88.8-97.8-160.3-97.8c-55.7,0-116.7,41-145.1,97.5C59,153.5,56.4,155,53.7,155z"/>
				</g>
				<g>
					<path class="st19" d="M64.7,165.3c-1,0-2-0.2-2.9-0.6c-3.7-1.6-5.5-5.9-3.9-9.7c11-25.7,32.7-51.4,59.5-70.6
						c28.5-20.4,60.2-31.6,89.1-31.6c89.7,0,132.9,53,160.5,99.2c2.1,3.5,0.9,8-2.5,10.1c-3.5,2.1-8,0.9-10.1-2.5
						c-25.6-42.9-65.5-92-147.9-92c-56.9,0-115.8,48.2-135.1,93.3C70.2,163.7,67.5,165.3,64.7,165.3z"/>
				</g>
			</g>
		</g>
		<path class="st1" d="M378.5,315.8c-20.6,39.2-65.5,39.3-64.1-14.3c0.5-19.4,11.3-33,18.5-43.6c17.7-26.4,22.6-63.6,36-84.7
			c5.3,2.7,10.7,6.5,18.7,14.5c-1.1,17.6-0.2,42.5,0.2,61.1C388.4,279.4,386.9,299.8,378.5,315.8z"/>
		<path class="st4" d="M368.8,173.2c2.9,5.2,8.4,11.5,16.1,13.8c0.9,0.2,1.7,0.5,2.6,0.7c26.3-24.3,30.7-45.9,25.4-49.1
			c-2.9-1.7-11.1,11-22.9,18.3C379.7,163.3,371.8,168.2,368.8,173.2z"/>
		<path class="st9" d="M105.5,314.1c0.2-1.9,0.3-3.8,0.4-5.9c0.7-19.4-5.6-34.3-13.8-50.8c-15.8-31.7-24.3-42.1-37.7-68.6"/>
		<path class="st9" d="M54.4,188.8c-3.4,4.8-9.6,10.6-17.4,12c-0.9,0.2-1.8,0.3-2.6,0.4c-23.7-26.9-25.8-48.9-20.2-51.4
			c3.1-1.4,9.9,12.1,20.9,20.5C44.7,177.8,52,183.5,54.4,188.8z"/>
		<path class="st9" d="M387.5,187.7c-1.1,17.6-0.2,42.5,0.2,61.1c0.7,30.6-0.8,51-9.2,67c-20.6,39.2-65.5,39.3-64.1-14.3
			c0.5-19.4,11.3-33,18.5-43.6c17.7-26.4,22.6-63.6,36-84.7"/>
		<path class="st9" d="M368.8,173.2c2.9,5.2,8.4,11.5,16.1,13.8c0.9,0.2,1.7,0.5,2.6,0.7c26.3-24.3,30.7-45.9,25.4-49.1
			c-2.9-1.7-11.1,11-22.9,18.3C379.7,163.3,371.8,168.2,368.8,173.2z"/>
		<path class="st9" d="M194.3,174.6c1.9,8.6,15.8,11,18.3,0.6"/>
		<path class="st9" d="M34.4,201.3c8.2,32.8,7.8,43.5,9.9,62.7c3.3,29.6,5.8,39.7,9.8,51.4c4,11.7,9.5,24.6,17.6,29.5
			c14.4,8.7,30.4,3.8,41.1-1.7"/>
		<path class="st9" d="M343.6,343.6c-13.9,2.5-19.5-0.1-22.9,2.9c-3.4,3-9.6,12.7-12.4,26"/>
		<path class="st9" d="M414.4,140.7c-3,9.2-22.8,31.4-36.7,42.8"/>
		<path class="st9" d="M12.6,151.3c1,10.2,13.7,31.1,31.6,46.8"/>
		<g>
			<path class="st0" d="M215.9,50.4c-0.4-0.7-0.9-1.4-1.4-1.9c-0.6-0.5-1.2-0.9-1.9-1.2c-0.7-0.2-1.3-0.4-2-0.4c-0.2,0-0.3,0-0.6,0
				c-1.3,0.1-2.5,0.6-3.4,1.4c-0.1,0-0.1,0.1-0.2,0.2c-2.1,2.1-4.6,3.3-7.7,3.5c-0.4,0-0.7,0-1.1,0c-3.1,0-5.8-1.1-8.2-3.3
				c-2.4-2.2-3.9-4.9-4.4-8.3c-0.1-0.4-0.1-0.8-0.1-1.2c-0.3-3.8,0.7-7.1,3-10c2.3-2.9,5.2-4.4,8.7-4.6c0.3,0,0.7,0,1,0
				c1.1,0,2.2,0.1,3.2,0.4c1.3,0.4,2.6,1,3.7,1.8c1.1,0.9,2.4,1.3,3.8,1.3c0.1,0,0.3,0,0.4,0c0.8-0.1,1.6-0.3,2.4-0.7
				c0.7-0.4,1.4-0.9,1.9-1.5c0.3-0.4,0.6-0.9,0.8-1.4c0.1-0.2,0.2-0.5,0.3-0.7c0.2-0.8,0.3-1.6,0.3-2.4c-0.2-2.2-1.2-3.5-2-4.2
				c-0.1-0.1-0.1-0.1-0.2-0.2c-4.5-3.3-9.4-5-14.6-5c-0.6,0-1.3,0-1.9,0.1c-6.9,0.5-12.6,3.6-17.1,9.1c-1.5,1.9-2.8,3.9-3.7,6
				c-1.8,3.9-2.5,8.3-2.1,12.9c0.1,0.8,0.2,1.6,0.3,2.4c1,6.1,3.8,11.3,8.3,15.4c4.7,4.3,10.2,6.4,16.2,6.4c0.7,0,1.3,0,2-0.1
				c5.8-0.4,10.9-2.8,15.3-7c0.1-0.1,0.2-0.2,0.3-0.3c1.1-1.3,1.5-2.9,1.4-4.5C216.4,51.9,216.2,51.1,215.9,50.4z M269.6,37
				c-0.2-1.3-0.6-2.5-1-3.8c-0.7-1.9-1.6-3.8-2.7-5.6c-3.8-6-9.1-9.7-15.8-11c-1.6-0.3-3.3-0.5-4.9-0.5c-4.9,0-9.7,1.6-14,4.6
				c-1.9,1.4-3.6,2.9-5.1,4.6c-2.8,3.4-4.7,7.4-5.6,12c-0.1,0.8-0.3,1.5-0.4,2.3c-0.8,6.2,0.5,12,3.9,17.2c3.8,6,9.1,9.7,15.9,11
				c1.7,0.3,3.3,0.5,4.9,0.5c4.9,0,9.6-1.6,14-4.6c5.3-3.7,8.8-8.8,10.3-15.1c0.1-0.5,0.3-1.1,0.4-1.6
				C270.1,43.7,270.2,40.3,269.6,37z M251.9,53.6c-2.3,1.6-4.6,2.4-7,2.4c-0.8,0-1.7-0.1-2.5-0.3c-3.5-0.7-6.1-2.5-8-5.6
				c-1.8-2.9-2.5-5.9-2-9.3c0-0.3,0.1-0.7,0.2-1c0.4-1.9,1-3.6,1.9-5c0.9-1.4,2.1-2.7,3.7-3.8c1.5-1.1,3.1-1.8,4.6-2.1
				c0.8-0.2,1.6-0.3,2.4-0.3s1.7,0.1,2.6,0.3c3.4,0.7,6.1,2.5,8,5.6c2,3.1,2.6,6.5,1.8,10.3c0,0.2-0.1,0.4-0.1,0.6
				C256.5,48.9,254.7,51.6,251.9,53.6z M329,50.5c-0.2-0.8-0.6-1.5-1.1-2.2c-0.5-0.6-1.2-1.2-1.9-1.6c-0.9-0.5-1.8-0.7-2.8-0.7
				c-1.2,0-2.3,0.3-3.4,1c-0.1,0.1-0.2,0.1-0.2,0.2l-7.3,5.4l-12.8,9.5l-5.1,3.8c0,0,0.1-2.6,0.3-6.4c0.2-4.6,0.6-10.9,0.8-16
				c0.3-5.1,0.5-9.1,0.5-9.1c0-2.4-1.1-4.4-3.2-5.5c-0.8-0.4-1.6-0.7-2.4-0.7c-0.1,0-0.3,0-0.5,0c-0.6,0-1.3,0.1-1.9,0.3
				c-0.8,0.3-1.5,0.7-2.1,1.2c-0.6,0.5-1.1,1.1-1.5,1.9l-3.2,5.9l-7,13.1l-8.7,16.1c-0.8,1.5-1,3.1-0.5,4.6c0.4,1.6,1.5,2.9,3,3.7
				c0.9,0.5,1.8,0.7,2.8,0.7c0.6,0,1.3-0.1,1.9-0.3c1.6-0.5,2.8-1.6,3.6-3l6-11.2l-0.8,16.9c-0.2,2.6,1,4.7,3.1,5.9
				c0.9,0.5,1.9,0.7,2.9,0.7c1.2,0,2.3-0.3,3.3-1c0.1,0,0.1-0.1,0.2-0.1l13.9-10.2l-6,11.2c-0.8,1.5-1,3.1-0.6,4.6
				c0.5,1.7,1.5,2.9,3,3.7c0.9,0.5,1.8,0.7,2.8,0.7c0.6,0,1.3-0.1,1.9-0.3c1.5-0.5,2.8-1.6,3.6-3l8.6-16l7-13l3.3-6.1
				c0.4-0.7,0.6-1.5,0.7-2.3C329.2,52.1,329.2,51.3,329,50.5z M175,60.9c-0.6-1.5-1.7-2.7-3.2-3.4c-0.8-0.4-1.7-0.6-2.5-0.6
				c-0.8,0-1.5,0.1-2.2,0.4l-15.8,6.3l-4.9-12.3l-5.4-13.5l-2.1-5.4c-0.6-1.5-1.7-2.7-3.2-3.4c-0.8-0.4-1.7-0.6-2.5-0.6
				c-0.8,0-1.5,0.1-2.2,0.4c-1.6,0.6-2.7,1.8-3.3,3.4c-0.6,1.5-0.6,3.1,0,4.7l2.4,5.9l5.4,13.5l6.8,17.1c-0.9-1.2-2.1-1.9-3.6-2.2
				c-0.4-0.1-0.9-0.1-1.3-0.1c-1.2,0-2.3,0.4-3.3,1L118.1,83l-4.2-6.1l10.6-7.2c1.4-0.9,2.3-2.3,2.5-4c0.2-1.5,0-2.9-0.8-4.2
				c-0.1-0.1-0.1-0.2-0.2-0.4c-0.9-1.4-2.3-2.3-3.9-2.6c-0.4-0.1-0.9-0.1-1.3-0.1c-1.2,0-2.3,0.4-3.3,1l-10.6,7.2l-4.2-6.1
				l15.7-10.7c0.6-0.4,1.1-0.9,1.4-1.4c0.6-0.8,0.9-1.6,1.1-2.6c0.3-1.6-0.1-3.2-1-4.6c-0.9-1.4-2.3-2.3-3.9-2.6
				c-0.4-0.1-0.9-0.1-1.3-0.1c-1.2,0-2.3,0.4-3.3,1L90.6,53.5c-0.7,0.5-1.3,1.1-1.7,1.8c-0.4,0.7-0.7,1.4-0.8,2.2
				c-0.1,0.8-0.1,1.6,0.1,2.4c0.2,0.8,0.5,1.5,1,2.2l3.3,4.9l8.3,12.1L111.5,95c0.5,0.7,1.1,1.3,1.7,1.7c0.7,0.5,1.4,0.8,2.1,0.9
				c0.4,0.1,0.9,0.1,1.3,0.1c0.4,0,0.7,0,1.1-0.1c0.8-0.2,1.6-0.5,2.3-1l20.8-14.2c1.4-1,2.3-2.3,2.5-4c0.2-1,0.1-2-0.2-2.9
				c0.1,0.1,0.2,0.3,0.4,0.4c0.5,0.6,1.2,1,1.9,1.4c0.7,0.3,1.5,0.5,2.3,0.6h0.2c0.8,0,1.5-0.1,2.3-0.4l21.4-8.6
				c1.6-0.6,2.7-1.8,3.3-3.4C175.6,64.1,175.6,62.5,175,60.9z M363.3,78.2l-18.5-17c-0.6-0.6-1.4-1-2.1-1.3
				c-0.6-0.2-1.3-0.3-1.9-0.3c-0.1,0-0.3,0-0.4,0c-0.8,0.1-1.6,0.3-2.3,0.6c-0.7,0.4-1.4,0.8-1.9,1.4l-4.3,4.6l-9.9,10.8l-12.7,13.9
				c-0.6,0.6-1,1.3-1.3,2.1c-0.3,0.7-0.4,1.5-0.4,2.3c0,0.8,0.2,1.6,0.5,2.3c0.3,0.8,0.8,1.4,1.5,2l18.5,17c1.1,1,2.5,1.6,4,1.6
				c0.1,0,0.3,0,0.5,0c1.6-0.1,3.1-0.8,4.2-2c1.1-1.2,1.7-2.7,1.7-4.4c0-1.7-0.7-3.2-1.9-4.3l-14-12.9l5-5.5l9.4,8.6
				c1.1,1,2.5,1.6,4,1.6c0.1,0,0.3,0,0.5,0c1.1-0.1,2.1-0.4,3-1c0.4-0.3,0.8-0.6,1.2-1c1.1-1.2,1.7-2.7,1.7-4.4
				c0-1.7-0.7-3.2-1.9-4.3l-9.4-8.6l5-5.5l8.8,8.1c0,0,0.1,0.1,0.1,0.1l5.1,4.7c1.1,1,2.5,1.6,4,1.6c0.2,0,0.3,0,0.5,0
				c1.6-0.1,3.1-0.8,4.2-2c1.1-1.2,1.7-2.7,1.7-4.4C365.2,80.9,364.5,79.4,363.3,78.2z M104.7,103.4c0-0.1-0.1-0.1-0.1-0.2
				L93.1,85.6L85,73.2l-2.5-3.9c-0.4-0.5-0.8-1-1.2-1.5c0,0-0.1-0.1-0.1-0.1C80,66.6,78.5,66,76.8,66h0c-1.7,0-3.2,0.7-4.3,1.9
				c-1.1,1.2-1.7,2.8-1.5,4.5c0.1,1,0.4,1.9,0.9,2.8l4.1,6.3l5.9,9c-0.3-0.1-5.3-2.8-9.8-5.1c-3.5-1.8-6.5-3.4-6.6-3.4
				c-0.8-0.4-1.7-0.6-2.6-0.6c-0.5,0-0.9,0-1.4,0.2c-1.2,0.3-2.3,0.9-3.1,1.8c-0.9,1-1.5,2.3-1.6,3.6c-0.1,1.4,0.2,2.7,0.9,3.8
				l4,6.2l5.9,9.1l-9.4-4.9l-6.8-3.5c-0.1,0-0.1-0.1-0.2-0.1c-0.8-0.3-1.7-0.5-2.6-0.5c-1.7,0-3.2,0.7-4.3,2
				c-1.1,1.2-1.7,2.8-1.5,4.5c0.1,1.6,0.8,3.1,2.1,4.2c0.4,0.4,1,0.8,1.7,1.1l4.3,2.3L64,118l18.5,9.7c0.1,0,0.1,0.1,0.2,0.1
				c1,0.4,2,0.7,2.9,0.7v-3.2l0.1,3.2c1.7,0,3.2-0.7,4.4-1.9c1-1.1,1.5-2.4,1.5-3.9c0-1.2-0.3-2.5-1-3.6c0-0.1-0.1-0.1-0.1-0.2
				l-9.6-14.8l15.7,8.2c0.1,0,0.1,0.1,0.2,0.1c1,0.4,1.9,0.6,2.9,0.6c0,0,0.1,0,0.2,0c1.7,0,3.2-0.7,4.3-1.9c1-1.1,1.5-2.4,1.5-3.9
				C105.7,105.9,105.4,104.6,104.7,103.4z M376,92.7c-1.1-1.3-2.6-2-4.3-2.1h-0.2c-1.5,0-2.9,0.5-4.1,1.5l-5.3,4.5l-11.2,9.5
				l-6.4,5.4c-0.6,0.5-1.1,1.2-1.5,1.9c-0.2,0.4-0.4,0.9-0.5,1.3c-0.1,0-0.1,0-0.2,0c-0.1,0-0.3,0-0.4,0c-0.8,0-1.6,0.1-2.3,0.4
				c-0.9,0.3-1.7,0.8-2.5,1.4c-0.8,0.6-1.4,1.4-1.8,2.3c-0.4,0.8-0.7,1.7-0.8,2.6c-0.1,0.9,0,1.8,0.2,2.7c0.3,0.9,0.7,1.8,1.4,2.5
				c0.6,0.7,1.4,1.3,2.2,1.7c0.8,0.4,1.7,0.6,2.6,0.7c0.2,0,0.3,0,0.5,0c0.7,0,1.5-0.1,2.2-0.4c0.9-0.3,1.8-0.8,2.5-1.4
				c0.7-0.6,1.3-1.4,1.8-2.2c0.4-0.8,0.7-1.7,0.8-2.6c0-0.1,0-0.2,0-0.2c0.5,0,0.9-0.1,1.3-0.3c0.8-0.2,1.5-0.6,2.1-1.2l6-5.1
				l11.2-9.5l5.7-4.8c1.2-1.1,2-2.5,2.2-4C377.5,95.6,377.1,94,376,92.7z"/>
			<path d="M50,100.5l27,14.1L60.4,89.1c-0.3-0.5-0.5-1.1-0.4-1.7c0.1-0.6,0.3-1.2,0.8-1.7c0.4-0.4,0.9-0.7,1.5-0.9
				c0.6-0.1,1.2-0.1,1.8,0.2l27,14.1L74.5,73.5c-0.2-0.4-0.4-0.8-0.4-1.3c-0.1-0.8,0.2-1.5,0.7-2.1c0.5-0.6,1.2-0.9,2-0.9
				c0.8,0,1.5,0.3,2.2,0.8c0.3,0.3,0.5,0.6,0.8,1l22.1,34c0.4,0.7,0.6,1.4,0.6,2.1c0,0.7-0.2,1.3-0.7,1.8c-0.5,0.6-1.2,0.9-2,0.9
				c-0.6,0-1.1-0.1-1.7-0.4L71.5,95.4l16.3,25.1c0.4,0.7,0.6,1.4,0.6,2.1c0,0.7-0.2,1.3-0.7,1.8c-0.5,0.6-1.2,0.9-2.1,0.9
				c-0.5,0-1.1-0.1-1.7-0.4L48,106c-0.4-0.2-0.7-0.4-1-0.7c-0.6-0.6-1-1.3-1-2.1c-0.1-0.8,0.2-1.5,0.7-2.1c0.5-0.6,1.2-0.9,2-0.9
				C49.2,100.3,49.6,100.4,50,100.5z M135.6,74.9c0.7-0.4,1.4-0.6,2.2-0.4c0.8,0.2,1.4,0.6,1.9,1.3c0.5,0.7,0.6,1.4,0.5,2.3
				c-0.1,0.8-0.5,1.4-1.2,1.9l-20.8,14.2c-0.3,0.2-0.7,0.4-1.1,0.5c-0.4,0.1-0.7,0.1-1.1,0c-0.4-0.1-0.7-0.2-1-0.4
				c-0.3-0.2-0.6-0.5-0.9-0.9L91.7,60.3c-0.2-0.3-0.4-0.7-0.5-1.1c-0.1-0.4-0.1-0.8,0-1.2c0.1-0.4,0.2-0.7,0.4-1
				c0.2-0.3,0.5-0.6,0.8-0.8l20.8-14.2c0.7-0.4,1.4-0.6,2.2-0.4c0.8,0.2,1.4,0.6,1.9,1.3c0.5,0.7,0.6,1.4,0.5,2.3
				c-0.1,0.8-0.5,1.4-1.2,1.9L98.2,59.5L106,71l13.2-9c0.7-0.4,1.4-0.6,2.2-0.4c0.8,0.2,1.4,0.6,1.9,1.3c0.5,0.7,0.6,1.4,0.5,2.3
				c-0.1,0.8-0.5,1.4-1.2,1.9l-13.2,9l7.8,11.4L135.6,74.9z M130.4,35.8c-0.3-0.8-0.3-1.6,0-2.3c0.3-0.8,0.8-1.3,1.6-1.6
				c0.7-0.3,1.5-0.3,2.2,0.1c0.7,0.3,1.3,0.9,1.6,1.7l13.7,34.2l18.7-7.5c0.7-0.3,1.5-0.3,2.2,0.1c0.7,0.3,1.3,0.9,1.6,1.7
				c0.3,0.8,0.3,1.6,0,2.3c-0.3,0.8-0.8,1.3-1.6,1.6L149,74.6c-0.4,0.2-0.8,0.2-1.1,0.2s-0.7-0.1-1.1-0.3c-0.3-0.2-0.7-0.4-0.9-0.7
				c-0.3-0.3-0.5-0.6-0.6-1L130.4,35.8z M210.2,50.2c0.4,0,0.8,0,1.1,0.2c0.4,0.1,0.7,0.3,1,0.6c0.3,0.2,0.5,0.6,0.7,0.9
				c0.2,0.4,0.3,0.8,0.3,1.2c0.1,0.8-0.2,1.6-0.7,2.2c-3.8,3.7-8.2,5.8-13.2,6.1c-6,0.5-11.3-1.4-15.9-5.5
				c-4.6-4.1-7.1-9.4-7.6-15.7c-0.5-6.3,1.2-11.9,5.1-16.7c3.9-4.8,8.8-7.4,14.8-7.9c5.1-0.4,9.9,1,14.3,4.3c0.5,0.5,0.9,1.2,0.9,2
				c0,0.4,0,0.8-0.1,1.2c-0.1,0.4-0.3,0.7-0.5,1c-0.2,0.3-0.5,0.5-0.9,0.7c-0.3,0.2-0.7,0.3-1.1,0.3c-0.7,0.1-1.4-0.2-2-0.7
				c-1.5-1-3-1.8-4.7-2.3c-1.7-0.5-3.5-0.7-5.3-0.5c-4.4,0.3-8.1,2.3-10.9,5.8c-2.8,3.5-4.1,7.6-3.7,12.2c0.4,4.7,2.2,8.5,5.5,11.6
				c3.4,3,7.3,4.4,11.7,4.1c3.8-0.3,7-1.8,9.7-4.5C209,50.5,209.6,50.2,210.2,50.2z M266.3,46.6c-1.2,6.2-4.4,11.1-9.4,14.7
				c-5,3.6-10.5,4.8-16.4,3.6c-5.9-1.2-10.5-4.4-13.8-9.6c-3.3-5.2-4.3-10.9-3.1-17.2c1.2-6.2,4.4-11.1,9.4-14.7
				c5.1-3.6,10.5-4.8,16.4-3.6c5.9,1.2,10.5,4.4,13.8,9.6c1.7,2.6,2.7,5.4,3.3,8.2C266.9,40.5,266.9,43.4,266.3,46.6z M248.2,25.8
				c-2.2-0.4-4.3-0.4-6.3,0c-2,0.4-3.9,1.3-5.8,2.7c-1.9,1.3-3.4,2.9-4.5,4.6c-1.1,1.8-1.9,3.8-2.4,6.1c-0.9,4.6-0.2,8.8,2.3,12.6
				c2.4,3.8,5.8,6.2,10.1,7c4.3,0.9,8.4,0,12.1-2.6c3.7-2.6,6-6.2,6.9-10.8c0.9-4.6,0.2-8.8-2.3-12.6
				C255.9,29,252.5,26.6,248.2,25.8z M268.4,68.2l18.9-35.1c0.2-0.4,0.5-0.7,0.8-0.9c0.3-0.3,0.6-0.5,1-0.6c0.4-0.1,0.7-0.2,1.1-0.1
				c0.4,0,0.7,0.1,1.1,0.3c1,0.5,1.5,1.4,1.5,2.7l-1.9,38.1l30.7-22.6c1.1-0.7,2.1-0.7,3-0.2c0.4,0.2,0.6,0.4,0.9,0.7
				c0.2,0.3,0.4,0.6,0.5,1c0.1,0.4,0.1,0.8,0.1,1.1c0,0.4-0.2,0.8-0.4,1.2l-18.9,35.1c-0.4,0.7-1,1.2-1.8,1.5
				c-0.8,0.3-1.5,0.2-2.2-0.2c-0.7-0.4-1.2-1-1.4-1.7c-0.2-0.8-0.1-1.6,0.3-2.3l12.8-23.7L289,81c-1,0.6-2,0.7-2.9,0.2
				c-1.1-0.6-1.5-1.5-1.5-2.9l1.6-31.1l-12.8,23.7c-0.4,0.7-1,1.2-1.8,1.5c-0.8,0.3-1.5,0.2-2.2-0.2c-0.7-0.4-1.2-1-1.4-1.7
				C267.9,69.7,268,68.9,268.4,68.2z M334.2,110c0.6,0.5,0.9,1.2,0.9,2c0,0.8-0.3,1.5-0.8,2.2c-0.6,0.6-1.3,1-2.1,1
				c-0.8,0.1-1.5-0.2-2.1-0.7l-18.5-17c-0.3-0.3-0.5-0.6-0.7-0.9s-0.2-0.7-0.2-1.1c0-0.4,0.1-0.8,0.2-1.1c0.1-0.4,0.4-0.7,0.7-1
				l26.9-29.4c0.3-0.3,0.6-0.6,1-0.7c0.4-0.2,0.7-0.3,1.1-0.3c0.4,0,0.7,0,1.1,0.1c0.4,0.1,0.7,0.3,1,0.6l18.5,17
				c0.6,0.5,0.9,1.2,0.9,2c0,0.8-0.3,1.5-0.8,2.2c-0.6,0.6-1.3,1-2.1,1c-0.8,0.1-1.5-0.2-2.1-0.7l-16.4-15l-9.4,10.2L343,91.1
				c0.6,0.5,0.9,1.2,0.9,2c0,0.8-0.3,1.5-0.8,2.2c-0.6,0.6-1.3,1-2.1,1c-0.8,0.1-1.5-0.2-2.1-0.7l-11.8-10.8l-9.4,10.2L334.2,110z
				 M344.1,124.8c-0.4,0.4-0.9,0.6-1.4,0.8c-0.5,0.2-1,0.2-1.5,0.2c-0.5,0-1-0.2-1.5-0.4c-0.5-0.2-0.9-0.5-1.2-0.9
				c-0.3-0.4-0.6-0.8-0.7-1.3c-0.1-0.5-0.2-1-0.1-1.5c0-0.5,0.2-1,0.4-1.5c0.2-0.5,0.6-0.9,1-1.3c0.4-0.4,0.9-0.6,1.4-0.8
				c0.5-0.2,1-0.2,1.5-0.2c0.5,0,1,0.2,1.5,0.4c0.5,0.2,0.9,0.5,1.2,0.9c0.3,0.4,0.6,0.9,0.7,1.4c0.1,0.5,0.2,1,0.1,1.5
				c-0.1,0.5-0.2,1-0.5,1.5C344.9,124,344.5,124.4,344.1,124.8z M369.4,94.5c0.6-0.5,1.4-0.8,2.2-0.8c0.8,0,1.5,0.4,2,1
				s0.7,1.3,0.6,2.1c-0.1,0.8-0.5,1.5-1.1,2l-22.9,19.4c-0.3,0.3-0.6,0.4-1,0.6c-0.4,0.1-0.7,0.2-1.1,0.1s-0.7-0.1-1.1-0.3
				c-0.3-0.2-0.6-0.4-0.9-0.7c-0.3-0.3-0.4-0.6-0.5-1c-0.1-0.4-0.1-0.7-0.1-1.1c0-0.4,0.1-0.7,0.3-1.1c0.2-0.3,0.4-0.6,0.7-0.9
				L369.4,94.5z"/>
			<path class="st20" d="M85,73.2l8.1,12.4C82.5,95.1,72.7,106,64,118l-13.2-6.9c2.4-3.4,4.9-6.7,7.5-9.9l9.4,4.9L61.7,97
				c3.3-3.9,6.7-7.8,10.3-11.5c4.4,2.3,9.5,4.9,9.8,5.1l-5.9-9C78.9,78.7,81.9,75.9,85,73.2z M122.1,58.4c-0.4-0.1-0.9-0.1-1.3-0.1
				c-1.2,0-2.3,0.4-3.3,1l-10.6,7.2l-4.2-6.1l15.7-10.7c0.6-0.4,1.1-0.9,1.4-1.4c-2.7,1.5-5.4,3.2-8.1,4.9
				c-6.7,4.2-13.1,8.8-19.3,13.8l8.3,12.1c8.1-6.7,16.7-12.6,25.5-17.7c-0.1-0.1-0.1-0.2-0.2-0.4C125,59.7,123.7,58.7,122.1,58.4z
				 M129.8,42.9l5.4,13.5c3.7-1.8,7.3-3.5,11.1-5.1l-5.4-13.5C137.2,39.4,133.5,41.1,129.8,42.9z M174.8,27.5
				c-1.8,3.9-2.5,8.3-2.1,12.9c0.1,0.8,0.2,1.6,0.3,2.4c4-0.9,8-1.6,12-2.2c-0.1-0.4-0.1-0.8-0.1-1.2c-0.3-3.8,0.7-7.1,3-10
				c2.3-2.9,5.2-4.4,8.7-4.6c0.3,0,0.7,0,1,0c1.1,0,2.2,0.1,3.2,0.4c1.3,0.4,2.6,1,3.7,1.8c1.1,0.9,2.4,1.3,3.8,1.3
				c0.1,0,0.3,0,0.4,0c0.8-0.1,1.6-0.3,2.4-0.7c0.7-0.4,1.4-0.9,1.9-1.5c0.3-0.4,0.6-0.9,0.8-1.4c-3.2-0.1-6.4-0.2-9.6-0.2
				C194.4,24.6,184.6,25.5,174.8,27.5z M268.6,33.3c-13.3-3.9-27.5-6.5-42.5-7.8c-2.8,3.4-4.7,7.4-5.6,12c-0.1,0.8-0.3,1.5-0.4,2.3
				c4.1,0.3,8.2,0.6,12.1,1.1c0-0.3,0.1-0.7,0.2-1c0.4-1.9,1-3.6,1.9-5c0.9-1.4,2.1-2.7,3.7-3.8c1.5-1.1,3.1-1.8,4.6-2.1
				c0.8-0.2,1.6-0.3,2.4-0.3s1.7,0.1,2.6,0.3c3.4,0.7,6.1,2.5,8,5.6c2,3.1,2.6,6.5,1.8,10.3c0,0.2-0.1,0.4-0.1,0.6
				c4,1,7.9,2.1,11.7,3.4c0.1-0.5,0.3-1.1,0.4-1.6c0.7-3.5,0.7-6.9,0.2-10.2C269.3,35.8,269,34.5,268.6,33.3z M274.2,50.6
				c7.1,2.5,13.9,5.5,20.4,8.9c0.2-4.6,0.6-10.9,0.8-16c-4.6-2.2-9.4-4.2-14.2-6L274.2,50.6z M312.3,52.6l-12.8,9.5
				c6.5,3.6,12.7,7.7,18.7,12.2l7-13C320.9,58.2,316.7,55.3,312.3,52.6z M349.6,82.7c-5.7-5.9-11.7-11.3-17.8-16.3l-9.9,10.8
				c7.8,6.3,15.3,13.3,22.4,21.2c0.4-0.3,0.8-0.6,1.2-1c1.1-1.2,1.7-2.7,1.7-4.4c0-1.7-0.7-3.2-1.9-4.3l-9.4-8.6l5-5.5L349.6,82.7z
				 M362,96.6l-11.2,9.5c2.5,3.1,5,6.3,7.4,9.5l11.2-9.5C367,102.8,364.6,99.6,362,96.6z"/>
		</g>
		<path class="st3" d="M130.4,301.3L130.4,301.3c-0.1,0.2-0.2,0.3-0.2,0.5c-0.1,0.1-0.2,0.3-0.2,0.4c-0.1,0.1-0.1,0.3-0.2,0.4
			c-0.1,0.1-0.1,0.2-0.2,0.4c-0.1,0.3-0.3,0.6-0.5,0.8c-0.4,0.7-0.7,1.3-1,2c-0.1,0.2-0.2,0.4-0.3,0.6c-0.2,0.4-0.4,0.7-0.6,1.1
			c-6.8,13.1-10.9,24.7-13.3,35.5c-9,5.6-24.5,9.3-37,4.5c-9.3-3.6-15.3-11.4-20.5-25.9c0,0,0,0,0-0.1c-0.8-1.9-1.6-3.9-2.2-6
			c-4.2-13.7-6.8-21-9.8-51.4c-2.2-22-2.2-30.3-9.9-62.7c-23.7-26.9-25.8-48.9-20.2-51.4c1.3-0.6,3.3,1.5,6,4.8
			c-10.1,8.3,15.2,37.9,19.9,45.5c5.6,8.9,3.7,38.4,17.9,70.6c11.2,25.5,9.5,37.9,15.7,57.6c4.4,13.9,14.1,18.6,22,17
			c12.1-2.5,14.7-12.1,17.3-19c4.4-11.7,13.9-26.2,8.9-31.1c3.1,1.6,5.9,3.1,8.2,4.2c0,0,0,0,0,0h0c0,0,0,0,0,0
			c0,0.2,0.1,0.3,0.1,0.5c0,0,0,0,0,0C130.1,300.3,130.2,300.8,130.4,301.3z"/>
		<path class="st3" d="M387.5,187.7c-1.2,17.6-0.2,42.5,0.2,61.1c0.7,30.6-0.8,51-9.2,67c-16.5,31.4-48.6,37.7-60,11.4
			c17.3,18,34.2-8,39.2-26.9c5.4-20.4,12.5-32.5,17.3-56.8c4.8-24.3,1.4-51.2,5.4-58.4c2-3.6,5.3-6.8,15.6-16.9
			c9-8.8,15.3-21,13.8-28.7c1.3-1,2.3-1.4,3-1C418.2,141.8,413.8,163.4,387.5,187.7z"/>
	</g>
</g>
</svg>
