<?xml version="1.0" encoding="utf-8"?>
<!-- Generator: Adobe Illustrator 26.0.3, SVG Export Plug-In . SVG Version: 6.00 Build 0)  -->
<!DOCTYPE svg PUBLIC "-//W3C//DTD SVG 1.1//EN" "http://www.w3.org/Graphics/SVG/1.1/DTD/svg11.dtd" [
	<!ENTITY ns_extend "http://ns.adobe.com/Extensibility/1.0/">
	<!ENTITY ns_ai "http://ns.adobe.com/AdobeIllustrator/10.0/">
	<!ENTITY ns_graphs "http://ns.adobe.com/Graphs/1.0/">
	<!ENTITY ns_vars "http://ns.adobe.com/Variables/1.0/">
	<!ENTITY ns_imrep "http://ns.adobe.com/ImageReplacement/1.0/">
	<!ENTITY ns_sfw "http://ns.adobe.com/SaveForWeb/1.0/">
	<!ENTITY ns_custom "http://ns.adobe.com/GenericCustomNamespace/1.0/">
	<!ENTITY ns_adobe_xpath "http://ns.adobe.com/XPath/1.0/">
]>
<svg version="1.1" id="Слой_1" xmlns:x="&ns_extend;" xmlns:i="&ns_ai;" xmlns:graph="&ns_graphs;"
	 xmlns="http://www.w3.org/2000/svg" xmlns:xlink="http://www.w3.org/1999/xlink" x="0px" y="0px" width="698.5px" height="638.8px"
	 viewBox="0 0 698.5 638.8" style="enable-background:new 0 0 698.5 638.8;" xml:space="preserve">
<style type="text/css">
	.st0{fill:#FFFFFF;}
	.st1{fill:#C9A67A;}
	.st2{opacity:0.23;fill:#3F2719;}
	.st3{fill:#FFDA1F;}
	.st4{fill:none;stroke:#9C7B51;stroke-width:4.1072;stroke-linecap:round;stroke-linejoin:round;stroke-miterlimit:10;}
	.st5{fill:#FFDAAE;}
	.st6{fill:#9C7B51;}
	.st7{fill:#251707;}
	.st8{fill:none;stroke:#251707;stroke-width:2.7806;stroke-linecap:round;stroke-linejoin:round;stroke-miterlimit:10;}
	.st9{fill:none;stroke:#2D1F04;stroke-width:8.0658;stroke-linecap:round;stroke-linejoin:round;stroke-miterlimit:10;}
	.st10{fill:none;stroke:#2D1F04;stroke-width:2.7806;stroke-linecap:round;stroke-linejoin:round;stroke-miterlimit:10;}
	.st11{fill:none;stroke:#2D1F04;stroke-width:2.6;stroke-linecap:round;stroke-linejoin:round;stroke-miterlimit:10;}
	.st12{fill:#2D1F04;}
	.st13{fill:#689AD3;}
	.st14{fill:none;stroke:#2D1F04;stroke-width:2.781;stroke-linecap:round;stroke-linejoin:round;stroke-miterlimit:10;}
	.st15{fill:#B5B0AD;}
	.st16{fill:none;stroke:#2D1F04;stroke-width:2.62;stroke-linecap:round;stroke-linejoin:round;stroke-miterlimit:10;}
	.st17{fill:#E6F4FF;}
	.st18{fill:none;stroke:#2D1F04;stroke-width:7.6;stroke-linecap:round;stroke-linejoin:round;stroke-miterlimit:10;}
	.st19{fill:none;stroke:#251707;stroke-width:3.05;stroke-linecap:round;stroke-linejoin:round;stroke-miterlimit:10;}
	.st20{fill:#D2E4E9;}
	.st21{fill:#D1D1D1;}
	.st22{fill:none;stroke:#2D1F04;stroke-width:2.37;stroke-linecap:round;stroke-linejoin:round;stroke-miterlimit:10;}
	.st23{fill:none;stroke:#2D1F04;stroke-width:3.2369;stroke-linecap:round;stroke-linejoin:round;stroke-miterlimit:10;}
	.st24{opacity:0.34;fill:#FFFFFF;}
	.st25{fill:url(#SVGID_1_);}
	.st26{fill:url(#SVGID_00000114765220553255726500000008784372490536154780_);}
	.st27{fill:url(#SVGID_00000154407749952624979640000000427648254503842694_);}
	.st28{fill:url(#SVGID_00000086663631626841403210000004277840519145239942_);}
	.st29{fill:#FF8A8A;}
	.st30{fill:none;stroke:#2D1F04;stroke-width:3;stroke-linecap:round;stroke-linejoin:round;stroke-miterlimit:10;}
	.st31{fill:none;stroke:#E5E5E5;stroke-width:2.7806;stroke-linecap:round;stroke-linejoin:round;stroke-miterlimit:10;}
	.st32{opacity:0.32;fill:#FFFFFF;}
	.st33{fill:#493117;}
	.st34{opacity:0.4;fill:#FFFFFF;}
	.st35{fill:#FF9902;}
	.st36{fill:none;stroke:#2D1F04;stroke-width:6;stroke-linecap:round;stroke-linejoin:round;stroke-miterlimit:10;}
	.st37{fill:none;stroke:#000000;stroke-width:2;stroke-linecap:round;stroke-linejoin:round;stroke-miterlimit:10;}
	.st38{fill:none;stroke:#000000;stroke-width:2;stroke-miterlimit:10;}
</style>
<metadata>
	<sfw  xmlns="&ns_sfw;">
		<slices></slices>
		<sliceSourceBounds  bottomLeftOrigin="true" height="638.8" width="698.5" x="-291.5" y="241.4"></sliceSourceBounds>
	</sfw>
</metadata>
<g>
	<g>
		<path class="st0" d="M694.9,518.5c-5.3,18.1-25.8,21-45.1,22.2c0,0.1,0,0.2,0,0.4v9c0,48.9-39.8,88.7-88.8,88.7H342.8
			c-2,0-3.8-0.5-5.4-1.4h-72.4c-1.6,0.9-3.5,1.4-5.4,1.4H118.9C70,638.8,30.2,599,30.2,550v-7.6c-15.5-3.6-21.9-12-24.5-19
			c-2.8-7.5-8.7-28-3.6-56l0-0.1c0.3-1.7,0.7-3.9,1.2-6.2c-3.3-5.7-1.3-11.9-0.3-15c0.1-0.3,0.2-0.7,0.3-0.9
			c7.6-36.4,17.7-58.8,46.2-65.1c0.9-22.9,5.8-43.3,14.6-60.8c11.6-23.2,30-41.1,54.6-53.2l0.2-0.1c2.8-1.3,7.9-3.7,12.6-5.3
			c0.1-1,0.4-2,0.8-3c1.7-4.4,5.9-7.2,10.6-7.2c3,0,5.5,0.2,7.9,0.6c0.4-1.5,1.2-3,2.3-4.2c2.2-2.6,5.3-4,8.7-4
			c5,0,9.6,0.9,13.8,2.7c-10-8.1-16.4-20.5-16.4-34.3c0-24.3,19.8-44.2,44.2-44.2c6.7,0,13.1,1.4,18.9,4.2l7.5-9
			c-4.7-5.9-8.2-12.7-10.3-20h-31.1c-5,19-22.2,32.8-42.7,32.8c-24.3,0-44.2-19.8-44.2-44.2s19.8-44.2,44.2-44.2
			c20.5,0,37.7,13.8,42.7,32.8h29.4c1.3-10,5.3-19.4,11.5-27.3l-8.7-8c-7.1,4.6-15.3,7.1-23.9,7.1c-24.4,0-44.2-19.8-44.2-44.2
			s19.8-44.2,44.2-44.2c24.3,0,44.1,19.8,44.1,44.2c0,7.1-1.7,14-4.9,20.2l11,10c5.8-3.1,12-5.2,18.5-6.2c0-0.8,0-1.6,0-2.4
			c0-38,30.8-68.9,68.8-68.9c25.7,0,49.5,14.8,61.2,37.3c21.2,3.2,37.9,20.8,39.6,42.4c1,0.1,2,0.2,3,0.3l9.1-10
			c-4.1-6.8-6.4-14.7-6.4-22.8c0-24.3,19.8-44.2,44.2-44.2c24.3,0,44.2,19.8,44.2,44.2c0,24.3-19.8,44.2-44.2,44.2
			c-7.5,0-14.9-1.9-21.4-5.5l-2.5,2.8c10.2,6.9,17.7,17.2,21,29.2l18.2-1.7c3.2-21.2,21.6-37.5,43.7-37.5
			c24.3,0,44.2,19.8,44.2,44.2c0,24.3-19.8,44.2-44.2,44.2c-18.3,0-34.6-11.6-41.1-28.2l-19.7,1.8c-1.2,7.2-4,13.9-8,19.9l15.7,16.5
			c6.3-3.3,13.3-5,20.4-5c24.3,0,44.1,19.8,44.1,44.2c0,14.4-6.9,27.1-17.5,35.2c0.4,0.1,0.8,0.2,1.1,0.3c2.5,0.8,4.5,2.5,5.9,4.7
			c1.9,1,6.2,2.5,8.9,3.4l1.5,0.5c28.1,9.6,50.6,24.4,66.8,44.1c16.7,20.4,27.1,46.5,31,77.6c23.8,8.1,33.8,30.6,41.6,63.6
			c0.1,0.3,0.2,0.6,0.3,1c1,3,3,8.7,0.6,14.2c0.2,1.1,0.5,2.2,0.7,3.3C699.7,487,699.5,502.7,694.9,518.5z"/>
	</g>
	<g>
		<g>
			<g>
				<path class="st1" d="M400.4,423.3c6.1,15.9,33.4,46.5,38.7,67.4s-33.9,30.2-42.4,3.1c-8.6-27.1-24.9-68.2-24.9-68.2L400.4,423.3
					z"/>
				<path class="st2" d="M392.9,430.1c-3,1.4-4.6,4.7-2.5,10.4c2,5.7,11.1,12.7,16.1,12.6c-3.3,0-9.5,0-11.1,0.1
					c-2.2-1.1-6.9-2.4-7.6-3.1c-0.7-0.7-6.5-14.5-6.9-15.4C380.4,433.8,386.8,432.7,392.9,430.1z"/>
				<g>
					<path class="st1" d="M379.1,511.4c0,0,4.4-8.6,4.3-16.7c0,0,5.7-2.4,8.2-3.7c0.7-0.4,1.4-0.8,2-1.1c0.3-1.2,0.6-2.3,0.7-3.5
						c0.2-1.1,0.3-2.3,0.4-3.4c0.6-11.2-3.4-23.5-7.2-33.3c-0.3-0.7-0.6-1.4-0.8-2.1c-0.1-0.4-0.3-0.7-0.4-1.1
						c-0.8-1.9-1.7-4-2.7-6.1c-0.2-0.4-0.4-0.9-0.6-1.3c-0.2-0.5-0.5-1-0.7-1.4c-0.1-0.2-0.2-0.4-0.3-0.6c-0.2-0.3-0.3-0.6-0.5-0.9
						c-0.5-0.9-0.9-1.8-1.4-2.7c-0.4-0.9-0.9-1.7-1.3-2.4c0,0,0,0,0-0.1c0.8-15.2-5.9-30.7-10.5-42.3c0,0,0,0,0-0.1v-0.1
						c0-0.8,1.1-2.1,1.3-3.5c0-0.1,0-0.2,0-0.2c0-0.5,0-0.9-0.3-1.4c-0.3-0.7-1.2-2.1-2.1-3.2c-0.3-0.3-0.5-0.6-0.7-0.9
						c-0.1-0.1-0.2-0.2-0.2-0.2c-0.2-0.2-0.4-0.3-0.5-0.3c-0.1,0-0.2,0-0.2,0.2c0,0,0,0.1,0,0.1c0,0,0,0,0,0.1c0,0.2,0,0.4,0.1,0.5
						c0,0,0-0.1,0-0.1c0,0,0-0.1,0-0.1c0-0.1,0-0.2,0-0.3c-0.1-1.3-0.3-4.8-0.4-7.8c-0.1-2.8,0-5.2,0.2-5.3c0.8-0.3,1.4,1.6,1.6,1.8
						c0.6,0.6-0.4-1.7-0.5-2.5c-0.3-2.2-0.5-4.8-0.2-7.1c0.1-0.5,1.1,1.1,1.4,0.7c0.5-1.1-0.2-3.1,0-4.3c0.3-2.4,1.9-4.9,3-7
						c12.2-24.4,20.3-54.3,5.1-80c-3.4-5.8-7.6-10.3-12.8-13.7c2.9-0.3,6.7-0.5,9.9,1c-3-5.2-5.3-6.4-9.1-7.3
						c-0.1-0.6,6.9-3.1,12.6-0.9c-5.1-8.4-19.1-7.2-19.1-9.2c0-2.3,6.3-3.1,11.3-2.3c-7.5-6.1-18.1-6.1-26.6-2.5
						c3.6-3.8,3.5-8.8,1.1-11.5c-5.8,5.7-16,9.7-28.5,9.9c2.6-0.8,3.7-3.2,2.7-5.4c-2.8,2.6-13.2,5.5-24.3,9.2
						c-4.1,1.4-9.5,3.8-13.3,5.5c-49,24.1-64.9,70.1-65,118.3c-0.1,23.3-28.7,106.1-16.8,146.8c0.8,1.7,1.5,3.5,2.2,5.4
						c57.7-1.7,115.3,4.5,173,6.7c1.6-4,3.1-9,3.6-9.9C377.3,506.2,379.1,511.4,379.1,511.4z"/>
					<path class="st3" d="M365.5,378.7C365.5,378.7,365.5,378.7,365.5,378.7C365.5,378.7,365.5,378.7,365.5,378.7z"/>
					<g>
						<line class="st4" x1="353.1" y1="368.9" x2="353.1" y2="375.3"/>
						<line class="st4" x1="346.2" y1="372.1" x2="346.2" y2="378.6"/>
					</g>
					<path class="st3" d="M390.1,456.7c-0.8-2.5-1.7-4.9-2.6-7.2c-0.3-0.7-0.6-1.4-0.8-2.1c-0.1-0.4-0.3-0.7-0.5-1.1
						c-0.8-1.9-1.7-4-2.7-6.1c-0.2-0.4-0.4-0.9-0.6-1.3c-0.2-0.5-0.5-1-0.7-1.4c-0.1-0.2-0.2-0.4-0.3-0.6c-0.2-0.3-0.3-0.6-0.5-0.9
						c-0.1-0.2-0.2-0.5-0.4-0.7c-0.2-0.4-0.4-0.7-0.6-1.1c6.8-1.5,13.1-3.8,16.9-7.4c1.2-1.1,2.1-2.3,2.8-3.6c1.4-2.8,0.2-6-2.1-7
						c-8.6-26-22.7-37.9-33-41.1c0.1,1.6,0.2,3,0.2,3.8c0,0,0,0,0-0.1c0,0,0-0.1,0-0.1c0,0.1,0,0.1,0,0.1c0,0.1,0,0.1,0,0.1
						c0,0.1,0,0.1,0,0.2c0,0,0,0.1,0,0.1c-11.8,3.4-22.4,5.5-32.2,6.6c-27.6,3.2-47.8-1.2-63.5-5.4c-11.4-3.1-36.7-17.9-55.5-17.1
						c-17,50.8-24.8,112.2-20,158.5h179.5c11.2,0,16.6,0,24.4,0C397.1,476.3,391,459.2,390.1,456.7z"/>
					<path class="st3" d="M365.5,378.7C365.5,378.7,365.5,378.7,365.5,378.7C365.5,378.7,365.5,378.7,365.5,378.7z"/>
					<g>
						<path class="st5" d="M379.5,296.9c-1.1-12.6-5.3-18.1-12.8-22.1c-10.1-5.4-15.5-7.7-26.5-8.7c-3.9-0.4-8.4-0.5-9-4.4
							c-0.3-1.7,0.4-3.6,2.1-6c-3.5,0-7.2,1.4-10.1,3.7c-5.7,4.6-14.3,7.4-21,7.2c-23.7-0.8-38.7,2-50.2,22.8
							c-2.6,4.7-6.5,15.3-3.8,27.2c3.9,17.4,6,24.6,24.8,37.7c22.4,15.4,68.7,23.1,91.9-6.1C375.6,334.4,381.2,315.7,379.5,296.9z"
							/>
						<path class="st6" d="M334.2,305.6c7.8-3.9,14.1,15.8,13.5,21.5c-2.2,19.4-30.5,18.4-43.7,11.8c-19-9.5,4.2-40.1,17.8-34.7"/>
						<path class="st6" d="M379.5,296.9c1.5,14.8-2.5,31.6-5.7,34c-2.5,1.9-15.7-6.1-24.5-19.2c-9.3-13.8-10.3-35.8-4.5-42.9
							c1.2-1.5,17.3,1.7,26.8,8.7C374.5,279.6,378.1,283.6,379.5,296.9z"/>
						<path class="st6" d="M305.9,267.8c8.5,48.6-47.2,74.8-52.6,66.9c-3.5-5.1-10.9-26.2-2.6-43c4.2-8.6,10.8-12.4,16.1-15.3
							c6.6-3.6,15-6.2,24.2-7.9C297.8,267.2,305.5,265,305.9,267.8z"/>
					</g>
					<g>
						<path class="st7" d="M338.9,305.6c0.1-2.9-5.6-5.6-12.9-6c-7.3-0.4-13.3,1.7-13.4,4.7c-0.1,2.9,5.6,5.6,12.9,6
							C332.8,310.6,338.8,308.5,338.9,305.6z"/>
						<path class="st8" d="M326.4,306.9c0,5.2-1.2,14-4.1,20"/>
					</g>
					<g>
						<path class="st9" d="M254.2,287c13-14.7,30.2-19.4,50.4-19.2"/>
						<path class="st9" d="M383.3,291.5c-10.7-14.2-18.6-19.4-38.5-22.8"/>
					</g>
					<path class="st8" d="M332.9,326.9c-3,3.5-7.6,7.1-10.6,0c-5.3,6.7-10.7,3-10.7-5.4"/>
					<path class="st10" d="M365.3,375.1c10.4,3.2,24.5,15.1,33.1,41.1c2.8,1.2,3.2,4.6,2.1,7c-2.8,5.3-10.2,8.7-18.4,10.6"/>
					<path class="st10" d="M398.3,416.1c-2.8,3-6.3,5.3-10,7.1"/>
					<path class="st2" d="M389,453.7c-3.9-4.7-8.8-11-11-12.4c-4.7-3-11.4-2.5-16.6-2.5c-13.6,0-30.5,10.6-44.9,12.1
						c-8.8,0.9-34.5-8.5-32-12.7c2-3.4,20.8,3.5,39.3,3c13.9-0.4,27.7-4.6,41.2-6.8c3.2-0.5,11.1-0.6,13.8-5.5
						c0.6,2.2,3,7.4,4.1,9.7C385.3,443.7,387.5,449.9,389,453.7z"/>
					<path class="st10" d="M365.6,379.4c-44.9,12.9-79,6.8-95.7,1.1"/>
					<path class="st10" d="M395.8,488.5c-1.1-15.8-4.4-29.1-8.2-38.9c-0.3-0.7-0.6-1.4-0.8-2.1c-0.1-0.4-0.3-0.7-0.4-1.1
						c-0.8-1.9-1.7-4-2.7-6.1c-0.2-0.4-0.4-0.9-0.6-1.3c-0.2-0.5-0.5-1-0.7-1.4c-0.1-0.2-0.2-0.4-0.3-0.6c-0.2-0.3-0.3-0.6-0.5-0.9
						c-0.9-1.9-1.9-3.6-2.7-5.1c2.6-17.6-10.3-41.1-10.5-42.4c0,0,0,0,0-0.1s0-0.1,0-0.1c0-0.8,1.1-2.1,1.3-3.5c0-0.1,0-0.2,0-0.2
						c0-0.5,0-0.9-0.3-1.4c-0.3-0.7-1.2-2.1-2.1-3.2c-0.3-0.3-0.5-0.6-0.7-0.9c-0.1-0.1-0.2-0.2-0.2-0.2c-0.2-0.2-0.4-0.3-0.5-0.3
						c-0.1,0-0.2,0-0.2,0.2c0,0,0,0.1,0,0.1c0,0.1,0,0.2,0,0.3c0,0.1,0,0.1,0,0.1c0,0,0,0.1,0,0.1c0,0,0,0,0,0.1"/>
					<path class="st10" d="M358.6,381.7c0.6,1.9,1.3,3.3,1.3,5.3"/>
					<path class="st10" d="M347.1,384c0.9,1.7,1,4,1,5.9"/>
					<line class="st10" x1="333.4" y1="385.8" x2="334.1" y2="390.3"/>
					<polyline class="st10" points="323.7,387 323.7,387.8 323.7,388.3 323.7,389.1 323.7,389.6 323.7,390.1 323.7,390.6 					"/>
					<polyline class="st10" points="329,387.3 329,387.8 329,388.3 329,388.8 329,389.3 329,389.8 					"/>
					<polyline class="st10" points="291.1,385.8 291.1,386.3 291.1,386.8 291.1,387.8 291.1,388.3 					"/>
					<polyline class="st10" points="287.3,385.8 287.3,386.5 287.3,387.3 287.3,387.8 					"/>
					<path class="st10" d="M368.4,388.5c-8.3,6.1-63,20.4-114.4,1.9"/>
					<g>
						<path class="st0" d="M282.6,282.6c-6.8-0.4-12.6,4.7-13,11.4l0,0.8c-0.4,6.7,4.8,12.5,11.5,12.9c6.8,0.4,12.6-4.7,13-11.4
							l0-0.8C294.5,288.8,289.3,283,282.6,282.6z"/>
						<path class="st11" d="M282.6,282.6c-6.8-0.4-12.6,4.7-13,11.4l0,0.8c-0.4,6.7,4.8,12.5,11.5,12.9c6.8,0.4,12.6-4.7,13-11.4
							l0-0.8C294.5,288.8,289.3,283,282.6,282.6z"/>
						<circle class="st12" cx="283.5" cy="299.6" r="3"/>
					</g>
					<g>
						<path class="st0" d="M363.5,283.3c-6.4-0.4-11.9,4.5-12.3,10.8l0,0.8c-0.4,6.4,4.5,11.8,10.9,12.2c6.4,0.4,11.9-4.5,12.3-10.8
							l0-0.8C374.8,289.1,369.9,283.6,363.5,283.3z"/>
						<path class="st11" d="M363.5,283.3c-6.4-0.4-11.9,4.5-12.3,10.8l0,0.8c-0.4,6.4,4.5,11.8,10.9,12.2
							c6.4,0.4,11.9-4.5,12.3-10.8l0-0.8C374.8,289.1,369.9,283.6,363.5,283.3z"/>
						<circle class="st12" cx="363.7" cy="299.6" r="3"/>
					</g>
					<path class="st10" d="M214.4,361.3c-1.1-49.6,16.2-97,65.1-121.1c3.8-1.8,9.2-4.2,13.3-5.5c11.1-3.7,21.5-6.7,24.3-9.2
						c1.1,2.2,0,4.6-2.7,5.4c12.5-0.2,22.6-4.1,28.5-9.9c2.3,2.7,2.4,7.7-1.1,11.5c8.5-3.6,19.1-3.6,26.6,2.5
						c-5-0.8-11.2,0-11.2,2.3c0,2,13.9,0.8,19.1,9.2c-5.7-2.2-12.7,0.3-12.6,0.9c3.8,0.9,6.1,2.1,9.1,7.3c-3.2-1.5-7.1-1.3-9.9-1
						c5.2,3.5,9.4,7.9,12.8,13.7c15.2,25.7,7.1,55.6-5.1,80c-1.1,2.1-2.6,4.6-3,7.1c-0.2,1.2,0.5,3.3,0,4.3
						c-0.2,0.5-1.3-1.2-1.4-0.7c-0.3,2.2,0,4.8,0.2,7.1c0.1,0.8,1.1,3.1,0.5,2.5c-0.2-0.2-0.8-2.1-1.6-1.8c-0.5,0.2,0,12.3,0.3,13.5
						"/>
					<path class="st2" d="M214.4,361.3c10.5,0.5,19.3,4.6,25.6,8.6c-7.5-73.7,18.7-103.1,46.2-115c5.2-2.3,12.3-9.8,17.4-11
						c-0.6,4.1,6.2,4.3,9.9,3.9c4.6-0.6,10.1-7.1,21.8-10c-5.8,6.5-1.3,9.8,2.1,10.3c2.4,0.4,8.7-2.7,14.9-0.7
						c-3.2,1.6-2.5,3.7,0,4.6c13.1,5,22.3,12.9,25.9,20c-0.8-1.7-1.6-3.3-2.6-5c-1.1-1.8-2.2-3.5-3.4-5.1c-1-1.3-2-2.4-3.1-3.5
						c-1.9-1.9-4-3.6-6.3-5.2c2.9-0.3,6.7-0.5,9.9,1c-0.6-1.1-1.3-2.1-1.9-2.9c-0.2-0.2-0.4-0.4-0.5-0.6c-2-2.3-4-3.1-6.7-3.8
						c0,0,0-0.1,0-0.1c0-0.1,0.1-0.1,0.1-0.1c1.1-0.8,7.3-2.7,12.5-0.7c-0.2-0.3-0.3-0.5-0.5-0.8c-0.3-0.5-0.7-0.9-1.2-1.4
						c-2.7-2.7-6.4-4.1-9.8-4.9c-0.8-0.2-1.5-0.3-2.2-0.5c-0.2,0-0.5-0.1-0.7-0.1c-0.7-0.1-1.3-0.2-1.9-0.4c-0.2,0-0.4-0.1-0.5-0.1
						c-0.3-0.1-0.7-0.2-0.9-0.2c-0.8-0.2-1.3-0.5-1.3-0.9c0-2.3,6.3-3.1,11.2-2.3c-7.5-6.1-18.1-6.1-26.6-2.5
						c3.6-3.8,3.5-8.8,1.1-11.5c-5.8,5.7-16,9.7-28.5,9.9c0.9-0.3,1.5-0.7,2.1-1.2c0.1-0.2,0.3-0.3,0.4-0.5c0.6-0.9,0.8-2.1,0.4-3.3
						c0-0.1-0.1-0.3-0.2-0.4c-2.8,2.6-13.2,5.5-24.3,9.2c-0.8,0.3-1.6,0.6-2.4,0.9c-0.6,0.2-1.1,0.4-1.7,0.7c-3.2,1.3-6.6,2.8-9.1,4
						c-2.3,1.1-4.5,2.3-6.7,3.5c-1.4,0.8-2.7,1.6-4.1,2.4c-0.7,0.5-1.5,0.9-2.2,1.4C227.9,272.5,214.7,317.8,214.4,361.3z"/>
				</g>
				<path class="st2" d="M293.1,454.2c-8.4,27.8-18.8,48.3-33.6,55.6c-14.7,7.3-19.2-1.6-26.3-21.3c-7.1-19.7,10.7-17,24.2-17.6
					C270.9,470.2,287,456.8,293.1,454.2z"/>
				<g>
					<path class="st13" d="M342.6,391.5l1.9,14.2l-10.2-10l-19.9-39.9c-2.1-4.3,6.1-8.4,8.3-4.1L342.6,391.5z"/>
					<path class="st14" d="M342.6,391.5l1.9,14.2l-10.2-10l-19.9-39.9c-2.1-4.3,6.1-8.4,8.3-4.1L342.6,391.5z"/>
					<path class="st10" d="M334.3,395.7c-1.4-2.8,6.9-7,8.3-4.1"/>
				</g>
				<path class="st1" d="M324.6,387.8c-6,6.7-8.5,9.6-14.5,21.3c-12.4,23.9-13.3,41.1-25.9,65.6c-8.5,16.6-21.4,26.7-29,26.3
					c-22.2-2-53.5-37-59.6-53.9c11.5-16.1,46.5-21.1,57.2-17.7c1.3,6.6,4.3,13.2,5.7,15.2c6.2-2.9,28.4-44.9,36-55.9
					c6.5-9.4,12.6-13.6,24.3-22.8c16.6-13,21.7-6,20.6,6C339.4,374.8,332.8,378.6,324.6,387.8z"/>
				<path class="st15" d="M324.6,387.8c-2.1,2.3-3.4,4-5.2,6.2c-5.8-0.8-14.3-7.7-14.3-18.8l0.5-0.5c3.5-3,4.5-4.7,12.1-9.7
					c17.6-11.5,23.7-4.6,21.9,7C339,375.6,332.9,378.6,324.6,387.8z"/>
				<path class="st2" d="M339.6,372c-0.2,2.8-6.8,6.6-15,15.8c-6,6.8-8.5,9.6-14.5,21.3c-12.4,23.9-13.3,41.1-25.9,65.6
					c-8.5,16.6-21.4,26.7-29,26.3c-22.2-2-53.4-37-59.6-53.9c10-14,29.6-17.4,43.7-16.3c-1.3,2.2,1.8,5.4,3.3,16.5
					c1.8,12.5,2.6,38.4,12.9,38.2c10.3-0.1,18.7-10.1,24.7-24.6c6-14.5,17.8-45.1,25-58.8c12.9-24.4,33.6-35.1,28.7-43
					C338.7,359.7,340.2,365,339.6,372z"/>
				<g>
					<path class="st3" d="M196,457c0.6-0.1,2.2-0.9,3.2-2.3c22.2-26.8,53.5-25.3,53.6-25.2c8.2-3.4,3.1-9.1,1.1-11.5
						c-14-17.3-14.7-49.8-14.7-49.8c-10.4-5.2-27.7-9.9-42.2,1.4c-17.1,13.4-17.1,38.2-5.3,79.2C192.4,451.4,192.5,457.5,196,457z"
						/>
					<path class="st10" d="M254,418c-16.4-0.5-38.2,7-52.4,21.7"/>
					<line class="st10" x1="241.1" y1="419.5" x2="241.8" y2="423.9"/>
					<line class="st10" x1="227.3" y1="423.6" x2="228.9" y2="427.6"/>
					<path class="st10" d="M245,401c2.9,7.8,5,11.6,8.9,17c3.7,5.2,6.1,8.3-1.1,11.5"/>
				</g>
				<g>
					<line class="st4" x1="222.5" y1="458.1" x2="226.4" y2="463.3"/>
					<line class="st4" x1="230.8" y1="458.3" x2="234.7" y2="463.5"/>
				</g>
				<path class="st10" d="M269.9,380.5c-5.5-2-17.2-6.3-30.7-12.3c-19.4-8.6-34.7-4.5-42.2,1.4c-17.1,13.4-17.1,38.2-5.3,79.2
					c0.7,2.6,0.9,8.7,4.3,8.2c0.6-0.1,2.2-0.9,3.2-2.3c4.9-5.9,10.3-10.5,15.6-14"/>
				<path class="st10" d="M252.9,429.5c1.3,6.6,4.3,13.2,5.7,15.2c6.2-2.9,28.3-45,36-55.9c6.6-9.4,11.5-16.6,23.1-23.8
					c17.9-11,22.7-4.7,21.9,7c-0.2,2.8-7.3,6.8-15,15.8c-5.8,6.9-8.5,9.6-14.5,21.3c-12.4,23.9-13.3,41.1-25.9,65.6
					c-8.5,16.6-21.4,26.7-29,26.3c-19.3-1.8-45.4-28.3-55.9-46.3"/>
				<path class="st10" d="M305.1,375.1c1.2,8.1,4.5,15.5,14.3,18.8"/>
				<path class="st10" d="M338.1,366.1c-5.8,1-19,11.6-27,21.7"/>
				<g>
					<path class="st0" d="M345.8,485.5h-36.5c-2.3,0-4-1.9-3.9-4.2l5.3-65.2c0.2-2,1.8-3.6,3.9-3.6H351c2.3,0,4,1.9,3.9,4.2
						l-5.3,65.2C349.4,484,347.8,485.5,345.8,485.5z"/>
					<g>
						<g>
							<path class="st12" d="M319.2,411.8c0,0.3,0,0.5,0,0.8h-2c0,0,0-0.1,0-0.1c0-0.2,0-0.5,0-0.7c0-2.1-0.9-3.3-1.4-3.3
								s-1.4,1.2-1.4,3.3c0,0.3,0,0.6,0,0.8c0.2,1.6,0.9,2.5,1.3,2.5c0.6,0,1,0.5,1,1c0,0.6-0.4,1-1,1c-1.7,0-3.1-1.9-3.3-4.5
								c0-0.3,0-0.5,0-0.8c0-3,1.4-5.3,3.4-5.3C317.8,406.5,319.2,408.8,319.2,411.8z"/>
						</g>
						<g>
							<path class="st12" d="M326,411.8c0,0.3,0,0.5,0,0.8h-2c0,0,0-0.1,0-0.1c0-0.2,0-0.5,0-0.7c0-2.1-0.9-3.3-1.4-3.3
								s-1.4,1.2-1.4,3.3c0,0.3,0,0.6,0.1,0.8c0.2,1.6,0.9,2.5,1.3,2.5c0.6,0,1,0.5,1,1c0,0.6-0.4,1-1,1c-1.7,0-3.1-1.9-3.3-4.5
								c0-0.3,0-0.5,0-0.8c0-3,1.5-5.3,3.4-5.3C324.6,406.5,326,408.8,326,411.8z"/>
						</g>
						<g>
							<path class="st12" d="M332.8,411.8c0,0.3,0,0.5,0,0.8h-2v-0.1c0-0.2,0-0.5,0-0.7c0-2.1-0.9-3.3-1.4-3.3
								c-0.5,0-1.4,1.2-1.4,3.3c0,0.3,0,0.6,0.1,0.8c0.2,1.6,0.9,2.5,1.3,2.5c0.6,0,1,0.5,1,1c0,0.6-0.4,1-1,1
								c-1.7,0-3.1-1.9-3.3-4.5c0-0.3,0-0.5,0-0.8c0-3,1.4-5.3,3.4-5.3C331.4,406.5,332.8,408.8,332.8,411.8z"/>
						</g>
						<g>
							<path class="st12" d="M339.6,411.8c0,0.3,0,0.5,0,0.8h-2c0,0,0-0.1,0-0.1c0-0.2,0-0.5,0-0.7c0-2.1-0.9-3.3-1.4-3.3
								c-0.5,0-1.4,1.2-1.4,3.3c0,0.3,0,0.6,0.1,0.8c0.2,1.6,0.9,2.5,1.3,2.5c0.6,0,1,0.5,1,1c0,0.6-0.4,1-1,1
								c-1.7,0-3.1-1.9-3.3-4.5c0-0.3,0-0.5,0-0.8c0-3,1.4-5.3,3.4-5.3C338.2,406.5,339.6,408.8,339.6,411.8z"/>
						</g>
						<g>
							<path class="st12" d="M346.4,411.8c0,0.3,0,0.5,0,0.8h-2c0,0,0-0.1,0-0.1c0-0.2,0-0.5,0-0.7c0-2.1-0.9-3.3-1.4-3.3
								s-1.4,1.2-1.4,3.3c0,0.3,0,0.6,0.1,0.8c0.2,1.6,0.9,2.5,1.3,2.5c0.6,0,1,0.5,1,1c0,0.6-0.4,1-1,1c-1.7,0-3.1-1.9-3.3-4.5
								c0-0.3,0-0.5,0-0.8c0-3,1.4-5.3,3.4-5.3C345,406.5,346.4,408.8,346.4,411.8z"/>
						</g>
						<g>
							<path class="st12" d="M353.2,411.8c0,0.3,0,0.5,0,0.8h-2c0,0,0-0.1,0-0.1c0-0.2,0-0.5,0-0.7c0-2.1-0.9-3.3-1.4-3.3
								c-0.5,0-1.4,1.2-1.4,3.3c0,0.3,0,0.6,0.1,0.8c0.2,1.6,0.9,2.5,1.3,2.5c0.6,0,1,0.5,1,1c0,0.6-0.4,1-1,1
								c-1.7,0-3.1-1.9-3.3-4.5c0-0.3,0-0.5,0-0.8c0-3,1.4-5.3,3.4-5.3C351.8,406.5,353.2,408.8,353.2,411.8z"/>
						</g>
					</g>
					<path class="st10" d="M345.8,485.5h-36.5c-2.3,0-4-1.9-3.9-4.2l5.3-65.2c0.2-2,1.8-3.6,3.9-3.6H351c2.3,0,4,1.9,3.9,4.2
						l-5.3,65.2C349.4,484,347.8,485.5,345.8,485.5z"/>
				</g>
				<g>
					<path class="st1" d="M403.8,508.7c11.7,8.7,28.3,10.7,34.3,2.1c4.2-6,3.9-22.3-7.2-35.6c-7.2-8.7-19.2-15.5-31.7-20.6
						c-12.2-5-27.2-10.7-45.8-10.7c-1.3,5-1.8,10.9-1.2,20.8c12,4.5,19,9.4,28.4,18.6C390.8,493.1,392.3,500.1,403.8,508.7z"/>
					<path class="st15" d="M353.4,443.8c1.8,4.9,2.8,12.3-0.2,18.7c-0.3,0.7-0.7,1.4-1.1,2.1c-31.5,3.4-48.5-6.2-47.5-11.6
						c0.5-2.9,13.8-1.1,25.5-4.7C340.5,445.3,348.3,442.9,353.4,443.8z"/>
					<path class="st16" d="M353.4,443.8c1.8,4.9,2.8,12.3-0.2,18.7c-0.3,0.7-0.7,1.4-1.1,2.1c-31.5,3.4-48.5-6.2-47.5-11.6
						c0.5-2.9,13.8-1.1,25.5-4.7C340.5,445.3,348.3,442.9,353.4,443.8z"/>
					<path class="st16" d="M305.2,455.3c7.8,3.3,34.2,3.1,49.8,0.4"/>
				</g>
				<path class="st10" d="M400.4,423.3c6.1,15.9,33.4,46.5,38.7,67.4"/>
				<path class="st10" d="M421.6,466.5c-6.5-4.7-14.3-8.8-22.4-12c-12.2-5-27.2-10.7-45.8-10.7"/>
				<path class="st10" d="M352.2,464.7c12,4.5,19,9.4,28.4,18.6c10.1,9.8,11.6,16.8,23.2,25.4c11.7,8.7,28.3,10.7,34.3,2.1
					c2.6-3.7,3.5-11.5,1.1-20"/>
			</g>
			<path class="st2" d="M224.4,364.2c-3.3,7.1-8,21.3-3.6,30.4c4.4,9,11.3,24,16.5,36.7c-3.4,0.8-18.8,3.4-27.1,10.3
				c-6.2-13.5-15.7-28.5-14.5-47.6c1.2-19.1,4.2-29,6.8-32.7C211.1,362.9,216.3,362.2,224.4,364.2z"/>
			<path class="st17" d="M561.1,626.6H118.9c-42.7,0-77.4-34.6-77.4-77.4v-21.3h596.9v21.3C638.5,592,603.8,626.6,561.1,626.6z"/>
			<g>
				<g>
					<path class="st1" d="M478.8,527.9h-36.2c1.1-19,4.2-41.3,8.1-58.7c4.9,3.8,11.7,5,18.4,5.4c-0.2,9,1.4,13.8,2.8,15.4
						c0.9,18.2,3.1,28.1,5.5,34.5C477.9,525.7,478.3,526.8,478.8,527.9z"/>
					<path class="st3" d="M480.4,417.4c0,2.2-0.1,4.9-0.2,7.6c-0.5,7.1-4,14.1-5.8,20.5c-3.5,12.5-4.9,22.1-5.1,29.1
						c-6.8-0.4-13.3-1.8-17.5-4.8c-1.2-0.8-2.2-1.8-3-2.9C453.2,432,470.5,418.3,480.4,417.4z"/>
					<path class="st10" d="M480.4,417.4c-9.9,0.7-27.2,14.4-31.8,49.6c3.2,4.5,10.3,6.7,18,7.4"/>
					<path class="st10" d="M449.7,460.2c4.9,4,10,5.5,15.9,6.4"/>
				</g>
				<g>
					<path class="st1" d="M657.5,413.7c-3.3-4.1-7.9-7.8-14.1-10.5c-0.2-0.1-0.4-0.2-0.6-0.2c-2.2-77-39.8-115.1-91.6-132.8
						c-7.6-2.6-14.9-4.8-16.4-8.6c-3.6,2.1-4.1,6.9-4.1,6.9c0,0-0.1,0-0.1,0c-4,0.2-14.8-5.2-11.4-12.9c-12.9,1.3-20.2,9.4-17,16.8
						c-6.4,1.1-11.3-1.4-12.5-7.2c-4,4.9-3.6,10.5-1.1,13.3c-1,2.7-8.3,2.7-11-3.5c-3.8,9.4,0.9,13,5.9,13.8c-1.6,2.4-6.2,2.7-8,0.8
						c0.2,3.7,4.4,6.7,8.4,5.1c-2.7,2.2-5,4.9-6.9,7.9c-0.2,0.4-0.5,0.7-0.7,1.1c-0.2,0.3-0.4,0.7-0.6,1c-0.6,1.1-1.2,2.3-1.7,3.4
						c-0.1,0.3-0.3,0.6-0.4,1c-0.2,0.4-0.3,0.8-0.5,1.2c-0.4,1.1-0.9,2.2-1.2,3.4c-2,6-3.1,12.4-3.5,18.3l0,0.1
						c-0.4,5.9-0.4,12.6,0.1,16.5c2.1,14.3,4.2,22.1,7.6,34.7c0.6,2.2,1.8,8.1,2.3,10.4c1.5,7.7,2.2,16.5,2.7,21
						c0,0.3-1.2,10.4-1.5,10.9c3.8,1.9,5,2.5,9.3,3.6C541.4,439.8,608.5,428.3,657.5,413.7z"/>
					<path class="st2" d="M642.4,393.8c-7.9-2.3-15.6-1.3-22.3,1.1c-2.4-44.6-12.7-72.2-38.9-93c-12.5-9.9-28.4-15.3-44.3-15.6
						c-2.3,0-4.5-1.1-4.4-3.5c-3.4,0.3-3.6,3.8-7,4.2c-2.3,0.3-8.3-3.4-9.1-6.8c-5.1,4-2.7,9.4-5.1,10.3c-1.6,0.6-8.1-2.8-16.8-1.2
						c6.6,2.1,8.3,4.9,6.6,5.8c-2.3,1.2-11.6,0.7-13.7,1.9c3.9,0.9,4,3.7,2.5,4.6c-8.9,5.9-15.2,12.3-20,19.1c0.5-2.3,1.1-4.7,1.9-7
						c0.4-1.1,0.8-2.3,1.2-3.4c0.2-0.4,0.3-0.8,0.5-1.2c0.1-0.3,0.3-0.6,0.4-1c0.5-1.2,1.1-2.3,1.7-3.4c0.2-0.4,0.4-0.7,0.6-1
						c0.2-0.4,0.5-0.8,0.7-1.1c1.9-3,4.2-5.7,6.9-7.9c-3.5,1.4-8.1-0.8-8.4-5.1c1.7,1.7,6,1.9,8-0.8c-8.1-1.3-8.4-7.6-5.9-13.8
						c2.3,5.6,9.4,6.7,11,3.5c-2.8-3.3-2.6-8.6,1.1-13.3c1,5.2,5.7,8.5,12.5,7.2c-2.9-6.7,2.6-15.2,17-16.8
						c-2.2,5.6,2.4,11.7,11.4,12.9c0,0,0.1,0,0.1,0c0,0,0.4-4.4,4.1-6.9c1.7,3.9,8.7,6,16.4,8.6
						C600.9,287.1,637.6,322.9,642.4,393.8z"/>
					<g>
						<path class="st5" d="M488.3,382.5c26.7,23.6,68.2,8.1,86.1-10.5c15.1-15.7,15.6-22.9,16.1-40.1c0.3-11.8-5.3-21.2-8.5-25.1
							c-14.4-17.6-30.3-16.9-49-6.9c-5.6,3-9.6,8.8-14,9c-1.8,0.1-6.1-4.4-4.3-9.6c-6.6,7-4.5,13.7-9.7,14.9
							c-8.7,2.1-17.7-4-26.5-0.5c-7.4,2.9-10.8,13.9-11.3,23.2C466.5,354.2,475.8,371.5,488.3,382.5z"/>
						<path class="st6" d="M508.8,336.8c-7.9-2.3-11,12.6-8.6,22.8c2,8.6,7.9,13.6,14.8,15c12.8,2.6,28.2-1.8,33.4-10.9
							c4.9-8.5,1.7-18.5-4.8-24.4c-7.2-6.5-17.5-9.9-23.6-6L508.8,336.8z"/>
						<path class="st6" d="M468.2,336.6c-0.3,8.5,0.3,19.2,8,31.6c6.4-2.6,15.8-8.9,20.8-22c5.2-13.4,4.1-29.8,1.4-31.7
							c-6.9-0.7-13.2-3.6-20.3-0.6C474.6,315.4,468.7,320.9,468.2,336.6z"/>
						<path class="st6" d="M525.1,305.5c9.8,43.8,60.2,53,63.8,44.5c2.3-5.4,5.2-28.4-6.5-42.7c-4.6-5.6-13.5-15.1-27-14.5
							C542.5,293.4,531,300,525.1,305.5z"/>
						<path class="st7" d="M504.4,337.7c-0.7-2.8,4.2-6.3,10.8-7.9c6.6-1.6,12.6-0.7,13.2,2c0.7,2.8-4.2,6.3-10.8,7.9
							C511,341.3,505.1,340.4,504.4,337.7z"/>
					</g>
					<path class="st16" d="M642.2,390.3c-5.8-68.6-42-103.5-90.9-120.1c-7.6-2.6-14.9-4.8-16.4-8.6c-3.6,2.1-4.1,6.9-4.1,6.9
						c0,0-0.1,0-0.1,0c-4,0.2-14.8-5.2-11.4-12.9c-12.9,1.3-20.2,9.4-17,16.8c-6.4,1.1-11.3-1.4-12.5-7.2c-4,4.9-3.6,10.5-1.1,13.3
						c-1,2.7-8.3,2.7-11-3.5c-3.8,9.4,0.9,13,5.9,13.8c-1.6,2.4-6.2,2.7-8,0.8c0.2,3.7,4.4,6.7,8.4,5.1c-2.7,2.2-5,4.9-6.9,7.9
						c-0.2,0.4-0.5,0.7-0.7,1.1c-0.2,0.3-0.4,0.7-0.6,1c-0.6,1.1-1.2,2.3-1.7,3.4c-0.1,0.3-0.3,0.6-0.4,1c-0.2,0.4-0.3,0.8-0.5,1.2
						c-0.4,1.1-0.9,2.2-1.2,3.4c-2,6-3.1,12.4-3.5,18.3l0,0.1c-0.4,5.9-0.6,10.5,0.1,16.5c1,8.4,2.4,14.6,3.9,20.8"/>
					<path class="st18" d="M522.8,308.1c10.8-17.4,41.2-19.2,65.5-6.1"/>
					<path class="st18" d="M502.3,315.5c-21.4-2.1-34.8-0.7-45.4,29.2"/>
					<path class="st19" d="M523.9,357.7c-7-6.8-7.8-18.7-7.7-18.6"/>
				</g>
				<g>
					<line class="st4" x1="490.9" y1="396.6" x2="491.4" y2="403.1"/>
					<line class="st4" x1="498" y1="399.2" x2="498.6" y2="405.7"/>
				</g>
				<path class="st3" d="M652.4,527.2c-0.6,0.2-1.2,0.5-1.8,0.7H460.7c-1.7-0.6-3.3-1.3-4.9-1.9c-0.3-1.3,1-18,2.3-24.1
					c0.6-2.7,1.3-5.3,2-7.8c0.7-2.5,1.5-5,2.3-7.2c0.2-0.7,0.5-1.4,0.8-2.1c0.1-0.4,0.3-0.7,0.4-1.1c0.7-1.9,1.5-4,2.4-6.2
					c0.2-0.5,0.4-0.9,0.6-1.4c0.2-0.5,0.4-1,0.6-1.5c0.1-0.2,0.2-0.4,0.2-0.6c0.1-0.3,0.3-0.6,0.4-0.9c0.1-0.2,0.2-0.5,0.3-0.7
					c0.3-0.7,0.6-1.4,1-2c0.4-0.9,0.8-1.7,1.2-2.5c0,0,0,0,0-0.1c-0.1-0.2-0.2-0.4-0.3-0.6c0,0,0,0,0-0.1c-1.1-2.1-1.7-4.3-1.9-6.5
					c0-0.2-0.1-0.3-0.1-0.5c-0.1-0.6-0.1-1.3-0.1-1.9V458c0-0.3,0-0.5,0-0.8c0.1-1.7,0.3-3.5,0.6-5.2c0.3-1.4,0.6-2.8,1.1-4.2
					c1.8-6.1,4.8-12,7-16.7c0.1-0.2,0.2-0.4,0.3-0.6c0.1-0.2,0.2-0.5,0.3-0.7c0.1-0.3,0.3-0.5,0.4-0.8c0.1-0.3,0.3-0.6,0.4-0.9
					c0.3-0.7,0.6-1.4,0.8-2c0.1-0.2,0.1-0.5,0.2-0.7c0-0.1,0-0.2,0.1-0.3c0,0,0,0,0-0.1v-0.1c-0.1-0.8-1.2-2-1.4-3.4
					c0-0.1,0-0.2-0.1-0.2c0-0.4,0-0.7,0.1-1.1c0-0.1,0.1-0.2,0.1-0.3c0.3-0.7,1.1-2.2,2-3.3c0.2-0.3,0.5-0.6,0.7-0.9
					c0.1-0.1,0.2-0.2,0.2-0.2c0.2-0.1,0.3-0.2,0.4-0.3c0,0,0.1,0,0.1,0c0.1,0,0.1,0,0.2,0c0,0,0.1,0.1,0.1,0.2c0,0,0,0,0,0.1
					c0,0,0,0.1,0,0.1v0.1c0,0,0,0.1,0,0.1c0,0.1,0,0.1,0,0.2c0,0,0,0.1,0,0.1c11.9,2.9,22.6,4.5,32.4,5.3
					c27.7,2.1,47.7-3.1,63.1-7.9c11.2-3.5,33.1-13,54.4-23.2C633.2,414.5,655,491.8,652.4,527.2z"/>
				<g>
					<path class="st2" d="M461.1,491c3.7-4.9,8.3-11.3,10.5-12.8c4.6-3.1,17.1-3.1,26.2-1.9c16.2,2.1,25.9,8.8,40.3,9.7
						c8.8,0.6,35.4-9,32.8-13.1c-2.2-3.4-9.9-0.4-35.2,0.1c-13.9,0.3-25.9,0.2-39.5-0.6c-9.3-0.6-22.8-1.8-25.8-6.6
						c-0.5,2.2-2.7,7.5-3.7,9.8C464.5,480.9,462.5,487.1,461.1,491z"/>
					<path class="st10" d="M481.6,415.9c45.3,11.1,90.6,0.1,95.5-2.7"/>
					<path class="st10" d="M455.8,526c0.5-15.8,3.3-29.2,6.7-39.1c0.2-0.7,0.5-1.4,0.7-2.1c0.1-0.4,0.3-0.7,0.4-1.1
						c0.7-1.9,1.5-4,2.4-6.2c0.2-0.5,0.4-0.9,0.6-1.4c0.2-0.5,0.4-1,0.6-1.5c0.1-0.2,0.2-0.4,0.2-0.6c0.2-0.3,0.3-0.6,0.4-0.9
						c0.9-1.9,1.7-3.7,2.5-5.2c0,0,0,0,0-0.1c-0.1-0.2-0.2-0.4-0.3-0.6c0,0,0,0,0-0.1c-1.1-2.1-1.7-4.3-1.9-6.6c0-0.2,0-0.3-0.1-0.5
						c-0.1-0.9-0.1-1.9-0.1-2.9c0.1-1.7,0.3-3.5,0.6-5.2c1.5-7.6,5.4-15.1,8.1-21c0.7-1.4,2.4-4.5,2.5-5.9c0,0,0,0,0-0.1
						c0,0,0-0.1,0-0.1c-0.1-0.8-1.2-2-1.5-3.4c0-0.1,0-0.2,0-0.2c-0.1-0.5,0-0.9,0.2-1.4c0.3-0.7,1.2-2.2,2-3.3
						c0.2-0.3,0.5-0.6,0.7-0.9c0.1-0.1,0.2-0.2,0.2-0.2c0.2-0.2,0.4-0.3,0.5-0.3c0.1,0,0.2,0,0.2,0.2c0,0,0,0.1,0,0.1
						c0,0.1,0,0.2,0,0.3c0,0.1,0,0.1,0,0.1c0,0,0,0.1,0,0.1c0,0,0,0,0,0.1"/>
					<path class="st10" d="M488.6,417.9c-0.5,1.9-1.1,3.3-1.1,5.4"/>
					<path class="st10" d="M500.1,419.8c-0.8,1.7-0.9,4-0.8,5.9"/>
					<line class="st10" x1="513.9" y1="421" x2="513.4" y2="425.6"/>
					<polyline class="st10" points="523.6,421.9 523.7,422.6 523.7,423.2 523.7,423.9 523.7,424.4 523.8,424.9 523.8,425.4 					"/>
					<polyline class="st10" points="518.3,422.4 518.3,422.9 518.3,423.4 518.4,423.9 518.4,424.4 518.4,424.9 					"/>
					<polyline class="st10" points="556.1,419.3 556.1,419.8 556.1,420.3 556.2,421.3 556.2,421.9 					"/>
					<polyline class="st10" points="559.9,419.2 559.9,419.9 560,420.7 560,421.2 					"/>
					<path class="st10" d="M479.1,425.1c8.5,5.7,43.4,11.7,88,2.9"/>
				</g>
				<path class="st2" d="M610.5,456.9c8.4,6,10.6,19.6,13.5,25.5c3.5,7.3,16.7,18.9-6.6,24.1c24.7,3.3,23.8-4.6,25.5-7.9
					c1.7-3.4-7.3-25.9-11.9-34.1C626.4,456.2,617.3,454.5,610.5,456.9z"/>
				<g>
					<g>
						<path class="st1" d="M684,514.5c-2.6,9-12.7,12.8-35.9,14c-21.3,1.2-44.9-0.8-52.3-1c-5.3-0.1-12.8-1.8-22.3-2.1
							c-10.9-0.3-20.3,3.2-22.1,1.1c-2.6-2.8,3.4-11.2,16.3-16.1c8.2-3.2,16.3-3.4,23.6-3.8c3.7-0.2,8.2-0.8,12.4-1.6
							c12.4-2.2,21.3-6.3,31.9-9.2c-0.9-1.3-4.5-8.1-6.5-13.3c-1.9-4.8-3.3-9.9-4.2-14.4c0.1-0.1,20.3-25.7,55.6-17.8
							c1.9,5.1,3.3,10.2,4.1,14.8C688.7,488.9,687.4,502.5,684,514.5z"/>
						<path class="st3" d="M683.3,456.8c-0.5,0.2-1.2,0.3-2.2,0.3c-31.7-1.5-45.1,9.8-54.9,17.6c-0.1,0.1-0.2,0.2-0.3,0.3
							c-5.8,4.3-7.2-2.2-7.5-8.3c-0.9-1.5-2.8-4.2-5.6-7.4c-1-4-1.9-9.1-4.1-12.5l-5.4-37.1c6.5-9.6,19.3-22.2,37.5-19.4
							c21.5,3.3,32.6,16,42.3,57.5C683.7,450.1,686.5,455.5,683.3,456.8z"/>
						<path class="st2" d="M683.3,456.8c-0.5,0.2-1.2,0.3-2.2,0.3c-4.2-0.2-8-0.2-11.6,0c-0.5-4.9-1.3-9.9-2.2-14.7
							c-3-14.9-13.1-51-36.2-52.3c3-0.4,6.3-0.5,9.7,0.1c21.5,3.3,32.6,16,42.3,57.5C683.7,450.1,686.5,455.5,683.3,456.8z"/>
						<path class="st10" d="M626.2,474.6c-7.6,1.9-7.6-2.1-7.9-8.4"/>
						<path class="st10" d="M612.8,459.2c2.9,3.3,4.8,6,5.7,7.5"/>
						<path class="st10" d="M605,454.1c3.4,0.7,5.8,2.7,7.8,5c-1-4-1.9-9.1-4.1-12.5"/>
						<path class="st10" d="M603.3,409.5c6.5-9.7,19.3-22.2,37.5-19.4c21.5,3.3,32.6,16,42.3,57.5c0.7,3,4.5,9.9-1.9,9.5
							c-13.6-0.9-29.6,0.8-44.5,9.9"/>
						<path class="st10" d="M619.4,466.3c9.5-10.8,27.2-20.7,44.8-19.5"/>
						<path class="st10" d="M627.2,460.1c0.8,1.7,1.6,2.8,2.7,4.3"/>
						<line class="st10" x1="636.3" y1="454.7" x2="638.5" y2="458.5"/>
						<line class="st10" x1="645.3" y1="450.5" x2="646.4" y2="454.7"/>
						<g>
							<line class="st4" x1="672.6" y1="484.6" x2="672.7" y2="491.1"/>
							<line class="st4" x1="665.2" y1="480.6" x2="665.3" y2="487"/>
						</g>
					</g>
					<path class="st15" d="M595.7,527.6c-7.2,0-13.1-2.1-25.2-2.1c-10,0-16.4,3.6-19.2,1.2c-2.4-2.1,1.4-10.2,16.3-16.1
						c8.2-3.3,14.2-3.3,23.6-3.8C595.3,513.9,597.5,521.5,595.7,527.6z"/>
					<path class="st10" d="M591,506.5c4.1,7.1,6.5,15,4.7,21.1"/>
					<path class="st10" d="M682.7,457.4c0.8,2.7,1.4,5.4,1.9,8c4.1,23.6,2.9,37.2-0.6,49.2c-2.6,9-12.7,12.8-35.9,14
						c-21.3,1.2-45.3-0.7-52.8-0.9c-8-0.2-12.8-2.2-25.7-2.2c-10,0-16.2,3.7-18.6,0.9c-3-3.6,9.1-13.4,16.6-15.8
						c8.4-2.6,13.9-3.6,21.8-3.9c3.7-0.2,7.6-0.8,12.2-1.7c14.6-3,23.3-6.1,33.9-8.9c-0.9-1.3-4.5-8.1-6.5-13.3
						c-1-2.5-1.8-5-2.5-7.5"/>
					<path class="st10" d="M551.3,526.7c11.5-10.2,21.1-12,44.2-8.6"/>
					<path class="st2" d="M682.6,456.9c0.9,2.9,1.5,5.7,2,8.4c4.1,23.6,2.9,37.2-0.6,49.2c-2.6,9-12.8,12.8-35.9,14
						c-21.3,1.2-44.9-0.8-52.3-1c-5.3-0.1-14.4-2.1-25.2-2.1c-10.9,0-16.4,3.6-19.2,1.2c-1.6-1.4-0.8-4.9,3.5-8.3
						c3.9,3,10.4,2.5,17.6,2.3c9-0.2,20.2-0.5,23.6-0.9c3.4-0.4,18.7-0.7,32.7-1.5c14-0.8,35.2-0.9,43-7.1c7.8-6.2,5.5-32-0.4-54.3
						c3.1-0.1,6.3-0.1,9.8,0.1C681.7,457.1,682.1,457,682.6,456.9z"/>
				</g>
				<g>
					<path class="st0" d="M496.8,334.5c-0.5,4.2-5.5,5.2-10.9,6.5c-6.3,1.4-12.8,2.7-13.7-4.4c-0.7-5.2,4.6-8.2,12.8-9.8
						S497.6,328.7,496.8,334.5z"/>
					<path class="st20" d="M496.8,333.4c-3.3-4.4-8.4-4.3-14.4-2.3c-6.4,2.2-8.9,5.2-9.3,8.4c-0.4-0.9-0.7-1.9-0.9-3
						c-0.7-5.2,4.6-8.2,12.8-9.8C492.6,325.4,496.3,328.3,496.8,333.4z"/>
					<path class="st16" d="M496.8,334.5c-0.4,4.2-5.6,5.2-10.9,6.5c-6.4,1.5-12.8,2.7-13.7-4.4c-0.7-5.2,4.6-8.2,12.8-9.8
						S497.3,328.7,496.8,334.5z"/>
					<path class="st12" d="M479.3,336.2c-0.4-2.9,1.6-5.5,4.5-5.9c2.9-0.4,5.5,1.6,5.9,4.5c0.4,2.9-1.6,5.5-4.5,5.9
						C482.3,341,479.7,339,479.3,336.2z"/>
					<circle class="st0" cx="480.4" cy="333.7" r="2.3"/>
					<circle class="st0" cx="481.8" cy="337.5" r="0.9"/>
				</g>
				<g>
					<g>
						<path class="st0" d="M567.4,315.7c-0.1,4.5-5.8,4.9-11.3,6.3c-7,1.7-14.3,3-15.2-4.4c-0.7-5.2,5-8.2,13.9-9.7
							C563.6,306.4,567.5,309.8,567.4,315.7z"/>
						<path class="st20" d="M567.2,313.7c-3.7-3.5-9.2-3.2-15.8-1.1c-5.7,1.8-8.9,4.1-10.3,6.5c-0.1-0.5-0.2-1-0.3-1.5
							c-0.7-5.2,5-8.2,13.9-9.7C562.5,306.6,566.4,309.1,567.2,313.7z"/>
						<path class="st12" d="M550.2,316.8c-0.4-2.2,1.1-4.3,3.3-4.6c2.2-0.4,4.3,1.1,4.6,3.3c0.4,2.2-1.1,4.3-3.3,4.6
							C552.6,320.5,550.5,319,550.2,316.8z"/>
						<path class="st10" d="M567.4,315.7c-0.1,4.5-5.8,4.9-11.3,6.3c-7,1.7-14.3,3-15.2-4.4c-0.7-5.2,5-8.2,13.9-9.7
							C563.6,306.4,567.5,309.8,567.4,315.7z"/>
					</g>
					<path class="st12" d="M549.2,316.8c-0.4-3,1.8-5.8,4.8-6.1c3-0.4,5.8,1.8,6.1,4.8c0.4,3-1.8,5.8-4.8,6.1
						C552.3,321.9,549.6,319.8,549.2,316.8z"/>
					<circle class="st0" cx="550.3" cy="314.2" r="2.4"/>
					<circle class="st0" cx="551.7" cy="318.2" r="0.9"/>
				</g>
				<path class="st19" d="M533.4,348.3c-1,10.6-13,13-21.4,8.2"/>
				<path class="st2" d="M505.3,407.2c-1.4,14.9-8.1,44.2-10.1,57.5c-2.3,0.4-8.4,0-8.4,0L505.3,407.2z"/>
				<g>
					<path class="st1" d="M423.1,496.8c-6.1,38.7,25.6,62.5,53,23.8c9.9-14,9.4-29.4,10-40.7c1.4-28.1,21.4-62.9,19.3-79.3
						c-5.1-0.9-11.1-0.8-20.9,0.6c-8.5,13.1-22.3,30.2-32.5,43.2C435.3,465.7,425.6,481,423.1,496.8z"/>
					<path class="st15" d="M505.3,400.6c0.1,10.2-17.5,11.6-23.5,4.5c-16.5-19.5-17.5-35.8-13.1-38c2.7-1.3,9.1,10.4,19,17.6
						C496.4,391.1,505.3,394.5,505.3,400.6z"/>
					<path class="st2" d="M482.4,418.6c-4.7,7.4-57,71.5-48.6,116.9c-8.6-7.1-13.5-21.4-10.7-38.7c2.5-15.8,12.2-31.1,28.9-52.3
						c9.2-11.7,21.3-26.8,29.9-39.3c-16.5-19.5-17.5-35.8-13.1-38c0.6-0.3,1.4,0.1,2.4,1c-1.4,7.1,3.2,19.5,10.4,28.5
						C489.1,406.2,487.7,410.3,482.4,418.6z"/>
					<path class="st16" d="M481.9,405.1c-8.5,13.1-19.7,26.4-29.9,39.3c-16.7,21.3-26.4,36.6-28.9,52.4c-6.1,38.7,25.6,62.5,53,23.8
						c9.9-14,9.4-29.4,10-40.7c1.4-28.1,21.5-63.9,19.3-79"/>
					<path class="st16" d="M505.3,400.6c1.4,5.7-14.2,15.3-23.5,4.5c-16.7-19.4-17.5-35.8-13.1-38c2.7-1.3,9.1,10.4,19,17.6
						C496.4,391.1,503.6,393.6,505.3,400.6z"/>
					<path class="st16" d="M467.3,368.8c2,8.3,17.6,28.6,29.1,39.5"/>
				</g>
			</g>
			<g>
				<g>
					<path class="st21" d="M308.2,620.1c-7.8,0.5-14.6,0.3-20.7-4.4c-4.3-3.4-53.1-42.5-68.4-55.1c-4.3-3.5-1.6-10.3,3.9-10.4
						c19.3-0.3,74.2-1.2,74.2-1.2l-2.7,57.9c0,4,1.9,7.6,4.8,10C301.8,618.9,304.8,620.1,308.2,620.1z"/>
					<g>
						<polygon points="335,579.3 336.3,580.3 334.1,583.1 333.4,583.2 328.6,579.5 						"/>
						<polygon points="330.6,565.9 325.7,562.3 332.2,562.1 337,565.7 						"/>
						<polygon points="337.3,573.5 340.1,575.5 338.7,577.2 335.7,577.3 330.8,573.7 						"/>
						<polygon points="340.5,573.4 341.8,573.3 341.3,574 						"/>
						<polygon points="339.6,567.6 343.8,570.8 343.4,571.3 338,571.5 333.1,567.8 						"/>
						<polygon points="342.8,567.5 346.4,567.4 345,569.2 						"/>
						<polygon points="341.9,561.8 346.7,565.4 340.2,565.6 335.4,562 						"/>
						<polygon points="351.1,561.5 348.8,564.4 345.1,561.7 						"/>
						<polygon points="334.8,571.6 328.3,571.8 323.4,568.1 329.9,567.9 						"/>
						<polygon points="332.5,577.4 326,577.6 321.1,574 327.6,573.8 						"/>
						<polygon points="326.3,585.4 332.5,585.2 330.1,588.2 						"/>
						<polygon points="323.7,583.5 318.9,579.8 325.4,579.6 330.2,583.3 						"/>
						<polygon points="323.1,585.5 327.9,589.1 321.4,589.3 316.6,585.7 						"/>
						<polygon points="324,591.2 327.8,591.1 326.3,593 						"/>
						<polygon points="320.9,566.2 316,562.6 322.5,562.4 327.3,566 						"/>
						<polygon points="320.8,591.3 325.1,594.6 324.8,595 319.2,595.2 314.3,591.5 						"/>
						<polygon points="325.1,571.9 318.6,572.1 313.7,568.4 320.2,568.2 						"/>
						<polygon points="321.7,597.1 323.2,597 322.6,597.8 						"/>
						<polygon points="316.3,577.9 311.5,574.3 317.9,574.1 322.8,577.7 						"/>
						<polygon points="318.5,597.2 321.4,599.3 320.1,600.9 316.9,601 312,597.4 						"/>
						<polygon points="320.5,583.6 314,583.8 309.2,580.1 315.7,579.9 						"/>
						<polygon points="318.2,589.4 311.7,589.6 306.9,586 313.4,585.8 						"/>
						<polygon points="311.2,566.5 306.3,562.9 312.8,562.7 317.7,566.3 						"/>
						<polygon points="316.2,603 317.6,604.1 315.5,606.8 314.6,606.9 309.8,603.2 						"/>
						<polygon points="316,595.3 309.5,595.5 304.6,591.8 311.1,591.6 						"/>
						<polygon points="310.5,568.5 315.4,572.2 308.9,572.4 304,568.7 						"/>
						<polygon points="307.5,609.1 313.9,608.9 311.4,612 						"/>
						<polygon points="307.2,601.3 302.3,597.7 308.8,597.5 313.7,601.1 						"/>
						<polygon points="313.1,578 306.6,578.2 301.8,574.6 308.3,574.4 						"/>
						<polygon points="311.4,607 304.9,607.2 300.1,603.5 306.5,603.3 						"/>
						<polygon points="310.8,583.9 304.3,584.1 299.5,580.4 306,580.2 						"/>
						<polygon points="301.5,566.8 296.6,563.2 303.1,563 308,566.6 						"/>
						<polygon points="302.1,589.9 297.2,586.3 303.7,586.1 308.5,589.7 						"/>
						<polygon points="299.8,595.8 294.9,592.1 301.4,591.9 306.3,595.6 						"/>
						<polygon points="300.8,568.8 305.7,572.5 299.2,572.7 294.4,569 						"/>
						<polygon points="304,601.4 297.5,601.6 292.7,598 299.1,597.8 						"/>
						<polygon points="296.9,578.5 292.1,574.9 298.6,574.7 303.4,578.3 						"/>
						<polygon points="294.6,584.4 289.8,580.7 296.3,580.5 301.1,584.2 						"/>
						<polygon points="292.4,590.2 287.5,586.6 294,586.4 298.9,590 						"/>
						<polygon points="291.8,567.1 286.9,563.5 293.4,563.3 298.3,566.9 						"/>
						<polygon points="296.6,595.9 290.1,596.1 285.2,592.4 291.7,592.2 						"/>
						<polygon points="291.2,569.1 296,572.8 289.5,573 284.7,569.4 						"/>
						<polygon points="288.9,575 293.7,578.6 287.2,578.8 282.4,575.2 						"/>
						<polygon points="285,584.7 280.1,581 286.6,580.8 291.4,584.5 						"/>
						<polygon points="289.2,590.3 282.7,590.5 277.8,586.9 284.3,586.7 						"/>
						<polygon points="282.1,567.4 277.3,563.8 283.7,563.6 288.6,567.2 						"/>
						<polygon points="281.5,569.5 286.3,573.1 279.8,573.3 275,569.7 						"/>
						<polygon points="277.5,579.1 272.7,575.5 279.2,575.3 284,578.9 						"/>
						<polygon points="281.7,584.8 275.3,585 270.4,581.4 276.9,581.1 						"/>
						<polygon points="272.4,567.7 267.6,564.1 274.1,563.9 278.9,567.5 						"/>
						<polygon points="271.8,569.8 276.6,573.4 270.1,573.6 265.3,570 						"/>
						<polygon points="274.3,579.2 267.9,579.4 263,575.8 269.5,575.6 						"/>
						<polygon points="262.7,568 257.9,564.4 264.4,564.2 269.2,567.8 						"/>
						<polygon points="266.9,573.7 260.4,573.9 255.6,570.3 262.1,570.1 						"/>
						<polygon points="259.5,568.1 253,568.3 248.2,564.7 254.7,564.5 						"/>
					</g>
					<line class="st22" x1="290" y1="607.6" x2="220.9" y2="553.5"/>
					<path class="st22" d="M308.2,619.9c-7.8,0.5-14.6,0.3-20.7-4.4c-4.3-3.3-53.1-42.5-68.4-55.1c-4.3-3.5-1.6-10.3,3.9-10.4
						c19.3-0.3,74.2-1.2,74.2-1.2"/>
				</g>
				<polyline class="st22" points="276.6,549.2 289.2,558.1 296.8,557.7 				"/>
			</g>
			<g>
				<path class="st1" d="M238.1,456.5c6.1,16.4,12.2,45.8,13.2,71.5c-6.2,0-9.9,0-14,0c-3.1-16.2-17.4-52.2-22.1-64.3
					C226,460.3,238.1,456.5,238.1,456.5z"/>
				<path class="st2" d="M245.6,519.9c-4.7,1.1-3.7-7.5-10.8-36.6c-2.4-9.6-6.8-19.9-3.1-23.3c-3,0.9-10.2,1.5-10.7,2.2
					s2.2,4.4,6,13.2c3.7,8.8,8.4,26,10.1,35.7c1.6,9.7,1.5,16.5,2.8,16.7c0.8,0,1.6,0,2.1,0C242.4,526.3,244.1,522.5,245.6,519.9z"
					/>
				<g>
					<path class="st1" d="M219.8,459.6c0-0.1,0.1-0.2,0.1-0.2c0,0,0,0,0-0.1c0.9-2.1,1.4-4.2,1.6-6.4c0-0.2,0-0.3,0-0.5
						c0.1-0.9,0-1.8,0-2.8c-0.1-1.7-0.4-3.4-0.8-5.1c-1.8-7.3-5.8-14.5-8.6-20c-0.7-1.4-2.5-4.3-2.6-5.6c0,0,0,0,0-0.1v-0.1
						c0-0.8,1.1-2,1.3-3.4c0-0.1,0-0.1,0-0.2c0-0.4,0-0.9-0.2-1.4c-0.3-0.6-1.2-2.1-2-3.1c-0.2-0.3-0.5-0.6-0.7-0.8
						c-0.1-0.1-0.2-0.2-0.2-0.2c-0.2-0.2-0.4-0.3-0.5-0.3c-0.1,0-0.2,0-0.2,0.2c0,0,0,0.1,0,0.1c0,0,0,0,0,0.1c0,0.2,0,0.4,0.1,0.4
						c0,0,0-0.1,0-0.1c0,0,0-0.1,0-0.1c0-0.1,0-0.2,0-0.3c-0.1-1.3-0.3-4.6-0.4-7.5c-0.1-2.7,0-5,0.2-5.1c0.8-0.3,1.4,1.6,1.5,1.8
						c0.6,0.6-0.4-1.6-0.4-2.4c-0.2-2.2-0.5-4.7-0.2-6.8c0.1-0.5,1.1,1.1,1.3,0.7c0.5-1-0.2-3,0-4.2c0.3-2.3,1.8-4.8,2.9-6.8
						c11.8-23.7,19.6-52.6,4.9-77.4c-3.3-5.6-7.3-9.9-12.4-13.3c2.8-0.3,6.5-0.5,9.6,0.9c-2.9-5.1-5.2-6.2-8.8-7.1
						c-0.1-0.6,6.7-3,12.2-0.9c-5-8.1-18.4-7-18.4-8.9c0-2.2,6.1-3,10.9-2.2c-7.3-5.9-17.5-5.9-25.8-2.4
						c-5.4-10-13.1-15.1-22.4-14.5c0.4,4.3,1.2,9.6-4,12.9c-5-4.1-7.7-5.5-14.8-5.3c4.2,3.3,4.6,5.4-6.1,9c-4,1.3-9.2,3.6-12.9,5.4
						c-47.4,23.4-62.8,67.8-62.9,114.5c0,11.9-7.7,39.5-13.3,68.9C104.8,461.7,162.3,460.4,219.8,459.6z"/>
					<path class="st3" d="M206.4,402.1c0.1,2.4,0.1,5.2,0.3,8c0.5,7.5,4.2,14.9,6.1,21.7c3.7,13.2,5.2,23.3,5.4,30.7
						c7.1-0.5,14-1.9,18.5-5c1.3-0.9,2.3-1.9,3.2-3C235,417.5,216.9,403,206.4,402.1z"/>
					<g>
						<line class="st4" x1="194.7" y1="399.9" x2="194.7" y2="406.2"/>
						<line class="st4" x1="188" y1="397.2" x2="188" y2="403.4"/>
					</g>
					<path class="st3" d="M239.3,527.9H43.4c-8.6-40,16.5-114.1,17.3-137.1c21,9,42.6,17.4,53.6,20.3c15.2,4.1,34.7,8.3,61.4,5.2
						c9.4-1.1,19.8-3.1,31.1-6.4c0,0,0,0,0-0.1c0-0.1,0-0.1,0-0.2c0,0,0-0.1,0-0.1c0-0.1,0-0.1,0-0.1c0,0,0-0.1,0-0.1
						c0-0.1,0-0.1,0.1-0.2c0,0,0.1,0,0.1,0c0,0,0.1,0,0.1,0c0.1,0,0.2,0.1,0.4,0.3c0.1,0.1,0.2,0.1,0.2,0.2c0.2,0.2,0.5,0.5,0.7,0.8
						c0.9,1.1,1.7,2.5,2.1,3.1c0,0.1,0.1,0.2,0.1,0.3c0.1,0.4,0.2,0.7,0.1,1.1c0,0.1,0,0.1,0,0.2c-0.2,1.4-1.3,2.6-1.3,3.4
						c0,0,0,0.1,0,0.1c0,0,0,0,0,0.1c0,0.1,0,0.2,0.1,0.3c0.1,0.2,0.1,0.4,0.2,0.6c0.2,0.6,0.5,1.2,0.9,1.9c0.2,0.3,0.3,0.5,0.4,0.8
						c0.1,0.3,0.3,0.5,0.4,0.8c0.1,0.3,0.3,0.5,0.4,0.7c0.1,0.2,0.2,0.4,0.3,0.6c2.3,4.5,5.4,10.1,7.4,15.9c0.5,1.3,0.9,2.7,1.2,4.1
						c0.4,1.7,0.7,3.4,0.8,5.1c0,0.2,0,0.5,0.1,0.8v0.1c0,0.6,0,1.3,0,1.9c0,0.2,0,0.3,0,0.5c-0.1,2.2-0.6,4.4-1.6,6.4
						c0,0,0,0,0,0.1c-0.1,0.2-0.2,0.4-0.2,0.6c0,0,0,0,0,0.1c0.4,0.7,0.9,1.5,1.3,2.3c0.4,0.7,0.7,1.3,1,2c0.1,0.2,0.2,0.4,0.3,0.7
						c0.1,0.3,0.3,0.6,0.4,0.9c0.1,0.2,0.2,0.4,0.3,0.5c0.2,0.5,0.4,0.9,0.7,1.4c0.2,0.5,0.4,0.9,0.6,1.3c0.9,2,1.8,4.1,2.6,5.9
						c0.1,0.4,0.3,0.7,0.4,1.1c0.3,0.7,0.5,1.4,0.8,2.1c0.9,2.2,1.7,4.5,2.5,6.9c0.8,2.4,1.6,4.9,2.2,7.5
						C234.4,498.3,238,515.4,239.3,527.9z"/>
					<path class="st2" d="M233.2,459.4c-1.5,0.6-2.2-0.3-2.7-2.5c-0.5-2.2-1.3-4.5,0.3-5.1c-1.8-0.5-4.3-2.9-6.3-9.2
						c-2-6.3-10.3-17.7-14.5-22c3.3,5.8,7,13.1,9,18.7s2.9,10.1,2.4,13.5c-0.5,3.4-2,6.1-1.9,7c0.2,1,0.7,1.5,1.4,2.6
						C224.5,462,229.4,461,233.2,459.4z"/>
					<path class="st10" d="M206.4,402.1c10.4,0.8,28.7,15.3,33.5,52.3c-3.4,4.8-10.8,7-19,7.8"/>
					<path class="st10" d="M238.7,447.3c-5.2,4.3-10.6,5.8-16.7,6.8"/>
					<g>
						<path class="st2" d="M229.5,482c-3.8-4.6-8.5-10.6-10.6-12c-4.5-2.9-22.4-0.8-27.5,0c-14,2-19.9,8.8-33.9,10.2
							c-8.5,0.9-33.2-8.2-30.8-12.2c2-3.3,14.9,0.1,32.7-0.4c13.4-0.4,22.2-0.6,35.4-1.8c11-1,22.1-3,24.7-7.8
							c0.6,2.1,2.9,7.2,3.9,9.3C225.9,472.3,228,478.3,229.5,482z"/>
						<path class="st10" d="M206.8,410.1c-43.5,12.5-84.6,7.4-122.1-9.4"/>
						<path class="st10" d="M239.3,527.9c-1.1-15.3-7.6-40.4-11.3-49.8c-0.3-0.7-0.5-1.4-0.8-2c-0.1-0.3-0.3-0.7-0.4-1.1
							c-0.7-1.8-1.6-3.9-2.6-5.9c-0.2-0.4-0.4-0.9-0.6-1.3c-0.2-0.5-0.5-0.9-0.7-1.4c-0.1-0.2-0.2-0.4-0.3-0.5
							c-0.2-0.3-0.3-0.6-0.5-0.9c-0.9-1.8-1.8-3.5-2.6-5c0,0,0,0,0-0.1c0.1-0.2,0.2-0.4,0.3-0.6c0,0,0,0,0-0.1
							c1-2.1,1.4-4.2,1.6-6.4c0-0.2,0-0.3,0-0.5c0.1-0.9,0-1.8,0-2.8c-0.1-1.7-0.4-3.4-0.8-5.1c-1.8-7.3-5.8-14.5-8.6-20
							c-0.7-1.4-2.5-4.3-2.6-5.6c0,0,0,0,0-0.1c0,0,0-0.1,0-0.1c0-0.8,1.1-2,1.3-3.4c0-0.1,0-0.1,0-0.2c0-0.4,0-0.9-0.2-1.4
							c-0.3-0.6-1.2-2.1-2-3.1c-0.2-0.3-0.5-0.6-0.7-0.8c-0.1-0.1-0.2-0.2-0.2-0.2c-0.2-0.2-0.4-0.3-0.5-0.3c-0.1,0-0.2,0-0.2,0.2
							c0,0,0,0.1,0,0.1c0,0.1,0,0.2,0,0.3c0,0.1,0,0.1,0,0.1c0,0,0,0.1,0,0.1c0,0,0,0,0,0.1"/>
						<path class="st10" d="M200,412.3c0.6,1.8,1.2,3.2,1.2,5.2"/>
						<path class="st10" d="M189,414.5c0.8,1.7,1,3.8,1,5.7"/>
						<line class="st10" x1="175.7" y1="416.3" x2="176.4" y2="420.7"/>
						<polyline class="st10" points="166.3,417.5 166.3,418.2 166.3,418.7 166.3,419.5 166.3,420 166.3,420.4 166.3,420.9 						"/>
						<polyline class="st10" points="171.5,417.7 171.5,418.2 171.5,418.7 171.5,419.2 171.5,419.7 171.5,420.2 						"/>
						<polyline class="st10" points="134.8,416.3 134.8,416.7 134.8,417.2 134.8,418.2 134.8,418.7 						"/>
						<polyline class="st10" points="131.1,416.3 131.1,417 131.1,417.7 131.1,418.2 						"/>
						<path class="st10" d="M209.5,418.9c-8,5.9-41.6,13-85.1,6.2"/>
					</g>
					<g>
						<path class="st13" d="M158,516.4l0.1,14.3l-8.8-11.3l-14.6-42.1c-1.6-4.5,7.2-7.6,8.7-3L158,516.4z"/>
						<path class="st14" d="M158,516.4l0.1,14.3l-8.8-11.3l-14.6-42.1c-1.6-4.5,7.2-7.6,8.7-3L158,516.4z"/>
						<path class="st10" d="M149.3,519.4c-1-3,7.7-6,8.7-3"/>
					</g>
					<path class="st2" d="M81.1,497.6c-9-3.1-9.6-8-8.7-12c1.2-5.7,5.8-11.5,7.6-15.1c1.8-3.6,1.6-12.1,5.1-16.4
						c-2.7,3.4-7.5,8.3-7.6,9.7c0,1.3-0.3,5.2-2.5,6.3c-2.2,1.2-4.6,0.9-4.8,2.7c-0.3,1.8-1.8,7.9-4.9,13.5
						c-3.1,5.7-3.9,8.7-3.3,9.6S68.3,498.5,81.1,497.6z"/>
					<path class="st2" d="M141.3,508.4c-8.8,4.2-19.1,11-24.3,19.5c-6.1,0-32.5,0-38.8,0c12.4-4.6,27.7-9.4,38.2-12.3
						C126.9,512.9,132.1,511.8,141.3,508.4z"/>
					<g>
						<path class="st1" d="M16.3,518.7c2.7,8.7,13.6,14.5,38.1,13.1c18-1,33.1-8.1,58.4-14.7c12.6-3.3,16-5.3,24.6-6.9
							c14.5-2.7,20.1-14.8,19.9-19.3c-0.1-2.7-6.2-3.3-13.2-3.1c-14,0.5-19.3,6.2-22.7,6.7c-13.9,2.1-57.2,4.9-59.2,1.8
							c-1.4-2.2,2.2-7.3,4.9-13.9c1.6-4,2.6-6.4,3.4-10.7c-0.1-0.1-20-24.4-54-15.8c-0.9,0.2-2.6,7.8-3.6,14.5
							C9.2,493.9,13.2,508.6,16.3,518.7z"/>
						<path class="st15" d="M157.4,490.9c0.1,4.5-5.8,13.8-19.6,19c-3.5,1.3-6.6,2.3-9.8,3.1c-4.4-4.3-7.5-11.4-6.4-18.5
							c3.4-0.5,8.6-6.2,22.6-6.7C151.2,487.6,157.3,488.3,157.4,490.9z"/>
						<path class="st2" d="M157.3,490.9c0.1,4.5-5.5,16.6-19.9,19.3c-8.6,1.6-11.9,3.6-24.6,7c-25.2,6.6-40.4,13.7-58.4,14.7
							c-24.5,1.4-35.4-4.4-38.1-13.1c-3.1-10.1-7.1-24.8-3.4-48.4c1.1-6.6,2.8-14.2,3.6-14.5c3.9-1,7.6-1.5,11.1-1.7
							c-2.1,1.2-6.4,13.6-6.1,33.2c0.3,20.6,0.7,32.2,14.6,35.6c14,3.4,37.3-2.8,53.8-7.8c15.6-4.7,58.5-10.8,64.2-26.7
							C156.1,488.9,157.2,489.7,157.3,490.9z"/>
						<path class="st3" d="M14.4,455.7c0.5,0.2,1.2,0.3,2.1,0.2c30.6-2.3,43.9,8.3,53.6,15.6c0.1,0.1,0.2,0.2,0.3,0.2
							c5.2-0.6,6.9-2.7,7-8.6c0.9-1.5,2.6-3.8,5.2-6.9c0.8-3.9,1.6-8.9,3.6-12.3l4.3-36.1c-6.6-9.2-19.2-21-36.8-17.8
							c-20.7,3.8-31.1,16.4-39.5,56.8C13.9,449.3,11.2,454.6,14.4,455.7z"/>
						<path class="st2" d="M14.4,455.7c0.5,0.2,1.2,0.3,2.1,0.2c4-0.3,7.8-0.4,11.2-0.3c0.4-4.8,1-9.6,1.8-14.3
							c2.5-14.5,11.4-49.8,33.7-51.6c-2.9-0.4-6.1-0.3-9.4,0.3c-20.7,3.8-31.1,16.4-39.5,56.8C13.9,449.3,11.2,454.5,14.4,455.7z"/>
						<path class="st10" d="M70.5,471.7c-0.7,3.5-1.7,7.2-3,9.9c-3,6.5-6.7,12.4-5.2,14.6c2,3.1,45.5,0.4,59.1-1.8
							c4.5-0.7,8.2-6.2,22.7-6.7c7.9-0.3,12.5,0.5,13.2,3.1c0.7,2.6-5.1,14.5-19.9,19.3c-7.9,2.6-12.9,3.8-25.1,7.1
							c-26,7.1-39.8,13.5-57.8,14.5c-24.5,1.4-34.9-4.5-38.1-13.1c-3.4-9.3-7.3-27-3.1-50c0.6-3.3,1.7-9.6,3.3-12.8"/>
						<path class="st10" d="M70.2,471.5c5.5-0.5,7.3-2.2,7.4-8.4"/>
						<path class="st10" d="M88.8,448.4c-3.7,6.9-9.9,12.7-11.2,14.7"/>
						<path class="st10" d="M90.7,407.8c-6.6-9.2-19.2-21-36.8-17.8c-20.7,3.8-31.1,16.4-39.5,56.8c-0.6,2.9-4.1,9.6,2.1,9.1
							c19.2-1.3,37.3,1.7,53.7,15.6"/>
						<path class="st10" d="M68.1,456.2c-11.5-7.8-29.8-14-53.7-9.4"/>
						<path class="st10" d="M46.7,447.3c-0.2,1.8-0.6,3.1-1.2,4.8"/>
						<line class="st10" x1="32.8" y1="445.3" x2="32.4" y2="449.5"/>
						<line class="st10" x1="23.4" y1="445.6" x2="22.4" y2="449.7"/>
						<g>
							<line class="st4" x1="26.4" y1="479.3" x2="26.4" y2="485.6"/>
							<line class="st4" x1="32.8" y1="484.2" x2="32.8" y2="490.5"/>
						</g>
					</g>
					<path class="st10" d="M60.7,389.1c-0.5-46.7,15.5-90.3,62.9-113.7c3.6-1.7,8.9-4,12.9-5.4c10.8-3.6,9.5-5.9,6.1-9
						c6,0,8.2,0.4,14.8,5.3c4.3-2.9,5.1-6.4,4-12.9c9.1,0,16.7,4,22.4,14.5c8.3-3.4,18.5-3.5,25.8,2.4c-4.8-0.8-10.9,0-10.9,2.2
						c0,1.9,13.5,0.8,18.4,8.9c-5.5-2.1-12.3,0.3-12.2,0.9c3.6,0.9,5.9,2,8.8,7.1c-3.1-1.4-6.8-1.3-9.6-0.9
						c5.1,3.4,9.1,7.7,12.4,13.3c14.7,24.8,6.9,53.8-4.9,77.4c-1,2.1-2.5,4.5-2.9,6.8c-0.2,1.2,0.5,3.2,0,4.2
						c-0.2,0.4-1.3-1.1-1.3-0.7c-0.3,2.2,0,4.7,0.2,6.8c0.1,0.8,1,3,0.4,2.4c-0.2-0.2-0.7-2-1.5-1.8c-0.5,0.2,0,11.9,0.3,13.1"/>
					<g>
						<path class="st5" d="M217.8,325.9c-2.2-9.1-9.2-16.1-16-20.9c-6.9-4.9-14.5-6.9-23.8-6.5c-3,0.1-4.3-1.4-5.1-3.1
							c-1.4-3,0-6,0-6c-1.5,0.4-3.1,2.1-4.7,3.1c-7,4.2-17.7,5-24.3,5c-22.8,0-37.6,0-48.8,20.3c-2.5,4.6-6.4,15-3.7,26.6
							c3.8,17,5.8,24.1,24.2,36.8c21.9,15.1,67.1,22.6,89.7-5.9C215.8,361.9,221.9,342.9,217.8,325.9z"/>
						<path class="st6" d="M175.8,333.6c7.6-3.8,13.8,15.5,13.2,21c-2.1,19-29.8,18-42.7,11.5c-18.5-9.3,4.1-39.1,17.4-33.8"/>
						<path class="st6" d="M218.7,325.5c3,12.1-1.2,30.5-4.3,32.8c-2.4,1.8-15.9-3.2-25.3-17.5c-6.3-9.5-8.4-23.4-6.1-25.9
							c8.7-9.3,20.9-9.6,23.6-9.1C210.4,306.6,215.9,314.4,218.7,325.5z"/>
						<path class="st6" d="M152,310.3c-3.4,44.7-49.8,59.5-55.1,51.8c-3.4-4.9-10.7-27.9-1.8-43.5c0.9-1.5,4.8-11.3,24.1-17
							C131.9,297.7,143.9,302.2,152,310.3z"/>
						<path class="st7" d="M180.4,333.6c0.1-2.9-5.5-5.5-12.6-5.8c-7.1-0.3-12.9,1.7-13.1,4.6c-0.1,2.9,5.5,5.5,12.6,5.8
							C174.4,338.5,180.3,336.5,180.4,333.6z"/>
						<path class="st23" d="M168.4,337.2c0.3,4.9-0.8,10-2.6,14.6"/>
						<path class="st0" d="M192.5,324.4c0,6.5,6.7,9.1,13.1,9.4c8.6,0.3,10.6-2.7,11.1-7.6c0.6-5.1-1.7-7.5-5.2-8.3
							C206,316.7,192.2,315.8,192.5,324.4z"/>
						<path class="st23" d="M192.5,324.4c0,6.5,6.7,9.4,13.1,9.4c8.6,0,10.6-2.7,11.1-7.6c0.6-5.1-1.8-7.3-5.2-8.3
							C205.6,316.2,192.2,315.8,192.5,324.4z"/>
						<path class="st12" d="M211.4,326.9c0-2.2-1.8-4-4-4c-2.2,0-4,1.8-4,4c0,2.2,1.8,4,4,4C209.6,330.9,211.4,329.1,211.4,326.9z"
							/>
						<path class="st0" d="M108.5,323.1c1.3,10.7,27.8,12.9,28-1.1c0.1-5.6-6.4-7.4-15.8-7.9C111.3,313.6,107.7,315.8,108.5,323.1z"
							/>
						<path class="st23" d="M108.5,323.1c0.8,10.7,27.8,12.9,28-1.1c0.1-5.6-6.4-7.4-15.8-7.9C111.3,313.6,108,315.9,108.5,323.1z"
							/>
						<path class="st12" d="M130.1,324.4c-0.2-2.3-2.3-4-4.6-3.8c-2.3,0.2-4,2.3-3.8,4.6c0.2,2.3,2.3,4,4.6,3.8
							C128.7,328.9,130.4,326.8,130.1,324.4z"/>
						<g>
							<path class="st9" d="M152,310.8c-18.1-15.1-40.5-11.3-60.5,8.3"/>
							<path class="st9" d="M182.9,314.9c16.4-14.6,32.1-12.5,47.2,9"/>
						</g>
						<g>
							<path class="st9" d="M183.1,324c-7-6.5-22.3-7.9-31.1-3"/>
							<g>
								<path class="st24" d="M183.1,324c0,14.9,12.1,27.1,27,27.1c0.2,0,0.5,0,0.7,0c2.2,0,4.2-0.3,6.2-0.9
									c1.1-0.3,2.1-0.6,3.2-1.1c4.2-1.7,7.9-4.4,10.7-7.9c3.9-4.7,6.2-10.7,6.2-17.2c0-14.2-11-25.9-24.9-27
									c-0.7-0.1-1.4-0.1-2.1-0.1c-3.9,0-7.6,0.8-11,2.3c-1,0.5-2,1-3,1.5c-1.8,1.1-3.5,2.4-5,3.9
									C186.2,309.6,183.1,316.4,183.1,324z"/>
								
									<linearGradient id="SVGID_1_" gradientUnits="userSpaceOnUse" x1="4675.7583" y1="319.0504" x2="4687.2573" y2="323.9016" gradientTransform="matrix(-1 0 0 1 4897.6479 0)">
									<stop  offset="0" style="stop-color:#FFFFFF;stop-opacity:0.2"/>
									<stop  offset="1" style="stop-color:#FFFFFF;stop-opacity:0"/>
								</linearGradient>
								<path class="st25" d="M199.2,299.3l21.1,49.8c4.2-1.7,7.9-4.4,10.7-7.9L212.3,297c-0.7-0.1-1.4-0.1-2.1-0.1
									C206.3,296.9,202.6,297.8,199.2,299.3z"/>
								
									<linearGradient id="SVGID_00000136386883438830006490000015507027199352572048_" gradientUnits="userSpaceOnUse" x1="4690.98" y1="325.4793" x2="4696.2803" y2="327.7253" gradientTransform="matrix(-1 0 0 1 4897.6479 0)">
									<stop  offset="5.586592e-03" style="stop-color:#FFFFFF;stop-opacity:0"/>
									<stop  offset="1" style="stop-color:#FFFFFF;stop-opacity:0.2"/>
								</linearGradient>
								<path style="fill:url(#SVGID_00000136386883438830006490000015507027199352572048_);" d="M191.3,304.7l19.6,46.4
									c2.2,0,4.2-0.3,6.2-0.9l-20.9-49.3C194.4,301.9,192.8,303.2,191.3,304.7z"/>
							</g>
							<g>
								<path class="st24" d="M97.9,321c0,14.9,12.1,27.1,27.1,27.1c1.1,0,2.2-0.1,3.3-0.2c2.1-0.2,4.1-0.7,6-1.4
									c1-0.4,2.1-0.8,3-1.3c4.1-2.1,7.7-5.2,10.2-9.1c2.9-4.3,4.5-9.5,4.5-15c0-13.3-9.6-24.3-22.2-26.6c-1.6-0.3-3.2-0.5-4.9-0.5
									c-3.1,0-6,0.5-8.7,1.5c-1.1,0.3-2.1,0.8-3.1,1.3c-1.9,0.9-3.6,2-5.2,3.3C101.9,304.9,97.9,312.5,97.9,321z"/>
								<g>
									
										<linearGradient id="SVGID_00000093139673176035472370000015026105570133651586_" gradientUnits="userSpaceOnUse" x1="4758.7344" y1="315.0902" x2="4770.2339" y2="319.9416" gradientTransform="matrix(-1 0 0 1 4897.6479 0)">
										<stop  offset="0" style="stop-color:#FFFFFF;stop-opacity:0.2"/>
										<stop  offset="1" style="stop-color:#FFFFFF;stop-opacity:0"/>
									</linearGradient>
									<path style="fill:url(#SVGID_00000093139673176035472370000015026105570133651586_);" d="M116.3,295.4l21,49.7
										c4.1-2.1,7.7-5.2,10.2-9.1l-17.6-41.6c-1.6-0.3-3.2-0.5-4.9-0.5C121.9,293.9,119,294.4,116.3,295.4z"/>
									
										<linearGradient id="SVGID_00000083803606329638402290000000213031901475672751_" gradientUnits="userSpaceOnUse" x1="4773.9634" y1="321.5167" x2="4779.2466" y2="323.7555" gradientTransform="matrix(-1 0 0 1 4897.6479 0)">
										<stop  offset="0" style="stop-color:#FFFFFF;stop-opacity:0"/>
										<stop  offset="1" style="stop-color:#FFFFFF;stop-opacity:0.2"/>
									</linearGradient>
									<path style="fill:url(#SVGID_00000083803606329638402290000000213031901475672751_);" d="M108,299.9l20.3,47.9
										c2.1-0.2,4.1-0.7,6-1.4l-21.1-49.8C111.3,297.5,109.6,298.6,108,299.9z"/>
								</g>
							</g>
							<circle class="st9" cx="210.2" cy="324" r="27.1"/>
							<circle class="st9" cx="125" cy="321" r="27.1"/>
						</g>
						<g>
							<g>
								<path class="st7" d="M175.7,352.6c-2.4,7.4-6.1,12.3-11.8,11.4c-6-1-9.8-5.3-8.9-14.6C161,353.1,170.1,354,175.7,352.6z"/>
								<path class="st0" d="M158.7,355.8c2.1,1.6,10.8,3.2,15.5,0.9c0.7-1.5,1.1-2.6,1.6-4.1c-4.9,1.2-12.5,0.7-18.4-2
									C157.1,352.7,156.9,354.5,158.7,355.8z"/>
								<path class="st29" d="M171,361.4c-1.9-0.8-4.7-0.9-5.8-0.3c-1.6-1.4-6.1-2.4-9-2.5C157.7,362.4,165.4,367.2,171,361.4z"/>
							</g>
							<path class="st30" d="M175.7,352.6c-2.4,7.4-6.1,12.3-11.8,11.4c-6-1-9.8-5.3-8.9-14.6C161,353.1,170.1,354,175.7,352.6z"/>
						</g>
					</g>
					<path class="st2" d="M60.4,389.3c0.1,0,0.2,0,0.4,0h0.1c0.3,0,0.5,0,0.8,0.1c0.2,0,0.3,0,0.5,0c0.3,0,0.6,0.1,0.9,0.1
						c0.6,0.1,1.1,0.1,1.7,0.2c0.4,0.1,0.8,0.1,1.3,0.3c6.6,1.4,12.2,4.9,16.7,8.9c-5.9-28.3-5-54.3,8.6-78.4
						c14.7-26,40.6-35,63.5-36.7c5.4-0.4,11.5-2.7,11.5-8.2c9.8,2.3,9.8,7.5,20,10.4c12.1,3.4,21.3,8.4,29.3,14.6
						c-0.8-1.3-1.7-2.6-2.6-3.8c-1-1.2-2-2.3-3-3.4c-1.8-1.9-3.9-3.5-6.1-5c2.8-0.3,6.5-0.5,9.6,0.9c-0.6-1.1-1.2-2-1.8-2.8
						c-0.2-0.2-0.3-0.4-0.5-0.6c-0.8-0.9-1.5-1.5-2.3-2c-0.3-0.2-0.7-0.4-1.1-0.6c-0.9-0.4-1.9-0.7-3.1-1c0,0,0-0.1,0-0.1
						c0-0.1,0.1-0.1,0.1-0.1c1.1-0.8,7.1-2.6,12.1-0.7c-0.2-0.3-0.3-0.5-0.5-0.7c-0.3-0.5-0.7-0.9-1.1-1.3c-2.6-2.6-6.2-3.9-9.5-4.7
						c-0.7-0.2-1.5-0.3-2.2-0.5c-0.2,0-0.5-0.1-0.7-0.1c-0.7-0.1-1.3-0.2-1.8-0.3c-0.2,0-0.4-0.1-0.5-0.1c-0.3-0.1-0.6-0.1-0.9-0.2
						c-0.8-0.2-1.3-0.5-1.3-0.8c0-1,1.3-1.8,3.2-2.2c1.9-0.4,4.4-0.5,6.7-0.2c0.3,0,0.6,0.1,0.9,0.1c-0.5-0.4-1-0.8-1.6-1.2
						c-1.1-0.7-2.2-1.3-3.4-1.8c-0.6-0.2-1.2-0.5-1.8-0.7c-1.5-0.5-3.1-0.8-4.7-1c-0.6-0.1-1.3-0.1-1.9-0.1
						c-4.3-0.2-8.6,0.7-12.5,2.3c-0.2-0.4-0.4-0.7-0.6-1.1c-0.3-0.6-0.7-1.1-1-1.7c-5.5-8.4-12.5-11.7-20.8-11.7
						c0.9,5.1,0.5,8.4-1.8,10.9c-0.1,0.1-0.1,0.2-0.2,0.2c-0.5,0.6-1.2,1.2-2,1.7c-6.6-4.9-8.8-5.3-14.8-5.3c3.9,3,4.5,5.1-3.9,8.2
						c-0.3,0.1-0.6,0.2-1,0.4c-0.4,0.1-0.8,0.3-1.3,0.4c-0.7,0.3-1.6,0.5-2.4,0.8c-0.5,0.2-1.1,0.4-1.7,0.6
						c-3.1,1.2-6.3,2.7-8.8,3.9c-2.2,1.1-4.4,2.2-6.4,3.4C74.7,302.7,60.7,344.9,60.4,389.3z"/>
				</g>
				<g>
					<path class="st1" d="M295.6,522.3c-6.7-13.2-15.4-18.6-27.2-18.6c-14.8,0-23,14.2-26.6,24.3c4.6,0,20.9,0,24.7,0
						c5.6,0,12.7,5.9,18.1,11.4c9.3,9.6,10.6,13.6,12.6,13.4C300.7,552.3,302.4,535.7,295.6,522.3z"/>
					<path class="st15" d="M295.6,522.3c-2.7-5.3-5.6-9.2-8.8-11.9c-8.6,3.1-13.5,11.1-14.5,19.1c4.1,2,8.7,6.2,12.2,9.9
						c9.2,9.5,10.6,13.6,12.6,13.4C300.6,552.2,302.4,535.7,295.6,522.3z"/>
					<path class="st2" d="M300.3,541.7c0.1,6.2-1.3,10.8-3.1,11c-2,0.2-3.3-3.7-12.6-13.4c-5.3-5.5-12.4-11.5-18.1-11.5h-24.7
						c2.1-5.8,5.8-13.1,11.4-18.1c-0.8,4,1,6.7,8.1,7.6c10.3,1.3,22.6,6.7,31.4,19.1C295.9,541.1,298.4,542.4,300.3,541.7z"/>
					<path class="st10" d="M266.5,527.9c5.6,0,12.7,5.9,18.1,11.4c9.2,9.5,10.6,13.7,12.6,13.4c3.2-0.5,5.3-17-1.5-30.4
						c-2.6-5.1-5.5-9.1-8.7-12.1c-5.1-4.7-12.2-7-18.5-6.6c-11.9,0.9-18.2,6.7-25,20.3"/>
					<path class="st10" d="M286.8,510.4c-6.1,2.1-13.2,8.6-14.5,19.1"/>
					<path class="st10" d="M277.6,517c11,10.4,16.9,19.3,20,35.6"/>
				</g>
				<path class="st10" d="M238.1,456.5c4.6,10.3,10.1,36.8,12.1,56.6"/>
				<path class="st10" d="M121.4,494.5c-1.1,7.2-0.2,12.9,6.5,18.5"/>
				<path class="st10" d="M155.3,496c-16.6-3.4-23.1,4.2-33.2,8"/>
			</g>
			<g>
				<polygon class="st0" points="197.3,584.5 117.2,584.5 80,538.1 160,538.1 				"/>
				<g>
					<line class="st31" x1="124.6" y1="577.3" x2="179.7" y2="576"/>
					<line class="st31" x1="118.2" y1="571.2" x2="149.2" y2="570.5"/>
					<line class="st31" x1="118.9" y1="562.2" x2="139.6" y2="562"/>
					<line class="st31" x1="107.1" y1="555.3" x2="129.9" y2="555.3"/>
					<line class="st31" x1="102.9" y1="546" x2="117" y2="546"/>
				</g>
				<polygon class="st0" points="234.7,577.9 154.7,577.9 96.3,533.9 176.4,533.9 				"/>
				<polyline class="st10" points="165.5,533.9 176.4,533.9 234.7,577.9 154.7,577.9 96.3,533.9 145.2,533.9 				"/>
				<polyline class="st10" points="105.7,570.2 80,538.1 93.9,538.1 				"/>
				<polyline class="st10" points="196.1,582.9 197.3,584.5 117.2,584.5 113.2,579.4 				"/>
				<g>
					<line class="st31" x1="212.8" y1="570.5" x2="158.2" y2="569.9"/>
					<path class="st31" d="M192,562c0,0-34.2,0.2-33.7,0"/>
					<line class="st31" x1="175.1" y1="555.3" x2="175.8" y2="550.1"/>
					<line class="st31" x1="162.3" y1="555.9" x2="146" y2="548.9"/>
					<line class="st31" x1="170" y1="544.2" x2="178.5" y2="544.2"/>
					<line class="st31" x1="164.1" y1="539.4" x2="175" y2="539.4"/>
					<line class="st31" x1="143.4" y1="544.2" x2="140.5" y2="544.2"/>
				</g>
			</g>
			<g>
				<path class="st21" d="M497.6,452.6c7.6,0,13.7,5.9,13.7,13.2l-5.7,134.3c0,7.3-6.1,13.2-13.7,13.2l-155.2,5.7l-28.5,1
					c-3.4,0-6.5-1.2-8.8-3.1c-3-2.4-4.8-6-4.8-10l6.5-140c0-7.3,6.1-13.1,13.7-13.1c0,0,61.2-0.3,106.9-0.6
					C467.3,452.8,497.6,452.6,497.6,452.6z"/>
				<path class="st2" d="M511.3,465.8l-5.7,134.3c0,7.3-6.1,13.2-13.7,13.2l-155.2,5.7l-28.5,1c-3.4,0-6.5-1.1-8.8-3.1
					c-5.8-5.1-5.2-9.4-4.4-19.3c1.7,11,16.4,11.5,16.4,11.5l172.4-6c7.6,0,13.7-5.9,13.7-13.2c0,0,3.4-78.2,4.5-107.7
					c0.8-20.4,1.1-26.9-10-29.5c4.1,0,9.9,0.1,13.3,2.3C510.1,458,511.3,462.9,511.3,465.8z"/>
				<path class="st32" d="M320.5,461.3c-7.6,0-13.7,5.9-13.7,13.1c0,0-2.8,87.1-12.2,132.4l6.5-140c0-7.2,6.1-13.1,13.7-13.1
					c0,0,61.2-0.3,106.9-0.6c45.7-0.2,76-0.4,76-0.4C425.7,460.1,320.5,461.3,320.5,461.3z"/>
				<path class="st22" d="M497.6,452.6c7.6,0,13.7,5.9,13.7,13.2l-5.7,134.3c0,7.3-6.1,13.2-13.7,13.2l-155.2,5.7l-28.5,1
					c-3.4,0-6.5-1.2-8.8-3.1c-3-2.4-4.8-6-4.8-10l6.5-140c0-7.3,6.1-13.1,13.7-13.1c0,0,61.2-0.3,106.9-0.6
					C467.3,452.8,497.6,452.6,497.6,452.6z"/>
				<path class="st2" d="M399.9,482.7c23.5-9.1,46.4,13.4,39.1,37.2c-5.8,18.5-27.7,27.2-44.3,17.1c-4.9-3-8.9-7.3-11.2-12.4
					c2.9,4.8,7.1,8.7,12,11.1c21.3,10.9,45.8-6.9,41.6-30.5C433.9,488.3,416.3,477.9,399.9,482.7L399.9,482.7z"/>
				<g>
					<g>
						<path d="M389.9,497.8c4.8,0.1,9.6,0.2,14.3,0.4c3.9,0.2,5.3,3,5.4,5.8c0.2,3.8-1.5,6.4-4.7,7.8c-0.2,0.1-0.4,0.1-0.7,0.2
							c3.8,2.4,4.3,7.1,6.5,11c-2.8,0-5.2,0-7.8,0c-1.2-2.6-2.4-5.2-3.5-7.8c-0.6-1.4-1.5-2.5-3.4-2.1c-0.1,3.3-0.2,6.6-0.2,10
							c-2.3,0-4.4,0-6.7,0C389.1,514.7,389.7,506.4,389.9,497.8z M396.5,503.1c-0.1,1.7-0.1,3.3-0.2,5.2c1.5-0.1,2.9-0.1,4.4-0.3
							c1.3-0.2,2-1.1,2-2.4c0.1-1.3-0.6-2.3-1.9-2.5C399.4,502.9,398,503.1,396.5,503.1z"/>
						<path d="M430.5,505c-2.2,0.2-4.2,0.3-6.3,0.5c-0.2-2.1-1.3-3.2-3.2-3.3c-1.2,0-2.2,0.4-2.7,1.8c0,1.2,0.7,1.6,1.6,1.9
							c1.6,0.5,3.2,0.9,4.7,1.4c0.9,0.3,1.7,0.7,2.5,1.1c5.1,2.7,4.2,9.9,0.4,13c-1.3,1-2.8,1.7-4.4,2c-2.5,0.5-5,0.4-7.4-0.3
							c-3.2-1-5.2-4.1-5.1-8.2c2.1-0.1,4.1-0.3,6.3-0.4c0.1,0.5,0.2,1,0.3,1.4c0.7,2.4,2.9,3.5,5,2.6c0.9-0.4,1.6-1.2,1.7-2.3
							c0.1-1.1-0.4-1.9-1.3-2.3c-0.7-0.4-1.5-0.6-2.2-0.8c-1.5-0.6-3.1-1-4.6-1.7c-2.9-1.4-4.2-3.8-4-6.6c0.3-3.2,2.2-5.7,5.3-6.6
							c2.9-0.9,5.9-0.9,8.8,0.1C429,499.2,430.4,501.2,430.5,505z"/>
					</g>
				</g>
			</g>
			<path class="st10" d="M259.5,626.6H118.9c-42.7,0-77.4-34.6-77.4-77.4v-11.1"/>
			<path class="st10" d="M638.5,540.3v9c0,42.7-34.6,77.4-77.4,77.4H342.8"/>
			<line class="st10" x1="509.2" y1="527.9" x2="600.7" y2="527.9"/>
			<line class="st10" x1="167.1" y1="527.9" x2="266.5" y2="527.9"/>
			<line class="st10" x1="76.3" y1="527.9" x2="149.2" y2="527.9"/>
			<g>
				<g>
					<path class="st3" d="M587.7,543c0,2.2-0.2,4.4-0.6,6.7c-0.6,3.5-1.7,7-3.3,10.1c-0.2,0.4-0.5,0.9-0.7,1.3
						c-1.8,3-4.2,5.7-7.2,7.7c-4.9,3.2-26.7,3.4-31.4,0c-3.6-2.6-6-5.7-7.7-8.9c-3.1-5.9-3.5-12.3-3.5-16.8
						C533.3,549.3,587.7,549.3,587.7,543z"/>
					<path class="st3" d="M587.7,543c0,6.3-54.4,6.3-54.4,0C533.3,534.7,587.7,533.5,587.7,543z"/>
					<path class="st3" d="M597.4,568.8c0,6.5-16.7,11.7-37.3,11.7c-20.6,0-37.3-5.2-37.3-11.7c0-3.7,5.6-6.9,14-9.1
						c1.7,3.2,4.1,6.3,7.7,8.9c4.7,3.4,26.5,3.2,31.4,0c3-2,5.4-4.6,7.2-7.7c0.3-0.5,0.6-1,0.7-1.3c0.2,0.1,0.6,0.2,0.9,0.3
						C592.4,562.1,597.4,565.3,597.4,568.8z"/>
					<path class="st33" d="M586.3,544.5c-7.3,4.2-43.8,4.2-51.6,0.1C542.5,539.1,579,538.4,586.3,544.5z"/>
					<g>
						<path class="st2" d="M587.7,543c0,2.2-0.2,4.4-0.6,6.7c-0.6,3.5-1.7,7-3.3,10.1c-0.2,0.4-0.5,0.9-0.7,1.3
							c-1.8,3-4.2,5.7-7.2,7.7c-4.9,3.2-26.7,3.4-31.4,0c-0.6-0.4-1.1-0.8-1.6-1.3c7.9,1.8,23.7,1.2,27.7-1.4c3-1.9,5.4-4.6,7.2-7.6
							c0.2-0.4,0.5-0.8,0.7-1.3c1.7-3.1,2.7-6.6,3.3-10.1l0.1-0.9C585.5,545.2,587.7,544.2,587.7,543z"/>
						<path class="st2" d="M597.4,568.8c0,6.5-16.7,11.7-37.3,11.7c-19.1,0-34.8-4.5-37.1-10.3c6.9,5.5,23.4,7,35.1,7
							c20.6,0,37.4-4.7,30.8-15.9C594.2,563.4,597.4,566,597.4,568.8z"/>
						<path class="st2" d="M587.7,543c0,0.8-0.8,1.5-2.3,2.1c-4.1-7.1-22.8-6.3-46-6.3C553.6,534.7,587.7,535.4,587.7,543z"/>
					</g>
					<path class="st10" d="M575.9,568.7c-4.9,3.2-26.7,3.4-31.4,0c-10.2-7.4-11.2-18.7-11.2-25.7c0-8.2,54.4-9.5,54.4,0
						C587.7,552.5,584.2,563.3,575.9,568.7z"/>
					<path class="st10" d="M533.3,543c0,6.3,54.4,6.3,54.4,0"/>
					<path class="st10" d="M587.1,549.6c2.1-4.3,11.2-3.2,10.3,0.9c-0.5,2.5-4.3,12.1-14.3,10.5"/>
					<path class="st10" d="M583.8,559.8c8.3,2.1,13.7,5.4,13.7,9.1c0,6.5-16.7,11.7-37.3,11.7c-20.6,0-37.3-5.2-37.3-11.7
						c0-3.7,5.5-7,14-9.1"/>
					<g>
						<path d="M549.4,552.4c2.6,0.3,5.1,0.5,7.6,0.7c2.1,0.2,2.8,1.5,3,2.8c0.2,1.8-0.6,3-2.3,3.6c-0.1,0-0.2,0.1-0.4,0.1
							c2.1,1.1,2.5,3.4,3.7,5.2c-1.5,0-2.8,0-4.2-0.1c-0.7-1.2-1.3-2.5-2-3.7c-0.4-0.7-0.8-1.2-1.8-1.1c0,1.5,0,3.1,0,4.7
							c-1.3-0.1-2.4-0.2-3.6-0.3C549.4,560.4,549.4,556.5,549.4,552.4z M553,555.2c0,0.8,0,1.5,0,2.4c0.8,0,1.6,0,2.3,0
							c0.7-0.1,1-0.5,1-1.1c0-0.6-0.4-1.1-1.1-1.2C554.5,555.2,553.8,555.2,553,555.2z"/>
						<path d="M571.1,555.8c-1.2,0.2-2.2,0.3-3.4,0.5c-0.2-1-0.8-1.5-1.8-1.4c-0.6,0-1.2,0.2-1.4,0.9c0,0.6,0.4,0.8,0.9,0.9
							c0.9,0.2,1.7,0.3,2.6,0.5c0.5,0.1,0.9,0.2,1.4,0.4c2.8,1,2.6,4.4,0.6,6c-0.7,0.5-1.5,0.9-2.3,1.1c-1.3,0.3-2.7,0.3-4,0
							c-1.7-0.4-2.8-1.9-2.9-3.8c1.1-0.1,2.2-0.1,3.3-0.2c0.1,0.2,0.1,0.4,0.2,0.6c0.4,1.1,1.6,1.6,2.7,1.1c0.5-0.2,0.8-0.6,0.9-1.1
							c0-0.5-0.3-0.8-0.7-1c-0.4-0.1-0.8-0.2-1.2-0.3c-0.8-0.2-1.7-0.4-2.5-0.7c-1.6-0.6-2.4-1.7-2.3-3.1c0.1-1.5,1.1-2.7,2.7-3.2
							c1.5-0.5,3.1-0.5,4.6-0.2C570.2,553.2,570.9,554.1,571.1,555.8z"/>
					</g>
				</g>
				<g>
					<path class="st34" d="M557.3,506.5c-14.5,21.1,9.6,19.9,1.6,33.7C577.8,525.5,554.2,521.6,557.3,506.5z"/>
					<path class="st34" d="M564.1,513.5c-4.6,11,9.3,8.1,2.5,22.1C582.3,522.4,565.3,522.8,564.1,513.5z"/>
				</g>
			</g>
		</g>
		<g>
			<g>
				<path class="st0" d="M470.5,130.8c0,21.5-17.4,38.9-38.9,38.9l-157.9,0.1c-24.1,0-43.5-19.4-43.5-43.5c0-24,19.4-43.5,43.5-43.5
					c2.3,0,4.5,0.2,6.7,0.5c-1.4-4.8-2.2-10-2.2-15.3c0-30.9,24.9-55.9,55.8-55.9c24.2,0,44.7,15.3,52.5,36.8
					c0.6-0.1,1.1-0.1,1.7-0.1c18.7,0,33.8,15.1,33.8,33.8c0,3.8-0.6,7.4-1.8,10.8c3.6-1.1,7.4-1.7,11.4-1.7
					C453.1,91.8,470.5,109.3,470.5,130.8z"/>
				<g>
					<path class="st12" d="M321.7,111.7c-0.9-1.1-2-3.4-2-5.4c0-4.3,0-17.1,0-17.1c0-2.3-0.3-4.3-0.8-6.1c-0.5-1.7-1.4-3.2-2.5-4.3
						c-1.2-1.2-2.7-2-4.5-2.6c-1.9-0.6-4.1-0.9-6.8-0.9c-1.4,0-2.8,0.1-4.2,0.4c-1.4,0.3-2.7,0.6-3.9,1c-1.2,0.4-2.2,0.8-3.1,1.3
						c-0.9,0.5-1.5,0.9-1.9,1.3c-0.4,0.4-0.6,0.9-0.7,1.3c-0.1,0.4-0.1,0.9-0.1,1.6c0,0.4,0,0.8,0.1,1.1c0.1,0.3,0.1,0.6,0.3,0.8
						c0.1,0.2,0.3,0.4,0.4,0.5c0.2,0.1,0.4,0.2,0.6,0.2c0.3,0,0.8-0.2,1.5-0.6c0.7-0.4,1.5-0.8,2.5-1.3c1-0.5,2.2-0.9,3.5-1.3
						c1.3-0.4,2.8-0.6,4.5-0.6c1.6,0,2.9,0.2,4,0.6c1.1,0.4,1.9,0.9,2.6,1.7c0.7,0.7,1.2,1.6,1.5,2.7c0.3,1.1,0.5,2.4,0.5,3.8
						c0,0,0,2.6,0,3.8c-1.7-0.4-5.4-0.8-10-0.8c-10.2,0-14.7,5.2-14.7,12.6c0,7.8,6.1,11.3,11.6,11.3c8.1,0,11.1-3.5,14.1-6.7
						c0.8,2.6,1.6,4.1,2.9,5.6c0.2,0.2,0.4,0.4,0.7,0.4c0.2,0,0.6-0.1,0.9-0.3c0.6-0.3,1.2-0.6,1.8-1.1c0.6-0.5,1-0.9,1.2-1.2
						c0.2-0.3,0.4-0.6,0.5-0.9C322,112.2,321.9,112,321.7,111.7z M312.9,104.5c-2,4.1-6.2,6.3-11.1,6.3c-4.8,0-6.5-3-6.5-5.9
						c0-4.7,3.1-7.5,8.4-7.5c4,0,7.3,0.4,9.1,0.9C312.9,100,312.9,104.5,312.9,104.5z M377.9,77.5c0,0.2,0,0.4-0.1,0.7
						c-0.1,0.3-0.2,0.6-0.3,1L367,114.4c-0.1,0.3-0.2,0.5-0.4,0.7c-0.2,0.2-0.4,0.3-0.7,0.5c-0.3,0.1-0.7,0.2-1.3,0.2
						c-0.5,0-1.6,0.1-2.4,0.1c-0.9,0-1.6,0-2.1-0.1c-0.6-0.1-1-0.1-1.4-0.2c-0.3-0.1-0.6-0.3-0.8-0.5c-0.2-0.2-0.3-0.4-0.4-0.7
						l-6.8-26.9l-0.1-0.4l-0.1,0.4l-6,26.9c-0.1,0.3-0.2,0.5-0.4,0.7c-0.2,0.2-0.4,0.3-0.8,0.5c-0.4,0.1-0.8,0.2-1.4,0.2
						c-0.6,0-1.3,0.1-2.1,0.1c-0.9,0-1.9,0-2.4-0.1c-0.5-0.1-1-0.1-1.3-0.2s-0.6-0.3-0.8-0.5c-0.2-0.2-0.3-0.4-0.4-0.7l-10.5-35.2
						c-0.1-0.4-0.2-0.8-0.3-1c-0.1-0.3-0.1-0.5-0.1-0.7c0-0.2,0.1-0.4,0.2-0.6c0.1-0.2,0.3-0.3,0.6-0.4c0.3-0.1,0.6-0.2,1-0.2
						c0.4,0,1,0,1.6,0c0.8,0,1.4,0,1.9,0.1c0.5,0,0.8,0.1,1.1,0.2c0.2,0.1,0.4,0.2,0.5,0.4c0.1,0.2,0.2,0.4,0.3,0.6l8.6,30l0.1,0.4
						l0.1-0.4l6.7-30c0.1-0.2,0.1-0.5,0.3-0.6c0.1-0.2,0.3-0.3,0.6-0.4c0.2-0.1,0.6-0.2,1-0.2c0.4,0,1.7-0.1,2.4-0.1
						c0.7,0,1.9,0,2.3,0.1c0.4,0,0.8,0.1,1,0.2c0.2,0.1,0.4,0.2,0.5,0.4c0.1,0.2,0.2,0.4,0.2,0.6l7.5,29.7l0.1,0.4l0-0.4l8.5-29.6
						c0.1-0.2,0.1-0.5,0.3-0.6c0.1-0.2,0.3-0.3,0.6-0.4c0.3-0.1,0.6-0.2,1.1-0.2c0.5,0,1-0.1,1.8-0.1c0.7,0,1.2,0,1.6,0
						c0.4,0,0.7,0.1,0.9,0.2c0.2,0.1,0.4,0.2,0.5,0.4C377.8,77.1,377.9,77.2,377.9,77.5z M394.2,116.9c-1.3,0-3.7-0.1-4.9-0.4
						c-1.2-0.2-2.3-0.5-3.3-0.8c-1-0.3-1.8-0.7-2.5-1c-0.7-0.4-1.2-0.7-1.5-1c-0.4-0.3-0.6-0.8-0.8-1.3c-0.1-0.5-0.2-1.2-0.2-2.1
						c0-0.6,0-1,0.1-1.4c0.1-0.4,0.1-0.7,0.2-0.9c0.1-0.3,0.3-0.5,0.5-0.7c0.2-0.1,0.5-0.2,0.7-0.2c0.4,0,0.9,0.2,1.5,0.6
						c0.6,0.4,1.3,0.8,2.2,1.2c0.8,0.4,1.9,0.8,3,1.2c1.1,0.3,3.5,0.6,5.1,0.6c1.4,0,3.2-0.2,4.1-0.4c0.9-0.2,1.7-0.6,2.3-1
						c0.6-0.4,1.1-1,1.5-1.7c0.3-0.7,0.5-1.5,0.5-2.5c0-1-0.2-1.8-0.7-2.4c-0.5-0.7-1.2-1.3-2-1.8c-0.8-0.5-2.8-1.4-5-1.9
						c-1.4-0.4-2.5-0.7-3.6-1.2c-1.2-0.5-2.3-1-3.5-1.6c-1.1-0.6-2.2-1.4-3.1-2.2c-0.9-0.9-1.6-1.9-2.2-3.2
						c-0.6-1.2-0.8-2.7-0.8-4.4c0-1.5,0.3-2.9,0.9-4.3c0.6-1.4,1.5-2.6,2.6-3.6c1.2-1,2.6-1.9,4.3-2.5c1.9-0.7,4.3-1.1,6.4-1.1
						c2,0,3.9,0.3,4.8,0.4c1,0.2,1.9,0.4,2.7,0.6c0.8,0.3,1.5,0.5,2.1,0.8c0.6,0.3,1,0.6,1.3,0.8c0.3,0.2,0.5,0.5,0.7,0.7
						c0.1,0.2,0.2,0.4,0.2,0.7c0,0.2,0.1,0.5,0.1,0.8c0,0.3,0.1,0.7,0.1,1.2c0,0.5,0,0.9-0.1,1.3c0,0.4-0.1,0.7-0.2,0.9
						c-0.1,0.3-0.3,0.5-0.5,0.6c-0.2,0.1-0.4,0.2-0.7,0.2c-0.3,0-0.7-0.2-1.3-0.5c-0.5-0.3-1-0.6-1.8-0.9c-0.7-0.3-1.6-0.7-2.6-0.9
						c-1-0.3-2.9-0.5-4.5-0.5c-1.2,0-3.1,0.2-3.9,0.5c-0.8,0.2-1.5,0.6-2,1c-0.5,0.4-0.9,1-1.2,1.6c-0.3,0.6-0.4,1.3-0.4,2
						c0,1,0.3,1.8,0.8,2.5c0.5,0.7,1.2,1.3,2,1.8c0.9,0.5,1.8,1,2.9,1.4c1.1,0.4,4,1.3,5.6,1.8c1.3,0.4,2.5,0.9,3.6,1.4
						c1.2,0.6,2.2,1.3,3.1,2.2c0.9,0.9,1.7,1.9,2.2,3.1c0.6,1.2,0.8,2.6,0.8,4.3c0,1.9-0.4,3.7-1.1,5.2c-0.7,1.5-1.8,2.8-3.1,3.9
						c-1.3,1-2.9,1.8-4.7,2.4C399.4,116.6,396.2,116.9,394.2,116.9z"/>
					<path class="st35" d="M283,128c-0.7,0.7,24.1,26.5,66.5,26.5c32.7,0,55.5-16.2,53.8-18.6c-1.6-2.3-19.6,10.2-53.8,10.2
						C308.6,146,284.2,126.8,283,128z"/>
					<path class="st35" d="M414.8,126.9c-1-1.1-5.3-1.9-12-1.3c-7.1,0.7-12.1,4-11.7,4.7c0.4,0.7,5.4-0.4,10-0.5
						c3.9-0.1,7.6,0.2,8.3,1c0.8,1,0.7,3.6-0.4,8.4c-1.4,5.9-3.7,9.4-3.1,9.8c0.6,0.4,4.7-3.2,7.4-9.9
						C415.5,133.4,415.7,127.9,414.8,126.9z"/>
				</g>
				<g>
					<path class="st2" d="M278.1,68.1c0-19.6,15.1-56.6,57.7-55.8c-62.8,13.3-33.4,71.1-54.4,71.1c-1.7-2.5-2.4-5.2-2.8-8.5
						C278.2,72.7,278.1,70.4,278.1,68.1z"/>
					<path class="st2" d="M469.4,139.9c-6.5,23-26.1,29.8-37.9,29.8l-157.9,0.1c-24,0-43.5-19.4-43.5-43.5
						c0-15.8,8.4-29.6,20.9-37.2c-6.9,7.7-11,17.8-11,28.9c0,24,19.5,43.5,43.5,43.5c0,0,110.5,0.2,147.3-0.1
						C448,161.3,460.8,155.4,469.4,139.9z"/>
				</g>
				<path class="st36" d="M470.5,130.8c0,21.5-17.4,38.9-38.9,38.9l-157.9,0.1c-24.1,0-43.5-19.4-43.5-43.5
					c0-24,19.4-43.5,43.5-43.5c2.3,0,4.5,0.2,6.7,0.5c-1.4-4.8-2.2-10-2.2-15.3c0-30.9,24.9-55.9,55.8-55.9
					c24.2,0,44.7,15.3,52.5,36.8c0.6-0.1,1.1-0.1,1.7-0.1c18.7,0,33.8,15.1,33.8,33.8c0,3.8-0.6,7.4-1.8,10.8
					c3.6-1.1,7.4-1.7,11.4-1.7C453.1,91.8,470.5,109.3,470.5,130.8z"/>
			</g>
			<line class="st10" x1="224.3" y1="185.5" x2="245.8" y2="159.8"/>
			<line class="st10" x1="178.2" y1="130.2" x2="230.3" y2="130.2"/>
			<line class="st10" x1="220.7" y1="68.4" x2="246.7" y2="92.1"/>
			<line class="st10" x1="421.8" y1="224.9" x2="406.3" y2="169.7"/>
			<line class="st10" x1="458.2" y1="159" x2="488.8" y2="191.1"/>
			<line class="st10" x1="461.6" y1="69.8" x2="440.6" y2="92.9"/>
			<line class="st10" x1="511" y1="125.7" x2="470.5" y2="129.5"/>
			<g>
				<circle class="st0" cx="484.6" cy="46.4" r="32.8"/>
				<g>
					<line class="st37" x1="498.6" y1="30.3" x2="498.6" y2="62.5"/>
					<line class="st37" x1="470.5" y1="62.5" x2="470.5" y2="30.3"/>
					<path class="st37" d="M470.5,30.3c0-2.6,6.3-4.7,14-4.7s14,2.1,14,4.7"/>
					<g>
						<path class="st37" d="M498.6,62.5c0,2.6-6.3,4.7-14,4.7s-14-2.1-14-4.7"/>
						<path class="st37" d="M498.6,51.8c0,2.6-6.3,4.7-14,4.7s-14-2.1-14-4.7"/>
						<path class="st37" d="M498.6,41c0,2.6-6.3,4.7-14,4.7s-14-2.1-14-4.7"/>
						<path class="st37" d="M498.6,30.3c0,2.6-6.3,4.7-14,4.7s-14-2.1-14-4.7"/>
					</g>
				</g>
				<circle class="st10" cx="484.6" cy="46.4" r="32.8"/>
				<path class="st2" d="M514.1,60.5c-5.3,11-16.5,18.7-29.6,18.7c-18.1,0-32.8-14.7-32.8-32.8c0-7.2,2.3-13.8,6.2-19.2
					c-2,4.3-3.2,9-3.2,14.1c0,18.1,14.7,32.8,32.8,32.8C498.5,74,508.2,68.7,514.1,60.5z"/>
			</g>
			<g>
				<circle class="st0" cx="543.5" cy="121.9" r="32.8"/>
				<g>
					<line class="st37" x1="543.5" y1="105.9" x2="543.5" y2="138.5"/>
					<path class="st37" d="M558.5,107.7c0,0,0,12,0,17.3c0,11.6-7.1,17.4-15,17.4c-7.8,0-15-5.8-15-17.4c0-5.3,0-17.3,0-17.3l15-6.2
						L558.5,107.7z"/>
					<path class="st37" d="M554.5,110.4c0,0,0,9.7,0,14c0,9.4-5,14.1-11,14.1s-11-4.7-11-14.1c0-4.3,0-14,0-14l11-4.6L554.5,110.4z"
						/>
				</g>
				<circle class="st10" cx="543.5" cy="121.9" r="32.8"/>
				<path class="st2" d="M573.1,136c-5.3,11-16.5,18.7-29.6,18.7c-18.1,0-32.8-14.7-32.8-32.8c0-7.2,2.3-13.8,6.2-19.2
					c-2,4.3-3.2,9-3.2,14.1c0,18.1,14.7,32.8,32.8,32.8C557.5,149.6,567.2,144.3,573.1,136z"/>
			</g>
			<g>
				<circle class="st0" cx="510.8" cy="215.4" r="32.8"/>
				<g>
					<g>
						<polygon class="st38" points="509.8,197.8 509.8,233 505,236.4 494.7,228.7 494.7,222.5 489.7,219.7 489.7,209.7 494.8,207 
							494.8,200.9 504.9,194.4 						"/>
						<line class="st38" x1="499.7" y1="204.3" x2="499.7" y2="197.7"/>
						<polyline class="st38" points="504.8,201.4 504.8,206.9 499.7,210.3 494.8,207 						"/>
						<line class="st38" x1="489.7" y1="215.6" x2="494.9" y2="212.1"/>
						<line class="st38" x1="504.8" y1="211.7" x2="509.8" y2="215.1"/>
						<polyline class="st38" points="499.7,210.3 499.7,214.3 494.8,217.7 						"/>
						<polyline class="st38" points="499.7,214.3 504.8,217.4 504.8,223 						"/>
						<line class="st38" x1="509.8" y1="220" x2="499.4" y2="226.3"/>
						<line class="st38" x1="494.9" y1="223.3" x2="499.6" y2="220"/>
						<line class="st38" x1="505.2" y1="228.2" x2="499.1" y2="232"/>
					</g>
					<path class="st37" d="M513.6,206.8c3.5,1.2,6.1,4.6,6.1,8.5c0,3.9-2.5,7.3-6.1,8.5"/>
					<polyline class="st37" points="513.6,197.4 515.2,194.3 522.8,197.7 521.3,200.8 525.3,204.6 528.3,203.3 531.6,210.8 
						528.7,212.3 528.7,218.3 531.9,219.8 528.4,227.2 525.4,225.8 521.3,230 522.7,232.5 515.2,236.5 513.6,233.2 					"/>
				</g>
				<circle class="st10" cx="510.8" cy="215.4" r="32.8"/>
				<path class="st2" d="M540.3,229.5c-5.3,11-16.5,18.6-29.6,18.6c-18.1,0-32.8-14.7-32.8-32.8c0-7.2,2.3-13.8,6.2-19.2
					c-2,4.3-3.2,9.1-3.2,14.1c0,18.1,14.7,32.8,32.8,32.8C524.7,243.1,534.4,237.7,540.3,229.5z"/>
			</g>
			<g>
				<circle class="st0" cx="429.9" cy="256.6" r="32.8"/>
				<g>
					<path class="st37" d="M449.5,254.6c0,3.3-2.7,6-6,6h-26.3c-3.8,0-6.9-3.1-6.9-6.9c0-3.8,3.1-6.9,6.9-6.9c0.5,0,1,0.1,1.5,0.2
						c-0.2-0.8-0.3-1.6-0.3-2.4c0-4.9,4-8.9,8.9-8.9c3.9,0,7.2,2.5,8.4,5.9c0.2,0,0.4,0,0.6,0c2.9,0,5.3,2.4,5.3,5.3
						c0,0.9-0.2,1.7-0.6,2.4c0.8-0.4,1.6-0.6,2.5-0.6C446.9,248.6,449.5,251.3,449.5,254.6z"/>
					<line class="st37" x1="429.9" y1="260.5" x2="429.9" y2="270.6"/>
					<line class="st37" x1="427.9" y1="260.5" x2="420.8" y2="266.9"/>
					<line class="st37" x1="431.7" y1="260.5" x2="438.5" y2="266.9"/>
					<circle class="st37" cx="418.3" cy="270.1" r="3.6"/>
					<circle class="st37" cx="429.9" cy="274.1" r="3.6"/>
					<circle class="st37" cx="441.1" cy="270.1" r="3.6"/>
				</g>
				<circle class="st10" cx="429.9" cy="256.6" r="32.8"/>
				<path class="st2" d="M459.5,270.8c-5.3,11-16.5,18.6-29.6,18.6c-18.1,0-32.8-14.7-32.8-32.8c0-7.2,2.3-13.8,6.2-19.2
					c-2,4.3-3.2,9.1-3.2,14.1c0,18.1,14.7,32.8,32.8,32.8C443.9,284.3,453.6,279,459.5,270.8z"/>
			</g>
			<g>
				<circle class="st0" cx="203" cy="210.4" r="32.8"/>
				<g>
					<path class="st37" d="M219.6,231.4h-33.2c-1.3,0-2.4-1.1-2.4-2.4v-16.6h38V229C222,230.4,221,231.4,219.6,231.4z"/>
					<path class="st37" d="M209,222.5h-11.9c-0.6,0-1-0.5-1-1v-2.9c0-0.6,0.5-1,1-1H209c0.6,0,1,0.5,1,1v2.9
						C210,222,209.6,222.5,209,222.5z"/>
					<polyline class="st37" points="215,197.4 215,212.4 191,212.4 191,189.4 207,189.4 					"/>
					<line class="st38" x1="195" y1="196.4" x2="201" y2="196.4"/>
					<line class="st38" x1="195" y1="201.4" x2="202" y2="201.4"/>
					<line class="st38" x1="195" y1="206.4" x2="211" y2="206.4"/>
					<polyline class="st37" points="207,189.4 215,197.4 207,197.4 207,189.4 					"/>
				</g>
				<circle class="st10" cx="203" cy="210.4" r="32.8"/>
				<path class="st2" d="M232.6,224.6c-5.3,11-16.5,18.6-29.6,18.6c-18.1,0-32.8-14.7-32.8-32.8c0-7.2,2.3-13.8,6.2-19.2
					c-2,4.3-3.2,9.1-3.2,14.1c0,18.1,14.7,32.8,32.8,32.8C217,238.1,226.7,232.8,232.6,224.6z"/>
			</g>
			<g>
				<circle class="st0" cx="145.5" cy="130.2" r="32.8"/>
				<g>
					<path class="st37" d="M162.4,141.2h-34v-25.3c0-0.9,0.8-1.7,1.7-1.7h30.5c0.9,0,1.7,0.8,1.7,1.7V141.2z"/>
					<polygon class="st37" points="163.5,146.2 127.5,146.2 124.6,141.2 166.3,141.2 					"/>
					<polyline class="st38" points="133.9,135.6 141.4,128.2 146.3,132.1 155.8,121.9 					"/>
					<polyline class="st38" points="150.4,121.2 156.5,121.2 156.5,127.1 					"/>
				</g>
				<circle class="st10" cx="145.5" cy="130.2" r="32.8"/>
				<path class="st2" d="M175,144.3c-5.3,11-16.5,18.6-29.6,18.6c-18.1,0-32.8-14.7-32.8-32.8c0-7.2,2.3-13.8,6.2-19.2
					c-2.1,4.3-3.2,9.1-3.2,14.1c0,18.1,14.7,32.8,32.8,32.8C159.4,157.8,169.1,152.5,175,144.3z"/>
			</g>
			<g>
				<circle class="st0" cx="196.4" cy="46.4" r="32.8"/>
				<g>
					<g>
						<rect x="180.5" y="30.5" class="st37" width="31.9" height="31.9"/>
						<rect x="187.4" y="37.4" class="st37" width="17.9" height="17.9"/>
					</g>
					<g>
						<line class="st38" x1="184.4" y1="68.4" x2="184.4" y2="62.3"/>
						<line class="st38" x1="184.4" y1="30.5" x2="184.4" y2="24.4"/>
						<line class="st38" x1="190.4" y1="68.4" x2="190.4" y2="62.3"/>
						<line class="st38" x1="190.4" y1="30.5" x2="190.4" y2="24.4"/>
						<line class="st38" x1="196.4" y1="68.4" x2="196.4" y2="62.3"/>
						<line class="st38" x1="196.4" y1="30.5" x2="196.4" y2="24.4"/>
						<line class="st38" x1="202.4" y1="68.4" x2="202.4" y2="62.3"/>
						<line class="st38" x1="202.4" y1="30.5" x2="202.4" y2="24.4"/>
						<line class="st38" x1="208.4" y1="68.4" x2="208.4" y2="62.3"/>
						<line class="st38" x1="208.4" y1="30.5" x2="208.4" y2="24.4"/>
					</g>
					<line class="st38" x1="218.4" y1="58.4" x2="212.3" y2="58.4"/>
					<line class="st38" x1="180.5" y1="58.4" x2="174.4" y2="58.4"/>
					<line class="st38" x1="218.4" y1="52.4" x2="212.3" y2="52.4"/>
					<line class="st38" x1="180.5" y1="52.4" x2="174.4" y2="52.4"/>
					<line class="st38" x1="218.4" y1="46.4" x2="212.3" y2="46.4"/>
					<line class="st38" x1="180.5" y1="46.4" x2="174.4" y2="46.4"/>
					<line class="st38" x1="218.4" y1="40.4" x2="212.3" y2="40.4"/>
					<line class="st38" x1="218.4" y1="34.4" x2="212.3" y2="34.4"/>
					<line class="st38" x1="180.5" y1="40.4" x2="174.4" y2="40.4"/>
					<line class="st38" x1="180.5" y1="34.4" x2="174.4" y2="34.4"/>
				</g>
				<circle class="st10" cx="196.4" cy="46.4" r="32.8"/>
				<path class="st2" d="M226,60.6c-5.3,11-16.5,18.6-29.6,18.6c-18.1,0-32.8-14.7-32.8-32.8c0-7.2,2.3-13.8,6.2-19.2
					c-2,4.3-3.2,9.1-3.2,14.1c0,18.1,14.7,32.8,32.8,32.8C210.4,74.1,220,68.8,226,60.6z"/>
			</g>
		</g>
	</g>
</g>
</svg>
