<svg width="261" height="346" viewBox="0 0 261 346" fill="none" xmlns="http://www.w3.org/2000/svg">
<g clip-path="url(#clip0_281_346)">
<path d="M166.9 327.9C159.5 330.9 152.2 329.9 145.7 335.4C144.6 336.3 141 339.5 141.5 341.1C142.3 343.8 148.2 343.1 150.3 343.2C158.4 343.4 166.8 344.4 174.9 344.6C176.4 344.6 184 345.5 184.3 343.4C184.9 338.2 174.1 334.4 171.6 331.7" fill="#B6B1AE"/>
<path d="M79.9 326.4C71.6 326.2 62.3 329.9 55.8 334.9C55.2 335.4 50.1 340.2 50.6 340.9C51.9 342.8 58.3 341.4 60.2 341.6C68.3 342.5 77 341 85.2 341.2C86.6 341.2 92 342.2 92.8 340.6C94 338.3 87.5 334.3 86.3 333.6" fill="#B6B1AE"/>
<path d="M118.8 241.7C118.7 241.5 118.5 241.3 118.4 241.1Z" fill="#B6B1AE"/>
<path d="M64 59.9001C61.6 59.9001 55.4 72.0001 54 74.5001C43.6 92.7001 47.4 114 55.7 132.3C57.8 137 56.9 138.4 59 142.8C60 144.8 63.5 149.5 63.5 151.6C63.5 152.1 63.5 153 63.5 153C63.5 153 62.8 149.5 62.1 148C61.9 147.5 60.9 146.6 61.4 146.6C61.7 146.6 62 147.4 62.1 147.6C64.4 153.4 61.8 160.7 63.3 166.7C64.3 170.9 72.3 175.9 76.7 177C93.3 181.1 110 176.8 126.6 176.8C130.8 176.8 142.7 178.1 146.2 174.7C149.1 171.8 150 168 152.4 164.7C155.6 160.2 163 154.8 168.2 152.8C173.5 150.7 180.2 152 185.4 153.3C186.7 153.6 190.8 155.3 192.1 154C194.3 151.8 195.3 145.5 194.7 142.8C193.2 135.5 193.7 124.8 192.3 117.7C191.3 112.9 189.5 108.3 187.8 103.6C180.7 85.3001 170.8 70.3001 155.1 58.9001C151.2 56.0001 144.6 51.0001 140.1 48.7001C135.7 46.5001 130.9 46.6001 126.5 44.4001C120.8 41.5001 114.5 37.8001 108.4 36.3001C106.8 35.9001 109 38.6001 108.9 38.9001C108.7 39.3001 104.9 39.2001 104.4 39.1001C99.3 38.1001 94 38.2001 89.1 36.0001C88 35.5001 85 32.4001 84 32.7001C81.1 33.7001 85.4 41.8001 85.4 41.8001C85.4 41.8001 85 41.1001 84.7 40.8001C83.3 39.7001 80.1 38.8001 78.3 38.4001C74.4 37.6001 72.8 40.1001 69.5 40.8001C69.1 40.9001 65.2 41.9001 65.2 42.0001C65.2 42.8001 71.4 43.8001 71.4 44.6001C71.4 45.3001 70 45.0001 69.7 45.1001C67.9 45.4001 57.5 49.7001 58.2 52.0001C58.5 53.0001 64 53.0001 65.1 53.7001C65.4 53.9001 66.1 53.9001 66.1 53.9001C66.1 53.9001 61.8 54.6001 59.7 55.1001C57 55.8001 51.6 61.8001 56.4 61.8001" fill="#CAA77A"/>
<path d="M208.2 279.8C207.3 280.1 204.2 288.7 203.8 292C203 298.5 208 307.1 208.8 313.5C209.6 319.8 209.8 325.9 212.4 331.7C213.3 333.7 212.4 340.4 211.8 342.6C210.8 346.6 189.3 345.5 186 344.2C186 344.2 178.6 335 176.2 333.2C174.2 331.7 175.7 331.4 171 329.4C168.1 328.2 164.5 328.2 161.8 325.4C159.2 322.8 157.8 317 155 315.1C152.2 313.3 150.1 314.6 141.2 316.5C132.3 318.4 125.7 318 117.1 315.8C115.6 315.4 115.8 318.3 116.6 321.6C117.4 325.3 118.9 329.5 119.5 330.3C119.9 331 124.1 335.8 123 336.9C120.8 339.2 104.5 341.4 101.8 341.4C98.7 341.4 95.9 340.1 93 340.6C92.3 340.7 90.9 340.6 90.9 340.6C90.9 340.6 92.5 341.3 92.3 340.8C92 339.9 90.1 338.3 89.5 337.5C87.2 334.4 83.4 330 80.7 327.4C78.5 325.2 77.8 323.1 76.3 320.2C74.2 316 72.8 310.8 71.6 306.1C71.3 305 71.1 307.1 70.4 306.1C68.1 302.6 75.6 293.8 70.6 288.8C68.2 286.4 63.7 284 63.7 284C63.7 284 57 286 57 278.7C57 277.5 46.7 265.1 55.8 265.6C64.9 266 51 269.8 52.8 269.8C58.8 269.8 63.7 269.4 69.7 271C73.6 272.1 76.8 274.6 81 275C87.4 275.6 93.8 274 100.2 274.5C106.4 275 111.6 276 116.8 275C118 274.8 124.7 281.8 125.4 281.1C126.3 280.2 123.7 268.1 125.7 267.6C129.2 266.7 132 270.2 135.3 270.8C143.4 272.4 152.4 273 159.9 268.5C163.2 266.5 166.6 263.5 167.9 260.3C169.3 256.8 169.1 253.7 170.5 250C172.2 245.4 170.2 238.6 169.2 233.9C168.6 230.9 165.9 222.9 167.4 219.8C170.1 214.5 187 205.9 192.7 204.6C197.9 203.4 203.8 202.3 209.1 203.7C215.6 205.3 216.4 210.8 217.6 215.3C221.4 230.4 220.6 245.8 213.6 261.6C211.8 265.8 210.7 269.2 207 271.9C206.1 272.6 202.1 277.5 201.9 277.9C201.6 278.6 206.9 278.3 207 278.3C211.2 279.7 207.6 281.6 206.3 286" fill="#CAA77A"/>
<path d="M52.6 97.0001C54.6 88.9001 59.6 79.7001 66.9 78.3001C75.5 76.7001 82.6 83.6001 90.9 83.3001C92.4 83.2001 95.4 82.3001 96.3 81.0001C97.2 79.7001 96.3 78.0001 96.3 78.0001C97.6 78.4001 98.9 80.3001 100.5 80.7001C106.7 82.5001 113.1 77.0001 118.8 75.3001C137.5 69.6001 152.2 71.7001 162.1 89.8001C164.3 93.9001 167.8 103.2 165.4 113.6C162 128.7 160.2 135.1 143.8 146.4C124.3 159.9 83.9 166.6 63.7 141.1C54.3 129.1 48.9 112.2 52.6 97.0001Z" fill="#FFDBAF"/>
<path d="M90.3 103.9C83.5 100.5 78 117.7 78.5 122.6C80.4 139.5 105.1 138.6 116.6 132.9C133.2 124.6 112.9 97.9999 101.1 102.7" fill="#9D7B51"/>
<path d="M52.6 96.9999C48.9 103.7 53.1 123.8 55.9 125.9C58.1 127.5 72.8999 116.3 77.1999 109.2C78.2999 107.3 84 95.0999 81.9 92.9999C80.7 91.7999 64.7 93.9999 62.2 94.4999C58.9 95.1999 54.1 94.2999 52.6 96.9999Z" fill="#9D7B51"/>
<path d="M114.8 93.9001C115.6 121.5 156.1 136.2 160.8 129.3C163.8 124.9 170.4 103.6 162.5 89.7001C161.7 88.3001 152.3 91.8001 150.9 92.1001C139.1 94.0001 114.5 81.9001 114.8 93.9001Z" fill="#9D7B51"/>
<path d="M69.7 280.6L69.6 286.3" stroke="#9D7B51" stroke-width="3.87" stroke-miterlimit="10" stroke-linecap="round" stroke-linejoin="round"/>
<path d="M75.8 284L75.7 289.6" stroke="#9D7B51" stroke-width="3.87" stroke-miterlimit="10" stroke-linecap="round" stroke-linejoin="round"/>
<path d="M81.5 287.7V293.3" stroke="#9D7B51" stroke-width="3.87" stroke-miterlimit="10" stroke-linecap="round" stroke-linejoin="round"/>
<path d="M72.4 157.6V163.2" stroke="#9D7B51" stroke-width="3.87" stroke-miterlimit="10" stroke-linecap="round" stroke-linejoin="round"/>
<path d="M78 160.5L77.9 166.1" stroke="#9D7B51" stroke-width="3.87" stroke-miterlimit="10" stroke-linecap="round" stroke-linejoin="round"/>
<path d="M127.5 95.0998C127.5 97.5998 128 99.2998 128.9 100.5C131.5 103.8 137.2 102 142.9 101C149.1 99.8998 150.5 96.0998 151.7 93.7998" fill="white"/>
<path d="M53.5 93.7002C48.2 107.5 70.1 106 74.1 95.6002Z" fill="white"/>
<path opacity="0.23" d="M51.7 61.5998C55.7 61.5998 59.1999 60.4998 63.0999 59.5998C64.1999 59.2998 66.4 58.0998 66.4 59.2998C66.4 59.4998 65.9 59.4998 65.7 59.5998C62.3 61.5998 59.6 64.4998 57.7 67.9998C57 69.1998 55.2 72.4998 55.7 71.6998C71.1 43.9998 182.4 33.5998 176 146C175.9 147 174.7 148.7 175.7 149C177.7 149.7 180.9 147.7 183.4 148.7C184.5 149.1 192.6 153.6 193.4 153.1C194.8 152.1 193.8 146.8 194.1 145.1C199.8 107.2 156 56.3998 152.2 54.2998C137.8 46.2998 108.3 37.3998 107.6 37.1998C107.5 37.1998 104.9 38.7998 103.6 38.4998C98.7999 37.6998 93.4 35.8998 88.5 34.4998C87.8 34.2998 83.2999 30.7998 83.0999 31.1998C82.5999 32.2998 82.2 38.3998 82.8 39.1998C83.2 39.7998 85.6 38.8998 84.8 38.8998C78.6 38.8998 70.7 40.8998 64 42.1998C63.8 42.1998 63.2999 42.2998 63.2999 42.4998C63.2999 44.3998 72 43.1998 72 44.4998C72 45.4998 59.8999 48.8998 58.2999 50.1998C57.7999 50.5998 55.7999 52.0998 56.2999 52.4998C57.8999 54.0998 61.9 52.0998 64 53.1998" fill="#3F2719"/>
<path opacity="0.23" d="M191.9 284.7C188.6 286 187.9 290.9 188.4 297.3C189.6 312.7 198 336.4 196.1 336.2C165.1 333.8 146.2 340.7 146.2 341.9C146.2 343 151.6 342.7 152.6 342.9C158.8 344.5 174.4 345.6 180.7 345.2C192.5 344.5 196 344.2 207.8 344.2C209.3 344.2 208.2 344.7 209.5 343.9C214.4 340.6 210.2 325.1 209.6 320.2C208.6 312.4 204.4 298.3 205.5 290.6C205.8 288.2 210 281.8 209.5 279.4C208.5 274.6 193.3 284.2 191.9 284.7Z" fill="#3F2719"/>
<path opacity="0.23" d="M74.4 304.1C72.2 304.1 71.4 309.5 71.4 310.3C71.9 316.7 74.7 322.1 78.6 327.2C78.7 327.4 77.8 325.7 77.7 325.9C77.5 326.6 73.3 328.4 72.5 328.5C70.1 329 48 337.3 51.1 341.9C51.2 342 74 341.6 75.9 341.6C88.3 341.6 98 341.6 110.4 341.6C112.2 341.6 121.2 339 122.2 337.5C123.6 335.4 119.1 328 118.4 326.2C118 325.2 116.3 315.6 116.1 315.5C112.2 312.9 100 305.7 95.5 305C80.3 302.6 83.3 304.1 74.4 304.1Z" fill="#3F2719"/>
<path d="M65.5 58.7002C60.9 61.7002 58.2 66.7002 55.2 71.0002C40.2 92.2002 49.8 123 60.5 144.3" stroke="#2D1F04" stroke-width="2.62" stroke-miterlimit="10" stroke-linecap="round" stroke-linejoin="round"/>
<path d="M64.1 59.3C61.9 60.4 60.4 60.4 58.2 61.1C57.1 61.4 56.2 61.8 55 62.1C53.9 62.3 52.8 62.4 51.8 62.7C51.3 62.8 50.4 63.6 50.4 63.1C50.4 61.6 62.4 54.9 64.7 54.2C65 54.1 65.6 54.1 65.7 53.8C65.9 53.3 64.8 53.3 64.3 53.2C62 52.6 56.6 54.4 54.8 53C54.3 52.6 58.3 50.2 58.6 50C61.1 48.6 63.6 46.8 66.3 46C67.9 45.5 71.3 46.7 71.3 45C71.3 43 62.3 43.7 61.6 43C61.5 42.9 61.9 42.9 62 42.8C64 41.8 66.3 40.9 68.5 40.4C72.6 39.4 79.9 38.5 84 39.8" stroke="#2D1F04" stroke-width="2.62" stroke-miterlimit="10" stroke-linecap="round" stroke-linejoin="round"/>
<path d="M78.8 326.8C66.6 326.4 52.7 337.8 51.8 338.8" stroke="#2D1F04" stroke-width="2.62" stroke-miterlimit="10" stroke-linecap="round" stroke-linejoin="round"/>
<path d="M90.8 341.6C95.8 341.6 102 341.2 107.1 341.1C110.1 341 123.6 340.6 122.8 336.4" stroke="#2D1F04" stroke-width="2.62" stroke-miterlimit="10" stroke-linecap="round" stroke-linejoin="round"/>
<path d="M138.7 342.1C140.5 343.6 209.7 345.7 211.3 343.7" stroke="#2D1F04" stroke-width="2.62" stroke-miterlimit="10" stroke-linecap="round" stroke-linejoin="round"/>
<path d="M80.1 327.2C85.2 330.6 89.4 334.6 92.1 340" stroke="#2D1F04" stroke-width="2.62" stroke-miterlimit="10" stroke-linecap="round" stroke-linejoin="round"/>
<path d="M50.6 342C55.4 343.1 95 341.1 97.3 341.5Z" fill="black"/>
<path d="M50.6 342C55.4 343.1 95 341.1 97.3 341.5" stroke="#2D1F04" stroke-width="2.62" stroke-miterlimit="10" stroke-linejoin="round"/>
<path d="M52.2 338.4L51.5999 338.7L50.7 340L50.2 341.1L50.5999 342" fill="black"/>
<path d="M52.2 338.4L51.5999 338.7L50.7 340L50.2 341.1L50.5999 342" stroke="#2D1F04" stroke-width="2.62" stroke-miterlimit="10" stroke-linejoin="round"/>
<path d="M51 341.9C55.7 338 76.8 330.2 84.7 331.5" stroke="#2D1F04" stroke-width="2.62" stroke-miterlimit="10" stroke-linecap="round" stroke-linejoin="round"/>
<path d="M140.5 341.9C147.8 338.2 156.7 335.6 165.5 334.5C169.3 334 173.1 333.9 176.8 334" stroke="#2D1F04" stroke-width="2.62" stroke-miterlimit="10" stroke-linecap="round" stroke-linejoin="round"/>
<path d="M112.4 91.8999L165.7 90.8999" stroke="#2D1F04" stroke-width="7.6" stroke-miterlimit="10" stroke-linecap="round" stroke-linejoin="round"/>
<path d="M87.4 92.8999L70.2 93.1999L41.3 93.6999" stroke="#2D1F04" stroke-width="7.6" stroke-miterlimit="10" stroke-linecap="round" stroke-linejoin="round"/>
<path d="M125.5 95.6001C129.4 107.4 150.1 103.7 150.5 94.1001" stroke="#2D1F04" stroke-width="3.05" stroke-miterlimit="10" stroke-linecap="round" stroke-linejoin="round"/>
<path d="M52.8 97.2998C51.1 105.8 74.4 106.5 74.4 95.7998" stroke="#2D1F04" stroke-width="3.05" stroke-miterlimit="10" stroke-linecap="round" stroke-linejoin="round"/>
<path d="M86.3 103.9C86.2 101.3 91.2 99.0001 97.5 98.7001C103.8 98.4001 109.1 100.2 109.2 102.8C109.3 105.4 104.3 107.7 98 108C91.6 108.3 86.4 106.5 86.3 103.9Z" fill="#251707"/>
<path d="M140.3 93.6998C140.5 93.5998 140.7 93.3998 140.9 93.2998" stroke="#2D1F04" stroke-width="3.05" stroke-miterlimit="10" stroke-linecap="round" stroke-linejoin="round"/>
<path d="M97.7 108.8C97.7 118.4 103.1 107.1 110.6 110.8" stroke="#2D1F04" stroke-width="3.05" stroke-miterlimit="10" stroke-linecap="round" stroke-linejoin="round"/>
<path d="M63.6 96.0998C63.6 93.9998 65.3 92.2998 67.4 92.2998C69.5 92.2998 71.2 93.9998 71.2 96.0998C71.2 98.1998 69.5 99.8998 67.4 99.8998C65.3 99.8998 63.6 98.1998 63.6 96.0998Z" fill="#2D1F04"/>
<path d="M139.7 94.0002C139.7 91.9002 141.4 90.2002 143.5 90.2002C145.6 90.2002 147.3 91.9002 147.3 94.0002C147.3 96.1002 145.6 97.8002 143.5 97.8002C141.4 97.7002 139.7 96.0002 139.7 94.0002Z" fill="#2D1F04"/>
<path d="M130.4 35.8998C130.4 35.7998 130.5 35.7998 130.6 35.7998C130.7 35.7998 130.8 35.7998 130.8 35.8998C130.8 35.9998 130.7 35.9998 130.6 35.9998C130.5 36.0998 130.4 35.9998 130.4 35.8998Z" fill="#2D1F04"/>
<path d="M134.5 98.1C134.2 98.1 133.9 98 133.6 98Z" fill="#2D1F04"/>
<path d="M116.5 316.9C116.3 316.3 117.6 320.4 117.6 321.2C117.6 323.8 120.1 325.7 122.6 326.5C125.3 327.4 128.2 327.4 130.8 328.3C135 329.7 142.4 332.4 146.9 332C149.3 331.8 152.3 331 154.5 330.2C156.3 329.5 158.8 329.5 160.6 328.7C160.9 328.6 163 326.9 165.5 328.3C168.1 329.6 165.8 328.5 165.7 328.3C164.2 326.9 158.3 322.9 156.5 321.7C156.4 321.6 156.3 321.5 156.2 321.5C155.2 321.4 153.5 322.2 152.5 322.4C150.6 322.8 148.4 322.5 146.4 322.7C139.7 323.3 133.4 321.8 127.1 320.2C125 319.5 117.2 319.2 116.5 316.9Z" fill="#FF6900"/>
<path d="M173.5 63C175.5 66.9 179 70.8 181.4 74.8C183.3 78 183.5 82.1 185.3 85.2C192.8 97.7 204.2 107.9 210.8 121.1C223.6 146.8 229.5 182.9 229.5 211.6" fill="#FFDB1F"/>
<path d="M152 46.7998C165.5 60.2998 183.9 82.8998 188.6 101.7C192 115.2 193.3 129.4 193.3 143.3" fill="#FFDB1F"/>
<path d="M136.6 42.8999C141.9 42.8999 147.6 48.2999 151.7 51.1999C165.8 61.2999 178.9 73.3999 185.1 90.2999C186.7 94.6999 187.9 99.3999 189 103.9C190 108.1 189.8 113.5 192.2 117.2" stroke="black" stroke-miterlimit="10" stroke-linecap="round" stroke-linejoin="round"/>
<path d="M61.6 144.9C60.4 144.7 59.6 165.4 60.8 167.9C62.9 172.2 65.3 174.4 64.4 180.4C63.7 185 63.1 189.4 61.6 195.9C60.1 202.5 58 203.2 58.2 206C58.7 213.2 58 208.1 60.8 208.1C61.6 208.1 57.6 209 64.5 209.8C71.5 210.6 72.8 218.5 77.8 212.9C85.2 204.4 95.9 208.3 106.1 206.6C112.6 205.5 118.3 204.7 124.1 207.6C126.9 209 131.8 208.1 134.5 209.4C137.2 210.8 142.7 203.5 144.7 206.1C146.7 208.8 158.2 206.3 158.6 206.3C159.2 206.3 160 206.7 160.4 206.3C161 205.7 159.5 204.7 159.2 203.9C157.5 199.9 154.4 195.6 153.7 191.1C152.4 181.7 149.9 172.9 154.2 164.3C155 162.7 156.4 158.1 157.8 156.9C164.3 151.2 183.2 146.8 194 152.8C195.7 153.8 230.7 219.8 231.9 217.5C233.1 215.1 228.7 147 227.6 144.7C201.6 87.2998 196.4 83.3998 173.3 63.0998C159.8 51.2998 143.4 44.5998 128.3 40.7998C127 40.4998 114.1 36.1998 113 37.9998C112.8 38.2998 113.1 38.6998 113.3 38.8998C115.3 41.3998 124.1 43.0998 127 43.7998C135.3 45.5998 145.8 52.3998 152.5 57.4998C158.7 62.1998 162.7 69.8998 165.5 76.5998C167 80.0998 169.3 86.4998 170.7 90.2998C173.9 98.8998 173.5 104 172.5 112.3C172 116.2 171.1 121 170.4 125C168.7 135 160.1 149.8 151.9 155.7C147.9 158.6 143.1 160.2 138.8 162.7C136 164.4 131.4 166 128.1 166.4C116.3 167.9 107.7 166.6 96.8 165.1C91.7 164.4 85.7 164 80.7 162.1C72.9 158.8 65.6 150.4 61.6 144.9Z" fill="#FFDB1F"/>
<path d="M116.9 316.4C116.5 315.6 117.4 318.2 117.5 319.1C117.7 320 117.2 322.7 117.7 323.5C118.5 324.7 116.7 320.2 117.6 317.4C118.4 314.9 123.5 319.1 130.1 319.6C134.1 319.9 141.2 321.3 144.5 321.3C148.7 321.3 154.1 322.5 158.6 320.6C160.2 319.9 163.4 328.4 164.5 327.4C164.8 327.1 159.7 322.9 159.2 322.4C157.2 319.9 154.4 316.8 154.4 313.7C154.4 311.7 162.4 307.2 163.9 305.9C174 297.6 182.5 294.8 194.7 293.5C197.6 293.2 198.3 293.7 201.1 294.3C208 295.7 205.7 299.8 204.8 302.6C204.5 303.4 206.1 307.7 206.3 308.9C206.6 311.3 208.2 313.7 209.1 315.9C211.3 321.7 211.7 326.6 211.7 332.7C211.7 334.8 211.5 344.5 212.3 341.4C213.2 338.3 212.4 339.6 212.8 339.3C213.5 338.8 212 337.3 213.3 336.9C215.7 336.3 209.7 328.7 212.1 328.1C217.4 326.8 208 318.2 208.5 314.9C210.2 302.8 202 316.4 210.7 307.2C226.5 290.4 233.1 253.7 233.9 247.3C238.9 210.2 226.3 159.2 224.1 153.7C224 153.4 222 190 207.1 149.5C205.1 144.1 216.6 184.6 216.5 184.6C216.1 184.6 218.9 243.2 218.9 243.3C217.9 246.7 216.9 250.3 215.5 253.5C212.7 260.1 208.6 265.2 201.9 268.1C191.7 272.5 179.6 267.8 176 265.8C172.4 263.9 170.5 261.6 168.9 260C168.2 259.3 165.8 257.4 165 257.4C164.1 257.4 150 247.3 141.2 242.1C135 238.5 124.6 230.8 117.4 231.2C101.8 232 98.7 231.6 70.3 240.2C67 241.2 50 242.5 50.3 247.4C51.9 272.8 57.5 291.8 62.4 299.5C67.2 307.2 71.9 305 73.4 304.8C98.1 301.5 117.7 318.1 116.9 316.4Z" fill="#FFDB1F"/>
<path d="M116.3 317.1C116.5 321.8 118.4 331.9 122.2 335.7" stroke="#2D1F04" stroke-width="2.62" stroke-miterlimit="10" stroke-linecap="round" stroke-linejoin="round"/>
<path d="M154.6 315.3C157.2 321 161.1 326 167.2 328.1" stroke="#2D1F04" stroke-width="2.62" stroke-miterlimit="10" stroke-linecap="round" stroke-linejoin="round"/>
<path d="M165.8 327.9C148.6 330.9 142.6 336.7 138.6 341.8" stroke="#2D1F04" stroke-width="2.62" stroke-miterlimit="10" stroke-linecap="round" stroke-linejoin="round"/>
<path d="M185.1 74.8998C185 74.5998 193.2 86.0998 194.1 87.0998C200.9 94.4998 207.4 102.4 212.5 111C214.4 114.2 215.5 118.2 217.1 121.5C218.9 125.4 221.3 128.9 223.1 132.8C232.3 152.1 285.9 280.2 243.7 338.3C241.8 340.9 212.9 323.6 210.1 324.3C208.4 324.7 208.2 314.5 208.2 308.6C208.2 306.1 211.1 306.2 212.8 304.5C215.5 301.8 216.2 301.6 219.6 295C223 288.3 222.1 286.5 224.3 281.5C228.7 271.2 228.7 265.5 230 254.4C230.7 248.4 231.2 244.2 231.2 238.2C231.2 234.4 231.7 229 231.9 220.5C232.2 212 231.4 213.2 231.2 203.8C230.9 194.4 230.3 194.1 229.2 185.1C228.1 176.1 226.9 171.2 224.8 161.5C224.1 158.3 224.2 155.4 222.3 149.9C220.5 144.4 219.2 138.7 216.4 131.7C213.3 124 209.8 116.8 206.1 109.4C204.6 106.4 204 102.2 202 99.5998C196.2 91.7998 190 83.2998 185.1 74.8998Z" fill="#FF6900"/>
<path opacity="0.51" d="M187.2 79.7002C273.6 177.2 240.4 369.1 213.6 335.5C211.4 332.8 212.2 325.1 210.5 320.4C210 319.1 206.9 307.7 207.8 307.4C217.7 303.8 225.5 284.1 229.6 259.9C233.3 237.5 233.4 215.9 230.5 193.5C229.2 183.7 229.1 178.7 228 173.6C224.8 158.9 222.6 145.1 216.7 131.7C211.4 119.5 204.7 101.1 196 90.4002" fill="white"/>
<path d="M187.2 79.7002C273.6 177.2 240.4 369.1 213.6 335.5C211.4 332.8 212.2 325.1 210.5 320.4C210 319.1 206.9 307.7 207.8 307.4C217.7 303.8 225.5 284.1 229.6 259.9C233.3 237.5 233.4 215.9 230.5 193.5C229.2 183.7 229.1 178.7 228 173.6C224.8 158.9 222.6 145.1 216.7 131.7C211.4 119.5 204.7 101.1 196 90.4002" stroke="black" stroke-miterlimit="10" stroke-linecap="round" stroke-linejoin="round"/>
<path d="M169.9 10.2998C173.8 10.2998 176.9 13.3998 176.9 17.1998V18.1998C176.9 21.9998 173.8 25.0998 169.9 25.0998C166 25.0998 162.9 21.9998 162.9 18.1998V17.1998C162.8 13.3998 166 10.2998 169.9 10.2998Z" fill="#FF6900"/>
<path d="M169.9 10.2998C173.8 10.2998 176.9 13.3998 176.9 17.1998V18.1998C176.9 21.9998 173.8 25.0998 169.9 25.0998C166 25.0998 162.9 21.9998 162.9 18.1998V17.1998C162.8 13.3998 166 10.2998 169.9 10.2998Z" stroke="#2D1F04" stroke-width="2.62" stroke-miterlimit="10" stroke-linecap="round" stroke-linejoin="round"/>
<path d="M64.1 11.6001C68 11.6001 71.1 14.7001 71.1 18.5001V19.5001C71.1 23.3001 68 26.4001 64.1 26.4001C60.2 26.4001 57.1 23.3001 57.1 19.5001V18.5001C57 14.7001 60.2 11.6001 64.1 11.6001Z" fill="#FF6900"/>
<path d="M64.1 11.6001C68 11.6001 71.1 14.7001 71.1 18.5001V19.5001C71.1 23.3001 68 26.4001 64.1 26.4001C60.2 26.4001 57.1 23.3001 57.1 19.5001V18.5001C57 14.7001 60.2 11.6001 64.1 11.6001Z" stroke="#2D1F04" stroke-width="2.62" stroke-miterlimit="10" stroke-linecap="round" stroke-linejoin="round"/>
<path d="M165.1 209.1C166.4 206.6 167.4 200.2 161.3 193.6" stroke="#2D1F04" stroke-width="2.62" stroke-miterlimit="10" stroke-linecap="round" stroke-linejoin="round"/>
<path d="M60.4 143.3C71.7 165.9 105.8 170.3 129.3 166.1C146.7 163 179.5 143.6 171 92.6002C168.4 77.1002 155.4 53.6002 132.8 45.7002" stroke="#2D1F04" stroke-width="2.62" stroke-miterlimit="10" stroke-linecap="round" stroke-linejoin="round"/>
<path d="M60.6 145.5C60.6 145.2 62 167.7 62 167.7" stroke="#2D1F04" stroke-width="2.62" stroke-miterlimit="10" stroke-linecap="round" stroke-linejoin="round"/>
<path d="M154.9 315.5C154.9 313.1 157.2 310.4 160.8 307.6C175.8 296.1 213.6 284.7 205.4 301.3" stroke="#2D1F04" stroke-width="2.62" stroke-miterlimit="10" stroke-linecap="round" stroke-linejoin="round"/>
<path d="M203.7 294C203.7 300.1 216.2 338.2 211.9 342.5" stroke="#2D1F04" stroke-width="2.62" stroke-miterlimit="10" stroke-linecap="round" stroke-linejoin="round"/>
<path d="M116.6 316.6C123.7 320.2 150.2 323.4 157.1 319.9" stroke="#2D1F04" stroke-width="2.62" stroke-miterlimit="10" stroke-linecap="round" stroke-linejoin="round"/>
<path d="M117.3 323.7C125.8 328.6 142.6 332 150.7 332" stroke="#2D1F04" stroke-width="2.62" stroke-miterlimit="10" stroke-linecap="round" stroke-linejoin="round"/>
<path d="M114.7 38C142.8 40.7 165.6 53 184.5 73.1C253.9 146.5 278.7 307.2 243.1 338.6C241.8 339.8 212.9 326.5 211.6 326.2" stroke="#2D1F04" stroke-width="2.62" stroke-miterlimit="10" stroke-linecap="round" stroke-linejoin="round"/>
<path d="M51.5 246.6C49.9 258.9 58.9 300.5 69.9 306.6" stroke="#2D1F04" stroke-width="2.62" stroke-miterlimit="10" stroke-linecap="round" stroke-linejoin="round"/>
<path d="M134.4 41.6998C116.9 20.3998 140.3 -13.1002 165.1 11.2998" stroke="#2D1F04" stroke-width="2.62" stroke-miterlimit="10" stroke-linecap="round" stroke-linejoin="round"/>
<path d="M101.8 37.7C111.2 2.09996 80.3 -7.50004 68.2 12.1" stroke="#2D1F04" stroke-width="2.62" stroke-miterlimit="10" stroke-linecap="round" stroke-linejoin="round"/>
<path d="M166.8 327.9C174.7 331.8 182.1 335.9 186.1 344" stroke="#2D1F04" stroke-width="2.62" stroke-miterlimit="10" stroke-linecap="round" stroke-linejoin="round"/>
<path d="M84.5 40.9002C83.3 38.6002 81.2 34.7002 82.3 32.0002C82.4 31.9002 83.3 30.9002 83.5 31.0002C84.3 31.4002 84.9 32.8002 85.9 33.4002C89.8 35.5002 94.2 37.0002 98.6 38.0002C101.2 38.6002 103.8 38.8002 106.3 39.4002C106.9 39.5002 108.1 39.6002 108.1 39.6002C108.1 39.6002 104.6 36.5002 105.9 35.8002C106.1 35.7002 116.1 39.4002 117 39.8002C124.1 42.6002 132.5 45.3002 139.3 48.6002" stroke="#2D1F04" stroke-width="2.62" stroke-miterlimit="10" stroke-linecap="round" stroke-linejoin="round"/>
<path d="M135.7 209.4C134.7 208.7 138.1 208.4 139.2 208C141.7 207.1 144 206.4 146.5 205.6C150 204.5 162.7 203.1 164.4 207.5C166.5 212.7 163.7 224.4 161.4 228.8C161.3 229.1 161.2 229.3 161.1 229.6C160.2 231.6 159.2 233.5 158.3 235.4C158.3 235.4 158.4 235.9 158.1 235.7C157.4 235.2 155.4 227.5 154.7 226.2C154.4 225.5 153.5 225.1 153.1 224.5C152.2 223.2 151.8 221.5 150.8 220.3C149 218 146.3 216.4 143.9 214.7C140.9 212.9 138.8 211.5 135.7 209.4Z" fill="#D2D2D2"/>
<path d="M192.2 152.2C205.6 159.5 211.6 172.3 214.8 185.2C223 217.9 226.4 240.1 204.9 266.5C187.8 287.6 139.5 231.4 119.7 230.6C89.3 229.4 18.6 266.7 15.5 243.8C10.4 217.3 30 175.5 61.5 167C62.8 171.5 63.4 175.4 63.5 178.7C64.1 192.2 60.8 203.8 56.7 206.6C57.3 207.1 77.7 213.5 78.1 212.9C79.7 210.7 139.3 189.4 158.2 230.9C164.9 222.7 167.6 207.3 160 205.7C154.4 191.3 143.8 176.1 157.4 159.4C164.9 150.2 181.9 146.6 192.2 152.2Z" fill="#CAA77A"/>
<path d="M61.7 167.5C22.6 174.6 -8.2 259.4 34.9 251.7C53 248.5 104.7 225 123.2 231.2" stroke="#2D1F04" stroke-width="2.62" stroke-miterlimit="10" stroke-linecap="round" stroke-linejoin="round"/>
<path d="M56.2 186.3C55.4 186.3 48.6 203.5 54.9 207.3C61.3 211.1 105.7 212.5 172.5 262.3C205.9 287.3 216.6 250.6 218.6 242.5C225 216.7 218.5 166.5 193.7 152.4" stroke="#2D1F04" stroke-width="2.62" stroke-miterlimit="10" stroke-linecap="round" stroke-linejoin="round"/>
<path d="M134.6 209.4C151.1 211.7 157.9 234.8 157.9 234.8C157.9 234.8 173.4 205.8 158.7 205C144 204.3 131.7 209 134.6 209.4Z" stroke="#3F2719" stroke-width="2.62" stroke-miterlimit="10" stroke-linecap="round" stroke-linejoin="round"/>
<path d="M135.6 209.6C120.1 205.5 89.8 202.8 78.2 213.2" stroke="#3F2719" stroke-width="2.62" stroke-miterlimit="10" stroke-linecap="round" stroke-linejoin="round"/>
<path d="M146.5 205.8C158 207.9 156 226.8 158.1 233.9" stroke="#2D1F04" stroke-width="2.62" stroke-miterlimit="10" stroke-linecap="round" stroke-linejoin="round"/>
<path d="M193.6 152.3C162 136.8 138 171.5 159.8 204.5" stroke="#2D1F04" stroke-width="2.62" stroke-miterlimit="10" stroke-linecap="round" stroke-linejoin="round"/>
<path d="M61.9 167.4C64.2 171.9 64.6 180.3 63.2 188.9C62.1 195.5 59.9 202.3 56.6 207.7" stroke="#2D1F04" stroke-width="2.62" stroke-miterlimit="10" stroke-linecap="round" stroke-linejoin="round"/>
<path d="M208.6 307.4C243.9 289.1 254.7 71.7001 122.6 40.1001" stroke="#2D1F04" stroke-width="2.62" stroke-miterlimit="10" stroke-linecap="round" stroke-linejoin="round"/>
<path d="M70.6 305.3C71.7 313.2 74.4 321.9 79.6 327.1" stroke="#2D1F04" stroke-width="2.62" stroke-miterlimit="10" stroke-linecap="round" stroke-linejoin="round"/>
<path opacity="0.23" d="M152.4 174.3C151.4 163.6 169.5 154.3 178.6 157.8C191.8 162.9 199.1 175.7 203.8 188.4C210.1 205.3 214.3 281.9 85.2 210.6C84.6 210.3 78.2 212.5 78.7 212.7C121.6 225.5 165.5 256.9 168 259.4C171.3 262.6 176.6 265 180.6 267.1C186.9 270.5 196.9 271.6 203.1 268.5C205 267.5 206.2 265.4 207.5 263.8C214.4 255.4 217.4 246.8 218.6 235.6C218.9 232.5 220.4 229.4 220.6 226.3C221 220.8 219.6 215.4 219 209.9C218.4 203.3 218.6 196.2 216.9 189.9C214.8 181.9 210.8 170.1 204.8 162.3C202.1 158.8 199 156.5 196.3 154C192.8 150.7 191.1 151 184.5 149.2C170.8 145.3 157.3 156.1 153 167.3" fill="#3F2719"/>
<path opacity="0.23" d="M57.1 208.5C100.4 227.9 8.99996 258.7 16.6 222.1C16.7 221.5 14.5 227.3 14.4 227.8C13.3 233.1 14.8 241.5 17.1 246.4C20.5 253.6 30.7 252.7 37.3 251.2C43.1 249.9 48.1 248.2 53.5 246.5C66.1 242.6 80.7 238.3 88.2 235.3C95.7 232.3 104 230.7 110.3 229.4C111.9 229.1 116.4 229.9 117.5 229.1C118.1 228.6 113.7 226 113.4 225.8C108.8 223.6 104.1 222.7 99.3 221C87 216.6 75.4 213.3 63.1 209" fill="#3F2719"/>
<path opacity="0.23" d="M155.7 315.3C183.3 293.3 205.1 297.1 205.2 302.4C205.2 305 207.1 292.3 202.1 292.4C199.7 292.4 182.7 294.1 189.2 293.4C196.2 292.6 181.5 296.2 175.2 299.7C171.5 301.8 167.5 302.7 164.4 305.7C162.7 307.2 153.6 316.9 155.7 315.3Z" fill="#3F2719"/>
<path opacity="0.23" d="M162.9 69.7002C162.9 76.2002 170.4 86.4002 172.7 92.8002C176.2 102.5 180.1 168.9 123.8 170.9C120.5 171 100.4 168.8 97.8 166.2C97.3 165.7 114.9 167.5 115.7 167.6C118.9 168 143 162 152.6 154.8C173 139.5 177.5 101.5 166.9 80.2002" fill="#3F2719"/>
<path opacity="0.23" d="M165.4 207.9C165 207 168.4 212.4 168.6 215.2C168.7 217.9 167.8 227 159.4 235.8C159.2 236 162 228.4 162.3 227.7C164.1 221.9 168.2 213.8 165.4 207.9Z" fill="#3F2719"/>
<path d="M249.7 305.5C244 305.5 239.3 310.2 239.3 315.9V316.1C239.3 321.8 243.9 326.5 249.7 326.5C250.3 326.5 250.9 326.2 251.5 326.1C253.2 319.5 254.7 313 255.9 307.7C254.1 306.4 252 305.5 249.7 305.5Z" fill="black"/>
<path d="M231 234.9L229.5 257.6C230.9 257.9 232.3 258 233.8 257.7C240.2 256.6 244.4 250.6 243.3 244.4V244.1C242.2 238.3 236.9 234.5 231 234.9Z" fill="black"/>
<path d="M213 304.3L207.5 309.8C207.5 309.8 209.1 319.1 212.1 325.2C219.5 324.7 222 319 222 314.7V314.5C222.1 309.1 218.1 304.9 213 304.3Z" fill="black"/>
<path d="M136.6 320.4C137.6 325 141.6 328.6 146.5 328.6C151.4 328.6 155.4 325.1 156.4 320.4H136.6Z" fill="black"/>
<path d="M251.5 214.2C247.8 214.9 245 218 245 222C245 226.5 248.6 230.1 253.1 230.1H253.6C253.8 230.1 254 230 254.3 230L251.5 214.2Z" fill="black"/>
<path d="M257.2 253.7C253.5 254.4 250.7 257.5 250.7 261.5C250.7 266 254.3 269.6 258.8 269.6H259.3C259.5 269.6 259.7 269.5 260 269.5L257.2 253.7Z" fill="black"/>
<path d="M236.3 165.2C233.8 166.2 232.3 168.8 232.9 171.5C233.5 174.6 236.6 176.6 239.7 175.9L240 175.8C240.2 175.8 240.3 175.7 240.4 175.6L236.3 165.2Z" fill="black"/>
<path d="M224.3 159.7C226.9 159 228.7 156.6 228.5 153.9C228.2 150.8 225.5 148.4 222.4 148.7H222C221.8 148.7 221.7 148.8 221.5 148.8L224.3 159.7Z" fill="black"/>
<path d="M232.2 187.1C231.7 187.1 231.2 187.3 230.7 187.3L232 206.5C236.7 206.1 240.7 202.6 241.1 197.8C241.6 192.4 237.6 187.6 232.2 187.1Z" fill="black"/>
<path d="M70.2 305.6C70.2 305.6 92.7 297 116.5 316.4" stroke="#2D1F04" stroke-width="2.62" stroke-miterlimit="10" stroke-linecap="round" stroke-linejoin="round"/>
<path opacity="0.23" d="M115.4 38.2999C188.6 60.7999 206 125.8 209.4 170C225.1 204.4 225.1 259 198.3 270.3C177.5 304.3 79.2 309.5 67.2 270.8C57.7 234.7 100.4 236.5 110.8 238.7C125.2 241.8 166 261.2 177.5 265.8C173.7 263.5 167.6 259.9 167.2 259.5C162.1 254.6 156.2 249.8 150.5 245.6C142.4 239.8 130.4 231.1 120.5 229.3C118.8 229 117 228.8 115.3 228.8C103 228.8 89.3 235.3 78.1 238.6C75.5 239.4 52.2 247.3 52.1 247.4C51.9 247.9 51.2 249.5 50.9 252.2V252.3C50.8 253.1 50.9 254 50.9 255C51 254.7 51 254.4 51.1 254C51.4 257.4 53.4 275.9 55.8 281.1C58.4 286.8 59.8 296.3 62.2 298.9C63.2 299.9 66.7 305.1 68.2 305.3C69.2 305.4 72.7 305.3 74 305C78.7 303.8 88.5 302.3 93 304.2C97.7 306.1 101.9 306.9 106.2 309.7C110.4 312.4 115 316.9 119.8 318.6C121.9 319.3 126.1 319.6 128.1 319.5C132.7 319.3 134.3 321.3 138.9 321.8C140 321.9 155.2 321.8 155.5 321.6C156.2 321.1 155.2 314.4 155.7 312.8C157.2 307.8 184.9 294.1 195.4 293.9C199.4 293.4 205 292.7 205.3 292.8C209 294.9 204.6 299.1 204.8 301.6C204.9 302.6 206.5 308.6 207.8 308.4C212.6 307.9 220.8 289.7 222.9 283.4C227.9 268.2 232.2 238.2 231.8 222.3C231.3 201.5 229.5 176.3 224.5 155.8C219 133.4 211.4 119 199.8 99.3999C192.2 86.6999 184 69.6999 172.2 60.1999C165.3 54.5999 151.3 48.0999 143.2 45.2999C140.4 44.3999 112.7 37.3999 115.4 38.2999Z" fill="#3F2719"/>
<path opacity="0.23" d="M51 255.1C50.9 255.7 50.8 256.3 51.2 257.5C51.1 256.6 51.1 255.9 51 255.1Z" fill="#3F2719"/>
<path opacity="0.23" d="M177.6 265.9C178.9 266.7 181.2 268 181.2 268.1C181.2 268.1 182.4 267.8 182.2 267.8C181.8 267.7 179 266.5 177.6 265.9Z" fill="#3F2719"/>
<path opacity="0.23" d="M175.5 299.7C177.1 299 179.3 298.1 180.3 297.6C181.1 297.2 181.1 297.1 181 297.1C179.9 297.7 178.9 298.4 177.3 298.9C175.4 299.5 175.5 299.6 175.5 299.7Z" fill="#3F2719"/>
<path opacity="0.23" d="M181 297C181.7 296.6 182.4 296.1 183.6 295.9C184.7 295.7 182 296.3 181.5 296.5C180.2 297.1 180.9 297 181 297Z" fill="#3F2719"/>
<path opacity="0.23" d="M62.5 194.3C62.6 194.4 62.8 194.4 62.9 194.5Z" fill="#3F2719"/>
<path opacity="0.23" d="M0.499976 272.5C0.399976 272.4 0.199976 272.4 0.0999756 272.3Z" fill="#3F2719"/>
<path opacity="0.23" d="M64.3 149.3C68.3 152.4 72.6 155.3 76.2 158.9C77.2 159.9 75.8 158.6 75.4 159.9C53.4 228.4 94.7 206.2 94.6 206.4C93 211.3 70.3 212.7 67.4 211.2C62.3 208.7 57.5 208.7 53.4 204.5C48.9 200 52.7 188.8 57.3 184.4C58.7 182 60.4 179.8 62 177.7C62 177.7 62.9 175.7 63.3 174.6C62.9 171.2 62.5 167.8 62.5 167.7C61.9 165.9 61.7 163.8 61.4 161.8C60.9 157.3 60.1 152.9 60.2 148.3C60.2 147.8 59.9 144.9 60.4 144.8C60.6 144.7 63.7 148.9 64.3 149.3Z" fill="#3F2719"/>
<path d="M181.2 187.8L181.1 193.5" stroke="#9D7B51" stroke-width="3.87" stroke-miterlimit="10" stroke-linecap="round" stroke-linejoin="round"/>
<path d="M187.4 190.7L187.3 196.4" stroke="#9D7B51" stroke-width="3.87" stroke-miterlimit="10" stroke-linecap="round" stroke-linejoin="round"/>
<path d="M194.1 187V192.7" stroke="#9D7B51" stroke-width="3.87" stroke-miterlimit="10" stroke-linecap="round" stroke-linejoin="round"/>
<path d="M183 316.4V322.1" stroke="#9D7B51" stroke-width="3.87" stroke-miterlimit="10" stroke-linecap="round" stroke-linejoin="round"/>
<path d="M188.1 319.9V325.5" stroke="#9D7B51" stroke-width="3.87" stroke-miterlimit="10" stroke-linecap="round" stroke-linejoin="round"/>
<path d="M24.8 220.1V225.7" stroke="#9D7B51" stroke-width="3.87" stroke-miterlimit="10" stroke-linecap="round" stroke-linejoin="round"/>
<path d="M239.7 275.3C245.1 275.3 249.5 279.7 249.5 285V285.5C249.5 290.9 245.1 295.2 239.7 295.2C234.3 295.2 229.9 290.8 229.9 285.5V285C229.9 279.6 234.3 275.3 239.7 275.3Z" fill="black"/>
<path d="M115.2 183.8C119 183.9 122.4 183.9 125.7 184.1C128.4 184.2 129.2 186 129.1 187.6C128.9 189.9 127.5 191.4 125 192.3C124.9 192.3 124.7 192.4 124.5 192.4C127.1 193.8 127.1 196.7 128.8 199.4C126.8 199.4 125 199.4 123.1 199.3C122.1 197.6 121.3 195.9 120.6 194.3C120.2 193.4 119.7 192.8 118.2 193C117.8 195 117.5 197 117.7 199.2C115.9 199.2 114.3 199.2 112.6 199.2C112 193.8 114.7 189.1 115.2 183.8ZM119.8 187C119.6 188 119.3 189 119 190.1C120.1 190 121.2 190.1 122.3 189.9C123.2 189.8 123.9 189.2 124 188.5C124.2 187.7 123.8 187.1 122.9 187C121.9 186.9 120.9 187 119.8 187Z" fill="#2D1F04"/>
<path d="M144.3 188.3C142.6 188.4 141.1 188.5 139.5 188.6C139.4 187.3 138.7 186.6 137.4 186.6C136.5 186.6 135.8 186.8 135.4 187.7C135.3 188.4 135.8 188.7 136.4 188.8C137.5 189.1 138.7 189.3 139.8 189.7C140.4 189.9 141.1 190.1 141.7 190.4C145.5 192.1 144.7 196.4 141.6 198.5C140.6 199.2 139.3 199.6 138.2 199.8C136.3 200.1 134.5 200 132.7 199.5C130.3 198.8 128.8 196.8 129.2 194.3C130.7 194.2 132.2 194.2 133.8 194.1C133.9 194.4 133.9 194.7 134 195C134.4 196.5 136 197.2 137.6 196.6C138.3 196.3 138.9 195.9 139 195.2C139.1 194.5 138.7 194.1 138.1 193.8C137.6 193.6 137 193.4 136.5 193.3C135.4 193 134.2 192.7 133.2 192.3C131.2 191.5 130.4 190 130.8 188.3C131.3 186.4 132.8 184.8 135 184.2C137.1 183.6 139.2 183.6 141.3 184.2C143.4 184.7 144.3 186 144.3 188.3Z" fill="#2D1F04"/>
</g>
<defs>
<clipPath id="clip0_281_346">
<rect width="261" height="346" fill="white"/>
</clipPath>
</defs>
</svg>
