<?xml version="1.0" encoding="utf-8"?>
<!-- Generator: Adobe Illustrator 26.0.3, SVG Export Plug-In . SVG Version: 6.00 Build 0)  -->
<!DOCTYPE svg PUBLIC "-//W3C//DTD SVG 1.1//EN" "http://www.w3.org/Graphics/SVG/1.1/DTD/svg11.dtd" [
	<!ENTITY ns_extend "http://ns.adobe.com/Extensibility/1.0/">
	<!ENTITY ns_ai "http://ns.adobe.com/AdobeIllustrator/10.0/">
	<!ENTITY ns_graphs "http://ns.adobe.com/Graphs/1.0/">
	<!ENTITY ns_vars "http://ns.adobe.com/Variables/1.0/">
	<!ENTITY ns_imrep "http://ns.adobe.com/ImageReplacement/1.0/">
	<!ENTITY ns_sfw "http://ns.adobe.com/SaveForWeb/1.0/">
	<!ENTITY ns_custom "http://ns.adobe.com/GenericCustomNamespace/1.0/">
	<!ENTITY ns_adobe_xpath "http://ns.adobe.com/XPath/1.0/">
]>
<svg version="1.1" id="Слой_1" xmlns:x="&ns_extend;" xmlns:i="&ns_ai;" xmlns:graph="&ns_graphs;"
	 xmlns="http://www.w3.org/2000/svg" xmlns:xlink="http://www.w3.org/1999/xlink" x="0px" y="0px" width="601.3px" height="383.2px"
	 viewBox="0 0 601.3 383.2" style="enable-background:new 0 0 601.3 383.2;" xml:space="preserve">
<style type="text/css">
	.st0{fill:#FFFFFF;}
	.st1{fill:#FF0F0F;}
	.st2{opacity:0.32;fill:#FFFFFF;}
	.st3{opacity:0.5;fill:#3F2719;}
	.st4{opacity:0.38;fill:#3F2719;}
	.st5{opacity:0.23;fill:#3F2719;}
	.st6{opacity:0.31;fill:#3F2719;}
	.st7{fill:#CAA77A;}
	.st8{fill:#B6B1AE;}
	.st9{fill:#FFDB1F;}
	.st10{fill:#2D1F04;}
	.st11{fill:none;stroke:#2D1F04;stroke-width:2.7806;stroke-linecap:round;stroke-linejoin:round;stroke-miterlimit:10;}
	.st12{fill:none;stroke:#2D1F04;stroke-width:8.0658;stroke-linecap:round;stroke-linejoin:round;stroke-miterlimit:10;}
	.st13{fill:#3F2719;}
	.st14{fill:#FFDBAF;}
	.st15{fill:#9D7B51;}
	.st16{fill:#D3E5EA;}
	.st17{fill:none;stroke:#2D1F04;stroke-width:2.62;stroke-linecap:round;stroke-linejoin:round;stroke-miterlimit:10;}
	.st18{fill:#251707;}
	.st19{fill:none;stroke:#2D1F04;stroke-width:7.6;stroke-linecap:round;stroke-linejoin:round;stroke-miterlimit:10;}
	.st20{opacity:0.43;fill:#3F2719;}
	.st21{opacity:0.35;fill:#3F2719;}
	.st22{fill:none;stroke:#9D7B51;stroke-width:3.87;stroke-linecap:round;stroke-linejoin:round;stroke-miterlimit:10;}
</style>
<metadata>
	<sfw  xmlns="&ns_sfw;">
		<slices></slices>
		<sliceSourceBounds  bottomLeftOrigin="true" height="383.2" width="601.3" x="704.7" y="166.6"></sliceSourceBounds>
	</sfw>
</metadata>
<g>
	<path class="st0" d="M369.5,383.2l-0.9,0c-6.6-0.1-13.8-0.5-20.8-1.3c-13.9-1.5-28.1-4.5-38.5-6.6c-5.4-1.1-10-2.1-12.9-2.5
		c-3.2-0.5-11.7-1.7-20.5-3.5c-16.1-3.1-21.3-5.3-23.9-6.8c-9.5-5.4-15.5-11.5-18.2-18.5c-0.4-1.1-0.6-2.2-0.7-3.4
		c-1.1-4.9-0.6-10.1,1.5-15.2c0.1-0.2,0.1-0.4,0.2-0.5c0.1-0.1,0.2-0.3,0.3-0.5c0.8-1.7,1.7-3.4,2.8-5c0.9-1.3,1.8-2.7,2.8-4
		c0.9-1.3,2-2.8,3.2-4.3c-2.6-1.2-5.1-2.4-7.6-3.7l-0.6-0.3c-1-0.5-1.9-1-2.8-1.5L232,305c-0.7-0.4-1.4-0.8-2.1-1.3
		c-0.4-0.3-0.9-0.5-1.3-0.8c-0.5-0.3-1-0.7-1.6-1c-0.5-0.3-1-0.7-1.5-1c-0.5-0.3-1-0.7-1.5-1c-0.4-0.3-0.9-0.6-1.3-0.9
		c-0.5-0.4-1-0.7-1.5-1.1c-0.5-0.3-0.9-0.7-1.4-1c-0.4-0.3-0.7-0.6-1.1-0.8c0,0-0.6-0.5-0.8-0.6c-17.7-13.9-25.6-30.5-30.4-41.1
		c-3.4-1.8-5.9-3.7-7.5-5.9c-0.5-0.6-0.9-1.3-1.4-2.1c-6.6,2-13.9,3.7-22.1,5.2l-87.6,23.8c-3.2,1.5-6.5,2.8-10.1,4.1
		c-5.7,2.1-11.2,3.6-16,4.9c-1.6,0.4-3.1,0.9-4.6,1.3c-0.3,0.1-0.7,0.2-1.4,0.5c-0.4,0.1-0.8,0.3-1.2,0.5c-0.1,0-0.1,0-0.2,0.1
		c-1.1,0.4-2.3,1-3.3,1.4c-0.6,0.3-1.1,0.5-1.7,0.8c0,0-2.3,1.1-2.9,1.4c-0.5,0.3-2.3,1.1-2.3,1.1l-3.1,1.5
		c-0.2,0.1-0.3,0.2-0.5,0.3l-0.2,0.1c-0.5,0.2-0.9,0.4-1.4,0.6c-1.9,0.9-3.3,1.5-4.5,1.9c-0.1,0-0.2,0.1-0.3,0.1
		c-0.4,0.1-0.8,0.3-1.2,0.4c-1.2,0.4-2.3,0.6-3.4,0.6c-0.2,0-0.3,0-0.5,0c-0.4,0-0.8,0-1.2-0.1c-0.2,0-0.3,0-0.5-0.1l0,0
		c-2.9-0.5-5.5-2.2-7.1-4.7c0-0.1-0.1-0.1-0.1-0.2c-0.4-0.6-0.7-1.3-0.9-1.9c-0.2-0.6-0.4-1.2-0.5-1.8c-0.1-0.5-0.1-1-0.1-1.2
		c0,0,0-0.1,0-0.1c0-0.4,0-0.9,0-1.3c0,0,0,0,0,0c0-0.2,0-0.4,0.1-0.6c0-0.4,0.1-0.8,0.2-1.3c0-0.1,0.1-0.3,0.1-0.4
		c0.1-0.3,0.1-0.5,0.2-0.8c0.1-0.2,0.1-0.3,0.1-0.5c0.1-0.2,0.1-0.4,0.2-0.7c0,0,0.1-0.4,0.1-0.4c0.1-0.2,0.2-0.5,0.3-0.7l0.4-1.1
		l0.1-0.3c0.1-0.3,0.6-1.3,0.6-1.3l0.5-1c0.4-0.9,0.9-1.8,1.4-2.8c0,0,0.4-0.8,0.4-0.8c3.4-6.6,8.9-15.7,12.8-20.3
		c0.1-0.1,0.2-0.3,0.4-0.4c0.2-0.2,0.3-0.4,0.5-0.6c0.2-0.2,0.4-0.4,0.6-0.6c0.2-0.2,0.4-0.4,0.5-0.5c0.3-0.3,0.7-0.6,1-0.8
		c0.1-0.1,0.2-0.2,0.3-0.3c2.9-2.1,7.6-4.3,15-7.7c3.8-1.8,8.2-3.8,9.9-4.9c1.3-0.8,5.9-4.9,9.7-8.2c9.2-8,21.7-18.9,32.8-25.9
		c9.7-6.1,17.3-7.8,21.8-8.8c0.3-0.1,0.7-0.2,1.1-0.2c0.8-0.8,2-2,3.7-3.7c0,0,4.6-4.7,5.8-5.9c-0.2-4,1.3-8.7,6.3-12.6
		c3.1-3.2,7.3-6.5,11.3-8.9c0.2-0.5,0.5-1.1,0.8-1.6c2.3-4.8,6.9-7.4,10.8-9.2c3.5-2,7.3-3.7,10.4-4.6c0.4-0.1,0.9-0.3,1.3-0.4
		c0-0.6,0-1.1,0-1.4c-0.3-0.5-0.7-1.2-1-1.7c-0.3-0.5-0.6-0.9-0.8-1.3c-11-18.7-16.8-36.3-17.1-52.4c0-0.2,0-0.9,0-0.9l0-0.3
		c0-0.4,0-0.9,0-1.3c0-0.7,0-1.4,0.1-2c0,0,0-0.7,0-0.9c-2.2-0.8-4.2-2.5-5.4-4.7c-2.1-4-1.3-8.8,1.9-11.9c0.9-0.8,1.7-1.6,2.4-2.3
		c2.5-2.5,4.8-4.7,7.6-6.2c0.1-0.1,0.1-0.2,0.2-0.3c1-2,2-3.8,3.1-5.5c-1.8-3-2.4-6.5-1.6-9.9c-1-2.2-1.5-4.6-1.4-7.1
		c0.1-5.7,3-10.8,8.2-14.6c1.5-1.1,3.2-1.7,5.1-1.9c2.7-5.2,7.5-9.1,13.6-10.6c0.8-0.2,1.6-0.3,2.4-0.3c1.2,0,2.3,0.2,3.4,0.6
		c0.8-1,1.8-2,2.8-3C189.9,2.2,196,0,202.7,0c4.8,0,8.8,1.2,10.3,1.7c0.5,0.2,0.9,0.3,1.1,0.4l0,0c3.4,1.4,5.7,4.5,6.2,8
		c1.3,0.6,2.5,1.4,3.5,2.5c0.7,0.8,1.7,2.1,2.2,3.9c2.2,0.6,4.4,1.2,6.7,1.7c4.4,1.1,8.9,2.2,13.5,3.8c1.1,0.4,2.2,0.8,3.2,1.2
		c22.4,8.6,40.2,23.1,52.9,43.2c0.8-0.6,1.6-1.2,2.4-1.6c5-3,11.2-4.5,19-4.6l0.3,0c2.9,0,5.6,0.2,8,0.4c0.5-0.3,0.9-0.5,1.4-0.8
		c2.5-1.5,4.3-2.4,5.2-2.8c4.4-2.1,8.5-3.2,12.6-3.2c6.3,0,12.3,2.6,17.3,7.5c0,0,0.1,0.1,0.1,0.1c2,1.8,3.8,3.9,5.7,6
		c5.5,6.1,11.6,13,23.5,18.2c5.4-2.3,12.3-3.8,19.6-5.4c4.5-1,9.2-2,13.5-3.2c-0.1-0.1-0.2-0.3-0.3-0.4c-1.1-1.8-2-3.8-2.8-6.1
		c-0.8-2.3-1.4-4.7-1.9-7.3c-0.8-3.4-1.1-8.8-0.8-12.5c0.1-8.2,7.8-14.2,14.5-15.8c1.3-1.1,2.6-2,4-2.8c0.4-0.4,0.9-0.7,1.4-1
		c5.2-2.9,13.4-6.3,19.7-6.3c3.1,0,5.8,0.8,7.9,2.4c3.8,2.7,8.5,9.5,10.5,12.7c0.1,0.1,0.2,0.2,0.2,0.3c2.3,3.6,5.6,9.1,7.9,15
		c1.6,4,2.5,7.8,2.8,11.2c0.2,2.7,0.1,5.3-0.2,7.6c0,0.3-0.1,0.5-0.1,0.8c-0.2,1-0.4,2-0.7,3c-0.1,1.2-0.5,2.4-1,3.5
		c-0.9,1.8-2,3.7-3.4,5.5c-2.2,3.1-4.8,5.6-7.5,8.3c-0.3,0.3-0.6,0.6-0.9,0.9c3.3-0.1,6.5-0.2,9.7-0.3c3.5-0.1,6.9-0.2,10.3-0.3
		c0,0,2.1,0,2.1,0c1.2,0,2.3,0,3.5,0l3,0l1.7,0c0.8,0,1.6,0,2.4,0l0.9,0l2.4,0.1l0.9,0c14.5,0.5,33.1,2.8,49.2,15.9
		c14.7,12,25.7,31.4,34.7,60.9c1.3,4.4-0.5,9-4.3,11.4c-1.6,1-3.4,1.5-5.2,1.5c-0.3,0-0.5,0-0.8,0c-2.3-0.2-4.5-1.1-6.2-2.7
		c-15.8-15-26.9-17.8-36.6-18.6c-2-0.2-4.1-0.2-6.4-0.2c-4.2,0-8.6,0.2-13.3,0.5c-3,0.2-6.1,0.3-9.3,0.5c0.7,2.7,2.1,5.8,4.4,9.1
		c6.5,9.4,12.8,20.6,10.6,32c-1.3,6.9-5.6,12.9-12.7,17.6c-2.7,1.8-5.7,2-8.6,2c-0.9,0-1.9,0-3.1-0.1c-4.8-0.3-16-1.4-36.2-5.9
		l-0.7-0.1c-1.7-0.4-3.4-0.8-5.2-1.2c-0.1,0-0.2,0-0.3-0.1l-4.8-1.1c-1.2-0.3-2.3-0.6-3.5-0.9L458,216c-1.2-0.3-2.4-0.6-3.7-0.9
		l-1-0.3c-1.1-0.3-2.2-0.6-3.3-0.9l-1.5-0.4c-1.2-0.3-2.5-0.7-3.8-1l-1.3-0.3c-1.2-0.3-2.4-0.7-3.6-1c-0.2,0-0.4-0.1-0.6-0.1
		c-0.1,0-0.3,0-0.4-0.1c-0.1,0-0.2,0-0.3,0c-0.1,0-0.3,0-0.4,0c-0.1,0-0.2,0-0.3,0c-0.2,0-0.3,0-0.5,0c-0.2,0-0.4,0-0.5,0
		c-0.1,0-0.1,0-0.2,0c-0.3,0-0.6,0-0.9,0c-0.2,0-0.4,0-0.6,0c15.8,7.2,24.8,22.2,21.1,36.8c-0.1,0.4-0.2,0.8-0.3,1.2
		c-0.4,1.4-1,2.7-1.6,3.9c0.5,0,0.9,0,1.4,0.1c0.9,0,1.8,0.1,2.8,0.1c0.6,0,1.2,0,1.8,0.1c1,0,2.1,0,3.2,0.1l1.4,0
		c0.9,0,1.9,0,2.8,0l1.3,0c3.1,0,6.2-0.1,9.3-0.2c0.1,0,0.3,0,0.4,0c0.1,0,0.3,0,0.4,0c4.1,0.1,7.7,2.8,9.1,6.7
		c0.4,1.2,0.6,2.5,0.6,3.8c-0.1,2.9-1.5,5.8-4,7.6l-2,1.5c-14.5,11-32.5,24.6-54.9,24.6c-0.4,0-0.9,0-1.3,0c0.9,0.2,1.8,0.4,2.7,0.5
		c4.6,0.8,8.4,1.6,11.8,2.6c2.7,0.8,5.1,1.6,7.3,2.6c0.1,0,0.1,0.1,0.2,0.1c0.1,0,0.2,0.1,0.3,0.2c0.4,0.2,0.9,0.4,1.4,0.7l0.5,0.3
		c0.4,0.2,0.8,0.4,1.3,0.7c0.2,0.1,0.3,0.2,0.4,0.3c0.5,0.3,1.1,0.6,1.6,1c0.1,0.1,0.3,0.2,0.4,0.3c0.4,0.3,0.8,0.5,1.2,0.8
		c0,0,0,0,0,0c0.6,0.4,1.2,0.8,1.7,1.3c0.1,0.1,0.2,0.2,0.4,0.3c0.3,0.3,0.7,0.6,1,0.8c0.2,0.2,0.5,0.4,0.7,0.6
		c0.3,0.3,0.6,0.6,0.9,0.9c0.2,0.2,0.6,0.6,0.6,0.6c0.3,0.3,0.5,0.5,0.7,0.7c0.2,0.2,0.4,0.4,0.6,0.6c0.2,0.3,0.5,0.5,0.7,0.8
		l0.1,0.1c0.2,0.2,0.3,0.3,0.5,0.5c0.3,0.4,0.7,0.8,1,1.2c0.1,0.2,0.5,0.7,0.5,0.7c0.2,0.3,0.4,0.5,0.6,0.7c0.2,0.3,0.4,0.5,0.6,0.8
		c0.2,0.3,0.8,1.1,0.9,1.2c1.6-0.6,3.5-1,5.6-1c2.4,0,4.8,0.6,7,1.7c0.7,0.3,1.3,0.7,1.9,1l0.3,0.2c0.6,0.4,1.2,0.7,1.7,1.1
		c0,0,0.1,0.1,0.2,0.1c0.5,0.4,1,0.7,1.5,1.1c0.1,0,0.1,0.1,0.2,0.1c0.5,0.4,1,0.8,1.4,1.2c0,0,0.1,0.1,0.1,0.1
		c0.9,0.8,1.7,1.7,2.5,2.6l0.2,0.2c0.3,0.4,0.7,0.8,1,1.2c0,0,0.1,0.1,0.1,0.1c0.3,0.4,0.5,0.7,0.8,1.1c0,0,0.1,0.1,0.1,0.1
		c0.3,0.4,0.5,0.8,0.8,1.1c0,0,1.7,2.5,1.7,2.5l0.4,0.6l0.8,1.1l0.3,0.3c0.2,0.2,0.4,0.5,0.6,0.7l0.4,0.5l0.3,0.4
		c0.3,0.4,0.6,0.7,1,1.1l0.1,0.1c1.8,1.9,4,3.8,6.5,5.7c0.5,0.3,1,0.7,1.5,1.1l0.6,0.4c0.4,0.3,0.9,0.6,1.4,0.9l0.2,0.1
		c0.6,0.4,1.2,0.7,1.9,1.1c1.4,0.9,2.9,1.7,4.4,2.6l1.8,1c0.7,0.4,1.5,0.9,2.3,1.3c0.1,0,0.1,0.1,0.2,0.1c0.8,0.5,1.6,1,2.4,1.5
		c0.1,0,1.1,0.7,1.1,0.7c3.6,2.3,6,4,7.7,5.8c0,0,0.1,0.1,0.1,0.1c0.3,0.3,0.5,0.5,0.7,0.8l0.2,0.2c0.2,0.3,0.4,0.6,0.6,0.8l0.2,0.3
		c0.3,0.4,0.5,0.7,0.6,1c0.1,0.3,0.2,0.5,0.3,0.7c0.2,0.3,0.3,0.7,0.5,1.3c0.2,0.5,0.3,0.9,0.3,1.2c0.1,0.2,0.2,0.7,0.2,1.3
		c0.1,1.1,0.1,2.2-0.1,3.2c0,0.2-0.1,0.4-0.1,0.6c0,0.2-0.1,0.4-0.2,0.6c-0.3,1-0.7,1.9-1.2,2.7c-0.2,0.3-0.5,0.7-0.7,1
		c-0.4,0.5-0.8,0.9-1.3,1.3c-0.3,0.2-0.5,0.4-0.7,0.6c-0.4,0.3-0.7,0.5-1.2,0.8c-0.1,0.1-0.3,0.2-0.5,0.3c-0.1,0-0.1,0.1-0.2,0.1
		c-0.2,0.1-0.4,0.2-0.7,0.3c-0.2,0.1-0.4,0.2-0.7,0.3c-0.3,0.1-0.5,0.2-0.8,0.3c0,0-0.1,0-0.2,0.1c-0.2,0.1-0.4,0.1-0.6,0.2
		c-0.1,0-0.2,0-0.2,0.1c-0.2,0-0.5,0.1-0.5,0.1s-0.4,0.1-0.4,0.1c0,0-1.1,0.2-1.2,0.2l-0.5,0.1c-0.2,0-0.9,0.1-0.9,0.1
		c-0.2,0-0.3,0-0.5,0.1c-0.3,0-0.7,0.1-1,0.1l-1.4,0.1c-0.1,0-0.4,0-0.4,0c-0.3,0-0.8,0-1.3,0.1l-0.3,0c-0.5,0-1.1,0-1.6,0l-1.1,0
		c-7.2,0-15.3-1.1-22-2.9c-11.8-3.1-21.8-7.7-28.4-10.6c-1.8-0.8-4.1-1.9-4.9-2.1c-20.7-5.1-40.2-7-57.4-8.7
		c-4.6-0.4-8.9-0.9-13.2-1.3c0.3,0.1,0.6,0.3,0.9,0.4c8,3.7,9.9,4.6,11.8,7.4h0c0.3,0.4,0.6,0.9,0.8,1.4c-0.2-0.4-0.4-0.8-0.7-1.2
		c0.3,0.4,0.5,0.8,0.7,1.2c0.4,0.9,0.7,2,0.9,3c0,0.4,0.1,0.8,0.1,1.2c0-1.2-0.2-2.3-0.6-3.4c0.4,1.1,0.6,2.3,0.6,3.5h0
		c0,0.8-0.1,1.6-0.3,2.4c-0.3,1.4-0.9,2.7-1.8,3.9c-0.2,0.2-0.5,0.6-0.9,1.1c-0.1,0.1-0.2,0.2-0.4,0.4c-0.5,0.5-1,0.9-1.5,1.3
		c-0.2,0.1-0.4,0.3-0.6,0.4c-0.3,0.2-0.7,0.4-1,0.6c-0.2,0.1-0.4,0.2-0.6,0.3c-0.2,0.1-0.6,0.3-1,0.4c-0.1,0.1-0.3,0.1-0.4,0.2
		c-0.3,0.1-0.6,0.2-1,0.4c-0.2,0.1-0.5,0.2-0.9,0.3c-0.1,0-0.3,0.1-0.4,0.1l-1,0.3c0,0-0.1,0-0.2,0c-0.5,0.1-1,0.2-1.5,0.3
		c-0.1,0-0.4,0.1-0.6,0.1c0,0-0.8,0.1-0.9,0.1c-0.5,0.1-1,0.2-1.6,0.2l-0.5,0.1c-2.8,0.3-6,0.6-9.6,0.7l-1.8,0l-1.9,0l-0.6,0
		C370.9,383.2,369.5,383.2,369.5,383.2z"/>
	<g>
		<g>
			<path class="st1" d="M376.9,109.6c-15.2-0.6-35.1-2.3-51.9-1.8c12.3-7.4,24-11.2,30.7-10.9C360.5,97.1,362.4,99.6,376.9,109.6z"
				/>
			<path class="st1" d="M508.9,155c-2.2,6.3-0.6,15.3,5.7,24.6c10.1,14.7,14.2,26.6,0.6,35.6c-2,1.3-25.6-0.2-74.2-14c0,0,0,0,0,0
				c-14.6-2.3-25,5-28.2,13.1c4.2,1.3,8.3,2.5,12.1,3.5c13.8,3.6,24.7,15.2,21.4,27.6c-0.5,2-2.2,6.6-5.8,6
				c-5.1-0.8-10.3-1.8-15.7-3.1c0,0,0,0,0,0c-7.5,0.1-12.7,3.4-16.2,8.5c19.9,4.4,43.2,7,70,6c-14.3,10.8-31,24.1-50.9,24.1
				c-9.6,0-26.4-6.5-44.5-15.8c0-0.1,0-0.2,0-0.3c0-0.5,0-0.9-0.1-1.3c0-0.3,0-0.7-0.1-1c0-0.3,0-0.7-0.1-1
				c-0.3-3.4-0.8-6.6-1.5-9.4c-0.9-3.4-1.9-6.5-3.1-9.4v0c-0.1-0.3-0.2-0.5-0.3-0.8c-2.6-6.1-5.8-11.3-8.9-17.2
				c-0.2-0.5-0.5-0.9-0.7-1.4c-1.1-2-2.1-4.2-3.1-6.5c-0.3-0.6-0.5-1.3-0.8-1.9c-0.3-0.7-0.5-1.3-0.8-2c-0.3-0.7-0.5-1.4-0.8-2.1
				c-0.2-0.7-0.5-1.4-0.7-2.2c-0.2-0.8-0.4-1.7-0.5-2.7c0-0.2,0-0.5-0.1-0.8c0-0.1,0-0.3,0-0.5c0-0.1,0-0.3,0-0.5c0-0.1,0-0.3,0-0.4
				c0-0.2,0-0.3,0-0.5c0-0.3,0-0.6,0-1v-0.3c0-0.9,0.1-1.9,0.1-2.9c0.1-1,0.1-2,0.2-3.1c0,0,0,0,0,0c0.1-1.1,0.1-2.1,0.2-3.2
				c0.1-1.1,0.1-2.2,0.2-3.4c0-0.4,0-0.8,0.1-1.3c0-0.4,0-0.8,0-1.2v0c0-0.6,0.1-1.2,0.1-1.8c0-0.7,0-1.4,0-2v-0.4c0-0.5,0-1,0-1.4
				c0-0.5,0-1-0.1-1.5v-0.1c0-0.1,0-0.3,0-0.4c0,0,0-0.1,0-0.1c0-0.8-0.1-1.5-0.1-2.2c0-0.4-0.1-0.8-0.1-1.2c0-0.1,0-0.2,0-0.3
				c-0.1-0.7-0.2-1.3-0.3-2c-0.2-1.1-0.4-2.2-0.7-3.2c1-0.3,2-0.6,3-0.9c0,0,0,0,0,0c9.3-2.8,18.1-5.5,25.6-7.4
				c17.1-4.2,21.8-10.6,31.7-20.5c2-2,5-5.6,8.6-9.9c-19.6-7.7-34.2-16-44.2-22.3c-3-1.9-5.6-3.7-7.8-5.1c-0.3-0.2-0.6-0.4-0.9-0.7
				c-14.5-10-16.4-12.4-21.1-12.7c-6.8-0.3-18.4,3.5-30.7,10.9c-13.7,8.2-28.2,20.6-37.9,36.2c-8,12.9-14.9,14.5-15.3,10.4
				c0,0,0,0,0,0c-0.1-0.5,0-1,0.2-1.7c4-15.9,17.5-37.9,33.4-56.1c9.2-10.4,19.1-19.5,28.6-25.5c4.2-2.6,8.2-4.7,12.1-6
				c18.7-6.2,17.8,19.1,52,31.6c2.7,1,5.6,1.9,8.8,2.7c17.7,4.5,34.1,6.2,49.2,6.8c66.4,2.3,108.4-18.7,135,69.3
				C560.5,146.3,541.8,155.2,508.9,155z"/>
			<path class="st1" d="M334.1,71.1c-9.5,6-19.5,15.1-28.6,25.5c-16,18.2-29.4,40.2-33.4,56.1c-0.2,0.6-0.2,1.2-0.2,1.7c0,0,0,0,0,0
				c-1.5,9.1-14.3,16-10.9,4.6c0.4-1.4,0.9-2.8,1.3-4.2c9.7-30.1,25.8-57.3,37.6-71.7c3.9-4.8,7.4-8.2,9.9-9.7
				C316.7,69.2,327.3,70.2,334.1,71.1z"/>
		</g>
		<path class="st2" d="M567.1,126.6c-29.2-14.5-64.6-6.2-98.6-7.3c-28.3-0.9-54.5-10.9-73.4-23.8c1,0.4,2,0.8,3.1,1.2
			c2.7,1,5.6,1.9,8.8,2.7c17.7,4.5,34.1,6.2,49.2,6.8C505.3,107.9,541,96.9,567.1,126.6z"/>
		<g>
			<path class="st3" d="M441.1,201.3c0,0-0.1,0-0.1,0c-0.3-0.1-0.7-0.1-1-0.1c-0.3,0-0.7-0.1-1-0.1c-0.2,0-0.5-0.1-0.7-0.1
				c-0.4,0-0.8-0.1-1.2-0.1c-1.2,0-2.4,0-3.5,0c-0.3,0-0.7,0-1,0.1c-10.2,1-17.3,6.9-19.8,13.4c3.5,1.1,7,2.2,10.2,3.1
				c-19.9-4.9-41.6-4.6-61.3-12.9c0,0,0-0.1,0-0.1c0-0.4,0.1-0.9,0.1-1.3c0-0.1,0-0.3,0-0.4c0.1-0.6,0.1-1.3,0.1-2
				c0-0.4,0.1-0.8,0.1-1.3c0-0.4,0.1-0.8,0.1-1.3c0,0,0,0,0,0c0-0.4,0.1-0.9,0.1-1.3c0.1-2,0.2-3.9,0.2-5.9c0.1-2.3,0-4.7-0.1-7
				c-0.1-0.7-0.1-1.4-0.2-2.1c0-0.2,0-0.5-0.1-0.7c0-0.2,0-0.3-0.1-0.5c0,0,0,0,0-0.1c0-0.1,0-0.2-0.1-0.3c0,0,0-0.1,0-0.1
				c0-0.2,0-0.4-0.1-0.6c0,0,0,0,0,0c0-0.2-0.1-0.4-0.1-0.6c0-0.2-0.1-0.3-0.1-0.4c0,0,0-0.1,0-0.1c0-0.1,0-0.2-0.1-0.3
				c0-0.2-0.1-0.4-0.1-0.6v0c0-0.1,0-0.2-0.1-0.3c0,0,0,0,0,0c0-0.2-0.1-0.4-0.1-0.5c0-0.1,0-0.2-0.1-0.3c1-0.3,2-0.6,3-0.9
				c0,0,0,0,0,0C394.6,187.1,420.2,195.4,441.1,201.3z"/>
			<path class="st3" d="M421.7,248.6c-3.1,0.4-5.7,1.5-7.9,3c0,0,0,0,0,0c-2,1.2-3.7,3-5.2,5.3c-2.9-0.6-5.8-1.3-8.5-2
				c-7.9-2-15.2-4.4-21.9-6.8c-1.8-4.2-3.8-7.9-5.9-11.8C390.3,243,406.2,246.1,421.7,248.6z"/>
			<path class="st3" d="M376.8,109.6c-1.1,0-2.2-0.1-3.3-0.1c-0.1,0-0.1,0-0.2,0c-0.1,0-0.2,0-0.3,0c-1.7-0.1-3.5-0.2-5.3-0.3
				c-0.6,0-1.1-0.1-1.7-0.1c-0.6,0-1.1-0.1-1.7-0.1c-0.7,0-1.4-0.1-2.2-0.1c-0.5,0-0.9-0.1-1.4-0.1c-0.6,0-1.1-0.1-1.7-0.1
				c-1.3-0.1-2.7-0.2-4.1-0.2c-0.5,0-0.9-0.1-1.4-0.1h-0.1c0,0,0,0,0,0c-0.5,0-1,0-1.4-0.1c-1.5-0.1-2.9-0.1-4.4-0.2
				c-0.4,0-0.9,0-1.4-0.1c-1.3,0-2.5-0.1-3.8-0.1c-0.6,0-1.3,0-2-0.1c-0.3,0-0.7,0-1,0h0c-0.2,0-0.5,0-0.7,0c-0.5,0-1,0-1.5,0h-0.2
				c-0.6,0-1.2,0-1.8,0h-0.1c-0.5,0-1,0-1.5,0c-0.3,0-0.5,0-0.8,0h-0.7c-1.2,0-2.3,0-3.4,0c-0.9,0-1.9,0-2.8,0c-0.2,0-0.5,0-0.7,0
				c12.3-7.4,23.9-11.2,30.7-10.9c0.1,0,0.2,0,0.3,0c0,0,0.1,0,0.1,0c0.2,0,0.3,0,0.4,0.1c0.1,0,0.1,0,0.1,0c0.1,0,0.2,0,0.3,0.1
				c0.2,0,0.4,0.1,0.6,0.1c0.1,0,0.2,0.1,0.3,0.1c0,0,0,0,0.1,0c0,0,0.1,0,0.1,0c0.3,0.1,0.6,0.2,1,0.4c0.2,0.1,0.3,0.1,0.5,0.2
				c0.1,0,0.1,0.1,0.2,0.1c0,0,0.1,0,0.1,0.1c0.1,0,0.1,0.1,0.2,0.1h0c0.2,0.1,0.3,0.2,0.5,0.3c0.1,0,0.1,0.1,0.2,0.1
				c0.1,0.1,0.2,0.1,0.4,0.2c0.1,0,0.1,0.1,0.2,0.1c0,0,0.1,0,0.1,0c0.2,0.1,0.4,0.3,0.7,0.4c0.1,0.1,0.2,0.1,0.3,0.2
				c0.4,0.2,0.7,0.5,1.1,0.8c0,0,0.1,0.1,0.1,0.1c0.2,0.1,0.3,0.2,0.5,0.3c0.1,0.1,0.2,0.1,0.3,0.2c0.2,0.1,0.4,0.3,0.6,0.4
				c0.3,0.2,0.6,0.4,0.9,0.7c2.1,1.5,4.7,3.3,8.1,5.7c0.4,0.3,0.8,0.6,1.2,0.9h0c0.3,0.2,0.7,0.5,1,0.7
				C376.6,109.4,376.7,109.5,376.8,109.6z"/>
		</g>
		<g>
			<path class="st4" d="M522.6,194.8c-9.5-17.5-17.4-19.4-41-25.2c-23.7-5.9-38.7-9.7-55.1-14.7c-3.5-1.1-7.7-1.2-12-0.8
				c0.2-0.2,0.4-0.4,0.6-0.6c1.6-1.6,3.2-3.3,5-5.1c0.3-0.3,0.6-0.6,0.9-0.9c0.2-0.2,0.4-0.5,0.7-0.7c0.2-0.2,0.5-0.5,0.7-0.8
				c0.1-0.2,0.3-0.3,0.4-0.4c0.3-0.3,0.5-0.6,0.8-0.9c0,0,0,0,0,0c0.3-0.3,0.6-0.7,0.9-1c0,0,0,0,0,0c0.3-0.3,0.6-0.7,0.9-1.1
				c0.5-0.6,1-1.2,1.5-1.8c0.5-0.6,1-1.2,1.6-1.9c0.3-0.4,0.7-0.8,1-1.3c13.5,5.3,29.3,10.2,47.6,14c12,2.5,22.3,3.2,31.4,3.3h0
				c-2.2,6.3-0.6,15.3,5.7,24.6C518.2,185.1,521.1,190.1,522.6,194.8z"/>
			<path class="st5" d="M521,209.6c-1.4,2-3.4,3.8-6,5.6c-0.4,0.3-1.9,0.4-4.3,0.3c-0.4,0-0.8,0-1.3,0c-0.3,0-0.7,0-1.1-0.1
				c-0.1,0-0.2,0-0.3,0c-0.2,0-0.4,0-0.7-0.1c-0.1,0-0.2,0-0.4,0c-0.4,0-0.7-0.1-1.1-0.1c-1.9-0.2-4.2-0.5-6.7-0.8
				c-0.2,0-0.5-0.1-0.7-0.1c-0.9-0.1-1.9-0.3-2.9-0.4c-0.3,0-0.6-0.1-0.9-0.1c-0.7-0.1-1.4-0.2-2.1-0.3c-0.7-0.1-1.3-0.2-2-0.3
				c-1.1-0.2-2.2-0.4-3.4-0.6c-1.1-0.2-2.2-0.4-3.4-0.7c-0.8-0.2-1.7-0.3-2.5-0.5c-1.6-0.3-3.3-0.7-5.1-1.1c-0.5-0.1-1-0.2-1.5-0.3
				c-1.8-0.4-3.6-0.8-5.5-1.3c0,0-0.1,0-0.1,0c-5.3-1.3-11.1-2.7-17.4-4.4c-3.5-0.9-7.1-1.9-10.8-3c0,0,0,0,0,0
				c-20.9-5.9-46.5-14.2-77.1-25.7c0.3-0.1,0.6-0.2,0.8-0.3c1.3-0.4,2.7-0.8,4-1.2c1-0.3,2-0.6,3-0.9c0.2-0.1,0.4-0.1,0.6-0.2
				c1.1-0.3,2.1-0.6,3.2-1c2-0.6,3.9-1.1,5.7-1.7c1.1-0.3,2.2-0.6,3.2-0.9c1.7-0.5,3.4-0.9,5-1.3c1-0.2,1.9-0.5,2.8-0.8
				c0.1,2.5,2.1,5.2,7,7.6C419,184.8,486.7,207.5,521,209.6z"/>
			<path class="st5" d="M591.2,175.2c-16.8-16-30.1-20.5-44-21.3c-0.4,0-0.9,0-1.4-0.1c-0.7,0-1.4-0.1-2.2-0.1c-0.8,0-1.6,0-2.4,0
				c-0.7,0-1.4,0-2.1,0c-0.4,0-0.9,0-1.4,0c-0.4,0-0.9,0-1.4,0c-0.6,0-1.2,0-1.7,0.1c-0.8,0-1.6,0.1-2.4,0.1
				c-1.2,0.1-2.5,0.1-3.8,0.2c-0.7,0-1.3,0.1-2,0.1c-1.3,0.1-2.6,0.1-3.9,0.2c-0.7,0-1.3,0.1-2,0.1c-0.6,0-1.3,0.1-1.9,0.1
				c-0.5,0-0.9,0-1.4,0c-0.5,0-1,0-1.5,0c-1,0-2,0.1-3,0.1c-0.9,0-1.8,0-2.6,0H509c-9.2,0-19.5-0.8-31.5-3.3
				c-17.8-3.7-34.4-8.9-47.7-14c-0.4-0.2-0.8-0.3-1.1-0.5c-19.1-7.6-33.3-15.7-43-21.9c-3-1.9-5.6-3.7-7.8-5.1
				c-0.3-0.2-0.6-0.4-0.8-0.6c3,0.1,5.9,0.2,8.5,0.2c4.2,2.6,8.9,5.3,13.6,7.8c21.7,11.4,47,20.8,78.3,26.3
				c31.2,5.5,53-3.7,75.2-1.1c13.5,1.5,24.7,8.9,34.3,19.8c0,0,0,0,0,0C588.4,166.5,589.8,170.7,591.2,175.2z"/>
			<g>
				<path class="st6" d="M478.7,263c-14.3,10.8-30.9,24.1-50.9,24.1c-0.6,0-1.1,0-1.7-0.1c-4.2-0.3-9.6-1.6-15.7-3.8
					c-0.1,0-0.1-0.1-0.2-0.1c-7.8-2.8-16.9-7-26.8-12.2c0-0.1,0-0.2,0-0.3c0-0.4,0-0.7,0-1c-0.2-3.8-1.9-15.3-5.3-21.7
					c4.8,1.8,9.4,3.1,15.7,5.1c-6.7,21,36.4,25.9,48.9,23.1c11.2-2.5,21.7-7.2,30.9-13C475.2,263.2,476.9,263.1,478.7,263z"/>
				<path class="st5" d="M446.3,246c-0.6,2-2.1,5.3-4.8,5.6c-0.1,0-0.3,0-0.5,0c-0.1,0-0.2,0-0.3,0c-0.7-0.1-1.3-0.2-2-0.3
					c-0.1,0-0.1,0-0.2,0c-4.4-0.7-8.9-1.7-13.6-2.8c0,0,0,0,0,0c-1.1,0-2.1,0.1-3,0.2c-0.5-0.1-1-0.2-1.6-0.2
					c-2.4-0.4-4.8-0.8-7.3-1.2c-0.4-0.1-0.7-0.1-1.1-0.2c-1.3-0.2-2.7-0.5-4.1-0.8c-0.9-0.2-1.7-0.3-2.6-0.5
					c-0.5-0.1-1.1-0.2-1.6-0.3c-1.4-0.3-2.8-0.6-4.3-1c-2.2-0.5-4.3-1-6.5-1.6c-2.4-0.6-4.9-1.3-7.4-2.1c-1.1-0.3-2.1-0.7-3.2-1
					c-1.8-0.6-3.7-1.2-5.5-1.8c-0.7-0.2-1.4-0.5-2-0.7c-0.8-0.3-1.6-0.6-2.4-0.9c-1.1-2-2.2-4-3.3-6.1c-0.1-0.3-0.3-0.5-0.4-0.8
					c-0.2-0.4-0.5-0.9-0.7-1.3c-0.2-0.5-0.5-1-0.7-1.5c-0.6-1.2-1.1-2.4-1.7-3.6c-0.1-0.1-0.1-0.3-0.2-0.4c-0.1-0.2-0.2-0.3-0.2-0.5
					c-0.1-0.3-0.3-0.6-0.4-0.9c-0.3-0.8-0.6-1.6-0.9-2.4c-0.2-0.6-0.4-1.1-0.6-1.7c-0.3-0.7-0.5-1.4-0.7-2.2
					c-0.8-2.3-0.8-6-0.5-10.2c2.7,1.1,5.5,2.1,8.3,3c0.4,0.1,0.7,0.2,1.1,0.3c9.4,2.9,18.9,4.2,28.4,5.5c0.2,0,0.4,0,0.6,0.1
					c7.8,1.1,15.5,2.2,22.9,4.1c-0.8-0.2-1.6-0.5-2.4-0.7c0.9,0.2,1.9,0.4,2.9,0.7c0.1,0,0.1,0,0.2,0c0.4,0.1,0.8,0.2,1.2,0.3
					c8.5,2.2,15.9,7.5,19.6,14c-6.9-4.5-20.1-7.2-34.2-9.2c-18.3-2.5-31-7.5-31.1,0c0,4.4,2.1,10.2,13.9,13.6
					C410.2,241.2,436.9,247.3,446.3,246z"/>
			</g>
		</g>
		<path class="st7" d="M310,110.2c-0.2,0-0.4,0.1-0.5,0.2c-0.1,0-0.2,0-0.2,0.1c-7,2.3-12.6,6-17.2,10.8c-4.8,5-8.6,11.2-12,18
			c-2.8,2.7-7.8,7.5-10,9.6c-17.7,17.1-60.1,29.5-91.2,28.8c-0.8-7-1.8-13.2-2.7-17.5c0,0,0,0,0,0c-0.8-3.8-1.4-6.2-1.6-6.2
			c-0.8-0.2-1.2,1.6-1.4,1.8c-0.5,0.6,0.2-1.5,0.3-2.3c0.1-2.1,0.2-4.5-0.2-6.5c-0.1-0.5-1,1.1-1.2,0.7c-0.6-1,0-2.9-0.3-4
			c-0.5-2.2-2.1-4.4-3.2-6.3C156.4,116.5,147.3,91,157,67.4c0.5-1.2,1.1-2.5,1.7-3.7c0.2-0.3,0.3-0.6,0.5-0.9
			c2.4-4.5,5.2-8.2,8.8-11.3c0,0,0,0,0.1,0c0.2-0.1,0.3-0.3,0.5-0.4c-2.3,1.3-8.3-1.4-7.3-5.2c0.1-0.4,1.3,0.9,4,0.7
			c2.7-0.2,4.2-1.5,4.3-1.7c0.1-0.5-1-0.5-1.5-0.5c-7.2-0.3-11.6-8.7-3.9-14.3c0.2-0.2,1.4,3.1,3.6,4.4c3,1.8,7.1,1.7,7.1,0.7
			c-6.4-3.6-3.9-13.9,4.6-16c0.2,0-0.8,8.5,8.9,9.6c-1.4-5.7,0.2-11.1,4-14.6c7.4-6.7,17.9-2.8,18.1-2.7c0.9,0.4-4.8,3-4.6,8.4
			c0.1,4.1,3,6.2,5.8,6.6c0.6,0.1,1.9,0.1,1.9,0.1s-3.3-5.6,3.1-7.1c0.1,0-0.6,2.5,0.7,4.2c1.2,1.5,4.2,2,5.7,2.5
			c7.8,2.2,15.5,3.6,22.9,6.6C281.5,46.5,301.9,76.8,310,110.2z"/>
		<path class="st8" d="M471.9,90.3c-2.2,2.2-7,7-12.8,12.9c-8.9-3.1-15.1-12.7-15.6-19.9c2.1-3.2-1.4-6.5-4.5-11.7
			c-3.1-5.2-4.5-13.8-4.1-20.5c-0.1-3.8,7.2-7.8,9.2-6.2c0.6-3.8,18.9-11.9,22.4-9.3c1.5,1.1,4.9,5.2,8.2,10.3h0
			c2.6,4,5.2,8.8,7,13.2c1.2,2.9,1.9,5.8,2.1,8.3C484.8,78.8,479,83.1,471.9,90.3z"/>
		<path class="st8" d="M65.4,266.2c-10.8,5.2-21.1,7.6-29.9,10.1c-7,2-24.6,12-25.4,10.7c-0.4-0.7,1-4.3,3.3-8.7c0,0,0,0,0,0
			c4.1-8,10.8-18.8,13.5-20.7c4.2-3,19.3-9.1,24.2-12.1C57,248.7,65,259.8,65.4,266.2z"/>
		<path class="st9" d="M459.1,103.2c-12.9,13.2-30.9,37.5-37.8,44.4c-9.9,9.9-14.6,16.3-31.7,20.5c-8.3,2-18.2,5.2-28.6,8.3
			c3.7,12.4-1.1,31.2,1.2,38.4c1.9,5.9,4.2,10.9,6.6,15.4c-2.1,23.1-28.6,42.7-54.3,54.9c-24.1,11.4-47.6,16.2-47.6,16.2
			c-6.7,0.9-13.2,1.1-19.4,0.6c-9.5-4.4-17-9.2-23.3-14.1c-17.7-13.9-24.7-31.2-29-40.8c-2-0.8-5.8-2.7-7.2-4.4
			c-0.9-1.2-2.4-4-3.8-8.5c-2-6.2-4-15.8-4.6-29.2c-0.6-12.8-0.5-22.6,0-19.9c-0.2-2.6-0.4-5.1-0.7-7.5
			c31.1,0.7,73.5-11.7,91.2-28.8c2.1-2,7.2-6.9,10-9.6c3.3-6.8,7.1-13,12-18c4.6-4.8,10.2-8.5,17.2-10.8c0.1,0,0.1,0,0.2-0.1
			c4.3-1.4,9.1-2.2,14.6-2.4c21.6-0.8,48.6,2.2,64.3,1.9c2.7-5.3,6.1-10.3,10.1-13.1c6.6-4.7,23.7-6.4,37.4-10.6
			c3-0.9,5.6-1.8,7.7-2.7C444.1,90.4,450.2,100.1,459.1,103.2z"/>
		<path class="st9" d="M184.2,234.1c-18.6,7.1-37.3,9.1-51.7,11.5c-6.7,1.1-12.3,4.4-22.2,7.3c-13.9,4.1-34,8.7-44.9,13.4
			c-0.4-6.5-8.4-17.5-14.2-20.8c5-3,26.1-23.7,42.6-34.2c11.7-7.4,19.7-7.2,22.5-8.7c2-1,15.2-15.7,26.9-26.2
			c11.6-10.4,21.5-15.2,33-16.5c0.9,4.3,1.9,10.5,2.7,17.5c0.3,2.4,0.5,5,0.7,7.5c-0.6-2.7-0.6,7.2,0,19.9
			C180.2,218.3,182.2,227.8,184.2,234.1z"/>
		<path class="st9" d="M523.9,369.8c-0.5,2.7-16.7,3-29.6-0.5c-16.3-4.4-29.8-11.9-33.3-12.8c-52.1-13-95.6-5.9-116.1-24
			c9.2-3,17.3-8.5,22.5-15.1c8.8-9.7,13.3-21.4,15.1-32.4c17.6,9.5,27.3,19.5,45.1,22.5c20.4,3.5,26.5,8.6,35.8,23.9
			c1.8,3,6-6,11.7-3c10.3,5.3,8.3,12.4,23.5,23.6C506.1,357.7,524.5,366.1,523.9,369.8z"/>
		<path class="st5" d="M182.7,228.8c-0.1-0.4-0.2-0.8-0.3-1.3c-0.2-1.1-0.5-2.3-0.7-3.6c-0.1-0.5-0.2-1.1-0.3-1.7
			c-0.1-0.8-2.3-14.3-2.3-30.1c-11.5,7.5-33.8,1.9-46.3-5.9c5.6,16.3,42.2,12.1,42.8,17.6c0.1,0.7,0.7,7.2-0.1,9.5
			c-3.3,8.7-12.6,11.5-19.3,13.7c-15.7,5.2-28.7,7.1-35.3,6.8c-19-0.9-31.4,11.9-44,16.2c-5.2,1.8-10,4.2-14.9,7
			c0.1,0.2,0.2,0.4,0.4,0.6c-0.1-0.2-0.2-0.4-0.4-0.6c-6.9,3.9-14.1,8.2-22.7,11.7c-9.6,3.9-17.9,4.2-21.7,2.1c-1,1.8-2,3.5-2.9,5.2
			c-0.1,0.2-0.2,0.5-0.4,0.7c-0.4,0.7-0.7,1.4-1.1,2.1c-0.1,0.2-0.2,0.4-0.3,0.5c-1.3,2.5-2.2,4.7-2.6,6.1c-0.1,0.2-0.1,0.4-0.1,0.5
			c-0.1,0.5-0.1,0.9,0,1c0.1,0.2,0.6,0.1,1.4-0.1c0.2,0,0.3-0.1,0.5-0.2c0.1,0,0.2-0.1,0.3-0.1c1-0.4,2.3-0.9,3.8-1.6
			c0.5-0.2,1.1-0.5,1.7-0.8c0,0,0,0,0,0c1.1-0.5,2.2-1,3.4-1.6c0.2-0.1,0.4-0.2,0.6-0.3c0.5-0.3,1.1-0.5,1.6-0.8
			c1-0.5,2-0.9,2.9-1.4c0.6-0.3,1.3-0.6,1.9-0.9c1.3-0.6,2.5-1.1,3.6-1.6c0.6-0.2,1.1-0.5,1.6-0.6c0.8-0.3,1.5-0.5,2.1-0.7
			c6.1-1.8,12.8-3.5,19.9-6c3.2-1.2,6.6-2.5,10-4.1c0-0.2,0-0.5-0.1-0.7c0-0.2-0.1-0.3-0.1-0.5c-0.1-0.7-0.3-1.3-0.5-2
			c0.4,1.2,0.7,2.3,0.7,3.3c10.9-4.7,31-9.3,44.9-13.4c2.2-0.6,4.1-1.3,5.9-1.9c1-0.4,2-0.7,2.9-1.1c5-1.9,8.9-3.6,13.3-4.3
			c0.6-0.1,1.2-0.2,1.8-0.3c0.8-0.1,1.6-0.2,2.3-0.4c1.4-0.2,2.9-0.5,4.4-0.7c12.9-2,27.8-4.4,43.1-10.3
			C183.7,232.4,183.2,230.7,182.7,228.8z M64.5,262.2C64.5,262.2,64.5,262.2,64.5,262.2c-0.3-0.7-0.6-1.5-1-2.2
			C63.9,260.7,64.2,261.5,64.5,262.2L64.5,262.2L64.5,262.2z"/>
		<path class="st5" d="M372.2,109.3c-40.9,3.1-66.7,23.8-83.8,43.3c-4.2,4.8-7.3,7.1-12.1,8.2c-1.2,1.4-3,3.5-6,5.3
			c-3,1.8-6.4,0.5-8.7-1.4c0.3,0.2,0.7,0.3,1,0.3c0.1,0,0.3,0,0.4,0c3-0.2,8.1-4.8,9.1-10.2c0.1,0.5,0.3,0.9,0.6,1.2
			c0.4,0.4,0.9,0.5,1.5,0.5c0.1,0,0.1,0,0.2,0c2.7-0.1,7.7-3.7,13.1-12.4c9.7-15.6,24.2-28.1,37.9-36.2c0.5,0,1,0,1.5,0
			c0.4,0,0.8,0,1.2,0c0.6,0,1.1,0,1.7,0c0.1,0,0.2,0,0.3,0c0.4,0,0.8,0,1.3,0c0.3,0,0.7,0,1,0c0.4,0,0.9,0,1.3,0h0
			c0.3,0,0.6,0,0.9,0c0.1,0,0.2,0,0.3,0h0c0.4,0,0.7,0,1.1,0c0.4,0,0.8,0,1.2,0c0.6,0,1.2,0,1.7,0h0.1c0,0,0,0,0,0
			c0.4,0,0.9,0,1.3,0c0.2,0,0.3,0,0.5,0c0,0,0,0,0,0c0.2,0,0.4,0,0.6,0c0.4,0,0.7,0,1.1,0c2.1,0.1,4.2,0.1,6.2,0.2
			c1.1,0,2.2,0.1,3.2,0.1C354.1,108.4,370.1,109.2,372.2,109.3z"/>
		<g>
			<path class="st10" d="M266.5,300.8c-2,1.7-3.9,3.5-5.6,5.2c-3.2-0.6-6.6-1.4-9.2-2.5c-1.6-0.7-3.1-1.3-4.6-2
				C253.3,302,259.8,301.7,266.5,300.8z"/>
			<path class="st10" d="M367.3,317.7c6.4-8.2,8.6-18.2,3.3-28.2c-6.7-12.5-19.5-16.3-41.2-13.3c14.8-9.7,30.6-23.8,36.2-36.3
				c1.4-3.1,2.3-6,3.1-9.5c4.8,9.2,9.9,16.8,12.7,28.1C385.3,273.5,384.2,299.2,367.3,317.7z"/>
		</g>
		<g>
			<path class="st5" d="M453.8,69.7c-0.7-0.9-1.1-1.3-2.8-2.5c-3.6,1-12.8-8.3-15.9-16.2c-0.4,2.8,0,8.5,0.7,10.7
				c0.6,1.7,20.3,17.7,19.8,19.4c-1,3.4-1,5.6-1.1,8.2c-0.3,3.8-1.8,8.3-6.9,12.2c-5.1,3.9-29.9,10.2-37.3,22.9
				c-7.4,12.8-14.8,25.8-35.2,27.6s-33.3,3-45.4,6.5c-12,3.5-13.2,8.2-15.3,16.9c-2,8.7-2.1,9.3-3.5,12.3
				c19.6-2.4,43.4-9.3,66.4-16.2s29-8.4,36.8-16.6c7.8-8.2,28.9-33.5,35.5-41.2c6.6-7.6,18-18.9,23.7-24.9c3.5-3.7,7.5-7.1,9.6-11.5
				c0.8-1.7-2.1-4.4-5.4-3.7c-3.8,0.8-3.8,3.1-11,6.4C463.9,81,457.5,74.5,453.8,69.7z"/>
			<path class="st5" d="M483.8,72.7c-4.7-16.7-15.2-29.8-19.4-33.3c-2.7-2.3-10,1.1-14.7,0.5c5.9-3.3,14.6-6.2,16.9-4.5
				c1.5,1.1,4.9,5.2,8.2,10.3h0c2.6,4,5.2,8.8,7,13.2c1.2,2.9,1.9,5.8,2.1,8.3C484.1,69.3,484.1,71.1,483.8,72.7z"/>
		</g>
		<path class="st11" d="M169.6,50.1c-4.6,3.6-8.1,7.9-10.9,13.5c-12.3,24.7-3,51.7,9.9,73.5c1.1,1.9,2.7,4.1,3.2,6.3
			c0.2,1.1-0.3,3,0.3,4c0.2,0.4,1.1-1.2,1.2-0.7c0.4,2.1,0.3,4.5,0.2,6.5c0,0.8-0.8,2.9-0.3,2.3c0.2-0.2,0.6-2,1.4-1.8
			c0.5,0.1,3.8,14.9,5,31.3"/>
		<path class="st5" d="M197.9,252.8c15.2-2.4,38.9-17,39.4-17s5.6-1,18.6-2.7s28-4.3,35.1-7.1c2.7-1.1,5.1-4.8,7.1-10.4
			c2.1-5.8,4.7-24.1,5.5-31c-2.7,12.5-10.4,32.1-12.5,33.7c-2.6,1.9-3.5,2.3-7.7,3.6c-13.6,4.3-44.3,7.4-47.5,8.2
			c-2.2,0.5-30.6,18-41.6,15.3"/>
		<path class="st5" d="M245.5,32.5c-7.4-3-15.1-4.4-22.9-6.6c-1.5-0.4-4.5-1-5.7-2.5c-1.3-1.6-0.7-4.2-0.8-4.2
			c-6.4,1.5-3.1,7.1-3.1,7.1s-1.3,0-1.9-0.1c-2.7-0.4-5.7-2.5-5.8-6.6c-0.1-5.4,5.5-8,4.6-8.4c-0.2-0.1-10.8-4.1-18.1,2.6
			c-4.1,3.7-5.8,8.5-3.9,14.5c-9.7-1.1-8.9-9.5-9-9.5c-8.5,2.1-10.9,12.4-4.6,16c0.1,1-4.1,1.1-7.1-0.7c-2.2-1.3-3.3-4.6-3.6-4.4
			c-7.7,5.6-3.4,14,3.9,14.3c0.5,0,1.7,0,1.5,0.5c0,0.2-1.6,1.4-4.3,1.7c-2.7,0.2-3.9-1.1-4-0.7c-0.9,3.8,5.4,6.6,7.6,5.2
			c-4.4,3.4-7.3,7.2-9.9,12.4c4-5.5,11.2-11.2,21-15.3c-1.3-0.9-0.5-3.9,1.5-4.6c-0.3,2.2,3.8,2.8,8.3,1.3c-1.3-1.2-2.9-5.4,2.5-7.2
			c-2.3,4,3.9,6.5,6.4,5.7c2.8-0.9,2.5-2.3,1.3-3.3c2-1.3,4.3,1.1,5.4,1.5c2.2,0.9,4.6,0.3,10.4,0.8c33.3,2.8,52.1,15.5,61.6,33.1
			c5.6,10.5,12,26.9,14.9,45.8c4.6-4.8,10.2-8.5,17.2-10.8C301.4,76.3,281.8,46.5,245.5,32.5z"/>
		<path class="st11" d="M188.5,29.7c-1.9-6-0.3-11.9,3.7-15.6c7.4-6.7,17.9-2.8,18.1-2.7c0.9,0.4-4.8,3-4.6,8.4
			c0.1,4.1,3,6.2,5.8,6.6c0.6,0.1,1.9,0.1,1.9,0.1s-3.3-5.5,3.1-7.1c0.1,0-0.6,2.5,0.7,4.2c1.2,1.5,4.2,2,5.7,2.5
			c7.8,2.2,15.5,3.6,22.9,6.6c36.3,13.9,55.9,43.6,63.7,77.6"/>
		<path class="st11" d="M179.6,185c-0.6-2.7-0.6,7.2,0,19.9c1.1,22.9,6.2,34.7,8.4,37.7c1.3,1.7,5.2,3.6,7.2,4.4
			c4.3,9.5,11.2,26.9,29,40.8c7.2,5.7,16.1,11.2,27.9,16.1c2.8,1.2,5.8,2,9.1,2.6"/>
		<path class="st12" d="M223.4,51"/>
		<path class="st13" d="M321.9,156.9"/>
		<path class="st11" d="M321.9,156.9"/>
		<path class="st11" d="M361,176.4c3.7,12.4-1.1,31.2,1.2,38.4c5.8,17.9,15.1,26.5,19.3,43.5c3.7,15,2.6,40.7-14.2,59.2"/>
		<path class="st11" d="M177.8,177.4c31.1,1,74.4-11.4,92.3-28.7"/>
		<path class="st11" d="M168.2,50.8c-2.3,1.3-8-1.2-7-5c0.1-0.4,1.3,0.9,4,0.7c2.7-0.2,4.2-1.5,4.3-1.7c0.1-0.5-1-0.5-1.5-0.5
			c-7.2-0.3-11.6-8.7-3.9-14.3c0.2-0.2,1.4,3.1,3.6,4.4c3,1.8,7.1,1.7,7.1,0.7c-6.4-3.6-3.9-13.9,4.6-16c0.2,0-1.3,8.5,8.5,9.6"/>
		<g>
			<g>
				<path class="st14" d="M156.2,87.5c0.4-8.8,5.4-19,10.8-21.1c3.4-1.3,6.7-0.1,10.1,1.1c3,1.1,5.3,0.1,5.6-1.9
					c0.2-1.8-0.9-2.9-3-3.8c3.7,0.3,5,1.7,8.1,2.5c5.1,1.4,7.8,1.3,9,0.9c3.5-1.4,6.6-5.4,9.7-7.2c13.6-7.8,25.1-7.1,35.3,10.9
					c2.3,4.1,6.2,13.5,5.8,24.7c-0.6,16.3-4.6,25.6-12.1,36.7c-5.5,8.1-21.3,16.4-37.6,19.3c-12.3,2.1-18.4-2.5-26.8-17.4
					C163.7,119.5,157.5,104.5,156.2,87.5z"/>
				<path class="st15" d="M177.5,93.3c-4.7,1.2-8.8,9.5-3,20.5c4.2,7.9,4.3,13.6,9.8,16.4c9.1,4.5,21.1-2.2,26.2-9.8
					c6.1-9.2,5.1-11.6,1.4-21.8c-4-11.1-16.7-10.7-23.5-8.4L177.5,93.3z"/>
				<path class="st15" d="M156.2,87.9c-0.1,4.7,1.2,10.8,3.4,18.3c27.9-5.5,19.3-36.7,17.4-38.7c-4.2-1.6-7-2.5-10.4-0.9
					C164.1,67.7,156.5,73,156.2,87.9z"/>
				<path class="st15" d="M196.8,65.1c6.7,32.3,31.5,34.6,50.6,29.3c0.6-9.9-2.1-19-5.4-24.9c-3.3-5.8-9.5-15.5-19.3-16.2
					c-5.3-0.4-11.4,1.7-16.3,4.7C202.6,60.3,200.1,63.2,196.8,65.1z"/>
			</g>
			<path class="st11" d="M180.8,96.7c1.7,7.1,4.6,13,9,17.6c5.6,0,10.2-0.6,11.5-1.6c1.3-1,3.6-5,4.2-8.9"/>
			<path class="st11" d="M189.8,114.2c-0.7,0.9-1.6,2-3.4,2.2c-0.9-0.1-2-0.5-3-0.8"/>
			<g>
				<g>
					<path class="st0" d="M158.2,92.6c1.4,4.4,4.9,4,9.6,3.4c5.5-0.8,10.5-4.8,9.5-9.3c-1.2-5.1-6.2-6-13-3.9
						C158.7,84.4,156.6,87.6,158.2,92.6z"/>
					<path class="st16" d="M158,92c1-4.5,4.2-5.7,9.5-6.2c5-0.5,7.5,0.2,9.8,2.4c-0.2-6.6-6.2-7-13.1-5.3
						C159.2,84,156.9,87.2,158,92z"/>
					<path class="st10" d="M167.7,89.2c-0.3-2.6-2.6-4.5-5.2-4.2c-2.6,0.3-4.5,2.6-4.2,5.2c0.3,2.6,2.6,4.5,5.2,4.2
						C166,94.1,167.9,91.8,167.7,89.2z"/>
					<path class="st17" d="M158.2,92.6c1.6,4.3,5,4,9.6,3.4c5.5-0.7,10.4-4.7,9.5-9.3c-1-5.2-6.2-5.8-13-3.9
						C158.9,84.3,156.2,87.1,158.2,92.6z"/>
				</g>
				<circle class="st0" cx="166.3" cy="87.2" r="2.1"/>
				<circle class="st0" cx="165.8" cy="90.8" r="0.8"/>
			</g>
			<g>
				<g>
					<path class="st0" d="M207.7,81.7c2.1,3.9,7.7,1.8,13.2,0.4c7-1.8,13.7-4.3,11.1-11.2c-1.9-4.9-8.3-4.9-16.8-2
						C206.7,71.8,204.8,76.5,207.7,81.7z"/>
					<path class="st16" d="M206.8,79.8c1.6-4.8,6.6-7.2,13.4-8.4c5.9-1.1,9.7-0.6,12.1,0.9c-0.1-0.5-0.2-1-0.4-1.5
						c-1.9-4.9-8.3-4.9-16.8-2C207.7,71.4,205.4,75.4,206.8,79.8z"/>
					<path class="st11" d="M207.7,81.7c2.1,3.9,7.7,1.8,13.2,0.4c7-1.8,13.7-4.3,11.1-11.2c-1.9-4.9-8.3-4.9-16.8-2
						C206.7,71.8,204.8,76.5,207.7,81.7z"/>
				</g>
				<path class="st10" d="M217.5,75.1c-0.8-2.9-3.9-4.6-6.8-3.8c-2.9,0.8-4.6,3.9-3.8,6.8c0.8,2.9,3.9,4.6,6.8,3.8
					C216.6,81,218.3,78,217.5,75.1z"/>
				<circle class="st0" cx="215.5" cy="73.1" r="2.4"/>
				<circle class="st0" cx="215.7" cy="77.4" r="0.9"/>
			</g>
			<path class="st18" d="M172,96c-0.8-2.6,2.3-6,6.9-7.6c4.6-1.6,9.1-0.8,9.9,1.8c0.8,2.6-2.3,6-6.9,7.6
				C177.3,99.4,172.9,98.6,172,96z"/>
			<path class="st19" d="M196.8,65.1c18.1-6,29.6-12.8,35.7-11.8c4.7,0.8,12.2,4.1,17.1,6.9"/>
			<path class="st19" d="M178.9,68c-11.4,0-20.4-1.5-23.7-0.4c-2.3,0.8-4.7,3.6-8.7,7.4"/>
		</g>
		<path class="st11" d="M280,139.1c3.3-6.8,7.1-13,12-18c4.6-4.8,10.2-8.5,17.2-10.8c4.3-1.4,9.2-2.3,14.8-2.5
			c21.6-0.8,48.6,2.2,64.3,1.9"/>
		<path class="st11" d="M471.9,90.3c-2.2,2.2-7,7-12.8,12.9c-8.9-3.1-15.1-12.7-15.6-19.9c2.1-3.3-1.4-6.5-4.5-11.7
			c-3.1-5.2-4.5-13.8-4.1-20.4c0.1,3.8,12.6,18.3,15.9,16.2c0.3-0.2,0.4-0.5,0.5-0.8c0.3-2-1.6-6.6-2.9-10.4
			c-1.7-5.4-2.8-9.8-4.4-11.1c0.6-3.8,18.9-11.8,22.4-9.3c3.5,2.5,16.5,20.6,17.3,31.9C484.8,78.8,479,83.1,471.9,90.3z"/>
		<path class="st11" d="M327.4,184.8c21.2-3.6,45.1-12.5,62.2-16.7c17.1-4.2,21.8-10.6,31.7-20.5c6.9-6.9,24.9-31.2,37.8-44.4"/>
		<path class="st11" d="M383.9,119.9c3.2-8.3,8-18.6,14.6-23.3c6.6-4.7,23.7-6.3,37.4-10.6c3-0.9,5.6-1.8,7.6-2.7"/>
		<path class="st11" d="M451.4,66.5c0.7,1.2,1.5,2.3,2.4,3.4c6.8,8.7,10.9,12.6,15.9,8.6c5.1-4,6.3-4.8,7.8-4.8"/>
		<path class="st11" d="M451.4,66.5c-0.1,0.4-0.2,0.7-0.5,0.8c-3.4,2.1-15.8-12.4-15.9-16.2c-0.1-3.8,7.1-7.8,9.2-6.2
			c1.6,1.3,2.6,5.7,4.4,11.1C449.8,59.9,451.7,64.5,451.4,66.5z"/>
		<path class="st5" d="M368.8,230.1c-0.6,7.2-3.8,13.4-9.2,20.2c-8.5,10.8-21.5,20.9-33.7,28.4c-28,17.1-55.5,24.7-78.3,23
			c-3.3-1.5-6.4-3-9.2-4.6c3.2,0.2,7.4,0.5,10.7,0.8c6.7,0.5,10.8-0.9,11.4-4.4c0.3-1.8,0.4-5.2-1.8-8.4
			c-2.9-4.4-10.1-15.5-11.3-25.5c2.9,10.8,12.6,19.1,16,26.5c3.4,8.4,18.4,5.7,27.1,2.8c6.8-2.2,13.1-4.8,24.7-10.9
			c12.1-6.4,12.9-10.9,9.9-18.8c-2.2-5.8-7.4-16.4-12.2-19.5c-4.4-2.9-19.5-3.5-34.8-3.7c17-1.7,31.2-5.1,39-1.8
			c7.5,3.1,11.2,8.8,14.7,12.8c6,6.8,10.1,10.6,21.8,2.1c2.3-1.7,4.4-3.5,5.2-6.4c0.9-3-10.9-12.3-10.3-41.3
			c0.2-10.6-2.9-20.6-9.7-18.9c7.4-1.7,14.9-3.9,22.2-6.1c3.7,12.4-1.1,31.2,1.2,38.4C364.2,220.7,366.5,225.6,368.8,230.1z"/>
		<path class="st9" d="M391.9,369.7c-0.9,3.7-21.3,4.7-42.6,2.4c-20.6-2.2-41.9-7.7-51.1-9.1c-12-1.7-35-5.7-40.9-9
			c-8.7-5-21-14.2-11.1-28.8c9.9-14.6,26.1-36.1,65.2-45.6c6.6-1.6,12.7-2.8,18.2-3.6c21.7-3,34.4,0.8,41.2,13.3
			c5.3,9.9,3.1,20-3.3,28.2c-7.8,9.8-21.7,16.9-36.3,17.8c2.1,1.1,4.2,2.5,5.9,3.8C360.5,356.7,392.1,368.5,391.9,369.7z"/>
		<path class="st11" d="M65.4,266.2c10.8-4.7,31-9.4,44.9-13.4c9.8-2.9,15.4-6.2,22.2-7.3c14.6-2.4,32.9-4.4,51.7-11.6"/>
		<path class="st11" d="M51.2,245.5c5.8,3.2,13.8,14.3,14.2,20.8"/>
		<path class="st11" d="M176.2,159.9c-11.7,1.2-21.3,6.1-33,16.5c-11.7,10.5-24.9,25.1-26.9,26.2c-2.8,1.5-10.8,1.2-22.5,8.6
			c-16.5,10.5-37.7,31.2-42.6,34.2c-5,3-20,9.1-24.3,12.1c-4.2,3-18.1,27.5-16.8,29.5c0.8,1.3,18.4-8.6,25.4-10.7
			c8.8-2.6,19.1-5,29.9-10.1"/>
		<path class="st11" d="M10.1,287.1c6.1-5.4,18.7-15.5,22.8-18.1c3.1-1.9,9.8-4.5,16.7-6.9"/>
		<path class="st11" d="M448.5,56.1c6.5-7.5,15.5-11.7,26.3-10.1"/>
		<path class="st11" d="M455.2,71.7c6.6-7.7,16.8-14.2,26.6-12.5"/>
		<path class="st11" d="M13.4,278.4c6.3-7.2,13.2-14.1,16.1-16.1c2-1.4,9.2-4.5,16.9-7.4"/>
		<g>
			<path class="st1" d="M523.9,369.8c-0.1,0.4-0.5,0.8-1.3,1.1c-0.1,0.1-0.3,0.1-0.5,0.2c-0.1,0-0.2,0.1-0.3,0.1
				c-0.4,0.1-0.8,0.2-1.2,0.3c-0.1,0-0.2,0-0.3,0.1c-0.2,0-0.5,0.1-0.7,0.1h0c-0.6,0.1-1.3,0.2-2.1,0.2c0,0,0,0,0,0
				c-1.9,0.1-4.2,0.1-6.7,0c-0.1,0-0.2,0-0.2,0c-1.1-0.1-2.2-0.1-3.3-0.2c-0.1,0-0.3,0-0.4,0c-0.7-0.1-1.4-0.2-2.1-0.2
				c-0.6-0.1-1.2-0.2-1.8-0.2c-1.2-0.2-2.3-0.3-3.5-0.6c-0.9-0.2-1.7-0.3-2.5-0.5c-0.8-0.2-1.7-0.4-2.5-0.6c-1.5-0.4-3-0.9-4.5-1.3
				c-1-0.3-2-0.6-2.9-0.9c-0.5-0.2-0.9-0.3-1.4-0.5c-0.9-0.3-1.9-0.7-2.8-1c-1.4-0.5-2.7-1-3.9-1.5c-4.2-1.7-7.9-3.3-10.9-4.7
				c-2.4-1.1-4.3-1.9-5.6-2.5c-0.5-0.2-0.9-0.3-1.2-0.4c-14.8-3.7-28.9-5.8-41.9-7.2c3.8-0.5,9.2-2.8,9.2-2.8l-6.3-9.2
				c5.9-4.7,19.5-11.1,22.5-25.2c8.2,3.7,12.8,9.3,18.8,19.3c1.8,3,6-6,11.7-3c8.2,4.2,8.7,9.6,16.1,17.2c1.9,2,4.3,4.1,7.4,6.3
				c0.2,0.2,0.5,0.4,0.7,0.5c0.2,0.2,0.5,0.4,0.8,0.5c1.1,0.7,2.3,1.5,3.6,2.3c1,0.6,2,1.2,3,1.8c0.3,0.2,0.7,0.4,1.1,0.6
				c0.7,0.4,1.4,0.8,2.1,1.2c0.4,0.2,0.7,0.4,1.1,0.6c0.9,0.5,1.8,1,2.6,1.5c0.3,0.2,0.7,0.4,1,0.6c0.2,0.1,0.3,0.2,0.5,0.3
				c0.3,0.2,0.7,0.4,1,0.6C520.6,365.5,524.2,368.1,523.9,369.8z"/>
			<path class="st1" d="M391.9,369.7c-0.1,0.2-0.2,0.4-0.4,0.6c-0.4,0.5-1.2,0.9-2.4,1.2c-0.1,0-0.2,0.1-0.3,0.1
				c-0.1,0-0.2,0.1-0.3,0.1c-0.5,0.1-1,0.3-1.6,0.4c-0.5,0.1-0.9,0.2-1.5,0.3c-1.1,0.2-2.2,0.3-3.5,0.5c-0.1,0-0.2,0-0.3,0
				c-8.1,0.8-20.1,0.5-32.4-0.8c-1.3-0.1-2.6-0.3-3.9-0.5c-1.3-0.2-2.6-0.3-3.9-0.5c-18-2.6-35.3-6.9-43.3-8.1
				c-5.3-0.8-12.9-2-20.1-3.4c3.7-0.2,9.9-2.9,9.9-2.9l-6.3-9.2c5.9-4.7,18.3-7.8,21.1-20.9c10.4,9.2,14.3,20.3,16.1,11.1
				c1.3-6.6,6.9-5.4,12.2-2.5c0.3,0.1,0.5,0.3,0.8,0.4c0.3,0.1,0.5,0.3,0.8,0.5c0.5,0.3,1,0.6,1.5,1c0.2,0.2,0.5,0.3,0.7,0.5
				c0.2,0.2,0.5,0.3,0.7,0.5c0.5,0.3,0.9,0.7,1.3,1h0c1.5,1.1,3,2.2,4.5,3.2c0.8,0.5,1.5,1.1,2.3,1.6h0c0.8,0.5,1.5,1,2.3,1.5
				c0.4,0.2,0.8,0.5,1.2,0.8c0.8,0.5,1.6,1,2.3,1.5c1.2,0.7,2.4,1.4,3.5,2.1c1.6,0.9,3.1,1.8,4.7,2.7c0.4,0.2,0.8,0.4,1.2,0.6
				c1.2,0.7,2.3,1.3,3.4,1.9c0,0,0,0,0,0c0.8,0.4,1.5,0.8,2.2,1.2c0.4,0.2,0.8,0.4,1.1,0.6c1.5,0.8,2.9,1.5,4.3,2.2
				c0.7,0.4,1.4,0.7,2.1,1c1.4,0.7,2.7,1.3,4,1.9c1,0.5,1.9,0.9,2.8,1.3c0.6,0.3,1.2,0.6,1.7,0.8c2.3,1.1,4.2,2,5.9,2.8
				c0.4,0.2,0.8,0.4,1.2,0.6c0.4,0.2,0.7,0.3,1.1,0.5c0.2,0.1,0.3,0.1,0.5,0.2c0.3,0.2,0.6,0.3,0.8,0.4
				C391.3,369.1,391.9,369.5,391.9,369.7z"/>
		</g>
		<g>
			<g>
				<path class="st11" d="M382.4,285c17.5,9.6,27.3,19.5,45.1,22.5c20.4,3.5,26.5,8.6,35.7,23.9c1.8,3,6-6,11.7-3
					c10.4,5.3,8.3,12.4,23.5,23.6c7.6,5.6,26,14.1,25.4,17.7c-0.5,2.7-16.7,3-29.6-0.5c-16.3-4.4-29.8-11.9-33.3-12.8
					c-52.1-13-95.6-5.9-116.1-24"/>
			</g>
			<path class="st11" d="M331.1,335.2c26.6-1.5,51.3-24,39.6-45.9c-8.4-15.7-26.3-17.7-59.3-9.7c-39.1,9.5-55.3,31-65.2,45.6
				s2.4,23.8,11.1,28.8c5.9,3.4,28.9,7.3,40.9,9c9.2,1.3,30.5,6.8,51.1,9.1c21.3,2.3,41.8,1.3,42.6-2.4c0.3-1.2-31.4-13-54.9-30.6
				c-6.1-4.6-16.3-10.5-18.1-1.3c-3,15.4-11.7-26.2-47.5-20.1"/>
			<path class="st11" d="M278.1,359.7c3.7-0.2,9.9-2.9,9.9-2.9l-6.3-9.2c5.9-4.7,18.3-7.8,21.1-20.9"/>
			<path class="st11" d="M419,349.3c4.1-1.1,9.1-2.8,9.1-2.8l-6.3-9.2c5.9-4.7,19.5-11.1,22.5-25.2"/>
		</g>
		<path class="st11" d="M308.5,332.5c-2.8,7.6-14.1,15.7-18,17.9c1.7,2.8,5.2,8.7,5.2,8.7l-7.4,2.4"/>
		<path class="st11" d="M450.5,315.6c-2.8,8.9-8.8,17.7-20.9,23.7c2.4,3.9,6.1,8.8,6.1,8.8l-5.7,2.5"/>
		<path class="st1" d="M190.4,185.4c-1.1,1.9-4.5,3.2-9,3.3c-0.7,3.6-5.4,7.1-17.8,7c-16.2,0-31.8-8.3-32.6-11.6
			c-0.8-3.2,10.1-12.6,17.4-15.5c-0.2-0.3-0.4-0.7-0.7-1c-1.7-2.6,9.3-9,15.7-11c7.7-2.4,11.5-0.7,13.5,5.8
			C181.6,177.3,192.8,181.5,190.4,185.4z"/>
		<path class="st2" d="M133.9,178.9c0.4,4.4,7,11.3,22.3,16.2c-11.3-2.1-23.9-7.1-25.2-11.1C130.5,182.6,131.5,180.7,133.9,178.9z"
			/>
		<path class="st2" d="M154.7,160.6c2.2,6.5,6.7,20.6,28.3,28c-9.5,0.5-18.6-3.5-27.2-11.1c-8.6-7.6-8.4-10-7.7-11.9
			S151,162.2,154.7,160.6z"/>
		<g>
			<path class="st11" d="M190.4,185.4c-3.4,5.7-27,6.3-42.7-17.8c-1.7-2.6,9.3-9.1,15.7-11c7.5-2.3,11.5-0.7,13.5,5.8
				C181.6,177.3,192.8,181.5,190.4,185.4z"/>
			<path class="st11" d="M148.5,168.7c-7,2.8-18.3,12-17.5,15.4c0.8,3.3,16.4,11.6,32.6,11.6c12.7,0,17.3-3.4,17.9-7"/>
		</g>
		<path class="st11" d="M429.8,137.6c13.5,5.3,29.3,10.3,47.6,14.1c12,2.5,22.3,3.2,31.5,3.3"/>
		<path class="st11" d="M508.9,155c33,0.2,51.7-8.7,82.3,20.5c-26.6-88-68.3-66.9-134.8-69.3"/>
		<path class="st1" d="M334.1,71.1c-9.5,6-19.5,15.1-28.6,25.5c-16,18.2-29.4,40.2-33.4,56.1c-0.2,0.6-0.2,1.2-0.2,1.7c0,0,0,0,0,0
			c-1.5,9.1-14.3,16-10.9,4.6c0.4-1.4,0.9-2.8,1.3-4.2c9.7-30.1,25.8-57.3,37.6-71.7c3.9-4.8,7.4-8.2,9.9-9.7
			C316.7,69.2,327.3,70.2,334.1,71.1z"/>
		<path class="st1" d="M346.2,65.1c-3.9,1.3-8,3.3-12.1,6c-9.5,6-19.5,15.1-28.6,25.5c-16,18.2-29.4,40.2-33.4,56.1
			c-0.2,0.6-0.2,1.2-0.2,1.7c0,0,0,0,0,0c0.3,4.1,7.3,2.5,15.3-10.4c9.7-15.6,24.2-28,37.9-36.2c12.3-7.4,24-11.2,30.7-10.9
			c2.9,0.1,4.7,1.1,9,4.1c0.2-8.6,1.2-17.2,2.9-25.6C360.6,67.5,356.2,61.9,346.2,65.1z"/>
		<path class="st2" d="M278.3,136.3c15.4-20.7,29.4-36.9,40.7-45.7s21.2-17.1,30.4-15.2c9.2,1.9,18.4-0.6,12-6.8s-12.8-5.3-18.6-2.5
			S301.8,88.1,278.3,136.3z"/>
		<g>
			<path class="st11" d="M378,248c6.8,2.5,14.1,4.8,22.1,6.8c21.7,5.6,47.8,9.3,78.6,8.1c-14.3,10.8-31,24.1-50.9,24.1
				c-9.9,0-25.8-6.2-44.5-16.1"/>
			<path class="st11" d="M362.3,204.7c20.5,8.9,42,7.7,62.7,13.2c13.7,3.6,24.7,15.2,21.5,27.6c-0.5,2.1-2.3,6.6-5.8,6
				c-21.8-3.4-43-5.8-68.5-15.2"/>
			<path class="st11" d="M364,175.5C364,175.5,364,175.5,364,175.5c30.6,11.5,56.2,19.8,77.1,25.7c-14.6-2.3-25.1,5-28.2,13.1"/>
			<path class="st11" d="M508.9,155.3c-2.1,6.3-0.4,15.2,5.9,24.3c10.1,14.7,14.2,26.6,0.6,35.6c-2,1.3-25.6-0.2-74.2-14
				c0,0,0,0,0,0c-20.9-5.9-46.5-14.2-77.1-25.7"/>
			<path class="st11" d="M334.2,71.1c-6.8-0.9-17.4-1.9-24.2,2.3c-10.6,6.5-36.2,43.8-48.8,85.6c-3.5,11.6,9.7,4.3,10.9-5
				c0,0,0,0,0-0.1"/>
			<path class="st11" d="M428.1,249.6c-9.8-1-15.6,1-19.5,7.3"/>
		</g>
		<path class="st11" d="M398.2,96.7C364.1,84.2,365,59,346.3,65.1c-28.2,9.3-66.9,58.6-74.2,87.6c-1.5,6,6.2,5.7,15.1-8.7
			c18.5-29.8,54.3-47.8,68.6-47.1c4.8,0.2,6.7,2.7,21.1,12.6"/>
		<path class="st10" d="M204.5,236.3c-1,0-1.9-0.3-2.8-0.7c-1.3-0.8-2.3-2-2.7-3.5c-3.9-14.8-6-26.4-6.7-37.6
			c-0.2-2.7,1.6-5.2,4.3-5.9l3.9-1c5.5-1.4,10.8-2.7,16.1-3.7c1-0.2,1.9-0.3,2.9-0.3c2.6,0,4.9,0.8,6.9,2.2c1.3-2.2,3.2-4.1,5.5-5.6
			c3.8-2.4,7.8-3.6,11.8-3.6c1.1,0,2.2,0.1,3.3,0.3c6.4,1,10.8,5.4,13,12.9c0.4,1.5,0.3,3.1-0.5,4.4c-0.2,0.4-0.4,0.7-0.7,1
			c2.3,2.1,4,4.9,4.8,8.2c1.5,5.9,0,12.5-3.9,16.7c-2,2.3-4.8,4.3-7.8,5.4c-3.2,1.3-6.6,2-9.9,2c-1,0-2-0.1-3-0.2
			c-0.7-0.1-1.3-0.2-2-0.4c-0.8,0.9-1.8,1.5-3,1.8c-3.5,0.8-6.8,1.6-10.2,2.4c-0.5,0.1-0.9,0.2-1.4,0.2c-1.5,0-2.9-0.6-3.9-1.6
			c-0.5,1.8-2,3.4-4,3.9c-3,0.8-5.7,1.6-8.6,2.4C205.6,236.3,205.1,236.3,204.5,236.3z"/>
		<path class="st1" d="M221.2,209.4c0.5-0.3,0.7-0.4,0.9-0.6c4.1-3.1,5.6-7.4,4.2-12.8c-1-3.9-3.4-7.5-8.6-6.5
			c-6.4,1.3-12.9,3-19.7,4.6c0.8,12.3,3.3,24.3,6.6,36.5c2.9-0.8,5.6-1.6,8.6-2.4c-1.1-4.9-2.1-9.8-2.9-14.5c2.5-1.3,4,0,5.3,1.8
			c2.4,3.4,4.8,6.8,7,10.1c3.4-0.9,6.7-1.6,10.4-2.5C229.2,218.2,227.2,211.5,221.2,209.4z M215.1,204.8c-1.9,0.8-3.9,1.3-6,2
			c-0.4-2.7-0.7-5-1-7.4c2.1-0.5,4-1.2,5.9-1.5c1.9-0.3,3.1,1,3.3,2.9C217.5,202.5,216.8,204,215.1,204.8z M246.1,182.6
			c-4-0.6-7.7,0.3-11.3,2.5c-3.8,2.3-5.7,6.7-5.2,11.3c0.5,4.2,3.1,7.2,7.4,8.3c2.3,0.6,4.6,0.7,6.8,1.1c1.1,0.2,2.2,0.3,3.3,0.7
			c1.2,0.4,2.2,1.4,2.3,3c0.2,1.7-0.6,3-1.8,3.8c-2.7,1.9-5.9,0.8-7.4-2.4c-0.3-0.6-0.5-1.2-0.8-1.9c-2.9,0.8-5.7,1.6-8.5,2.4
			c1,6,4.4,9.9,8.8,10.4c3.4,0.4,6.8-0.1,10-1.4c2-0.8,4.1-2.2,5.7-4c4.9-5.4,4-16.3-4-19.1c-1.2-0.4-2.5-0.8-3.8-1
			c-2.3-0.3-4.6-0.5-6.9-0.7c-1.3-0.1-2.4-0.5-2.8-2.3c0.1-2.3,1.3-3.2,2.9-3.5c2.4-0.5,4.3,0.9,5.4,3.9c2.8-0.8,5.4-1.5,8.2-2.3
			C252.9,186,250.3,183.3,246.1,182.6z"/>
		<path class="st5" d="M365.1,282.1c6.6,6.8,10.8,16.3,7.2,26.6c-0.1,0.3-0.2,0.5-0.3,0.8c-0.1,0.3-0.3,0.7-0.4,1s-0.3,0.7-0.5,1v0
			c-0.2,0.3-0.3,0.7-0.5,1c-0.2,0.3-0.4,0.7-0.6,1c-0.2,0.3-0.4,0.7-0.6,1c-0.2,0.3-0.4,0.7-0.6,1c0,0,0,0.1-0.1,0.1
			c-0.4,0.6-0.9,1.2-1.4,1.8c-1.5,1.8-3.1,3.6-5,5.2c-0.3,0.3-0.6,0.5-0.9,0.8c0,0-0.1,0.1-0.1,0.1c-0.3,0.2-0.6,0.5-0.9,0.7
			c-0.3,0.3-0.7,0.5-1,0.8c-0.3,0.2-0.7,0.5-1,0.7c-0.3,0.2-0.7,0.5-1,0.7c-0.7,0.5-1.4,0.9-2.2,1.4c0,0-0.1,0.1-0.1,0.1
			c-0.7,0.4-1.4,0.8-2.1,1.2c-0.4,0.2-0.8,0.4-1.2,0.6c-0.1,0-0.1,0.1-0.2,0.1c-0.3,0.2-0.7,0.3-1,0.5c-0.4,0.2-0.8,0.4-1.2,0.5
			c-0.4,0.2-0.8,0.3-1.2,0.5c-0.8,0.3-1.6,0.6-2.4,0.9c-0.3,0.1-0.6,0.2-0.9,0.3c-0.6,0.2-1.2,0.4-1.8,0.5c-0.4,0.1-0.9,0.2-1.3,0.4
			c-0.4,0.1-0.9,0.2-1.3,0.3c-0.4,0.1-0.8,0.2-1.3,0.3c0,0,0,0,0,0c-0.4,0.1-0.9,0.2-1.3,0.3c-0.4,0.1-0.9,0.2-1.3,0.2
			c-0.9,0.2-1.9,0.3-2.8,0.4c-0.4,0-0.8,0.1-1.2,0.1c-0.5,0-0.9,0.1-1.4,0.1c-5.3-2.9-10.9-4-12.2,2.6c-1.8,9.2-5.6-1.9-16.1-11.1
			c-1.5-1.3-3.2-2.7-5-3.8c-0.1-0.1-0.3-0.2-0.4-0.3c-11.7-8.1,3.5-20.6,32.2-19.1c11.5,0.6,20.5,0.8,27.9-1.3
			C363.1,300.6,370.2,295.1,365.1,282.1z"/>
		<path class="st5" d="M523.5,369.8c-0.5,2.7-16.7,3-29.6-0.5c-16.3-4.4-29.8-11.9-33.3-12.8c-52.1-13-95.6-5.9-116.1-24
			c9.2-3,17.3-8.5,22.5-15.1c8.8-9.7,13.3-21.4,15.1-32.4c4.6,2.5,8.6,5,12.4,7.4c-4.5-2.7-8.5,2.4-13.2,12.6
			c-6.1,13.3-13.5,22.6-6.6,26c6.9,3.4,20-0.1,39.1,3.3c13.2,2.3,40.8,12.9,50.5,17.5c8.9,4.2,44,14.1,53.3,12.1
			C521.2,366.3,523.8,368.4,523.5,369.8z"/>
		<path class="st5" d="M391.5,369.7c-0.8,3.7-21.3,4.7-42.6,2.4c-20.6-2.2-41.9-7.7-51.1-9c-5.3-0.8-12.8-2-20-3.4
			c-9-1.8-17.6-3.8-20.9-5.7c-5.1-2.9-11.5-7.3-13.8-13.4c2.5,5.9,32.4-2.3,50.3,5.9c11.9,5.4,44.4,17.9,65.3,20.4
			c12,1.4,22.5,1.4,26.7-0.4C389.3,368.2,391.6,369.4,391.5,369.7z"/>
		<path class="st20" d="M334.1,71.1c-9.5,6-19.5,15.1-28.6,25.5c-16,18.2-29.4,40.2-33.4,56.1c-0.1,0.6-0.2,1.2-0.2,1.7c0,0,0,0,0,0
			c-1.1,6.7-8.2,12.2-10.7,10.1c3-2.1,5.6-6.7,7.9-13.8c2.9-9.2,8.3-22,14.8-33.1c9.1-15.4,21.1-32.8,41.4-47.3
			C328.5,70.4,331.6,70.7,334.1,71.1z"/>
		<path class="st5" d="M385.6,109.8c-2.6,0-5.5-0.1-8.5-0.2c-0.1,0-0.1-0.1-0.1-0.1c-14.5-10-16.4-12.4-21.1-12.7
			c-6.8-0.4-18.4,3.5-30.7,10.9c-0.1,0-0.1,0.1-0.2,0.1c-13.6,8.1-28.1,20.5-37.7,36.1c-4.8,7.7-9.2,11.4-12.1,12.2
			c3.4-4.9,6.9-15.3,13.5-24.7c5.2-7.4,10.6-13.9,16.5-19.6c15.1-14.3,33.6-22.7,62.6-24.7c-5.7,4.3-3.8,6.9,1.9,11.6
			C373.1,101.6,378.9,105.6,385.6,109.8z"/>
		<g>
			<path class="st21" d="M190.4,185.4c-0.8,1.3-2.5,2.3-4.9,2.8c2.6-3.8-11.7-8.4-16.4-21c-2-5.4-5.5-8.7-8.8-9.5
				c1.1-0.5,2.1-0.8,3.1-1.1c7.8-2.4,11.5-0.7,13.5,5.8C181.6,177.3,192.8,181.5,190.4,185.4z"/>
			<path class="st5" d="M181.4,188.7c-0.2,1.2-1,2.4-2.3,3.5c-1.4,1.2-3.6,2.1-6.6,2.8c-8.7-1.4-15.5-5.9-20.4-10
				c-3.7-3.1-6.4-6.5-8.5-8.9c-1.3-1.4-2.3-2.4-3.3-2.7c2.8-2,5.7-3.7,8.1-4.7c0.5,0.7,1,1.5,1.5,2.1c-0.5,0.4-0.5,0.4,0,0
				c9.3,12.4,20.7,17.1,29.1,17.7C179.9,188.7,180.7,188.7,181.4,188.7z"/>
		</g>
		<path class="st2" d="M470.2,332.2c-1.9,1.2,2.7,3.6,5.6,4.5C478.7,337.7,474.2,329.8,470.2,332.2z"/>
		<path class="st2" d="M322.8,337.9c-1,1.9,6.1,4.9,7.3,2.7S324.4,335.2,322.8,337.9z"/>
		<path class="st2" d="M219.2,201.5c-0.2-1.7-1.2-2.9-2.8-2.9c0.4,0.5,0.7,1.2,0.8,2c0.2,1.8-0.5,3.4-2.2,4.1c-1.4,0.6-4.5,1.5-6,2
			c0.1,0.5,0.1,0.9,0.2,1.4c2-0.7,5.8-1.7,7.7-2.5C218.7,204.9,219.4,203.3,219.2,201.5z M217.7,189.6c-6.4,1.3-12.9,3-19.8,4.6
			c0.8,12.3,3.3,24.3,6.6,36.5c0.5-0.2,1.1-0.3,1.6-0.5c-3.1-11.7-5.5-23.3-6.2-35.2c6.8-1.7,13.3-3.4,19.7-4.6
			c1.2-0.2,2.3-0.2,3.2,0C221.6,189.5,219.9,189.1,217.7,189.6z M217.5,216.5c-0.9-1.3-3-3.3-5.2-3.2c1.7,0.1,2.8,1.8,3.2,2.3
			c2.4,3.4,4.8,6.8,7,10.1c0.4-0.1,0.8-0.2,1.2-0.3C221.7,222.5,219.6,219.5,217.5,216.5z M251.5,197.4c-1.2-0.4-2.5-0.8-3.8-1
			c-2.3-0.3-4.6-0.5-6.9-0.8c-0.1,0-1.4-0.1-2.1-0.9c0.7,1.4,3.2,1.6,4.1,1.7c2.3,0.2,4.6,0.4,6.9,0.8c1.2,0.2,2.3,0.5,3.5,0.9
			C252.6,197.8,252.1,197.6,251.5,197.4z M251.5,210.4c-0.2-1.6-1.1-2.6-2.3-3c-0.3-0.1-0.5-0.2-0.8-0.2c0.6,0.5,1.1,1.3,1.2,2.4
			c0.2,1.7-0.6,3-1.8,3.8c-1.1,0.8-2.4,1.1-3.5,0.9c1.6,1.2,3.7,1.3,5.5,0C250.9,213.4,251.6,212.1,251.5,210.4z M246.1,182.6
			c-4-0.6-7.7,0.3-11.3,2.5c-3.8,2.4-5.7,6.7-5.2,11.3c0.4,3.9,2.8,6.8,6.6,8.1c-2.7-1.5-4.3-4-4.7-7.2c-0.5-4.6,1.4-9,5.2-11.3
			c3.6-2.2,7.2-3.2,11.3-2.5c0.5,0.1,1,0.2,1.4,0.3C248.5,183.2,247.3,182.8,246.1,182.6z M244.3,190.7c0.8,0.7,1.5,1.7,2,3.1
			c0.5-0.1,0.9-0.3,1.4-0.4C246.9,191.8,245.8,190.8,244.3,190.7z M232.9,212.3c2.3-0.7,4.7-1.4,7.1-2c-0.2-0.4-0.3-0.8-0.5-1.2
			c-2.9,0.8-5.7,1.6-8.5,2.4c0.9,5.4,3.7,9,7.5,10.1C235.7,219.9,233.7,216.7,232.9,212.3z"/>
		<line class="st22" x1="191.7" y1="159.9" x2="194" y2="166"/>
		<line class="st22" x1="198.9" y1="160.7" x2="201.2" y2="166.8"/>
	</g>
</g>
</svg>
