<svg width="253" height="366" viewBox="0 0 253 366" fill="none" xmlns="http://www.w3.org/2000/svg">
<g clip-path="url(#clip0_15_3778)">
<path d="M69.4499 239.8C68.4499 239.74 67.9799 239.69 66.9999 239.58C66.9999 235.48 66.9999 233.53 66.9999 229.47C65.7499 229.36 65.1299 229.29 63.8599 229.13V227.01C66.7691 227.409 69.7035 227.596 72.6399 227.57C72.6399 228.42 72.6399 228.85 72.6399 229.71C71.3799 229.71 70.7099 229.71 69.4499 229.64V239.8Z" fill="#3178C6"/>
<path d="M77.59 234.33C76.6519 234.115 75.7887 233.652 75.09 232.99C74.625 232.408 74.3933 231.674 74.44 230.93C74.4193 230.432 74.5039 229.934 74.6883 229.471C74.8727 229.007 75.1526 228.588 75.51 228.24C76.3493 227.524 77.4073 227.115 78.51 227.08C79.0784 227.02 79.6515 227.02 80.22 227.08C80.7901 227.13 81.3533 227.241 81.9 227.41V229.8C81.4009 229.521 80.8659 229.313 80.31 229.18C79.7819 229.062 79.2386 229.029 78.7 229.08C78.2095 229.104 77.7369 229.271 77.34 229.56C77.1863 229.687 77.064 229.848 76.9825 230.03C76.901 230.212 76.8625 230.411 76.87 230.61C76.8632 230.765 76.8901 230.919 76.9488 231.062C77.0075 231.206 77.0966 231.335 77.21 231.44C77.6452 231.736 78.1345 231.943 78.65 232.05L79.65 232.34C80.4806 232.483 81.246 232.882 81.84 233.48C82.3363 234.087 82.5862 234.858 82.54 235.64C82.5726 236.189 82.4918 236.738 82.3025 237.255C82.1133 237.771 81.8196 238.242 81.44 238.64C80.5192 239.465 79.3357 239.936 78.1 239.97C77.4859 240.028 76.8667 240.001 76.26 239.89C75.6401 239.777 75.0381 239.582 74.47 239.31V236.76C75.045 237.188 75.6825 237.525 76.36 237.76C76.947 237.948 77.566 238.017 78.18 237.96C78.6979 237.943 79.1934 237.745 79.58 237.4C79.7437 237.247 79.8729 237.061 79.9591 236.854C80.0453 236.647 80.0865 236.424 80.08 236.2C80.0889 235.857 79.9715 235.522 79.75 235.26C79.4771 234.983 79.1296 234.792 78.75 234.71L77.59 234.33Z" fill="#3178C6"/>
<path d="M142.17 25.65C141.94 25.5214 141.763 25.3161 141.67 25.07C141.63 24.9526 141.618 24.8276 141.633 24.7047C141.649 24.5817 141.692 24.4639 141.76 24.36L150 10.46C150.057 10.3553 150.135 10.2633 150.228 10.1899C150.322 10.1165 150.43 10.0631 150.546 10.0331C150.661 10.0031 150.781 9.9971 150.899 10.0155C151.017 10.0339 151.129 10.0763 151.23 10.14L159.66 15.14C159.848 15.2544 159.984 15.4372 160.04 15.65C160.066 15.764 160.069 15.8821 160.048 15.9972C160.028 16.1123 159.984 16.2221 159.92 16.32C159.869 16.4189 159.798 16.5061 159.712 16.576C159.626 16.646 159.526 16.6972 159.418 16.7264C159.311 16.7555 159.199 16.762 159.089 16.7454C158.979 16.7288 158.874 16.6895 158.78 16.63L151.12 12.08L148.25 16.93L153.13 19.83C153.99 20.3123 154.718 20.9992 155.25 21.83C155.727 22.6174 155.983 23.5192 155.99 24.44C155.984 25.3979 155.714 26.3356 155.21 27.15C154.733 27.9828 154.043 28.6733 153.21 29.15C152.4 29.5943 151.483 29.8054 150.56 29.76C149.565 29.7119 148.598 29.4126 147.75 28.89L142.17 25.65ZM143.73 24.56L148.61 27.46C149.187 27.8238 149.848 28.0338 150.53 28.07C151.158 28.0943 151.781 27.9456 152.33 27.64C152.91 27.2925 153.395 26.808 153.744 26.2292C154.092 25.6504 154.294 24.9948 154.33 24.32C154.332 23.6997 154.155 23.092 153.82 22.57C153.451 21.9994 152.95 21.5261 152.36 21.19L147.48 18.29L143.73 24.56Z" fill="white" stroke="white" stroke-width="20" stroke-linecap="round" stroke-linejoin="round"/>
<path d="M158.61 37.4C157.732 36.6502 157.069 35.6804 156.69 34.59C156.339 33.5629 156.28 32.4586 156.52 31.4C156.782 30.2775 157.334 29.2431 158.12 28.4C158.869 27.5121 159.828 26.8248 160.91 26.4C161.922 26.0162 163.021 25.9252 164.082 26.1374C165.144 26.3497 166.123 26.8566 166.91 27.6C167.724 28.2932 168.327 29.201 168.65 30.22C168.934 31.1999 168.934 32.2402 168.65 33.22C168.354 34.288 167.805 35.269 167.05 36.08C166.982 36.1638 166.897 36.2321 166.8 36.2804C166.703 36.3286 166.598 36.3558 166.49 36.36C166.267 36.3659 166.051 36.2832 165.89 36.13L158.61 29.61L159.61 28.52L167 35.15L165.79 35.03C166.359 34.4327 166.781 33.71 167.02 32.92C167.224 32.2042 167.224 31.4458 167.02 30.73C166.793 29.9794 166.356 29.3096 165.76 28.8C165.167 28.247 164.428 27.8757 163.63 27.73C162.861 27.6018 162.071 27.6918 161.35 27.99C160.553 28.3234 159.845 28.8368 159.28 29.49C158.691 30.1265 158.277 30.9054 158.08 31.75C157.901 32.5387 157.939 33.3612 158.19 34.13C158.46 34.9398 158.944 35.6618 159.59 36.22C160.015 36.5978 160.502 36.899 161.03 37.11C161.498 37.3277 162.004 37.45 162.52 37.47C162.728 37.4821 162.927 37.559 163.09 37.69C163.244 37.8172 163.35 37.9938 163.39 38.19C163.407 38.3042 163.401 38.4208 163.372 38.5325C163.343 38.6443 163.291 38.7489 163.22 38.84C163.152 38.9235 163.064 38.9891 162.965 39.0309C162.865 39.0728 162.757 39.0896 162.65 39.08C161.91 39.0444 161.182 38.8785 160.5 38.59C159.806 38.3047 159.167 37.9021 158.61 37.4Z" fill="white" stroke="white" stroke-width="20" stroke-linecap="round" stroke-linejoin="round"/>
<path d="M166.81 45.98C166.38 45.4888 166.019 44.9402 165.74 44.35C165.472 43.7888 165.284 43.1931 165.18 42.58C165.084 42.0543 165.084 41.5157 165.18 40.99C165.2 40.8778 165.244 40.7711 165.308 40.6765C165.371 40.5818 165.454 40.5014 165.55 40.44C165.648 40.3847 165.756 40.3499 165.868 40.3376C165.979 40.3253 166.092 40.3359 166.2 40.3686C166.307 40.4013 166.407 40.4555 166.493 40.528C166.579 40.6004 166.649 40.6896 166.7 40.79C166.805 40.9933 166.85 41.2222 166.83 41.45C166.781 42.0408 166.849 42.6356 167.03 43.2C167.235 43.8359 167.576 44.4194 168.03 44.91C168.516 45.5307 169.178 45.9906 169.93 46.23C170.24 46.325 170.57 46.3362 170.886 46.2624C171.203 46.1887 171.494 46.0326 171.73 45.81C171.953 45.6241 172.133 45.3919 172.257 45.1294C172.382 44.8669 172.447 44.5805 172.45 44.29C172.465 43.6659 172.252 43.0578 171.85 42.58L171.08 41.69C170.905 41.5041 170.8 41.2642 170.78 41.01C170.769 40.9049 170.784 40.7988 170.825 40.7011C170.865 40.6034 170.928 40.5171 171.01 40.45C171.087 40.3806 171.181 40.3314 171.282 40.307C171.384 40.2826 171.489 40.2836 171.59 40.31C171.834 40.373 172.052 40.5133 172.21 40.71L172.98 41.6C173.144 41.7922 173.346 41.9495 173.572 42.0628C173.798 42.1761 174.045 42.2431 174.297 42.2599C174.549 42.2767 174.803 42.2429 175.042 42.1604C175.281 42.078 175.501 41.9487 175.69 41.78C175.893 41.604 176.05 41.3804 176.146 41.1291C176.242 40.8779 176.274 40.6068 176.24 40.34C176.15 39.6564 175.846 39.019 175.37 38.52C174.956 38.0198 174.437 37.6169 173.85 37.34C173.376 37.1276 172.859 37.025 172.34 37.04C172.11 37.0382 171.887 36.9569 171.71 36.81C171.622 36.7428 171.548 36.6585 171.493 36.5624C171.438 36.4662 171.403 36.36 171.39 36.25C171.362 36.1479 171.362 36.0401 171.39 35.9381C171.419 35.836 171.474 35.7434 171.55 35.67C171.712 35.4992 171.935 35.3986 172.17 35.39C172.96 35.3989 173.742 35.562 174.47 35.87C175.287 36.2198 176.01 36.7577 176.58 37.44C177.106 38.0155 177.502 38.6977 177.74 39.44C177.953 40.0849 177.995 40.7743 177.86 41.44C177.727 42.0446 177.405 42.5911 176.94 43C176.569 43.326 176.11 43.5348 175.62 43.6C175.119 43.6774 174.607 43.6293 174.13 43.46C173.624 43.2928 173.165 43.0084 172.79 42.63L172.98 42.47C173.385 42.9225 173.67 43.4691 173.81 44.06C173.961 44.6099 173.961 45.1901 173.81 45.74C173.641 46.2894 173.319 46.7788 172.88 47.15C172.364 47.6171 171.705 47.8956 171.01 47.94C170.269 47.9835 169.53 47.839 168.86 47.52C168.072 47.1634 167.372 46.6377 166.81 45.98Z" fill="white" stroke="white" stroke-width="20" stroke-linecap="round" stroke-linejoin="round"/>
<path d="M176.09 57.61C176.018 57.513 175.968 57.4017 175.943 57.2836C175.919 57.1656 175.92 57.0436 175.946 56.926C175.973 56.8083 176.024 56.6978 176.097 56.6018C176.171 56.5059 176.263 56.4268 176.37 56.37L185.51 50.64C185.607 50.5684 185.718 50.5184 185.836 50.4936C185.954 50.4689 186.076 50.4698 186.194 50.4963C186.312 50.5229 186.422 50.5745 186.518 50.6476C186.614 50.7207 186.693 50.8136 186.75 50.92C186.854 51.0866 186.913 51.2772 186.922 51.4734C186.931 51.6697 186.889 51.8648 186.8 52.04L183.26 60.25L192.2 60.65C192.397 60.6416 192.594 60.6852 192.769 60.7764C192.945 60.8677 193.093 61.0034 193.2 61.17C193.334 61.3732 193.384 61.6206 193.34 61.86C193.309 61.9762 193.256 62.0849 193.182 62.1795C193.108 62.2741 193.015 62.3525 192.91 62.41L183.77 68.14C183.673 68.2099 183.563 68.2584 183.446 68.2822C183.329 68.306 183.208 68.3046 183.092 68.2781C182.975 68.2516 182.866 68.2006 182.771 68.1285C182.675 68.0564 182.597 67.9649 182.54 67.86C182.469 67.7635 182.42 67.6527 182.395 67.5354C182.371 67.418 182.373 67.2967 182.4 67.18C182.468 66.951 182.622 66.7574 182.83 66.64L191 61.52L191.15 62.11L182.51 61.71C182.334 61.7223 182.159 61.6881 182.001 61.6108C181.843 61.5336 181.708 61.416 181.61 61.27C181.522 61.118 181.476 60.9456 181.476 60.77C181.476 60.5945 181.522 60.422 181.61 60.27L185 52.38L185.47 52.79L177.31 57.86C177.214 57.9297 177.106 57.979 176.99 58.0048C176.875 58.0306 176.756 58.0324 176.64 58.01C176.525 57.9854 176.417 57.937 176.323 57.8682C176.228 57.7993 176.149 57.7113 176.09 57.61Z" fill="white" stroke="white" stroke-width="20" stroke-linecap="round" stroke-linejoin="round"/>
<path d="M187.31 77.1C186.762 76.0845 186.49 74.9434 186.52 73.79C186.574 72.7177 186.92 71.6806 187.52 70.79C188.166 69.8293 189.052 69.0538 190.09 68.54C191.103 67.9892 192.237 67.6972 193.39 67.69C195.006 67.7499 196.533 68.4493 197.633 69.6345C198.734 70.8197 199.319 72.3936 199.26 74.01C199.194 75.0183 198.848 75.9881 198.26 76.81C197.601 77.6985 196.741 78.4182 195.75 78.91C195.656 78.9621 195.553 78.9951 195.447 79.0071C195.34 79.0191 195.233 79.0099 195.13 78.98C194.923 78.903 194.755 78.7488 194.66 78.55L190.1 69.86L191.41 69.18L196 77.99L194.91 77.44C195.658 77.0912 196.31 76.5662 196.81 75.91C197.261 75.3317 197.541 74.6391 197.62 73.91C197.679 73.1315 197.508 72.3528 197.13 71.67C196.786 70.9501 196.239 70.3462 195.557 69.9324C194.875 69.5185 194.087 69.3126 193.29 69.34C192.429 69.3719 191.588 69.6012 190.83 70.01C190.054 70.3922 189.392 70.9715 188.91 71.69C188.457 72.3641 188.198 73.1491 188.16 73.96C188.128 74.8129 188.325 75.6587 188.73 76.41C188.989 76.9106 189.326 77.3664 189.73 77.76C190.09 78.1262 190.518 78.4184 190.99 78.62C191.186 78.6997 191.348 78.8445 191.45 79.03C191.546 79.2033 191.582 79.4042 191.55 79.6C191.526 79.7134 191.479 79.8207 191.412 79.9153C191.345 80.0099 191.259 80.0898 191.16 80.15C191.065 80.1968 190.961 80.2211 190.855 80.2211C190.749 80.2211 190.645 80.1968 190.55 80.15C189.868 79.8376 189.251 79.4 188.73 78.86C188.158 78.3601 187.678 77.7646 187.31 77.1Z" fill="white" stroke="white" stroke-width="20" stroke-linecap="round" stroke-linejoin="round"/>
<path d="M191.43 85.14C191.374 85.0345 191.343 84.9183 191.337 84.7993C191.331 84.6803 191.351 84.5615 191.396 84.4511C191.441 84.3407 191.509 84.2413 191.596 84.16C191.683 84.0786 191.787 84.0172 191.9 83.98L201.75 79.59C201.861 79.5438 201.98 79.52 202.1 79.52C202.22 79.52 202.339 79.5438 202.45 79.59C202.615 79.6543 202.757 79.767 202.857 79.9134C202.957 80.0597 203.01 80.2328 203.01 80.41C203.01 80.5873 202.957 80.7604 202.857 80.9067C202.757 81.053 202.615 81.1657 202.45 81.23L192.6 85.62C192.489 85.6662 192.37 85.69 192.25 85.69C192.13 85.69 192.011 85.6662 191.9 85.62C191.794 85.5752 191.697 85.5096 191.617 85.4272C191.536 85.3448 191.472 85.2472 191.43 85.14ZM195.43 94.14C195.34 93.9187 195.34 93.6713 195.43 93.45C195.476 93.3375 195.543 93.2353 195.629 93.1495C195.715 93.0636 195.817 92.9958 195.93 92.95L205.78 88.57C205.891 88.5188 206.012 88.4923 206.135 88.4923C206.257 88.4923 206.378 88.5188 206.49 88.57C206.707 88.6654 206.879 88.8409 206.97 89.06C207.014 89.1661 207.037 89.28 207.037 89.395C207.037 89.51 207.014 89.6239 206.97 89.73C206.869 89.9479 206.685 90.1168 206.46 90.2L196.61 94.59C196.396 94.6971 196.149 94.7186 195.92 94.65C195.814 94.6073 195.718 94.5436 195.637 94.4629C195.556 94.3821 195.493 94.2859 195.45 94.18L195.43 94.14ZM196.71 83.37L198.16 82.73L201.83 90.99L200.39 91.63L196.71 83.37Z" fill="white" stroke="white" stroke-width="20" stroke-linecap="round" stroke-linejoin="round"/>
<path d="M197.66 99.4C197.613 99.2894 197.588 99.1703 197.588 99.05C197.588 98.9297 197.613 98.8106 197.66 98.7C197.708 98.5929 197.778 98.4973 197.866 98.4196C197.954 98.342 198.058 98.2842 198.17 98.25L208.28 94.44C208.501 94.3494 208.749 94.3494 208.97 94.44C209.08 94.4915 209.179 94.5651 209.26 94.6562C209.341 94.7474 209.402 94.8542 209.44 94.97C209.487 95.0771 209.512 95.1929 209.512 95.31C209.512 95.4271 209.487 95.5429 209.44 95.65C209.33 95.8609 209.144 96.0219 208.92 96.1L198.8 99.91C198.693 99.9574 198.577 99.9819 198.46 99.9819C198.343 99.9819 198.227 99.9574 198.12 99.91C198.012 99.8612 197.916 99.7907 197.837 99.7029C197.758 99.6152 197.697 99.5121 197.66 99.4ZM200.51 106.95C200.463 106.843 200.439 106.727 200.439 106.61C200.439 106.493 200.463 106.377 200.51 106.27C200.559 106.172 200.628 106.085 200.713 106.015C200.797 105.944 200.895 105.892 201 105.86L207.2 103.53C208.094 103.242 208.849 102.632 209.32 101.82C209.517 101.458 209.63 101.056 209.651 100.644C209.672 100.232 209.6 99.8203 209.44 99.44C209.303 99.0285 209.082 98.6498 208.791 98.328C208.5 98.0061 208.145 97.748 207.75 97.57C207.339 97.3939 206.897 97.3032 206.45 97.3032C206.003 97.3032 205.561 97.3939 205.15 97.57L204.71 96.39C205.564 96.0801 206.478 95.974 207.38 96.08C208.204 96.1859 208.984 96.5105 209.64 97.02C210.29 97.5526 210.787 98.2474 211.082 99.0341C211.377 99.8208 211.459 100.671 211.32 101.5C211.162 102.316 210.774 103.069 210.2 103.67C209.535 104.355 208.721 104.875 207.82 105.19L201.62 107.52C201.514 107.569 201.398 107.595 201.281 107.596C201.165 107.596 201.049 107.571 200.942 107.523C200.836 107.474 200.741 107.403 200.665 107.315C200.589 107.226 200.532 107.122 200.5 107.01L200.51 106.95ZM203.33 114.47C203.239 114.249 203.239 114.001 203.33 113.78C203.375 113.672 203.444 113.575 203.53 113.496C203.616 113.416 203.718 113.356 203.83 113.32L210.03 110.99C210.929 110.711 211.687 110.099 212.15 109.28C212.346 108.918 212.459 108.516 212.482 108.105C212.504 107.693 212.435 107.282 212.28 106.9C212.14 106.488 211.914 106.11 211.618 105.791C211.321 105.472 210.961 105.22 210.56 105.05C210.13 104.881 209.67 104.801 209.208 104.813C208.746 104.825 208.291 104.929 207.87 105.12L207.31 103.63C208.194 103.29 209.15 103.176 210.09 103.3C210.941 103.411 211.745 103.757 212.41 104.3C213.095 104.874 213.616 105.619 213.92 106.46C214.224 107.249 214.307 108.107 214.16 108.94C213.994 109.755 213.603 110.507 213.03 111.11C212.368 111.793 211.557 112.314 210.66 112.63L204.46 114.96C204.353 115.007 204.237 115.032 204.12 115.032C204.003 115.032 203.887 115.007 203.78 114.96C203.675 114.914 203.581 114.846 203.504 114.762C203.426 114.678 203.367 114.578 203.33 114.47Z" fill="white" stroke="white" stroke-width="20" stroke-linecap="round" stroke-linejoin="round"/>
<path d="M206.43 124.31C206.059 123.223 205.979 122.057 206.2 120.93C206.419 119.857 206.927 118.865 207.67 118.06C208.453 117.22 209.443 116.599 210.54 116.26C211.635 115.879 212.813 115.8 213.95 116.03C215.022 116.246 216.014 116.751 216.82 117.49C217.66 118.273 218.281 119.263 218.62 120.36C218.993 121.447 219.069 122.614 218.84 123.74C218.618 124.806 218.109 125.791 217.37 126.59C216.585 127.444 215.588 128.075 214.48 128.42C213.39 128.794 212.219 128.869 211.09 128.64C210.023 128.411 209.037 127.904 208.23 127.17C207.386 126.394 206.765 125.407 206.43 124.31ZM208 123.86C208.248 124.664 208.707 125.385 209.33 125.95C209.932 126.486 210.668 126.849 211.46 127C212.302 127.154 213.17 127.088 213.98 126.81C214.806 126.561 215.553 126.103 216.15 125.48C216.71 124.897 217.097 124.17 217.27 123.38C217.436 122.559 217.388 121.71 217.13 120.913C216.873 120.116 216.415 119.399 215.8 118.83C215.197 118.287 214.457 117.92 213.66 117.77C212.812 117.623 211.941 117.684 211.122 117.949C210.303 118.214 209.561 118.674 208.96 119.29C208.406 119.879 208.025 120.609 207.86 121.4C207.683 122.218 207.731 123.068 208 123.86Z" fill="white" stroke="white" stroke-width="20" stroke-linecap="round" stroke-linejoin="round"/>
<path d="M204.54 135.86C204.5 135.746 204.484 135.625 204.492 135.505C204.501 135.384 204.534 135.267 204.59 135.16C204.652 135.058 204.733 134.969 204.829 134.899C204.925 134.828 205.034 134.778 205.15 134.75L215.59 131.75C216.678 131.433 217.83 131.409 218.93 131.68C219.988 131.948 220.957 132.49 221.74 133.25C222.546 134.041 223.129 135.031 223.43 136.12C223.761 137.221 223.796 138.391 223.53 139.51C223.271 140.58 222.729 141.561 221.96 142.35C221.144 143.15 220.142 143.736 219.045 144.055C217.947 144.374 216.788 144.417 215.67 144.18C214.618 143.936 213.648 143.419 212.86 142.68C212.045 141.916 211.46 140.939 211.17 139.86C210.891 138.932 210.843 137.951 211.03 137C211.2 136.116 211.581 135.286 212.14 134.58L205.64 136.45C205.528 136.49 205.409 136.506 205.29 136.497C205.171 136.489 205.055 136.456 204.95 136.4C204.848 136.343 204.759 136.266 204.689 136.173C204.618 136.08 204.568 135.973 204.54 135.86ZM212.66 139.22C212.885 140.029 213.32 140.763 213.92 141.35C214.507 141.91 215.237 142.297 216.03 142.47C216.867 142.645 217.734 142.613 218.557 142.378C219.379 142.143 220.132 141.711 220.75 141.12C221.611 140.217 222.081 139.011 222.056 137.763C222.032 136.516 221.516 135.329 220.62 134.46C220.028 133.909 219.3 133.525 218.51 133.35C217.672 133.178 216.805 133.212 215.983 133.449C215.161 133.686 214.408 134.119 213.79 134.71C213.213 135.275 212.801 135.988 212.6 136.77C212.396 137.584 212.417 138.437 212.66 139.24V139.22Z" fill="white" stroke="white" stroke-width="20" stroke-linecap="round" stroke-linejoin="round"/>
<path d="M215.14 154.49C214.84 153.414 214.84 152.276 215.14 151.2C215.449 150.163 216.025 149.225 216.81 148.48C217.652 147.692 218.687 147.14 219.81 146.88C220.919 146.575 222.091 146.575 223.2 146.88C224.26 147.172 225.224 147.741 225.99 148.53C226.793 149.364 227.353 150.401 227.61 151.53C227.912 152.607 227.918 153.746 227.627 154.826C227.337 155.907 226.761 156.889 225.96 157.67C225.124 158.476 224.088 159.045 222.96 159.32L222.25 158.77C221.244 159.04 220.186 159.04 219.18 158.77C218.21 158.504 217.33 157.982 216.63 157.26C215.889 156.491 215.373 155.533 215.14 154.49ZM216.75 154.26C216.944 155.072 217.355 155.815 217.94 156.41C218.511 156.983 219.226 157.391 220.01 157.59C220.839 157.807 221.711 157.807 222.54 157.59C223.377 157.39 224.146 156.973 224.77 156.38C225.353 155.833 225.783 155.144 226.02 154.38C226.245 153.576 226.245 152.725 226.02 151.92C225.822 151.111 225.403 150.374 224.81 149.79C224.234 149.214 223.517 148.801 222.73 148.59C221.906 148.38 221.043 148.377 220.218 148.582C219.393 148.786 218.631 149.19 218 149.76C217.404 150.326 216.972 151.044 216.752 151.837C216.532 152.63 216.531 153.467 216.75 154.26ZM216.67 159.96C216.606 159.733 216.631 159.49 216.74 159.28C216.799 159.178 216.878 159.088 216.972 159.018C217.067 158.947 217.175 158.897 217.29 158.87L221.1 157.87H222.97V159.27L217.74 160.62C217.627 160.656 217.507 160.667 217.39 160.652C217.272 160.636 217.16 160.595 217.06 160.53C216.862 160.397 216.722 160.193 216.67 159.96Z" fill="white" stroke="white" stroke-width="20" stroke-linecap="round" stroke-linejoin="round"/>
<path d="M219.41 171.46C219.377 171.348 219.369 171.23 219.387 171.114C219.404 170.998 219.446 170.888 219.51 170.79C219.577 170.691 219.662 170.607 219.762 170.542C219.861 170.477 219.973 170.432 220.09 170.41L230.62 168.07C230.734 168.036 230.853 168.026 230.971 168.041C231.089 168.057 231.202 168.097 231.303 168.159C231.405 168.222 231.491 168.305 231.558 168.403C231.625 168.502 231.67 168.613 231.69 168.73C231.72 168.843 231.727 168.96 231.71 169.075C231.692 169.191 231.652 169.301 231.59 169.4C231.523 169.5 231.435 169.585 231.334 169.651C231.233 169.716 231.119 169.76 231 169.78L220.47 172.12C220.355 172.152 220.234 172.161 220.116 172.145C219.997 172.13 219.883 172.091 219.78 172.03C219.588 171.895 219.455 171.691 219.41 171.46ZM221.55 181.11C221.495 180.879 221.531 180.636 221.65 180.43C221.716 180.33 221.801 180.244 221.901 180.177C222.001 180.11 222.112 180.064 222.23 180.04L232.76 177.71C232.877 177.677 233 177.668 233.121 177.686C233.241 177.703 233.357 177.745 233.46 177.81C233.657 177.946 233.794 178.155 233.84 178.39C233.869 178.5 233.874 178.615 233.855 178.727C233.836 178.839 233.793 178.946 233.73 179.04C233.662 179.139 233.575 179.222 233.473 179.286C233.372 179.349 233.258 179.392 233.14 179.41L222.61 181.75C222.378 181.813 222.131 181.785 221.92 181.67C221.823 181.607 221.74 181.525 221.677 181.429C221.613 181.332 221.57 181.224 221.55 181.11ZM224.94 170.86L226.49 170.52L228.49 179.34L226.94 179.68L224.94 170.86Z" fill="white" stroke="white" stroke-width="20" stroke-linecap="round" stroke-linejoin="round"/>
<path d="M223.59 191.53C223.34 190.406 223.395 189.235 223.75 188.14C224.088 187.101 224.704 186.175 225.53 185.46C226.403 184.712 227.459 184.208 228.59 184C229.721 183.754 230.897 183.809 232 184.16C233.039 184.498 233.965 185.114 234.68 185.94C235.411 186.823 235.912 187.873 236.139 188.997C236.366 190.12 236.311 191.283 235.98 192.38C235.637 193.416 235.018 194.339 234.19 195.05C233.312 195.803 232.255 196.317 231.12 196.54C229.994 196.785 228.823 196.723 227.73 196.36C226.689 196.021 225.759 195.405 225.04 194.58C224.293 193.711 223.793 192.658 223.59 191.53ZM225.16 191.21C225.314 192.036 225.687 192.806 226.24 193.44C226.775 194.044 227.467 194.488 228.24 194.72C229.06 194.975 229.932 195.009 230.77 194.82C231.617 194.663 232.412 194.295 233.08 193.75C233.706 193.22 234.173 192.528 234.43 191.75C234.698 190.954 234.746 190.101 234.57 189.28C234.413 188.457 234.041 187.691 233.49 187.06C232.95 186.458 232.26 186.009 231.49 185.76C230.663 185.507 229.785 185.469 228.94 185.65C228.095 185.808 227.305 186.184 226.65 186.74C226.028 187.271 225.564 187.963 225.31 188.74C225.037 189.534 224.985 190.388 225.16 191.21Z" fill="white" stroke="white" stroke-width="20" stroke-linecap="round" stroke-linejoin="round"/>
<path d="M220.46 202.95C220.429 202.833 220.424 202.711 220.444 202.592C220.465 202.473 220.511 202.36 220.579 202.26C220.647 202.16 220.737 202.077 220.84 202.014C220.944 201.952 221.06 201.913 221.18 201.9L231.86 199.96C232.974 199.755 234.123 199.848 235.19 200.23C236.216 200.597 237.127 201.228 237.83 202.06C238.551 202.919 239.031 203.954 239.22 205.06C239.449 206.19 239.37 207.361 238.99 208.45C238.624 209.484 237.988 210.402 237.15 211.11C236.265 211.85 235.198 212.34 234.06 212.53C232.94 212.747 231.782 212.671 230.7 212.31C229.674 211.962 228.76 211.348 228.05 210.53C227.315 209.68 226.833 208.64 226.66 207.53C226.468 206.58 226.517 205.597 226.8 204.67C227.056 203.805 227.519 203.015 228.15 202.37L221.5 203.59C221.383 203.618 221.261 203.622 221.142 203.602C221.024 203.581 220.911 203.536 220.81 203.47C220.63 203.348 220.505 203.162 220.46 202.95ZM228.2 207.1C228.327 207.923 228.672 208.696 229.2 209.34C229.734 209.959 230.425 210.422 231.2 210.68C232.013 210.945 232.88 211 233.72 210.84C234.563 210.709 235.358 210.365 236.03 209.84C236.66 209.331 237.14 208.66 237.42 207.9C237.705 207.109 237.771 206.255 237.61 205.43C237.482 204.614 237.137 203.847 236.61 203.21C236.077 202.595 235.385 202.138 234.61 201.89C233.793 201.637 232.928 201.585 232.087 201.738C231.246 201.892 230.455 202.245 229.78 202.77C229.144 203.274 228.663 203.946 228.39 204.71C228.119 205.477 228.054 206.3 228.2 207.1Z" fill="white" stroke="white" stroke-width="20" stroke-linecap="round" stroke-linejoin="round"/>
<path d="M228.61 217.93C228.586 217.814 228.585 217.694 228.607 217.577C228.629 217.46 228.674 217.349 228.74 217.25C228.889 217.057 229.108 216.931 229.35 216.9L240 215.16C240.116 215.133 240.236 215.131 240.353 215.154C240.471 215.176 240.582 215.222 240.68 215.29C240.777 215.362 240.859 215.453 240.919 215.558C240.979 215.663 241.017 215.78 241.03 215.9C241.053 216.086 241.029 216.275 240.961 216.449C240.893 216.624 240.783 216.779 240.64 216.9L234.2 223.11L242.29 226.93C242.472 227.002 242.632 227.12 242.755 227.273C242.878 227.425 242.959 227.607 242.99 227.8C243.015 227.917 243.016 228.038 242.992 228.155C242.967 228.272 242.919 228.383 242.85 228.48C242.779 228.576 242.69 228.657 242.586 228.718C242.483 228.778 242.369 228.816 242.25 228.83L231.6 230.57C231.484 230.597 231.363 230.599 231.246 230.576C231.129 230.554 231.018 230.508 230.92 230.44C230.822 230.368 230.741 230.277 230.68 230.172C230.62 230.067 230.583 229.95 230.57 229.83C230.545 229.715 230.544 229.596 230.568 229.48C230.593 229.365 230.641 229.256 230.71 229.16C230.783 229.067 230.873 228.989 230.976 228.93C231.079 228.872 231.192 228.835 231.31 228.82L240.82 227.26L240.74 227.86L232.93 224.16C232.762 224.103 232.613 224.003 232.497 223.869C232.381 223.736 232.303 223.574 232.27 223.4C232.251 223.23 232.276 223.058 232.342 222.9C232.409 222.743 232.515 222.605 232.65 222.5L238.8 216.5L239.08 217.06L229.64 218.61C229.526 218.636 229.408 218.638 229.294 218.615C229.18 218.592 229.072 218.545 228.977 218.476C228.882 218.408 228.803 218.321 228.745 218.22C228.687 218.118 228.651 218.006 228.64 217.89L228.61 217.93Z" fill="white" stroke="white" stroke-width="20" stroke-linecap="round" stroke-linejoin="round"/>
<path d="M231 235.28C230.945 234.928 231.031 234.569 231.24 234.28C231.397 234.066 231.614 233.903 231.864 233.812C232.113 233.72 232.384 233.705 232.642 233.766C232.901 233.828 233.135 233.965 233.316 234.16C233.497 234.354 233.617 234.598 233.66 234.86C233.69 235.035 233.683 235.214 233.64 235.386C233.597 235.558 233.519 235.72 233.41 235.86C233.192 236.144 232.873 236.334 232.52 236.39C232.346 236.418 232.168 236.411 231.996 236.37C231.824 236.329 231.663 236.254 231.52 236.15C231.378 236.048 231.259 235.919 231.169 235.769C231.08 235.619 231.022 235.453 231 235.28Z" fill="white" stroke="white" stroke-width="20" stroke-linecap="round" stroke-linejoin="round"/>
<path d="M231.76 240.16C231.728 239.985 231.734 239.805 231.777 239.633C231.82 239.461 231.9 239.299 232.01 239.16C232.111 239.017 232.24 238.896 232.39 238.805C232.54 238.714 232.706 238.654 232.88 238.63C233.143 238.585 233.414 238.62 233.658 238.732C233.901 238.843 234.105 239.025 234.243 239.254C234.381 239.482 234.447 239.748 234.432 240.015C234.418 240.282 234.323 240.538 234.16 240.75C234.054 240.892 233.92 241.01 233.767 241.1C233.615 241.189 233.445 241.247 233.27 241.27C233.096 241.3 232.917 241.293 232.745 241.252C232.574 241.211 232.412 241.135 232.27 241.03C232.127 240.931 232.007 240.801 231.919 240.651C231.831 240.501 231.777 240.333 231.76 240.16Z" fill="white" stroke="white" stroke-width="20" stroke-linecap="round" stroke-linejoin="round"/>
<path d="M232.47 245.05C232.441 244.875 232.448 244.696 232.491 244.524C232.534 244.352 232.612 244.191 232.72 244.05C232.823 243.907 232.954 243.787 233.105 243.698C233.257 243.608 233.425 243.551 233.6 243.53C233.775 243.5 233.956 243.507 234.128 243.552C234.3 243.597 234.461 243.678 234.6 243.79C234.741 243.89 234.859 244.018 234.949 244.166C235.038 244.314 235.096 244.479 235.12 244.65C235.152 244.826 235.146 245.006 235.101 245.179C235.056 245.352 234.974 245.512 234.86 245.65C234.645 245.937 234.325 246.128 233.97 246.18C233.795 246.211 233.616 246.204 233.443 246.161C233.271 246.118 233.11 246.039 232.97 245.93C232.827 245.829 232.709 245.697 232.623 245.545C232.536 245.393 232.484 245.224 232.47 245.05Z" fill="white" stroke="white" stroke-width="20" stroke-linecap="round" stroke-linejoin="round"/>
<path d="M208.08 258.68C211.738 256.84 215.205 254.643 218.43 252.12C219.501 251.512 220.506 250.794 221.43 249.98C221.505 249.786 221.536 249.577 221.52 249.37C219.66 216.75 205.44 173.17 197.96 151.05C199.45 150.37 201.07 148.05 201.33 145.45C201.93 142.18 200.48 138.3 193.83 136.77C193.2 137.57 192.49 138.39 191.71 139.22C191.39 137.63 191.05 135.91 190.66 134.08C189.19 126.429 187.337 118.856 185.11 111.39C184.87 110.52 184.62 109.66 184.37 108.79C184.12 107.92 184.57 106.62 186.72 106.51C187.636 106.492 188.549 106.61 189.43 106.86H189.5C184.93 103.6 182 100.42 181.22 98.35C182.622 97.452 184.245 96.9604 185.91 96.93C186.566 96.9525 187.216 97.0498 187.85 97.22H187.77H187.91C182.66 95.67 176.68 90.01 175.91 88.34C168.5 72.14 159.6 57.05 149.85 49.25C133 35.79 120.31 34.15 107.3 31.66C103.55 30.95 96.5399 28.06 95.9299 24.4C92.1099 26.53 94.2899 30.77 94.3299 30.83C93.5699 30.75 84.4099 29.49 80.3999 18.83V18.9V18.83C78.8599 22.78 76.6699 29.74 81.8699 34.09C78.0699 32.35 72.1299 31.86 66.5999 31.86C62.0559 31.8679 57.5158 32.1249 52.9999 32.63H53.4199C55.2699 32.63 62.8199 32.95 67.7799 37.56C67.6799 37.56 66.5699 37.36 66.1099 37.31C65.9999 37.31 64.6799 37.21 64.1099 37.21C55.4699 37.27 47.2999 43.21 47.2999 43.21C50.0641 42.7826 52.8535 42.5388 55.6499 42.48C58.2799 42.48 60.6499 42.82 60.9799 43.95C55.7598 45.7254 51.0906 48.8267 47.4299 52.95L47.5499 52.87L47.4899 52.95C48.7225 52.2131 50.116 51.7874 51.5499 51.71C51.7999 51.71 53.4699 51.58 53.8799 51.58C55.091 51.5962 56.2999 51.6864 57.4999 51.85C51.9236 57.9997 47.5179 65.1166 44.4999 72.85C43.6461 74.7586 42.9764 76.7442 42.4999 78.78C39.6478 88.5214 39.1102 98.7942 40.9299 108.78C41.3905 111.21 41.9949 113.611 42.7399 115.97C43.989 119.906 45.6411 123.703 47.6699 127.3C52.4099 135.74 58.8699 147.39 61.3499 159.5C60.7499 159.27 60.1499 159.05 59.5599 158.81C58.2095 159.176 57.009 159.959 56.1292 161.047C55.2495 162.135 54.7353 163.473 54.6599 164.87C54.6599 164.87 36.2599 177.3 49.8599 206.5C46.1199 205.94 40.3599 206.03 36.4799 209.94C34.9179 208.364 33.2027 206.947 31.3599 205.71C31.3599 205.71 25.8899 201.66 16.7999 207.21C9.40993 214.9 9.79993 225.05 10.0099 226.76C12.5499 247.67 43.4099 261.46 43.4099 261.46L45.3099 267.36C47.5806 269.107 50.0764 270.54 52.7299 271.62L55.6399 285.02L57.5899 281.43L60.0299 294.93L62.7399 292.14L71.2499 302.26C71.7408 302.774 72.0859 303.409 72.2499 304.1C72.2499 304.1 71.4399 329.89 77.5499 335C70.5499 337.09 57.7499 341.87 52.0799 350C50.8391 351.614 49.9191 353.45 49.3699 355.41H101.06L121.83 354.91C121.83 354.91 128 354.58 125.4 347.91C121.66 338.34 117.4 334.12 117.4 320.3C117.389 320.252 117.388 320.203 117.397 320.155C117.406 320.107 117.424 320.061 117.45 320.02C129.002 320.628 140.585 319.957 151.99 318.02C152.1 324.55 155.7 332.95 158.87 336.8C158.951 336.863 159.012 336.95 159.042 337.048C159.072 337.147 159.072 337.252 159.04 337.35C159.04 337.35 141.53 341.35 135.54 354.53C135.54 354.53 201.09 354.93 208.19 354.47C209.28 354.16 212.38 351.53 212.06 350.33C210.676 345.893 209.005 341.551 207.06 337.33C210.52 333.95 218.97 324.79 219.17 315.8C213.11 322.87 207.65 326.07 203.22 327.34C202.62 325.34 202.06 323.34 201.58 321.34C199.85 312.85 199.73 302.12 203.35 286.07C206.571 277.301 208.174 268.021 208.08 258.68Z" fill="white" stroke="white" stroke-width="20" stroke-linecap="round" stroke-linejoin="round"/>
<path d="M61.75 167.08C60.87 152.55 52.75 137.95 47.11 127.89C45.0905 124.293 43.442 120.5 42.19 116.57C41.4368 114.21 40.8323 111.805 40.38 109.37C36.53 88.86 43.28 67.43 56.91 52.42C49.59 51.42 46.84 53.52 46.84 53.52C50.5012 49.402 55.1657 46.3014 60.38 44.52C59.45 41.73 46.65 43.78 46.65 43.78C46.65 43.78 57.3 36.05 67.13 38.16C61.44 32.86 52.34 33.21 52.34 33.21C52.34 33.21 72.77 30.68 81.19 34.7C75.93 30.35 78.13 23.36 79.67 19.39C83.86 30.54 93.67 31.39 93.67 31.39C93.67 31.39 91.41 27.1 95.26 24.95C95.87 28.61 102.89 31.5 106.63 32.22C119.63 34.71 132.34 36.35 149.17 49.81C158.93 57.6 167.82 72.69 175.23 88.9C175.99 90.56 181.97 96.22 187.23 97.77C184.34 97.04 182.75 97.77 180.54 98.9C181.32 100.97 184.25 104.15 188.82 107.41C184.31 106.26 183.34 108.16 183.71 109.34C188.007 123.22 191.036 137.462 192.76 151.89C192.76 151.89 172.7 177.99 128.44 183.54C81 189.51 61.75 167.08 61.75 167.08Z" fill="#CAA77A"/>
<g style="mix-blend-mode:multiply" opacity="0.23">
<path d="M41.9399 79.36C43.6999 71.12 52.5099 57.36 56.9399 52.42C49.6199 51.42 46.8699 53.52 46.8699 53.52C50.5311 49.402 55.1956 46.3014 60.4099 44.52C59.4799 41.73 46.6899 43.78 46.6899 43.78C46.6899 43.78 57.3399 36.05 67.1599 38.16C61.4999 32.86 52.3899 33.21 52.3899 33.21C52.3899 33.21 72.8199 30.68 81.2399 34.7C75.9799 30.35 78.2399 23.36 79.7299 19.39C83.9099 30.54 93.7299 31.39 93.7299 31.39C93.7299 31.39 91.4699 27.1 95.3299 24.95C95.9299 28.61 102.95 31.5 106.69 32.22C119.69 34.71 132.4 36.35 149.24 49.81C158.99 57.6 167.88 72.69 175.29 88.9C176.06 90.56 182.04 96.22 187.29 97.77C184.4 97.04 182.81 97.77 180.6 98.9C181.39 100.97 184.32 104.15 188.89 107.41C184.37 106.26 183.43 108.16 183.77 109.34C187.771 123.186 190.914 137.266 193.18 151.5C193.18 151.5 193.92 155.38 180.69 161.57C169 34.45 78.0499 28.99 41.9399 79.36Z" fill="#3F2719"/>
</g>
<path d="M43.1001 91.5C45.1001 83.35 53.4101 73.78 75.7601 70.72C88.7101 68.95 88.7601 61.18 88.7601 61.18C88.7601 61.18 95.0701 70.72 111.86 68.68C130.37 63.02 141.35 66.15 151.21 84.25C153.05 87.62 163.79 118.83 151.33 139.3C148.586 143.803 144.795 147.577 140.28 150.3C120.21 162.55 76.7001 166.49 56.7901 141.02C47.5101 129.09 39.4101 106.7 43.1001 91.5Z" fill="#FFDBAF"/>
<path d="M41.1801 94.33C36.5201 108.02 47.6101 128.09 50.3801 130.2C52.5201 131.86 88.0001 112.56 71.2901 71.12C70.6601 69.57 55.7601 74.12 49.8101 78.99C47.1301 81.19 42.6301 90.69 41.1801 94.33Z" fill="#9D7B51"/>
<path d="M114.75 70.72C92.28 123.15 151.16 135.86 156.08 126.66C160.4 118.59 158.99 98.66 151.08 84.76C150.31 83.4 140.52 71.44 139.08 71.68C127.49 73.65 118.2 70.86 114.75 70.72Z" fill="#9D7B51"/>
<path d="M112.25 68.61C152 65.73 157.76 97.8 157.76 97.8" stroke="#2D1F04" stroke-width="7.6" stroke-linecap="round" stroke-linejoin="round"/>
<path d="M71.29 71.12C40.39 75.84 37.29 102 37.29 102" stroke="#2D1F04" stroke-width="7.6" stroke-linecap="round" stroke-linejoin="round"/>
<path opacity="0.82" d="M47.1301 101C52.3001 104 57.9701 109.39 71.2901 101.41C72.4201 107.23 69.0601 118.02 59.4801 117.74C48.0001 117.41 45.0001 104.59 47.1301 101Z" fill="#B2B2B2"/>
<path d="M59.3501 88.93C60.8222 88.9247 62.281 89.2095 63.643 89.768C65.0051 90.3265 66.2439 91.1478 67.2885 92.185C68.3332 93.2223 69.1633 94.4551 69.7315 95.8132C70.2997 97.1712 70.5949 98.6279 70.6001 100.1V100.86C70.5129 103.784 69.2899 106.56 67.1906 108.597C65.0913 110.635 62.2807 111.775 59.3551 111.775C56.4295 111.775 53.619 110.635 51.5196 108.597C49.4203 106.56 48.1973 103.784 48.1101 100.86V100.13C48.1101 98.6558 48.4011 97.1961 48.9665 95.8347C49.5318 94.4732 50.3604 93.2368 51.4046 92.1962C52.4489 91.1557 53.6883 90.3315 55.0518 89.771C56.4152 89.2105 57.8759 88.9247 59.3501 88.93Z" fill="white"/>
<path d="M132.82 87.65C134.295 87.6448 135.757 87.9309 137.121 88.492C138.485 89.0531 139.725 89.8782 140.769 90.9198C141.813 91.9614 142.642 93.199 143.207 94.5616C143.771 95.9243 144.061 97.385 144.06 98.86V99.59C144.06 102.571 142.876 105.43 140.768 107.538C138.66 109.646 135.801 110.83 132.82 110.83C129.839 110.83 126.98 109.646 124.872 107.538C122.764 105.43 121.58 102.571 121.58 99.59V98.86C121.579 97.385 121.869 95.9243 122.434 94.5616C122.998 93.199 123.827 91.9614 124.871 90.9198C125.915 89.8782 127.155 89.0531 128.519 88.492C129.884 87.9309 131.345 87.6448 132.82 87.65Z" fill="white"/>
<path d="M132.82 101.45C134.074 101.45 135.09 100.434 135.09 99.18C135.09 97.9263 134.074 96.91 132.82 96.91C131.566 96.91 130.55 97.9263 130.55 99.18C130.55 100.434 131.566 101.45 132.82 101.45Z" fill="#2D1F04"/>
<path d="M59.35 105.88C62.5643 105.88 65.17 103.274 65.17 100.06C65.17 96.8457 62.5643 94.24 59.35 94.24C56.1357 94.24 53.53 96.8457 53.53 100.06C53.53 103.274 56.1357 105.88 59.35 105.88Z" fill="#2D1F04"/>
<path d="M85.65 105.23C78.92 101.82 70.19 121.44 70.65 126.39C72.19 144.44 99.96 149.09 113.28 138.1C127.49 126.39 108.03 99.33 96.35 104.1" fill="#9D7B51"/>
<path d="M81.0001 106.45C80.8701 103.89 85.8301 101.56 92.0801 101.25C98.3301 100.94 103.49 102.76 103.61 105.32C103.73 107.88 98.7801 110.21 92.5301 110.52C86.2801 110.83 81.1201 109.01 81.0001 106.45Z" fill="#251707"/>
<path d="M59.3501 88.53C60.8222 88.5248 62.281 88.8095 63.643 89.368C65.0051 89.9265 66.2439 90.7478 67.2885 91.7851C68.3332 92.8223 69.1633 94.0551 69.7315 95.4132C70.2997 96.7712 70.5949 98.2279 70.6001 99.7V100.43C70.5129 103.354 69.2899 106.13 67.1906 108.167C65.0913 110.205 62.2807 111.345 59.3551 111.345C56.4295 111.345 53.619 110.205 51.5196 108.167C49.4203 106.13 48.1973 103.354 48.1101 100.43V99.7C48.114 98.2284 48.408 96.7719 48.9751 95.414C49.5422 94.056 50.3714 92.823 51.4152 91.7857C52.4591 90.7483 53.6972 89.9268 55.0587 89.3682C56.4202 88.8096 57.8785 88.5248 59.3501 88.53V88.53Z" stroke="#2D1F04" stroke-width="2.6" stroke-linecap="round" stroke-linejoin="round"/>
<path d="M132.82 87.65C134.295 87.6448 135.757 87.9309 137.121 88.492C138.485 89.0531 139.725 89.8782 140.769 90.9198C141.813 91.9614 142.642 93.199 143.207 94.5616C143.771 95.9243 144.061 97.385 144.06 98.86V99.59C144.06 102.571 142.876 105.43 140.768 107.538C138.66 109.646 135.801 110.83 132.82 110.83C129.839 110.83 126.98 109.646 124.872 107.538C122.764 105.43 121.58 102.571 121.58 99.59V98.86C121.579 97.385 121.869 95.9243 122.434 94.5616C122.998 93.199 123.827 91.9614 124.871 90.9198C125.915 89.8782 127.155 89.0531 128.519 88.492C129.884 87.9309 131.345 87.6448 132.82 87.65Z" stroke="#2D1F04" stroke-width="2.6" stroke-linecap="round" stroke-linejoin="round"/>
<path d="M91.59 108.86C91.59 108.86 89.5 119.43 91.59 121.63C93.68 123.83 102.87 123.95 108.59 119.21" stroke="#251707" stroke-width="2.62" stroke-linecap="round" stroke-linejoin="round"/>
<path d="M120.24 99.1801C124.43 105.51 135.02 112.18 145.37 100.18C146.5 106 142.37 114.95 132.82 114.68C121.32 114.38 118.15 102.77 120.24 99.1801Z" fill="#B2B2B2"/>
<path d="M61.75 167.08C60.87 152.55 52.75 137.95 47.11 127.89C45.0905 124.293 43.442 120.5 42.19 116.57C41.4368 114.21 40.8323 111.805 40.38 109.37C36.53 88.86 43.28 67.43 56.91 52.42C49.59 51.42 46.84 53.52 46.84 53.52C50.5012 49.402 55.1657 46.3014 60.38 44.52C59.45 41.73 46.65 43.78 46.65 43.78C46.65 43.78 57.3 36.05 67.13 38.16C61.44 32.86 52.34 33.21 52.34 33.21C52.34 33.21 72.77 30.68 81.19 34.7C75.93 30.35 78.13 23.36 79.67 19.39C83.86 30.54 93.67 31.39 93.67 31.39C93.67 31.39 91.41 27.1 95.26 24.95C95.87 28.61 102.89 31.5 106.63 32.22C119.63 34.71 132.34 36.35 149.17 49.81C158.93 57.6 167.82 72.69 175.23 88.9C175.99 90.56 181.97 96.22 187.23 97.77C184.34 97.04 182.75 97.77 180.54 98.9C181.32 100.97 184.25 104.15 188.82 107.41C184.31 106.26 183.35 108.16 183.71 109.34C187.843 122.956 191.247 136.782 193.91 150.76" stroke="#2D1F04" stroke-width="2.62" stroke-linecap="round" stroke-linejoin="round"/>
<path d="M106.21 115.61C106.21 115.61 111.99 116.48 111 123.11" stroke="#251707" stroke-width="2.62" stroke-linecap="round" stroke-linejoin="round"/>
<path d="M81.3701 334.86C81.3701 334.86 52.8601 341.06 48.8401 356H100.54C98.5743 351.329 96.2785 346.805 93.6701 342.46C88.5601 333.62 81.3701 334.86 81.3701 334.86Z" fill="#D2D2D2"/>
<g style="mix-blend-mode:multiply" opacity="0.23">
<path d="M81.73 334.34C81.73 334.34 53.22 340.53 49.2 355.48H100.89C98.9229 350.803 96.6202 346.275 94 341.93C88.91 333.13 81.73 334.34 81.73 334.34Z" fill="#3F2719"/>
</g>
<path d="M158.47 337.96C158.47 337.96 140.97 341.96 134.97 355.15L179.97 355.6C179.97 355.6 181.79 351.89 176.91 343.5C171.76 334.7 158.47 337.96 158.47 337.96Z" fill="#D2D2D2"/>
<path d="M77.25 335.45C77.25 335.45 53.25 340.53 49.25 355.45H100.94" stroke="#2D1F04" stroke-width="2.62" stroke-linecap="round" stroke-linejoin="round"/>
<path d="M116.84 320.86C116.84 334.68 121.14 338.86 124.84 348.47C127.44 355.14 121.28 355.47 121.28 355.47H100.56C95.8201 342.64 85.4501 338.59 78.3001 336.31C70.8101 333.92 71.7301 304.68 71.7301 304.68" fill="#CAA77A"/>
<g style="mix-blend-mode:multiply" opacity="0.23">
<path d="M116.84 320.86C116.84 334.68 121.14 338.86 124.84 348.47C127.44 355.14 121.28 355.47 121.28 355.47H100.56C95.8201 342.64 85.4501 338.59 78.3001 336.31C70.8101 333.92 71.7301 304.68 71.7301 304.68" fill="#3F2719"/>
</g>
<path d="M116.84 320.86C116.84 334.68 121.14 338.86 124.84 348.47C127.44 355.14 121.28 355.47 121.28 355.47H100.56C95.82 342.64 85.05 338.01 77.9 335.72C70.4 333.33 71.78 303.17 71.78 303.17" stroke="#2D1F04" stroke-width="2.62" stroke-linecap="round" stroke-linejoin="round"/>
<path d="M89.3299 341.08C89.3299 341.08 61.7199 342.93 49.9399 355.15" stroke="#2D1F04" stroke-width="2.62" stroke-linecap="round" stroke-linejoin="round"/>
<path d="M51.54 269.27L55.08 285.61L57.08 282.03L59.51 295.53L62.23 292.74L70.69 302.86C70.69 302.86 90.93 320.26 111.83 320.02C125.61 322.02 143.43 319.72 151.41 318.33C151.41 324.89 155.08 333.51 158.31 337.43C171.85 338.93 180.8 355.49 180.8 355.49C180.8 355.49 200.54 355.49 207.65 355.03C209.299 354.193 210.683 352.916 211.65 351.34C204.86 334.16 193.15 311.81 202.8 286.64C206.478 276.548 208.001 265.797 207.27 255.08" fill="#CAA77A"/>
<g style="mix-blend-mode:multiply" opacity="0.23">
<path d="M70.6899 302.86C70.6899 302.86 115.21 328.73 163.13 303.19C164.68 306.57 162.62 316.38 162.62 316.38C162.62 316.38 100.54 332.77 70.6899 302.86Z" fill="#3F2719"/>
</g>
<g style="mix-blend-mode:multiply" opacity="0.23">
<path d="M176.69 349.52C178.208 351.41 179.576 353.416 180.78 355.52C180.78 355.52 200.52 355.52 207.63 355.06C209.279 354.223 210.663 352.946 211.63 351.37C205.96 331.37 192.78 323.09 204.63 279.08C206.611 271.244 207.35 263.145 206.82 255.08L176 259.7C176 259.7 209.79 353.6 176.69 349.52Z" fill="#3F2719"/>
</g>
<path d="M52 272.79C52.8065 277.226 53.8378 281.619 55.09 285.95C55.45 284.02 55.71 284 56.89 282.78C56.69 284.83 58.78 294.01 59.89 296.1C60.09 294.16 60.74 293.74 62.24 292.74C73.79 312.65 106.43 328.88 160.92 316.63" stroke="#2D1F04" stroke-width="2.62" stroke-linecap="round" stroke-linejoin="round"/>
<path d="M43.5101 262C43.5101 262 -7.48992 239.22 16.2501 207.8C35.2501 196.23 26.0301 214.2 49.3701 217.24" fill="#CAA77A"/>
<g style="mix-blend-mode:multiply" opacity="0.23">
<path d="M42.86 262.05C42.86 262.05 12 248.26 9.46003 227.35C8.73003 221.35 12.55 235.59 23.61 228.94C42.61 217.5 25.38 214.24 48.72 217.28" fill="#3F2719"/>
</g>
<path d="M54.1099 165.46C54.1099 165.46 33.4099 179.46 52.1099 212.55C37.8599 248.03 44.7399 267.95 44.7399 267.95C71.7399 289.59 191.74 279.1 220.88 249.95C219.01 217.09 204.59 173.08 197.15 151.12C200.49 150.04 204.91 140.05 193.15 137.35C178.4 156.1 121.82 184.57 58.9499 159.35C57.6021 159.728 56.4083 160.523 55.539 161.62C54.6698 162.717 54.1696 164.061 54.1099 165.46Z" fill="#FFDB1F"/>
<g style="mix-blend-mode:multiply" opacity="0.23">
<path d="M56.5 200.93C61.73 209.52 64.58 211 88.29 210.73C107.94 210.73 124.29 204.9 129.49 210.61C139.37 221.52 105.24 215.71 84.49 216.43C72.94 216.83 54.19 214.22 46.49 229.82C47.5 221.59 54.31 205.95 56.5 200.93Z" fill="#3F2719"/>
</g>
<g style="mix-blend-mode:multiply" opacity="0.23">
<path d="M183.08 270.27C189.36 267.18 217.08 254.27 220.81 250.56C218.94 217.7 204.51 173.69 197.08 151.73C200.41 150.66 204.83 140.67 193.08 137.96C190.49 141.26 172.46 155.38 164.72 157.66C212.2 152.13 192 235.5 183.08 270.27Z" fill="#3F2719"/>
</g>
<path d="M59 174.16C59 174.16 52.79 190.16 56.59 203.22C49.44 210.65 39.32 252.1 44.76 267.95C52.76 282.49 176.81 288.43 220.9 249.95C215.46 196.61 196.59 152.13 196.59 152.13" stroke="#2D1F04" stroke-width="2.62" stroke-linecap="round" stroke-linejoin="round"/>
<path d="M128.06 181.09C128.06 181.09 98.67 186.76 57.91 173.86C50.91 164.23 59 159.44 59 159.44C59 159.44 93.35 172.53 136.07 166.38C168.99 161.64 190.4 141.38 193.2 137.38C198.05 136.64 202.44 146.85 198.05 150.85C185.44 162.41 176.14 164.19 176.14 164.19" stroke="#2D1F04" stroke-width="2.62" stroke-linecap="round" stroke-linejoin="round"/>
<path d="M55.14 164.42C55.14 164.42 34.4 179.71 49.43 206.3" stroke="#2D1F04" stroke-width="2.62" stroke-linecap="round" stroke-linejoin="round"/>
<path d="M207.35 259.86C208.35 274.55 202.79 287.04 199.92 300.15C197 313.52 202.92 330.71 211.31 350.39C212.58 353.39 208.78 355.15 206.49 355.15H180.55C180.55 355.15 170.09 338.15 159.19 337.75C152.29 330.54 151.72 318.46 151.72 318.46" stroke="#2D1F04" stroke-width="2.62" stroke-linecap="round" stroke-linejoin="round"/>
<path d="M30.25 206.3C41.88 218.87 48.92 217.3 48.71 217.07" stroke="#2D1F04" stroke-width="2.62" stroke-linecap="round" stroke-linejoin="round"/>
<path d="M159.19 337.75C159.19 337.75 137.99 343.48 134.8 355.15H180.55" stroke="#2D1F04" stroke-width="2.62" stroke-linecap="round" stroke-linejoin="round"/>
<path d="M134.8 355.15C134.8 355.15 151.72 342.76 169.8 342.65" stroke="#2D1F04" stroke-width="2.62" stroke-linecap="round" stroke-linejoin="round"/>
<path d="M34.9999 226.64C32.8799 212.05 46.3799 210.53 51.3499 209.93C52.4999 209.79 51.4399 207.51 51.0799 207.43C45.6499 206.15 30.6999 205.13 31.8499 225.24C32.9799 244.98 47.1799 242.61 51.0499 241.67C51.5999 241.53 51.7099 238.41 51.7099 238.41C51.7099 238.41 36.9999 239.86 34.9999 226.64Z" fill="#3178C6"/>
<path d="M53.37 208.12C53.37 208.12 29.83 202.24 31.12 224.78C32.41 247.32 52.54 240.78 52.54 240.78" stroke="#2D1F04" stroke-width="2.62" stroke-linecap="round" stroke-linejoin="round"/>
<path d="M58.4801 210.86C58.4801 210.86 35.2401 206.09 35.9301 224.32C36.7001 244.68 57.5601 237.32 57.6401 237.25" stroke="#2D1F04" stroke-width="2.62" stroke-linecap="round" stroke-linejoin="round"/>
<path d="M49.3699 200V246.4C49.3699 246.4 55.9799 253.5 71.4999 253.59C87.0199 253.68 93.6299 245.93 93.6299 245.93V199.37C86.548 202.391 78.9191 203.92 71.2199 203.86C57.4599 203.86 49.3699 200 49.3699 200Z" fill="#3178C6"/>
<path d="M49.4299 199.01C49.4299 199.01 69.1099 187.17 93.6799 199.37C65.1699 209.41 49.4299 199.01 49.4299 199.01Z" fill="#3178C6"/>
<g style="mix-blend-mode:multiply" opacity="0.23">
<path d="M50.46 199.01C50.46 199.01 70.14 187.17 94.72 199.37C66.2 209.41 50.46 199.01 50.46 199.01Z" fill="#3F2719"/>
</g>
<path d="M54.1101 201.86C54.1101 201.86 68.8701 194.29 88.1101 201.32C71.1201 207.1 54.1101 201.86 54.1101 201.86Z" fill="#82603C"/>
<path d="M58.0901 218.99V239.13C58.0918 239.569 58.2291 239.997 58.4833 240.355C58.7375 240.713 59.0961 240.984 59.5101 241.13C63.3889 242.355 67.4437 242.929 71.5101 242.83C77.8501 242.83 81.7301 241.7 83.5901 240.94C83.9845 240.776 84.321 240.499 84.5563 240.142C84.7915 239.786 84.9147 239.367 84.9101 238.94V218.76C84.9125 218.446 84.8453 218.135 84.7135 217.85C84.5817 217.565 84.3884 217.313 84.1476 217.111C83.9067 216.909 83.6243 216.763 83.3204 216.684C83.0166 216.604 82.6989 216.593 82.3901 216.65C78.8004 217.307 75.1593 217.641 71.5101 217.65C67.8303 217.672 64.1538 217.424 60.5101 216.91C60.2117 216.872 59.9088 216.897 59.6208 216.984C59.3327 217.07 59.0661 217.216 58.838 217.412C58.6099 217.608 58.4255 217.85 58.2967 218.122C58.1679 218.394 58.0975 218.689 58.0901 218.99Z" fill="white"/>
<g style="mix-blend-mode:multiply" opacity="0.23">
<path d="M72.5901 253.59C87.2201 254 93.6701 245.78 93.6701 245.78V199.21C93.6701 199.21 83.1301 204.63 72.5901 204.04V253.59Z" fill="#3F2719"/>
</g>
<path d="M49.4299 200V246.4C49.4299 246.4 56.0299 253.5 71.5599 253.59C87.0899 253.68 93.6799 245.93 93.6799 245.93V199.37C86.6016 202.392 78.976 203.92 71.2799 203.86C57.5199 203.86 49.4299 200 49.4299 200Z" stroke="#2D1F04" stroke-width="2.62" stroke-linecap="round" stroke-linejoin="round"/>
<path d="M49.4299 199.37C49.4299 199.37 55.2599 193.1 70.6699 193.09C86.5299 193.09 93.1299 198.93 93.1299 198.93" stroke="#2D1F04" stroke-width="2.62" stroke-linecap="round" stroke-linejoin="round"/>
<path d="M68.83 239.39C67.83 239.32 67.36 239.27 66.38 239.16C66.38 235.06 66.38 233.11 66.38 229.06C65.13 228.94 64.51 228.87 63.24 228.71V226.59C66.1459 226.989 69.0769 227.176 72.01 227.15C72.01 228.01 72.01 228.44 72.01 229.29C70.76 229.29 70.08 229.29 68.82 229.22C68.82 233.29 68.83 235.29 68.83 239.39Z" fill="#3178C6"/>
<path d="M77.0001 233.91C76.0592 233.694 75.1928 233.232 74.4901 232.57C74.0302 231.985 73.7991 231.253 73.8401 230.51C73.8207 230.02 73.904 229.53 74.0849 229.074C74.2657 228.618 74.54 228.204 74.8901 227.86C75.7247 227.135 76.7849 226.721 77.8901 226.69C78.4552 226.63 79.025 226.63 79.5901 226.69C80.1619 226.751 80.7274 226.861 81.2801 227.02V229.41C80.7791 229.13 80.2402 228.925 79.6801 228.8C79.1566 228.674 78.6158 228.637 78.0801 228.69C77.5893 228.712 77.1162 228.879 76.7201 229.17C76.5634 229.295 76.4384 229.455 76.355 229.638C76.2716 229.82 76.2323 230.02 76.2401 230.22C76.2353 230.375 76.264 230.53 76.3244 230.673C76.3848 230.816 76.4755 230.945 76.5901 231.05C77.0219 231.354 77.5123 231.565 78.0301 231.67L79.0801 231.95C79.9076 232.103 80.6704 232.5 81.2701 233.09C81.7662 233.701 82.0159 234.475 81.9701 235.26C82.0028 235.809 81.9219 236.358 81.7327 236.875C81.5434 237.391 81.2498 237.862 80.8701 238.26C79.9458 239.08 78.7651 239.554 77.5301 239.6C76.9121 239.65 76.2903 239.619 75.6801 239.51C75.0595 239.4 74.4571 239.205 73.8901 238.93V236.4C74.4701 236.826 75.1105 237.163 75.7901 237.4C76.3774 237.587 76.9956 237.659 77.6101 237.61C78.123 237.584 78.6123 237.387 79.0001 237.05C79.1661 236.897 79.2968 236.709 79.3832 236.5C79.4695 236.291 79.5094 236.066 79.5001 235.84C79.5104 235.5 79.3927 235.168 79.1701 234.91C78.9028 234.624 78.5534 234.429 78.1701 234.35L77.0001 233.91Z" fill="#3178C6"/>
<path d="M30.81 206.3C30.81 206.3 46 215.86 43.62 230.22C38 227.96 24 237.86 24 237.86C24 237.86 28.86 224.74 29.71 220.99C30.62 216.73 30.81 206.3 30.81 206.3Z" fill="#D2D2D2"/>
<path d="M22.8901 238.86C22.8901 238.86 36.6201 210.48 29.0701 204.97C28.6446 204.667 28.1714 204.437 27.6701 204.29C13.4301 200.11 0.520078 227.75 19.3701 245.35C29.3701 254.71 39.8201 260.65 43.5101 261.97" stroke="#2D1F04" stroke-width="2.62" stroke-linecap="round" stroke-linejoin="round"/>
<path d="M28.4701 204.63C28.4701 204.63 39.4701 209.77 42.2201 218.33C44.1401 224.33 44.6501 231.53 42.4601 230.9C37.4601 229.45 23.4001 237.81 23.4001 237.81" stroke="#2D1F04" stroke-width="2.62" stroke-linecap="round" stroke-linejoin="round"/>
<path d="M29.8201 220.62C38.0901 220.31 42.6101 228.94 42.6101 228.94" stroke="#2D1F04" stroke-width="2.62" stroke-linecap="round" stroke-linejoin="round"/>
<path d="M70 163.05C69.3536 165.257 69.4201 167.613 70.19 169.78" stroke="#2D1F04" stroke-width="2.62" stroke-linecap="round" stroke-linejoin="round"/>
<path d="M75.8901 164.31C75.2231 166.365 75.2903 168.589 76.0801 170.6" stroke="#2D1F04" stroke-width="2.62" stroke-linecap="round" stroke-linejoin="round"/>
<path d="M105.24 168.54C104.706 170.552 104.843 172.683 105.63 174.61" stroke="#2D1F04" stroke-width="2.62" stroke-linecap="round" stroke-linejoin="round"/>
<path d="M132.12 167.22C131.785 169.29 132.017 171.411 132.79 173.36" stroke="#2D1F04" stroke-width="2.62" stroke-linecap="round" stroke-linejoin="round"/>
<path d="M137.37 166.4C137.036 168.345 137.272 170.346 138.05 172.16" stroke="#2D1F04" stroke-width="2.62" stroke-linecap="round" stroke-linejoin="round"/>
<path d="M142.77 165.29C142.435 167.244 142.668 169.254 143.44 171.08" stroke="#2D1F04" stroke-width="2.62" stroke-linecap="round" stroke-linejoin="round"/>
<path d="M77.25 291.51L77.9 296.42" stroke="#9D7B51" stroke-width="3.87" stroke-linecap="round" stroke-linejoin="round"/>
<path d="M83.3501 294.15L83.9901 299.06" stroke="#9D7B51" stroke-width="3.87" stroke-linecap="round" stroke-linejoin="round"/>
<path d="M89.76 296.42L90.4 301.33" stroke="#9D7B51" stroke-width="3.87" stroke-linecap="round" stroke-linejoin="round"/>
<path d="M191.21 327.08C191.21 327.08 202.93 334.7 218.62 316.37C218.37 327.68 205.05 339.27 205.05 339.27C205.05 339.27 193.33 335.91 191.21 327.08Z" fill="#D2D2D2"/>
<g style="mix-blend-mode:multiply" opacity="0.23">
<path d="M191.21 327.08C191.21 327.08 202.93 334.7 218.62 316.37C218.37 327.68 205.05 339.27 205.05 339.27C205.05 339.27 193.33 335.91 191.21 327.08Z" fill="#3F2719"/>
</g>
<path d="M218.62 316.37C218.62 316.37 209.16 333.57 198.37 334.48" stroke="#2D1F04" stroke-width="2.62" stroke-linecap="round" stroke-linejoin="round"/>
<path d="M191.21 327.08C191.21 327.08 202.93 334.7 218.62 316.37C218.37 327.68 205.05 339.27 205.05 339.27C205.05 339.27 193.33 335.91 191.21 327.08Z" stroke="#2D1F04" stroke-width="2.62" stroke-linecap="round" stroke-linejoin="round"/>
<path d="M146.85 215.63C146.85 215.63 132.26 361.29 204.2 339.76C163.36 320.58 193.74 221.49 193.74 221.49C193.74 221.49 194.26 211.91 171.2 208.88C147.42 205.75 146.85 215.63 146.85 215.63Z" fill="#CAA77A"/>
<path d="M142.25 211.45C141.75 207.45 140.62 149.28 180.72 153.81C213.86 157.56 201.59 213.43 199.22 220.03C190.9 222.24 198.39 218.03 169.69 214.23C147.34 211.31 147.18 219.27 142.25 211.45Z" fill="#FFDB1F"/>
<g style="mix-blend-mode:multiply" opacity="0.23">
<path d="M193.74 221.05C194.697 221.366 195.724 221.396 196.698 221.137C197.671 220.877 198.548 220.34 199.22 219.59C201.59 212.99 213.86 157.12 180.72 153.37C171.11 152.29 163.87 154.8 158.42 159.31C192.11 150.04 198.93 181.42 190.51 206.85C152.67 321.11 200.58 338.68 169 333.32C177.45 340.9 188.86 343.91 204.2 339.32C163.36 320.14 193.74 221.05 193.74 221.05Z" fill="#3F2719"/>
</g>
<path d="M146.85 215.63C146.85 215.63 132.26 361.29 204.2 339.76C163.36 320.58 193.74 221.49 193.74 221.49" stroke="#2D1F04" stroke-width="2.62" stroke-linecap="round" stroke-linejoin="round"/>
<path d="M146.85 215.55C146.85 215.55 142.55 214.64 142.06 210.68C141.57 206.72 140.43 148.52 180.53 153.05C213.67 156.79 201.4 212.66 199.03 219.27C198.458 220.109 197.651 220.761 196.709 221.142C195.768 221.522 194.735 221.616 193.74 221.41" stroke="#2D1F04" stroke-width="2.62" stroke-linecap="round" stroke-linejoin="round"/>
<path d="M141.93 206.39C141.93 206.39 162.09 201.65 182.24 207.39" stroke="#2D1F04" stroke-width="2.62" stroke-linecap="round" stroke-linejoin="round"/>
<path d="M157.48 205.75C157.243 207.137 157.243 208.553 157.48 209.94" stroke="#2D1F04" stroke-width="2.62" stroke-linecap="round" stroke-linejoin="round"/>
<path d="M172 205.99C171.445 207.507 171.184 209.115 171.23 210.73" stroke="#2D1F04" stroke-width="2.62" stroke-linecap="round" stroke-linejoin="round"/>
<path d="M177.64 206.24C176.901 207.886 176.503 209.665 176.47 211.47" stroke="#2D1F04" stroke-width="2.62" stroke-linecap="round" stroke-linejoin="round"/>
<path d="M176.95 241.74L176.3 246.65" stroke="#9D7B51" stroke-width="3.87" stroke-linecap="round" stroke-linejoin="round"/>
<path d="M171.2 243.29L170.56 248.21" stroke="#9D7B51" stroke-width="3.87" stroke-linecap="round" stroke-linejoin="round"/>
<path d="M141.55 26.23C141.318 26.1042 141.14 25.8979 141.05 25.65C141.009 25.5333 140.995 25.4088 141.009 25.2858C141.022 25.1629 141.064 25.0447 141.13 24.94L149.39 11.04C149.445 10.9346 149.521 10.8418 149.614 10.7677C149.707 10.6937 149.815 10.6399 149.93 10.61C150.047 10.5835 150.169 10.5804 150.287 10.601C150.405 10.6216 150.519 10.6654 150.62 10.73L159.04 15.73C159.136 15.7804 159.22 15.8513 159.286 15.9377C159.351 16.0241 159.397 16.1239 159.42 16.23C159.47 16.4576 159.432 16.6957 159.313 16.8961C159.194 17.0966 159.004 17.2445 158.78 17.31C158.675 17.3355 158.566 17.3397 158.46 17.3226C158.353 17.3054 158.251 17.2671 158.16 17.21L150.51 12.67L147.63 17.51L152.52 20.41C153.384 20.9056 154.11 21.6106 154.63 22.46C155.111 23.2423 155.367 24.1418 155.37 25.06C155.369 26.0172 155.103 26.9554 154.6 27.77C154.124 28.6031 153.433 29.2937 152.6 29.77C151.786 30.2147 150.867 30.429 149.94 30.39C148.948 30.3364 147.985 30.0337 147.14 29.51L141.55 26.23ZM143.1 25.15L147.99 28.05C148.568 28.4033 149.224 28.6093 149.9 28.65C150.531 28.6756 151.158 28.5269 151.71 28.22C152.292 27.8802 152.774 27.3941 153.11 26.81C153.463 26.2379 153.656 25.5819 153.67 24.91C153.671 24.2882 153.498 23.6785 153.17 23.15C152.801 22.5823 152.3 22.1123 151.71 21.78L146.82 18.86L143.1 25.15Z" fill="black"/>
<path d="M158 37.98C157.128 37.2308 156.47 36.265 156.09 35.18C155.736 34.1504 155.674 33.0429 155.91 31.98C156.179 30.8599 156.729 29.8271 157.51 28.98C158.257 28.089 159.216 27.401 160.3 26.98C161.289 26.6078 162.361 26.5144 163.4 26.71C164.477 26.9199 165.474 27.4255 166.28 28.17C167.094 28.8878 167.69 29.8199 168 30.86C168.284 31.8399 168.284 32.8802 168 33.86C167.702 34.924 167.153 35.9012 166.4 36.71C166.333 36.7956 166.248 36.8658 166.152 36.9159C166.055 36.9659 165.949 36.9946 165.84 37C165.731 37.0009 165.622 36.9801 165.521 36.9389C165.42 36.8977 165.328 36.8369 165.25 36.76L158 30.2L159 29.1L166.43 35.74L165.22 35.61C165.79 35.0132 166.212 34.2903 166.45 33.5C166.66 32.7851 166.66 32.025 166.45 31.31C166.225 30.5638 165.792 29.8975 165.2 29.39C164.621 28.8422 163.895 28.4733 163.111 28.3279C162.327 28.1824 161.518 28.2665 160.78 28.57C159.989 28.9085 159.285 29.4212 158.72 30.07C158.127 30.7035 157.712 31.4835 157.52 32.33C157.341 33.1187 157.379 33.9413 157.63 34.71C157.897 35.5216 158.381 36.2445 159.03 36.8C159.453 37.1775 159.937 37.4816 160.46 37.7C160.93 37.912 161.435 38.0341 161.95 38.06C162.161 38.0602 162.364 38.1386 162.52 38.28C162.68 38.3978 162.788 38.5737 162.82 38.77C162.84 38.8842 162.835 39.0014 162.806 39.1135C162.776 39.2256 162.723 39.3302 162.65 39.42C162.585 39.5041 162.499 39.5703 162.401 39.6122C162.303 39.6542 162.196 39.6707 162.09 39.66C161.35 39.6244 160.622 39.4585 159.94 39.17C159.229 38.8889 158.573 38.4862 158 37.98Z" fill="black"/>
<path d="M166.18 46.57C165.753 46.0749 165.396 45.523 165.12 44.93C164.849 44.3734 164.661 43.7806 164.56 43.17C164.459 42.6448 164.459 42.1053 164.56 41.58C164.577 41.4668 164.62 41.3588 164.684 41.2638C164.748 41.1687 164.832 41.0889 164.93 41.03C165.03 40.9662 165.144 40.9274 165.263 40.9169C165.381 40.9065 165.5 40.9247 165.61 40.97C165.711 41.0025 165.804 41.0557 165.883 41.1263C165.963 41.1969 166.026 41.2834 166.07 41.38C166.188 41.5784 166.234 41.8116 166.2 42.04C166.156 42.6275 166.224 43.2179 166.4 43.78C166.611 44.4161 166.952 45.0016 167.4 45.5C167.881 46.1308 168.539 46.6042 169.29 46.86C169.599 46.9563 169.929 46.9691 170.245 46.8971C170.561 46.8251 170.853 46.6709 171.09 46.45C171.314 46.2631 171.495 46.0292 171.62 45.7649C171.744 45.5005 171.809 45.2122 171.81 44.92C171.817 44.2956 171.601 43.6891 171.2 43.21L170.43 42.32C170.254 42.135 170.148 41.8946 170.13 41.64C170.122 41.5352 170.138 41.4299 170.178 41.3326C170.218 41.2353 170.28 41.1488 170.36 41.08C170.438 41.0106 170.531 40.9615 170.632 40.937C170.734 40.9126 170.839 40.9136 170.94 40.94C171.186 41.0002 171.404 41.1411 171.56 41.34L172.33 42.23C172.497 42.4254 172.702 42.5853 172.932 42.7004C173.162 42.8154 173.413 42.8833 173.67 42.9C174.167 42.9009 174.644 42.707 175 42.36C175.205 42.1852 175.362 41.9617 175.458 41.7101C175.555 41.4586 175.586 41.1869 175.55 40.92C175.46 40.2396 175.155 39.6056 174.68 39.11C174.272 38.605 173.756 38.1983 173.17 37.92C172.695 37.7086 172.179 37.6061 171.66 37.62C171.426 37.6205 171.2 37.5391 171.02 37.39C170.848 37.2487 170.735 37.0495 170.7 36.83C170.675 36.7269 170.678 36.6192 170.708 36.5175C170.738 36.4158 170.794 36.3236 170.87 36.25C170.947 36.1653 171.042 36.0975 171.147 36.0511C171.252 36.0046 171.365 35.9804 171.48 35.98C172.274 35.989 173.058 36.152 173.79 36.46C174.554 36.7964 175.24 37.2886 175.803 37.905C176.366 38.5215 176.794 39.2486 177.06 40.04C177.271 40.6857 177.308 41.3752 177.17 42.04C177.046 42.6482 176.722 43.1973 176.25 43.6C175.881 43.9238 175.426 44.1324 174.94 44.2C174.44 44.2766 173.929 44.232 173.45 44.07C172.945 43.8953 172.484 43.612 172.1 43.24L172.3 43.07C172.699 43.5264 172.984 44.0715 173.13 44.66C173.275 45.214 173.275 45.7961 173.13 46.35C172.968 46.9002 172.648 47.3906 172.21 47.76C171.686 48.2203 171.025 48.4945 170.33 48.54C169.592 48.5933 168.853 48.4483 168.19 48.12C167.417 47.7526 166.732 47.2241 166.18 46.57Z" fill="black"/>
<path d="M175.47 58.19C175.4 58.0931 175.35 57.9827 175.324 57.8657C175.298 57.7486 175.297 57.6276 175.32 57.51C175.35 57.3925 175.404 57.2823 175.478 57.1861C175.552 57.0898 175.644 57.0095 175.75 56.95L184.89 51.22C185.089 51.0853 185.334 51.035 185.57 51.08C185.688 51.1086 185.799 51.1616 185.896 51.2356C185.992 51.3097 186.072 51.4032 186.13 51.51C186.227 51.6791 186.277 51.8704 186.277 52.065C186.277 52.2596 186.227 52.4509 186.13 52.62L182.63 60.86L191.57 61.26C191.769 61.2505 191.967 61.2947 192.143 61.388C192.319 61.4812 192.466 61.6201 192.57 61.79C192.642 61.8862 192.691 61.997 192.716 62.1145C192.74 62.2319 192.738 62.3533 192.71 62.47C192.681 62.5855 192.629 62.694 192.557 62.7886C192.485 62.8832 192.394 62.9619 192.29 63.02L183.15 68.75C183.051 68.8207 182.939 68.8706 182.821 68.8964C182.702 68.9221 182.579 68.9234 182.46 68.9C182.345 68.8681 182.237 68.8136 182.142 68.7398C182.048 68.6661 181.969 68.5743 181.91 68.47C181.842 68.3741 181.794 68.265 181.77 68.1497C181.746 68.0344 181.746 67.9153 181.77 67.8C181.839 67.5661 181.997 67.3686 182.21 67.25L190.37 62.13L190.52 62.72L181.89 62.32C181.714 62.3284 181.54 62.2903 181.383 62.2095C181.227 62.1287 181.095 62.0082 181 61.86C180.912 61.708 180.866 61.5355 180.866 61.36C180.866 61.1845 180.912 61.012 181 60.86L184.35 52.95L184.83 53.36L176.72 58.44C176.523 58.5807 176.279 58.6381 176.04 58.6C175.921 58.5762 175.809 58.5273 175.711 58.4566C175.613 58.3859 175.53 58.295 175.47 58.19Z" fill="black"/>
<path d="M186.69 77.68C186.14 76.6688 185.864 75.531 185.89 74.38C185.949 73.3086 186.295 72.2726 186.89 71.38C187.533 70.4197 188.415 69.6441 189.45 69.13C190.465 68.5759 191.604 68.2869 192.76 68.29C193.818 68.2891 194.856 68.5797 195.76 69.13C196.693 69.7122 197.445 70.5434 197.93 71.53C198.446 72.4677 198.689 73.5313 198.63 74.6C198.567 75.6088 198.22 76.5794 197.63 77.4C196.971 78.2885 196.111 79.0082 195.12 79.5C195.027 79.557 194.922 79.5927 194.813 79.6048C194.704 79.6169 194.594 79.605 194.49 79.57C194.387 79.5333 194.292 79.4764 194.212 79.4025C194.131 79.3287 194.066 79.2394 194.02 79.14L189.52 70.46L190.83 69.78L195.41 78.62L194.32 78.07C195.071 77.7212 195.726 77.1963 196.23 76.54C196.682 75.9633 196.96 75.2693 197.03 74.54C197.091 73.7582 196.92 72.9758 196.54 72.29C196.183 71.5614 195.624 70.9505 194.93 70.53C194.258 70.1378 193.488 69.9437 192.71 69.97C191.85 69.9934 191.007 70.2195 190.25 70.63C189.469 71.0131 188.803 71.5962 188.32 72.32C187.873 72.9925 187.618 73.7736 187.58 74.58C187.537 75.4339 187.735 76.2827 188.15 77.03C188.405 77.5332 188.743 77.9896 189.15 78.38C189.511 78.7448 189.939 79.0368 190.41 79.24C190.603 79.3248 190.764 79.4683 190.87 79.65C190.975 79.8202 191.011 80.0242 190.97 80.22C190.947 80.3339 190.901 80.4416 190.833 80.5364C190.766 80.6311 190.68 80.7107 190.58 80.77C190.486 80.8199 190.381 80.846 190.275 80.846C190.169 80.846 190.064 80.8199 189.97 80.77C189.291 80.4721 188.669 80.0594 188.13 79.55C187.543 79.0169 187.056 78.3837 186.69 77.68Z" fill="black"/>
<path d="M190.81 85.73C190.764 85.6226 190.74 85.507 190.74 85.39C190.74 85.2731 190.764 85.1574 190.81 85.05C190.856 84.9388 190.924 84.838 191.01 84.7538C191.096 84.6696 191.198 84.6037 191.31 84.56L201.17 80.18C201.273 80.1221 201.388 80.0872 201.506 80.0778C201.624 80.0684 201.743 80.0847 201.854 80.1255C201.965 80.1664 202.066 80.2309 202.15 80.3145C202.234 80.3981 202.299 80.499 202.34 80.61C202.387 80.7173 202.411 80.833 202.411 80.95C202.411 81.067 202.387 81.1828 202.34 81.29C202.294 81.3997 202.225 81.4988 202.139 81.5813C202.053 81.6638 201.952 81.728 201.84 81.77L192 86.16C191.89 86.2091 191.771 86.2345 191.65 86.2345C191.529 86.2345 191.41 86.2091 191.3 86.16C191.194 86.1251 191.095 86.0691 191.011 85.9952C190.927 85.9213 190.858 85.8311 190.81 85.73ZM194.81 94.73C194.764 94.621 194.74 94.5036 194.74 94.385C194.74 94.2665 194.764 94.1491 194.81 94.04C194.852 93.9282 194.918 93.8267 195.002 93.7422C195.087 93.6577 195.188 93.5922 195.3 93.55L205.16 89.16C205.266 89.1027 205.383 89.0691 205.504 89.0616C205.624 89.0541 205.744 89.0729 205.857 89.1166C205.969 89.1604 206.07 89.2281 206.154 89.3151C206.237 89.402 206.301 89.5061 206.34 89.62C206.389 89.7232 206.414 89.8359 206.414 89.95C206.414 90.0642 206.389 90.1769 206.34 90.28C206.294 90.3897 206.225 90.4888 206.139 90.5713C206.053 90.6538 205.952 90.718 205.84 90.76L196 95.17C195.895 95.2256 195.78 95.2596 195.661 95.2699C195.543 95.2802 195.423 95.2667 195.31 95.23C195.201 95.1906 195.102 95.1282 195.019 95.0471C194.936 94.9661 194.872 94.8682 194.83 94.76L194.81 94.73ZM196.08 83.97L197.53 83.32L201.21 91.58L199.76 92.22L196.08 83.97Z" fill="black"/>
<path d="M197 99.98C196.953 99.8693 196.929 99.7503 196.929 99.63C196.929 99.5098 196.953 99.3908 197 99.28C197.051 99.1749 197.122 99.081 197.21 99.0038C197.297 98.9265 197.399 98.8674 197.51 98.83L207.63 95.03C207.851 94.9405 208.099 94.9405 208.32 95.03C208.43 95.0784 208.528 95.1499 208.607 95.2396C208.686 95.3294 208.745 95.4353 208.78 95.55C208.829 95.6566 208.855 95.7726 208.855 95.89C208.855 96.0074 208.829 96.1235 208.78 96.23C208.673 96.4454 208.487 96.6105 208.26 96.69L198.14 100.49C198.034 100.535 197.92 100.558 197.805 100.558C197.69 100.558 197.576 100.535 197.47 100.49C197.361 100.441 197.263 100.371 197.183 100.283C197.102 100.196 197.04 100.092 197 99.98ZM199.84 107.54C199.749 107.319 199.749 107.071 199.84 106.85C199.886 106.742 199.954 106.645 200.04 106.566C200.126 106.486 200.229 106.427 200.34 106.39L206.54 104.06C207.439 103.781 208.197 103.17 208.66 102.35C208.856 101.988 208.97 101.586 208.992 101.175C209.014 100.763 208.945 100.352 208.79 99.97C208.65 99.5587 208.426 99.1805 208.134 98.8589C207.841 98.5373 207.486 98.279 207.09 98.1C206.68 97.9265 206.24 97.837 205.795 97.837C205.35 97.837 204.91 97.9265 204.5 98.1L204.05 96.92C204.907 96.6079 205.826 96.505 206.73 96.62C207.551 96.7179 208.329 97.0396 208.98 97.55C209.637 98.0717 210.139 98.7634 210.43 99.55C210.735 100.339 210.818 101.197 210.67 102.03C210.505 102.845 210.113 103.597 209.54 104.2C208.878 104.883 208.067 105.404 207.17 105.72L200.97 108.05C200.863 108.097 200.747 108.122 200.63 108.122C200.513 108.122 200.397 108.097 200.29 108.05C200.191 107.997 200.103 107.925 200.033 107.837C199.962 107.749 199.91 107.648 199.88 107.54H199.84ZM202.66 115.05C202.571 114.829 202.571 114.581 202.66 114.36C202.709 114.252 202.779 114.156 202.867 114.077C202.955 113.998 203.058 113.938 203.17 113.9L209.37 111.57C210.267 111.289 211.025 110.678 211.49 109.86C211.687 109.498 211.8 109.096 211.821 108.684C211.842 108.272 211.77 107.86 211.61 107.48C211.472 107.069 211.248 106.691 210.953 106.372C210.658 106.053 210.299 105.8 209.9 105.63C209.47 105.461 209.01 105.381 208.548 105.393C208.086 105.405 207.631 105.509 207.21 105.7L206.65 104.21C207.537 103.879 208.49 103.766 209.43 103.88C210.281 103.993 211.084 104.339 211.75 104.88C212.438 105.454 212.956 106.204 213.25 107.05C213.564 107.834 213.648 108.691 213.49 109.52C213.333 110.336 212.944 111.089 212.37 111.69C211.706 112.375 210.891 112.895 209.99 113.21L203.79 115.54C203.572 115.63 203.328 115.63 203.11 115.54C202.923 115.426 202.779 115.254 202.7 115.05H202.66Z" fill="black"/>
<path d="M205.8 124.86C205.431 123.772 205.355 122.606 205.58 121.48C205.801 120.41 206.305 119.419 207.04 118.61C207.842 117.787 208.835 117.174 209.93 116.825C211.025 116.476 212.19 116.402 213.32 116.61C214.392 116.826 215.384 117.331 216.19 118.07C217.014 118.865 217.628 119.853 217.977 120.943C218.326 122.034 218.399 123.194 218.19 124.32C217.972 125.388 217.468 126.377 216.73 127.18C215.938 128.025 214.943 128.655 213.84 129.01C212.749 129.38 211.579 129.453 210.45 129.22C209.38 128.999 208.389 128.495 207.58 127.76C206.741 126.968 206.127 125.967 205.8 124.86ZM207.34 124.37C207.583 125.17 208.039 125.89 208.66 126.45C209.263 126.975 210.001 127.322 210.79 127.45C211.635 127.609 212.508 127.543 213.32 127.26C214.146 127.011 214.894 126.553 215.49 125.93C216.05 125.347 216.437 124.62 216.61 123.83C216.779 123.008 216.727 122.156 216.46 121.36C216.214 120.559 215.754 119.84 215.13 119.28C214.526 118.739 213.786 118.372 212.99 118.22C212.142 118.062 211.267 118.124 210.45 118.4C209.616 118.686 208.873 119.19 208.3 119.86C207.73 120.458 207.335 121.202 207.158 122.01C206.982 122.818 207.031 123.658 207.3 124.44L207.34 124.37Z" fill="black"/>
<path d="M203.91 136.46C203.872 136.347 203.857 136.228 203.867 136.109C203.878 135.99 203.913 135.875 203.97 135.77C204.03 135.665 204.11 135.574 204.206 135.502C204.303 135.43 204.413 135.378 204.53 135.35L214.96 132.35C216.048 132.031 217.201 132.011 218.3 132.29C219.36 132.548 220.331 133.087 221.11 133.85C221.921 134.637 222.505 135.629 222.8 136.72C223.136 137.824 223.171 138.998 222.9 140.12C222.638 141.184 222.1 142.16 221.34 142.95C220.526 143.757 219.523 144.347 218.423 144.667C217.322 144.987 216.159 145.026 215.04 144.78C213.986 144.54 213.016 144.022 212.23 143.28C211.485 142.554 210.929 141.657 210.61 140.667C210.291 139.677 210.219 138.624 210.4 137.6C210.57 136.717 210.954 135.889 211.52 135.19L205 137.06C204.768 137.133 204.516 137.112 204.3 137C204.104 136.878 203.964 136.684 203.91 136.46ZM212 139.86C212.21 140.658 212.634 141.383 213.226 141.958C213.818 142.532 214.556 142.934 215.36 143.12C216.198 143.298 217.067 143.267 217.89 143.03C218.713 142.793 219.465 142.357 220.08 141.76C220.654 141.185 221.065 140.467 221.27 139.68C221.464 138.869 221.444 138.022 221.213 137.221C220.982 136.42 220.547 135.693 219.95 135.11C219.364 134.554 218.638 134.167 217.85 133.99C217.012 133.825 216.146 133.862 215.325 134.099C214.504 134.335 213.752 134.764 213.13 135.35C212.549 135.912 212.137 136.626 211.94 137.41C211.74 138.217 211.761 139.064 212 139.86Z" fill="black"/>
<path d="M214.52 155.07C214.215 153.998 214.215 152.862 214.52 151.79C214.82 150.751 215.394 149.812 216.18 149.07C217.02 148.277 218.055 147.722 219.18 147.46C220.289 147.155 221.461 147.155 222.57 147.46C223.631 147.749 224.595 148.319 225.36 149.11C226.143 149.938 226.703 150.951 226.988 152.055C227.273 153.158 227.274 154.316 226.99 155.42C226.695 156.476 226.125 157.435 225.34 158.2C224.499 159.001 223.466 159.573 222.34 159.86L221.63 159.3C220.885 159.506 220.106 159.56 219.34 159.458C218.574 159.356 217.836 159.1 217.171 158.706C216.507 158.312 215.928 157.788 215.471 157.165C215.013 156.541 214.687 155.832 214.51 155.08L214.52 155.07ZM216.12 154.85C216.316 155.663 216.731 156.407 217.32 157C217.891 157.571 218.607 157.975 219.39 158.17C220.221 158.369 221.088 158.361 221.916 158.149C222.744 157.936 223.507 157.525 224.14 156.95C224.724 156.404 225.155 155.714 225.39 154.95C225.62 154.143 225.62 153.287 225.39 152.48C225.189 151.675 224.775 150.939 224.19 150.35C223.613 149.776 222.896 149.363 222.11 149.15C221.278 148.942 220.407 148.945 219.576 149.158C218.745 149.371 217.98 149.788 217.35 150.37C216.754 150.939 216.324 151.659 216.104 152.453C215.884 153.247 215.882 154.085 216.1 154.88L216.12 154.85ZM216.05 160.54C216.016 160.428 216.004 160.31 216.016 160.193C216.028 160.076 216.064 159.963 216.12 159.86C216.176 159.757 216.255 159.667 216.35 159.598C216.445 159.529 216.554 159.481 216.67 159.46L220.48 158.46H222.34V159.86L217.11 161.2C216.997 161.236 216.879 161.247 216.761 161.233C216.644 161.22 216.531 161.181 216.43 161.12C216.331 161.053 216.247 160.968 216.182 160.868C216.117 160.768 216.072 160.657 216.05 160.54Z" fill="black"/>
<path d="M218.78 172.04C218.725 171.812 218.761 171.572 218.88 171.37C218.948 171.271 219.035 171.188 219.137 171.124C219.238 171.061 219.352 171.018 219.47 171L230 168.66C230.115 168.628 230.236 168.619 230.354 168.635C230.473 168.65 230.587 168.689 230.69 168.75C230.871 168.892 230.997 169.091 231.048 169.315C231.099 169.539 231.072 169.774 230.97 169.98C230.903 170.08 230.816 170.166 230.714 170.231C230.613 170.297 230.499 170.341 230.38 170.36L219.85 172.7C219.735 172.732 219.614 172.741 219.496 172.725C219.377 172.71 219.263 172.671 219.16 172.61C219.06 172.547 218.975 172.464 218.909 172.366C218.844 172.267 218.8 172.156 218.78 172.04ZM220.93 181.7C220.896 181.585 220.887 181.464 220.903 181.345C220.92 181.226 220.962 181.112 221.026 181.01C221.091 180.909 221.176 180.822 221.277 180.757C221.378 180.691 221.491 180.648 221.61 180.63L232.14 178.29C232.255 178.257 232.377 178.249 232.496 178.266C232.615 178.283 232.729 178.326 232.83 178.39C232.929 178.456 233.013 178.542 233.079 178.641C233.144 178.741 233.189 178.853 233.21 178.97C233.24 179.081 233.246 179.197 233.229 179.311C233.212 179.424 233.171 179.533 233.11 179.63C233.04 179.726 232.952 179.807 232.851 179.869C232.75 179.931 232.637 179.972 232.52 179.99L222 182.33C221.885 182.364 221.765 182.374 221.647 182.36C221.528 182.346 221.414 182.309 221.31 182.25C221.21 182.192 221.125 182.112 221.059 182.017C220.993 181.922 220.949 181.814 220.93 181.7ZM224.32 171.4L225.87 171.06L227.87 179.88L226.32 180.23L224.32 171.4Z" fill="black"/>
<path d="M223 192.11C222.755 190.989 222.81 189.823 223.16 188.73C223.501 187.69 224.12 186.763 224.95 186.05C225.822 185.297 226.878 184.79 228.01 184.58C229.141 184.334 230.317 184.389 231.42 184.74C232.46 185.081 233.387 185.7 234.1 186.53C234.852 187.401 235.356 188.458 235.56 189.59C235.808 190.708 235.749 191.872 235.39 192.96C235.05 193.995 234.435 194.918 233.61 195.63C232.731 196.387 231.669 196.901 230.53 197.12C229.405 197.367 228.235 197.309 227.14 196.95C226.103 196.603 225.178 195.985 224.46 195.16C223.709 194.293 223.205 193.239 223 192.11ZM224.58 191.8C224.728 192.626 225.102 193.394 225.66 194.02C226.195 194.626 226.887 195.072 227.66 195.31C228.486 195.543 229.357 195.574 230.197 195.4C231.038 195.226 231.824 194.852 232.49 194.31C233.124 193.788 233.593 193.093 233.84 192.31C234.097 191.513 234.146 190.664 233.981 189.843C233.817 189.021 233.444 188.256 232.9 187.62C232.366 187.013 231.673 186.567 230.9 186.33C230.079 186.067 229.201 186.029 228.36 186.22C227.484 186.378 226.668 186.772 226 187.36C225.377 187.89 224.914 188.582 224.66 189.36C224.399 190.147 224.357 190.991 224.54 191.8H224.58Z" fill="black"/>
<path d="M219.83 203.53C219.812 203.413 219.818 203.293 219.847 203.178C219.877 203.063 219.929 202.955 220 202.86C220.146 202.669 220.362 202.543 220.6 202.51L231.28 200.56C232.398 200.355 233.55 200.448 234.62 200.83C235.643 201.197 236.551 201.828 237.25 202.66C237.969 203.545 238.453 204.598 238.656 205.721C238.859 206.843 238.774 207.999 238.41 209.08C238.047 210.116 237.412 211.035 236.57 211.74C235.69 212.482 234.626 212.972 233.49 213.16C232.37 213.382 231.212 213.306 230.13 212.94C229.086 212.597 228.155 211.973 227.441 211.137C226.727 210.301 226.256 209.285 226.08 208.2C225.897 207.245 225.948 206.26 226.23 205.33C226.486 204.47 226.946 203.684 227.57 203.04L220.92 204.25C220.808 204.275 220.692 204.276 220.58 204.253C220.467 204.23 220.361 204.185 220.267 204.119C220.173 204.053 220.093 203.969 220.034 203.871C219.974 203.773 219.935 203.664 219.92 203.55L219.83 203.53ZM227.58 207.68C227.707 208.506 228.052 209.283 228.58 209.93C229.115 210.546 229.806 211.005 230.58 211.26C231.393 211.528 232.26 211.583 233.1 211.42C233.944 211.293 234.74 210.948 235.41 210.42C236.059 209.894 236.551 209.2 236.831 208.413C237.111 207.626 237.17 206.778 237 205.96C236.88 205.144 236.533 204.379 236 203.75C235.465 203.136 234.774 202.676 234 202.42C233.183 202.157 232.311 202.109 231.47 202.28C230.628 202.413 229.834 202.757 229.16 203.28C228.526 203.799 228.045 204.481 227.768 205.252C227.492 206.024 227.43 206.856 227.59 207.66L227.58 207.68Z" fill="black"/>
<path d="M228 218.52C227.975 218.405 227.976 218.286 228.001 218.171C228.025 218.056 228.075 217.948 228.145 217.853C228.214 217.759 228.304 217.68 228.406 217.623C228.509 217.565 228.623 217.53 228.74 217.52L239.38 215.77C239.618 215.723 239.865 215.769 240.07 215.9C240.164 215.974 240.242 216.066 240.301 216.171C240.359 216.276 240.396 216.391 240.41 216.51C240.437 216.696 240.415 216.886 240.347 217.061C240.278 217.237 240.166 217.391 240.02 217.51L233.58 223.72L241.67 227.55C241.852 227.619 242.012 227.735 242.135 227.886C242.258 228.037 242.339 228.218 242.37 228.41C242.396 228.528 242.398 228.65 242.376 228.768C242.354 228.887 242.307 229 242.24 229.1C242.088 229.288 241.87 229.41 241.63 229.44L231 231.2C230.881 231.225 230.759 231.226 230.64 231.202C230.522 231.178 230.409 231.13 230.31 231.06C230.215 230.989 230.136 230.899 230.077 230.796C230.019 230.692 229.982 230.578 229.97 230.46C229.943 230.344 229.94 230.223 229.963 230.106C229.985 229.989 230.032 229.878 230.1 229.78C230.174 229.687 230.266 229.609 230.371 229.552C230.476 229.496 230.591 229.461 230.71 229.45L240.2 227.86L240.11 228.45L232.3 224.75C232.133 224.693 231.983 224.593 231.867 224.459C231.751 224.326 231.673 224.164 231.64 223.99C231.622 223.819 231.649 223.647 231.717 223.489C231.785 223.331 231.893 223.194 232.03 223.09L238.18 217.09L238.46 217.66L229 219.24C228.884 219.264 228.764 219.265 228.647 219.243C228.53 219.221 228.419 219.176 228.32 219.11C228.228 219.04 228.152 218.951 228.097 218.849C228.042 218.748 228.009 218.635 228 218.52Z" fill="black"/>
<path d="M230.4 235.86C230.368 235.686 230.372 235.507 230.413 235.334C230.455 235.162 230.532 235 230.64 234.86C230.742 234.718 230.872 234.597 231.021 234.506C231.171 234.415 231.337 234.355 231.51 234.33C231.685 234.302 231.864 234.31 232.036 234.353C232.207 234.396 232.369 234.473 232.51 234.58C232.794 234.789 232.985 235.102 233.04 235.45C233.069 235.626 233.061 235.805 233.016 235.978C232.972 236.15 232.891 236.311 232.78 236.45C232.676 236.592 232.544 236.712 232.393 236.803C232.242 236.894 232.074 236.954 231.9 236.98C231.727 237.01 231.549 237.005 231.377 236.965C231.205 236.926 231.043 236.853 230.9 236.75C230.757 236.647 230.639 236.513 230.553 236.36C230.466 236.206 230.414 236.036 230.4 235.86Z" fill="black"/>
<path d="M231.13 240.74C231.102 240.565 231.11 240.386 231.153 240.214C231.196 240.042 231.273 239.881 231.38 239.74C231.482 239.596 231.613 239.476 231.765 239.386C231.916 239.296 232.085 239.24 232.26 239.22C232.435 239.189 232.614 239.196 232.787 239.239C232.959 239.282 233.12 239.361 233.26 239.47C233.401 239.572 233.52 239.702 233.609 239.852C233.699 240.001 233.757 240.167 233.78 240.34C233.811 240.516 233.804 240.696 233.759 240.868C233.714 241.041 233.633 241.202 233.52 241.34C233.417 241.483 233.286 241.603 233.135 241.692C232.983 241.782 232.815 241.839 232.64 241.86C232.467 241.888 232.289 241.882 232.118 241.84C231.947 241.799 231.786 241.724 231.644 241.62C231.503 241.516 231.383 241.384 231.293 241.233C231.203 241.082 231.144 240.914 231.12 240.74H231.13Z" fill="black"/>
<path d="M231.84 245.63C231.814 245.454 231.823 245.275 231.868 245.104C231.913 244.932 231.992 244.771 232.1 244.63C232.203 244.488 232.335 244.368 232.486 244.278C232.637 244.189 232.806 244.132 232.98 244.11C233.156 244.083 233.335 244.093 233.507 244.137C233.679 244.182 233.84 244.261 233.98 244.37C234.121 244.472 234.24 244.602 234.329 244.752C234.418 244.901 234.477 245.067 234.5 245.24C234.526 245.416 234.517 245.595 234.472 245.766C234.427 245.938 234.348 246.099 234.24 246.24C234.024 246.524 233.704 246.711 233.35 246.76C233.176 246.788 232.998 246.782 232.826 246.741C232.654 246.699 232.492 246.624 232.35 246.52C232.209 246.414 232.091 246.281 232.003 246.128C231.915 245.975 231.86 245.805 231.84 245.63Z" fill="black"/>
<path d="M110.47 196.75C113.92 196.75 117.1 196.75 120.11 196.75C122.61 196.75 123.23 198.17 123.11 199.62C123.046 200.609 122.675 201.554 122.047 202.322C121.419 203.089 120.567 203.641 119.61 203.9L119.13 204.05C121.63 205.33 121.9 208.05 123.43 210.34L118.24 210.46C117.4 208.97 116.57 207.46 115.86 205.94C115.711 205.483 115.389 205.103 114.962 204.881C114.536 204.658 114.04 204.611 113.58 204.75C113.41 206.69 113.41 208.64 113.58 210.58L108.99 210.7C108.491 205.998 108.996 201.243 110.47 196.75ZM114.47 199.27C114.27 200.13 114.1 200.98 113.93 202.03C114.934 202.054 115.937 201.99 116.93 201.84C117.292 201.818 117.636 201.68 117.912 201.446C118.188 201.211 118.38 200.893 118.46 200.54C118.6 199.85 118.23 199.35 117.35 199.25C116.4 199.203 115.449 199.209 114.5 199.27H114.47Z" fill="#2D1F04"/>
<path d="M137.11 200.05L132.7 200.34C132.696 200.105 132.646 199.874 132.552 199.659C132.458 199.444 132.323 199.249 132.154 199.086C131.985 198.924 131.785 198.796 131.567 198.711C131.348 198.626 131.115 198.585 130.88 198.59H130.7C130.327 198.542 129.949 198.613 129.618 198.793C129.288 198.972 129.023 199.251 128.86 199.59C128.86 200.25 129.28 200.46 129.86 200.59C130.86 200.83 131.97 201.04 133.04 201.31C133.628 201.46 134.206 201.647 134.77 201.87C138.35 203.32 137.71 207.17 134.97 209.02C134.042 209.641 133.003 210.075 131.91 210.3C130.257 210.64 128.549 210.61 126.91 210.21C125.866 209.983 124.941 209.381 124.309 208.519C123.677 207.657 123.382 206.594 123.48 205.53L127.68 205.23C127.76 205.51 127.82 205.76 127.89 206.01C127.998 206.317 128.165 206.6 128.382 206.842C128.599 207.085 128.862 207.282 129.156 207.422C129.45 207.562 129.768 207.643 130.093 207.66C130.418 207.677 130.743 207.629 131.05 207.52L131.26 207.44C131.565 207.353 131.839 207.181 132.05 206.943C132.261 206.706 132.399 206.413 132.45 206.1C132.46 205.834 132.381 205.572 132.225 205.357C132.07 205.141 131.846 204.984 131.59 204.91C131.098 204.734 130.597 204.584 130.09 204.46C129.09 204.17 127.97 203.96 126.99 203.59C125.1 202.86 124.29 201.59 124.61 200.02C124.858 199.121 125.353 198.309 126.039 197.676C126.725 197.044 127.574 196.615 128.49 196.44C130.367 195.901 132.352 195.859 134.25 196.32C135.112 196.461 135.888 196.925 136.419 197.618C136.951 198.311 137.198 199.181 137.11 200.05Z" fill="#2D1F04"/>
</g>
<defs>
<clipPath id="clip0_15_3778">
<rect width="253" height="365.38" fill="white"/>
</clipPath>
</defs>
</svg>
