<svg width="349" height="315" viewBox="0 0 349 315" fill="none" xmlns="http://www.w3.org/2000/svg">
<g clip-path="url(#clip0_281_1591)">
<path d="M270.2 182.932C270.6 196.532 305.2 223.332 340.6 241.932C328.8 267.532 283.9 266.232 278.4 272.032C270.2 280.532 270.2 295.632 265.6 310.932C224.5 310.932 73.7 310.932 62.7 310.932C60.6 306.532 58.8 300.532 59.9 290.332C60 289.532 60.1 288.732 60.2 287.932C62.3 274.432 66.8 259.832 75.7 242.732C75.9 242.332 76.1 241.932 76.3 241.532C76.4 241.332 76.5 241.132 76.6 240.932C77 240.232 77.3 239.532 77.7 238.832C77.9 238.532 78 238.232 78.2 237.932C78.3 237.832 78.3 237.632 78.4 237.532C78.5 237.432 78.6 237.232 78.6 237.132C78.6 237.032 78.8 236.832 78.8 236.732C78.9 236.532 79 236.432 79.1 236.232C78.9 235.732 78.8 235.232 78.7 234.732C78.7 234.532 78.6 234.432 78.6 234.232C78.5 233.432 78.4 232.632 78.3 231.832C78.2 230.732 78.2 229.632 78.3 228.432C78.9 214.132 87.5 194.832 87.7 193.732C87.9 192.632 85.8 190.432 87 188.332C87.6 187.232 90.2 184.032 91 183.932C91.1 184.032 91.1 184.232 91 184.732C91.1 184.732 91.1 184.732 91.2 184.832C92.2 185.232 93.3 185.632 94.4 185.932C94.2 186.632 94 187.232 93.9 187.832C94.1 187.232 94.2 186.632 94.4 185.932C95.3 186.232 96.2 186.532 97.1 186.832C97.5 186.932 98 187.132 98.4 187.232C98.8 187.332 99.2 187.532 99.7 187.632C106.1 189.632 114 191.632 123.2 193.232C123.4 193.232 123.7 193.332 124 193.332C124.4 193.432 124.8 193.432 125.2 193.532C131.2 194.632 136 195.232 141.3 195.532C141.4 195.532 141.5 195.532 141.6 195.532C144.8 195.732 148.1 195.932 152.1 196.032C171.5 196.632 185.7 194.032 188.7 193.432C189.1 193.332 189.6 193.232 190 193.132C200 190.032 207.5 186.832 214.8 183.232C218.9 181.232 223.6 178.032 228 175.632C228.2 175.532 228.4 175.432 228.6 175.332C235.7 171.532 243.3 170.832 248.7 171.532C262.6 174.232 270.2 182.932 270.2 182.932Z" fill="#CAA77A"/>
<path d="M40.888 310.596C28.7168 310.476 13.6525 310.239 1.40253 309.775C1.99629 302.97 4.31493 295.191 7.71923 286.991C11.3412 278.268 16.1595 269.146 21.33 260.332C29.2302 246.863 37.9039 234.19 44.3394 224.787C46.2868 221.942 48.0293 219.396 49.4833 217.218C54.9283 212.751 62.8473 211.108 70.4494 212.362C78.1066 213.624 85.2388 217.789 89.0545 224.667C90.811 227.833 90.6368 232.574 88.9467 238.802C87.2748 244.963 84.2244 252.224 80.6901 260.187C79.8933 261.983 79.0722 263.813 78.2381 265.672C71.8702 279.864 64.7455 295.742 61.9079 310.72C61.7321 310.72 61.5361 310.72 61.3207 310.719C60.2337 310.717 58.6526 310.713 56.6771 310.706C52.7259 310.69 47.1973 310.659 40.888 310.596Z" fill="#CAA77A" stroke="#2D1F04" stroke-width="2.62"/>
<path d="M96.2 178.832C95.5 181.932 94.5 185.532 93.9 187.832C93.1 187.832 90.1 190.632 89.3 191.632C87.8 193.532 89.6 196.032 89.2 197.132C88.9 198.032 83.6 221.732 79.8 234.932C71.7 230.732 53 221.432 49.4 217.232C49.1 216.932 48.9 216.632 48.6 216.432C47.8 215.532 46.9 210.432 50.7 208.232C51.2 207.032 51.8 205.832 52.4 204.432C63.6 180.132 79.8 173.532 96.2 178.832Z" fill="#FFDB1F"/>
<path opacity="0.23" d="M96.2 178.832C95.5 181.932 94.5 185.532 93.9 187.832C93.1 187.832 90.1 190.632 89.3 191.632C87.8 193.532 89.6 196.032 89.2 197.132C88.9 198.032 83.6 221.732 79.8 234.932C76.4 233.232 71.2 230.532 66 227.732C68.9 228.632 71.9 228.532 72.6 226.432C73.5 223.632 73.7 220.832 71.8 219.932C74.4 219.832 77.4 208.532 79.4 202.832C81.2 197.632 87.1 181.332 94.6 178.432C95 178.432 95.6 178.632 96.2 178.832Z" fill="#3F2719"/>
<path d="M252.8 183.032C245.9 184.832 239.6 186.932 230.9 189.032C217.2 192.332 204.6 196.632 190.8 197.832C187.8 198.132 173.6 197.032 154.2 196.232C141.6 195.732 132.7 194.732 121.9 193.032C108.2 190.932 100.8 188.032 91.3 184.832C91.5 184.232 95.1 176.932 94.9 176.932C95.5 174.632 96.3 170.932 97 167.832C97.6 164.932 98 162.232 97.8 162.132C97 162.132 96.3 162.832 95.8 163.632C94.4 159.132 98.2 156.432 98.4 154.032C98.4 153.532 97 153.932 95.9 155.532C96.2 152.032 97.7 151.332 97.8 150.032C97.9 147.532 96.9 144.632 96.2 142.332C88.7 115.132 75 62.3315 118.4 35.8315C116.6 31.9315 111.3 32.8315 111.3 32.8315C112.3 27.9315 121.2 24.2315 131.8 27.5315C132.3 27.0315 129 22.4315 134.1 17.8315C134 21.9315 136.9 26.3315 138.1 24.6315C142.6 14.4315 150.5 9.83154 160.7 9.83154C157.1 11.9315 154.7 17.4315 155.2 22.8315C155.2 22.8315 159.6 16.7315 163.5 15.9315C159 21.5315 161.5 25.5315 163.3 26.3315C164.8 27.0315 172 24.8315 172.4 21.6315C174.2 22.6315 173 26.4315 188.4 35.1315C253.6 71.9315 260.8 142.032 252.8 183.032Z" fill="#CAA77A"/>
<path d="M156.9 275.331C156.8 275.031 156.6 274.831 156.5 274.531Z" fill="#B6B1AE"/>
<path d="M94.2 69.2315C98.4 60.2315 111.5 55.4315 119.6 52.0315C129 47.9315 160.2 48.0315 156 38.3315C166.1 41.7315 171.8 52.4315 180.8 54.2315C190.2 56.1315 210.1 65.8315 221.3 90.8315C223.5 95.8315 229.7 136.732 195.8 150.932C169.9 161.732 115.4 156.032 97.8 121.732C89.4 105.632 87.6 86.3315 94.2 69.2315Z" fill="#FFDBAF"/>
<path d="M142.8 76.8316C135.7 71.3316 125.7 89.9316 123.9 95.5316C119.4 109.832 122.8 118.332 130.8 122.532C138.8 126.832 149.9 127.532 159.3 123.832C183 114.532 167.5 75.2316 152.6 78.0316" fill="#9D7B51"/>
<path d="M90.8 100.831C105 102.431 141.3 93.1312 132.3 47.6312C122.6 47.0312 113.1 48.5312 100.4 56.0312C90.2 70.2312 89.2 87.2312 90.8 100.831Z" fill="#9D7B51"/>
<path d="M176.7 56.4316C150.1 118.732 219.1 127.332 219.1 127.332C219.1 127.332 229.4 104.132 218.8 83.1316C212.3 70.2316 195.6 58.8316 176.7 56.4316Z" fill="#9D7B51"/>
<path d="M116.4 166.731L115.9 173.331" stroke="#9D7B51" stroke-width="3.87" stroke-miterlimit="10" stroke-linecap="round" stroke-linejoin="round"/>
<path d="M109.4 169.631L108.9 176.331" stroke="#9D7B51" stroke-width="3.87" stroke-miterlimit="10" stroke-linecap="round" stroke-linejoin="round"/>
<path opacity="0.23" d="M112.7 31.1313C112.6 31.1313 112.4 31.2313 112.3 31.2313C112.2 31.2313 112.2 31.3314 112.2 31.4314" fill="#3F2719"/>
<path d="M137 76.1315C137.4 73.4315 142.7 71.9315 148.9 72.8315C155.1 73.7315 159.7 76.6315 159.3 79.3315C158.9 82.0315 153.6 83.5315 147.4 82.6315C141.3 81.7315 136.6 78.8315 137 76.1315Z" fill="#251707"/>
<path d="M91 183.932C93.9 177.132 98.2 162.432 97.8 162.132C97 162.132 96.3 162.832 95.8 163.632C94.4 159.132 98.2 156.432 98.4 154.032C98.4 153.532 97 153.932 95.9 155.532C96.2 152.032 97.7 151.332 97.8 150.032C97.9 147.532 96.9 144.632 96.2 142.332C88.7 115.132 75 62.3315 118.4 35.8315C116.6 31.9315 111.2 32.8315 111.2 32.8315C112.2 27.9315 121.1 24.2315 131.7 27.5315C132.2 27.0315 128.9 22.4315 134 17.8315C133.9 21.9315 136.8 26.3315 138 24.6315C142.5 14.4315 150.4 9.83154 160.6 9.83154C157 11.9315 154.6 17.4315 155.1 22.8315C155.1 22.9315 159.5 16.8315 163.4 15.9315C158.6 20.8315 161.2 25.4315 163.1 26.2315C164.6 26.9315 172 24.8315 172.4 21.6315C174.2 22.6315 173 26.4315 188.4 35.1315C253.9 72.0315 260.9 142.132 252.8 183.032" stroke="#2D1F04" stroke-width="2.62" stroke-miterlimit="10" stroke-linecap="round" stroke-linejoin="round"/>
<path d="M146.6 82.0312C145.2 86.4313 144.9 92.6313 146 99.3313" stroke="#2D1F04" stroke-width="2.62" stroke-miterlimit="10" stroke-linecap="round" stroke-linejoin="round"/>
<path opacity="0.23" d="M131 265.632C130.8 265.532 130.6 265.432 130.5 265.332Z" fill="#3F2719"/>
<path opacity="0.23" d="M252.8 183.032C246.7 184.732 236.7 187.532 230.9 189.032C238.3 158.232 239.7 110.132 221.5 78.3316C208.7 55.9316 189.8 44.5316 172.7 39.5316C171.2 39.1316 169 36.2316 166.7 36.0316C166.8 37.1316 165.9 37.8316 164.7 37.6316C163.1 37.3316 160 35.9316 161.1 33.1316C157.9 32.9316 156.4 36.4316 154.6 36.3316C152.8 36.2316 150.9 31.8316 146.9 31.4316C148.4 34.8316 145 36.7316 142.7 37.2316C139.9 37.7316 138.5 36.1316 139.4 34.6316C136.6 34.4316 135.2 36.8316 129.1 38.4316C119.7 40.8316 110.2 44.5316 101.8 50.0316C106 44.8316 111.4 40.0316 118.2 35.9316C116.4 32.0316 111.1 32.9316 111.1 32.9316C112.1 28.0316 121 24.3316 131.6 27.6316C132.1 27.1316 128.8 22.5316 133.9 17.9316C133.8 22.0316 136.7 26.4316 137.9 24.7316C142.4 14.5316 150.3 9.93164 160.5 9.93164C156.9 12.0316 154.5 17.5316 155 22.9316C155 22.9316 159.4 16.8316 163.3 16.0316C158.8 21.4316 161.3 25.6316 163.1 26.4316C164.6 27.1316 171.8 24.9316 172.3 21.7316C174.1 22.7316 172.9 26.5316 188.3 35.2316C253.6 71.9316 260.8 142.032 252.8 183.032Z" fill="#3F2719"/>
<path d="M139.9 54.5316C111.3 45.6316 87.6 61.8316 87.6 61.8316" stroke="#2D1F04" stroke-width="7.6" stroke-miterlimit="10" stroke-linecap="round" stroke-linejoin="round"/>
<path d="M167.6 60.3315C208.9 59.9315 224.5 82.1315 224.5 82.1315" stroke="#2D1F04" stroke-width="7.6" stroke-miterlimit="10" stroke-linecap="round" stroke-linejoin="round"/>
<path d="M132.2 111.831C133.6 108.131 135.4 102.031 133.3 96.3314C137.4 98.5314 145.3 98.6314 146 96.8314C147.9 98.1314 154.1 97.1313 157.4 94.1313C162.9 119.831 140.7 118.331 132.2 111.831Z" fill="#251707"/>
<path d="M132.1 112.131C132.9 109.831 133.3 108.531 133.8 106.531C138.5 108.631 147.1 110.331 154.2 105.231C155 106.231 155.7 108.131 154.5 112.631C149.2 117.531 139.2 116.931 132.1 112.131Z" fill="white"/>
<path d="M154.1 105.131C148.5 109.831 139.2 109.131 133.7 106.431C134 103.931 134.3 99.3314 133.3 96.7314C137.7 97.8314 143.3 98.0314 146 97.2314C149.3 97.2314 153.1 96.0314 155.2 95.2314C155.9 97.8314 155.3 103.231 154.1 105.131Z" fill="white"/>
<path d="M154.4 112.431C152.3 114.531 149.3 115.631 146 115.831V114.731C150 114.131 150.9 111.031 151 109.431C151.1 107.931 149.2 107.731 145 108.331C150.7 107.231 151.7 103.931 152.1 102.331C152.6 100.631 152.8 98.5312 151.4 99.0312C150.1 99.5312 146.6 100.231 142.2 100.131C139.7 100.131 135.5 99.3312 135.2 100.531C134.9 101.931 134.7 103.431 134.6 105.031C134.6 106.631 136.7 107.731 139.2 108.031C139 108.031 134.7 107.131 134 108.231C133.6 108.931 132.1 111.031 137.2 113.031L136.9 114.331C135.2 113.731 133.5 112.831 132 111.831C132.8 109.531 133.2 108.231 133.7 106.231C134 103.731 134.3 99.1312 133.3 96.5312C137.7 97.6313 143.3 97.8313 146 97.0312C149.3 97.0312 153.1 95.8313 155.2 95.0312C155.8 97.6312 155.1 103.031 153.9 104.931C154.9 106.131 155.6 107.931 154.4 112.431Z" fill="#D3E5EA"/>
<path d="M133.3 96.3314C141.1 99.3314 150.4 98.0313 157.5 94.1313C163.2 120.031 140.8 118.231 132.2 111.831" stroke="#2D1F04" stroke-width="2.62" stroke-miterlimit="10" stroke-linecap="round" stroke-linejoin="round"/>
<path d="M123.3 80.9317C121.3 86.1317 115.5 82.1317 109.2 81.0317C101.9 79.7317 94.4 81.4317 96.5 73.2317C98 67.1317 104.9 65.9317 114.2 67.6317C123.4 69.2317 125.8 74.4317 123.3 80.9317Z" fill="white"/>
<path d="M123.7 79.6315C122.1 73.4315 116.7 71.4315 109.5 71.2315C101.8 71.0315 97.8 73.3315 96.1 76.8315C96 75.7315 96.1 74.4315 96.4 73.1315C97.9 67.0315 104.8 65.9315 114.1 67.5315C122.8 69.1315 125.5 73.7315 123.7 79.6315Z" fill="#D3E5EA"/>
<path d="M104.3 74.6314C105 71.2314 108.2 69.1314 111.6 69.7314C115 70.4314 117.1 73.6314 116.5 77.0314C115.8 80.4314 112.6 82.5314 109.2 81.9314C105.8 81.2314 103.7 78.0314 104.3 74.6314Z" fill="#2D1F04"/>
<path d="M123.3 80.9317C121.3 86.0317 115.5 82.3317 109.2 81.0317C101.9 79.4317 94.4 81.5317 96.5 73.2317C98 67.1317 104.9 65.9317 114.2 67.6317C123.4 69.2317 125.8 74.4317 123.3 80.9317Z" stroke="#2D1F04" stroke-width="2.62" stroke-miterlimit="10" stroke-linecap="round" stroke-linejoin="round"/>
<path d="M106.4 75.0313C107.891 75.0313 109.1 73.8225 109.1 72.3314C109.1 70.8402 107.891 69.6313 106.4 69.6313C104.909 69.6313 103.7 70.8402 103.7 72.3314C103.7 73.8225 104.909 75.0313 106.4 75.0313Z" fill="white"/>
<path d="M106.6 78.0312C107.152 78.0312 107.6 77.5835 107.6 77.0312C107.6 76.479 107.152 76.0312 106.6 76.0312C106.048 76.0312 105.6 76.479 105.6 77.0312C105.6 77.5835 106.048 78.0312 106.6 78.0312Z" fill="white"/>
<path d="M270.2 182.931C270.2 182.931 262.7 174.231 248.5 171.631C243.2 170.931 235.5 171.631 228.4 175.431C228.2 175.531 228 175.631 227.8 175.731C223.5 178.131 218.7 181.231 214.6 183.331C207.4 186.931 199.8 190.131 189.8 193.231C189.4 193.331 188.9 193.431 188.5 193.531C185.5 194.131 171.4 196.831 151.9 196.131C147.9 196.031 144.6 195.831 141.4 195.631C141.3 195.631 141.2 195.631 141.1 195.631C135.8 195.231 131 194.631 125 193.631C124.6 193.531 124.2 193.531 123.8 193.431C123.5 193.431 123.3 193.331 123 193.331C113.8 191.731 106 189.731 99.5 187.731C99.1 187.631 98.6 187.431 98.2 187.331C97.7 187.231 97.3 187.031 96.9 186.931C96 186.631 95.1 186.331 94.2 186.031C94 186.731 93.8 187.331 93.7 187.931C93.9 187.331 94 186.731 94.2 186.031C93.1 185.631 92 185.231 91 184.931C90.9 184.931 90.9 184.931 90.8 184.831C90.9 184.431 90.9 184.131 90.8 184.031C90 184.131 87.4 187.331 86.8 188.431C85.6 190.531 87.7 192.731 87.5 193.831C87.3 194.931 78.6 214.231 78.1 228.531C78.1 229.731 78.1 230.831 78.1 231.931C78.1 232.731 78.2 233.531 78.4 234.331C78.4 234.531 78.5 234.631 78.5 234.831C78.6 235.331 78.7 235.831 78.9 236.331C78.8 236.531 78.7 236.631 78.6 236.831C78.5 236.931 78.4 237.131 78.4 237.231C78.3 237.331 78.2 237.531 78.2 237.631C78.1 237.731 78.1 237.931 78 238.031C77.8 238.331 77.7 238.631 77.5 238.931C77.1 239.631 76.8 240.331 76.4 241.031C76.3 241.231 76.2 241.431 76.1 241.631C75.9 242.031 75.7 242.431 75.5 242.831C66.6 259.931 62.1 274.531 60 288.031C59.9 288.831 59.8 289.631 59.7 290.431C58.7 300.631 60.5 306.631 62.5 311.031C73.5 311.031 224.3 311.031 265.4 311.031C270 295.731 270 280.631 278.2 272.131C280.7 269.531 287.1 271.931 298.7 269.131C303.4 268.031 293.4 264.131 288 249.031C281.8 231.831 278.3 212.231 276.3 195.431C272.5 190.631 270.3 186.331 270.2 182.931Z" fill="#FFDB1F"/>
<path d="M143.4 108.532C143.9 108.532 144.4 108.532 144.8 108.432C144.4 108.532 143.9 108.532 143.4 108.532Z" fill="#B6B1AE"/>
<path d="M143.4 108.532C143.9 108.532 144.4 108.532 144.8 108.432C144.4 108.532 143.9 108.532 143.4 108.532Z" fill="white"/>
<path d="M143.4 108.532C143.9 108.532 144.4 108.532 144.8 108.432C144.4 108.532 143.9 108.532 143.4 108.532Z" fill="white"/>
<path d="M101.8 227.731C109.9 228.631 117.4 229.131 124.9 230.031C131.1 230.731 133.3 234.931 132.3 238.731C130.9 243.931 125.9 247.131 119.1 248.231C118.7 248.331 118.4 248.331 117.7 248.431C122.7 252.331 120.3 258.931 125.5 265.331C119.9 264.631 115 263.931 109.8 263.231C107.4 259.231 106.6 255.331 106.5 251.631C106.5 249.631 105.9 248.031 102.3 248.231C99.2 252.431 96.3 256.831 96.1 261.631C91.7 261.131 88 260.731 84.3 260.431C87.9 247.731 99.4 240.731 101.8 227.731ZM111.3 235.331C110.3 237.531 109 239.431 107.2 241.831C109.8 242.031 112.2 242.231 114.8 242.231C117.1 242.231 119 241.131 120 239.531C121 237.831 120.4 236.431 118.3 235.931C116.1 235.631 113.7 235.531 111.3 235.331Z" fill="#2D1F04"/>
<path d="M166.2 243.831C162.6 243.731 159.3 243.531 155.7 243.431C156 240.331 154.4 238.431 151.4 238.031C149.5 237.831 147.8 238.231 146.6 240.331C146.2 242.131 147.2 242.831 148.6 243.331C151 244.331 153.5 245.231 155.9 246.231C157.2 246.831 158.5 247.531 159.7 248.231C167.1 253.031 163.6 262.831 157.7 266.831C155.7 268.131 153.1 268.931 150.4 269.031C146 269.231 140.9 268.431 135.9 266.731C129.2 264.431 125.1 259.431 127.6 253.831C131.5 254.131 135.3 254.431 139.3 254.731C139.3 255.431 139.3 256.131 139.3 256.731C139.7 260.231 143.9 262.331 147.8 261.531C149.6 261.131 150.9 260.231 151.3 258.631C151.7 257.131 151.1 255.931 149.8 255.231C148.7 254.631 147.4 254.131 146.2 253.631C143.7 252.531 141.1 251.631 138.8 250.331C134.5 247.831 133.9 244.331 135.6 240.431C137.5 236.131 140.5 232.631 145.2 231.531C149.6 230.531 154.3 230.731 159.2 232.631C164.4 234.531 167 238.231 166.2 243.831Z" fill="#2D1F04"/>
<path opacity="0.23" d="M70 255.432C74.1 251.232 78.8 248.832 81.2 247.532C86.2 244.832 92.2 245.032 97.4 246.232C111.6 249.432 137.1 259.632 151.6 262.732C178.2 268.332 202.2 260.332 199.8 256.032C197.8 252.532 156.9 259.432 142.2 253.032C129.2 247.332 108.2 244.832 94.6 241.532C91.3 240.732 80.7 237.132 78.3 231.832C78.2 234.032 78.6 234.732 79.2 236.032C77.8 238.632 74.9 243.332 70 255.432Z" fill="#3F2719"/>
<path d="M91.2 184.831C91.4 184.131 91.3 183.831 91 183.931C90.2 184.031 87.6 187.331 87 188.331C85.8 190.431 87.9 192.631 87.7 193.731C87.5 195.031 74.8 223.131 79.2 236.631" stroke="#2D1F04" stroke-width="2.62" stroke-miterlimit="10" stroke-linecap="round" stroke-linejoin="round"/>
<path d="M88.3 193.131C94.5 197.931 106.8 201.231 119.9 203.831C137.8 207.331 163.6 209.831 192.1 205.031" stroke="#2D1F04" stroke-width="2.62" stroke-miterlimit="10" stroke-linecap="round" stroke-linejoin="round"/>
<path d="M98.1 187.631C97.3 189.531 96.5 190.931 96.4 193.031" stroke="#2D1F04" stroke-width="2.62" stroke-miterlimit="10" stroke-linecap="round" stroke-linejoin="round"/>
<path d="M109.6 190.932C108.6 192.632 108.2 194.932 108.1 196.832" stroke="#2D1F04" stroke-width="2.62" stroke-miterlimit="10" stroke-linecap="round" stroke-linejoin="round"/>
<path d="M166.7 197.231L166.6 197.731V198.231L166.5 199.331V199.831" stroke="#2D1F04" stroke-width="2.62" stroke-miterlimit="10" stroke-linecap="round" stroke-linejoin="round"/>
<path d="M170.6 197.531L170.5 198.331L170.4 199.131V199.631" stroke="#2D1F04" stroke-width="2.62" stroke-miterlimit="10" stroke-linecap="round" stroke-linejoin="round"/>
<path d="M54.6 221.231C52.1 219.631 50.2 218.231 49.3 217.131C49 216.831 48.8 216.531 48.5 216.331C47.7 215.431 46.8 210.531 50.6 208.131C51.1 206.931 51.7 205.731 52.3 204.331C62.5 182.431 76.8 174.831 91.5 177.531" stroke="#2D1F04" stroke-width="2.62" stroke-miterlimit="10" stroke-linecap="round" stroke-linejoin="round"/>
<path d="M50.6 208.131C55.6 211.531 64.8 216.931 74.4 221.031" stroke="#2D1F04" stroke-width="2.62" stroke-miterlimit="10" stroke-linecap="round" stroke-linejoin="round"/>
<path d="M58 212.731C56.8 213.331 55.8 215.631 55.6 216.731" stroke="#2D1F04" stroke-width="2.62" stroke-miterlimit="10" stroke-linecap="round" stroke-linejoin="round"/>
<path d="M64.7 216.432C63.9 217.032 63.2 218.832 63.1 219.532" stroke="#2D1F04" stroke-width="2.62" stroke-miterlimit="10" stroke-linecap="round" stroke-linejoin="round"/>
<path d="M62.7 310.931C60.5 306.231 58.4 299.331 60.1 287.931C62.4 272.631 67.9 256.031 79.2 236.031" stroke="#2D1F04" stroke-width="2.7806" stroke-miterlimit="10" stroke-linecap="round" stroke-linejoin="round"/>
<path d="M91.2 184.732C102 188.732 120 193.932 143.5 195.832C162.9 197.332 181.2 195.932 188.8 193.632C199.3 190.432 207.2 187.032 214.7 183.332C218.9 181.232 224 177.832 228.4 175.432C235.5 171.632 250.3 165.432 270.2 182.932" stroke="#2D1F04" stroke-width="2.62" stroke-miterlimit="10" stroke-linecap="round" stroke-linejoin="round"/>
<path d="M223.3 108.732C222.4 116.532 211 121.532 197.8 120.032C184.6 118.532 174.7 110.932 175.6 103.232C176.5 95.4316 187.9 90.4316 201.1 91.9316C214.3 93.4316 224.2 100.932 223.3 108.732Z" fill="url(#paint0_radial_281_1591)"/>
<path d="M121.6 95.9315C120 102.832 110.5 106.532 100.5 104.232C90.5 101.832 83.7 94.3315 85.3 87.3315C86.9 80.4315 96.4 76.7315 106.4 79.0315C116.5 81.4315 123.3 88.9315 121.6 95.9315Z" fill="url(#paint1_radial_281_1591)"/>
<path opacity="0.23" d="M298.9 269.031C287.3 271.831 280.9 269.431 278.4 272.031C270.2 280.531 270.2 295.631 265.6 310.931H241.7C250.9 283.031 260.2 242.031 258.6 225.131C263.8 236.131 276.2 239.231 285 239.231C286 242.531 287 245.831 288.2 248.931C293.6 264.031 303.6 267.931 298.9 269.031Z" fill="#3F2719"/>
<path d="M236.7 58.5315C235.6 58.9315 231.1 56.7315 229.4 57.3315C227.6 57.9315 219.9 79.2315 202.3 82.1315C192.6 83.7315 172 74.0315 170 62.1315C168.9 55.6315 174.1 36.9315 166.7 34.8315C164.7 34.2315 163 34.2315 161.4 34.7315C157.3 35.9315 154.3 40.3315 150.7 45.5315C147.9 49.6315 145.6 52.3315 142.9 54.2315C140.8 55.6315 138.5 56.4315 135.4 57.0315C119.2 59.7315 102.1 53.5315 100.1 41.2315C98.2 29.7315 102.3 16.8315 102 15.7315C101.7 14.6315 96.6 12.7315 95.9 11.2315C95.3 10.0315 98.9 0.731509 100.4 0.131509C100.9 -0.068491 105.1 0.631509 118 3.83151C130.9 7.03151 146.2 14.0315 153 17.5315C159.8 21.0315 163.5 23.8315 165.1 24.6315C166.7 25.3315 169.9 26.4315 173.5 27.6315C175.8 28.3315 180.4 28.1315 193 30.2315C200.2 31.4315 215.3 35.8315 230 41.7315C235.8 44.0315 239.9 45.8315 240.7 47.3315C240.8 47.4315 240.8 47.5315 240.8 47.6315C241.3 49.6315 237.8 58.1315 236.7 58.5315Z" fill="#5F5F5F"/>
<path d="M161.6 34.5312C160.9 45.2312 152.4 50.3312 143.1 54.0312C145.8 52.2313 148.1 49.4312 150.9 45.3312C154.5 40.1312 157.4 35.7313 161.6 34.5312Z" fill="#5F5F5F"/>
<path d="M258 82.4315C257 90.0315 251.1 84.3315 251.1 81.0315C251.2 76.5315 249.8 70.8315 249.3 70.0315C246.5 66.0315 240.8 60.0315 236.7 58.5315C237.8 58.1315 241.3 49.6315 240.8 47.6315C240.8 47.5315 240.7 47.4315 240.7 47.3315C248.3 53.1315 255.5 62.4315 256.9 65.0315C258.2 67.5315 259.2 73.1315 258 82.4315Z" fill="#5F5F5F"/>
<path d="M240.8 47.6314C240.4 46.0314 236.2 44.1314 229.9 41.6314C215.2 35.7314 200.1 31.3314 192.9 30.1314C180.3 28.0314 175.7 28.2314 173.4 27.5314C169.8 26.3314 166.6 25.2314 165 24.5314C163.4 23.8314 159.6 20.9314 152.9 17.4314C146.2 13.9314 130.9 6.93141 118 3.73141C105.1 0.531411 101 -0.168589 100.4 0.0314113C98.9 0.631411 95.4 9.93141 95.9 11.1314C96.6 12.6314 101.7 14.5314 102 15.6314C102.3 16.7314 98.2 29.6314 100.1 41.1314C102.1 53.3314 119.2 59.6314 135.4 56.9314C142.6 55.7314 145.8 52.6314 150.8 45.5314C155.8 38.3314 159.4 32.7314 166.8 34.7314C174.2 36.8314 169 55.4314 170.1 62.0314C172.1 73.9314 192.7 83.7314 202.4 82.0314C220 79.1314 227.7 57.8314 229.5 57.2314C231.3 56.6314 235.7 58.8314 236.8 58.4314C237.8 58.1314 241.3 49.6314 240.8 47.6314Z" stroke="#2D1F04" stroke-width="2.62" stroke-miterlimit="10" stroke-linecap="round" stroke-linejoin="round"/>
<path d="M235.796 51.8787C236.164 50.8961 235.247 49.6438 233.747 49.0817C232.247 48.5195 230.733 48.8603 230.365 49.8429C229.996 50.8255 230.913 52.0778 232.413 52.64C233.913 53.2021 235.427 52.8613 235.796 51.8787Z" fill="#FFDB1F"/>
<path d="M106.909 8.76934C107.277 7.78674 106.36 6.53444 104.86 5.97227C103.361 5.4101 101.846 5.75094 101.478 6.73354C101.11 7.71614 102.027 8.96843 103.527 9.5306C105.026 10.0928 106.541 9.75194 106.909 8.76934Z" fill="#FFDB1F"/>
<path d="M106.1 38.5313C107.4 46.3313 120.6 51.4313 130.7 51.5313C132.3 51.5313 133.8 51.4313 135.2 51.2313C136.8 50.9313 138.2 50.3313 139.5 49.5313C142.7 47.5313 145.4 44.0313 147.9 40.5313C148.7 39.4313 149.5 38.2313 150.2 37.0313C152.3 33.6313 153.8 30.2313 153.3 27.3313C152.5 22.7313 144.8 19.6313 135.9 16.0313C133 14.8313 130 13.7313 127.2 12.8313C122.4 11.2313 118.1 10.3313 115.5 10.7313C111.7 11.3313 109.7 13.3313 108.6 16.0313C107.6 18.3313 107.2 21.2313 106.7 24.3313C106.6 24.9313 106.5 25.5313 106.5 26.0313C105.8 31.0313 105.6 35.8313 106.1 38.5313Z" fill="black"/>
<path d="M175.6 58.9313C176.9 66.7313 191 76.4313 202.9 75.4313C203.4 75.4313 203.9 75.3313 204.4 75.2313C206.2 74.9313 208.3 73.8313 210.6 72.1313C214.6 69.2313 218.7 64.5313 221.4 59.8313C223.5 56.2313 224.7 52.6313 224.2 49.7313C223.4 44.8313 215 41.9313 206.2 39.3313C204.3 38.8313 202.4 38.2313 200.5 37.7313C193.9 35.9313 187.7 34.7313 184.8 35.2313C182.4 35.6313 180.7 36.7313 179.5 38.3313C177.9 40.4313 177.1 43.4313 176.3 47.1313C176.3 47.2313 176.3 47.2313 176.3 47.3313C175.4 51.3313 175 55.7313 175.6 58.9313Z" fill="black"/>
<path d="M219.9 58.3315C219.8 58.5315 219.7 58.7315 219.6 58.8315C217.1 63.1315 213.2 67.5315 209.3 70.4315C209.2 70.4315 209.2 70.5315 209.1 70.5315L180.9 39.9315C181 39.8315 181.1 39.7315 181.1 39.6315C182.1 38.3315 183.3 37.6315 185.1 37.3315C186.6 37.0315 190.5 37.3315 199.9 39.8315C200.9 40.1315 202 40.4315 203.2 40.7315L219.9 58.3315Z" fill="url(#paint2_linear_281_1591)"/>
<path d="M200.9 73.4316C190.5 73.3316 178.8 65.1316 177.7 58.6316C177.3 56.3316 177.5 53.0316 178.1 49.4316L200.9 73.4316Z" fill="url(#paint3_linear_281_1591)"/>
<path d="M148.6 35.4313C148.5 35.6313 148.4 35.7313 148.3 35.9313C147.6 37.1313 146.7 38.3313 146.1 39.3313C144 42.4313 141.4 45.8313 138.4 47.7313C138.3 47.8313 138.2 47.8313 138 47.9313L110.1 17.6313C110.2 17.3313 110.3 17.0313 110.5 16.7313C111.5 14.3313 113.1 13.1313 115.8 12.7313C116.9 12.5313 119.8 12.5313 126.5 14.7313C127.7 15.1313 129 15.5313 130.3 16.0313L148.6 35.4313Z" fill="url(#paint4_linear_281_1591)"/>
<path d="M128.5 49.3312C119.2 48.5312 109.1 44.0313 108.2 38.2313C107.8 36.0313 107.9 32.2312 108.3 28.0312L128.5 49.3312Z" fill="url(#paint5_linear_281_1591)"/>
<path d="M211.3 94.4313C203 85.5313 194.3 85.6313 184.3 93.1313C195.3 91.1313 200.4 94.1313 203.3 97.9313" stroke="#2D1F04" stroke-width="2.62" stroke-miterlimit="10" stroke-linecap="round" stroke-linejoin="round"/>
<path d="M284.1 233.632C271.6 217.632 271.4 199.332 270.1 186.032C266.9 152.832 259.1 130.932 246.3 105.432C242.2 100.832 239.6 90.0315 236.7 79.0315C233 64.9315 222.9 52.8315 225.5 50.4315C230.3 46.1315 250.7 57.3315 266.7 91.2315C280.2 113.532 295.7 127.332 308.4 142.132C329.3 166.432 341.6 184.032 345.5 202.532C355 248.032 318.6 277.832 284.1 233.632Z" fill="#CAA77A"/>
<path d="M246.8 105.031C252.8 103.731 260.9 100.031 265.5 93.0314C266 92.2314 266.5 91.4314 267 90.6314C250.5 56.8314 230.1 45.9314 225.4 50.3314C222.8 52.7314 233 64.8314 236.8 78.8314C240 91.2314 242.6 100.531 246.8 105.031Z" fill="#B6B1AE"/>
<path d="M246.3 105.332C259.1 130.832 266.9 152.732 270.1 185.932C271.4 199.232 274.1 214.632 284.1 233.532" stroke="#2D1F04" stroke-width="2.62" stroke-miterlimit="10" stroke-linecap="round" stroke-linejoin="round"/>
<path d="M227.7 50.5312C237.8 55.8313 252.3 72.5312 259.7 97.1312" stroke="#2D1F04" stroke-width="2.62" stroke-miterlimit="10" stroke-linecap="round" stroke-linejoin="round"/>
<path d="M265.6 310.931C270.2 295.631 270.2 280.532 278.4 272.032C280.7 269.632 288.5 271.732 298.9 269.032C301.6 268.332 298.7 266.431 299.1 266.331C314 262.931 332.6 257.132 340.2 242.832C345.5 232.832 348.8 218.332 345.6 202.532C341.8 183.932 329.5 166.432 308.5 142.132C295.8 127.332 280.2 113.432 266.8 91.2315C262.1 99.3315 253.4 102.932 246.4 105.432C242.3 100.832 239.7 90.0315 236.8 79.0315C233.1 64.9315 223 52.7315 225.6 50.4315C230.4 46.1315 250.8 57.3315 266.8 91.2315" stroke="#2D1F04" stroke-width="2.62" stroke-miterlimit="10" stroke-linecap="round" stroke-linejoin="round"/>
<path opacity="0.23" d="M271.1 196.531C263.3 181.331 247.1 169.431 227.9 175.731C228.1 175.631 228.2 175.531 228.4 175.431C235.5 171.631 243.1 170.931 248.5 171.631C260.7 173.931 267.9 180.631 269.7 182.431C269.8 183.631 269.9 184.731 270.1 185.931C270.4 189.231 270.7 192.831 271.1 196.531Z" fill="#3F2719"/>
<path d="M292.6 258.031C294.3 260.731 296.4 263.531 299.1 266.331" stroke="#2D1F04" stroke-width="2.62" stroke-miterlimit="10" stroke-linecap="round" stroke-linejoin="round"/>
<path d="M292.6 270.232C283.4 260.432 277.8 247.232 274.1 231.832" stroke="#2D1F04" stroke-width="2.62" stroke-miterlimit="10" stroke-linecap="round" stroke-linejoin="round"/>
<path opacity="0.23" d="M340.2 242.832C332.8 257.632 314 263.132 299 266.432C291.9 258.932 289 250.932 287.3 246.532C312.7 253.432 330.4 244.032 335 236.832C344.4 221.932 338.1 207.832 320.2 183.032C303.4 159.832 289.9 140.432 274.2 113.232C259.6 88.0315 247.7 66.9315 228.4 59.6315C225.9 54.9315 224.3 51.5315 225.6 50.4315C230.4 46.1315 250.8 57.3315 266.8 91.2315C280.3 113.532 295.8 127.332 308.5 142.132C329.4 166.432 341.7 184.032 345.6 202.532C348.9 218.932 346.4 233.232 340.2 242.832Z" fill="#3F2719"/>
<path opacity="0.23" d="M212.5 202.332C211.8 197.932 209.8 196.532 204.4 195.632C196.8 194.432 186.9 195.232 177.5 195.232C183.3 194.632 187.2 193.832 188.7 193.532C189.1 193.432 189.6 193.332 190 193.232C200 190.132 207.5 186.932 214.8 183.332C218.3 181.632 222.3 179.032 226.1 176.832C218.1 182.732 213.9 188.332 212.5 202.332Z" fill="#3F2719"/>
<path d="M50.4 48.6314C44.6 49.8314 44.3 54.6314 43.9 62.5314C43.5 54.6314 43 49.7314 37.4 48.6314C43.2 47.6314 43.6 42.3314 43.9 34.7314C44.3 42.3314 44.6 47.2314 50.4 48.6314Z" fill="#FFDB1F"/>
<path d="M297.5 63.6315C289.4 65.3315 289 72.0315 288.4 82.9315C287.8 71.9315 287.1 65.0315 279.3 63.6315C287.4 62.2315 287.9 54.8315 288.4 44.3315C289 54.8315 289.4 61.6315 297.5 63.6315Z" fill="#FFDB1F"/>
<path d="M19.6 85.5313C15.4 86.9313 14.8 90.3314 14.4 96.4314C14.1 90.2314 13.1 86.7313 9.19998 85.5313C13 84.3313 14.1 80.5313 14.4 74.6313C14.7 80.6313 15.3 84.1313 19.6 85.5313Z" fill="#FFDB1F"/>
<path d="M313.5 95.7316C308.7 97.3316 307.9 101.332 307.5 108.532C307.1 101.232 306 97.0316 301.5 95.7316C306.1 94.2316 307.2 89.9316 307.5 82.9316C307.9 89.9316 308.6 93.9316 313.5 95.7316Z" fill="#FFDB1F"/>
<path d="M65.9 108.931C56.1 111.031 55.6 119.131 54.9 132.231C54.2 119.031 53.4 110.631 43.9 108.931C53.7 107.231 54.3 98.3313 54.9 85.6313C55.6 98.3313 56.1 106.531 65.9 108.931Z" fill="#FFDB1F"/>
</g>
<defs>
<radialGradient id="paint0_radial_281_1591" cx="0" cy="0" r="1" gradientUnits="userSpaceOnUse" gradientTransform="translate(199.443 105.901) rotate(7.06532) scale(23.0652 13.4385)">
<stop stop-color="#FF8A8A" stop-opacity="0.5"/>
<stop offset="1" stop-color="#FF8A8A" stop-opacity="0"/>
</radialGradient>
<radialGradient id="paint1_radial_281_1591" cx="0" cy="0" r="1" gradientUnits="userSpaceOnUse" gradientTransform="translate(103.538 91.5513) rotate(13.8092) scale(17.9 12.2566)">
<stop stop-color="#FF8A8A" stop-opacity="0.5"/>
<stop offset="1" stop-color="#FF8A8A" stop-opacity="0"/>
</radialGradient>
<linearGradient id="paint2_linear_281_1591" x1="178.119" y1="48.986" x2="217.434" y2="58.3686" gradientUnits="userSpaceOnUse">
<stop stop-color="white" stop-opacity="0.5"/>
<stop offset="1" stop-color="white" stop-opacity="0"/>
</linearGradient>
<linearGradient id="paint3_linear_281_1591" x1="175.456" y1="58.3341" x2="201.386" y2="64.5222" gradientUnits="userSpaceOnUse">
<stop stop-color="white" stop-opacity="0.5"/>
<stop offset="1" stop-color="white" stop-opacity="0"/>
</linearGradient>
<linearGradient id="paint4_linear_281_1591" x1="107.66" y1="25.4099" x2="146.44" y2="34.665" gradientUnits="userSpaceOnUse">
<stop stop-color="white" stop-opacity="0.5"/>
<stop offset="1" stop-color="white" stop-opacity="0"/>
</linearGradient>
<linearGradient id="paint5_linear_281_1591" x1="106.021" y1="35.9603" x2="128.989" y2="41.4415" gradientUnits="userSpaceOnUse">
<stop stop-color="white" stop-opacity="0.5"/>
<stop offset="1" stop-color="white" stop-opacity="0"/>
</linearGradient>
<clipPath id="clip0_281_1591">
<rect width="349" height="315" fill="white"/>
</clipPath>
</defs>
</svg>
