<?xml version="1.0" encoding="utf-8"?>
<!-- Generator: Adobe Illustrator 26.0.3, SVG Export Plug-In . SVG Version: 6.00 Build 0)  -->
<!DOCTYPE svg PUBLIC "-//W3C//DTD SVG 1.1//EN" "http://www.w3.org/Graphics/SVG/1.1/DTD/svg11.dtd" [
	<!ENTITY ns_extend "http://ns.adobe.com/Extensibility/1.0/">
	<!ENTITY ns_ai "http://ns.adobe.com/AdobeIllustrator/10.0/">
	<!ENTITY ns_graphs "http://ns.adobe.com/Graphs/1.0/">
	<!ENTITY ns_vars "http://ns.adobe.com/Variables/1.0/">
	<!ENTITY ns_imrep "http://ns.adobe.com/ImageReplacement/1.0/">
	<!ENTITY ns_sfw "http://ns.adobe.com/SaveForWeb/1.0/">
	<!ENTITY ns_custom "http://ns.adobe.com/GenericCustomNamespace/1.0/">
	<!ENTITY ns_adobe_xpath "http://ns.adobe.com/XPath/1.0/">
]>
<svg version="1.1" id="Слой_1" xmlns:x="&ns_extend;" xmlns:i="&ns_ai;" xmlns:graph="&ns_graphs;"
	 xmlns="http://www.w3.org/2000/svg" xmlns:xlink="http://www.w3.org/1999/xlink" x="0px" y="0px" width="259.6px" height="333.6px"
	 viewBox="0 0 259.6 333.6" style="enable-background:new 0 0 259.6 333.6;" xml:space="preserve">
<style type="text/css">
	.st0{fill:#FFFFFF;}
	.st1{fill:#CAA77A;}
	.st2{fill:none;stroke:#2D1F04;stroke-width:2.62;stroke-linecap:round;stroke-linejoin:round;stroke-miterlimit:10;}
	.st3{fill:#B6B1AE;}
	.st4{fill:#FFDB1F;}
	.st5{fill:#FFDBAF;}
	.st6{fill:none;stroke:#9D7B51;stroke-width:3.87;stroke-linecap:round;stroke-linejoin:round;stroke-miterlimit:10;}
	.st7{opacity:0.23;fill:#3F2719;}
	.st8{fill:#3F2719;}
	.st9{fill:#9D7B51;}
	.st10{fill:#251707;}
	.st11{fill:none;stroke:#2D1F04;stroke-width:3.05;stroke-linecap:round;stroke-linejoin:round;stroke-miterlimit:10;}
	.st12{fill:none;stroke:#2D1F04;stroke-width:7.6;stroke-linecap:round;stroke-linejoin:round;stroke-miterlimit:10;}
	.st13{fill:#2D1F04;}
</style>
<metadata>
	<sfw  xmlns="&ns_sfw;">
		<slices></slices>
		<sliceSourceBounds  bottomLeftOrigin="true" height="333.6" width="259.5" x="862.5" y="-697.8"></sliceSourceBounds>
	</sfw>
</metadata>
<path class="st0" d="M237.8,265.2c0.6,0.1,1.2,0.2,1.9,0.2C239.1,265.4,238.4,265.3,237.8,265.2z M12,232.8c0.2,0,0.5,0.1,0.7,0.1
	c0,0,0.1,0,0.1,0C12.5,232.9,12.3,232.9,12,232.8z M237.8,265.2c0.6,0.1,1.2,0.2,1.9,0.2C239.1,265.4,238.4,265.3,237.8,265.2z
	 M12.7,232.9c0,0,0.1,0,0.1,0c-0.3,0-0.5,0-0.8-0.1C12.2,232.9,12.4,232.9,12.7,232.9z"/>
<path class="st0" d="M259.5,261.2c-0.1-1.1-0.2-2.3-0.5-3.6c-1.7-6.6-7-10.8-14-10.8c-1.8,0-3.7,0.3-5.9,0.8
	c0.2-7.4-1.7-15.2-3.7-22.6c-0.8-3.1-1.7-6.6-2.7-10.3c-0.6-2.3-1.3-5.1-2.2-7.9c-1.7-6-3.7-12.7-5.9-19.9l0-0.1l-0.1-0.3
	c-2.1-8.6-4.4-15.4-6.8-22.7c-2-6-4.1-12.3-6.3-20.1c-0.2-0.7-0.4-1.6-0.6-2.5c-0.5-1.8-1-3.9-1.6-5.9c-0.2-2.3-0.8-5.8-3.7-9
	c0-0.9-0.2-1.8-0.3-2.8c-0.1-3.4-0.4-6.9-0.8-10.5c-0.2-4-0.7-8.1-1.7-12.4c-0.2-2.8-0.5-5.1-0.9-7c-1.1-5.5-3-10.5-4.9-15.4
	l-0.1-0.2c-7.2-18.6-16.5-32.5-29.3-43.6c-6.9-8.4-9.2-9.7-10.1-10.2c-3.2-1.8-7.4-3.8-12.3-5.8c-0.3-0.2-0.7-0.3-1-0.5
	c-0.4-0.3-0.8-0.5-1.2-0.7c-1.2-0.6-2.6-1.2-4.2-1.8c-2.9-1.3-5.6-2.3-8.2-3.2c-0.6-0.2-1.3-0.4-2-0.4c-1.8-0.6-3.5-1.2-5.2-1.8
	c-3.5-1.8-7.7-3.7-12.1-4.8c-0.6-0.2-1.3-0.3-2-0.3c-0.8-0.2-1.5-0.3-2.4-0.3c-1.4,0-2.8,0.3-4,0.9c-0.5,0.3-1,0.6-1.5,0.9
	c-1.8-0.5-3.7-1.1-5.6-1.6c-0.9-0.3-1.8-0.5-2.7-0.8c-0.3-0.2-0.7-0.5-1-0.7c-0.4-0.2-0.7-0.5-1.1-0.8c-0.6-0.6-1.5-1.2-2.5-1.8
	c-1.2-0.6-2.7-1-4.1-1h0c-5,0-8.5,4.1-9.5,6.6c-0.1,0.4-0.3,0.7-0.4,1.1c-1.6,0.3-2.9,0.9-4,1.4c-1.1,0.2-2.2,0.4-3.3,0.7
	c-2.6,0.6-5.4,1.6-7.9,2.8c-2.8,1-4.9,3.2-5.7,6.1c-0.2,0.8-0.3,1.7-0.3,2.5c-3.9,2.5-6.5,5.1-6.8,9.2c0,0.8,0,1.6,0.2,2.4
	c-2.5,2-4.5,4.6-4.5,8.4c0,2.4,0.9,4.6,2.4,6.2l-16,0.3c-5,0.1-8.9,4.2-8.8,9.2c0.1,4.9,4.1,8.8,9,8.8h0.2l0.8,0
	c-0.2,4.1,0.2,8.4,0.7,11.9c0.3,1.9,0.6,3.6,1,5.1c-2.4,1.1-4.4,3-5.5,5.4c-1.1,2.6-1.2,5.5-0.2,8.1c0.3,0.7,0.6,1.4,1,2
	c0.1,0.7,0.3,1.5,0.5,2.2c0.2,0.7,0.6,1.4,1,2c0,0.2,0.1,0.4,0.1,0.7c-0.9,0.3-1.7,0.8-2.5,1.3c-1,0.7-1.8,1.6-2.5,2.6
	c-0.8,1.2-1.3,2.4-1.5,3.8c-0.2,1.3-0.2,2.7,0.1,4c0.3,1.5,1,2.9,1.8,4c-0.3,1.4-0.3,2.9,0,4.3c0.2,0.7,0.4,1.3,0.6,1.9
	c0,0.3,0,0.6,0,0.8c0,0,0,0,0,0.1c0.1,1.3,0.5,2.6,1.1,3.7c0,0,0,0,0,0c-0.4,1.3-0.5,2.6-0.4,3.9c0.1,1.3,0.5,2.6,1.1,3.8
	c-0.4,1.2-0.5,2.6-0.4,3.9c0,0,0,0,0,0.1c0,0.2,0.1,0.5,0.1,0.7c-0.1,0.6-0.2,1.2-0.3,1.9c-0.1,1.6,0.2,3.3,0.9,4.7
	c-0.8,1.4-1.3,3-1.3,4.6c0,0.9,0,1.9,0.3,2.8c-0.5,1.1-0.9,2.3-1.1,3.5l-0.6,4.2v0c-0.2,1.3-0.1,2.7,0.2,4c0.1,0.3,0.2,0.5,0.2,0.8
	c-0.2,0.2-0.4,0.4-0.6,0.7c-0.8,1-1.4,2.3-1.8,3.6c-0.3,1.3-0.4,2.6-0.3,3.9c-0.8,1.1-1.4,2.2-1.7,3.5c-0.3,1.2-0.4,2.5-0.3,3.7
	c-1,1.3-1.8,2.7-2.4,4.3c-0.8,2.2-1,4.4-0.8,6.6c-0.1,0.1-0.2,0.2-0.4,0.3c-1.4,1.3-2.5,2.8-3.3,4.6c-0.5,1.2-0.9,2.4-1.1,3.7
	c-0.8,1-1.5,2.1-2,3.3c-0.3,0.6-0.5,1.3-0.7,2c-0.3,0.5-0.6,1-0.8,1.5c-0.7,1.6-1,3.4-0.9,5.1c-0.7,0.4-1.3,0.8-1.9,1.3
	c-1,0.9-1.8,2-2.4,3.3l-1.8,3.8c-0.7,1.6-1.1,3.3-1.2,5c0,1.6,0.2,3.2,0.8,4.8c0.5,1.5,1.4,2.9,2.4,4.1c0.5,0.5,1,1,1.6,1.5
	c-2.6,2-4.1,5-4.4,8.3c-0.2,3.3,0.8,6.4,3,8.8c0.8,0.9,1.8,1.6,2.7,2.1c-0.4,1.3-0.6,2.8-0.5,4.3c0.1,1.7,0.6,3.4,1.4,4.9
	c1.7,3.2,4.7,5.3,8.2,5.9c0.2,0.6,0.5,1.3,0.9,1.9c1.4,2.5,3.6,4.4,6.3,5.6c1.8,0.8,3.8,1.2,5.8,1.2c4.4,0,8.4-1.9,10.8-5.2
	c0.8,0.1,1.6,0.2,2.5,0.2c2.3,0,4.4-0.5,6.3-1.6c0.9-0.5,1.7-1.1,2.4-1.7c2,3.3,4.3,5.3,6.9,6.2c0.8,0.3,1.7,0.5,2.6,0.6
	c1,1.2,1.8,1.9,2.6,2.5c0.4,0.3,0.7,0.5,1.1,0.8c1.6,1.6,3.3,3,5,4.2c-5.5-0.7-9.6-0.8-9.7-0.8c-0.1,0-13.5,0.2-21.5,4.3
	c-0.4,0.2-0.8,0.4-1.2,0.7c-6,3.6-6.9,8.5-6.9,11.1c0,1.5,0.3,3,0.9,4.5c1,2.6,3.9,6.8,11.4,7.6c0,0.3,0,0.6,0,0.9
	c0,0.7,0.1,1.3,0.2,2c1,5.1,5.4,8.6,10.9,8.6c1,0,2-0.1,3.2-0.3c1.1,2.7,3.2,4.9,6,6c1.5,0.6,3.1,0.9,4.9,0.9c2.3,0,4.8-0.5,7.5-1.5
	c0.9-0.3,1.8-0.7,2.5-1.1c0.1,0,0.7-0.3,2.7-1.1c0.7-0.3,1.4-0.5,2.2-0.9l2.2-0.9c6.1-2.4,13-5,16.7-7c3.1-1.6,6.9-5.3,6.9-13.4
	c0-1.3-0.1-2.7-0.3-4.2c6.2,1,12.8,1.5,19.5,1.5c6.4,0,12.2-0.5,17.2-1.1c-6,3.5-9.5,7.4-11.7,10.1c-1,1.2-1.6,2.7-1.8,4.1
	c-0.1,0.5-0.2,1.1-0.2,1.7c-0.2,4.9,3.5,9.1,8.4,9.4c1.2,0.1,2.6,0.2,4,0.2c2.1,0.5,4.1,0.6,5.5,0.6c0.7,0,1.4,0,2,0
	c0.3,0,0.6,0,0.8,0c0.6,0,1.2,0,1.8,0h0.1c4,0.8,10,1.1,17.9,1.1c3.2,0,6.7-0.1,9.5-0.2c1,0.1,1.9,0.2,2.8,0.2c0.6,0,1.2,0,1.8-0.1
	c1.7,0.4,5.1,1,11.9,1c2.6,0,7.6-0.1,12.2-0.7h0.7c1.5,0,5.2,0,8.5-2.2c0.8-0.5,1.5-1.1,2.1-1.8c2.1-1.8,3-3.9,3.4-5.4
	c0,0,0-0.1,0-0.1c0.6-1.8,0.8-3.7,0.6-5.8c0-2.5-0.2-5.8-1.5-8.6c-0.3-0.7-0.7-1.4-1-2.2c-0.5-1.2-1.1-2.3-1.6-3.5l-0.1-3.5
	c0.6,0.1,1.3,0.2,1.9,0.2h0.1c3,0,5.8-1.1,8.3-3c0.5-0.4,1.1-0.9,1.6-1.4c0.2-0.2,0.4-0.5,0.7-0.7c0.9-1,1.7-2.2,2.5-3.5h0.1
	c0.6,0,1.2,0,1.8-0.1c1.2-0.2,2.4-0.6,3.4-1.2c2.6-1.4,4.5-3.7,5.5-6.7c0.6-1.9,0.9-4,0.9-6.2c0-0.2,0-0.5,0-0.7
	c2.2-0.2,4.2-0.8,5.9-1.6C257.2,270.9,259.8,266.4,259.5,261.2z M12.7,232.9c-0.2,0-0.4,0-0.7-0.1c0.3,0,0.5,0.1,0.8,0.1
	C12.8,232.9,12.7,232.9,12.7,232.9z M14,251.1c0,0-0.1,0-0.1,0h0.2C14,251.1,14,251.1,14,251.1z M17.4,213.2L17.4,213.2
	c0,0-0.1,0-0.2,0C17.3,213.2,17.3,213.2,17.4,213.2z M28.4,273.1c-0.2,0-0.3,0-0.5,0c0.2,0,0.5,0,0.7,0
	C28.6,273.1,28.5,273.1,28.4,273.1z M41.6,177.1C41.6,177.1,41.6,177.1,41.6,177.1c0.2,0,0.3,0,0.4,0
	C41.8,177.1,41.7,177.1,41.6,177.1z M63.6,147.2C63.6,147.1,63.7,147.1,63.6,147.2c0.1,0,0.1,0,0.2,0
	C63.7,147.1,63.7,147.1,63.6,147.2z M66.9,324.6C66.9,324.6,66.9,324.6,66.9,324.6c0,0,0.1,0,0.2,0C67.1,324.6,67,324.6,66.9,324.6z
	 M77.4,16.4c0.1,0,0.1,0,0.2,0c0.1,0,0.2,0,0.3,0C77.8,16.4,77.6,16.4,77.4,16.4z M84.2,9C84.2,9,84.2,9,84.2,9
	C84.2,9,84.2,9,84.2,9L84.2,9z M196.1,131.6C196.2,131.6,196.2,131.6,196.1,131.6l0.2,0C196.3,131.6,196.2,131.6,196.1,131.6z
	 M237.8,265.2c0.6,0.1,1.2,0.2,1.9,0.2C239.1,265.4,238.4,265.3,237.8,265.2z"/>
<g>
	<g>
		<path class="st1" d="M82.8,282c1.6,3.2,5.9,22.6,5.8,22.4c-7.5-7.4-25.7-9-30.7-9c-3,0-23,1.4-20.3,8.2c2.3,5.8,27.1-2.3,27.1-1.9
			c0,0.8-16.5,6.5-15,14c1.2,5.9,24.4-9.4,24.1-8.8c-2.3,4.6-12.3,8.1-10.6,15.1c0.8,3.2,7.1,0.8,8.7,0c2.7-1.4,18.2-6.9,23.7-9.8
			c5.3-2.7-1.4-21.6-1.7-23.1"/>
		<path class="st2" d="M82.8,282c1.6,3.2,5.9,22.6,5.8,22.4c-7.5-7.4-25.7-9-30.7-9c-3,0-23,1.4-20.3,8.2c2.3,5.8,27.1-2.3,27.1-1.9
			c0,0.8-16.5,6.5-15,14c1.2,5.9,24.4-9.4,24.1-8.8c-2.3,4.6-12.3,8.1-10.6,15.1c0.8,3.2,7.1,0.8,8.7,0c2.7-1.4,18.2-6.9,23.7-9.8
			c5.3-2.7-1.4-21.6-1.7-23.1"/>
		<path class="st3" d="M166.7,305.1c-7.4,3-14.7,2-21.2,7.5c-1.1,0.9-4.7,4.1-4.2,5.7c0.8,2.7,6.7,2,8.8,2.1
			c8.1,0.2,16.7,0,24.8,0.2c1.5,0,9,2.1,9.2,0c0.6-5.2-8.1-9.3-10.7-12"/>
		<path class="st3" d="M118.6,218.9c-0.1-0.2-0.3-0.4-0.4-0.6"/>
		<path class="st1" d="M63.7,37.1c-2.4,0-8.6,12.1-10,14.6c-10.4,18.2-6.6,39.5,1.7,57.8c2.1,4.7,1.2,6.1,3.3,10.5
			c1,2,4.5,6.7,4.5,8.8c0,0.5,0,1.4,0,1.4s-0.7-3.5-1.4-5c-0.2-0.5-1.2-1.4-0.7-1.4c0.3,0,0.6,0.8,0.7,1c2.3,5.8-0.3,13.1,1.2,19.1
			c1,4.2,9,9.2,13.4,10.3c16.6,4.1,33.3-0.2,49.9-0.2c4.2,0,16.1,1.3,19.6-2.1c2.9-2.9,7.9,8.1,10.3,4.8c3.2-4.5,7.2-11.4,12.3-13.5
			c5.3-2.1,8.8-7.3,14.1-6c1.3,0.3,10.6-5.2,11.9-6.5c2.2-2.2,0.4-8.1-0.1-10.8c-1.5-7.3-1-18-2.4-25.1c-1-4.8-2.8-9.4-4.5-14.1
			c-7.1-18.3-17-33.3-32.7-44.7c-3.9-2.9-10.5-7.9-15-10.2c-4.4-2.2-9.2-2.1-13.6-4.3c-5.7-2.9-12-6.6-18.1-8.1
			c-1.6-0.4,0.6,2.3,0.5,2.6c-0.2,0.4-4,0.3-4.5,0.2c-5.1-1-10.4-0.9-15.3-3.1c-0.8-0.4-3.8-3.4-4.8-3.1c-2.9,1,1.4,9.1,1.4,9.1
			s-0.4-0.7-0.7-1c-1.4-1.1-4.6-2-6.4-2.4c-3.9-0.8-5.5,1.7-8.8,2.4c-0.4,0.1-4.3,1.1-4.3,1.2c0,0.8,6.2,1.8,6.2,2.6
			c0,0.7-1.4,0.4-1.7,0.5C67.6,22.6,57.2,27,58,29.3c0.3,1,5.8,1,6.9,1.7c0.3,0.2,1,0.2,1,0.2s-4.3,0.7-6.4,1.2
			C56.8,33,51.4,39,56.1,39"/>
		<path class="st1" d="M215.6,241.7c-0.9,0.3-11.7,24.2-12.1,27.5c-0.8,6.5,2,14.5,2.8,20.9c0.8,6.3,4.7,14.3,7.3,20.2
			c0.9,2,0.8,6.4,0.3,8.6c-1,4-24.9,3.9-28.2,2.6c0,0-7.4-9.2-9.8-11c-2-1.5-0.5-1.8-5.2-3.8c-2.9-1.2-6.5-1.2-9.2-4
			c-2.6-2.6-4-8.4-6.8-10.3c-2.8-1.8-4.9-0.5-13.8,1.4c-8.9,1.9-15.5,1.5-24.1-0.7c-1.5-0.4-35.4-3.4-47-16.5
			c-2.2-2.5-11-9.2-10.4-6.6c0.6,2.6-4.9-3.6-4.9-11c0-1.2-4.5,2-3.8,1.4c1.5-1.1-4.7-13.9-2.9-13.9c6,0,15.7-0.1,21.6,1.6
			c3.9,1.1,10.9-26.3,15-25.9c6.4,0.6,15.9,9,22.3,9.5c6.2,0.5,14.3,14.4,14.9,6.7c0.6-7.7,2.9,1.8,3.7,1c0.3-0.3,12.5-13,12.4-14.5
			"/>
		<path class="st1" d="M201.7,254.7c-0.3,0.7,5,0.4,5.1,0.4c4.2,1.4,0.6,3.3-0.7,7.7"/>
		<path class="st4" d="M63.1,146.8c-0.2-2.5-5.7,4.3-4,6.6c0.7,1,1.9,1.6,2.6,2.6c0.3,0.5-0.5,1.1-0.7,1.4c-3,4-5,8.6-6.8,13.1
			c-2,4.9-3.2,9.3-4,14.5c-0.5,3.3,2.1,6.7,1.4,9.6c-2,7.9-4.2,6.1-11.8,22.1c-2.4,5-6.4,10.4-8,13.7s-2.8,9.9-1.8,10.3
			c12.7,4.3,43.2,14.8,71.6,17.7c41.5,4.3,96.6,3.9,124.2-5.3c8.7-2.9-4.7-39.3-11-65.3c-3.7-15.3-8.3-25.1-13.1-42.5
			c-1.7-6.1-3.3-16.9-9.3-13.4c-22.9,13.3-19.4,4.6-24.6,11.6c-1.7,2.2-16.9,3.1-19.2,4.6c-1,0.7-5,0.5-6.3,0.7
			c-6.5,1.3-15,2.6-21.5,3.9c-14,2.8-23.2,0.1-37.1-2.7c-2.3-0.5-7.6,0.1-9.8-0.2c-2.7-0.4-5-0.5-7.7-1.2
			C63,147.9,63.2,147.1,63.1,146.8z"/>
		<path class="st5" d="M52.4,74.2c2-8.1,7-17.3,14.3-18.7c8.6-1.6,15.7,5.3,24,5c1.5-0.1,4.5-1,5.4-2.3c0.9-1.3,0-3,0-3
			c1.3,0.4,2.6,2.3,4.2,2.7c6.2,1.8,12.6-3.7,18.3-5.4c18.7-5.7,33.4-3.6,43.3,14.5c2.2,4.1,5.7,13.4,3.3,23.8
			c-3.4,15.1-5.2,21.5-21.6,32.8c-19.5,13.5-59.9,20.2-80.1-5.3C54.1,106.3,48.6,89.4,52.4,74.2z"/>
		<line x1="69.4" y1="257.8" x2="69.4" y2="263.4"/>
		<line class="st6" x1="69.4" y1="257.8" x2="69.4" y2="263.4"/>
		<line x1="75.5" y1="261.2" x2="75.5" y2="266.8"/>
		<line class="st6" x1="75.5" y1="261.2" x2="75.5" y2="266.8"/>
		<line x1="81.3" y1="264.9" x2="81.3" y2="270.5"/>
		<line class="st6" x1="81.3" y1="264.9" x2="81.3" y2="270.5"/>
		<line x1="72.2" y1="134.8" x2="72.1" y2="140.4"/>
		<line class="st6" x1="72.2" y1="134.8" x2="72.1" y2="140.4"/>
		<line x1="77.7" y1="137.7" x2="77.7" y2="143.3"/>
		<line class="st6" x1="77.7" y1="137.7" x2="77.7" y2="143.3"/>
		<path class="st7" d="M51.5,38.8c4,0,7.5-1.1,11.4-2c1.1-0.3,3.3-1.5,3.3-0.3c0,0.2-0.5,0.2-0.7,0.3c-3.4,2-6.1,4.9-8,8.4
			c-0.7,1.2-2.5,4.5-2,3.7c15.3-27.7,126.7-38.1,120.3,74.4c-0.1,1-0.5,13.3-1.8,17.2c-0.7,2,5.9-4.4,8.4-3.4
			c1.1,0.4,10-6.2,10.8-6.7c1.4-1,0.4-6.3,0.7-8c5.7-37.9-38.1-88.7-41.9-90.8c-14.4-8-43.9-16.9-44.6-17.1c-0.1,0-2.7,1.6-4,1.3
			c-4.8-0.8-10.2-2.6-15.1-4C87.6,11.5,83.1,8,83,8.3c-0.5,1.1-0.9,7.2-0.3,8c0.4,0.6,2.8-0.3,2-0.3c-6.2,0-14.1,2-20.8,3.3
			c-0.2,0-0.7,0.1-0.7,0.3c0,1.9,8.7,0.7,8.7,2c0,1-12.1,4.4-13.7,5.7c-0.5,0.4-2.5,1.9-2,2.3c1.6,1.6,5.6-0.4,7.7,0.7"/>
		<path class="st7" d="M167.2,262.2c22,0.1,31.2,51.5,28.6,51.3c-31-2.4-49.9,4.5-49.9,5.7c0,1,5.4,0.8,6.4,1
			c6.2,1.6,22.2,1.3,28.5,0.9c11.8-0.7,15,0.4,26.8,0.4c1.5,0,3.2,0.1,4.4-0.7c4.9-3.3-4.5-18.8-5.1-23.7c-1-7.8-2.8-21.4-1.7-29.1
			c0.3-2.4,2.8-5.8,2.4-8.2C206.6,254.8,165.8,262.2,167.2,262.2z"/>
		<path class="st8" d="M101.4,292.1c0,0.2,0,0.4,0,0.7"/>
		<path class="st7" d="M45.6,207.1c-1.3,2.9,4.3-6.7,6.2-7.9c4.1-2.6,33.5,1.7,38,1.7c11.7,0,46.4,8.7,57.7,5.3
			c3.1-0.9,14.5-3.8,11.8-12.6c-1.5-4.9-10.6-5.2-13.5-5.2c-12,0-58.7,10.2-70.3,8.2c-2.8-0.5-21.2-2.6-23.5-6.9
			c-0.6-1.1-2.7,7.9-3.1,8.6C46.1,202.6,47.9,202.2,45.6,207.1z"/>
		<path class="st7" d="M164.3,288.6c-1-1.1,11.7-10.3,8.5-9.3c-78,25-109.6-10.4-110.4-9.2c-0.3,0.4,4.3,4,4.6,4.4
			c5,5.5,9.8,8.3,16.5,11.7C119.8,304.4,165.5,290,164.3,288.6z"/>
		<path class="st2" d="M65.2,35.9c-4.6,3-7.3,8-10.3,12.3c-15,21.2-7.1,48.1,3.6,69.4c0.9,1.9,2.3,4,2.6,6.1c0.1,1.1-0.5,2.8,0,3.8
			c0.2,0.4,1.1-1,1.2-0.6c0.2,2,0,4.2-0.2,6.1c-0.1,0.7-0.9,2.7-0.4,2.2c0.2-0.2,0.7-1.8,1.4-1.6c0.4,0.1,0,10.6-0.2,11.7"/>
		<path class="st2" d="M63.8,36.5c-2.2,1.1-3.7,1.1-5.9,1.8c-1.1,0.3-2,0.7-3.2,1c-1.1,0.2-2.2,0.3-3.2,0.6
			c-0.5,0.1-1.4,0.9-1.4,0.4c0-1.5,12-8.2,14.3-8.9c0.3-0.1,0.9-0.1,1-0.4c0.2-0.5-0.9-0.5-1.4-0.6c-2.3-0.6-7.7,1.2-9.5-0.2
			c-0.5-0.4,3.5-2.8,3.8-3c2.5-1.4,5-3.2,7.7-4c1.6-0.5,5,0.7,5-1c0-2-9-1.3-9.7-2c-0.1-0.1,0.3-0.1,0.4-0.2c2-1,4.3-1.9,6.5-2.4
			c4.1-1,11.4-1.9,15.5-0.6"/>
		<path class="st2" d="M84.3,18.1c-1.2-2.3-3.3-6.2-2.2-8.9c0.1-0.1,1-1.1,1.2-1c0.8,0.4,1.4,1.8,2.4,2.4c3.9,2.1,8.3,3.6,12.7,4.6
			c2.6,0.6,5.2,0.8,7.7,1.4c0.6,0.1,1.8,0.2,1.8,0.2s-3.5-3.1-2.2-3.8c0.2-0.1,10.2,3.6,11.1,4c7.1,2.8,14.3,4.4,21.1,7.7"/>
		<path class="st2" d="M47.9,247.7c-1,5.8,3.7,13.4,3.7,13.4s1.5-4.5,2.2-3.3c0.8,1.4,4.1,13.7,6.3,13c0.1,0,0-3.3,0.2-3.1
			c0.8,0.4,5.2,6.3,6.7,7.4c5.4,4.1,11.8,7.5,18,10.2c23.1,10.1,57.4,14.1,80.4,2.6"/>
		<path class="st2" d="M154.3,292.5c2.6,5.7,6.5,10.8,12.6,12.8"/>
		<path class="st2" d="M208.8,257.7c-10.6,19.4-2.8,32.9,1.8,47c1.4,4.2,7.4,14.3,0.3,16.2"/>
		<path class="st2" d="M166.3,304.8c-17.2,3-23.8,9-27.9,14.1"/>
		<path class="st2" d="M126.5,20c49.8,16.5,69.5,71.3,68.6,109.6"/>
		<path class="st2" d="M165.1,304.4c7.7,3.1,15.7,8.7,19.4,16"/>
		<path class="st2" d="M140.2,319c7.3-3.7,16.2-6.3,25-7.4c3.8-0.5,7.6-0.6,11.3-0.5"/>
		<path class="st2" d="M63.3,147.1c38.8,11.2,90.6,7.5,130.9-16.5"/>
		<path class="st2" d="M63.3,147.2c0.4-2.5-2.7,2-3.3,3.3c-0.9,1.9,1,3.5,1,4.5c-0.1,1.1-1.9,3.7-2.4,5c-3.5,9.4-11.9,21.5-6.7,31.6
			"/>
		<path class="st2" d="M31,241.1c61.6,27.8,178.7,21.9,196.1,11.4"/>
		<path class="st2" d="M30.8,241c-5.8-4.8,20-44.6,21.4-49"/>
		<path class="st2" d="M195.2,130.2c0.6,1.1,4.3,4.9,3.7,8.8c3.7,11.6,30.1,89,30.2,107.3c0,3.9-0.2,5.3-2.6,6.6"/>
		<path class="st9" d="M73.8,76.1C67,72.7,61.5,89.9,62,94.8c1.9,16.9,26.6,16,38.1,10.3c16.6-8.3-3.7-34.9-15.5-30.2"/>
		<path class="st10" d="M69.7,76.1c-0.1-2.6,4.9-4.9,11.2-5.2c6.3-0.3,11.6,1.5,11.7,4.1c0.1,2.6-4.9,4.9-11.2,5.2
			C75,80.5,69.8,78.7,69.7,76.1z"/>
		<path class="st11" d="M81.2,81c0,9.6,5.4-1.7,12.9,2"/>
		<path class="st2" d="M139.9,158.9c-36.1,5.8-69.5,1.4-78.5-4.6"/>
		<path class="st2" d="M199.1,138c-2.9,2.5-18.7,12-31.7,14.5"/>
		<path class="st2" d="M69.3,149.1c-0.5,1.6-1.1,2.8-1.1,4.6"/>
		<path class="st2" d="M79.2,151.1c-0.7,1.5-0.9,3.4-0.9,5.1"/>
		<path class="st2" d="M173.9,140.8c0.7,1.5,0.9,3.4,0.9,5.1"/>
		<path class="st2" d="M177.9,138.8c0.7,1.5,0.9,3.4,0.9,5.1"/>
		<line class="st2" x1="91.1" y1="152.6" x2="90.4" y2="156.6"/>
		<polyline class="st2" points="99.4,153.7 99.4,154.4 99.4,154.8 99.4,155.5 99.4,155.9 99.4,156.3 99.4,156.8 		"/>
		<polyline class="st2" points="94.8,153.9 94.8,154.4 94.8,154.8 94.8,155.2 94.8,155.7 94.8,156.1 		"/>
		<polyline class="st2" points="127.6,152.6 127.6,153 127.6,153.5 127.6,154.4 127.6,154.8 		"/>
		<polyline class="st2" points="130.9,152.6 130.9,153.3 130.9,153.9 130.9,154.4 		"/>
		<path class="st9" d="M39.1,59.1c-3.7,6.7,0.5,26.8,3.3,28.9c2.2,1.6,17-9.6,21.3-16.7c1.1-1.9,6.8-14.1,4.7-16.2
			c-1.2-1.2-17.2,1-19.7,1.5C45.4,57.3,40.6,56.4,39.1,59.1z"/>
		<path class="st0" d="M40,55.8c-5.3,13.8,16.6,12.3,20.6,1.9"/>
		<polyline class="st12" points="73.9,55 56.7,55.3 27.8,55.8 		"/>
		<path class="st11" d="M39.3,59.4c-1.7,8.5,21.6,9.2,21.6-1.5"/>
		<path class="st13" d="M50.1,58.2c0-2.1,1.7-3.8,3.8-3.8c2.1,0,3.8,1.7,3.8,3.8c0,2.1-1.7,3.8-3.8,3.8C51.8,62,50.1,60.3,50.1,58.2
			z"/>
		<path class="st9" d="M118.6,98.6c0.8,27.6,41.3,42.3,46,35.4c3-4.4,9.1-25.1,1.1-39c-0.8-1.4-9.6,1.6-11,1.8
			C142.9,98.7,118.2,86.6,118.6,98.6z"/>
		<path class="st0" d="M131.3,99.7c0,2.5,0.5,4.2,1.4,5.4c2.6,3.3,8.3,1.5,14,0.5c6.2-1.1,7.6-4.9,8.8-7.2"/>
		<line class="st12" x1="116.2" y1="96.6" x2="169.4" y2="95.6"/>
		<path class="st11" d="M129.2,100.2c3.9,11.8,24.6,8.1,25-1.5"/>
		<path class="st13" d="M143.5,98.6c0-2.1,1.7-3.8,3.8-3.8c2.1,0,3.8,1.7,3.8,3.8s-1.7,3.8-3.8,3.8
			C145.2,102.4,143.5,100.7,143.5,98.6z"/>
		<path class="st13" d="M138.3,102.8c-0.3,0-0.6-0.1-0.9-0.1"/>
		<path class="st1" d="M32.7,241.9c-0.5,0.8-2.1,4.7-3.2,4.6c-1.2,0-3.6-1.4-4.7-1.9c-4.6-2-9.3-1.8-13.9-0.2
			c-1.3,0.5-2.4,1.1-2.5,2.7c-0.5,6.9,16.4-0.5,19.2,3.3c0.4,0.6-4.2,1.8-4.5,1.9c-2.3,0.9-11.5,5.9-9.2,10c1.8,3.3,7.3-0.1,9.3-1.5
			c0.2-0.1,2.6-2.2,2.7-2.1c0.1,0.1-7.2,10.2-0.8,13c2.1,0.9,5.2,0.5,6.3-1.9c0.9-2,1.3-4.5,1.6-6.6c0.1-0.4,0.2-1.3,0.2-1.3
			s0.7,1.1,1,1.7c1.6,2.3,5.6,4.7,8.4,3.2c5.4-2.9-8.7-11.9-2.2-17.9c0.5-0.5,1.6-2.1,2.3-2.2"/>
		<path class="st2" d="M32.7,242c-0.5,0.8-2.1,4.7-3.2,4.6c-1.2,0-3.6-1.4-4.7-1.9c-4.6-2-9.3-1.8-13.9-0.2
			c-1.3,0.5-2.4,1.1-2.5,2.7c-0.5,6.9,16.4-0.5,19.2,3.3c0.4,0.6-4.2,1.8-4.5,1.9c-2.3,0.9-11.5,5.9-9.2,10c1.8,3.3,7.3-0.1,9.3-1.5
			c0.2-0.1,2.6-2.2,2.7-2.1c0.1,0.2-7.2,10.2-0.8,13c2.1,0.9,5.2,0.5,6.3-1.9c0.9-2,1.3-4.5,1.6-6.7c0.1-0.4,0.2-1.3,0.2-1.3
			s0.7,1.1,1,1.7c1.6,2.3,5.6,4.7,8.4,3.2c5.4-2.9-8.7-11.9-2.2-17.9c0.5-0.5,1.6-2.1,2.3-2.2"/>
		<path class="st1" d="M226.1,253.5c0.9,1.8,1.4,5.1,3.8,5.7c2.1,0.5,17-9.6,19.4-0.3c2.6,10.5-14,3.9-16.4,5.5
			c-1.4,0.9,2.2,3.8,2.7,4.9c1.2,2.5,1.7,6.1,0.8,8.7c-0.9,2.6-3.3,2.1-4.9,0.5c-1.9-2-1.2-5.2-1.4-5.2c0,0-1,3.7-1.6,5.7
			c-1.6,4.9-4.7,11.9-10.4,8.5c-2.1-1.3-0.6-6.9-0.3-8.7c1.4-7.4,1.3-23.2,1.3-23.2"/>
		<path class="st2" d="M226.1,253.5c0.9,1.8,1.4,5.1,3.8,5.7c2.1,0.5,17-9.6,19.4-0.3c2.6,10.5-14,3.9-16.4,5.5
			c-1.4,0.9,2.2,3.8,2.7,4.9c1.2,2.5,1.7,6.1,0.8,8.7c-0.9,2.6-3.3,2.1-4.9,0.5c-1.9-1.9-1.2-5.2-1.4-5.2c0,0-1,3.7-1.6,5.7
			c-1.6,4.9-4.7,11.9-10.4,8.5c-2.1-1.3-0.6-6.9-0.3-8.7c1.4-7.4,1.3-23.2,1.3-23.2"/>
		<path class="st7" d="M174.7,140.2c8.2,29.3,26.6,111.5-12.1,121.1c-3.1,0.8,11.6-1.6,14.5-1.1c8.5,1.4,16.3-0.6,24.8-2.2
			c4.2-0.8,9.1-0.6,13.1-1.9c1.9-0.6,13.2-2.8,13.6-4.4c2.3-9.1-2.2-22.2-4.4-30.8c-1.8-7.3-3-12.2-5.7-19.1c-2-5-5-11.7-6-16.9
			c-1.3-6.4-4.6-12.3-5.7-18.8c-1.5-8.8-5.2-17.1-7.4-25.6c-0.7-3,0.7-6.4-1.9-9C194,127.9,174.4,138.9,174.7,140.2z"/>
		<path class="st2" d="M138.2,319.5c19.3,1.2,56,1.7,72.1,1.7"/>
		<g>
			<g>
				<path class="st13" d="M74.9,183.5c6.8,0.2,13.2,0.2,19.6,0.4c5.2,0.2,7.4,3.6,6.8,6.8c-0.8,4.5-4.8,7.5-10.5,8.9
					c-0.3,0.1-0.6,0.1-1.2,0.2c4.5,3,2.9,8.6,7.7,13.7c-4.7-0.3-9-0.5-13.3-0.7c-2.3-3.2-3.2-6.4-3.6-9.5c-0.2-1.7-0.7-3-3.8-2.6
					c-2.4,3.8-4.4,7.6-4.4,11.7c-3.7-0.1-6.9-0.2-10-0.2C64.5,201.2,73.7,194.6,74.9,183.5z M83.4,189.3c-0.7,1.9-1.7,3.6-3,5.8
					c2.2,0,4.2,0,6.4-0.1c1.9-0.1,3.5-1.2,4.2-2.6c0.7-1.5,0.1-2.7-1.7-2.9C87.4,189.2,85.4,189.3,83.4,189.3z"/>
				<path class="st13" d="M130.1,192.8c-3,0.1-5.8,0.2-8.9,0.3c0.1-2.7-1.4-4.1-4-4.2c-1.6-0.1-3,0.4-3.9,2.2
					c-0.2,1.5,0.7,2,1.8,2.4c2.1,0.6,4.3,1.2,6.3,1.9c1.2,0.4,2.3,0.9,3.3,1.4c6.6,3.6,4.3,12-0.5,15.7c-1.6,1.2-3.7,2-6,2.3
					c-3.7,0.5-8,0.2-12.4-1c-5.8-1.5-9.5-5.4-7.8-10.3c3.3,0,6.5,0,9.9,0c0,0.6,0.1,1.2,0.2,1.7c0.6,2.9,4.2,4.4,7.5,3.4
					c1.5-0.4,2.5-1.3,2.8-2.7c0.2-1.3-0.4-2.3-1.5-2.8c-1-0.5-2.1-0.8-3.1-1.1c-2.2-0.8-4.4-1.4-6.4-2.3c-3.8-1.8-4.5-4.7-3.3-8.1
					c1.3-3.8,3.6-6.9,7.5-8.1c3.7-1.2,7.6-1.3,11.8,0C127.9,185.1,130.4,188,130.1,192.8z"/>
			</g>
		</g>
	</g>
	<g>
		<path d="M10.1,222.9c0.1-0.2,0.2-0.3,0.3-0.4c0.1-0.1,0.2-0.2,0.4-0.2c0.1,0,0.3-0.1,0.4-0.1s0.3,0,0.4,0.1l9.3,4.3
			c0.1,0.1,0.3,0.2,0.4,0.3c0.1,0.1,0.2,0.2,0.2,0.4c0.1,0.1,0.1,0.3,0.1,0.4c0,0.2,0,0.3-0.1,0.5c-0.1,0.1-0.2,0.3-0.3,0.4
			c-0.1,0.1-0.2,0.2-0.4,0.2s-0.3,0.1-0.4,0.1c-0.2,0-0.3,0-0.4-0.1l-3.6-1.7l-0.9,2c-0.2,0.5-0.2,1,0.2,1.5l2.5,3.3
			c0.3,0.4,0.4,0.8,0.2,1.3c-0.1,0.2-0.2,0.3-0.3,0.4c-0.1,0.1-0.2,0.2-0.4,0.2c-0.1,0-0.3,0.1-0.4,0.1c-0.2,0-0.3,0-0.4-0.1
			c-0.2-0.1-0.4-0.2-0.5-0.4l-2.5-3.3c-0.1-0.1-0.2-0.2-0.2-0.4c-0.3,0.1-0.6,0.2-0.9,0.3c-0.3,0.1-0.6,0.1-0.8,0.1
			c-0.3,0-0.5,0-0.8-0.1s-0.5-0.1-0.8-0.3c-0.5-0.2-0.9-0.5-1.2-0.9c-0.3-0.4-0.6-0.8-0.7-1.2c-0.2-0.4-0.2-0.9-0.2-1.4
			c0-0.5,0.1-1,0.3-1.4L10.1,222.9z M14.3,226.1l-2.5-1.2l-1.3,2.8c-0.1,0.2-0.1,0.4-0.1,0.6s0,0.4,0.1,0.5c0.1,0.2,0.2,0.3,0.3,0.4
			c0.1,0.1,0.3,0.2,0.4,0.3c0.2,0.1,0.3,0.1,0.5,0.1c0.2,0,0.4,0,0.5-0.1c0.2-0.1,0.3-0.2,0.5-0.3c0.1-0.1,0.2-0.3,0.3-0.4
			L14.3,226.1z"/>
		<path d="M32.3,203.1c0.3,0.1,0.5,0.4,0.6,0.7c0.1,0.3,0.1,0.6,0,0.9c-0.1,0.3-0.4,0.5-0.7,0.6c-0.3,0.1-0.6,0.1-0.9,0l-5.8-2.6
			c-0.3-0.1-0.7-0.2-1-0.2c-0.3,0-0.7,0.1-1,0.2c-0.3,0.1-0.6,0.3-0.9,0.5c-0.3,0.2-0.5,0.5-0.6,0.9c-0.2,0.3-0.2,0.7-0.2,1
			c0,0.4,0.1,0.7,0.2,1c0.1,0.3,0.3,0.6,0.5,0.9c0.2,0.3,0.5,0.5,0.9,0.6l5.8,2.6c0.3,0.1,0.5,0.4,0.6,0.7c0.1,0.3,0.1,0.6,0,0.9
			c-0.1,0.3-0.4,0.5-0.7,0.6c-0.3,0.1-0.6,0.1-0.9,0l-5.8-2.6c-0.3-0.2-0.7-0.2-1-0.2c-0.4,0-0.7,0.1-1,0.2s-0.6,0.3-0.9,0.5
			c-0.3,0.2-0.5,0.5-0.6,0.9c-0.1,0.3-0.2,0.7-0.2,1c0,0.4,0.1,0.7,0.2,1s0.3,0.6,0.5,0.9c0.2,0.3,0.5,0.5,0.9,0.6l5.8,2.6
			c0.3,0.1,0.5,0.4,0.6,0.7c0.1,0.3,0.1,0.6,0,0.9c-0.1,0.3-0.4,0.5-0.7,0.6c-0.3,0.1-0.6,0.1-0.9,0l-9.3-4.2
			c-0.3-0.1-0.5-0.3-0.6-0.7c-0.1-0.3-0.1-0.6,0-0.9c0.1-0.2,0.3-0.4,0.5-0.5c0.2-0.1,0.4-0.2,0.7-0.1c-0.2-0.9,0-1.9,0.4-2.8
			c0.3-0.7,0.7-1.3,1.3-1.7c0.5-0.5,1.2-0.8,1.9-1c-0.7-1.4-0.7-2.8-0.1-4.2c0.3-0.6,0.7-1.2,1.2-1.6c0.5-0.4,1-0.8,1.6-1
			c0.6-0.2,1.2-0.3,1.9-0.3c0.7,0,1.3,0.2,1.9,0.4L32.3,203.1z"/>
		<path d="M36.7,190.9l-0.2-0.1c0.2,0.7,0.4,1.4,0.4,2.1c0,0.7-0.1,1.4-0.4,2.1c-0.6,1.6-1.7,2.8-3.2,3.6c-1.6,0.7-3.2,0.8-4.8,0.2
			c-1.6-0.6-2.8-1.7-3.6-3.2c-0.7-1.6-0.8-3.2-0.2-4.8c0.6-1.6,1.7-2.8,3.2-3.6c1.6-0.7,3.2-0.8,4.8-0.2l4.8,1.7
			c0.3,0.1,0.5,0.3,0.7,0.6c0.1,0.3,0.2,0.6,0,0.9c-0.1,0.3-0.3,0.5-0.6,0.7C37.3,191,37,191,36.7,190.9z M26.9,191.6
			c-0.2,0.5-0.3,1-0.2,1.6c0,0.5,0.2,1,0.4,1.5c0.2,0.5,0.5,0.9,0.9,1.2c0.4,0.4,0.8,0.6,1.3,0.8c0.5,0.2,1,0.3,1.5,0.2
			c0.5,0,1-0.2,1.5-0.4c0.5-0.2,0.9-0.5,1.2-0.9c0.4-0.4,0.6-0.8,0.8-1.4c0.2-0.5,0.3-1,0.2-1.6c0-0.5-0.2-1-0.4-1.5
			c-0.2-0.5-0.5-0.9-0.9-1.2c-0.4-0.4-0.8-0.6-1.3-0.8c-0.5-0.2-1-0.3-1.5-0.2c-0.5,0-1,0.2-1.5,0.4c-0.5,0.2-0.9,0.5-1.2,0.9
			C27.3,190.6,27.1,191,26.9,191.6z"/>
		<path d="M28.3,183.6c-0.2,0-0.3-0.1-0.4-0.2c-0.1-0.1-0.2-0.2-0.3-0.3c-0.1-0.1-0.1-0.3-0.1-0.4c0-0.2,0-0.3,0-0.5
			c0-0.2,0.1-0.3,0.2-0.4c0.1-0.1,0.2-0.2,0.3-0.3c0.1-0.1,0.3-0.1,0.4-0.1c0.2,0,0.3,0,0.5,0l3.8,1.1l-3.2-6.8
			c-0.1-0.3-0.2-0.5-0.1-0.8c0-0.2,0.1-0.3,0.2-0.4s0.2-0.2,0.3-0.3c0.1-0.1,0.3-0.1,0.4-0.1c0.2,0,0.3,0,0.5,0
			c0.3,0.1,0.5,0.3,0.7,0.6l2.8,6l5.5-3.7c0.3-0.2,0.6-0.2,0.9-0.1c0.2,0,0.3,0.1,0.4,0.2c0.1,0.1,0.2,0.2,0.3,0.3
			c0.1,0.1,0.1,0.3,0.1,0.4c0,0.2,0,0.3,0,0.5c-0.1,0.3-0.2,0.5-0.5,0.7l-5.7,3.9l0.3,0.6l3.1,0.8c0.2,0,0.3,0.1,0.4,0.2
			c0.1,0.1,0.2,0.2,0.3,0.3c0.1,0.1,0.1,0.3,0.1,0.4c0,0.2,0,0.3,0,0.5c0,0.2-0.1,0.3-0.2,0.4c-0.1,0.1-0.2,0.2-0.3,0.3
			s-0.3,0.1-0.4,0.1c-0.2,0-0.3,0-0.5,0L28.3,183.6z"/>
		<path d="M32.3,160.8c0.1-0.5,0.2-1,0.5-1.4c0.3-0.4,0.6-0.8,1-1.1c0.4-0.3,0.8-0.5,1.3-0.6s1-0.2,1.5-0.1c0.8,0.1,1.5,0.4,2,0.9
			c0.3-0.2,0.5-0.4,0.8-0.5c0.2-0.2,0.5-0.3,0.8-0.4c0.3-0.1,0.5-0.1,0.8-0.2c0.3,0,0.6,0,0.9,0c0.5,0.1,1,0.2,1.4,0.5
			c0.4,0.3,0.8,0.6,1.1,1c0.3,0.4,0.5,0.8,0.6,1.3c0.1,0.5,0.2,1,0.1,1.5l-0.8,5.1c0,0.2-0.1,0.3-0.2,0.4c-0.1,0.1-0.2,0.2-0.3,0.3
			c-0.1,0.1-0.3,0.2-0.4,0.2c-0.1,0-0.3,0-0.5,0l-10.1-1.5c-0.2,0-0.3-0.1-0.4-0.2c-0.1-0.1-0.2-0.2-0.3-0.3
			c-0.1-0.1-0.2-0.3-0.2-0.4c0-0.1,0-0.3,0-0.5L32.3,160.8z M37.4,161.6c0-0.2,0-0.4,0-0.5c0-0.2-0.1-0.3-0.2-0.5
			c-0.1-0.1-0.2-0.3-0.4-0.4c-0.2-0.1-0.3-0.2-0.5-0.2c-0.2,0-0.4,0-0.5,0c-0.2,0-0.3,0.1-0.5,0.2c-0.1,0.1-0.3,0.2-0.4,0.4
			s-0.2,0.3-0.2,0.5l-0.5,3.1l2.7,0.4L37.4,161.6z M42.6,161.5c0-0.2,0-0.4,0-0.5c0-0.2-0.1-0.3-0.2-0.5c-0.1-0.1-0.2-0.3-0.4-0.4
			c-0.2-0.1-0.3-0.2-0.5-0.2c-0.2,0-0.4,0-0.6,0c-0.2,0-0.3,0.1-0.5,0.2c-0.1,0.1-0.3,0.2-0.4,0.4c-0.1,0.2-0.2,0.3-0.2,0.5
			l-0.6,3.9l2.7,0.4L42.6,161.5z"/>
		<path d="M46.3,145c0,0.3-0.1,0.6-0.4,0.8c-0.2,0.2-0.5,0.3-0.8,0.3c0.4,0.5,0.6,1.1,0.8,1.7c0.2,0.6,0.2,1.2,0.2,1.9
			c0,0.8-0.2,1.5-0.6,2.2s-0.8,1.3-1.4,1.8c-0.6,0.5-1.2,0.9-1.9,1.2c-0.7,0.3-1.5,0.4-2.3,0.3l-5.5-0.3c-0.3,0-0.6-0.1-0.8-0.4
			c-0.2-0.2-0.3-0.5-0.3-0.9c0-0.3,0.1-0.6,0.4-0.8c0.2-0.2,0.5-0.3,0.8-0.3l5.5,0.3c0.5,0,0.9,0,1.4-0.2c0.4-0.2,0.8-0.4,1.2-0.7
			s0.6-0.7,0.8-1.1c0.2-0.4,0.3-0.9,0.3-1.4c0-0.5,0-0.9-0.2-1.4s-0.4-0.8-0.7-1.2c-0.3-0.3-0.7-0.6-1.1-0.8
			c-0.4-0.2-0.9-0.3-1.3-0.3l-5.5-0.3c-0.3,0-0.6-0.1-0.8-0.4c-0.2-0.2-0.3-0.5-0.3-0.9c0-0.3,0.1-0.6,0.4-0.8
			c0.2-0.2,0.5-0.3,0.8-0.3l10.2,0.5c0.3,0,0.6,0.1,0.8,0.4C46.2,144.4,46.3,144.6,46.3,145z"/>
		<path d="M38.5,133.5l-4,0.3c-0.2,0-0.3,0-0.5-0.1s-0.3-0.1-0.4-0.2c-0.1-0.1-0.2-0.2-0.3-0.4c-0.1-0.1-0.1-0.3-0.1-0.5
			c0-0.2,0-0.3,0.1-0.5c0-0.1,0.1-0.3,0.2-0.4s0.2-0.2,0.4-0.3c0.1-0.1,0.3-0.1,0.4-0.1l4-0.3l-5.3-5.3c-0.2-0.2-0.3-0.4-0.4-0.7
			c0-0.2,0-0.3,0.1-0.5c0-0.1,0.1-0.3,0.2-0.4c0.1-0.1,0.2-0.2,0.4-0.3c0.1-0.1,0.3-0.1,0.4-0.1c0.3,0,0.6,0.1,0.9,0.3l4.6,4.7
			l3.9-5.4c0.2-0.2,0.5-0.4,0.8-0.4c0.2,0,0.3,0,0.5,0.1c0.1,0,0.3,0.1,0.4,0.2c0.1,0.1,0.2,0.2,0.3,0.3c0.1,0.1,0.1,0.3,0.1,0.5
			c0,0.3,0,0.6-0.2,0.8l-4.1,5.6l0.5,0.4l3.2-0.3c0.2,0,0.3,0,0.5,0.1c0.1,0,0.3,0.1,0.4,0.2c0.1,0.1,0.2,0.2,0.3,0.3
			c0.1,0.1,0.1,0.3,0.1,0.5c0,0.2,0,0.3-0.1,0.5c0,0.1-0.1,0.3-0.2,0.4c-0.1,0.1-0.2,0.2-0.4,0.3c-0.1,0.1-0.3,0.1-0.4,0.1l-3.2,0.3
			l-0.4,0.5l4.9,4.9c0.2,0.2,0.3,0.5,0.3,0.7c0,0.2,0,0.3-0.1,0.5c0,0.1-0.1,0.3-0.2,0.4c-0.1,0.1-0.2,0.2-0.4,0.3
			c-0.1,0.1-0.3,0.1-0.4,0.1c-0.4,0-0.6-0.1-0.9-0.3l-4.7-4.7l-3.8,5.3c-0.2,0.3-0.5,0.4-0.8,0.4c-0.2,0-0.3,0-0.5-0.1
			c-0.1,0-0.3-0.1-0.4-0.2c-0.1-0.1-0.2-0.2-0.3-0.3c-0.1-0.1-0.1-0.3-0.1-0.5c0-0.3,0.1-0.6,0.2-0.8L38.5,133.5z"/>
		<path d="M42.4,115.9l-8.7,6c-0.2,0.1-0.3,0.2-0.5,0.2c-0.2,0-0.3,0-0.5,0c-0.2,0-0.3-0.1-0.4-0.2c-0.1-0.1-0.2-0.2-0.3-0.3
			c-0.1-0.1-0.1-0.3-0.2-0.4c0-0.2,0-0.5,0.1-0.7c0.1-0.2,0.2-0.4,0.5-0.6l6.7-4.7l-8.1-1.5c-0.2,0-0.4-0.1-0.6-0.3
			c-0.2-0.1-0.3-0.4-0.4-0.7c0-0.2,0-0.3,0-0.5c0-0.2,0.1-0.3,0.2-0.4c0.1-0.1,0.2-0.2,0.3-0.3c0.1-0.1,0.3-0.2,0.4-0.2
			c0.2,0,0.3,0,0.5,0l16.5,3.1c0.2,0,0.5,0.2,0.6,0.3c0.2,0.2,0.3,0.4,0.4,0.6c0.1,0.3,0,0.6-0.2,0.9c-0.2,0.3-0.4,0.4-0.8,0.5
			c-0.2,0-0.4,0-0.5,0L42.4,115.9z"/>
		<path d="M39.1,104.4c0.4-0.1,0.8-0.1,1.2,0.1c0.4,0.2,0.6,0.5,0.8,1c0.1,0.4,0.1,0.8-0.1,1.2c-0.2,0.4-0.5,0.6-1,0.8
			s-0.8,0.1-1.2-0.1c-0.4-0.2-0.6-0.5-0.8-1c-0.1-0.4-0.1-0.8,0.1-1.2S38.7,104.5,39.1,104.4z"/>
		<path d="M37.7,99.8c0.4-0.1,0.8-0.1,1.2,0.1c0.4,0.2,0.7,0.5,0.8,0.9c0.1,0.4,0.1,0.8-0.1,1.2c-0.2,0.4-0.5,0.7-0.9,0.8
			c-0.4,0.1-0.8,0.1-1.2-0.1c-0.4-0.2-0.7-0.5-0.8-0.9c-0.1-0.4-0.1-0.8,0.1-1.2C36.9,100.2,37.2,100,37.7,99.8z"/>
		<path d="M36.1,95.3c0.4-0.1,0.8-0.1,1.2,0.1c0.4,0.2,0.7,0.5,0.8,0.9c0.1,0.4,0.1,0.8-0.1,1.2c-0.2,0.4-0.5,0.7-0.9,0.8
			c-0.4,0.1-0.8,0.1-1.2-0.1c-0.4-0.2-0.7-0.5-0.8-0.9C35,97,35,96.6,35.2,96.2C35.4,95.8,35.7,95.5,36.1,95.3z"/>
		<path d="M34.4,90.9c0.4-0.2,0.8-0.1,1.2,0c0.4,0.2,0.7,0.5,0.8,0.9c0.2,0.4,0.1,0.8,0,1.2c-0.2,0.4-0.5,0.7-0.9,0.8
			c-0.4,0.2-0.8,0.1-1.2,0c-0.4-0.2-0.7-0.5-0.8-0.9c-0.2-0.4-0.1-0.8,0-1.2C33.7,91.3,34,91.1,34.4,90.9z"/>
	</g>
</g>
</svg>
