<svg width="374" height="328" viewBox="0 0 374 328" fill="none" xmlns="http://www.w3.org/2000/svg">
<g clip-path="url(#clip0_281_963)">
<path d="M146 276.7C147.3 272 136.1 262.1 132.2 258.8C118.5 247 101.1 240.4 83.7 236.7C79.9 235.9 74 240.3 67.1 248.3C60.3 256.3 55.5 246.8 47 245.5C41.8 244.8 28 234.2 25.8 229.7C24.5 227.1 22.4 224.7 23.7 221.5C25.3 217.5 26.5 215.8 29.3 213C34.1 208.2 38.3 207.2 44.3 204.2C54.8 198.9 72.5 191.7 84.6 196.3C91.1 198.7 97.8 200.3 103.4 204.5C104.9 205.6 107.9 210.6 109.8 210.6C118.8 210.6 128.6 209.6 137.4 208.2C140.3 207.7 143.9 206.8 146.5 205.5C147.6 204.9 148.7 204.5 149.8 204C150.2 203.8 150.6 202.7 150.7 203.1C151.4 205.1 150.5 216.8 150.1 219.5C149.6 222.7 149.9 231.2 149.5 234.4C148.3 243 148.6 248.7 148.6 257.5C148.6 263 147.1 264.5 147.1 269.9C147.1 271.7 146.8 273.1 146.5 274.8C146.4 274.9 145.8 277.4 146 276.7Z" fill="#FFDB1F"/>
<path d="M249.3 152.9C260.3 151.9 259.1 153.2 260 149.2C261.4 142.3 253.2 127.1 250.7 120.5C247.1 110.8 238.2 98.7001 233.3 89.5001C230.1 83.4001 224.4 76.1001 220.7 70.4001C218.2 66.5001 213.5 62.9001 210.4 59.5001C206.4 55.2001 199.9 52.3001 192.9 46.8001C185.9 41.3001 157.2 29.0001 150.1 27.1001C143.1 25.2001 126.2 25.3001 117.8 25.2001C109.4 25.2001 101.6 24.3001 98.2 24.9001C92.8 25.8001 101.6 27.6001 98.5 29.4001C95.9 30.9001 93.6 31.4001 90.9 31.0001C84 30.0001 76.4 31.0001 69.4 31.0001C68.7 31.0001 62.8 30.7001 62.8 30.3001C62.8 29.3001 64.8 30.9001 65.4 31.6001C66.3 32.7001 69.3 39.4001 68.1 39.8001C67.4 40.0001 62.1 40.8001 59.8 41.2001C55.9 41.9001 53.9 45.8001 50.5 46.5001C48.8 46.8001 43.4 50.1001 42.6 51.8001C42.5 52.0001 42.1 52.3001 42.3 52.5001C42.5 52.7001 43 52.6001 43.3 52.5001C44.1 52.3001 57.7 50.5001 54.2 52.2001C48.5 55.0001 46.9 58.0001 43.6 60.5001C41.6 62.0001 36.8 65.8001 35.3 67.7001C35.1 67.9001 35.4 70.4001 35.6 70.4001C36.5 70.7001 47.1 65.3001 48.5 64.8001C49 64.6001 46.5 66.9001 46.7 67.4001C47.1 68.1001 48.7 66.7001 48.5 66.8001C45.9 68.1001 41.1 71.9001 39.6 74.4001C38.3 76.5001 34.2 82.1001 33.4 83.8001C32.7 85.5001 35.9 83.6001 36.6 83.6001C38 83.6001 46.6 77.2001 48.2 76.0001C48.9 75.5001 51.5 72.1001 52.8 73.0001C53 73.1001 45.2 85.2001 43.9 88.6001C40.5 97.4001 40 104.9 38.7 113.7C37.6 121.5 39.2 132.3 41.2 139.8C43.7 149.3 49.6 159.8 54 168.6C56.7 174 60.3 178.5 62.5 184C63.3 185.9 65.2 190.3 65.2 195.3C72.9 193.5 84.4 195.3 89 196.8C93.3 198.2 101.2 202.7 108.3 208.4C117.7 210.3 145 208.6 151.1 200.5C153.3 197.5 151.8 192.5 151.4 189.3C150.7 183.8 152.3 178.7 153.1 173.4C153.8 168.3 153 163.6 155.4 158.8C156.6 156.3 158.4 154.4 161.5 153.8C170.7 152 181.9 150.5 191.1 151.2C197.2 151.7 203.8 151.9 210 151.9C212.3 151.9 215.4 151.4 217.6 151.9C220.2 152.5 224.2 150.9 226.7 151.8C230.7 153.1 232.9 153.4 236.8 152.9C240.1 152.5 243.3 153.7 246.4 153.2C247 153.1 258.7 151.6 259.1 151.7C259.4 152.1 238.3 153.9 249.3 152.9Z" fill="#CAA77A"/>
<path d="M132.7 259.8C130.2 260.1 129.1 262 127.4 263.4C126.5 264.1 125.2 264.2 124.4 265.1C122.3 267.4 120.2 271.5 119.4 274.6C119.2 275.3 118.1 281.4 118 281.5C116.8 282.3 113.6 281.2 112.2 281.4C105.3 282.3 98 281 91 281.7C81.4 282.6 72.5 285.1 63.2 284.8C57.7 284.6 51.8 285.9 46.2 286.2C42.2 286.4 26.8 286.5 18.5 283.8C9.10001 280.7 4.90001 277.5 2.60001 267.4C2.20001 265.8 2.20001 262.8 2.20001 261C2.30001 256.8 4.60001 251 7.10001 247.7C8.60001 245.8 8.70001 243.2 10.5 241.3C12.7 239 15.2 236.7 17.2 234.2C18.9 232 22.9 226.1 26 226.3C28.6 226.5 45.9 223 66.2 236C73 240.4 68 235.8 72.8 235.7C76.1 235.6 79.4 235.6 82.7 236.2C102.5 239.9 113.5 245.5 122.6 251C123.9 251.8 135.5 258 132.4 261C131.4 262 128.6 262.2 127.2 262.8" fill="#CAA77A"/>
<path d="M362.2 153.2C374.7 153.2 371.9 180.7 371.3 188.7C370.8 195.6 370 202.5 369.2 209.3C368.8 212.4 369.6 215.6 369.2 218.7C367.7 229.4 370.4 239.4 368.6 250C366.8 260.6 368.5 272.4 366.7 283C365.6 289.5 366.4 296.4 366.4 303C366.4 306 363.9 311.6 361.6 313.9C355.5 320 353.7 317.7 346.1 318.8C335.2 320.4 322.6 321.1 311.5 320C307.6 319.6 303.3 319.1 299.4 319.4C296.6 319.6 293.6 320.5 290.9 320.9C284.6 321.8 278.1 321.5 271.8 322.4C268.3 322.9 264.5 321.8 261 322.3C253.8 323.2 246 322.9 238.8 322.9C231.9 322.9 225.9 324.9 219 324.9C216.8 324.9 214.3 325.7 212 325.2C206.5 324.1 200.5 324.2 195 323.1C193.9 322.9 195.8 327.4 190.2 325.3C184.7 323.2 184.1 325.4 181.9 325.4C177.2 325.4 174.4 325.3 169.6 326C167.3 326.3 166.5 327.3 162 326.4C157.5 325.5 157.9 324.4 154.5 325.1C150.6 325.9 150.1 324 145.5 323.1C139.4 321.9 133 319.1 128.5 315.3C124.1 311.6 117.5 306.8 112.9 303.3C106 298 93.6 290 88.5 283.1C87.3 281.5 93.6 281.8 91.9 281.8C91.6 281.8 91.1 281.8 91 281.5C90.7 281 92.2 281.2 92.8 281.2C94.6 281.2 96.2 281.8 98 281.8C102.5 281.8 107.2 281.5 111.7 282.1C112.9 282.3 116.1 283.1 117.2 282.1C119 280.3 118.4 275.1 119.3 272.4C120.8 268 124.8 266.2 126.9 262.7C127.6 261.6 132.9 260.3 134.7 261.1C139.7 263.2 141.3 268.7 143.9 273C145 274.8 145.7 276.8 146.6 278.8C146.7 279 146.7 279.5 146.9 279.4C148.5 278.9 147.9 273.3 148.1 272.1C149.4 265.6 147.9 258.6 149 252.1C150.3 244.1 152 234.6 150.8 226.3C150.1 221.7 148.4 215.5 149.3 210.8C150.3 205.7 151.9 200.6 152.6 195.3C153.1 191.7 151.1 187.4 151.6 183.8C152.7 176.1 149.6 167 153.2 159.8C158.8 148.5 172.5 150.4 182.9 151C188.3 151.3 195.5 153.7 200.8 153C205.2 152.4 211.5 151.9 215.9 152.4C222.1 153.2 227.1 152.3 233.3 152.3C253 152.3 271.6 154.5 291.6 152.9C296 152.5 300.5 151.6 304.9 151.1C311.1 150.4 317.5 151.5 323.7 151.1C329.9 150.7 336.7 150.2 342.8 151.1C351.2 152.3 368.8 149.6 370.8 160C371.3 162.7 371.5 165.2 370.1 168.1" fill="#D2D2D2"/>
<path d="M209.5 151.8C217.3 150 219.9 100.3 192.6 77.4001C189.6 74.9001 172.8 56.9001 139.6 71.5001C134.1 73.9001 124.3 82.1001 118.5 83.5001C112.8 84.9001 108.2 86.3001 100.8 84.5001C104.7 89.6001 104.2 91.1001 102.8 92.3001C96.1 97.9001 74.4 93.8001 61.1 103C45.9 113.5 49.5 136.2 52.7 149.3C64 196.2 104.4 197.4 117.6 198.8C124 199.4 148.3 195.6 150.1 193.3C151.5 191.5 151.3 182.7 150.9 180.6C149.8 174 153.3 155.4 160.9 153.5C166.2 152.2 172.5 152.9 178 152.9C185 152.9 192 152.4 199 151.6C201.3 151.2 198.3 154.3 209.5 151.8Z" fill="#FFDBAF"/>
<path d="M130.2 118.4C146.4 116.4 166.1 133 162.8 146C159.5 159 140 167.3 129.4 168.7C90.4 173.9 97.1 136.8 104 130.3C105.6 128.8 108.4 125.6 110.7 125.3" fill="#9D7B51"/>
<path d="M141.5 99.0001C159.5 142.1 214.7 132.1 214.6 129.9C214.3 101.8 200.7 83.7001 193.9 76.8001C192.9 75.8001 181.3 83.1001 179.2 83.4001C175.8 83.8001 172.2 85.1001 168.8 86.1001C162.4 87.8001 156.2 88.4001 150 90.8001C147.9 91.6001 142 93.2001 140.9 95.4001C140.4 96.2001 141.1 98.1001 141.5 99.0001Z" fill="#9D7B51"/>
<path d="M99.8 111.2C99.2 111.2 98.8 112 98.8 112.5C98.6 114.5 106 163 62.1 171.7C61.8 171.8 46.1 149.1 49.9 125.1C51 118.4 64.2 121.1 70.6 119C74.8 117.6 78.2 115.3 82.9 114.7C86.9 114.2 90.3 112.4 94.3 111.9C95.8 111.8 100.4 111.2 99.8 111.2Z" fill="#9D7B51"/>
<path d="M192.2 81.1999C192.1 80.4999 192.5 82.1999 192.5 82.7999C192.6 84.0999 192.3 85.0999 191.9 86.3999C190.9 89.9999 189.2 93.3999 186.5 95.8999C182.3 99.7999 169.2 104.3 164.3 101.5C162.6 100.5 157.8 97.2999 158.1 94.7999C158.3 93.3999 162.9 91.8999 164.1 91.2999C167.2 89.5999 171.3 89.4999 174.7 88.5999C178.3 87.5999 181.8 85.6999 185.5 84.5999C187.4 83.8999 192.4 83.0999 192.2 81.1999Z" fill="#2D1F04"/>
<path d="M192.1 81.9C192.3 83.5 193.2 85.2 193 86.9C191.6 97.1 178.5 102.5 169.3 101.9C166.8 101.7 158.8 95.7 160.1 93.3C161 91.6 172.6 90 174.1 89.6C177.2 88.8 180.4 88.8 183.6 88.3C188.5 87.5 190.8 77.9 195.3 77.5" fill="white"/>
<path d="M86 116.2C88 114.8 87.9 123.6 86.5 125.4C82.6 130.2 62.2 140.1 58.5 130C58.2 129.1 56.9 127.3 57.8 126.2C60.9 122.3 66.4 123.2 70.8 121.6C74.3 120.3 78 119.2 81.6 117.9C83.8 117.1 83.8 117.8 86 116.2Z" fill="white"/>
<path d="M31.5 63.3001C30.6 63.4001 31.1 63.4001 30.2 63.1001Z" fill="white"/>
<path d="M45 220.9C45.1 220.6 45.3 220.4 45.4 220.1Z" fill="white"/>
<path d="M263.3 208.9C263.3 208.7 263.3 208.7 263.5 208.8Z" fill="#A6A6A6"/>
<path d="M51.6 73.3003C46.8 79.4003 43.9 88.2003 41.9 95.5003C27 148.5 69.9 182 64.8 195.4" stroke="#2D1F04" stroke-width="2.62" stroke-miterlimit="10" stroke-linecap="round" stroke-linejoin="round"/>
<path d="M51.1 73.4002C48.6 75.9002 33.1 86.0002 33.2 85.3002C35.6 73.2002 49.6 67.0002 49.6 66.5002C49.6 65.8002 34.5 69.9002 34.5 69.7002C35.5 62.3002 53.2 51.7002 53.2 51.7002C53.2 51.7002 40.4 54.6002 39.1 54.0002C38.9 53.9002 39.4 53.1002 39.6 52.9002C41.9 50.6002 61.9 39.7002 68 39.7002" stroke="#2D1F04" stroke-width="2.62" stroke-miterlimit="10" stroke-linecap="round" stroke-linejoin="round"/>
<path d="M67.9 39.1999C65.3 36.5999 63.3 27.5999 63.6 27.6999C78.6 34.8999 100.6 28.2999 100.6 28.2999C100.6 28.2999 94.5 25.5999 96 24.1999C96.3 23.8999 111.4 24.4999 112.8 24.5999C123.7 25.1999 134.1 24.1999 144.7 25.5999" stroke="#2D1F04" stroke-width="2.62" stroke-miterlimit="10" stroke-linecap="round" stroke-linejoin="round"/>
<path d="M138.1 25.3999C168.3 25.9999 204.2 48.6999 223.5 74.0999C242 98.2999 254.6 129.4 259.7 151.4" stroke="#2D1F04" stroke-width="2.62" stroke-miterlimit="10" stroke-linecap="round" stroke-linejoin="round"/>
<path d="M138.8 95.9999L217.8 71.3999" stroke="#2D1F04" stroke-width="7.6" stroke-miterlimit="10" stroke-linecap="round" stroke-linejoin="round"/>
<path d="M104 107.9L79.9 115.5L34.5 130.1" stroke="#2D1F04" stroke-width="7.6" stroke-miterlimit="10" stroke-linecap="round" stroke-linejoin="round"/>
<path d="M158.7 95.8001C169 111.3 196.6 97.2001 193.3 83.1001" stroke="#2D1F04" stroke-width="3.05" stroke-miterlimit="10" stroke-linecap="round" stroke-linejoin="round"/>
<path d="M57.1 128.7C58.1 141.7 91.3 132.9 86.9 117.4" stroke="#2D1F04" stroke-width="3.05" stroke-miterlimit="10" stroke-linecap="round" stroke-linejoin="round"/>
<path d="M104 127.9C103 124.4 109.3 119.6 118 117.3C126.7 115 134.5 115.9 135.5 119.4C136.5 122.9 130.2 127.7 121.5 130C112.7 132.3 104.9 131.4 104 127.9Z" fill="#251707"/>
<path d="M168.2 87.2999C168.4 86.9999 168.7 86.6999 168.9 86.3999" stroke="#2D1F04" stroke-width="3.05" stroke-miterlimit="10" stroke-linecap="round" stroke-linejoin="round"/>
<path d="M71.8 122.6C71 119.6 72.7 116.4 75.6 115.5C78.5 114.6 81.6 116.4 82.5 119.4C83.3 122.4 81.6 125.6 78.7 126.5C75.7 127.3 72.7 125.6 71.8 122.6Z" fill="#2D1F04"/>
<path d="M178.1 87.5C177.3 84.5 179 81.3 181.9 80.4C184.8 79.5 187.9 81.3 188.8 84.3C189.6 87.3 187.9 90.5 185 91.4C182 92.3 178.9 90.5 178.1 87.5Z" fill="#2D1F04"/>
<path d="M128.2 0.300109C128.2 0.200109 128.3 0.100109 128.4 0.100109C128.6 0.000108507 128.7 0.100109 128.7 0.100109C128.7 0.200109 128.6 0.300109 128.5 0.300109C128.4 0.400109 128.2 0.300109 128.2 0.300109Z" fill="#2D1F04"/>
<path d="M134 143.7C134 137.7 124.7 135.7 120.2 135.7" stroke="#2D1F04" stroke-width="3.05" stroke-miterlimit="10" stroke-linecap="round" stroke-linejoin="round"/>
<path d="M146.6 277.3C127.9 242.3 91.8 236 67 236" stroke="#2D1F04" stroke-width="2.62" stroke-miterlimit="10" stroke-linecap="round" stroke-linejoin="round"/>
<path d="M146.1 298C132.5 257.1 26.8 306.6 5.8 275.1C-3.3 261.5 5.3 244.9 23.5 225.6" stroke="#2D1F04" stroke-width="2.62" stroke-miterlimit="10" stroke-linecap="round" stroke-linejoin="round"/>
<path d="M133.3 260.6C127 260.6 118.9 273 118.9 278.6" stroke="#2D1F04" stroke-width="2.62" stroke-miterlimit="10" stroke-linecap="round" stroke-linejoin="round"/>
<path d="M124.1 268C137.2 272.4 142.5 281.3 146.6 288.8" stroke="#2D1F04" stroke-width="2.62" stroke-miterlimit="10" stroke-linecap="round" stroke-linejoin="round"/>
<path d="M121 235C104.5 175.9 45.4 191.8 24 218.9C19.6 224.5 28.7 226.1 28.7 226.1" stroke="#2D1F04" stroke-width="2.62" stroke-miterlimit="10" stroke-linecap="round" stroke-linejoin="round"/>
<path d="M149.6 202.1C142.8 205.4 135 207.5 127.8 208.6C117.7 210.1 108.9 209.5 106.3 207.4" stroke="#2D1F04" stroke-width="2.62" stroke-miterlimit="10" stroke-linecap="round" stroke-linejoin="round"/>
<path d="M149.5 214.4C138.9 220.2 127.5 220.7 127.5 220.7" stroke="#2D1F04" stroke-width="2.62" stroke-miterlimit="10" stroke-linecap="round" stroke-linejoin="round"/>
<path d="M132.6 209L134.3 214.2" stroke="#2D1F04" stroke-width="2.62" stroke-miterlimit="10" stroke-linecap="round" stroke-linejoin="round"/>
<path d="M126.7 210.1L128.3 215.3" stroke="#2D1F04" stroke-width="2.62" stroke-miterlimit="10" stroke-linecap="round" stroke-linejoin="round"/>
<path d="M45.8 215L43.4 219.8" stroke="#2D1F04" stroke-width="2.62" stroke-miterlimit="10" stroke-linecap="round" stroke-linejoin="round"/>
<path d="M57.3 218.5L54.8 223.3" stroke="#2D1F04" stroke-width="2.62" stroke-miterlimit="10" stroke-linecap="round" stroke-linejoin="round"/>
<path d="M28.9 214.2C40.4 213.1 57.7 213 70.7 227" stroke="#2D1F04" stroke-width="2.62" stroke-miterlimit="10" stroke-linecap="round" stroke-linejoin="round"/>
<path d="M140.4 314.4L99.2 281.1" stroke="#2D1F04" stroke-width="2.37" stroke-miterlimit="10" stroke-linecap="round" stroke-linejoin="round"/>
<path d="M164.2 49L166.6 56.7" stroke="#9D7B51" stroke-width="3.87" stroke-miterlimit="10" stroke-linecap="round" stroke-linejoin="round"/>
<path d="M30.2 240L32.6 247.6" stroke="#9D7B51" stroke-width="3.87" stroke-miterlimit="10" stroke-linecap="round" stroke-linejoin="round"/>
<path d="M155.2 50L157.7 57.6" stroke="#9D7B51" stroke-width="3.87" stroke-miterlimit="10" stroke-linecap="round" stroke-linejoin="round"/>
<path opacity="0.23" d="M71.6 235.2C71.1 235 70.7 234.7 70.4 234.2C70 233.7 71.7 234.5 72.3 234.6C72.6 234.7 72.8 234.9 73.1 235C75 235.5 78 235.3 80.1 235.4C116.6 236.2 104.5 207.6 104.5 207.5C104.6 207.3 105 207.4 105.3 207.5C107.7 208.1 109.9 209.6 112.3 210.2C116.6 211.3 120.1 209 124.6 209C131.1 209 135.5 207.6 141.6 205.2C142.6 204.8 149.7 202.4 150.7 202.7C151.5 203 150.2 218.3 150.2 220.4C150.2 227.9 148.2 235.7 147.7 243.2C147.3 249.4 148.2 255.7 147.3 261.8C146.8 265.1 146.5 268.6 146.5 271.9C146.5 272.2 146.7 272.6 146.5 272.7C145.9 273 145.4 271.7 145.3 271.5C143.8 268.5 140.3 268.9 138.6 266.1C135.2 260.5 133.2 257.4 125.5 253.4C117.8 249.4 105.2 240.7 94.1 238.5C86.8 237 78.7 237.9 71.6 235.2Z" fill="#3F2719"/>
<path d="M357.7 151.4C365.6 151.4 372 157.6 372 165.1L366 305.3C366 312.9 359.6 319 351.7 319L189.7 324.9L160 326C156.5 326 153.3 324.8 150.8 322.7C147.7 320.2 145.7 316.4 145.7 312.2L152.5 166.1C152.5 158.5 158.9 152.4 166.8 152.4C166.8 152.4 230.6 152 278.4 151.8C326.1 151.6 357.7 151.4 357.7 151.4Z" stroke="#2D1F04" stroke-width="2.37" stroke-miterlimit="10" stroke-linecap="round" stroke-linejoin="round"/>
<path d="M155.5 325.2C152.8 325.2 144.7 324.4 141.6 323.7C136.1 322.3 87.8 282.1 87.8 282.1" stroke="#2D1F04" stroke-width="2.37" stroke-miterlimit="10" stroke-linecap="round" stroke-linejoin="round"/>
<path opacity="0.23" d="M47.6 79.8C47.6 80.8 46.8 81.7 46.4 82.7C45.8 84.3 47.7 79.6 48.6 78.1C50.4 75.2 52.9 72.2 55.5 70.1C63.2 63.8 95.6 27.2 167.1 53.6C243.2 81.7 234.3 149.9 236.1 153.2C236.5 154 239.4 152 240 152.1C241.2 152.2 259 152.4 259 152.4C261.6 150.3 256 143.6 255.1 141.3C250.4 129 250.5 117.4 243.5 106.3C238.5 98.3 233.6 88.9 228.2 81C215 62 196.7 47.6 175.7 37.2C168.7 33.7 165.5 31.9 158.2 29.3C149.3 26.1 133.7 23.9 124 24.1C120.6 24.2 100.2 23.9 98.3 25C95.7 26.4 102.1 28.5 101.3 29.7C101.2 29.8 84.4 30.7 82 31.2C78.5 32 72.5 32.3 69 31.2C68.5 31.1 64 28 63.6 28.5C62.3 30.6 67.5 37.9 66.5 40.2C66.3 40.6 45.3 48.8 42.2 51.3C41.7 51.7 39.8 54 40.5 54.8C42.2 56.9 51.1 53.8 53.7 53.5C54.3 53.4 55.4 53.7 55.4 53.7C55.4 53.7 49.7 55.2 47.3 56.8C42.3 60.2 38.3 63.7 34.8 68.6C34.4 69.2 35.6 68.9 36.4 69.9C37.8 71.6 46.8 65.7 48 67.6C49.1 69.5 49 67.7 48.2 68.3C47 69.1 38.8 75.3 37.6 76C30.6 79.9 38.9 77.7 34.6 84.3C34.5 84.4 33 86.7 33.5 86.8C36.9 87 47.7 69.9 47.6 79.8Z" fill="#3F2719"/>
<path opacity="0.23" d="M107.2 283.7C97.8 275.6 115.4 296.2 117.9 298.3C121.1 301 125.1 300.9 127.7 304C131.3 308.5 136.9 312.2 141.3 316.3C144.9 319.6 150 324 155.2 325.8C162.9 328.6 179.9 324.9 188.4 324.9C236.3 325.1 273.2 319.5 318.4 319.5C348.3 319.5 366.7 319.2 364.9 306.8C364.8 306 359.9 313.9 352.4 314.2C316.7 315.3 206.6 320.4 161.9 322.1C154.6 322.4 149.3 318.1 148.4 317.7C145.4 316.1 148.3 301.7 147.4 295.6C145.5 282.4 132 266.9 118.3 266.4C83.5 265.1 35.2 285.5 13.6 273.6C7.70001 270.4 4.20001 264.4 3.90001 254.5C-0.999993 261.2 3.80001 278.6 14.7 282.8C18.6 284.3 28.5 285.9 32.6 286.1C37.4 286.4 43.6 286.8 48.3 286.1C59 284.6 69.2 285 79.9 283.5C87 282.5 94 282.3 101 281.3C103.8 280.9 108.4 284.7 107.2 283.7Z" fill="#3F2719"/>
<path d="M116 64.2003C115.9 63.9003 115.7 63.6003 115.6 63.3003Z" fill="#CAA77A"/>
<path d="M245.2 198.5C250.3 198.6 255.2 198.7 260.2 198.9C264.3 199.1 265.7 202.1 265.9 204.9C266.1 208.8 264.4 211.6 261 213C260.8 213.1 260.6 213.1 260.3 213.2C264.3 215.7 264.7 220.6 267.1 224.7C264.2 224.7 261.7 224.7 259 224.7C257.7 222 256.5 219.3 255.3 216.5C254.6 215 253.8 213.9 251.8 214.3C251.7 217.7 251.6 221.1 251.6 224.7C249.2 224.7 247 224.7 244.6 224.7C244.5 216.2 245 207.6 245.2 198.5ZM252.1 204C252 205.8 252 207.4 251.9 209.4C253.4 209.3 255 209.3 256.5 209.1C257.8 208.9 258.6 207.9 258.6 206.6C258.7 205.2 258 204.2 256.6 204C255.2 203.9 253.7 204 252.1 204Z" fill="black"/>
<path d="M287.6 206C285.3 206.2 283.2 206.3 281 206.5C280.8 204.3 279.6 203.1 277.7 203.1C276.5 203.1 275.4 203.5 274.9 205C274.9 206.3 275.7 206.7 276.6 207C278.2 207.5 279.9 207.9 281.5 208.5C282.4 208.8 283.3 209.2 284.1 209.6C289.5 212.4 288.5 219.9 284.6 223.2C283.3 224.3 281.6 225 280.1 225.3C277.5 225.8 274.9 225.7 272.3 224.9C268.9 223.9 266.8 220.7 266.9 216.4C269 216.3 271.2 216.1 273.4 216C273.5 216.5 273.6 217 273.7 217.5C274.4 220 276.7 221.2 278.9 220.2C279.9 219.8 280.6 219 280.7 217.8C280.8 216.7 280.2 215.9 279.4 215.4C278.7 215 277.9 214.8 277.1 214.5C275.5 213.9 273.8 213.5 272.3 212.8C269.3 211.4 267.9 208.9 268.2 205.9C268.5 202.6 270.5 200 273.8 199C276.9 198.1 279.9 198 282.9 199.1C286.1 200 287.5 202.1 287.6 206Z" fill="black"/>
</g>
<defs>
<clipPath id="clip0_281_963">
<rect width="374" height="328" fill="white"/>
</clipPath>
</defs>
</svg>
